<?xml version="1.0" encoding="UTF-8" standalone="no"?>
<svg
   xmlns:svg="http://www.w3.org/2000/svg"
   xmlns="http://www.w3.org/2000/svg"
   version="1.1"
   width="274.65625"
   height="382.84375"
   id="svg7832">
  <defs
     id="defs7834" />
  <g
     transform="translate(-319.8125,-380.96875)"
     id="layer1">
    <path
       d="m 591.50183,444.22446 -13.21807,-2.54131 c -21.91461,-4.38952 -82.83985,-22.11262 -101.88311,-51.55212 l -4.90108,-7.49189 -25.44603,0 -5.00009,6.45226 c -36.50234,47.36063 -103.20327,52.24521 -103.89635,52.31122 l -15.67686,0.97362 0.14851,15.54484 1.51818,128.79781 c 4.91759,109.01195 123.51718,169.37613 128.55028,171.85142 l 6.98033,3.51492 7.16185,-3.23438 c 4.75257,-2.06275 116.33883,-53.08681 126.83408,-170.66329 l 0.13201,-0.8416 -1.30365,-143.1215 z"
       id="path598"
       style="fill:#ffffff;fill-opacity:1;fill-rule:nonzero;stroke:none" />
    <path
       d="m 591.50183,444.22446 -13.21807,-2.54131 c -21.91461,-4.38952 -82.83985,-22.11262 -101.88311,-51.55212 l -4.90108,-7.49189 -25.44603,0 -5.00009,6.45226 c -36.50234,47.36063 -103.20327,52.24521 -103.89635,52.31122 l -15.67686,0.97362 0.14851,15.54484 1.51818,128.79781 c 4.91759,109.01195 123.51718,169.37613 128.55028,171.85142 l 6.98033,3.51492 7.16185,-3.23438 c 4.75257,-2.06275 116.33883,-53.08681 126.83408,-170.66329 l 0.13201,-0.8416 -1.30365,-143.1215 z"
       id="path610"
       style="fill:none;stroke:#00355f;stroke-width:1.32015681;stroke-linecap:butt;stroke-linejoin:miter;stroke-miterlimit:4;stroke-opacity:1;stroke-dasharray:none" />
    <path
       d="m 451.76664,394.48897 -1.53125,2.0625 c -40.20104,52.07718 -112.4375,56.71875 -112.4375,56.71875 l -4.125,0 0,4.65625 c 0,0 -0.47264,68.00271 1.03125,128.40626 l 0,0.5 c 4.69832,103.63646 122.21875,160.90625 122.21875,160.90625 l 2.0625,1.03125 2.0625,-0.53125 c 0,0 109.67386,-48.76383 119.65625,-160.875 l 0,-0.53125 c 0,-37.73249 -1.03125,-128.90626 -1.03125,-128.90626 l 0,-4.125 -3.625,-0.53125 c 0,0 -21.03072,-4.11485 -45.375,-13.40625 -24.34428,-9.2914 -52.00208,-24.11898 -64.46875,-43.3125 l -1.03125,-2.0625 -2.5625,0 -8.25,0 -2.59375,0 z m 4.65625,9.28125 4.125,0 c 15.06308,21.20753 42.25142,35.6082 66.53125,44.875 23.2319,8.86684 40.33483,12.26081 43.3125,12.875 0.0574,4.83311 1.02285,88.05142 1.03125,124.81251 -0.0157,0.17672 0.0163,0.32361 0,0.5 -9.56348,103.73342 -108.4475,149.2688 -112.4375,151.09375 -4.01376,-2.05936 -110.17213,-56.81804 -114.46875,-151.59375 -1.45795,-58.53294 -1.56131,-121.14971 -1.5625,-124.81251 7.26878,-0.55319 72.22039,-6.23385 113.46875,-57.75 z m 2.09375,4.375 c -18.63071,23.02024 -33.625,28.65625 -33.625,28.65625 l -0.0625,17.1875 66.71875,-0.28125 0.3125,-17.125 c 0,0 -19.87815,-7.46351 -33.34375,-28.4375 z m -39.5,51.28125 0,18.34375 6.125,0 0,68.06251 8.40625,8.375 25.25,0 23.4375,0 8.40625,-8.375 0,-68.06251 6.09375,0 0,-18.34375 -29,0 0,18.34375 5.71875,0 0,59.31251 -12.875,0 -5.40625,-0.0625 -12.84375,0 0,-59.25001 5.75,0 0,-18.34375 -29.0625,0 z m -53.53125,13.9375 -9.96875,16.03126 0,23.96875 12.15625,11.96875 37.03125,0.15625 0,14.4375 c 5.95721,-2.06275 12.96875,-3.4375 12.96875,-3.4375 l 0,-19.53125 -6.4375,-8.40625 -39.5625,0 0,-18.15625 31.09375,0.21875 -0.15625,9.90625 15.0625,-0.15625 0,-15.90625 -8.375,-11.09376 -43.8125,0 z m 153.25,0.0937 -24.21875,62.00001 11.625,3.65625 7.03125,-16.09375 22.25,0 5.5625,15.25 -6.4375,0 0.28125,10.78125 7.5625,4.8125 18.5625,0 0,-15.59375 -5.9375,0 -23.53125,-64.81251 -12.75,0 z m 6.65625,21.15626 5.375,16.28125 -12.03125,0 6.65625,-16.28125 z m -170,35.40625 -0.0625,16.03125 8.875,10.09375 7.15625,0 c 0,0 8.54008,-6.54862 16.3125,-9.75 0,-2.47529 -0.0625,-5.375 -0.0625,-5.375 l -17.8125,-0.0625 0.125,-10.8125 -14.53125,-0.125 z m 63.03125,11.56255 c -36.9809,7.68991 -63,25.96247 -63,47.25 0,28.21835 45.74728,51.10499 102.25,51.1875 56.32119,-0.21453 102.53125,-22.97265 102.53125,-51.125 0,-21.35354 -26.05035,-39.62259 -63.03125,-47.3125 l -1.5625,5.15625 c 3.71294,0.8086 7.29934,1.55763 10.78125,2.53125 4.25021,3.69256 7.96612,7.83187 11.03125,12.28125 -6.89782,-2.39278 -15.57284,-4.90951 -25.375,-6.90625 l -1.8125,5.46875 c 12.55799,2.22776 23.43054,5.69889 31.5,8.71875 3.3829,6.7328 5.1875,13.76369 5.1875,20.5625 0,6.12223 -1.17322,12.06982 -3.5,17.8125 -13.81214,4.00998 -37.90203,9.71843 -65.03125,10.3125 l -0.59375,0 c -27.32725,-0.52806 -51.71735,-6.33027 -65.5625,-10.40625 -2.40929,-5.67667 -3.59375,-11.65902 -3.59375,-17.78125 0,-6.7328 1.88535,-13.8627 5.21875,-20.5625 8.10246,-3.01986 18.92551,-6.42849 31.5,-8.65625 l -1.75,-5.53125 c -9.83517,1.98024 -18.52318,4.57947 -25.4375,6.90625 3.06513,-4.44939 6.7794,-8.52636 11.0625,-12.21875 3.48191,-0.97362 7.05181,-1.80516 10.78125,-2.53125 l -1.59375,-5.15625 z m -26.1875,18.34375 c -1.02312,1.63369 -1.9544,3.25781 -2.8125,4.875 -3.61393,1.41917 -6.15561,2.62468 -7.34375,3.21875 2.40929,-3.48191 7.51594,-6.59207 10.15625,-8.09375 z m 131.1875,0 c 2.62381,1.50168 7.69921,4.67784 10.125,8.09375 -1.20464,-0.59407 -3.76282,-1.79958 -7.34375,-3.21875 -0.89111,-1.61719 -1.77463,-3.24131 -2.78125,-4.875 z m -66.125,0.25 -3.59375,0.0625 0.0937,7.5625 2.34375,0 0,-2.53125 1.3125,0 c 2.07925,-0.066 3.15625,-0.87579 3.15625,-2.625 0,-1.78221 -1.33226,-2.46875 -3.3125,-2.46875 z m 4.78125,0 -0.28125,4.21875 c -0.0495,1.02312 -0.0786,1.99091 0.8125,2.75 0.70958,0.66008 1.89612,0.93399 2.96875,1 1.03962,0.14852 2.25566,-0.12468 3.03125,-0.71875 0.92411,-0.62707 1.046,-1.59064 1.0625,-2.53125 l 0.28125,-4.375 -2.375,-0.0625 -0.1875,4 c -0.033,0.94061 -0.27957,2.06601 -1.78125,2 -1.51818,-0.066 -1.5165,-1.21213 -1.5,-2.21875 l 0.25,-4 -2.28125,-0.0625 z m -10.1875,0.0625 -5.15625,0.40625 0.5625,7.65625 5.125,-0.4375 -0.0937,-1.625 -2.8125,0.21875 -0.0625,-1.375 2.65625,-0.1875 -0.125,-1.6875 -2.65625,0.21875 -0.125,-1.3125 2.78125,-0.1875 -0.0937,-1.6875 z m 19.875,0.625 -0.9375,7.5625 2.375,0.28125 0.9375,-7.625 -2.375,-0.21875 z m -30.25,0.5 c -0.30696,-10e-4 -0.61984,0.009 -0.9375,0.0625 l -3.28125,0.5 1.125,7.625 3.375,-0.5 c 2.47529,-0.49506 4.31705,-2.465 3.9375,-4.59375 -0.25991,-1.79046 -2.07001,-3.08473 -4.21875,-3.09375 z m 36.46875,0.25 c -1.22051,0.1215 -2.17285,0.86291 -2.375,2 -0.31354,1.46867 0.59733,1.99793 2,2.625 0.44555,0.19802 1.36727,0.53619 1.21875,1.03125 -0.066,0.59407 -0.70544,0.72577 -1.25,0.59375 -0.79209,-0.18152 -1.39469,-0.59518 -1.90625,-1.15625 l -1.28125,1.375 c 0.79209,0.77559 1.83187,1.25422 2.9375,1.46875 0.92411,0.14852 1.8789,0.15553 2.6875,-0.125 0.8251,-0.42905 1.16574,-1.14541 1.28125,-1.9375 0.23103,-1.25415 -0.60961,-1.95368 -1.78125,-2.53125 l -0.5625,-0.21875 c -0.44555,-0.21453 -0.95576,-0.4937 -0.90625,-0.90625 0.0825,-0.34654 0.7107,-0.48876 1.15625,-0.40625 0.56107,0.13202 1.07621,0.40346 1.40625,0.75 l 1.1875,-1.25 c -0.69308,-0.59407 -1.76514,-1.07023 -2.65625,-1.21875 -0.22071,-0.0433 -0.41444,-0.0847 -0.625,-0.0937 -0.18424,-0.008 -0.35689,-0.0174 -0.53125,0 z m -21.5,0.0937 c 0.92411,0 1.68575,-0.007 1.71875,1 0.0495,0.90761 -0.86065,0.90625 -1.71875,0.90625 l -0.375,0 -0.0312,-1.84375 0.40625,-0.0625 z m -15.5,1.46875 c 1.22553,-0.0102 2.17285,0.54917 2.375,1.71875 0.21453,1.48518 -0.89509,2.25072 -2.28125,2.53125 l -0.53125,0.0625 -0.6875,-4.21875 0.59375,-0.0625 c 0.18565,-0.0247 0.35617,-0.0298 0.53125,-0.0312 z m -59.75,5.25 -2.46875,6.34375 c -2.64031,1.43567 -11.78187,6.45598 -17.0625,10.8125 0,-0.21453 0.0277,-0.50422 0.0937,-0.71875 4.71956,-5.0166 14.99847,-15.39788 19.4375,-16.4375 z m 153.15625,0.0625 c 4.43903,1.05613 14.67019,11.36964 19.40625,16.46875 0.066,0.19802 0.0937,0.40697 0.0937,0.6875 -5.31363,-4.42253 -14.43693,-9.36208 -17.09375,-10.78125 l -2.40625,-6.375 z m -148.1875,3.3125 c -2.16176,5.77569 -3.25,11.73906 -3.25,17.53125 0,5.36314 0.74131,10.57365 2.375,15.65625 -3.41591,-1.07263 -5.3125,-1.84375 -5.3125,-1.84375 l 2.3125,6.93755 c 0,0 2.08481,0.77885 5.78125,2 1.22115,2.5413 2.66055,5.15497 4.34375,7.53125 -3.77895,-3.44891 -8.4088,-7.84805 -10.125,-9.53125 -2.40929,0.21453 -13.68429,-9.19865 -19.625,-14.28125 -0.0495,-0.066 -0.0902,-0.27423 -0.15625,-0.40625 6.68329,3.89446 18.03125,7.625 18.03125,7.625 0,0 -3.625,-6.9445 -3.625,-13.28125 0,-5.36314 1.78093,-12.43024 2.375,-14.625 1.18814,-0.62707 3.45909,-1.81082 6.875,-3.3125 z m 143.1875,0.0625 c 3.3829,1.50168 5.76586,2.70544 6.9375,3.25 0.61057,2.19476 2.34375,9.26186 2.34375,14.625 0,6.40276 -3.5625,13.28125 -3.5625,13.28125 0,0 11.31671,-3.66804 18,-7.5625 -0.066,0.14852 -0.15274,0.34024 -0.21875,0.40625 -5.9242,5.09911 -17.18096,14.44452 -19.65625,14.3125 -1.6832,1.6667 -6.30005,5.98508 -10.0625,9.5 1.6502,-2.44229 3.12085,-4.98644 4.375,-7.59375 3.67994,-1.22115 5.6875,-1.90625 5.6875,-1.90625 l 2.375,-7.03125 c 0,0 -1.96085,0.78236 -5.34375,1.9375 1.58419,-5.09911 2.4375,-10.32436 2.4375,-15.6875 0,-5.8582 -1.13424,-11.82157 -3.3125,-17.53125 z m -80.0625,5.0938 c -3.71294,0 -7,3.31352 -7,9.46875 0,4.57104 2.01737,8.84375 5.21875,8.84375 0.8581,0 1.58817,-0.22369 2.28125,-0.71875 l 0.0625,0.0625 -4.65625,8.40625 4.8125,0 3.46875,-7 c 1.36966,-2.88784 2.625,-6.34007 2.625,-9.9375 0,-2.67332 -0.90035,-5.40282 -2.1875,-6.9375 -1.23765,-1.56769 -3.04081,-2.1875 -4.625,-2.1875 z m 19,0 c -4.83507,0 -6.90625,7.01122 -6.90625,13.5625 0,6.51827 2.05467,13.46875 6.90625,13.46875 4.85158,0 6.90625,-6.95048 6.90625,-13.46875 0,-6.55128 -2.08768,-13.5625 -6.90625,-13.5625 z m 19.15625,0 c -2.83834,0 -5.59375,2.35418 -5.59375,7.15625 0,2.62381 1.12683,4.93192 2.5625,5.625 l 0,0.15625 c -1.91423,0.97362 -3.21875,3.23261 -3.21875,6.5 0,5.23112 3.41166,7.59375 6.25,7.59375 2.75583,0 6.1875,-2.36263 6.1875,-7.59375 0,-3.26739 -1.33402,-5.52638 -3.28125,-6.5 l 0,-0.15625 c 1.51818,-0.69308 2.59375,-3.00119 2.59375,-5.625 0,-4.80207 -2.74417,-7.15625 -5.5,-7.15625 z m -61.28125,0.96875 0,5.5625 2.28125,0 0,19.53125 4.25,0 0,-25.09375 -6.53125,0 z m 61.28125,3.5 c 0.95711,0 1.75,1.30731 1.75,2.875 0,1.53468 -0.79289,2.84375 -1.75,2.84375 -1.03962,0 -1.8125,-1.30907 -1.8125,-2.84375 0,-1.56769 0.77288,-2.875 1.8125,-2.875 z m -38.15625,0.6875 c 1.50168,0 2.71875,1.77821 2.71875,4.1875 0,2.22776 -1.21707,4.0625 -2.71875,4.0625 -1.45217,0 -2.625,-1.83474 -2.625,-4.0625 0,-2.40929 1.17283,-4.1875 2.625,-4.1875 z m 19,0.5625 c 2.17826,0 2.71875,5.37196 2.71875,7.78125 0,2.40929 -0.54049,7.8125 -2.71875,7.8125 -2.17826,0 -2.71875,-5.40321 -2.71875,-7.8125 0,-2.40929 0.54049,-7.78125 2.71875,-7.78125 z m 19.15625,9.875 c 1.03962,0 1.90625,1.31329 1.90625,3.0625 0,1.6997 -0.86663,3.09375 -1.90625,3.09375 -1.13864,0 -1.9375,-1.39405 -1.9375,-3.09375 0,-1.74921 0.79886,-3.0625 1.9375,-3.0625 z m -91.65625,21.75 c 13.94416,3.82846 37.02161,9.06322 61.3125,9.34375 l 0.375,0 c 24.67043,-0.14852 48.10957,-5.38328 62.21875,-9.34375 -2.80533,4.67006 -6.49847,8.96579 -10.9375,12.84375 -14.60424,4.38952 -31.95355,6.875 -50.46875,6.875 l -0.46875,0 -0.5625,0 c -18.5317,0 -35.84626,-2.48548 -50.5,-6.875 -4.45553,-3.94397 -8.09741,-8.2562 -10.96875,-12.84375 z m 29.03125,27.46875 0.125,69.5 c 0,0 31.68725,22.64748 33.75,22.8125 2.02974,0.21453 32.8125,-21.34375 32.8125,-21.34375 l -0.0312,-70.53125 c 0,0 -13.35143,2.6875 -32.90625,2.6875 -19.58783,0 -33.75,-3.125 -33.75,-3.125 z m -27.0625,5.4375 0,5.3125 1.5,0 0,20.8125 -1.5,0 0,5.21875 20.03125,0 0.6875,-10.84375 -5.34375,0 -0.53125,3.5625 c -0.24753,1.7162 -0.35331,2.0625 -1.9375,2.0625 l -4.34375,0 0,-20.8125 1.5,0 0,-5.3125 -10.0625,0 z m 109.375,0 c -2.73933,0 -3.51697,0.29472 -5.84375,2.6875 -2.11225,2.12875 -2.09024,2.54472 -2.15625,4.9375 l 0,15.6875 c 0,3.10237 0.45798,3.669 2.71875,5.78125 2.42579,2.12875 2.90218,2.28125 5.625,2.28125 l 12.46875,0 0,-18.4375 -10.5625,0 0,4.71875 3.875,0 0,8.53125 -3.71875,0 c -3.10237,0 -3.34375,-1.58506 -3.34375,-3.21875 l 0,-14.0625 c 0,-2.45879 0.57174,-3.65625 2.75,-3.65625 l 2.125,0 c 1.20464,0 1.75598,0.1226 1.9375,1.34375 l 0.4375,3.25 5.75,0 -0.625,-9.84375 -11.4375,0 z"
       id="path614"
       style="font-size:medium;font-style:normal;font-variant:normal;font-weight:normal;font-stretch:normal;text-indent:0;text-align:start;text-decoration:none;line-height:normal;letter-spacing:normal;word-spacing:normal;text-transform:none;direction:ltr;block-progression:tb;writing-mode:lr-tb;text-anchor:start;baseline-shift:baseline;color:#000000;fill:#00355f;fill-opacity:1;stroke:none;stroke-width:0.57499999;marker:none;visibility:visible;display:inline;overflow:visible;enable-background:accumulate;font-family:Sans;-inkscape-font-specification:Sans" />
    <path
       d="m 458.79306,663.24179 1.25415,-0.97362 c 0.8581,-0.62707 1.30365,-1.35316 1.30365,-2.06274 0,-0.54457 -0.18152,-0.97362 -0.66008,-1.45218 -0.39605,-0.39604 -0.95711,-0.59407 -1.7327,-0.59407 -0.67658,0 -1.25415,0.19803 -1.6832,0.59407 -0.42906,0.28054 -0.62708,0.69309 -0.62708,1.17164 0,0.56107 0.36304,1.18814 1.07263,2.06275 l 1.07263,1.25415 z m -1.73271,4.86808 c -1.05613,0.56106 -1.81522,1.15513 -2.31027,1.91422 -0.52807,0.70959 -0.7921,1.46868 -0.7921,2.27727 0,0.90761 0.29704,1.6667 0.94061,2.32678 0.62708,0.62707 1.51818,0.90761 2.57431,0.90761 0.69308,0 1.35316,-0.13202 2.07925,-0.41255 0.57757,-0.21453 1.30365,-0.69308 2.04624,-1.36966 l -4.53804,-5.64367 z m 13.99366,7.83843 -2.72282,3.56442 c -1.32016,-0.74259 -2.59081,-1.56769 -3.84496,-2.72282 -0.92411,0.8746 -1.94723,1.43567 -2.98685,1.84822 -1.10563,0.41255 -2.34328,0.62707 -3.82846,0.62707 -2.92084,0 -5.1156,-0.8416 -6.58428,-2.40929 -1.13863,-1.32015 -1.6997,-2.75582 -1.6997,-4.42252 0,-1.50168 0.44555,-2.88784 1.30365,-4.04298 0.90761,-1.25415 2.22777,-2.26077 4.00998,-3.16838 -0.8086,-0.90761 -1.36966,-1.84822 -1.84822,-2.67332 -0.39605,-0.8416 -0.52806,-1.7162 -0.52806,-2.47529 0,-1.32016 0.52806,-2.60731 1.6667,-3.58093 1.15513,-1.08912 2.77233,-1.50167 4.88458,-1.50167 2.02974,0 3.59742,0.47855 4.75256,1.56768 1.13864,1.03963 1.7162,2.26077 1.7162,3.72945 0,0.97361 -0.28053,1.91422 -0.8581,2.73932 -0.52806,0.87461 -1.6997,1.84822 -3.43241,2.88784 l 3.3004,4.32352 c 0.37954,-0.69308 0.70958,-1.56769 0.97361,-2.67332 l 4.09249,0.90761 c -0.46206,1.41917 -0.79209,2.45879 -1.08913,3.26739 -0.28053,0.62707 -0.67658,1.12213 -0.95711,1.60069 0.51156,0.41255 1.08913,0.9076 1.93073,1.56768 0.80859,0.49506 1.36966,0.8416 1.7492,1.03963"
       id="path666"
       style="fill:#ffffff;fill-opacity:1;fill-rule:nonzero;stroke:none" />
  </g>
</svg>
