<?xml version="1.0" standalone="no"?>
<!DOCTYPE svg PUBLIC "-//W3C//DTD SVG 20010904//EN"
 "http://www.w3.org/TR/2001/REC-SVG-20010904/DTD/svg10.dtd">
<svg version="1.0" xmlns="http://www.w3.org/2000/svg"
 width="400.000000pt" height="349.000000pt" viewBox="0 0 400.000000 349.000000"
 preserveAspectRatio="xMidYMid meet">

<g transform="translate(0.000000,349.000000) scale(0.100000,-0.100000)"
fill="#000000" stroke="none">
<path d="M1777 3355 c-7 -17 -57 -39 -112 -49 -102 -17 -96 -14 -80 -46 33
-64 7 -122 -80 -181 -19 -13 -35 -26 -35 -29 0 -3 20 -13 45 -24 l45 -18 -30
-38 c-17 -21 -36 -53 -44 -72 -12 -30 -30 -118 -24 -118 2 0 27 7 56 14 28 8
52 13 52 11 0 -1 -16 -29 -35 -61 -44 -72 -58 -124 -50 -175 7 -43 12 -46 41
-24 34 26 42 17 54 -57 12 -70 8 -244 -7 -342 l-6 -40 39 24 c83 50 91 52 121
38 15 -7 34 -26 42 -42 13 -27 11 -34 -27 -107 -23 -43 -37 -81 -32 -84 14 -9
61 19 97 57 41 42 62 93 70 168 3 33 7 60 9 60 2 0 26 -16 53 -35 26 -19 68
-44 92 -54 45 -20 149 -39 149 -27 0 4 -18 35 -40 70 -34 53 -48 86 -37 86 1
0 50 -13 110 -29 67 -19 104 -25 100 -17 -5 7 -29 42 -55 78 -27 36 -48 68
-48 72 0 3 12 6 28 6 76 1 76 9 -1 68 l-72 57 62 13 c50 11 68 21 93 49 17 19
29 37 27 39 -2 2 -33 0 -68 -5 -35 -5 -66 -7 -68 -5 -2 2 7 21 21 41 47 72 56
119 36 188 l-11 40 -18 -58 c-21 -72 -41 -103 -82 -127 -36 -22 -109 -26 -154
-9 -42 16 -93 68 -119 124 -43 91 -34 94 68 25 44 -30 84 -50 101 -50 32 0 31
-2 11 45 -14 34 -14 42 2 92 l17 55 69 -7 c91 -9 150 7 198 55 89 89 75 218
-31 279 -29 17 -55 29 -56 27 -2 -2 8 -23 22 -47 65 -114 -4 -259 -124 -259
-30 0 -33 2 -27 23 4 12 10 59 13 103 5 79 5 82 -18 95 -14 8 -56 14 -102 14
-71 0 -81 -2 -98 -24 -14 -17 -17 -27 -9 -35 7 -7 0 -14 -21 -23 -28 -12 -37
-9 -131 38 -55 28 -99 52 -97 54 2 2 24 -1 49 -5 73 -15 174 -12 196 5 10 8
31 15 46 15 15 0 30 5 33 10 13 21 -16 37 -100 60 -47 13 -88 27 -91 32 -8 13
-21 10 -27 -7z m320 -298 c26 -25 -14 -44 -109 -51 l-88 -6 0 33 c0 19 3 37 8
41 12 13 174 -2 189 -17z"/>
<path d="M1286 3092 c6 -57 6 -59 -25 -83 -17 -13 -44 -34 -60 -46 -35 -28
-51 -85 -51 -180 0 -116 31 -202 151 -425 44 -81 77 -152 74 -158 -4 -6 -27 6
-56 31 -27 23 -52 39 -55 36 -3 -3 18 -51 46 -107 28 -56 50 -104 48 -106 -2
-2 -30 12 -62 32 -34 20 -56 29 -53 20 3 -7 36 -58 73 -111 l68 -98 -37 7
c-41 8 -41 8 -26 -31 37 -98 29 -193 -26 -325 -19 -45 -35 -86 -35 -90 0 -4
24 -8 54 -8 l55 0 49 88 c108 193 141 337 111 484 -15 72 -72 189 -164 333
-42 66 -88 142 -102 170 -84 164 -96 340 -25 395 34 27 78 21 110 -17 19 -21
22 -33 17 -62 -11 -58 -30 -81 -70 -81 -33 0 -35 -2 -35 -35 0 -68 44 -141
103 -171 l28 -15 -17 38 c-28 62 -28 103 0 148 67 105 70 151 18 233 -17 26
-34 65 -37 87 -9 47 -27 80 -55 95 -19 10 -20 8 -14 -48z"/>
<path d="M2698 2941 c-41 -32 -90 -153 -99 -242 -6 -61 -18 -101 -52 -176 -52
-114 -64 -120 -131 -74 -45 31 -96 40 -126 21 -17 -11 -22 -7 64 -48 l70 -34
-52 -30 c-29 -16 -52 -34 -52 -39 0 -4 12 -34 26 -66 14 -32 35 -82 45 -110
28 -72 57 -93 130 -93 33 0 59 2 59 5 0 3 -7 16 -16 29 -15 24 -15 24 28 31
70 12 75 19 34 50 -20 15 -36 31 -36 35 0 5 25 16 56 25 31 9 54 18 51 21 -2
3 -28 23 -57 44 l-53 39 27 11 c15 5 31 10 36 10 21 0 18 21 -7 50 -26 31 -26
33 -8 46 28 21 67 17 105 -11 34 -25 34 -25 42 -4 10 25 -5 56 -40 85 -24 19
-25 24 -12 39 11 13 25 16 62 13 47 -5 48 -4 48 22 0 19 -11 38 -35 59 -19 17
-35 32 -35 34 0 2 23 2 50 -1 46 -4 50 -3 50 17 0 38 -20 61 -75 88 l-55 25
19 27 c30 41 54 59 85 63 l28 3 -22 28 c-19 23 -29 27 -74 27 -38 0 -61 -6
-78 -19z"/>
<path d="M2204 2143 c3 -10 10 -38 16 -63 6 -25 13 -53 16 -62 7 -25 -3 -24
-165 27 -80 24 -146 44 -147 42 -1 -1 -16 -30 -33 -64 -37 -75 -87 -125 -145
-147 -27 -10 -47 -26 -55 -42 -6 -14 -11 -75 -11 -143 0 -107 -8 -159 -35
-223 -7 -17 2 -18 103 -18 l109 0 27 40 c33 50 103 106 199 158 88 49 133 91
159 149 23 53 42 55 98 8 22 -19 57 -37 76 -41 44 -8 54 -28 54 -108 0 -69 5
-75 43 -55 28 15 35 25 47 72 12 41 23 44 75 23 38 -16 49 -41 50 -113 0 -24
1 -43 2 -43 1 0 12 17 25 37 13 20 26 41 30 47 4 7 18 0 36 -17 l29 -28 12 30
c16 38 8 64 -37 113 l-36 40 52 -3 c48 -4 52 -2 52 18 0 12 -11 35 -24 50 -24
27 -26 28 -117 25 -83 -2 -98 0 -146 24 -55 27 -148 111 -217 197 -43 55 -90
87 -124 87 -18 0 -22 -4 -18 -17z"/>
<path d="M294 1408 c26 -36 46 -85 46 -114 0 -37 -151 -699 -186 -816 -5 -17
7 -18 159 -18 162 0 165 0 171 22 4 13 20 82 37 153 49 213 46 205 79 205 72
0 355 -182 703 -450 42 -33 52 -46 40 -48 -10 -2 -28 -13 -40 -25 l-23 -20
-23 21 c-13 12 -34 22 -48 22 -24 -1 -24 -1 9 -30 17 -16 32 -32 32 -34 0 -2
-18 -31 -40 -64 -22 -33 -40 -63 -40 -66 0 -4 47 33 104 83 57 50 106 91 109
91 4 0 46 -33 94 -72 49 -40 97 -80 108 -88 13 -11 8 6 -19 55 -85 155 -245
371 -396 536 l-81 89 43 0 c110 1 243 48 305 110 48 47 78 144 78 255 0 84 -2
93 -30 135 -19 28 -47 54 -75 68 l-44 22 -544 0 -544 0 16 -22z m886 -193 c10
-12 10 -30 0 -90 l-13 -75 -269 0 -270 0 7 43 c10 59 36 110 65 124 18 9 90
13 246 13 186 0 224 -2 234 -15z"/>
<path d="M1530 1421 c0 -5 7 -15 17 -22 21 -18 43 -71 43 -106 0 -15 -32 -171
-71 -346 -77 -350 -77 -357 -21 -409 74 -69 142 -78 598 -78 206 0 374 2 374
5 0 14 -41 85 -66 114 -60 72 -145 90 -410 91 -194 0 -201 2 -190 67 9 47 74
330 92 400 23 84 20 83 228 83 101 0 207 5 236 10 84 16 152 53 213 114 l55
56 16 -25 c30 -46 20 -124 -69 -510 -47 -203 -88 -378 -91 -387 -5 -17 7 -18
160 -18 163 0 166 0 171 22 3 13 20 84 38 158 l32 135 273 3 c257 2 273 1 268
-15 -3 -10 -19 -74 -36 -143 -17 -69 -33 -133 -36 -142 -5 -17 7 -18 163 -18
l169 0 48 197 c115 478 128 572 86 657 -27 56 -70 91 -130 105 -56 13 -2160
15 -2160 2z m1978 -241 c1 -19 -5 -71 -15 -115 l-19 -80 -273 -3 c-256 -2
-272 -1 -267 15 3 10 15 58 26 107 11 50 26 96 32 103 8 11 63 13 262 11 l251
-3 3 -35z"/>
<path d="M356 326 c3 -7 -2 -41 -10 -74 -20 -75 -20 -72 8 -72 19 0 26 7 31
30 4 16 10 32 14 34 7 4 38 -15 135 -84 15 -11 12 -3 -12 29 -17 25 -32 48
-32 52 0 4 11 10 25 13 29 7 44 49 25 71 -17 21 -192 22 -184 1z m142 -33 c-2
-12 -14 -19 -37 -21 -43 -4 -62 4 -55 23 4 10 20 15 51 15 37 0 44 -3 41 -17z"/>
<path d="M562 308 c-1 -18 -6 -48 -11 -67 -6 -19 -8 -37 -5 -42 9 -15 90 -21
131 -10 39 11 42 14 52 62 17 76 15 89 -13 89 -21 0 -24 -6 -29 -51 -8 -62
-20 -79 -60 -79 -29 0 -30 0 -23 43 12 83 13 82 -15 85 -23 3 -26 -1 -27 -30z"/>
<path d="M756 273 c-9 -40 -11 -72 -6 -77 15 -15 102 -19 146 -7 34 9 43 17
47 39 3 15 3 30 0 34 -6 12 -101 10 -108 -2 -4 -6 7 -10 25 -10 25 0 31 -4 28
-17 -2 -14 -13 -18 -43 -18 -39 0 -40 1 -39 33 3 55 10 62 57 62 27 0 49 6 57
15 11 13 2 15 -68 15 l-80 0 -16 -67z"/>
<path d="M972 275 c-7 -36 -13 -71 -15 -78 -3 -15 160 -22 182 -8 8 5 15 25
16 45 1 20 5 40 9 43 12 12 6 51 -10 57 -9 3 -50 6 -93 6 l-76 0 -13 -65z
m146 18 c-2 -12 -14 -19 -37 -21 -43 -4 -62 4 -55 23 4 10 20 15 51 15 37 0
44 -3 41 -17z m-8 -47 c0 -24 -17 -36 -50 -36 -39 0 -56 12 -45 30 6 9 95 15
95 6z"/>
<path d="M1714 318 c0 -13 -4 -46 -8 -74 l-8 -51 32 -7 c18 -3 53 -6 77 -6 59
0 53 23 -8 30 -43 5 -44 6 -41 40 4 56 8 60 55 60 27 0 49 6 57 15 11 13 2 15
-71 15 -80 0 -84 -1 -85 -22z"/>
<path d="M1894 332 c3 -6 -1 -39 -9 -74 -8 -35 -15 -66 -15 -70 0 -5 36 -8 81
-8 60 0 80 3 77 13 -3 7 -25 13 -52 15 l-48 3 7 42 c14 76 12 82 -19 85 -17 2
-26 0 -22 -6z"/>
<path d="M2062 273 c-9 -48 -10 -69 -2 -77 15 -15 135 -13 153 2 16 14 41 117
32 132 -3 5 -16 10 -28 10 -19 0 -22 -6 -24 -45 -3 -65 -17 -87 -56 -83 -34 3
-34 0 -21 86 6 40 5 42 -17 42 -22 0 -26 -6 -37 -67z"/>
<path d="M2262 270 c-7 -39 -12 -75 -12 -80 0 -12 159 -13 178 -2 7 5 17 37
23 71 14 78 11 81 -96 81 l-81 0 -12 -70z m146 23 c-2 -13 -15 -19 -46 -21
-37 -3 -42 -1 -42 17 0 18 6 21 46 21 38 0 45 -3 42 -17z m-10 -60 c-4 -20
-74 -31 -90 -15 -18 18 3 32 48 32 38 0 45 -3 42 -17z"/>
<path d="M2643 328 c2 -7 -2 -35 -9 -63 -20 -73 -18 -87 8 -83 14 2 24 12 28
28 5 22 11 25 50 25 43 0 45 -1 42 -27 -2 -24 1 -28 22 -28 21 0 26 6 35 50
15 70 14 97 -5 104 -9 3 -52 6 -96 6 -59 0 -79 -3 -75 -12z m135 -40 c-2 -19
-10 -24 -45 -26 -40 -3 -43 -1 -43 22 0 24 3 26 46 26 41 0 45 -2 42 -22z"/>
<path d="M2854 332 c3 -6 0 -38 -8 -71 -8 -34 -11 -63 -7 -66 21 -12 91 -16
128 -6 37 10 42 15 52 55 18 74 15 96 -14 96 -15 0 -25 -5 -24 -12 5 -25 -13
-97 -26 -108 -8 -6 -24 -10 -37 -8 -24 3 -26 13 -17 88 4 32 2 35 -25 38 -17
2 -26 0 -22 -6z"/>
<path d="M3054 318 c-1 -13 -5 -46 -9 -74 l-7 -51 32 -7 c18 -3 53 -6 77 -6
59 0 53 23 -8 30 -42 5 -44 6 -43 38 3 55 10 62 57 62 27 0 49 6 57 15 11 13
2 15 -71 15 -80 0 -84 -1 -85 -22z"/>
<path d="M3226 271 c-20 -90 -20 -93 6 -89 15 2 25 13 32 36 8 28 13 32 44 32
34 0 34 0 28 -35 -6 -32 -5 -35 18 -35 20 0 27 6 32 28 3 15 10 43 15 62 14
54 11 70 -11 70 -11 0 -23 -8 -26 -17 -12 -38 -22 -48 -50 -48 -27 0 -29 3
-26 33 2 28 -1 32 -22 32 -22 0 -26 -7 -40 -69z"/>
</g>
</svg>
