<?xml version="1.0" encoding="UTF-8" standalone="no"?>
<svg
   version="1.1"
   viewBox="0 0 709.0809 750"
   xml:space="preserve"
   id="svg246"
   sodipodi:docname="Logo Aviron Bayonnais Rugby - 2022.svg"
   width="709.08087"
   height="750"
   inkscape:version="1.2 (dc2aeda, 2022-05-15)"
   xmlns:inkscape="http://www.inkscape.org/namespaces/inkscape"
   xmlns:sodipodi="http://sodipodi.sourceforge.net/DTD/sodipodi-0.dtd"
   xmlns="http://www.w3.org/2000/svg"
   xmlns:svg="http://www.w3.org/2000/svg"><defs
     id="defs250" /><sodipodi:namedview
     id="namedview248"
     pagecolor="#ffffff"
     bordercolor="#666666"
     borderopacity="1.0"
     inkscape:showpageshadow="2"
     inkscape:pageopacity="0.0"
     inkscape:pagecheckerboard="0"
     inkscape:deskcolor="#d1d1d1"
     showgrid="false"
     inkscape:zoom="0.62933333"
     inkscape:cx="352.75424"
     inkscape:cy="375"
     inkscape:window-width="1440"
     inkscape:window-height="900"
     inkscape:window-x="0"
     inkscape:window-y="0"
     inkscape:window-maximized="0"
     inkscape:current-layer="svg246" /><g
     id="g520"><path
       d="M 367.0236,0 57.540726,59.493553 56.204614,328.02605 179.75576,637.55893 C 224.28018,680.18033 284.78674,719.9837 367.0175,749.99997 688.64049,632.58888 678.0204,365.4864 678.0204,365.4864 L 676.49778,59.493553 Z"
       fill="#80bae8"
       stroke-width="1.3332"
       id="path182" /><path
       d="M 367.0236,44.397388 99.521116,96.849876 98.204904,366.63238 c 0,0 -9.187085,235.49219 268.812496,339.00315 C 645.01999,602.11457 635.8499,366.63238 635.8499,366.63238 L 634.53369,96.849876 Z"
       fill="#ffffff"
       stroke-width="1.33321"
       id="path184" /><g
       fill="#80bae8"
       stroke-width="0.996701"
       id="g194"
       transform="translate(0.02019118,-2.5436237e-5)"><path
         transform="matrix(16.627,0,0,-16.511,466.96,657.21)"
         d="m 0,0 c -0.033,0.016 -0.065,0.035 -0.1,0.049 -0.724,0.265 -1.481,0.477 -2.248,0.672 -0.593,0.151 -1.204,0.266 -1.809,0.391 -0.65,0.134 -1.317,0.227 -1.991,0.305 -0.439,0.052 -0.877,0.108 -1.321,0.146 -0.425,0.037 -0.856,0.056 -1.286,0.076 -0.33,0.015 -0.662,0.027 -0.996,0.027 -0.523,0.001 -1.049,-0.002 -1.575,-0.016 -0.399,-0.01 -0.8,-0.036 -1.201,-0.062 -0.302,-0.019 -0.605,-0.051 -0.907,-0.076 -0.209,-0.017 -0.418,-0.033 -0.617,-0.048 -0.412,0.333 -0.816,0.661 -1.227,0.993 0.025,0.008 0.044,0.016 0.062,0.018 0.38,0.043 0.759,0.089 1.139,0.126 0.276,0.027 0.55,0.041 0.826,0.064 0.586,0.049 1.165,0.061 1.744,0.075 0.365,0.009 0.726,-0.004 1.09,-0.003 0.529,0.002 1.047,-0.033 1.563,-0.07 0.498,-0.036 0.994,-0.079 1.484,-0.134 0.389,-0.045 0.77,-0.11 1.152,-0.171 0.435,-0.069 0.873,-0.134 1.301,-0.217 0.401,-0.077 0.793,-0.173 1.188,-0.263 0.907,-0.208 1.794,-0.449 2.65,-0.741 0.36,-0.124 0.71,-0.263 1.065,-0.394 C 0.016,0.736 0.05,0.729 0.082,0.721 0.094,0.716 0.105,0.71 0.117,0.705 0.129,0.699 0.141,0.694 0.153,0.688 0.165,0.683 0.177,0.678 0.189,0.672 0.201,0.667 0.212,0.661 0.224,0.656 0.236,0.651 0.249,0.645 0.261,0.64 0.272,0.635 0.284,0.629 0.296,0.624 0.308,0.619 0.941,0.338 0.953,0.332 L 0.335,0.604 0.329,0.606 C 0.317,0.611 0.305,0.617 0.293,0.622 0.281,0.627 0.27,0.633 0.258,0.638 0.246,0.643 0.234,0.649 0.222,0.654 0.21,0.659 0.198,0.665 0.186,0.67 0.174,0.675 0.162,0.681 0.15,0.686 0.138,0.692 0.127,0.697 0.115,0.702 0.103,0.708 0.091,0.713 0.079,0.719 0.051,0.736 0.024,0.756 -0.007,0.77 -0.461,0.978 -0.937,1.157 -1.416,1.332 -2.499,1.728 -3.634,2.043 -4.787,2.327 -5.273,2.447 -5.78,2.53 -6.28,2.625 -6.651,2.695 -7.022,2.767 -7.4,2.82 c -0.45,0.064 -0.907,0.114 -1.364,0.162 -0.251,0.027 -0.508,0.035 -0.761,0.056 -0.586,0.049 -1.184,0.056 -1.781,0.062 -0.415,0.005 -0.834,-0.006 -1.251,-0.009 -0.068,-0.001 -1.6,-0.036 -1.664,-0.035 -0.236,0.451 0.996,0.934 0.762,1.38 0.04,0.03 0.081,0.02 0.117,0.021 0.276,0.004 0.552,0.007 0.828,0.008 0.213,0.001 0.427,0.005 0.638,-10e-4 0.335,-0.01 0.667,-0.029 1.002,-0.04 0.523,-0.018 1.034,-0.071 1.546,-0.122 0.669,-0.066 1.32,-0.173 1.97,-0.282 C -6.946,3.951 -6.544,3.861 -6.146,3.766 -5.601,3.635 -5.055,3.504 -4.525,3.348 -3.727,3.113 -2.94,2.859 -2.173,2.578 -1.198,2.22 -0.25,1.827 0.636,1.359 0.906,1.217 2.09,0.573 2.353,0.424 2.38,0.409 1.484,0.887 1.513,0.874 1.518,0.868 1.952,0.51 1.957,0.504 L 1.532,0.853 1.525,0.855 C 1.52,0.861 2.058,0.477 2.054,0.483 2.029,0.507 1.464,0.923 1.436,0.944 0.843,1.37 0.223,1.768 -0.434,2.132 -1.077,2.489 -1.733,2.831 -2.419,3.14 -3.117,3.456 -3.82,3.764 -4.551,4.038 c -0.424,0.158 -0.854,0.309 -1.292,0.447 -0.735,0.231 -1.485,0.437 -2.261,0.601 -0.593,0.125 -1.199,0.221 -1.803,0.32 -0.429,0.07 -0.871,0.106 -1.307,0.158 -0.085,0.01 -0.168,0.024 -0.261,0.037 -0.018,0.217 0.016,0.437 0.015,0.652 -10e-4,0.214 0.008,0.429 0.022,0.645 0.013,0.216 -0.018,0.428 0.024,0.653 0.037,0 0.063,0.003 0.087,-0.001 0.533,-0.065 1.047,-0.174 1.566,-0.271 C -8.986,7.134 -8.246,6.928 -7.505,6.722 -7.186,6.633 -6.884,6.515 -6.57,6.415 -5.919,6.207 -5.306,5.949 -4.697,5.686 -4.23,5.485 -3.774,5.27 -3.323,5.05 -2.162,4.483 -1.066,3.848 0.003,3.184 0.533,2.854 1.054,2.514 1.543,2.147 1.929,1.857 2.301,1.556 2.622,1.216 2.758,1.072 2.898,0.929 2.994,0.76 3.005,0.741 3.013,0.72 3.028,0.686 2.619,0.662 2.232,0.665 1.818,0.645 1.892,0.58 1.952,0.527 2.008,0.478 2.003,0.466 2.002,0.464 2,0.461 1.998,0.459 1.995,0.456 1.993,0.455 1.96,0.449 1.927,0.442 1.894,0.437 1.58,0.395 1.267,0.353 0.944,0.309 0.988,0.25 1.077,0.238 1.123,0.18 1.1,0.17 1.083,0.159 1.066,0.155 0.814,0.096 0.561,0.039 0.31,-0.023 0.225,-0.043 0.144,-0.055 0.069,-0.031 l 0.003,-0.001 -0.039,0.018 0.004,-0.002 -0.039,0.018 z"
         id="path186"
         style="stroke-width:0.996701" /><path
         transform="matrix(16.627,0,0,-16.511,463.04,675.35)"
         d="m -4.7032,0.3339 c -0.1885,-1.25e-4 -0.37728,-0.002437 -0.56678,-0.009937 -0.528,-0.02 -1.059,-0.056905 -1.59,-0.089904 -0.291,-0.018 -0.58295,-0.03802 -0.87595,-0.06802 -0.419,-0.044 -0.83902,-0.098052 -1.259,-0.14905 -0.27,-0.033 -0.53994,-0.063035 -0.80994,-0.10304 -0.256,-0.038 -0.513,-0.086007 -0.77,-0.13001 -0.36071,-0.063124 -0.72116,-0.12546 -1.0814,-0.19258 0.37019,-0.23098 0.75706,-0.45609 1.1515,-0.67831 0.60078,0.13711 1.2025,0.2605 1.8068,0.35098 0.364,0.055 0.72804,0.12191 1.091,0.16691 0.446,0.055 0.89101,0.091104 1.337,0.1371 0.566,0.057 1.13,0.098896 1.69,0.1099 0.293,0.006 0.58601,0.014057 0.87901,0.021057 0.148,0.003 0.29797,0.010937 0.44497,0.009937 0.333,-0.003 0.66706,-0.006905 0.99906,-0.014905 0.193,-0.004 0.383,-0.01809 0.575,-0.02709 -0.166,-0.008 -0.33001,-0.00799 -0.49301,-0.00899 -0.269,-0.001 -0.536,0.009032 -0.807,-0.004968 -0.572,-0.029 -1.1461,-0.06995 -1.7201,-0.10895 -0.232,-0.016 -0.46499,-0.035051 -0.69799,-0.063051 -0.36,-0.044 -0.72,-0.093988 -1.08,-0.14799 -0.507,-0.076 -1.013,-0.15401 -1.519,-0.26001 -0.65378,-0.13788 -1.3058,-0.28089 -1.9532,-0.45922 0.34444,-0.18494 0.68875,-0.36992 1.0515,-0.54759 0.65897,0.20405 1.3252,0.36823 1.9948,0.50784 0.679,0.142 1.358,0.26697 2.039,0.34897 0.19,0.022 0.37995,0.050031 0.56995,0.070031 0.229,0.024 0.45801,0.041933 0.68801,0.062933 0.246,0.023 0.49199,0.050074 0.73699,0.067073 0.219,0.016 0.437,0.024993 0.655,0.030993 0.339,0.01 0.67803,0.015003 1.017,0.022003 0.022,0.001 0.045001,0.003022 0.076001,0.004022 0.091,0.143 0.19701,0.2799 0.26301,0.4319 0.118,-0.007 0.23599,-0.013938 0.35499,-0.020938 0.169,0.136 0.33093,0.26695 0.50593,0.40895 -0.035,0.012 -0.049956,0.020068 -0.066956,0.023068 -0.148,0.027 -0.29403,0.057957 -0.44403,0.077957 -0.503,0.066 -1.003,0.13998 -1.521,0.16798 -0.245,0.013 -0.48694,0.040017 -0.73394,0.046017 -0.456,0.011 -0.91402,0.01397 -1.372,0.01597 -0.1885,0.001 -0.37675,0.003082 -0.56525,0.002957 z m 3.1972,-0.68493 h 0.019969 c -10e-4,-0.001 -9.397e-4,-0.001011 -9.397e-4,-0.002011 h -0.020087 c 0,0.001 0.00106,0.001011 0.00106,0.002011 z m 0.31,-0.015024 0.00599,-0.002957 -0.00799,-9.4637e-4 z"
         id="path188"
         style="stroke-width:0.996701" /><path
         transform="matrix(16.627,0,0,-16.511,468.11,657.72)"
         d="m -9.8107,1.3519 c -0.19243,-3.98e-4 -0.3856,-0.00415 -0.58029,-0.013841 -0.358,-0.018 -0.71301,-0.023048 -1.07,-0.041048 -0.33,-0.016 -0.66201,-0.036944 -0.99401,-0.064944 -0.395,-0.034 -0.79107,-0.072994 -1.1881,-0.11699 -0.332,-0.037 -0.66594,-0.078049 -0.99894,-0.12705 -0.19034,-0.028022 -0.38059,-0.056483 -0.57077,-0.085291 0.34569,-0.29508 0.7067,-0.58619 1.0821,-0.87349 0.26887,0.038154 0.53778,0.074058 0.80665,0.10777 0.373,0.047 0.746,0.090038 1.119,0.12504 0.445,0.042 0.88996,0.07495 1.334,0.10895 0.502,0.039 1.0001,0.055051 1.4961,0.063051 0.411,0.006 0.82194,0.012001 1.2309,0.011001 0.351,-0.002 0.69999,-0.008057 1.047,-0.021057 0.334,-0.012 0.66506,-0.035007 0.99706,-0.055007 0.29,-0.017 0.58202,-0.029954 0.86902,-0.055954 0.335,-0.031 0.665,-0.074026 0.998,-0.11203 0.778,-0.089 1.544,-0.20498 2.298,-0.35098 0.419,-0.082 0.82999,-0.17895 1.238,-0.28095 0.066,-0.017 0.12593,-0.017052 0.19993,0.011948 0.221,0.086 0.44404,0.16405 0.66604,0.24605 0.027,0.01 0.054022,0.022941 0.10102,0.042941 -0.043,0.022 -0.069088,0.036974 -0.096088,0.048974 -0.055134,0.026616 -0.11026,0.051431 -0.16539,0.07701 0.0060373,-9.0004e-4 0.71223,-0.25493 0.6994,-0.24901 l -0.77693,0.28403 c -0.033,0.007 -0.066968,0.013068 -0.097968,0.023068 -0.153,0.048 -0.30301,0.099923 -0.45601,0.14692 -0.688,0.215 -1.403,0.38103 -2.134,0.52003 -0.536,0.102 -1.083,0.18303 -1.625,0.27303 -0.555,0.093 -1.1259,0.147 -1.6989,0.194 -0.278,0.023 -0.55602,0.047977 -0.83402,0.070977 -0.214,0.018 -0.42801,0.039028 -0.64501,0.048028 -0.327,0.014 -0.65496,0.024971 -0.98496,0.026971 -0.42281,0.00344 -0.84237,0.018738 -1.2657,0.017863 z M -0.032,0.015 c -0.0065,0.003 0.18177,-0.065529 0.37002,-0.13403 z"
         id="path190"
         style="stroke-width:0.996701" /><path
         transform="matrix(16.627,0,0,-16.511,460.1,666.57)"
         d="m -6.9033,0.73542 c -0.305,-8.1054e-4 -0.61153,-0.008726 -0.91965,-0.022476 -0.367,-0.017 -0.73308,-0.03191 -1.1001,-0.04791 -0.182,-0.008 -0.36299,-0.01109 -0.54599,-0.02709 -0.508,-0.045 -1.017,-0.091966 -1.526,-0.14397 -0.445,-0.046 -0.89095,-0.093021 -1.338,-0.15402 -0.28153,-0.038188 -0.5629,-0.079418 -0.84412,-0.12291 0.35455,-0.25931 0.72283,-0.51406 1.1036,-0.76513 0.23458,0.038842 0.46921,0.075299 0.70351,0.11108 0.384,0.057 0.76695,0.10698 1.1509,0.15698 0.263,0.035 0.52603,0.069991 0.78903,0.094991 0.379,0.036 0.75703,0.065045 1.136,0.094045 0.345,0.027 0.69095,0.055042 1.0339,0.072042 0.314,0.015 0.62703,0.018896 0.93903,0.023896 0.792,0.01 1.584,0.021029 2.362,-0.026971 0.682,-0.043 1.3689,-0.074 2.0359,-0.161 0.312,-0.041 0.62304,-0.081027 0.93304,-0.12303 0.113,-0.016 0.22201,-0.037965 0.34101,-0.057965 0.214,0.122 0.43401,0.23499 0.64901,0.36399 -0.015,0.016 -0.017084,0.022068 -0.022084,0.023068 -0.023,0.008 -0.045893,0.013992 -0.069893,0.019992 -0.487,0.131 -0.988,0.23492 -1.501,0.31892 -0.534,0.087 -1.074,0.15802 -1.623,0.20702 -0.339,0.029 -0.67903,0.055054 -1.017,0.085054 -0.332,0.029 -0.66899,0.044932 -1.008,0.051932 -0.371,0.008 -0.744,0.013068 -1.115,0.023068 -0.18187,0.004875 -0.36428,0.006874 -0.54728,0.006388 z"
         id="path192"
         style="stroke-width:0.996701" /></g><path
       d="M 670.66643,367.34339 669.20721,66.210591 367.0344,6.5090351 l 1.3e-4,30.9632879 274.49256,53.087494 c 0,0 0.80152,293.152723 -2.11712,311.952893 C 603.69663,642.98495 367.03743,711.66559 367.03743,711.66559 V 745.0409 C 677.02032,628.30981 670.68026,367.34739 670.68026,367.34739"
       fill="#ffffff"
       stroke-width="1.33321"
       id="path196" /></g><g
     transform="matrix(1.3122122,0,0,-1.3122122,-490.12438,1071.31)"
     id="g210"
     style="stroke-width:0.999991"><path
       d="m 643.2,629.38 c 0,0 -128.51,60.406 -269.69,19.304 2.7718,-5.9863 128.47,-353.26 128.47,-353.26 0,0 58.93,85.08 154.95,109.06 l 3.4306,-9.1708 c 0,0 242.72,5.3075 253.52,212.82 0,0 -67.196,-71.429 -264.16,6.7393 0.50962,1.1479 -6.5257,14.503 -6.5257,14.503 z"
       fill="#1f2142"
       stroke-width="1.01599"
       id="path198" /><path
       d="m 644.42,600.56 c 0.48476,0.95041 -6.3144,15.614 -6.3144,15.614 0,0 -20.646,10.269 -54.567,19.366 -13.275,3.5671 -28.564,6.9614 -45.468,9.4794 -0.0249,0 -0.0497,0.0123 -0.0746,0.0123 -41.043,6.1468 -91.509,7.196 -145.07,-6.6282 0,-0.0124 0,-0.0247 0.0124,-0.0247 2.6103,-5.2704 90.788,-244.4 110.6,-298.22 0.14915,-0.41966 0.31074,-0.82698 0.4599,-1.2343 0,-0.0123 0.0124,-0.0123 0.0124,-0.0123 0.29832,-0.81463 0.5842,-1.5799 0.84523,-2.2958 h 0.0124 c 0.38533,-1.0985 0.75822,-2.086 1.0814,-2.9376 0,-0.0123 0.0124,-0.0123 0.0124,-0.0123 0.19888,-0.59246 0.39775,-1.1109 0.57177,-1.5799 0.0746,-0.19749 0.14916,-0.39498 0.21131,-0.58012 0.0497,-0.12343 0.0994,-0.24686 0.13673,-0.37029 0.23616,-0.61715 0.39775,-1.0615 0.49719,-1.3454 0.0373,-0.0741 0.0622,-0.13578 0.0746,-0.18515 0.0373,-0.0741 0.0497,-0.12343 0.0497,-0.12343 0,0 0.0124,0.0247 0.0373,0.0494 1.243,1.333 26.202,28.093 65.679,53.124 0.0621,0.037 0.14916,0.0741 0.21131,0.12343 19.639,12.454 42.883,24.451 68.551,32.684 6.9359,2.2217 14.046,4.1719 21.305,5.7765 l 2.9707,-9.4424 c 0,0 202.58,9.0721 233.16,173.22 0,0 -65.17,-58.259 -255,15.54"
       fill="#ffffff"
       stroke-width="1.01599"
       id="path200" /><path
       d="m 668.29,414.98 c 5.2259,0.29677 51.122,3.3897 101.93,24.646 52.269,21.867 107.51,62.612 124.58,138.77 -2.0289,-1.2455 -4.0453,-2.5164 -7.2402,-4.0332 -9.3533,-4.4405 -23.743,-9.5085 -44.055,-12.219 -40.624,-5.4205 -104.9,-1.4167 -200.17,35.621 l -1.3535,0.5254 -0.42578,1.3926 c -2.9052,9.4569 -5.1664,13.399 -5.6211,14.166 -0.92491,0.45184 -18.488,8.7963 -47.484,17.07 26.605,-71.973 53.224,-143.96 79.836,-215.94 z"
       color="#000000"
       fill="#80bae8"
       stroke-width="1.01599"
       style="-inkscape-stroke:none"
       id="path202" /><g
       stroke-width="1.01599"
       id="g208"><path
         d="m 644.22,551.31 c -0.19888,0.59246 -0.39776,1.1973 -0.55934,1.8021 -0.23617,0.93806 0.26102,1.3207 1.2306,1.3207 4.8849,-0.037 9.7574,-0.49372 14.543,-2.5673 6.8488,-2.9747 11.361,-11.096 10.317,-17.539 -0.54692,-3.4067 -3.5674,-4.8261 -7.1596,-5.3198 -1.417,-0.19749 -2.9459,-0.0494 -4.425,-0.0494 -7.5822,0.074 -5.6929,-0.93807 -8.0547,5.332 -2.1257,5.6404 -3.9405,11.343 -5.892,17.021 z m 46.003,-71.514 c -3.0702,-1.4935 -6.6624,-1.8391 -10.192,-2.2464 -2.6103,-0.29623 -5.3324,-0.28389 -7.9924,-0.44435 -1.6283,-0.0987 -2.4984,0.5184 -3.008,2.0242 -1.3922,4.2336 -2.921,8.4549 -4.3877,12.676 -1.0565,3.0117 -2.1379,6.011 -3.1199,9.035 -0.82038,2.5426 -0.63393,2.7895 2.1006,2.8883 6.0191,0.35137 12.024,0.0829 17.837,-0.87634 4.512,-0.77761 8.0421,-3.2215 10.317,-7.0602 1.7775,-2.987 2.9832,-6.0357 2.958,-9.3065 -0.0252,-3.2338 -1.6535,-5.295 -4.5123,-6.6898 z m -38.594,-30.894 c 12.89,0.92573 34.195,3.2215 43.927,4.246 3.8035,0.39497 7.6319,0.98743 11.15,2.0489 12.368,3.7276 19.266,11.343 18.732,24.081 -0.28589,6.8504 -2.4611,13.454 -5.929,19.909 -5.2578,9.825 -13.3,16.712 -25.083,19.465 -0.13673,0.0247 -0.27346,0.037 -0.42262,0.074 -1.156,0.25921 -1.4543,0.78995 -0.64635,1.4565 7.0609,7.1536 4.566,17.805 1.5786,25.809 -2.2144,5.9332 -5.233,11.627 -9.658,16.799 -9.0489,10.627 -20.82,15.602 -34.393,16.959 -12.678,1.259 -25.382,2.6661 -38.073,4.0115 -4.6363,0.48138 -9.2727,1.0121 -13.909,1.4565 -2.1379,0.20983 -2.4363,-0.14811 -1.8148,-2.0119 0.94467,-2.7772 1.9515,-5.5543 2.9583,-8.3315 z"
         fill="#ffffff"
         id="path204"
         style="stroke-width:1.01598" /><path
         d="m 543.23,594.28 c -0.39776,0.037 -0.84494,-0.29648 -1.28,-0.45694 0.18644,-0.30857 0.31051,-0.69168 0.57153,-0.91386 3.8284,-3.0857 7.6704,-6.159 11.511,-9.2324 3.7041,-2.9623 3.6907,-2.962 2.5347,-7.5536 -10.727,-42.435 -21.44,-84.869 -32.155,-127.32 -1.0192,-4.0115 -2.0022,-8.0474 -3.0214,-12.071 -0.32318,-1.2837 0.12397,-1.9266 1.5286,-1.8649 1.069,0.037 2.1138,0.0873 3.1703,0.18605 4.9968,0.48137 9.9809,0.9621 14.966,1.4928 6.1652,0.65418 12.306,1.3832 18.471,2.0004 1.4046,0.13577 2.1751,0.65309 2.374,2.0108 0.1243,0.86401 0.46048,1.7038 0.65936,2.5556 1.4916,6.2332 2.9462,12.466 4.4875,18.687 0.73336,2.9623 0.80808,2.9627 3.8906,3.1479 l 48.998,3.1107 c 2.0385,0.1728 3.0954,-0.54294 3.9904,-2.1968 2.6476,-4.9125 4.9543,-8.8252 7.7759,-13.651 3.3561,-5.7518 1.5908,-5.4685 9.3098,-4.4934 0.38532,0.0494 0.78257,0.0865 1.1803,0.12353 2.8923,0.28896 8.5604,0.81599 13.401,1.2696 -13.713,37.09 -26.996,73.215 -40.708,110.3 l -17.983,26.559 c -0.98196,1.8638 -2.1755,2.7397 -4.4875,2.9619 -10.242,1.0121 -20.447,2.2962 -30.677,3.4441 -6.1652,0.69121 -12.33,1.2959 -18.508,1.9007 z m 38.984,-52.788 c 0.19888,0.017 0.40153,0.005 0.44503,-0.0506 0.45991,-0.61715 0.8317,-1.2724 1.1922,-1.9513 7.3212,-13.479 14.643,-26.968 21.952,-40.459 1.0863,-1.5625 1.4388,-3.599 -0.31108,-3.5557 l -29.335,-0.69061 c -2.1504,-0.0494 -2.4614,0.28361 -2.1507,2.0733 2.4735,14.355 4.9604,28.697 7.4464,43.04 0.087,0.49371 0.13602,1.0123 0.33489,1.469 0.0311,0.0617 0.2268,0.10805 0.42567,0.12503 z"
         fill="#80bae8"
         id="path206"
         style="stroke-width:1.01598" /></g></g><g
     transform="matrix(1.3231123,0,0,-1.3231123,-497.42445,1074.31)"
     fill="#1f2142"
     stroke-width="1.00769"
     id="g242"><path
       d="m 559.02,735.21 c 0.0124,0.11109 0.0746,0.22217 0.17402,0.33326 0.0994,0.12343 0.22374,0.24686 0.37289,0.3456 0.14916,0.0987 0.29832,0.18515 0.45991,0.24686 0.17402,0.0617 0.32317,0.0864 0.47233,0.0864 h 6.998 c 0.31075,0 0.57177,-0.0864 0.79551,-0.27154 0.22374,-0.18515 0.38533,-0.3456 0.49719,-0.48138 l 0.68365,-1.4812 14.356,-35.227 c 0.14915,-0.3456 0.1243,-0.62949 -0.0746,-0.83932 -0.21131,-0.22218 -0.54692,-0.33326 -1.0441,-0.33326 h -7.8557 c -0.41018,0 -0.74579,0.0741 -0.96953,0.22217 -0.22373,0.14812 -0.39775,0.39498 -0.53448,0.74058 -0.36047,0.88869 -0.72093,1.765 -1.069,2.6414 -0.34803,0.87636 -0.68364,1.765 -1.0317,2.6414 h -14.53 c -0.34804,-0.87635 -0.69607,-1.765 -1.0565,-2.6414 -0.34804,-0.87635 -0.7085,-1.7527 -1.0441,-2.6414 -0.2486,-0.64184 -0.7085,-0.96275 -1.4046,-0.96275 h -8.067 c -0.34803,0 -0.63392,0.0864 -0.85766,0.27154 -0.23616,0.1728 -0.27345,0.43201 -0.12429,0.77761 z m 4.9719,-11.133 c -0.3356,-0.88869 -0.69607,-1.8391 -1.0441,-2.8636 -0.36046,-1.0245 -0.7085,-2.0489 -1.0565,-3.0981 -0.34804,-1.0368 -0.69608,-2.0613 -1.0565,-3.0734 -0.34804,-1.0245 -0.7085,-1.9625 -1.0441,-2.8512 h 8.3902 z"
       id="path212"
       style="stroke-width:1.00769" /><path
       d="m 596.64,698.14 c -0.19888,0.30857 -0.3729,0.62949 -0.53448,0.96275 -0.14916,0.33326 -0.29832,0.66652 -0.44748,1.0121 l -14.033,34.943 c 0,0.0864 -0.0124,0.16046 -0.0497,0.23452 -0.0249,0.0617 -0.0373,0.13577 -0.0373,0.19749 0,0.49372 0.3356,0.74058 1.0192,0.74058 h 8.8003 c 0.69607,0 1.1684,-0.33326 1.4294,-0.99979 l 8.3404,-23.661 c 0.74579,1.9749 1.4667,3.9498 2.1504,5.9123 0.68364,1.9625 1.3549,3.9374 2.0261,5.9246 0.65878,1.9749 1.3424,3.9498 2.0136,5.9123 0.68365,1.9749 1.4046,3.9374 2.1504,5.9123 0.26103,0.66653 0.75822,0.99979 1.504,0.99979 h 8.6263 c 0.41018,0 0.7085,-0.0741 0.88252,-0.22218 0.17402,-0.14811 0.26102,-0.3456 0.26102,-0.59246 0,-0.13577 -0.0124,-0.23452 -0.0249,-0.28389 v -0.0741 l -14.12,-34.943 c -0.087,-0.24686 -0.19888,-0.50607 -0.32317,-0.8023 -0.1243,-0.29623 -0.27346,-0.56777 -0.43505,-0.81463 -0.17402,-0.25921 -0.36046,-0.46904 -0.5842,-0.64184 -0.21131,-0.1728 -0.45991,-0.2592 -0.73336,-0.2592 h -6.7618 c -0.55935,0 -0.93224,0.1728 -1.1187,0.54309"
       id="path214"
       style="stroke-width:1.00769" /><path
       d="m 627.41,735.08 c 0,0.30857 0.0994,0.58012 0.29832,0.80229 0.19887,0.23452 0.50962,0.34561 0.90738,0.34561 h 8.0421 c 0.27346,0 0.55934,-0.11109 0.87009,-0.32092 0.31075,-0.19749 0.47233,-0.48138 0.47233,-0.82698 v -36.338 c 0,-0.76527 -0.44747,-1.1479 -1.3424,-1.1479 h -8.0421 c -0.80794,0 -1.2057,0.38263 -1.2057,1.1479 z"
       id="path216"
       style="stroke-width:1.00769" /><path
       d="m 648.5,735.02 c 0,0.37029 0.0994,0.65418 0.29832,0.87635 0.19887,0.20983 0.49719,0.32092 0.90738,0.32092 h 17.675 c 1.8769,0 3.6295,-0.33326 5.2702,-0.99978 1.6532,-0.66652 3.0826,-1.5799 4.3007,-2.7155 1.2181,-1.1479 2.1877,-2.4933 2.8837,-4.0238 0.7085,-1.5305 1.0565,-3.1722 1.0565,-4.9002 0,-1.1849 -0.17402,-2.3081 -0.50963,-3.3696 -0.3356,-1.0738 -0.80794,-2.0613 -1.4046,-2.9994 -0.60906,-0.92572 -1.3176,-1.765 -2.1504,-2.518 -0.8328,-0.75292 -1.7402,-1.4071 -2.7221,-1.9378 l 7.0353,-12.59 c 0.1243,-0.24686 0.28589,-0.53074 0.48477,-0.86401 0.21131,-0.32091 0.29831,-0.61714 0.29831,-0.85166 0,-0.28389 -0.087,-0.49372 -0.28588,-0.64183 -0.18645,-0.14812 -0.44748,-0.22218 -0.77065,-0.22218 h -9.3845 c -0.31075,0 -0.5842,0.0864 -0.8328,0.2592 -0.2486,0.17281 -0.41019,0.40732 -0.48477,0.70355 l -6.65,11.886 h -4.425 v -11.726 c 0,-0.75292 -0.42261,-1.1232 -1.2678,-1.1232 h -8.1167 c -0.36047,0 -0.65879,0.0987 -0.88252,0.27155 -0.21131,0.18514 -0.32318,0.46903 -0.32318,0.85166 z m 21.417,-11.553 c 0,0.53075 -0.0994,1.0368 -0.29832,1.5676 -0.19888,0.5184 -0.48476,0.99978 -0.84523,1.4318 -0.36047,0.43201 -0.80794,0.78995 -1.3176,1.0862 -0.50963,0.29623 -1.069,0.49372 -1.6905,0.56778 -0.50963,0.037 -0.99439,0.0741 -1.4419,0.0987 -0.44747,0.0247 -0.93224,0.037 -1.4667,0.037 h -3.7662 v -9.5411 h 5.0341 c 0.32317,0 0.62149,0 0.87008,0.0247 0.26103,0.0124 0.53449,0.037 0.84523,0.0741 0.64636,0.0741 1.2181,0.24686 1.7278,0.53075 0.50963,0.28389 0.94467,0.64183 1.2927,1.0738 0.33561,0.41966 0.60906,0.90103 0.78308,1.4194 0.18645,0.53075 0.27346,1.0738 0.27346,1.6293"
       id="path218"
       style="stroke-width:1.00769" /><path
       d="m 686.69,716.87 c 0,1.8391 0.2486,3.6042 0.73336,5.2951 0.4972,1.691 1.1933,3.2709 2.1131,4.752 0.90738,1.4935 2.0012,2.8389 3.269,4.0485 1.2678,1.222 2.6848,2.2588 4.2262,3.1104 1.5537,0.86401 3.2193,1.5305 4.9968,2.0119 1.7899,0.46904 3.642,0.70355 5.581,0.70355 1.9142,0 3.7662,-0.23451 5.5562,-0.70355 1.7899,-0.48137 3.4555,-1.1479 5.0092,-2.0119 1.5413,-0.85166 2.9583,-1.8885 4.2386,-3.1104 1.2803,-1.2096 2.3741,-2.555 3.269,-4.0485 0.90738,-1.4812 1.6034,-3.0611 2.1131,-4.752 0.4972,-1.691 0.7458,-3.456 0.7458,-5.2951 0,-1.8391 -0.2486,-3.6042 -0.7458,-5.2951 -0.50962,-1.691 -1.2057,-3.2709 -2.1131,-4.7397 -0.89495,-1.4565 -1.9888,-2.8019 -3.269,-3.9991 -1.2803,-1.2096 -2.6973,-2.2464 -4.2386,-3.1104 -1.5537,-0.864 -3.2193,-1.5305 -5.0092,-1.9996 -1.7899,-0.46903 -3.642,-0.70355 -5.5562,-0.70355 -1.939,0 -3.7911,0.23452 -5.581,0.70355 -1.7775,0.46904 -3.4431,1.1356 -4.9968,1.9996 -1.5413,0.86401 -2.9583,1.9008 -4.2262,3.1104 -1.2678,1.1973 -2.3617,2.5426 -3.269,3.9991 -0.91981,1.4688 -1.6159,3.0487 -2.1131,4.7397 -0.48476,1.691 -0.73336,3.456 -0.73336,5.2951 m 10.59,0.0247 c 0,-1.4441 0.2486,-2.7895 0.75823,-4.0362 0.50962,-1.2466 1.2306,-2.3328 2.1504,-3.2585 0.9198,-0.9257 2.0012,-1.654 3.269,-2.1847 1.2554,-0.53074 2.6351,-0.80229 4.1516,-0.80229 1.504,0 2.8962,0.27155 4.164,0.80229 1.2678,0.53075 2.3492,1.259 3.2815,2.1847 0.91981,0.92572 1.6283,2.0119 2.1379,3.2585 0.5096,1.2466 0.77065,2.592 0.77065,4.0362 0,1.4194 -0.26103,2.7648 -0.77065,4.0238 -0.50962,1.2466 -1.2181,2.3452 -2.1379,3.2832 -0.93223,0.93807 -2.0136,1.6786 -3.2815,2.2094 -1.2678,0.54309 -2.66,0.81463 -4.164,0.81463 -1.5164,0 -2.8962,-0.27154 -4.1516,-0.81463 -1.2678,-0.53075 -2.3492,-1.2713 -3.269,-2.2094 -0.91981,-0.93806 -1.6407,-2.0366 -2.1504,-3.2832 -0.50963,-1.259 -0.75823,-2.6044 -0.75823,-4.0238"
       id="path220"
       style="stroke-width:1.00769" /><path
       d="m 736.98,735.08 c 0,0.30857 0.0994,0.58012 0.29832,0.80229 0.19887,0.23452 0.50962,0.34561 0.90738,0.34561 h 8.9495 c 0.2486,0 0.50962,-0.0617 0.78308,-0.18515 0.27346,-0.12343 0.50962,-0.33326 0.72093,-0.62949 2.312,-3.5548 4.6115,-7.0478 6.8861,-10.504 2.2871,-3.456 4.5866,-6.9491 6.9234,-10.516 v 20.847 c 0.0746,0.30857 0.22374,0.55543 0.43504,0.72823 0.22374,0.17281 0.47234,0.25921 0.77065,0.25921 h 7.7935 c 0.38533,0 0.7085,-0.0987 0.9571,-0.29624 0.26103,-0.20983 0.38533,-0.49371 0.38533,-0.85166 v -36.473 c 0,-0.3456 -0.11187,-0.6048 -0.32318,-0.76526 -0.22374,-0.16046 -0.52205,-0.24686 -0.90738,-0.24686 h -8.7258 c -0.23616,0 -0.44747,0.0741 -0.63392,0.23452 -0.17402,0.16046 -0.37289,0.35794 -0.57177,0.61715 -2.4238,3.8263 -4.8228,7.5909 -7.1969,11.318 -2.3741,3.7276 -4.7731,7.5045 -7.2217,11.318 v -22.341 c 0,-0.38264 -0.087,-0.66652 -0.27346,-0.86401 -0.18645,-0.18515 -0.50962,-0.28389 -0.98196,-0.28389 h -7.7686 c -0.42262,0 -0.72094,0.11109 -0.91981,0.32092 -0.18645,0.22217 -0.28589,0.48137 -0.28589,0.80229 z"
       id="path222"
       style="stroke-width:1.00769" /><path
       d="m 544.97,685.55 c 0,0.33326 0.16159,0.49372 0.49719,0.49372 h 6.8364 c 0.63393,0 1.2306,-0.11109 1.7899,-0.3456 0.55935,-0.22218 1.0441,-0.53075 1.4543,-0.92573 0.41019,-0.39497 0.73337,-0.85166 0.96953,-1.3824 0.2486,-0.54309 0.36047,-1.1109 0.36047,-1.728 0,-0.56777 -0.0994,-1.0985 -0.32318,-1.5922 -0.2113,-0.48137 -0.49719,-0.91338 -0.87009,-1.2837 0.29832,-0.22217 0.57178,-0.45669 0.80794,-0.72823 0.2486,-0.27155 0.44748,-0.56778 0.6215,-0.8887 0.17401,-0.30857 0.31074,-0.64183 0.41018,-0.99978 0.087,-0.35794 0.13673,-0.71589 0.13673,-1.0862 0,-0.62949 -0.11187,-1.222 -0.36047,-1.7774 -0.24859,-0.55543 -0.5842,-1.0615 -0.99438,-1.4812 -0.42262,-0.43201 -0.91981,-0.76527 -1.4916,-1.0121 -0.55934,-0.24686 -1.1684,-0.37029 -1.8272,-0.37029 h -7.5201 c -0.14915,0 -0.27345,0.037 -0.36046,0.0987 -0.087,0.0741 -0.13673,0.19749 -0.13673,0.3456 z m 8.7382,-3.9374 c 0,0.2592 -0.0373,0.50606 -0.13673,0.74058 -0.0994,0.23452 -0.23617,0.432 -0.41019,0.60481 -0.18644,0.16045 -0.38532,0.29623 -0.63392,0.39497 -0.2486,0.0864 -0.50962,0.13577 -0.80794,0.13577 h -3.5922 v -3.8016 h 3.5549 c 0.29832,0 0.57177,0.0494 0.82037,0.14811 0.2486,0.0987 0.45991,0.23452 0.63392,0.39498 0.18645,0.1728 0.32318,0.38263 0.42262,0.61715 0.0994,0.23451 0.14916,0.49372 0.14916,0.76526 m 0.72093,-6.443 c 0,0.23452 -0.0497,0.46904 -0.13673,0.69121 -0.087,0.23451 -0.21131,0.432 -0.36047,0.61715 -0.14915,0.18514 -0.3356,0.33326 -0.54691,0.45669 -0.21131,0.12343 -0.44747,0.20983 -0.69607,0.24686 -0.13673,0.0247 -0.28589,0.037 -0.43505,0.0617 -0.14915,0.0123 -0.31074,0.0247 -0.4599,0.0247 h -3.6668 v -4.2707 h 3.6668 c 0.14916,0 0.29832,0.0123 0.44747,0.0123 0.14916,0.0123 0.29832,0.037 0.44748,0.0617 0.2486,0.037 0.47233,0.12343 0.68364,0.24686 0.21131,0.12343 0.39776,0.28389 0.55934,0.46903 0.14916,0.18514 0.27346,0.40732 0.36047,0.64183 0.087,0.23452 0.13673,0.48138 0.13673,0.74058"
       id="path224"
       style="stroke-width:1.00769" /><path
       d="m 571.02,670.83 c 0.0373,0.13577 0.0746,0.27155 0.1243,0.39498 0.0497,0.11108 0.087,0.22217 0.1243,0.32091 l 5.9042,14.108 c 0.0249,0.074 0.0746,0.16046 0.17402,0.24686 0.0994,0.0987 0.23616,0.14811 0.39775,0.14811 h 1.765 c 0.17402,0 0.31075,-0.0494 0.38533,-0.12343 0.0746,-0.0864 0.12429,-0.16046 0.16158,-0.22217 l 0.36047,-0.82698 5.7799,-13.874 c 0,-0.0247 0.0124,-0.0617 0.0249,-0.11109 0,-0.0617 0.0124,-0.0987 0.0124,-0.13577 0,-0.20983 -0.16159,-0.30857 -0.48476,-0.30857 h -2.1504 c -0.16159,0 -0.28589,0.0247 -0.37289,0.0864 -0.087,0.0617 -0.16159,0.16046 -0.22374,0.29623 l -0.19888,0.48138 c -0.13673,0.33326 -0.27346,0.67886 -0.41018,1.0121 -0.13673,0.33326 -0.27346,0.67886 -0.41019,1.0121 h -6.7494 c -0.18645,-0.48137 -0.3729,-0.95041 -0.55934,-1.3824 -0.17402,-0.41966 -0.32318,-0.80229 -0.44748,-1.1232 -0.0994,-0.2592 -0.29831,-0.38263 -0.57177,-0.38263 h -2.1877 c -0.13672,0 -0.24859,0.0247 -0.3356,0.0617 -0.087,0.0494 -0.1243,0.12343 -0.1243,0.22218 0,0.0494 0,0.0741 0.0124,0.0987 m 7.6195,11.22 c -0.39776,-0.97509 -0.78308,-1.9749 -1.1808,-3.0117 -0.38532,-1.0368 -0.78308,-2.0366 -1.1684,-2.9994 h 4.6612 z"
       id="path226"
       style="stroke-width:1.00769" /><path
       d="m 604.6,679.69 h 0.0249 l 3.3188,6.0234 c 0.0746,0.14811 0.14916,0.24686 0.19888,0.2592 0.0621,0.037 0.13673,0.0494 0.2486,0.0741 h 3.0204 c 0.13673,0 0.19888,-0.0617 0.19888,-0.1728 0,-0.0617 -0.0373,-0.14812 -0.13673,-0.27155 -0.88252,-1.4318 -1.7526,-2.8759 -2.6227,-4.3447 -0.87009,-1.4565 -1.7526,-2.9129 -2.6476,-4.3447 v -5.974 c 0,-0.33326 -0.17402,-0.49371 -0.49719,-0.49371 h -2.2374 c -0.29831,0 -0.4599,0.16045 -0.4599,0.49371 v 5.9493 l -5.2578,8.7018 c -0.0373,0.0247 -0.0746,0.0864 -0.087,0.14812 -0.0249,0.0617 -0.0373,0.12342 -0.0373,0.14811 0,0.11109 0.0746,0.16046 0.21131,0.16046 h 2.9956 c 0.0621,-0.0123 0.11187,-0.0247 0.13673,-0.0247 0.0373,0 0.0746,-0.0123 0.11187,-0.037 0.0373,-0.0247 0.0621,-0.0617 0.0994,-0.0987 0.0249,-0.0617 0.0746,-0.12343 0.1243,-0.22217 z"
       id="path228"
       style="stroke-width:1.00769" /><path
       d="m 625.08,678.23 c 0,0.74058 0.0994,1.4441 0.29832,2.1353 0.19887,0.67887 0.47233,1.3207 0.84523,1.9255 0.36046,0.59246 0.79551,1.1356 1.3051,1.6293 0.50963,0.48137 1.069,0.90104 1.6905,1.2466 0.6215,0.34556 1.2803,0.61715 2.0012,0.81464 0.7085,0.19748 1.4419,0.28388 2.2249,0.28388 0.75822,0 1.504,-0.0864 2.2125,-0.28388 0.70851,-0.19749 1.3797,-0.46904 2.0012,-0.81464 0.6215,-0.3456 1.1808,-0.76527 1.6905,-1.2466 0.50963,-0.49372 0.94467,-1.0368 1.3051,-1.6293 0.36046,-0.60481 0.64635,-1.2466 0.84523,-1.9255 0.19887,-0.6912 0.31074,-1.4071 0.31074,-2.1477 0,-0.7406 -0.11187,-1.4565 -0.31074,-2.1353 -0.19888,-0.67886 -0.48477,-1.3084 -0.84523,-1.9132 -0.36047,-0.59246 -0.79551,-1.1356 -1.3051,-1.6169 -0.50962,-0.49371 -1.069,-0.91338 -1.6905,-1.259 -0.6215,-0.34562 -1.2927,-0.61715 -2.0012,-0.80229 -0.7085,-0.18515 -1.4543,-0.28389 -2.2249,-0.28389 -0.7706,0 -1.5164,0.0987 -2.2249,0.28389 -0.72093,0.18514 -1.3797,0.45669 -2.0012,0.81463 -0.62149,0.34561 -1.1808,0.76527 -1.6905,1.259 -0.50962,0.48137 -0.94467,1.0245 -1.3051,1.6169 -0.36047,0.59246 -0.63393,1.222 -0.8328,1.9132 -0.19888,0.67886 -0.29832,1.3948 -0.29832,2.1353 m 3.1696,0.0247 c 0,-0.7159 0.1243,-1.3701 0.39776,-1.9872 0.26102,-0.61715 0.62149,-1.1602 1.0938,-1.6169 0.45991,-0.44435 1.0068,-0.81464 1.6408,-1.0738 0.63392,-0.27155 1.3176,-0.40732 2.0509,-0.40732 0.7333,0 1.4046,0.13577 2.0385,0.40732 0.63392,0.2592 1.1808,0.62949 1.6532,1.0738 0.4599,0.45669 0.8328,0.99978 1.0938,1.6169 0.26103,0.61715 0.39776,1.2713 0.39776,1.9872 0,0.6912 -0.13673,1.3577 -0.39776,1.9749 -0.26102,0.61715 -0.63392,1.1479 -1.0938,1.6046 -0.47234,0.46903 -1.0192,0.82698 -1.6532,1.0985 -0.63393,0.2592 -1.3051,0.39498 -2.0385,0.39498 -0.7334,0 -1.417,-0.13578 -2.0509,-0.39498 -0.63393,-0.27154 -1.1808,-0.62949 -1.6408,-1.0985 -0.47233,-0.45669 -0.8328,-0.98744 -1.0938,-1.6046 -0.27346,-0.61715 -0.39776,-1.2837 -0.39776,-1.9749"
       id="path230"
       style="stroke-width:1.00769" /><path
       d="m 656.7,685.57 c 0,0.13577 0.0373,0.24686 0.1243,0.33326 0.087,0.0987 0.19888,0.13577 0.36046,0.13577 h 2.5108 c 0.0994,0 0.19888,-0.0247 0.29832,-0.0617 0.087,-0.0494 0.17402,-0.12343 0.23617,-0.22218 1.2554,-1.7033 2.486,-3.4067 3.7165,-5.0853 1.2306,-1.691 2.4611,-3.382 3.7041,-5.0976 v 10.072 c 0.0249,0.12343 0.087,0.22217 0.17402,0.29623 0.087,0.0617 0.18645,0.0987 0.31074,0.0987 h 2.1131 c 0.14916,0 0.27346,-0.037 0.3729,-0.12343 0.11186,-0.0864 0.16158,-0.19748 0.16158,-0.33326 v -14.713 c 0,-0.28389 -0.17401,-0.432 -0.50962,-0.432 h -2.3741 c -0.16159,0 -0.31075,0.0987 -0.44748,0.28389 -1.2927,1.7897 -2.5606,3.5671 -3.8408,5.3568 -1.2678,1.7774 -2.5481,3.5671 -3.8284,5.3568 v -10.541 c 0,-0.14812 -0.0373,-0.27155 -0.11187,-0.3456 -0.0746,-0.0741 -0.2113,-0.11109 -0.38532,-0.11109 h -2.1006 c -0.17401,0 -0.29831,0.037 -0.37289,0.12343 -0.0746,0.0741 -0.11187,0.18514 -0.11187,0.32092 z"
       id="path232"
       style="stroke-width:1.00769" /><path
       d="m 686.35,685.57 c 0,0.13577 0.0373,0.24686 0.1243,0.33326 0.087,0.0987 0.19888,0.13577 0.36046,0.13577 h 2.5108 c 0.11187,0 0.19888,-0.0247 0.29832,-0.0617 0.087,-0.0494 0.17402,-0.12343 0.23617,-0.22218 1.2554,-1.7033 2.486,-3.4067 3.7165,-5.0853 1.2306,-1.691 2.4611,-3.382 3.7165,-5.0976 v 10.072 c 0.0124,0.12343 0.0746,0.22217 0.16159,0.29623 0.087,0.0617 0.18645,0.0987 0.31074,0.0987 h 2.1131 c 0.14916,0 0.27346,-0.037 0.38533,-0.12343 0.0994,-0.0864 0.14915,-0.19748 0.14915,-0.33326 v -14.713 c 0,-0.28389 -0.16158,-0.432 -0.50962,-0.432 h -2.3741 c -0.16159,0 -0.31075,0.0987 -0.44748,0.28389 -1.2927,1.7897 -2.5606,3.5671 -3.8408,5.3568 -1.2678,1.7774 -2.5481,3.5671 -3.8284,5.3568 v -10.541 c 0,-0.14812 -0.0373,-0.27155 -0.11187,-0.3456 -0.0746,-0.0741 -0.2113,-0.11109 -0.38532,-0.11109 h -2.1006 c -0.17401,0 -0.29831,0.037 -0.37289,0.12343 -0.0746,0.0741 -0.11187,0.18514 -0.11187,0.32092 z"
       id="path234"
       style="stroke-width:1.00769" /><path
       d="m 714.87,670.83 c 0.0373,0.13577 0.0746,0.27155 0.1243,0.39498 0.0497,0.11108 0.087,0.22217 0.1243,0.32091 l 5.9042,14.108 c 0.0249,0.074 0.0746,0.16046 0.17402,0.24686 0.0994,0.0987 0.23616,0.14811 0.41018,0.14811 h 1.7526 c 0.17402,0 0.31075,-0.0494 0.38533,-0.12343 0.0746,-0.0864 0.12429,-0.16046 0.16158,-0.22217 l 0.36047,-0.82698 5.7799,-13.874 c 0,-0.0247 0.0124,-0.0617 0.0249,-0.11109 0,-0.0617 0.0124,-0.0987 0.0124,-0.13577 0,-0.20983 -0.16159,-0.30857 -0.48476,-0.30857 h -2.1504 c -0.16159,0 -0.28589,0.0247 -0.37289,0.0864 -0.087,0.0617 -0.16159,0.16046 -0.22374,0.29623 l -0.19888,0.48138 c -0.13673,0.33326 -0.27346,0.67886 -0.41018,1.0121 -0.13673,0.33326 -0.27346,0.67886 -0.41019,1.0121 h -6.7494 c -0.18645,-0.48137 -0.3729,-0.95041 -0.55934,-1.3824 -0.17402,-0.41966 -0.32318,-0.80229 -0.44748,-1.1232 -0.0994,-0.2592 -0.29831,-0.38263 -0.57177,-0.38263 h -2.1877 c -0.13672,0 -0.24859,0.0247 -0.3356,0.0617 -0.087,0.0494 -0.1243,0.12343 -0.1243,0.22218 0,0.0494 0,0.0741 0.0124,0.0987 m 7.6195,11.22 c -0.39776,-0.97509 -0.78308,-1.9749 -1.1808,-3.0117 -0.38532,-1.0368 -0.78308,-2.0366 -1.1684,-2.9994 h 4.6612 z"
       id="path236"
       style="stroke-width:1.00769" /><path
       d="m 744.44,685.59 c 0,0.12343 0.0373,0.23452 0.1243,0.32092 0.0746,0.0987 0.19888,0.13577 0.36046,0.13577 h 2.1628 c 0.1243,0 0.2486,-0.037 0.34803,-0.12343 0.11187,-0.0864 0.17402,-0.19749 0.17402,-0.33326 v -14.688 c 0,-0.30858 -0.17402,-0.45669 -0.52205,-0.45669 h -2.1628 c -0.32317,0 -0.48476,0.14811 -0.48476,0.45669 z"
       id="path238"
       style="stroke-width:1.00769" /><path
       d="m 772.43,681.88 c -0.0994,0 -0.18645,0.0247 -0.26103,0.0741 -0.087,0.037 -0.17401,0.0987 -0.27345,0.1728 l -0.0249,0.0123 c -0.13673,0.13578 -0.31075,0.28389 -0.53449,0.44435 -0.22373,0.16046 -0.4599,0.30857 -0.73336,0.45669 -0.27346,0.13577 -0.55934,0.2592 -0.87009,0.35795 -0.31074,0.0864 -0.62149,0.14811 -0.94467,0.14811 -0.41018,0 -0.77065,-0.0494 -1.0814,-0.13577 -0.32318,-0.0864 -0.58421,-0.20983 -0.79551,-0.35795 -0.21131,-0.14811 -0.3729,-0.33326 -0.47234,-0.53075 -0.11187,-0.20983 -0.17402,-0.41966 -0.17402,-0.65417 0,-0.24686 0.087,-0.46904 0.2486,-0.66652 0.16159,-0.18515 0.38533,-0.34561 0.67121,-0.49372 0.27346,-0.14812 0.59663,-0.28389 0.96953,-0.40732 0.36047,-0.12343 0.74579,-0.24686 1.1436,-0.37029 0.4599,-0.12343 0.91981,-0.27154 1.3673,-0.41966 0.45991,-0.16046 0.88252,-0.33326 1.3051,-0.53075 0.41018,-0.18514 0.79551,-0.39497 1.156,-0.64183 0.34804,-0.23452 0.65878,-0.49372 0.91981,-0.8023 0.26103,-0.30857 0.45991,-0.64183 0.60906,-1.0245 0.14916,-0.37029 0.22374,-0.78995 0.22374,-1.259 0,-0.76527 -0.16159,-1.4565 -0.47233,-2.0736 -0.32318,-0.61715 -0.77065,-1.1479 -1.3424,-1.5799 -0.55934,-0.44435 -1.2181,-0.77761 -1.9888,-1.0121 -0.75823,-0.23451 -1.5786,-0.3456 -2.4487,-0.3456 -0.57177,0 -1.1311,0.0617 -1.678,0.18514 -0.55934,0.12343 -1.0938,0.30858 -1.6034,0.53075 -0.50962,0.23452 -0.99438,0.50606 -1.4419,0.83932 -0.4599,0.32092 -0.87009,0.69121 -1.2181,1.0985 v -0.0123 l -0.0249,0.0494 c -0.16159,0.1728 -0.2486,0.33326 -0.2486,0.48137 0,0.0741 0.0249,0.14812 0.0746,0.22218 0.0373,0.0617 0.0994,0.13577 0.19888,0.22217 l 0.36046,0.3456 c 0.0994,0.0987 0.22374,0.19749 0.34804,0.30858 0.1243,0.11108 0.24859,0.20983 0.37289,0.30857 0.1243,0.0864 0.23617,0.1728 0.33561,0.23452 0.11187,0.0617 0.19888,0.0864 0.26103,0.0864 0.0994,0 0.19887,-0.0247 0.28588,-0.0864 0.087,-0.0617 0.16159,-0.12343 0.22374,-0.18515 l 0.0373,-0.037 h -0.0124 c 0.26103,-0.23451 0.54691,-0.45669 0.85766,-0.66652 0.32318,-0.20983 0.64635,-0.39497 0.98196,-0.56777 0.3356,-0.16046 0.67121,-0.28389 1.0068,-0.38263 0.32317,-0.0987 0.64635,-0.14812 0.93223,-0.14812 0.39776,0 0.78309,0.0617 1.1311,0.14812 0.34804,0.0987 0.64635,0.24685 0.90738,0.41966 0.2486,0.1728 0.44747,0.39497 0.59663,0.64183 0.14916,0.2592 0.22374,0.54309 0.22374,0.85167 0,0.30857 -0.0994,0.56777 -0.28589,0.78995 -0.18644,0.22217 -0.43504,0.40731 -0.74579,0.58012 -0.31074,0.16045 -0.64635,0.30857 -1.0317,0.41966 -0.38532,0.12343 -0.77065,0.23451 -1.156,0.33326 -0.89495,0.2592 -1.6656,0.54309 -2.3368,0.83932 -0.67122,0.30857 -1.2306,0.64183 -1.6656,1.0245 -0.44748,0.37029 -0.78308,0.78995 -1.0068,1.259 -0.22374,0.46903 -0.33561,0.98744 -0.33561,1.5676 0,0.65418 0.13673,1.2466 0.41019,1.7774 0.27345,0.54309 0.67121,0.99978 1.1684,1.3824 0.4972,0.38263 1.1063,0.67886 1.8148,0.88869 0.7085,0.22217 1.504,0.32092 2.3741,0.32092 0.67122,0 1.3424,-0.0987 2.0261,-0.29624 0.68364,-0.19748 1.3176,-0.46903 1.9018,-0.82697 0.17402,-0.0987 0.36046,-0.22218 0.53448,-0.35795 0.18645,-0.12343 0.36047,-0.2592 0.50962,-0.39498 0.14916,-0.14811 0.27346,-0.27154 0.3729,-0.40731 0.0994,-0.12343 0.14916,-0.23452 0.14916,-0.33326 0,-0.0741 -0.0124,-0.1728 -0.0621,-0.25921 -0.0373,-0.0864 -0.0994,-0.16045 -0.16159,-0.23451 l -0.3356,-0.33326 v 0.0123 c -0.0994,-0.11109 -0.21131,-0.23452 -0.33561,-0.3456 -0.11187,-0.12343 -0.23617,-0.22218 -0.34804,-0.32092 -0.11187,-0.0987 -0.22373,-0.1728 -0.32317,-0.23452 -0.087,-0.0617 -0.17402,-0.0987 -0.23617,-0.0987"
       id="path240"
       style="stroke-width:1.00769" /></g><path
     d="m 571.91551,251.82231 c -8.28048,-1.46951 -13.76713,-9.11428 -12.25412,-17.07316 1.52982,-7.97507 9.47759,-13.25812 17.75817,-11.78911 4.14024,0.7265 6.88386,4.54065 6.11896,8.53638 -0.74831,3.97924 -4.72225,6.62106 -8.87919,5.89456 -4.14013,-0.7265 -8.11427,1.89872 -8.86248,5.89455 -0.76471,3.97924 1.97872,7.80998 6.11896,8.53638 1.51311,-7.97507 9.46119,-13.24212 17.75816,-11.78911 8.28048,1.46952 13.76713,9.11429 12.25412,17.08916 -0.76497,3.97924 -4.73885,6.62106 -8.87908,5.87796 -4.14044,-0.72651 -6.88387,-4.54065 -6.13576,-8.53638 0.76484,-3.97924 -1.97862,-7.80998 -6.11886,-8.53638 -4.14044,-0.7265 -8.11437,1.91531 -8.87928,5.89455 8.28068,1.46952 13.76713,9.11429 12.25411,17.07316 -1.52971,7.97507 -9.46109,13.25812 -17.75816,11.78911 -4.14024,-0.7265 -6.88377,-4.54064 -6.11896,-8.53638 0.74831,-3.97924 4.73904,-6.62106 8.87918,-5.89455 4.14014,0.72656 8.11438,-1.89872 8.86249,-5.89456 0.76483,-3.97924 -1.97872,-7.80997 -6.11906,-8.53638 -1.51302,7.97508 -9.46109,13.24213 -17.75817,11.78911 -8.28037,-1.46951 -13.76712,-9.11428 -12.23811,-17.08916 0.74817,-3.97923 4.72204,-6.62106 8.86238,-5.87795 4.15684,0.72649 6.90057,4.54064 6.13566,8.53638 -0.76484,3.97923 1.97862,7.80997 6.11896,8.53638 4.14033,0.72642 8.11427,-1.91532 8.87908,-5.89456"
     fill="#80bae8"
     stroke-width="1.3332"
     id="path244" /></svg>
