<?xml version="1.0" encoding="UTF-8" standalone="no"?>
<!DOCTYPE svg PUBLIC "-//W3C//DTD SVG 1.0//EN" "http://www.w3.org/TR/2001/REC-SVG-20010904/DTD/svg10.dtd">
<!-- Created with Inkscape (http://www.inkscape.org/) -->
<svg
   xmlns:svg="http://www.w3.org/2000/svg"
   xmlns="http://www.w3.org/2000/svg"
   version="1.0"
   width="800"
   height="820"
   id="svg2">
  <defs
     id="defs4" />
  <g
     transform="translate(28.952922,-30.284091)"
     id="layer1">
    <path
       d="M 2.9354259,216.24847 C 126.90653,196.6482 247.13256,139.5972 365.46445,63.604673 C 511.20672,157.92429 635.95393,210.25381 736.47369,214.12842 C 735.88809,432.83365 697.02824,646.34917 367.5845,820.46351 C 208.71076,735.14105 -2.1043211,606.00927 2.9354259,216.24847 z"
       id="path3491"
       style="fill:#dddee0;fill-opacity:1;fill-rule:evenodd;stroke:#155a9f;stroke-width:46.64116287;stroke-linecap:butt;stroke-linejoin:miter;stroke-miterlimit:4;stroke-dasharray:none;stroke-opacity:1" />
    <path
       d="M 465.76945,313.9034 C 469.92768,314.25096 474.25275,314.56761 478.22476,314.96342 C 500.64996,317.19825 520.07227,320.19999 534.53866,323.57614 C 547.68132,326.78502 561.1662,329.78 567.81075,337.0502 L 581.97485,325.29868 L 604.63291,369.02477 C 582.89274,359.8619 556.57577,351.83334 526.72097,345.30668 C 509.37741,341.51513 490.9795,338.31987 472.12961,335.63394 C 453.27971,332.948 425.58605,330.23526 413.69565,329.40628 C 401.80525,328.5773 389.97375,327.95561 378.18477,327.68374 C 358.87223,327.23836 339.8649,327.64621 321.60586,328.87627 C 323.16876,323.32453 324.88482,317.93332 326.77349,312.71087 C 345.63878,311.50549 364.58132,310.82203 383.08739,310.72332 C 389.9514,310.68672 396.77903,310.75185 403.4929,310.85582 C 404.92538,310.878 406.30879,310.96025 407.733,310.98832 C 409.15721,311.01639 427.04872,311.47102 431.18609,311.65084 C 435.32346,311.83066 439.21129,312.08363 443.24389,312.31336 M 294.17768,352.99187 C 290.34131,375.79541 288.63187,399.67764 288.87754,423.35112 C 289.07106,441.99597 290.22123,458.19406 292.45513,474.8949 C 284.44286,474.03136 276.61601,473.0017 269.26706,471.71482 C 260.71913,454.84773 249.26499,439.16095 233.35866,425.60368 C 253.67551,408.21568 266.22101,386.01122 276.95225,355.64193 C 287.68349,325.27264 282.50382,341.45446 283.44491,338.284 C 284.386,335.11355 286.08429,326.77012 287.0225,323.44363 C 293.8168,299.66034 305.83559,271.20075 318.55828,247.51925 C 331.93476,226.85455 347.46601,213.67231 366.78948,212.14087 C 386.08324,213.6964 401.52655,226.87744 414.88818,247.51925 C 423.02795,260.09396 429.98796,275.12582 435.8237,290.71533 C 431.53496,290.51422 427.22553,290.33664 422.83838,290.18531 C 411.51335,265.0816 395.62513,244.06675 374.20967,230.02882 C 372.41627,228.80016 370.28838,228.15253 368.11452,228.17377 C 367.84315,228.17436 367.58662,228.15291 367.3195,228.17377 C 367.09333,228.1647 366.88552,228.16843 366.65698,228.17377 C 364.61893,228.23135 362.64067,228.87542 360.95934,230.02882 C 338.85423,244.51883 319.47279,277.53051 308.09052,303.70065 L 294.17768,352.99187 z M 463.41102,468.40224 C 471.73702,452.82359 485.27733,438.24521 500.0878,425.60368 C 479.62391,408.07262 467.01583,385.61901 456.22921,354.84691 C 451.24289,354.21955 446.28752,353.52655 441.25634,352.99187 C 445.18255,376.30711 446.62707,400.74936 446.29146,424.94116 C 446.07445,440.58448 445.06645,456.16029 443.24389,471.31731 C 441.42132,486.47433 441.49175,484.69328 440.06381,492.91535 C 438.63587,501.13743 436.90586,509.10132 435.02868,516.89845 C 433.1515,524.69558 430.04317,535.51853 429.06603,538.62899 C 428.0889,541.73945 427.0703,544.90837 426.01846,547.90422 C 414.20726,581.54484 398.2043,608.41197 375.00469,619.58851 C 374.81405,619.75319 374.67854,619.96638 374.47468,620.11852 C 372.78529,621.37919 370.80537,621.9845 368.77703,622.10607 C 365.96232,622.60157 363.06667,621.88876 360.69433,620.11852 C 360.4395,619.92835 360.26566,619.66589 360.03182,619.456 C 336.97204,607.51476 318.62426,571.53899 306.76549,538.23148 C 306.72152,538.22758 306.67696,538.23542 306.63299,538.23148 C 301.837,537.80276 297.10161,537.30582 292.32263,536.77394 C 291.83697,536.71988 291.35046,536.69656 290.86509,536.64144 C 291.13303,537.82464 291.39884,539.03841 291.66011,540.21903 C 296.2022,560.74313 307.67728,588.07693 322.26838,609.12075 C 335.94755,628.84932 352.06076,641.72427 365.33195,642.77658 C 366.21669,642.84676 366.99068,642.8125 367.84951,642.77658 C 368.02548,642.76675 368.20258,642.79062 368.37952,642.77658 C 381.65076,641.72427 397.63146,628.84932 411.31059,609.12075 C 425.28026,586.87321 437.07504,563.37208 442.44887,537.43646 M 364.53693,190.80784 C 363.49882,190.82768 362.5649,191.04138 361.62186,191.33785 C 335.50378,194.81164 315.47072,213.3317 300.80284,235.99146 C 289.04295,254.15883 280.07509,275.47762 273.10965,296.41297 C 232.22202,301.68367 193.54916,310.3108 161.67438,323.44363 C 139.87014,332.42727 121.14953,343.48903 107.34803,357.76199 C 93.546526,372.03495 84.847186,389.83164 84.15995,410.10079 L 84.027447,410.89581 L 84.15995,411.82333 C 88.873633,451.65323 117.41171,480.73124 155.57923,500.33554 C 187.63811,516.8022 227.03849,527.32796 268.47204,533.59386 C 269.36013,537.29289 270.15629,540.95859 270.9896,544.72414 C 276.2603,568.54048 288.30738,597.42416 304.77794,621.17855 C 320.41931,643.73697 340.47933,663.02597 364.80193,663.97711 C 366.09144,664.02753 367.33073,664.03206 368.64453,663.97711 C 393.01441,663.07728 413.00481,643.76928 428.66852,621.17855 C 445.13913,597.42416 457.31871,568.54048 462.58937,544.72414 C 463.34373,541.31544 464.17788,538.00854 464.97443,534.65389 C 490.47455,530.9686 511.65914,525.81467 527.25098,518.886 C 554.44415,547.40359 527.33859,519.15901 554.19791,547.45048 L 630.86856,432.09634 L 603.70539,440.04654 C 573.34191,448.93698 534.65378,457.54193 493.19763,464.29464 C 500.98823,453.18463 510.60424,443.11913 523.14338,434.34889 C 523.22492,434.29683 523.32812,434.27079 523.40839,434.21639 C 524.38853,433.54756 525.24219,432.74236 525.92595,431.83133 C 526.02046,431.7054 526.10242,431.56344 526.19096,431.43382 C 526.4343,431.08088 526.65898,430.74319 526.85347,430.3738 C 526.98856,430.11638 527.13769,429.84586 527.25098,429.57878 C 527.36246,429.31534 527.4275,429.0522 527.51599,428.78376 C 527.64964,428.38595 527.69522,428.00264 527.781,427.59123 C 527.9255,426.89831 528.04291,426.18589 528.046,425.47117 C 528.04884,424.81845 528.03426,424.1377 527.9135,423.48362 C 527.87843,423.30028 527.82573,423.13496 527.781,422.95361 C 527.7073,422.64374 527.61885,422.3326 527.51599,422.02609 C 527.23508,421.18905 526.7833,420.4927 526.32346,419.77353 C 525.92502,419.15041 525.5097,418.57095 524.99843,418.05099 C 524.90994,417.95953 524.82564,417.87473 524.73342,417.78598 C 524.29792,417.3735 523.90575,417.05842 523.40839,416.72596 C 523.22068,416.59782 523.06464,416.45705 522.87837,416.32845 C 502.37695,402.17616 490.39853,385.13094 479.9473,358.1595 C 494.52394,360.44801 508.70438,363.02341 522.21586,365.97719 C 568.80765,377.66731 614.44526,391.62363 654.42443,419.01872 L 594.29765,302.90563 L 587.80499,290.31782 L 577.60224,300.12306 L 565.27943,311.91585 C 558.30611,308.20996 550.21701,305.58385 539.30878,303.03813 C 523.49366,299.34725 503.42926,296.19596 480.34481,293.89541 C 473.4585,293.20914 466.26096,292.70135 458.87928,292.17286 C 452.17262,272.62297 443.73951,252.92831 432.77613,235.99146 C 417.95666,213.0974 397.55887,194.39959 371.02959,191.20535 C 370.98668,191.20018 370.94004,191.21044 370.89709,191.20535 C 369.90825,190.94454 368.92442,190.76752 367.84951,190.80784 C 367.49249,190.82196 367.14438,190.92071 366.78948,190.94034 C 366.39087,190.91753 365.9982,190.8237 365.59695,190.80784 C 365.24388,190.79016 364.89004,190.79016 364.53693,190.80784 z M 367.5845,251.22934 C 379.83913,260.61694 389.91701,273.88584 398.19277,289.6553 C 378.02606,289.45152 357.23042,289.76279 336.31373,290.84783 C 344.68382,274.54819 355.03044,260.8663 367.5845,251.22934 z M 266.21948,318.93852 C 264.38042,325.42503 262.71491,331.51599 260.91935,337.22398 C 254.05504,338.78518 247.38061,340.53906 241.04385,342.52411 C 202.84903,354.48897 173.24168,375.5003 167.50452,408.64325 L 167.37202,409.43827 L 167.37202,410.23329 C 166.83895,426.74685 171.94281,441.45548 181.41737,453.16436 C 190.89193,464.87324 204.31797,473.63407 220.10833,480.19504 C 230.64707,484.57392 242.36834,487.95311 254.9567,490.6628 C 267.54506,493.37248 260.20112,492.39416 279.0723,494.9029 C 297.94348,497.41164 318.21755,498.57975 339.4938,498.7455 C 364.93936,498.94376 391.48776,497.62195 418.06826,495.16791 C 416.53436,503.24243 414.73969,511.09828 412.76813,518.62099 C 375.92704,520.78183 334.71338,520.15854 294.70769,515.70592 C 291.5497,515.35446 288.43946,514.91357 285.29996,514.51339 L 262.37688,511.0683 C 225.96282,504.87415 191.98452,495.25093 165.25197,481.52007 C 131.03987,463.94737 109.48627,440.93195 105.49298,410.10079 C 106.18107,395.65322 111.86111,383.56104 122.58591,372.46985 C 133.51414,361.16832 149.75285,351.29612 169.75708,343.05412 C 196.62459,331.98435 230.17269,324.14698 266.21948,318.93852 z M 362.01937,348.75176 C 367.22482,348.7379 372.51231,348.76262 377.78726,348.88427 C 391.38998,349.19799 405.11122,349.9317 418.86328,351.00432 C 423.44226,374.36039 425.44053,399.47453 425.09094,424.67615 C 424.8615,441.21591 423.62695,457.66494 421.51335,473.56987 C 393.66196,476.22956 365.87803,477.74845 339.75881,477.54497 C 330.93685,477.47624 322.4284,477.10243 314.05317,476.61745 C 311.50398,459.40694 310.27871,442.55252 310.07807,423.21862 C 309.8201,398.36108 312.05015,373.62142 316.57073,350.60681 C 331.1882,349.40868 346.40301,348.7934 362.01937,348.75176 z M 252.43914,361.33958 C 242.27009,386.5049 230.26746,402.73382 210.5681,416.32845 C 210.38318,416.45607 210.22439,416.59879 210.03808,416.72596 C 209.48594,417.11291 208.91713,417.56647 208.44804,418.05099 C 207.57751,418.95023 206.84032,420.05664 206.32799,421.23107 C 206.2741,421.35551 206.24442,421.50235 206.19549,421.62858 C 206.05009,422.00434 205.90122,422.2919 205.79798,422.6886 C 205.74319,422.89908 205.70694,423.13979 205.66547,423.35112 C 205.64864,423.43885 205.68006,423.52797 205.66547,423.61613 C 205.6221,423.86871 205.55777,424.15844 205.53297,424.41115 C 205.42561,425.50412 205.44219,426.5404 205.66547,427.59123 C 205.80913,428.26723 206.05679,428.94479 206.32799,429.57878 C 206.47834,429.93028 206.67017,430.30481 206.858,430.6388 C 207.01595,430.91801 207.20234,431.16445 207.38802,431.43382 C 207.77878,431.9972 208.21212,432.53964 208.71305,433.02386 C 208.75685,433.06618 208.80095,433.11473 208.84555,433.15636 C 209.24688,433.53115 209.57286,433.90186 210.03808,434.21639 C 222.99271,443.23323 233.09395,453.59499 241.04385,465.08966 C 236.52941,463.68652 232.17559,462.24014 228.19103,460.58455 C 214.64398,454.95568 204.37237,447.97731 197.84778,439.91403 C 191.48698,432.05322 188.37492,423.19839 188.57255,411.69083 C 192.77271,389.57249 213.20616,373.50987 247.40401,362.79711 C 249.04099,362.28431 250.74823,361.82286 252.43914,361.33958 z M 583.43238,466.94471 C 572.92905,483.68465 562.28887,497.0227 552.21036,514.02586 L 534.27366,491.59032 L 525.66094,496.49294 C 516.03561,502.04735 496.23015,507.78091 470.93708,512.12833 L 480.0798,487.61522 C 517.26244,481.99178 552.7414,474.76299 583.43238,466.94471 z M 328.49603,539.82152 C 355.10982,541.36496 381.52432,541.40995 406.27547,540.21903 C 406.1991,540.43846 406.08721,540.66297 406.01046,540.88155 C 395.61063,570.5025 381.12634,591.60902 367.5845,599.58051 C 354.17229,591.41152 338.94047,568.45487 328.49603,539.82152 z"
       id="path3501"
       style="fill:#155a9f;fill-opacity:1;fill-rule:evenodd;stroke:none;stroke-width:5;stroke-linecap:round;stroke-linejoin:miter;stroke-miterlimit:4;stroke-dasharray:none;stroke-opacity:1" />
  </g>
</svg>
