<?xml version="1.0" encoding="UTF-8" standalone="no"?>
<svg
   xmlns:svg="http://www.w3.org/2000/svg"
   xmlns="http://www.w3.org/2000/svg"
   version="1.1"
   width="329.86288"
   height="358.625"
   id="svg8216">
  <defs
     id="defs8218">
    <linearGradient
       x1="0"
       y1="0"
       x2="1"
       y2="0"
       id="linearGradient540-4"
       gradientUnits="userSpaceOnUse"
       gradientTransform="matrix(-19.047813,21.052839,-21.052839,-19.047813,390.29141,620.34196)"
       spreadMethod="pad">
      <stop
         id="stop542-8"
         style="stop-color:#fdc300;stop-opacity:1"
         offset="0" />
      <stop
         id="stop544-8"
         style="stop-color:#b48d12;stop-opacity:1"
         offset="1" />
    </linearGradient>
    <linearGradient
       x1="0"
       y1="0"
       x2="1"
       y2="0"
       id="linearGradient334-5"
       gradientUnits="userSpaceOnUse"
       gradientTransform="matrix(277.51923,0,0,277.51923,266.61031,561.73225)"
       spreadMethod="pad">
      <stop
         id="stop336-2"
         style="stop-color:#ffffff;stop-opacity:1"
         offset="0" />
      <stop
         id="stop338-7"
         style="stop-color:#c6c7c9;stop-opacity:1"
         offset="1" />
    </linearGradient>
    <linearGradient
       x1="0"
       y1="0"
       x2="1"
       y2="0"
       id="linearGradient374-5"
       gradientUnits="userSpaceOnUse"
       gradientTransform="matrix(139.93106,0,0,139.93106,403.50646,413.55148)"
       spreadMethod="pad">
      <stop
         id="stop376-5"
         style="stop-color:#ffffff;stop-opacity:1"
         offset="0" />
      <stop
         id="stop378-1"
         style="stop-color:#c6c7c9;stop-opacity:1"
         offset="1" />
    </linearGradient>
    <linearGradient
       x1="0"
       y1="0"
       x2="1"
       y2="0"
       id="linearGradient314-6"
       gradientUnits="userSpaceOnUse"
       gradientTransform="matrix(-163.37921,91.382562,-91.382562,-163.37921,488.01518,478.10205)"
       spreadMethod="pad">
      <stop
         id="stop316-1"
         style="stop-color:#ffffff;stop-opacity:1"
         offset="0" />
      <stop
         id="stop318-4"
         style="stop-color:#c6c7c9;stop-opacity:1"
         offset="1" />
    </linearGradient>
    <linearGradient
       x1="0"
       y1="0"
       x2="1"
       y2="0"
       id="linearGradient354-7"
       gradientUnits="userSpaceOnUse"
       gradientTransform="matrix(139.93106,0,0,139.93106,267.24531,413.55039)"
       spreadMethod="pad">
      <stop
         id="stop356-1"
         style="stop-color:#ffffff;stop-opacity:1"
         offset="0" />
      <stop
         id="stop358-1"
         style="stop-color:#c6c7c9;stop-opacity:1"
         offset="1" />
    </linearGradient>
  </defs>
  <g
     transform="translate(-240.7873,-375.8125)"
     id="layer1">
    <path
       d="M 406.84892,732.56314 C 219.85172,594.715 243.85348,377.87551 243.85348,377.87551 l 323.72071,0 c 0,0 24.01013,216.83949 -162.98707,354.68763"
       id="path300"
       style="fill:#002253;fill-opacity:1;fill-rule:nonzero;stroke:#ffffff;stroke-width:2.14891243;stroke-linecap:butt;stroke-linejoin:miter;stroke-miterlimit:4;stroke-opacity:1;stroke-dasharray:none" />
    <path
       d="m 403.58541,393.601 c -50.42837,35.13932 -117.4711,39.45386 -117.4711,39.45386 l 0,0 c -18.44971,1.8479 -16.60599,4.93331 -16.60599,4.93331 l 0,0 c -4.30619,168.28828 134.07709,249.0439 134.07709,249.0439 l 0,0 c 3.07286,1.23333 6.1499,-2.46246 6.1499,-2.46246 l 0,0 C 553.03517,584.69952 541.34993,447.23183 541.34993,447.23183 l 0,0 c 2.46665,-13.56239 -3.07286,-12.32907 -3.07286,-12.32907 l 0,0 c -83.64036,-6.7812 -124.85014,-36.37264 -124.85014,-36.37264 l 0,0 c -5.53952,-4.43579 -7.97272,-5.32629 -9.03463,-5.32629 l 0,0 c -0.70655,0 -0.80689,0.39717 -0.80689,0.39717"
       id="path320"
       style="fill:url(#linearGradient314-6);stroke:none" />
    <path
       d="m 267.28415,435.0031 c -0.008,0.0669 -0.6731,5.5646 -0.6731,15.15527 l 0,0 c 0,20.39376 2.9976,59.31249 21.71906,103.64949 l 0,0 c 18.7131,44.30773 53.17095,94.02119 115.93258,135.90408 l 0,0 c 0.17978,0.13379 0.37627,0.23831 0.58949,0.29684 l 0,0 c 0.0167,0.004 0.0376,0.0125 0.0543,0.0167 l 0,0 c 0.004,0 0.0125,0.004 0.0167,0.004 l 0,0 c 0.0125,0 0.0251,0.004 0.0376,0.008 l 0,0 c 0.004,0 0.0167,0.004 0.0251,0.004 l 0,0 c 0.004,0.004 0.0126,0.004 0.0167,0.004 l 0,0 c 0.0251,0.008 0.0543,0.0125 0.0794,0.0167 l 0,0 c 0.004,0 0.0125,0.004 0.0167,0.004 l 0,0 c 0.0167,0 0.0251,0 0.0418,0 l 0,0 c 0.004,0 0.0126,0.004 0.0167,0.004 l 0,0 c 0.0125,0 0.0293,0.004 0.0376,0.004 l 0,0 c 0.008,0 0.0167,0 0.0251,0.004 l 0,0 c 0.0125,0 0.0251,0 0.0376,0 l 0,0 c 0.008,0 0.0167,0.004 0.0251,0.004 l 0,0 c 0.0125,0 0.0251,0 0.0293,0 l 0,0 c 0.0209,0 0.0335,0 0.0543,0 l 0,0 c 0.004,0 0.004,0 0.008,0 l 0,0 c 0.004,0 0.004,0 0.004,0 l 0,0 c 0.0209,0 0.0376,0 0.0543,0 l 0,0 c 0.0125,0 0.0209,0 0.0251,0 l 0,0 c 0.0125,0 0.0251,-0.004 0.0376,-0.004 l 0,0 c 0.008,0 0.0167,0 0.0293,0 l 0,0 c 0.008,-0.004 0.0209,-0.004 0.0293,-0.004 l 0,0 c 0.0125,0 0.0209,-0.004 0.0293,-0.004 l 0,0 c 0.0126,0 0.0209,-0.004 0.0335,-0.004 l 0,0 c 0.0125,0 0.0209,0 0.0251,0 l 0,0 c 0.0209,-0.004 0.0418,-0.008 0.0585,-0.008 l 0,0 0,-0.004 c 0.29265,-0.0543 0.56858,-0.1756 0.81106,-0.35955 l 0,0 c 62.7449,-41.87871 97.19021,-91.57544 115.89077,-135.879 l 0,0 c 18.73052,-44.32804 21.72813,-83.24259 21.72813,-103.65308 l 0,0 c 0,-9.59067 -0.66056,-15.09256 -0.66892,-15.15945 l 0,0 c -0.11706,-0.93649 -0.91141,-1.62632 -1.83118,-1.62632 l 0,0 c -0.0794,0 -0.15051,0.004 -0.22576,0.0125 l 0,0 c -1.01174,0.12543 -1.73084,1.04519 -1.60959,2.06112 l 0,0 0.0293,0.22576 c 0.11288,1.11208 0.61457,6.24606 0.61457,14.48635 l 0,0 c 0,20.05094 -2.95161,58.47216 -21.42641,102.21131 l 0,0 c -18.387,43.50503 -52.08395,92.282 -113.63733,133.62975 l 0,0 C 343.81721,644.65167 310.11189,595.87052 291.72907,552.36132 l 0,0 C 273.25428,508.62217 270.29848,470.19677 270.29848,450.15837 l 0,0 c 0,-4.71172 0.16723,-8.40334 0.33028,-10.91179 l 0,0 c 0.0794,-1.25005 0.16305,-2.21163 0.2174,-2.85129 l 0,0 c 0.0293,-0.32191 0.0543,-0.56022 0.0711,-0.71909 l 0,0 0.0251,-0.22576 c 0.12542,-1.01592 -0.59785,-1.93569 -1.60959,-2.06111 l 0,0 c -0.0711,-0.008 -0.14633,-0.0125 -0.2174,-0.0125 l 0,0 c -0.91977,0 -1.72248,0.68982 -1.83118,1.62631"
       id="path340"
       style="fill:url(#linearGradient334-5);stroke:none" />
    <path
       d="m 404.12055,390.55322 c -9.63666,8.42424 -22.92313,15.38103 -37.43038,21.00416 l 0,0 c -21.75669,8.43678 -46.23089,13.88849 -65.23664,17.22056 l 0,0 c -9.50706,1.66395 -17.647,2.79693 -23.4081,3.51603 l 0,0 c -2.88054,0.36372 -5.16324,0.61457 -6.72684,0.7818 l 0,0 c -0.77763,0.0794 -1.37966,0.14214 -1.78519,0.17977 l 0,0 c -0.40135,0.0376 -0.60621,0.0585 -0.60621,0.0585 l 0,0 c -1.01593,0.092 -1.76428,0.98666 -1.67649,2.00677 l 0,0 c 0.0878,1.01592 0.98666,1.76846 2.00259,1.67648 l 0,0 c 0.0502,-0.008 24.28605,-2.16981 53.52632,-8.67926 l 0,0 c 14.62013,-3.25682 30.49449,-7.59227 45.24422,-13.31155 l 0,0 c 14.74556,-5.71929 28.37903,-12.80986 38.52156,-21.66472 l 0,0 c 0.76508,-0.67728 0.84869,-1.84372 0.17977,-2.6088 l 0,0 c -0.36372,-0.42225 -0.88214,-0.63547 -1.39637,-0.63547 l 0,0 c -0.43062,0 -0.86124,0.15051 -1.20824,0.4557"
       id="path360"
       style="fill:url(#linearGradient354-7);stroke:none" />
    <path
       d="m 403.9575,390.73299 c -0.66474,0.76508 -0.58531,1.9357 0.17977,2.6088 l 0,0 c 10.14671,8.85904 23.776,15.94543 38.52574,21.66472 l 0,0 c 44.21993,17.13695 98.67856,21.97827 98.76217,21.99081 l 0,0 c 1.01593,0.092 1.91061,-0.66056 2.00677,-1.67648 l 0,0 c 0.0878,-1.02011 -0.66474,-1.91479 -1.6723,-2.00677 l 0,0 c -0.004,0 -0.37209,-0.0335 -1.07864,-0.10452 l 0,0 c -5.33466,-0.53095 -29.78794,-3.19828 -57.4646,-9.76208 l 0,0 c -27.67665,-6.53871 -58.58922,-17.07006 -76.6543,-32.89425 l 0,0 c -0.35118,-0.30519 -0.7818,-0.4557 -1.21242,-0.4557 l 0,0 c -0.51423,0 -1.02429,0.21322 -1.39219,0.63547"
       id="path380"
       style="fill:url(#linearGradient374-5);stroke:none" />
    <path
       d="m 516.06844,448.16711 -7.52538,0 0,-1.50508 c 0,-0.70237 -0.10034,-1.14971 -0.28847,-1.34202 -0.19232,-0.19232 -0.51841,-0.28848 -0.96576,-0.28848 -0.49333,0 -0.86541,0.12961 -1.1079,0.38881 -0.25084,0.25921 -0.37627,0.65638 -0.37627,1.17898 0,0.68146 0.13797,1.19152 0.4139,1.53434 0.27175,0.34282 1.03265,0.75672 2.29524,1.24169 3.59963,1.39637 5.87815,2.5419 6.81464,3.4324 0.93649,0.89469 1.40892,2.33705 1.40892,4.33127 0,1.44237 -0.26339,2.51264 -0.7818,3.19411 -0.51842,0.68564 -1.53016,1.26259 -3.01851,1.72665 -1.48836,0.46407 -3.22755,0.69401 -5.20087,0.69401 -2.16982,0 -4.02608,-0.26339 -5.5646,-0.80271 -1.53434,-0.53513 -2.53354,-1.2166 -3.01015,-2.04439 -0.48079,-0.82779 -0.71491,-2.00259 -0.71491,-3.52438 l 0,-1.33367 7.53373,0 0,2.47501 c 0,0.7609 0.1087,1.25423 0.31774,1.46745 0.21322,0.22158 0.58949,0.33028 1.12463,0.33028 0.5435,0 0.94485,-0.13796 1.20406,-0.41389 0.27175,-0.27593 0.39717,-0.68565 0.39717,-1.22915 0,-1.1957 -0.24666,-1.9775 -0.74836,-2.34959 -0.51005,-0.3679 -1.77682,-0.98248 -3.79195,-1.83953 -2.01931,-0.87378 -3.35297,-1.5009 -4.00517,-1.89807 -0.65638,-0.38881 -1.19988,-0.93231 -1.6305,-1.62632 -0.42226,-0.694 -0.64384,-1.58032 -0.64384,-2.65896 0,-1.55943 0.30102,-2.69241 0.91977,-3.4115 0.60203,-0.72328 1.59287,-1.2835 2.9558,-1.68903 1.36293,-0.40554 3.00597,-0.61039 4.9333,-0.61039 2.10711,0 3.90066,0.22576 5.38483,0.66474 1.48835,0.44316 2.47083,1.00338 2.94743,1.67648 0.48079,0.67311 0.72328,1.81445 0.72328,3.42823 l 0,0.80271 z m -36.2744,-2.67569 0,4.51522 c 0.91559,0 1.55943,-0.0836 1.92733,-0.24666 0.36791,-0.16305 0.54768,-0.68983 0.54768,-1.58451 l 0,-1.11627 c 0,-0.64383 -0.17559,-1.06609 -0.52677,-1.26259 -0.35537,-0.20485 -1.00339,-0.30519 -1.94824,-0.30519 m -8.10232,-3.4784 5.74437,0 c 3.8254,0 6.41747,0.10034 7.77204,0.28847 1.35457,0.19232 2.45829,0.68565 3.31535,1.47581 0.84869,0.79017 1.28349,2.04858 1.28349,3.7836 0,1.58032 -0.3052,2.64224 -0.91141,3.18574 -0.60203,0.5435 -1.79354,0.8696 -3.56201,0.9783 1.60542,0.2592 2.68405,0.60621 3.23173,1.04101 0.56023,0.4348 0.89887,0.83197 1.03265,1.19988 0.13797,0.36372 0.20904,1.36292 0.20904,3.00178 l 0,5.35556 -7.53792,0 0,-6.74775 c 0,-1.087 -0.12542,-1.75592 -0.39299,-2.01931 -0.26339,-0.25503 -0.96157,-0.38881 -2.08202,-0.38881 l 0,9.15587 -8.10232,0 0,-20.31015 z m -22.32193,8.4e-4 13.5624,0 0,4.06788 -5.4559,0 0,3.85467 5.10471,0 0,3.8672 -5.10471,0 0,4.45251 5.99103,0 0,4.06789 -14.09753,0 0,-20.31015 z m -9.17761,20.31057 -8.11068,0 0,-20.31015 8.11068,0 0,20.31015 z m -17.26488,-20.31057 0,20.31015 -7.09058,0 -0.0125,-13.70873 -2.81366,13.70873 -5.0629,0 -2.96416,-13.40771 -0.0209,13.40771 -7.08221,0 0,-20.31015 10.48117,0 c 0.3052,1.22496 0.62294,2.66733 0.96158,4.32709 l 1.15389,5.15906 1.85208,-9.48615 10.59824,0 z m -42.11367,5.22637 c 0,-0.94067 -0.0794,-1.54688 -0.23831,-1.81445 -0.15887,-0.25921 -0.49333,-0.39299 -0.98666,-0.39299 -0.42643,0 -0.75253,0.1087 -0.97411,0.32192 -0.22158,0.20903 -0.34283,0.84033 -0.34283,1.88552 l 0,9.48615 c 0,1.1748 0.0794,1.90643 0.22576,2.17818 0.14633,0.28011 0.49333,0.41808 1.03265,0.41808 0.54768,0 0.89887,-0.16305 1.05774,-0.47661 0.1505,-0.31774 0.22576,-1.07446 0.22576,-2.27015 l 0,-9.33565 z m 8.11068,6.6725 c 0,2.04021 -0.0794,3.48676 -0.22158,4.33545 -0.14633,0.8487 -0.61039,1.62214 -1.38802,2.32451 -0.77762,0.70236 -1.82699,1.24168 -3.14811,1.61795 -1.32112,0.37627 -2.85964,0.5644 -4.61974,0.5644 -1.66395,0 -3.16902,-0.17559 -4.49014,-0.53095 -1.33367,-0.35955 -2.39976,-0.89051 -3.21083,-1.60123 -0.80689,-0.71073 -1.29186,-1.48418 -1.44236,-2.32033 -0.15469,-0.83615 -0.23413,-2.29942 -0.23413,-4.3898 l 0,-3.47422 c 0,-2.04021 0.0711,-3.48675 0.22576,-4.33127 0.14215,-0.85287 0.60622,-1.62631 1.38384,-2.32868 0.77344,-0.70237 1.82699,-1.24169 3.14393,-1.61796 1.32112,-0.37627 2.86801,-0.5644 4.62393,-0.5644 1.6723,0 3.16483,0.17977 4.4985,0.53514 1.32948,0.35536 2.39558,0.88632 3.20246,1.59705 0.80689,0.71073 1.28768,1.48417 1.44237,2.32032 0.15468,0.83616 0.23412,2.29942 0.23412,4.3898 l 0,3.47422 z m -30.75955,-11.89887 0,16.24226 4.94584,0 0,4.06789 -13.05652,0 0,-20.31015 8.11068,0 z m -25.16402,5.22637 c 0,-0.94067 -0.0836,-1.54688 -0.24667,-1.81445 -0.15469,-0.25921 -0.48497,-0.39299 -0.98248,-0.39299 -0.42643,0 -0.74835,0.1087 -0.97411,0.32192 -0.22577,0.20903 -0.33865,0.84033 -0.33865,1.88552 l 0,9.48615 c 0,1.1748 0.0753,1.90643 0.22158,2.17818 0.15051,0.28011 0.48915,0.41808 1.02847,0.41808 0.55186,0 0.90723,-0.16305 1.06192,-0.47661 0.15468,-0.31774 0.22994,-1.07446 0.22994,-2.27015 l 0,-9.33565 z m 8.10232,6.6725 c 0,2.04021 -0.0711,3.48676 -0.2174,4.33545 -0.15051,0.8487 -0.61039,1.62214 -1.38802,2.32451 -0.7818,0.70236 -1.82699,1.24168 -3.14393,1.61795 -1.32948,0.37627 -2.868,0.5644 -4.62811,0.5644 -1.66812,0 -3.16483,-0.17559 -4.49014,-0.53095 -1.32948,-0.35955 -2.39975,-0.89051 -3.21082,-1.60123 -0.80271,-0.71073 -1.28768,-1.48418 -1.43818,-2.32033 -0.15469,-0.83615 -0.23413,-2.29942 -0.23413,-4.3898 l 0,-3.47422 c 0,-2.04021 0.0752,-3.48675 0.22158,-4.33127 0.14633,-0.85287 0.61039,-1.62631 1.38802,-2.32868 0.77762,-0.70237 1.82281,-1.24169 3.15229,-1.61796 1.31694,-0.37627 2.85965,-0.5644 4.61138,-0.5644 1.66813,0 3.16902,0.17977 4.49851,0.53514 1.32948,0.35536 2.39557,0.88632 3.20664,1.59705 0.80689,0.71073 1.28768,1.48417 1.44237,2.32032 0.15468,0.83616 0.22994,2.29942 0.22994,4.3898 l 0,3.47422 z m -27.34972,-3.04485 -8.1065,0 0,-3.53275 c 0,-1.02428 -0.0878,-1.66394 -0.25921,-1.91897 -0.17559,-0.25502 -0.56022,-0.38463 -1.14971,-0.38463 -0.6731,0 -1.09954,0.15887 -1.28349,0.46825 -0.1756,0.30938 -0.26757,0.97412 -0.26757,2.00677 l 0,9.4318 c 0,0.98666 0.092,1.6305 0.26757,1.93151 0.18395,0.30102 0.58948,0.45152 1.22496,0.45152 0.60203,0 0.9992,-0.1505 1.19152,-0.4557 0.18395,-0.30101 0.27593,-1.00756 0.27593,-2.12383 l 0,-2.55444 8.1065,0 0,0.79434 c 0,2.09874 -0.22994,3.59128 -0.68565,4.46924 -0.4557,0.88214 -1.46744,1.64722 -3.02269,2.31196 -1.55942,0.66056 -3.48257,0.99084 -5.77363,0.99084 -2.37468,0 -4.33127,-0.27593 -5.87398,-0.84033 -1.5427,-0.55604 -2.5628,-1.33367 -3.0645,-2.32451 -0.50169,-0.99084 -0.74835,-2.48337 -0.74835,-4.46923 l 0,-5.93669 c 0,-1.45908 0.0752,-2.55863 0.22576,-3.29026 0.15887,-0.73163 0.61457,-1.434 1.37965,-2.11547 0.76508,-0.67728 1.82281,-1.20824 3.17738,-1.59705 1.36293,-0.38881 2.91817,-0.5853 4.67828,-0.5853 2.38303,0 4.35635,0.30101 5.9116,0.90304 1.55524,0.60203 2.57535,1.35457 3.06449,2.24925 0.48497,0.89887 0.73164,2.29524 0.73164,4.19331 l 0,1.92733 z"
       id="path422"
       style="fill:#002253;fill-opacity:1;fill-rule:nonzero;stroke:none" />
    <path
       d="m 405.93702,462.79862 c -5.57296,0 -10.11316,0.84222 -13.625,2.53125 -3.51184,1.68485 -5.635,3.53901 -6.375,5.5625 -0.74,2.02349 -1.125,5.27658 -1.125,9.75 l 0,13.90625 c 0,3.21919 0.18007,5.64041 0.53125,7.25 0.35536,1.60959 1.26186,3.15755 2.6875,4.625 1.42146,1.46327 3.5116,2.69248 6.25,3.6875 2.74676,0.99084 5.67275,1.46875 8.8125,1.46875 2.63806,0 4.93513,-0.34759 6.875,-1.0625 1.94406,-0.71491 3.56444,-1.80764 4.84375,-3.25 l 1.71875,3.34375 11.75,0 0,-25.09375 -21.90625,0 0,7.125 3.84375,0 0,5.5 c 0,2.16982 -0.26085,3.63082 -0.75,4.375 -0.49751,0.74836 -1.42867,1.125 -2.8125,1.125 -1.26259,0 -2.10481,-0.33944 -2.53125,-1 -0.41808,-0.66474 -0.625,-2.02208 -0.625,-4.125 l 0,-22.46875 c 0,-2.38722 0.20692,-3.86055 0.625,-4.4375 0.4139,-0.57695 1.21693,-0.875 2.375,-0.875 1.35039,0 2.20714,0.35397 2.5625,1.03125 0.35536,0.6731 0.53125,2.35138 0.53125,5.03125 l 0,4.25 18.6875,0 0,-2.03125 c 0,-3.83794 -0.55671,-6.76612 -1.65625,-8.78125 -1.09118,-2.01513 -3.45032,-3.7513 -7.0625,-5.21875 -3.61636,-1.46745 -8.1482,-2.21875 -13.625,-2.21875 z m -112.21876,1.96875 0,46.8125 18.6875,0 0,-21.09375 c 2.58789,0 4.19793,0.3084 4.8125,0.90625 0.60621,0.59367 0.90625,2.14779 0.90625,4.65625 l 0,15.53125 17.34375,0 0,-12.34375 c 0,-3.77941 -0.15519,-6.06592 -0.46875,-6.90625 -0.3052,-0.84033 -1.09987,-1.77787 -2.375,-2.78125 -1.26677,-1.00338 -3.76041,-1.77297 -7.46875,-2.375 4.08879,-0.24667 6.85362,-1.02284 8.25,-2.28125 1.38801,-1.25005 2.0625,-3.7023 2.0625,-7.34375 0,-3.98845 -0.96418,-6.89176 -2.9375,-8.71875 -1.96914,-1.82281 -4.53322,-2.93184 -7.65625,-3.375 -3.12721,-0.44316 -9.08066,-0.6875 -17.90625,-0.6875 l -13.25,0 z m 137.87501,0 0,46.8125 21.65625,0 c 7.52537,0 12.50011,-0.28771 14.9375,-0.84375 2.42484,-0.55604 4.2046,-1.57195 5.3125,-3.09375 1.11208,-1.5218 1.6875,-3.87059 1.6875,-7.03125 l 0,-4.34375 c 0,-3.0436 -0.76562,-5.30962 -2.3125,-6.78125 -1.53016,-1.47581 -4.4667,-2.52077 -8.78125,-3.15625 3.87557,-0.57695 6.46849,-1.41718 7.78125,-2.5 1.32112,-1.07446 2,-2.98035 2,-5.71875 0,-4.05116 -0.94788,-6.98969 -2.8125,-8.8125 -1.86462,-1.81863 -4.33558,-3.02715 -7.375,-3.625 -3.0436,-0.59785 -7.50719,-0.90625 -13.40625,-0.90625 l -18.6875,0 z m 40.84375,0 13.5,29.875 0,16.9375 17.78125,0 0,-16.9375 14,-29.875 -17.65625,0 c -2.46665,7.30797 -4.25675,13.47692 -5.34375,18.46875 -0.35536,-3.16484 -1.8866,-9.3296 -4.625,-18.46875 l -17.65625,0 z m -134.12501,0.75 0,27.6875 c 0,5.2803 0.14067,8.76321 0.4375,10.40625 0.29683,1.6514 1.27993,3.20333 2.90625,4.6875 1.63469,1.48417 4.08475,2.70105 7.37501,3.625 3.28608,0.92395 7.07299,1.375 11.375,1.375 3.87975,0 7.26954,-0.37445 10.125,-1.15625 2.85964,-0.7818 5.15451,-1.91988 6.90625,-3.4375 1.74756,-1.50926 2.80089,-3.0035 3.15625,-4.4375 0.35536,-1.434 0.53125,-3.92764 0.53125,-7.46875 l 0,-31.28125 -18.6875,0 0,34.46875 c 0,2.32869 -0.18843,3.81457 -0.53125,4.4375 -0.347,0.6313 -1.11262,0.9375 -2.3125,0.9375 -1.04937,0 -1.74675,-0.27517 -2.09375,-0.84375 -0.347,-0.56858 -0.5,-1.86186 -0.5,-3.90625 l 0,-35.09375 -18.68751,0 z m -25.90625,7.28125 c 2.174,0 3.64514,0.22344 4.46875,0.6875 0.81107,0.46406 1.25,1.42208 1.25,2.90625 l 0,2.59375 c 0,2.06112 -0.43255,3.27998 -1.28125,3.65625 -0.84451,0.37209 -2.32203,0.5625 -4.4375,0.5625 l 0,-10.40625 z m 137.87501,0 c 1.94406,0.0251 3.25185,0.0953 3.9375,0.25 0.66892,0.15469 1.23399,0.53551 1.65625,1.125 0.41808,0.58949 0.625,1.59923 0.625,3.0625 0,2.77603 -0.26702,4.46883 -0.78125,5.0625 -0.51005,0.58531 -1.67081,0.875 -3.53125,0.875 -0.45152,0 -1.091,0.0104 -1.90625,0.0312 l 0,-10.40625 z m 0,17.6875 c 2.82202,0.0585 4.55819,0.30067 5.21875,0.71875 0.66474,0.42644 1,1.64948 1,3.65625 l 0,4.34375 c 0,1.88971 -0.35375,3.08171 -1.09375,3.5625 -0.73581,0.48497 -2.44931,0.75815 -5.125,0.8125 l 0,-13.09375 z"
       id="path426"
       style="fill:#002253;fill-opacity:1;fill-rule:nonzero;stroke:none" />
    <path
       d="m 515.38029,466.61807 -12.55902,27.52197 0,15.61097 -15.95797,0 0,-15.61097 -12.09495,-27.52197 15.83673,0 c 2.45411,8.42005 3.84212,14.08917 4.15986,17.00316 0.97412,-4.59884 2.56699,-10.26795 4.7828,-17.00316 l 15.83255,0 z m -64.85159,23.69197 0,12.05732 c 2.46665,-0.0502 4.03026,-0.29683 4.70754,-0.74418 0.68146,-0.44316 1.01593,-1.53434 1.01593,-3.27353 l 0,-4.01772 c 0,-1.8479 -0.30102,-2.96416 -0.91141,-3.35715 -0.61457,-0.38881 -2.20744,-0.61039 -4.81206,-0.66474 m 0,-16.31334 0,9.59485 c 0.74836,-0.0209 1.32948,-0.0293 1.74338,-0.0293 1.71829,0 2.80529,-0.27175 3.26936,-0.81525 0.48078,-0.5435 0.71073,-2.0862 0.71073,-4.64483 0,-1.35039 -0.18814,-2.29942 -0.58113,-2.83874 -0.38045,-0.5435 -0.8905,-0.88214 -1.50508,-1.02847 -0.63129,-0.13797 -1.84371,-0.22158 -3.63726,-0.2383 m -17.20802,-7.37905 17.20802,0 c 5.43917,0 9.55723,0.27593 12.36252,0.82361 2.80111,0.55604 5.05872,1.66394 6.7812,3.34461 1.71829,1.68067 2.58371,4.38144 2.58371,8.11486 0,2.52519 -0.61039,4.28111 -1.82281,5.27613 -1.21661,0.99502 -3.61218,1.7601 -7.18256,2.29524 3.97591,0.5853 6.6725,1.55942 8.08978,2.91817 1.41728,1.35457 2.12801,3.43659 2.12801,6.24606 l 0,3.99263 c 0,2.91399 -0.51005,5.07127 -1.5427,6.47182 -1.01593,1.40474 -2.65479,2.36631 -4.8915,2.88055 -2.24088,0.51423 -6.82718,0.76926 -13.76307,0.76926 l -19.9506,0 0,-43.13294 z m -6.73605,14.91153 -17.22056,0 0,-3.92156 c 0,-2.46665 -0.16723,-4.01771 -0.49752,-4.63647 -0.33028,-0.62293 -1.12044,-0.93231 -2.35795,-0.93231 -1.07445,0 -1.80191,0.26757 -2.18654,0.79853 -0.38881,0.53514 -0.58112,1.89807 -0.58112,4.09715 l 0,20.68224 c 0,1.93987 0.19649,3.20664 0.58112,3.82122 0.38882,0.61039 1.15808,0.91976 2.32033,0.91976 1.27513,0 2.13219,-0.35118 2.59207,-1.03683 0.45571,-0.68564 0.68565,-2.03185 0.68565,-4.02607 l 0,-5.08799 -3.54111,0 0,-6.55962 20.20563,0 0,23.13217 -10.8449,0 -1.59287,-3.08959 c -1.1748,1.33367 -2.65479,2.33287 -4.44415,2.98925 -1.79355,0.66056 -3.90484,0.99084 -6.33386,0.99084 -2.89309,0 -5.61058,-0.45152 -8.13577,-1.36711 -2.52518,-0.91559 -4.44833,-2.05275 -5.75691,-3.39896 -1.31276,-1.35039 -2.13219,-2.76767 -2.45829,-4.25184 -0.33028,-1.48417 -0.49333,-3.70833 -0.49333,-6.67668 l 0,-12.81404 c 0,-4.11805 0.34283,-7.11148 1.02429,-8.9761 0.68565,-1.86462 2.64224,-3.57873 5.87397,-5.1298 3.2401,-1.55524 7.42504,-2.33286 12.55902,-2.33286 5.04618,0 9.23949,0.67728 12.57155,2.02767 3.32371,1.35038 5.49771,2.95998 6.50527,4.81624 1.01593,1.85626 1.52598,4.55703 1.52598,8.09396 l 0,1.8688 z m -47.14396,-14.12471 0,28.818 c 0,3.26518 -0.16723,5.56042 -0.49751,6.88572 -0.3261,1.32112 -1.29604,2.67987 -2.90981,4.07207 -1.6096,1.39637 -3.72925,2.44992 -6.36313,3.16901 -2.63806,0.7191 -5.74437,1.07864 -9.31892,1.07864 -3.96336,0 -7.45848,-0.42226 -10.48535,-1.27931 -3.03106,-0.8487 -5.30121,-1.9566 -6.80629,-3.32789 -1.49671,-1.36711 -2.38304,-2.80947 -2.65479,-4.32709 -0.27593,-1.51762 -0.40971,-4.70754 -0.40971,-9.57813 l 0,-25.51102 17.21221,0 0,32.31312 c 0,1.88553 0.15887,3.08541 0.4766,3.608 0.32192,0.52678 0.96158,0.79017 1.92734,0.79017 1.10372,0 1.81445,-0.28848 2.13637,-0.8696 0.31773,-0.57695 0.4766,-1.9357 0.4766,-4.08461 l 0,-31.75708 17.21639,0 z m -66.86965,6.5893 0,9.59485 c 1.94824,0 3.31117,-0.17559 4.08879,-0.52259 0.78598,-0.347 1.17897,-1.46745 1.17897,-3.3697 l 0,-2.37049 c 0,-1.36711 -0.38045,-2.26598 -1.13298,-2.69241 -0.75672,-0.42644 -2.13219,-0.63966 -4.13478,-0.63966 m -17.21638,-7.37905 12.19947,0 c 8.13576,0 13.64183,0.20486 16.51819,0.61875 2.88055,0.40554 5.22596,1.44655 7.04041,3.12722 1.81863,1.68066 2.72586,4.35635 2.72586,8.03124 0,3.36134 -0.64384,5.61477 -1.92315,6.76866 -1.28768,1.15807 -3.81286,1.85208 -7.57973,2.07784 3.41568,0.55604 5.71092,1.29186 6.88154,2.21162 1.17061,0.92395 1.90643,1.77265 2.19072,2.55027 0.28847,0.76926 0.43062,2.89727 0.43062,6.37566 l 0,11.37168 -15.99979,0 0,-14.32329 c 0,-2.31197 -0.28429,-3.74179 -0.84451,-4.28947 -0.5644,-0.55186 -2.03603,-0.82361 -4.42325,-0.82361 l 0,19.43637 -17.21638,0 0,-43.13294 z"
       id="path510"
       style="fill:#ffffff;fill-opacity:1;fill-rule:nonzero;stroke:none" />
    <path
       d="m 515.38029,466.61807 -12.55902,27.52197 0,15.61097 -15.95797,0 0,-15.61097 -12.09495,-27.52197 15.83673,0 c 2.45411,8.42005 3.84212,14.08917 4.15986,17.00316 0.97412,-4.59884 2.56699,-10.26795 4.7828,-17.00316 l 15.83255,0 z m -64.85159,23.69197 0,12.05732 c 2.46665,-0.0502 4.03026,-0.29683 4.70754,-0.74418 0.68146,-0.44316 1.01593,-1.53434 1.01593,-3.27353 l 0,-4.01772 c 0,-1.8479 -0.30102,-2.96416 -0.91141,-3.35715 -0.61457,-0.38881 -2.20744,-0.61039 -4.81206,-0.66474 z m 0,-16.31334 0,9.59485 c 0.74836,-0.0209 1.32948,-0.0293 1.74338,-0.0293 1.71829,0 2.80529,-0.27175 3.26936,-0.81525 0.48078,-0.5435 0.71073,-2.0862 0.71073,-4.64483 0,-1.35039 -0.18814,-2.29942 -0.58113,-2.83874 -0.38045,-0.5435 -0.8905,-0.88214 -1.50508,-1.02847 -0.63129,-0.13797 -1.84371,-0.22158 -3.63726,-0.2383 z m -17.20802,-7.37905 17.20802,0 c 5.43917,0 9.55723,0.27593 12.36252,0.82361 2.80111,0.55604 5.05872,1.66394 6.7812,3.34461 1.71829,1.68067 2.58371,4.38144 2.58371,8.11486 0,2.52519 -0.61039,4.28111 -1.82281,5.27613 -1.21661,0.99502 -3.61218,1.7601 -7.18256,2.29524 3.97591,0.5853 6.6725,1.55942 8.08978,2.91817 1.41728,1.35457 2.12801,3.43659 2.12801,6.24606 l 0,3.99263 c 0,2.91399 -0.51005,5.07127 -1.5427,6.47182 -1.01593,1.40474 -2.65479,2.36631 -4.8915,2.88055 -2.24088,0.51423 -6.82718,0.76926 -13.76307,0.76926 l -19.9506,0 0,-43.13294 z m -6.73605,14.91153 -17.22056,0 0,-3.92156 c 0,-2.46665 -0.16723,-4.01771 -0.49752,-4.63647 -0.33028,-0.62293 -1.12044,-0.93231 -2.35795,-0.93231 -1.07445,0 -1.80191,0.26757 -2.18654,0.79853 -0.38881,0.53514 -0.58112,1.89807 -0.58112,4.09715 l 0,20.68224 c 0,1.93987 0.19649,3.20664 0.58112,3.82122 0.38882,0.61039 1.15808,0.91976 2.32033,0.91976 1.27513,0 2.13219,-0.35118 2.59207,-1.03683 0.45571,-0.68564 0.68565,-2.03185 0.68565,-4.02607 l 0,-5.08799 -3.54111,0 0,-6.55962 20.20563,0 0,23.13217 -10.8449,0 -1.59287,-3.08959 c -1.1748,1.33367 -2.65479,2.33287 -4.44415,2.98925 -1.79355,0.66056 -3.90484,0.99084 -6.33386,0.99084 -2.89309,0 -5.61058,-0.45152 -8.13577,-1.36711 -2.52518,-0.91559 -4.44833,-2.05275 -5.75691,-3.39896 -1.31276,-1.35039 -2.13219,-2.76767 -2.45829,-4.25184 -0.33028,-1.48417 -0.49333,-3.70833 -0.49333,-6.67668 l 0,-12.81404 c 0,-4.11805 0.34283,-7.11148 1.02429,-8.9761 0.68565,-1.86462 2.64224,-3.57873 5.87397,-5.1298 3.2401,-1.55524 7.42504,-2.33286 12.55902,-2.33286 5.04618,0 9.23949,0.67728 12.57155,2.02767 3.32371,1.35038 5.49771,2.95998 6.50527,4.81624 1.01593,1.85626 1.52598,4.55703 1.52598,8.09396 l 0,1.8688 z m -47.14396,-14.12471 0,28.818 c 0,3.26518 -0.16723,5.56042 -0.49751,6.88572 -0.3261,1.32112 -1.29604,2.67987 -2.90981,4.07207 -1.6096,1.39637 -3.72925,2.44992 -6.36313,3.16901 -2.63806,0.7191 -5.74437,1.07864 -9.31892,1.07864 -3.96336,0 -7.45848,-0.42226 -10.48535,-1.27931 -3.03106,-0.8487 -5.30121,-1.9566 -6.80629,-3.32789 -1.49671,-1.36711 -2.38304,-2.80947 -2.65479,-4.32709 -0.27593,-1.51762 -0.40971,-4.70754 -0.40971,-9.57813 l 0,-25.51102 17.21221,0 0,32.31312 c 0,1.88553 0.15887,3.08541 0.4766,3.608 0.32192,0.52678 0.96158,0.79017 1.92734,0.79017 1.10372,0 1.81445,-0.28848 2.13637,-0.8696 0.31773,-0.57695 0.4766,-1.9357 0.4766,-4.08461 l 0,-31.75708 17.21639,0 z m -66.86965,6.5893 0,9.59485 c 1.94824,0 3.31117,-0.17559 4.08879,-0.52259 0.78598,-0.347 1.17897,-1.46745 1.17897,-3.3697 l 0,-2.37049 c 0,-1.36711 -0.38045,-2.26598 -1.13298,-2.69241 -0.75672,-0.42644 -2.13219,-0.63966 -4.13478,-0.63966 z m -17.21638,-7.37905 12.19947,0 c 8.13576,0 13.64183,0.20486 16.51819,0.61875 2.88055,0.40554 5.22596,1.44655 7.04041,3.12722 1.81863,1.68066 2.72586,4.35635 2.72586,8.03124 0,3.36134 -0.64384,5.61477 -1.92315,6.76866 -1.28768,1.15807 -3.81286,1.85208 -7.57973,2.07784 3.41568,0.55604 5.71092,1.29186 6.88154,2.21162 1.17061,0.92395 1.90643,1.77265 2.19072,2.55027 0.28847,0.76926 0.43062,2.89727 0.43062,6.37566 l 0,11.37168 -15.99979,0 0,-14.32329 c 0,-2.31197 -0.28429,-3.74179 -0.84451,-4.28947 -0.5644,-0.55186 -2.03603,-0.82361 -4.42325,-0.82361 l 0,19.43637 -17.21638,0 0,-43.13294 z"
       id="path514"
       style="fill:none;stroke:#002253;stroke-width:1.08281779;stroke-linecap:butt;stroke-linejoin:miter;stroke-miterlimit:4;stroke-opacity:1;stroke-dasharray:none" />
    <path
       d="m 511.6268,469.33515 -10.24287,24.03939 0,13.63347 -12.99382,0 0,-13.63347 -9.85824,-24.03939 12.90184,0 c 2.00258,7.35814 3.12721,12.30399 3.39478,14.85007 0.79016,-4.01771 2.0862,-8.96774 3.88811,-14.85007 l 12.9102,0 z m -60.7327,20.69687 0,10.50626 c 2.14891,-0.046 3.51602,-0.25921 4.10133,-0.6522 0.59785,-0.38463 0.88632,-1.33785 0.88632,-2.85128 l 0,-3.4993 c 0,-1.6096 -0.25921,-2.58371 -0.79435,-2.92236 -0.52677,-0.33864 -1.92733,-0.53513 -4.1933,-0.58112 m 0,-14.20624 0,8.35317 c 0.66474,-0.0167 1.16225,-0.0251 1.5218,-0.0251 1.49253,0 2.44574,-0.23413 2.85128,-0.70655 0.41389,-0.47243 0.61457,-1.81864 0.61457,-4.0428 0,-1.17898 -0.16723,-2.00677 -0.50587,-2.47501 -0.33446,-0.47243 -0.76926,-0.77345 -1.30858,-0.89469 -0.54768,-0.12124 -1.60542,-0.19232 -3.1732,-0.20904 m -14.98804,-6.42583 14.98804,0 c 4.74098,0 8.33226,0.2383 10.76965,0.71909 2.44156,0.48079 4.40652,1.44654 5.90741,2.90981 1.49672,1.46745 2.24926,3.82122 2.24926,7.06967 0,2.19909 -0.52678,3.72925 -1.58869,4.59466 -1.05774,0.8696 -3.14394,1.53434 -6.25443,1.99841 3.47004,0.51005 5.80708,1.35457 7.04459,2.53772 1.23751,1.18316 1.85626,3.00179 1.85626,5.44336 l 0,3.47839 c 0,2.53773 -0.44734,4.41489 -1.33785,5.63567 -0.8905,1.22496 -2.31614,2.06112 -4.26437,2.50846 -1.9566,0.44734 -5.94505,0.6731 -11.99043,0.6731 l -17.37944,0 0,-37.56834 z m -11.91225,12.86003 -14.9964,0 0,-3.41568 c 0,-2.14892 -0.14214,-3.49513 -0.43062,-4.03444 -0.28429,-0.54768 -0.97411,-0.81107 -2.05275,-0.81107 -0.93231,0 -1.57197,0.22576 -1.90643,0.694 -0.33864,0.45989 -0.50169,1.65141 -0.50169,3.5662 l 0,18.01073 c 0,1.68903 0.16723,2.79693 0.50169,3.33207 0.33864,0.53095 1.00756,0.79852 2.02349,0.79852 1.1079,0 1.86044,-0.30519 2.25761,-0.89886 0.39717,-0.60203 0.59785,-1.76846 0.59785,-3.50766 l 0,-4.43579 -3.0854,0 0,-5.71093 17.59265,0 0,20.1471 -9.44016,0 -1.38802,-2.68823 c -1.0201,1.15807 -2.31196,2.02767 -3.87138,2.60044 -1.55943,0.57694 -3.39478,0.86542 -5.51861,0.86542 -2.51682,0 -4.87895,-0.40136 -7.0864,-1.1957 -2.1949,-0.79853 -3.8672,-1.78519 -5.00855,-2.9558 -1.14553,-1.17898 -1.86044,-2.4123 -2.14473,-3.70834 -0.28011,-1.28767 -0.42644,-3.22337 -0.42644,-5.81126 l 0,-11.15846 c 0,-3.58709 0.29683,-6.19589 0.8905,-7.82221 0.59785,-1.62214 2.3036,-3.11049 5.11726,-4.46506 2.81783,-1.35456 6.46346,-2.03185 10.93687,-2.03185 4.39399,0 8.04797,0.58949 10.94942,1.76847 2.89727,1.17479 4.78698,2.57117 5.66912,4.1933 0.88214,1.61796 1.32112,3.96755 1.32112,7.04877 l 0,1.62632 z m -47.10006,-12.0151 0,25.10131 c 0,2.84292 -0.14633,4.84132 -0.43062,5.99521 -0.28429,1.15389 -1.13299,2.33287 -2.53354,3.54947 -1.40474,1.21242 -3.24846,2.13219 -5.54788,2.7593 -2.29524,0.62712 -4.99601,0.9365 -8.11486,0.9365 -3.44495,0 -6.49273,-0.37209 -9.13079,-1.11209 -2.63806,-0.73999 -4.61556,-1.70575 -5.92414,-2.89727 -1.3044,-1.1957 -2.07784,-2.44992 -2.31614,-3.77105 -0.23413,-1.32112 -0.35119,-4.10132 -0.35119,-8.33644 l 0,-22.22494 14.99222,0 0,28.1449 c 0,1.63886 0.13379,2.68823 0.40972,3.14394 0.28011,0.4557 0.83615,0.68564 1.68066,0.68564 0.9574,0 1.57615,-0.25084 1.86044,-0.75672 0.27175,-0.50169 0.40972,-1.68902 0.40972,-3.55783 l 0,-27.65993 14.9964,0 z m -64.62709,4.73304 0,8.35317 c 1.69321,0 2.88473,-0.15469 3.56619,-0.45152 0.68147,-0.30102 1.02011,-1.2835 1.02011,-2.93908 l 0,-2.06111 c 0,-1.19153 -0.33028,-1.97333 -0.98248,-2.34542 -0.65638,-0.37208 -1.86044,-0.55604 -3.60382,-0.55604 m -14.99222,-6.43001 10.62332,0 c 7.0864,0 11.88173,0.17977 14.38601,0.53932 2.50846,0.35536 4.55703,1.25841 6.13318,2.72585 1.58033,1.46327 2.37468,3.79196 2.37468,6.99442 0,2.92236 -0.55605,4.88732 -1.68067,5.89488 -1.11627,1.00757 -3.31535,1.6096 -6.59307,1.81027 2.97253,0.48079 4.96257,1.12045 5.98686,1.92733 1.02429,0.80271 1.65976,1.54271 1.90643,2.21581 0.25084,0.6731 0.38045,2.52518 0.38045,5.55623 l 0,9.90423 -13.93867,0 0,-12.4754 c 0,-2.01094 -0.24667,-3.25681 -0.73163,-3.7376 -0.49333,-0.47661 -1.77265,-0.71909 -3.85467,-0.71909 l 0,16.93209 -14.99222,0 0,-37.56834 z"
       id="path518"
       style="fill:#c4dcf1;fill-opacity:1;fill-rule:nonzero;stroke:none" />
    <path
       d="m 511.6268,469.33515 -10.24287,24.03939 0,13.63347 -12.99382,0 0,-13.63347 -9.85824,-24.03939 12.90184,0 c 2.00258,7.35814 3.12721,12.30399 3.39478,14.85007 0.79016,-4.01771 2.0862,-8.96774 3.88811,-14.85007 l 12.9102,0 z m -60.7327,20.69687 0,10.50626 c 2.14891,-0.046 3.51602,-0.25921 4.10133,-0.6522 0.59785,-0.38463 0.88632,-1.33785 0.88632,-2.85128 l 0,-3.4993 c 0,-1.6096 -0.25921,-2.58371 -0.79435,-2.92236 -0.52677,-0.33864 -1.92733,-0.53513 -4.1933,-0.58112 z m 0,-14.20624 0,8.35317 c 0.66474,-0.0167 1.16225,-0.0251 1.5218,-0.0251 1.49253,0 2.44574,-0.23413 2.85128,-0.70655 0.41389,-0.47243 0.61457,-1.81864 0.61457,-4.0428 0,-1.17898 -0.16723,-2.00677 -0.50587,-2.47501 -0.33446,-0.47243 -0.76926,-0.77345 -1.30858,-0.89469 -0.54768,-0.12124 -1.60542,-0.19232 -3.1732,-0.20904 z m -14.98804,-6.42583 14.98804,0 c 4.74098,0 8.33226,0.2383 10.76965,0.71909 2.44156,0.48079 4.40652,1.44654 5.90741,2.90981 1.49672,1.46745 2.24926,3.82122 2.24926,7.06967 0,2.19909 -0.52678,3.72925 -1.58869,4.59466 -1.05774,0.8696 -3.14394,1.53434 -6.25443,1.99841 3.47004,0.51005 5.80708,1.35457 7.04459,2.53772 1.23751,1.18316 1.85626,3.00179 1.85626,5.44336 l 0,3.47839 c 0,2.53773 -0.44734,4.41489 -1.33785,5.63567 -0.8905,1.22496 -2.31614,2.06112 -4.26437,2.50846 -1.9566,0.44734 -5.94505,0.6731 -11.99043,0.6731 l -17.37944,0 0,-37.56834 z m -11.91225,12.86003 -14.9964,0 0,-3.41568 c 0,-2.14892 -0.14214,-3.49513 -0.43062,-4.03444 -0.28429,-0.54768 -0.97411,-0.81107 -2.05275,-0.81107 -0.93231,0 -1.57197,0.22576 -1.90643,0.694 -0.33864,0.45989 -0.50169,1.65141 -0.50169,3.5662 l 0,18.01073 c 0,1.68903 0.16723,2.79693 0.50169,3.33207 0.33864,0.53095 1.00756,0.79852 2.02349,0.79852 1.1079,0 1.86044,-0.30519 2.25761,-0.89886 0.39717,-0.60203 0.59785,-1.76846 0.59785,-3.50766 l 0,-4.43579 -3.0854,0 0,-5.71093 17.59265,0 0,20.1471 -9.44016,0 -1.38802,-2.68823 c -1.0201,1.15807 -2.31196,2.02767 -3.87138,2.60044 -1.55943,0.57694 -3.39478,0.86542 -5.51861,0.86542 -2.51682,0 -4.87895,-0.40136 -7.0864,-1.1957 -2.1949,-0.79853 -3.8672,-1.78519 -5.00855,-2.9558 -1.14553,-1.17898 -1.86044,-2.4123 -2.14473,-3.70834 -0.28011,-1.28767 -0.42644,-3.22337 -0.42644,-5.81126 l 0,-11.15846 c 0,-3.58709 0.29683,-6.19589 0.8905,-7.82221 0.59785,-1.62214 2.3036,-3.11049 5.11726,-4.46506 2.81783,-1.35456 6.46346,-2.03185 10.93687,-2.03185 4.39399,0 8.04797,0.58949 10.94942,1.76847 2.89727,1.17479 4.78698,2.57117 5.66912,4.1933 0.88214,1.61796 1.32112,3.96755 1.32112,7.04877 l 0,1.62632 z m -47.10006,-12.0151 0,25.10131 c 0,2.84292 -0.14633,4.84132 -0.43062,5.99521 -0.28429,1.15389 -1.13299,2.33287 -2.53354,3.54947 -1.40474,1.21242 -3.24846,2.13219 -5.54788,2.7593 -2.29524,0.62712 -4.99601,0.9365 -8.11486,0.9365 -3.44495,0 -6.49273,-0.37209 -9.13079,-1.11209 -2.63806,-0.73999 -4.61556,-1.70575 -5.92414,-2.89727 -1.3044,-1.1957 -2.07784,-2.44992 -2.31614,-3.77105 -0.23413,-1.32112 -0.35119,-4.10132 -0.35119,-8.33644 l 0,-22.22494 14.99222,0 0,28.1449 c 0,1.63886 0.13379,2.68823 0.40972,3.14394 0.28011,0.4557 0.83615,0.68564 1.68066,0.68564 0.9574,0 1.57615,-0.25084 1.86044,-0.75672 0.27175,-0.50169 0.40972,-1.68902 0.40972,-3.55783 l 0,-27.65993 14.9964,0 z m -64.62709,4.73304 0,8.35317 c 1.69321,0 2.88473,-0.15469 3.56619,-0.45152 0.68147,-0.30102 1.02011,-1.2835 1.02011,-2.93908 l 0,-2.06111 c 0,-1.19153 -0.33028,-1.97333 -0.98248,-2.34542 -0.65638,-0.37208 -1.86044,-0.55604 -3.60382,-0.55604 z m -14.99222,-6.43001 10.62332,0 c 7.0864,0 11.88173,0.17977 14.38601,0.53932 2.50846,0.35536 4.55703,1.25841 6.13318,2.72585 1.58033,1.46327 2.37468,3.79196 2.37468,6.99442 0,2.92236 -0.55605,4.88732 -1.68067,5.89488 -1.11627,1.00757 -3.31535,1.6096 -6.59307,1.81027 2.97253,0.48079 4.96257,1.12045 5.98686,1.92733 1.02429,0.80271 1.65976,1.54271 1.90643,2.21581 0.25084,0.6731 0.38045,2.52518 0.38045,5.55623 l 0,9.90423 -13.93867,0 0,-12.4754 c 0,-2.01094 -0.24667,-3.25681 -0.73163,-3.7376 -0.49333,-0.47661 -1.77265,-0.71909 -3.85467,-0.71909 l 0,16.93209 -14.99222,0 0,-37.56834 z"
       id="path522"
       style="fill:none;stroke:#002253;stroke-width:0.91140646;stroke-linecap:butt;stroke-linejoin:miter;stroke-miterlimit:4;stroke-opacity:1;stroke-dasharray:none" />
    <path
       d="m 378.46828,511.17362 c -0.70545,0.023 -3.55495,0.74032 -4.25,10.5625 0,0 -0.21981,4.33449 0.0937,5.84375 0,0 0.24828,2.94062 -1.09375,3.25 0,0 -2.66668,-0.22376 -3.28125,4.96875 0,0 0.11909,3.67872 -1.21875,3.8125 0,0 -1.96904,0.73622 -2.5,2.96875 0,0 -0.26554,2.23902 -1.21875,2.40625 0,0 -1.58758,1.38803 -1.5625,4.9375 0,0 0.76466,2.00958 0.125,2.875 0,0 -1.43948,1.89834 -1.46875,3.625 0,0 0.55824,2.40059 -0.0312,2.84375 0,0 -1.09375,1.12731 -1.09375,3.53125 0,0 0.97441,3.61034 0.53125,4.25 0,0 -0.0532,0.70549 -1.5625,0.3125 0,0 -1.62027,-0.22382 -2.40625,1.28125 0,0 -0.36203,0.51583 -0.5,2 0,0 0.41411,2.03382 -0.0625,3.125 0,0 -0.0882,0.95012 -1.125,1.53125 0,0 -1.60084,0.98551 -1.96875,2.8125 0,0 -0.1691,1.78686 2.40625,2.59375 0,0 1.8674,0.30798 1.03125,1.03125 0,0 -0.39416,0.59603 -2.125,1.15625 0,0 -0.99156,0.58732 -0.40625,1.875 0,0 0.66975,1.28096 2.84375,0.75 0,0 1.87053,-0.0416 1.34375,1.1875 0,0 -0.725,1.01149 -1.34375,1.3125 0,0 -2.30237,1.91443 -2.21875,3.8125 0,0 0.15033,1.75312 1.90625,2.0625 0,0 1.52728,0.3894 1.46875,1.0625 0,0 -0.21735,0.78353 -1.25,1.34375 0,0 -1.44565,0.99662 -1.5,2 0,0 -0.2643,2.09857 4.59375,1.90625 0,0 0.8201,-0.0738 1.65625,-0.4375 0,0 1.72441,-0.42196 1.28125,0.53125 0,0 -0.52056,1.08986 -1.21875,1.625 0,0 -0.67252,0.80089 1.0625,1.15625 0,0 1.65316,0.41922 3.1875,0.28125 0,0 2.35473,-0.33814 2.1875,0.46875 0,0 -0.17094,1.08952 -1.375,2.34375 0,0 -1.29646,1.71537 0.125,2.71875 0,0 0.37448,1.02927 3,1 0,0 2.58161,0.27788 6.125,-1.96875 0.0812,0.29407 0.27877,0.56984 0.625,0.8125 0,0 0.38284,1.02927 3,1 0,0 0.21064,-0.003 0.34375,0 -0.0707,0.0655 -0.14266,0.13921 -0.15625,0.25 0,0 -2.39064,1.69928 -8.875,2.53125 0,0 -3.92719,-0.29724 -5.75,5.0625 0,0 -1.17226,3.04539 -0.75,5.03125 0,0 -0.21651,3.45891 -1.5,3.90625 0,0 -3.25081,2.46599 -1.15625,6.375 0,0 0.0146,0.38315 0.625,0.4375 0,0 0.88712,0.5842 1,1.5625 0,0 0.70754,2.56052 4.03125,2.53125 0,0 2.63631,-0.66485 4.84375,5.59375 0,0 1.24185,4.13606 1.1875,4.5625 0,0 1.05611,3.25085 4.1875,3 l 0.34375,-0.21875 c 0,0 0.57973,-0.16305 1.03125,0 0,0 2.56257,2.60055 6.25,2.4375 0,0 3.32039,0.0729 4.6875,-1.15625 0,0 0.18441,-0.11056 0.5,-0.21875 0.008,0.005 0.0229,-0.005 0.0312,0 1.1079,0.62816 2.69171,1.23987 4.53125,1.15625 0,0 3.28496,0.0416 4.65625,-1.1875 0,0 0.67994,-0.37479 1.6875,-0.4375 0,0 0.83078,0.0636 0.96875,0.34375 0,0 2.25054,0.52619 4.5625,-1.0625 0,0 1.55573,-1.84653 3.5625,-2.875 0,0 0.73399,-0.2739 1.15625,-1.21875 0,0 1.94121,-2.17567 3.3125,-2.59375 0,0 0.4361,-0.28742 1.46875,-0.3125 0,0 3.04898,-0.35641 3.96875,-2.78125 0,0 0.64446,-1.22968 2.90625,-2.3125 0,0 2.37212,-0.43103 3.84375,-2.96875 0,0 0.0468,-0.66157 1,-0.9375 0,0 3.91321,-0.0327 4.9375,-2.6875 0,0 2.233,-2.37133 -1.375,-10.875 0,0 -0.67128,-1.26233 -1.15625,-1.3125 0,0 -2.38936,-1.69373 -1.21875,-5.40625 0,0 2.46727,-0.016 2.90625,-1.4375 0,0 0.67685,-0.96634 3.21875,-1.0625 0,0 9.34686,-0.17624 12.75,-4.75 0,0 0.81113,-1.53864 3.6875,-2.4375 0,0 5.83111,-1.60252 8.34375,-4.5625 0,0 0.88484,-0.73627 0.4375,-1.71875 0,0 -0.0783,-2.03268 0.28125,-2.84375 0,0 5.09907,-2.08638 5.375,-6.125 0,0 5.5556,-4.92818 8.21875,-10.78125 0,0 3.61482,-9.04872 4.78125,-11.28125 0,0 2.85481,-2.14052 3.28125,-6.1875 0,0 1.93148,-4.35462 6.1875,-9.78125 0,0 6.05308,-5.8518 6.375,-8.40625 0,0 1.05445,-1.91014 -1.5,-1.375 0,0 -2.71896,0.0712 -8.84375,3.3125 0.43515,-0.70894 0.74764,-1.35867 0.8125,-1.875 0,0 1.05445,-1.90178 -1.5,-1.375 0,0 -5.11565,0.0907 -17.15625,8.40625 0,0 -7.24756,7.34956 -13.53125,11.1875 0,0 -1.81473,1.91866 -3.625,2.5625 0,0 -2.97598,3.10104 -10.71875,6.5 0,0 -1.48989,0.86598 -3.46875,1.71875 -0.38979,-0.62672 -0.64496,-1.50842 -0.59375,-2.71875 0,0 -0.24115,-4.42808 3.3125,-4.75 0,0 3.29932,0.40643 3.5,-1.5 0,0 0.31305,-0.58179 -0.46875,-1.65625 0,0 -1.67014,-2.41954 -1.875,-4.65625 0,0 0.20795,-2.19957 -1.53125,-3.5625 0,0 -1.07005,-1.01609 -3.15625,-1.1875 0,0 -2.69571,-0.8403 -6.375,1.375 -0.0454,-0.0392 -0.0767,-0.087 -0.125,-0.125 0,0 -1.07423,-1.01191 -3.15625,-1.1875 0,0 -5.45681,-1.70139 -11.46875,6.125 0,0 -0.28723,0.48962 -0.65625,1.09375 -1.45295,-2.24865 -3.08187,-4.64497 -3.59375,-5.03125 0,0 -2.91469,-4.20325 -3.5,-5.09375 0,0 -5.34185,-8.01212 -5.90625,-8.125 0,0 -2.48505,-2.97196 -2.59375,-3.875 -0.12124,-0.90723 -0.21875,-0.0937 -0.21875,-0.0937 0,0 -1.91647,-4.21174 -2.59375,-4.4375 0,0 -5.1087,-11.07012 -5,-16.84375 0,0 0.92413,-4.07462 -1.90625,-4.1875 0,0 -3.64315,-0.70863 -4.4375,10.5 0,0 -0.18438,4.33868 0.125,5.84375 0,0 0.0107,0.51946 -0.0312,1.125 -1.49538,-3.75928 -3.54086,-9.58517 -3.46875,-13.28125 0,0 0.89706,-4.10587 -1.9375,-4.21875 0,0 -0.0555,-0.003 -0.15625,0 z"
       id="path526"
       style="fill:#002253;fill-opacity:1;fill-rule:nonzero;stroke:none" />
    <path
       d="m 401.32362,541.27393 c 0,0 4.28528,5.44754 4.67827,6.60561 l 0,0 c 0,0 42.2926,-29.71687 72.26032,-33.19526 l 0,0 c 0,0 -0.58113,-0.0418 -1.69739,-0.0418 l 0,0 c -7.12402,0 -36.10508,1.68485 -75.2412,26.63146 m -31.08398,26.05034 c 0.0836,0.0502 0.62711,-0.008 0.62711,-0.008 l 0,0 c 0.58949,-0.13379 0.48915,-1.19152 0.48915,-1.19152 l 0,0 c -0.13796,0.0878 -1.11626,1.19988 -1.11626,1.19988 m -28.88072,66.71245 c 0,0 4.84133,29.69178 45.32366,25.47339 l 0,0 c 0,0 24.22335,-1.57197 50.47436,-15.78238 l 0,0 c 0,0 -35.1644,15.15944 -59.38357,9.84569 l 0,0 c 0,0 -29.06884,-5.16324 -26.1005,-32.81481 l 0,0 c 0,0 2.27851,-17.83514 15.91616,-35.29401 l 0,0 c 0,0 -3.04359,0.67311 -3.26935,-1.58032 l 0,0 c 0,0 -0.18814,-1.16644 1.53016,-1.49672 l 0,0 c 0,0 2.20744,-0.94903 1.14553,-1.46745 l 0,0 c 0,0 -3.29863,-0.5435 -3.3488,-2.91817 l 0,0 c 0,0 0,-1.54688 2.25762,-2.98925 l 0,0 c 0,0 1.36293,-0.69818 0.92813,-3.80449 l 0,0 c 0,0 -30.47359,33.13255 -25.4734,62.82852"
       id="path546"
       style="fill:url(#linearGradient540-4);stroke:none" />
    <path
       d="m 386.84328,520.14237 c -0.089,0.0245 -0.19753,0.1438 -0.3125,0.4375 0,0 -2.38106,13.56596 11.15625,32.3125 0,0 5.3296,6.94594 6.4375,7.53125 0,0 1.84004,1.8432 0.46875,2.625 0,0 -1.51578,1.67709 -4.25,-2.03125 0,0 -1.81165,-2.73564 -2.0625,-3.90625 0,0 -0.91819,-1.55385 -2.9375,-1.03125 0,0 -0.80108,0.89528 -4.1875,-2.03125 0,0 -7.92685,-6.82334 -10.46875,-10.40625 0,0 -1.24079,-1.44663 -1.5,-0.59375 0,0 -0.52886,1.36392 2.46875,4.03125 0,0 4.48751,4.37786 3.25,6 0,0 -0.307,1.37214 -1.9375,-0.25 0,0 -2.21875,-2.36077 -2.21875,-2.875 0,0 -1.96743,-3.259 -3.59375,-3.0625 0,0 -2.85427,1.49924 -0.96875,2.34375 0,0 4.42442,0.44383 10.15625,9.6875 0,0 4.61392,4.76731 7.28125,5.8125 0,0 1.7636,0.45034 1.4375,0.96875 0,0 0.20045,2.01973 -4.875,-0.125 0,0 -4.0319,-1.69668 -8.78125,-7.625 0,0 -3.45844,-4.43763 -5.28125,-3.78125 0,0 -1.5625,-0.30495 -1.5625,1.78125 0,0 0.0119,1.47775 2.03125,1.28125 0,0 4.92476,1.38836 9.9375,7.3125 0,0 3.27312,3.5796 8.15625,4.6875 0,0 6.23011,-0.5201 15.21875,8.53125 0,0 3.91546,4.16227 3.65625,7.9375 0,0 0.52839,1.94671 -1.09375,1.6875 0,0 -1.19134,-0.51165 -1.90625,-2 0,0 -7.48045,-9.38165 -15.75,-12.96875 0,0 -1.87947,-0.544 -2.40625,-0.46875 0,0 -8.66611,-0.65088 -13.15625,-1.625 0,0 -2.13715,-0.18277 -4.09375,-0.96875 0,0 -4.11942,-0.46986 -5.15625,1.09375 0,0 -1.69342,2.02225 0.0625,2.21875 0,0 0.93134,0.73354 8.9375,-0.5625 0,0 4.80253,-1.37129 5.90625,0 0,0 1.11822,1.20941 -1.8125,2.125 0,0 -2.07815,1.22809 -5.46875,0.3125 0,0 -7.95788,-0.63224 -10.5625,2.75 0,0 -1.28907,3.84191 9.0625,0.0625 0,0 7.03288,-2.19734 10.875,-1.75 0,0 2.02754,0.77533 0.65625,2.53125 0,0 0.10977,0.98214 -3.40625,0.71875 0,0 -9.16159,-0.13642 -14.375,3.25 0,0 -0.72719,0.59375 -1.3125,0.59375 0,0 -1.09123,0.73193 1.25,0.53125 0,0 8.77364,0.78896 19.0625,-3.96875 0,0 4.49834,-3.32729 6.84375,-2.03125 0,0 1.75166,1.10109 -0.59375,3.25 0,0 -3.16881,3.06076 -16.125,4.8125 0,0 -5.92753,-0.76952 -7.03125,1.3125 0,0 0.19453,1.507 -3.125,4.375 0,0 -1.65112,1.93792 3.625,1.8125 0,0 5.23474,-0.0785 7.90625,-2.75 0,0 6.80897,-4.875 11.5625,-4.875 0,0 2.99011,-0.39189 4.6875,-1.5625 0,0 3.13839,-0.83202 2.875,1.25 0,0 0.0835,2.0671 -4.28125,1.9375 0,0 -2.61358,0.20831 -6,2.6875 0,0 -4.88847,3.81655 -5.21875,4.46875 0,0 -3.89999,4.39146 -6.375,5.6875 0,0 -1.11306,1.0182 0.90625,0.5625 0,0 3.0741,0.19837 5.8125,-2.40625 0,0 6.165,-5.5967 12.21875,-7.8125 0,0 3.90506,-1.35091 4.875,2.625 0,0 0.47586,1.66985 -2.25,1.34375 0,0 -5.10195,-0.56287 -11.9375,6.34375 0,0 -4.35769,3.96812 -3.3125,4.15625 0,0 0.71372,-0.32171 0.96875,-0.0625 0,0 1.64944,-2.73772 4.90625,-1.4375 0,0 1.22664,0.57281 2.59375,-1.25 0,0 2.52465,-3.18916 5.71875,-0.84375 0,0 1.62666,1.57555 -0.71875,2.03125 0,0 -1.68737,0.17774 -2.34375,1.21875 0,0 -1.29519,1.04464 -0.25,0.78125 0,0 3.05274,-0.96423 4.09375,-1.6875 0,0 3.38792,-1.73333 4.5,-0.5 0,0 2.16254,1.62676 -6.5,4.8125 0,0 -1.63058,0.83057 -0.59375,1.03125 0,0 0.90275,0.70481 -0.53125,1.75 0,0 -0.84354,0.66972 -0.90625,1 0,0 -5.01951,5.71696 -14.0625,8.71875 0,0 -2.40954,1.49902 -3.90625,2.40625 0,0 0.13618,0.65296 3,-0.84375 0,0 7.82368,-4.68353 10.6875,-4.625 0,0 2.28125,0.19602 2.28125,1.375 0,0 -0.008,0.76786 -2.03125,1.03125 0,0 -6.59551,1.48474 -9.78125,4.15625 0,0 -0.70239,3.25426 -4.9375,3.84375 0,0 -1.50537,2.41567 -0.53125,2.09375 0,0 0.74387,-0.11887 2.5625,-1.9375 0,0 5.85259,-5.4103 12.5,-6.0625 0,0 1.67885,-0.28265 1.15625,0.75 0,0 0.21175,0.74548 -2.65625,1.46875 0,0 -7.76062,2.77751 -11.40625,7.59375 0,0 -2.07184,2.61579 -1.15625,2.875 0,0 1.68597,1.43608 3.375,-2.46875 0,0 1.12331,-5.52643 9.65625,-5.71875 0,0 2.4511,-0.28598 2.125,0.5 0,0 0.34102,0.45055 -1.9375,0.90625 0,0 -8.35219,3.189 -8.9375,7.6875 0,0 0.3308,3.38761 5.40625,-0.96875 0,0 4.67663,-4.29495 7.28125,-9.5 0,0 1.11106,-2.3588 2.15625,0.25 0,0 1.57624,2.32988 -10.53125,15.09375 0,0 -2.54727,4.83475 0.96875,5.03125 0,0 0.46372,-0.009 0.71875,0.3125 0,0 2.34814,0.20339 2.28125,-2.65625 0,0 1.308,-5.60195 6.96875,-12.4375 0,0 3.37995,-4.43542 2.53125,-6.90625 0,0 -0.13907,-1.95617 1.5625,-0.125 0,0 2.28533,4.2411 -3.25,9.96875 0,0 -3.64747,3.7037 -3.78125,6.3125 0,0 -0.40296,0.96436 1.09375,1.03125 0,0 3.26381,1.51173 2.875,3.59375 0,0 0.53291,1.56545 -1.8125,3.78125 0,0 -1.32337,2.97753 1.28125,2.84375 0,0 3.40791,0.66417 1.0625,-4.15625 0,0 0.89957,-4.42663 3.5,-7.03125 0,0 2.62347,1.68787 4.3125,-5.21875 0,0 1.81447,-8.32508 4.9375,-10.15625 0,0 2.72936,-1.17283 1.4375,3.125 0,0 -2.23858,8.82636 -5.625,15.21875 l 0,2.1875 c 0,0 0.48669,0.14807 1.34375,-1.75 0,0 1.02234,-1.4503 1.8125,-0.125 0,0 0.19687,2.03553 1.125,-0.46875 0,0 0.79202,-1.74876 0.6875,-3.96875 0,0 0.27866,-2.7426 2.28125,-4.9375 0,0 4.79701,-5.97547 2.59375,-13.25 0,0 -0.8994,-2.70291 -2.3125,-4.3125 0,0 -1.41876,-2.91136 0.4375,-3.25 0,0 4.61997,-0.38251 4.875,15.4375 0,0 0.40241,7.21807 -0.3125,8.65625 0,0 -0.90736,2.46943 0.65625,1.03125 0,0 2.47391,-1.34863 1.5625,-12.875 0,0 -0.53717,-4.43442 1.21875,-2.875 0,0 3.25571,6.85109 1.5625,9 0,0 -0.45549,1.2454 -0.0625,1.375 0,0 -0.0677,3.29527 0.84375,2.84375 0,0 2.29519,0.66876 1.25,-9.21875 0,0 -0.97698,-5.23598 -1.625,-5.6875 0,0 0.10624,-2.59396 1.34375,-2.53125 0,0 0.86161,-0.12645 1.125,2.15625 0,0 0.52673,1.92128 1.25,2.40625 0.0418,0.0293 0.0832,0.0458 0.125,0.0625 0.77762,0.3261 3.38442,4.67621 3.0625,7.40625 0,0 1.48716,1.70736 0.96875,-1.09375 0,0 -0.86413,-5.53343 -3.46875,-8.59375 0,0 -6.28707,-7.60974 1,-10.28125 0,0 2.15033,-0.72775 3.90625,-0.53125 0,0 4.27533,-1.22664 6.03125,-2.59375 0,0 0.1901,-2.68387 3.125,-1.90625 0,0 1.00447,0.0633 1.53125,-0.78125 0,0 -2.88784,-0.39717 -3.40625,0 0,0 -2.15646,0.72412 -2.09375,-0.25 0,0 -0.19739,-0.78104 1.5,-0.84375 0,0 2.16601,-0.32555 1.125,-0.78125 0,0 -2.09464,-1.37402 -0.59375,-2.28125 0,0 -0.20673,-0.46875 2.40625,-0.46875 0,0 2.19978,0.12192 3.5,-1.4375 0,0 3.48048,-3.17863 5.5625,-2.71875 0,0 1.5651,2.73443 4.5,-0.0625 0,0 3.63016,-3.26284 2.71875,-3.78125 0,0 -10.8216,3.72357 -16.15625,3.53125 0,0 -6.09832,0.55952 -12.15625,4.53125 0,0 -7.23222,2.73554 -7.5625,-1.625 0,0 -0.73051,-2.02162 3.375,-2.40625 0,0 5.33791,-0.0613 7.6875,-1.03125 0,0 6.63717,-2.53914 13.53125,-3.90625 0,0 12.26622,-2.21817 19.8125,-9.1875 0,0 0.43882,-1.1169 -1.1875,0.1875 0,0 -5.11542,4.19079 -12.28125,5.6875 0,0 -2.1603,0.38784 -2.8125,0.90625 0,0 -1.87192,0.18337 -0.3125,-1.0625 0,0 0.50426,-0.5625 1.09375,-0.5625 0,0 4.30308,-1.74966 4.625,-2.46875 0,0 1.17279,-1.96402 3.0625,-2.75 0,0 1.366,-0.59299 1.5625,-1.4375 0,0 1.75342,-1.23716 2.59375,-0.71875 0,0 0.83692,0.84362 -0.84375,1.5 0,0 -2.29046,0.9818 -2.03125,1.4375 0,0 3.85066,-1.36392 6.125,-4.03125 0,0 -1.99795,-1.70823 1.71875,-3.59375 0,0 2.13715,-1.56941 4.09375,-3.84375 0,0 1.56963,-2.54319 3.78125,-4.5625 0,0 1.28585,-0.89231 1.15625,-1.9375 0,0 -1.04814,0.0522 -2.21875,1.875 0,0 -2.14517,2.34661 -4.8125,3.96875 0,0 -1.03488,1.06208 -1.8125,1.1875 0,0 -10.42271,6.65012 -11.71875,8.46875 0,0 -1.95021,2.28138 -3.125,1.625 0,0 -1.04366,-0.77796 -1.6875,0.71875 0,0 -3.72345,3.70186 -9.125,2.53125 0,0 -2.09562,-0.20844 0.3125,-2.03125 0,0 4.63234,-1.17216 6.78125,-3.25 0,0 0.32423,-1.76702 2.40625,-2.28125 0,0 1.62466,0.21504 2.34375,-1.15625 0,0 0.84614,-1.43771 3.84375,-1.375 0,0 2.34627,-0.0516 4.6875,-2.65625 0,0 1.02191,-2.55329 1.9375,-2.8125 0,0 0.98661,0.25537 1.25,-0.71875 0,0 0.79827,-1.17842 1.3125,-0.78125 0,0 0.12995,1.16469 -0.71875,1.75 0,0 -0.39452,1.36809 1.6875,-0.90625 0,0 0.45899,-0.65109 1.5,-1.5625 0,0 1.03214,-0.96875 -0.46875,-0.96875 0,0 -2.71854,0.52315 -2.78125,-0.78125 0,0 0.33344,-1.29353 2.15625,-2.59375 0,0 0.45912,-0.19991 0.84375,-0.84375 0,0 4.09185,-4.58186 12.6875,-9.34375 0,0 4.56271,-2.00789 4.5,-3.375 0,0 -0.39901,-1.6976 -3.78125,0.0625 0,0 -5.74045,4.25887 -6.71875,4.71875 0,0 -0.78125,0.36537 -0.78125,0.75 0,0 -3.367,3.31928 -7.59375,6.25 0,0 -2.16448,2.16128 -2.8125,1.90625 0,0 -1.84277,1.10603 -2.75,2.40625 0,0 -2.80316,0.31161 -3.71875,1.8125 0,0 -2.26502,3.12905 -5.84375,3.78125 0,0 -4.48871,1.43111 -7.21875,4.5625 0,0 -2.03093,3.00857 -7.6875,2.9375 0,0 -2.4931,0.46099 -5.15625,-1.5625 0,0 -1.75726,-1.16754 -3.3125,1.5625 0,0 -1.30219,4.16567 -3.125,3.84375 0,0 -2.34375,-0.78254 -2.34375,-5.34375 0,0 1.74899,-9.63618 8.84375,-12.5 0,0 0.78948,-0.19573 1.4375,-0.84375 0,0 -2.07315,-1.76262 0.46875,-2.34375 0,0 1.42795,-0.19705 2.40625,0.78125 0,0 1.55427,0.57729 0.90625,-0.71875 0,0 -1.75482,-1.57563 -1.5625,-2.625 0,0 -0.0584,-0.3079 0.59375,-0.4375 0,0 0.90241,-0.0161 0.1875,-2.03125 0,0 -0.43812,-1.58589 -3.34375,-2.0625 0,0 -3.15674,-1.24533 -6.71875,2.3125 0,0 -2.18758,2.39869 -2.78125,3.40625 0,0 -4.98858,7.25443 -8.375,9.03125 0,0 -1.30502,1.34372 -2.90625,-0.5 0,0 -1.71488,-0.5788 -7.1875,-8.71875 0,0 -12.30219,-19.54209 -14.125,-23.125 0,0 -0.46304,-1.11448 -2.15625,-3 0,0 -0.53125,0.39047 -0.53125,-2.34375 0,0 0.33223,-3.64978 -1.8125,-6.1875 0,0 -1.3125,-1.41777 -1.3125,-3.5625 0,0 -0.13933,-0.85474 -0.40625,-0.78125 z m -2.75,12.5 c -2.26103,0.3493 -3,8 -3,8 2.42066,0.29265 4.9375,6.5 4.9375,6.5 1.74338,3.68325 7.53125,5.3125 7.53125,5.3125 -10.36411,-12.88511 -8.40625,-19.46875 -8.40625,-19.46875 -0.38724,-0.29109 -0.7395,-0.39365 -1.0625,-0.34375 z m -7.34375,27.3125 c -1.17646,-0.0519 -2.27494,0.35348 -3.21875,1.40625 0,0 -3.28839,6.21693 5.625,7.375 0,0 5.51084,0.77103 9.09375,0.0937 0,0 -6.40201,-8.65024 -11.5,-8.875 z"
       id="path562"
       style="fill:#ffffff;fill-opacity:1;fill-rule:nonzero;stroke:none" />
    <path
       d="m 433.1685,555.94511 c 0,0 -0.33028,2.27433 0.90722,1.42146 0,0 0.43062,-0.31356 0.82779,-0.25503 0,0 0.33446,-0.94903 -0.15468,-1.36711 0,0 -1.19152,-0.32192 -1.58033,0.20068"
       id="path566"
       style="fill:#002253;fill-opacity:1;fill-rule:nonzero;stroke:none" />
  </g>
</svg>
