<?xml version="1.0" encoding="UTF-8" standalone="no"?>
<svg
   xmlns:dc="http://purl.org/dc/elements/1.1/"
   xmlns:cc="http://creativecommons.org/ns#"
   xmlns:rdf="http://www.w3.org/1999/02/22-rdf-syntax-ns#"
   xmlns:svg="http://www.w3.org/2000/svg"
   xmlns="http://www.w3.org/2000/svg"
   xmlns:sodipodi="http://sodipodi.sourceforge.net/DTD/sodipodi-0.dtd"
   xmlns:inkscape="http://www.inkscape.org/namespaces/inkscape"
   width="553.64905"
   height="700"
   viewBox="0 0 146.48631 185.20835"
   version="1.1"
   id="svg8"
   inkscape:version="1.0.1 (c497b03c, 2020-09-10)"
   sodipodi:docname="Logo RC Aubenas Vals - xxxx.svg">
  <defs
     id="defs2" />
  <sodipodi:namedview
     id="base"
     pagecolor="#ffffff"
     bordercolor="#666666"
     borderopacity="1.0"
     inkscape:pageopacity="0.0"
     inkscape:pageshadow="2"
     inkscape:zoom="0.5975"
     inkscape:cx="639.684"
     inkscape:cy="457.87252"
     inkscape:document-units="px"
     inkscape:current-layer="layer1"
     inkscape:document-rotation="0"
     showgrid="false"
     units="px"
     inkscape:window-width="1920"
     inkscape:window-height="907"
     inkscape:window-x="0"
     inkscape:window-y="25"
     inkscape:window-maximized="0" />
  <metadata
     id="metadata5">
    <rdf:RDF>
      <cc:Work
         rdf:about="">
        <dc:format>image/svg+xml</dc:format>
        <dc:type
           rdf:resource="http://purl.org/dc/dcmitype/StillImage" />
        <dc:title />
      </cc:Work>
    </rdf:RDF>
  </metadata>
  <g
     inkscape:label="Calque 1"
     inkscape:groupmode="layer"
     id="layer1"
     transform="translate(536.98215,641.24044)">
    <g
       id="g1441"
       transform="matrix(1.0009504,0,0,1.0009504,-158.39052,0.60942765)"
       style="fill:#e62c1f;fill-opacity:1">
      <path
         d="m -370.94741,-509.69803 0.20081,0.58604 q 0.31479,0.91864 0.84108,1.27135 0.52629,0.35271 1.19762,0.0934 0.67133,-0.2593 0.86112,-0.88859 0.18979,-0.62929 -0.12499,-1.54793 l -0.20082,-0.58604 z m -3.88179,9.22932 -1.32428,-3.86465 3.31143,-4.63287 -4.32635,1.67103 -1.06376,-3.10439 11.24849,-4.34467 1.65535,4.8308 q 0.34192,0.99784 0.31356,1.85175 -0.0135,0.84813 -0.32802,1.50768 -0.30914,0.67539 -0.8543,1.15498 -0.53974,0.49543 -1.25582,0.77202 -1.28298,0.49555 -2.31653,0.14148 -1.0132,-0.34399 -1.73626,-1.51745 z"
         style="font-style:normal;font-variant:normal;font-weight:bold;font-stretch:normal;font-size:15.875px;line-height:1.25;font-family:Futura;-inkscape-font-specification:'Futura Bold';letter-spacing:5.82083px;word-spacing:1.32292px;white-space:pre;fill:#e62c1f;fill-opacity:1;stroke-width:1.03038"
         id="path1366" />
      <path
         d="m -359.55744,-498.23683 -5.4232,3.59899 q -0.4365,0.28968 -0.8819,0.62337 -0.42339,0.33813 -0.68842,0.74264 -0.25625,0.41774 -0.25734,0.93289 0.0122,0.50636 0.44227,1.1545 0.43012,0.64814 0.88322,0.84282 0.4751,0.19913 0.95958,0.1253 0.48447,-0.0738 0.95176,-0.34583 0.48929,-0.26755 0.92579,-0.55722 l 5.42319,-3.599 1.71172,2.57932 -5.78033,3.83601 q -2.32801,1.54493 -4.11044,1.18454 -1.77365,-0.34716 -3.23959,-2.55612 -1.46593,-2.20896 -1.10554,-3.99139 0.36039,-1.78244 2.6884,-3.32737 l 5.78033,-3.836 z"
         style="font-style:normal;font-variant:normal;font-weight:bold;font-stretch:normal;font-size:15.875px;line-height:1.25;font-family:Futura;-inkscape-font-specification:'Futura Bold';letter-spacing:5.82083px;word-spacing:1.32292px;white-space:pre;fill:#e62c1f;fill-opacity:1"
         id="path1368" />
      <path
         d="m -350.67219,-480.2042 4.6052,4.11429 q -0.6346,0.71032 -1.21204,1.23752 -0.57745,0.52721 -1.19924,0.86578 -0.87263,0.47637 -1.78534,0.64018 -0.90214,0.15198 -1.8101,7.3e-4 -0.88555,-0.15252 -1.74141,-0.57655 -0.85586,-0.42402 -1.61353,-1.10092 -1.04179,-0.93074 -1.59929,-2.04615 -0.54565,-1.10483 -0.61128,-2.27042 -0.055,-1.17743 0.37373,-2.34836 0.43935,-1.18278 1.38066,-2.23641 0.93074,-1.04179 2.03431,-1.60986 1.12599,-0.56934 2.29158,-0.63496 1.17742,-0.055 2.3602,0.3843 1.18277,0.43935 2.26008,1.40182 1.39695,1.24804 1.91118,2.79312 0.51422,1.54508 -0.002,3.36179 l -3.01637,-1.05567 q 0.34794,-1.00899 0.13629,-1.77284 -0.19981,-0.75329 -0.82726,-1.31384 -0.52089,-0.46537 -1.12688,-0.64487 -0.59542,-0.19134 -1.23109,-0.0993 -0.61327,0.0907 -1.24564,0.44115 -0.62053,0.36099 -1.18109,0.98843 -0.50768,0.56825 -0.79925,1.18055 -0.27974,0.62288 -0.30107,1.24245 -0.0213,0.61957 0.23689,1.21216 0.2688,0.58075 0.84889,1.099 0.34332,0.30672 0.72642,0.52126 0.39367,0.2027 0.79036,0.25907 0.41909,0.0551 0.82809,-0.0691 0.40901,-0.12422 0.81723,-0.46201 l -1.90601,-1.70283 z"
         style="font-style:normal;font-variant:normal;font-weight:bold;font-stretch:normal;font-size:15.875px;line-height:1.25;font-family:Futura;-inkscape-font-specification:'Futura Bold';letter-spacing:5.82083px;word-spacing:1.32292px;white-space:pre;fill:#e62c1f;fill-opacity:1"
         id="path1370" />
      <path
         d="m -340.18109,-467.39346 0.60104,0.32361 q 1.03435,0.55692 1.62463,0.53218 0.59027,-0.0247 0.90636,-0.61181 0.31609,-0.58707 0.0118,-1.09347 -0.30429,-0.50641 -1.33864,-1.06333 l -0.60104,-0.32361 z m 2.30294,-4.27718 0.50319,0.27094 q 1.28595,0.69238 1.83534,-0.32799 0.5494,-1.02037 -0.73655,-1.71276 l -0.5032,-0.27093 z m -0.51195,-5.61248 4.08148,2.19758 q 1.45368,0.78269 1.83218,1.88798 0.3785,1.10529 -0.32894,2.41919 -0.42898,0.79673 -1.0085,1.16983 -0.55801,0.36666 -1.34075,0.41399 0.52686,0.42791 0.80427,0.88378 0.29892,0.44943 0.36989,0.92036 0.085,0.47845 -0.029,0.95799 -0.11396,0.47954 -0.36984,0.95478 -0.39887,0.74082 -0.97301,1.17091 -0.56017,0.43762 -1.24613,0.57311 -0.67199,0.14302 -1.44829,-0.0225 -0.77629,-0.16556 -1.61495,-0.61712 l -4.40297,-2.37067 z"
         style="font-style:normal;font-variant:normal;font-weight:bold;font-stretch:normal;font-size:15.875px;line-height:1.25;font-family:Futura;-inkscape-font-specification:'Futura Bold';letter-spacing:5.82083px;word-spacing:1.32292px;white-space:pre;fill:#e62c1f;fill-opacity:1"
         id="path1372" />
      <path
         d="m -324.68982,-464.62728 -2.50543,-7.17685 3.57428,1.01188 1.24766,3.75198 3.01398,-2.54552 3.57428,1.01188 -5.91093,4.79419 -1.56538,5.52944 -2.99384,-0.84756 z"
         style="font-style:normal;font-variant:normal;font-weight:bold;font-stretch:normal;font-size:15.875px;line-height:1.25;font-family:Futura;-inkscape-font-specification:'Futura Bold';letter-spacing:5.82083px;word-spacing:1.32292px;white-space:pre;fill:#e62c1f;fill-opacity:1"
         id="path1374" />
      <path
         d="m -301.19266,-468.42692 0.92405,9.28865 3.7123,-0.3693 0.26087,2.6223 -6.80852,0.67732 -1.18492,-11.91095 z"
         style="font-style:normal;font-variant:normal;font-weight:bold;font-stretch:normal;font-size:15.875px;line-height:1.25;font-family:Futura;-inkscape-font-specification:'Futura Bold';letter-spacing:5.82083px;word-spacing:1.32292px;white-space:pre;fill:#e62c1f;fill-opacity:1"
         id="path1376" />
      <path
         d="m -282.95446,-464.16272 -2.56168,-3.35659 -0.0951,4.22135 z m 1.51707,1.99372 -4.22674,1.37577 -0.0356,2.19861 -3.15496,1.02691 0.62767,-12.79215 3.23043,-1.05148 8.03714,9.97184 -3.15495,1.02691 z"
         style="font-style:normal;font-variant:normal;font-weight:bold;font-stretch:normal;font-size:15.875px;line-height:1.25;font-family:Futura;-inkscape-font-specification:'Futura Bold';letter-spacing:5.82083px;word-spacing:1.32292px;white-space:pre;fill:#e62c1f;fill-opacity:1"
         id="path1378" />
      <path
         d="m -270.12486,-464.33416 -6.43916,-10.09019 2.62291,-1.67385 8.78131,3.07773 -3.93694,-6.16921 2.60953,-1.6653 6.43917,10.0902 -2.60954,1.6653 -8.78131,-3.07772 3.93695,6.1692 z"
         style="font-style:normal;font-variant:normal;font-weight:bold;font-stretch:normal;font-size:15.875px;line-height:1.25;font-family:Futura;-inkscape-font-specification:'Futura Bold';letter-spacing:5.82083px;word-spacing:1.32292px;white-space:pre;fill:#e62c1f;fill-opacity:1"
         id="path1380" />
      <path
         d="m -252.93228,-480.20914 0.48675,-0.52288 q 0.55164,-0.59261 0.79839,-1.23046 0.24675,-0.63785 0.21345,-1.25445 -0.0225,-0.62821 -0.3126,-1.20192 -0.29092,-0.59614 -0.82542,-1.09371 -0.52289,-0.48674 -1.1383,-0.7343 -0.61542,-0.24755 -1.24363,-0.22506 -0.6174,0.0109 -1.23598,0.30258 -0.61858,0.29172 -1.15941,0.87271 l -0.48675,0.52288 z m -8.95242,-4.08271 3.13682,-3.3697 q 0.83288,-0.89472 1.9178,-1.33792 1.09574,-0.45482 2.24079,-0.47334 1.14425,-0.041 2.25969,0.36842 1.10382,0.39856 1.97529,1.2098 0.85986,0.80043 1.34793,1.88375 0.48727,1.06088 0.53985,2.21595 0.0634,1.14344 -0.31193,2.2689 -0.3645,1.11383 -1.2082,2.02016 l -3.13681,3.3697 z"
         style="font-style:normal;font-variant:normal;font-weight:bold;font-stretch:normal;font-size:15.875px;line-height:1.25;font-family:Futura;-inkscape-font-specification:'Futura Bold';letter-spacing:5.82083px;word-spacing:1.32292px;white-space:pre;fill:#e62c1f;fill-opacity:1"
         id="path1382" />
      <path
         d="m -245.63251,-501.42058 -1.87942,3.18582 1.72281,1.01634 1.77456,-3.00807 2.26972,1.33899 -1.77456,3.00807 1.7775,1.0486 1.87942,-3.18582 2.26972,1.33899 -3.46039,5.86574 -10.30948,-6.08191 3.4604,-5.86574 z"
         style="font-style:normal;font-variant:normal;font-weight:bold;font-stretch:normal;font-size:15.875px;line-height:1.25;font-family:Futura;-inkscape-font-specification:'Futura Bold';letter-spacing:5.82083px;word-spacing:1.32292px;white-space:pre;fill:#e62c1f;fill-opacity:1"
         id="path1384" />
      <path
         d="m -240.03106,-514.28365 q -0.5552,0.34668 -0.90016,0.76544 -0.35997,0.41361 -0.51443,0.86412 -0.19565,0.57064 -0.0489,1.02372 0.14674,0.45308 0.58223,0.60239 0.30034,0.10297 0.55734,-0.0103 0.257,-0.11327 0.505,-0.34711 0.23812,-0.254 0.46681,-0.57836 0.23383,-0.33939 0.47753,-0.6586 0.97481,-1.27687 2.01226,-1.65959 1.02758,-0.40289 2.31904,0.0399 0.87098,0.29862 1.4738,0.84094 0.60797,0.52731 0.9229,1.27301 0.30506,0.72552 0.29219,1.64413 0.007,0.90874 -0.34796,1.9449 -0.73625,2.14742 -2.64081,3.54185 l -1.94019,-2.0749 q 0.8122,-0.45995 1.31891,-1.00785 0.50671,-0.5479 0.72295,-1.17861 0.24713,-0.72081 0.0352,-1.17947 -0.20681,-0.47368 -0.62728,-0.61784 -0.25529,-0.0875 -0.46638,-0.0592 -0.22611,0.0232 -0.44836,0.18192 -0.23727,0.15361 -0.49084,0.45266 -0.24842,0.28403 -0.57836,0.70794 -0.37585,0.50886 -0.77659,0.9924 -0.4106,0.46338 -0.92032,0.77531 -0.50456,0.2969 -1.13785,0.38186 -0.64315,0.0648 -1.48409,-0.22353 -0.84095,-0.28832 -1.42404,-0.79032 -0.59295,-0.52215 -0.90359,-1.18247 -0.3205,-0.68047 -0.34368,-1.49396 -0.018,-0.8285 0.2909,-1.72952 0.28832,-0.84095 0.84265,-1.6746 0.53932,-0.8388 1.27815,-1.52529 z"
         style="font-style:normal;font-variant:normal;font-weight:bold;font-stretch:normal;font-size:15.875px;line-height:1.25;font-family:Futura;-inkscape-font-specification:'Futura Bold';letter-spacing:5.82083px;word-spacing:1.32292px;white-space:pre;fill:#e62c1f;fill-opacity:1"
         id="path1386" />
    </g>
    <g
       id="g1417"
       style="fill:#e62c1f;fill-opacity:1"
       transform="matrix(1.0009504,0,0,1.0009504,0.51034176,0.60942765)">
      <path
         d="m -512.19016,-640.96916 v 6.8768 c 0.0448,1.92587 0.48158,3.22339 2.7119,3.23739 2.23196,0.10123 2.72377,-1.29375 2.74037,-3.23739 v -6.8768 h 2.92598 v 7.32969 c 0,1.96799 -0.46645,3.00786 -1.39937,3.91358 -0.92144,0.90573 -2.34383,1.35859 -4.2672,1.35859 -1.92342,0 -3.35159,-0.45286 -4.28451,-1.35859 -0.93291,-0.90572 -1.39937,-1.94559 -1.39937,-3.91358 v -7.32969 z"
         style="font-style:normal;font-variant:normal;font-weight:bold;font-stretch:normal;font-size:2.66802px;line-height:1.25;font-family:Futura;-inkscape-font-specification:'Futura Bold';white-space:pre;fill:#e62c1f;fill-opacity:1;stroke:none;stroke-width:0.0529167;stroke-miterlimit:4;stroke-dasharray:none"
         id="path1226"
         sodipodi:nodetypes="ccccccscssscc" />
      <path
         d="m -489.17601,-637.72899 c -0.82093,-0.74974 -4.51652,-1.93514 -4.8238,-0.0291 -0.22676,1.40662 4.32801,1.48489 5.76902,3.09348 0.54691,0.57909 1.04178,1.33845 1.04178,2.27808 -0.0358,2.99633 -2.83492,4.1309 -5.32321,4.14271 -1.73781,0 -3.12662,-0.74356 -4.60925,-1.67225 l 1.3098,-2.07286 c 0.93184,0.72614 2.02339,1.06882 3.13541,1.07745 2.57634,0.30199 3.36106,-1.44655 0.58306,-2.36063 -2.15654,-0.65152 -5.09082,-1.28159 -5.10779,-3.90099 -0.019,-3.16538 2.90674,-4.08906 5.18089,-4.06428 1.65944,-0.0526 3.11135,0.58015 4.30253,1.40572 z"
         style="font-style:normal;font-variant:normal;font-weight:bold;font-stretch:normal;font-size:2.66802px;line-height:1.25;font-family:Futura;-inkscape-font-specification:'Futura Bold';white-space:pre;fill:#e62c1f;fill-opacity:1;stroke:none;stroke-width:0.0529167;stroke-miterlimit:4;stroke-dasharray:none"
         id="path1230"
         sodipodi:nodetypes="csccccccccccc" />
      <ellipse
         style="fill:#e62c1f;fill-opacity:1;stroke:none;stroke-width:0.0283529;stroke-linecap:round;stroke-linejoin:round;stroke-miterlimit:4;stroke-dasharray:none"
         id="path1239"
         cx="-500.37234"
         cy="-630.14874"
         rx="1.8520836"
         ry="1.8520834" />
      <ellipse
         style="fill:#e62c1f;fill-opacity:1;stroke:none;stroke-width:0.0283529;stroke-linecap:round;stroke-linejoin:round;stroke-miterlimit:4;stroke-dasharray:none"
         id="ellipse1241"
         cx="-484.04749"
         cy="-630.14874"
         rx="1.8520836"
         ry="1.8520834" />
    </g>
    <g
       id="g1265"
       style="fill:#e62c1f;fill-opacity:1"
       transform="matrix(1.0009504,0,0,1.0009504,0.51034176,0.60942765)">
      <path
         d="m -506.7692,-592.17887 c 7.23457,0.24895 14.80798,1.0093 14.96439,-10.74683 0.16685,-11.1426 -7.8445,-10.69383 -14.96439,-10.69383 z m -8.2622,-28.05755 h 14.06463 c 9.54563,0.0446 18.02231,5.81834 17.993,17.31072 -0.0613,11.60456 -7.80978,17.68404 -17.993,17.64622 h -14.06463 z"
         style="font-style:normal;font-variant:normal;font-weight:bold;font-stretch:normal;font-size:9.26042px;line-height:1.25;font-family:Futura;-inkscape-font-specification:'Futura Bold';white-space:pre;fill:#e62c1f;fill-opacity:1;stroke:none;stroke-width:0.0815758;stroke-miterlimit:4;stroke-dasharray:none"
         id="path1243"
         sodipodi:nodetypes="cccccccccc" />
      <path
         d="m -458.3525,-597.9424 -4.67895,-12.05477 -4.67896,12.05477 z m 2.55797,6.84189 h -14.47395 l -2.12204,5.82103 h -9.2206 l 14.59224,-34.95763 h 7.97482 l 14.59227,34.95763 h -9.2207 z"
         style="font-style:normal;font-variant:normal;font-weight:bold;font-stretch:normal;font-size:9.26042px;line-height:1.25;font-family:Futura;-inkscape-font-specification:'Futura Bold';white-space:pre;fill:#e62c1f;fill-opacity:1;stroke:none;stroke-width:0.0804405;stroke-miterlimit:4;stroke-dasharray:none"
         id="path1245"
         sodipodi:nodetypes="ccccccccccccc" />
      <path
         id="path1253"
         style="fill:#e62c1f;fill-opacity:1;stroke:none;stroke-width:0.999999px;stroke-linecap:butt;stroke-linejoin:miter;stroke-opacity:1"
         d="m 346.35352,79 43.89062,63.98242 -47.38867,68.85352 35.79297,6e-5 29.41406,-42.87897 29.41602,42.87891 h 35.79296 L 425.88281,142.98242 469.77344,79 H 434.28125 L 408.0625,117.09375 381.8457,79 Z"
         transform="matrix(0.26458334,0,0,0.26458334,-537.01337,-641.32776)"
         sodipodi:nodetypes="ccccccccccccc" />
    </g>
    <rect
       style="fill:#e62c1f;fill-opacity:1;stroke:none;stroke-width:0.0794504;stroke-linecap:round;stroke-linejoin:round;stroke-miterlimit:4;stroke-dasharray:none"
       id="rect1258"
       width="61.166866"
       height="5.2449851"
       x="-473.26096"
       y="-635.19641" />
    <path
       id="rect1260"
       style="fill:#e62c1f;fill-opacity:1;stroke:none;stroke-width:0.422733;stroke-linecap:round;stroke-linejoin:round;stroke-miterlimit:4;stroke-dasharray:none"
       d="M 51.955078 243.05273 L 51.955078 263.27148 L 82.365234 263.27148 L 82.365234 402.7207 C 82.365234 491.48865 127.41479 539.96458 163.99219 567.10938 C 210.08598 601.31639 259.37637 603.7296 276.55859 603.71289 C 293.74082 603.72959 343.03121 601.31639 389.125 567.10938 C 425.7024 539.96458 470.75391 491.48865 470.75391 402.7207 L 470.75391 263.27148 L 501.16406 263.27148 L 501.16406 243.05273 L 51.955078 243.05273 z M 101.48242 263.27148 L 451.63672 263.27148 L 451.63672 299.19727 C 402.20065 301.45833 372.9908 345.26802 373.29883 377.13477 L 373.29883 446.24414 C 367.87868 443.0104 362.60894 439.36883 356.31641 436.49805 L 356.31641 377.13477 C 356.62731 344.97235 326.85371 299.22852 276.55859 299.22852 C 226.26348 299.22852 196.48988 344.97235 196.80078 377.13477 L 196.80078 563.3457 C 191.28369 560.4318 185.61657 557.09994 179.81836 553.31641 L 179.81836 377.13477 C 180.12639 345.26802 150.91849 301.45833 101.48242 299.19727 L 101.48242 263.27148 z M 276.55859 318.38477 C 307.50979 318.38477 336.5928 345.51947 336.29688 378.33594 L 336.29688 381.04883 L 323.22266 381.04883 L 323.22266 401.54297 L 336.29688 401.54297 L 336.29688 431.58789 C 335.14821 431.52428 333.97629 431.48145 332.75781 431.48047 C 300.15527 431.24236 290.18178 454.24012 269.13477 453.95703 C 244.91966 453.63109 239.05644 436.26061 216.82031 432.29102 L 216.82031 401.54297 L 229.89453 401.54297 L 229.89453 381.04883 L 216.82031 381.04883 L 216.82031 378.33594 C 216.52438 345.51947 245.6074 318.38477 276.55859 318.38477 z M 101.48242 318.50977 C 131.83962 321.09466 160.09004 346.02453 159.79883 378.33594 L 159.79883 381.04688 L 148.06445 381.04688 L 148.06445 401.54102 L 159.79883 401.54102 L 159.79883 538.49023 C 127.05289 510.15897 101.48242 462.31594 101.48242 400.71875 L 101.48242 318.50977 z M 451.63672 318.50977 L 451.63672 400.71875 C 451.63672 411.73924 450.80519 422.31098 449.27344 432.41797 C 428.09116 436.14674 414.58471 453.34597 400.21289 453.95703 C 397.75853 454.06138 395.47621 453.96665 393.31836 453.72266 L 393.31836 401.54102 L 405.05469 401.54102 L 405.05469 381.04688 L 393.31836 381.04688 L 393.31836 378.33594 C 393.02715 346.02453 421.27952 321.09466 451.63672 318.50977 z M 332.75781 451.08008 C 360.7646 450.89715 357.33907 474.31871 400.21289 473.55664 C 421.07058 473.1859 431.14786 459.41898 444.87109 453.62109 C 442.15719 463.79192 438.70136 473.3834 434.63086 482.34961 C 421.26668 488.82785 410.97707 498.59896 400.21289 499.05664 C 372.18611 500.24825 365.57632 476.60653 332.75781 476.58008 C 300.15527 476.34197 290.18178 499.33973 269.13477 499.05664 C 244.91966 498.7307 239.05644 481.36021 216.82031 477.39062 L 216.82031 452.88086 C 231.00672 458.12485 242.47264 473.09265 269.13477 473.55664 C 303.36356 474.15229 303.08414 450.6327 332.75781 451.08008 z M 332.75781 496.18164 C 360.7646 495.99871 357.33907 519.41832 400.21289 518.65625 C 405.5903 518.56067 410.24089 517.563 414.42969 516.05078 C 407.91195 524.50085 400.80628 532.01181 393.31836 538.49023 L 384.46875 545.04492 C 368.08419 539.31696 358.4155 524.90155 332.75781 524.88086 C 300.15527 524.64275 290.18178 547.63856 269.13477 547.35547 C 244.91966 547.02952 239.05644 529.66064 216.82031 525.69141 L 216.82031 497.98242 C 231.00672 503.22595 242.47264 518.19226 269.13477 518.65625 C 303.36356 519.2519 303.08414 495.73426 332.75781 496.18164 z M 332.75781 544.48047 C 348.91995 544.3749 354.80377 552.04925 365.0293 558.45508 C 338.55316 573.94173 306.81143 583.55953 276.55859 583.69336 C 261.95382 583.70136 241.37144 581.99425 216.82031 572.49414 L 216.82031 546.28125 C 231.00672 551.52477 242.47264 566.49109 269.13477 566.95508 C 303.36356 567.55073 303.08414 544.03309 332.75781 544.48047 z "
       transform="matrix(0.26458334,0,0,0.26458334,-536.98215,-641.24044)" />
  </g>
</svg>
