<?xml version="1.0" encoding="UTF-8" standalone="no"?>
<!-- Created with Inkscape (http://www.inkscape.org/) -->

<svg
   xmlns:dc="http://purl.org/dc/elements/1.1/"
   xmlns:cc="http://creativecommons.org/ns#"
   xmlns:rdf="http://www.w3.org/1999/02/22-rdf-syntax-ns#"
   xmlns:svg="http://www.w3.org/2000/svg"
   xmlns="http://www.w3.org/2000/svg"
   xmlns:xlink="http://www.w3.org/1999/xlink"
   xmlns:sodipodi="http://sodipodi.sourceforge.net/DTD/sodipodi-0.dtd"
   xmlns:inkscape="http://www.inkscape.org/namespaces/inkscape"
   id="svg2"
   version="1.1"
   inkscape:version="0.91 r13725"
   xml:space="preserve"
   width="677.21002"
   height="800"
   viewBox="0 0 677.21002 799.99996"
   sodipodi:docname="infrastructure_france.svg"><metadata
     id="metadata8"><rdf:RDF><cc:Work
         rdf:about=""><dc:format>image/svg+xml</dc:format><dc:type
           rdf:resource="http://purl.org/dc/dcmitype/StillImage" /><dc:title></dc:title></cc:Work></rdf:RDF></metadata><defs
     id="defs6"><linearGradient
       inkscape:collect="always"
       id="linearGradient6214"><stop
         style="stop-color:#09519a;stop-opacity:1"
         offset="0"
         id="stop6216" /><stop
         style="stop-color:#09519a;stop-opacity:1"
         offset="1"
         id="stop6218" /></linearGradient><linearGradient
       inkscape:collect="always"
       id="linearGradient6204"><stop
         style="stop-color:#13519a;stop-opacity:1"
         offset="0"
         id="stop6206" /><stop
         id="stop6212"
         offset="0.49084449"
         style="stop-color:#03417d;stop-opacity:1" /><stop
         style="stop-color:#0b1e43;stop-opacity:1"
         offset="1"
         id="stop6208" /></linearGradient><linearGradient
       inkscape:collect="always"
       xlink:href="#linearGradient6204"
       id="linearGradient6210"
       x1="152.48538"
       y1="467.5101"
       x2="609.94153"
       y2="460.80743"
       gradientUnits="userSpaceOnUse" /><linearGradient
       inkscape:collect="always"
       xlink:href="#linearGradient6214"
       id="linearGradient6220"
       x1="118.97211"
       y1="464.15878"
       x2="641.77917"
       y2="460.80743"
       gradientUnits="userSpaceOnUse" /></defs><sodipodi:namedview
     pagecolor="#ffffff"
     bordercolor="#666666"
     borderopacity="1"
     objecttolerance="10"
     gridtolerance="10"
     guidetolerance="10"
     inkscape:pageopacity="0"
     inkscape:pageshadow="2"
     inkscape:window-width="1280"
     inkscape:window-height="691"
     id="namedview4"
     showgrid="false"
     inkscape:zoom="0.2387114"
     inkscape:cx="977.73619"
     inkscape:cy="481.18625"
     inkscape:window-x="0"
     inkscape:window-y="1"
     inkscape:window-maximized="1"
     inkscape:current-layer="g10"
     showguides="true" /><g
     id="g10"
     inkscape:groupmode="layer"
     inkscape:label="infrastructure_france"
     transform="matrix(1.25,0,0,-1.25,0,799.99995)"><g
       id="g6230"
       transform="matrix(1.0436546,0,0,1.0436546,-125.66046,-130.8329)"><g
         id="g6222"><path
           inkscape:connector-curvature="0"
           style="fill:url(#linearGradient6220);fill-opacity:1;fill-rule:evenodd;stroke:none;stroke-width:0.80000001px;stroke-linecap:butt;stroke-linejoin:miter;stroke-opacity:1"
           d="M 379.95625,738.59 C 293.66802,705.19122 249.34572,692.39609 129.82344,687.90094 124.98306,611.92814 118.87953,545.09025 120.75,467.95562 c 2.99797,-114.76501 41.52451,-165.71915 85.76406,-221.35312 26.64893,-33.51267 61.99308,-62.20609 94.15781,-82.56563 36.17642,-22.89881 53.08232,-28.88247 79.28438,-38.67656 26.20206,9.79409 43.10953,15.77775 79.28593,38.67656 32.16474,20.35954 67.50889,49.05296 94.15782,82.56563 44.23955,55.63397 82.7661,106.58811 85.76406,221.35312 1.87048,77.13463 -4.23305,143.97252 -9.07344,219.94532 -119.52228,4.49515 -163.84614,17.29028 -250.13437,50.68906 z"
           id="path5728" /><path
           inkscape:connector-curvature="0"
           style="fill:#ffffff;fill-rule:evenodd;stroke:none;stroke-width:0.80000001px;stroke-linecap:butt;stroke-linejoin:miter;stroke-opacity:1"
           d="M 379.95625,730.59 C 293.66802,697.19122 257.34572,684.39609 137.82344,679.90094 132.98306,603.92814 126.87953,554.69025 128.75,477.55562 c 2.16014,-115.60284 35.65811,-166.36394 81.325,-221.35312 27.62853,-33.26852 58.43214,-62.20609 90.59687,-82.56563 36.17642,-22.89881 53.08232,-28.88247 79.28438,-38.67656 26.20206,9.79409 43.10953,15.77775 79.28593,38.67656 32.16474,20.35954 62.96836,49.29711 90.59688,82.56563 45.66689,54.98918 79.16486,105.75028 81.325,221.35312 1.87048,77.13463 -4.23305,126.37252 -9.07344,202.34532 -119.52228,4.49515 -155.84614,17.29028 -242.13437,50.68906 z"
           id="path5718" /><path
           inkscape:connector-curvature="0"
           style="fill:url(#linearGradient6210);fill-opacity:1;fill-rule:evenodd;stroke:none;stroke-width:0.80000001px;stroke-linecap:butt;stroke-linejoin:miter;stroke-opacity:1"
           d="M 379.95625,709.79 C 293.66802,676.39122 276.54572,668.39609 157.02344,663.90094 152.18306,587.92814 146.07953,559.49025 147.95,482.35562 c 1.11332,-59.58061 7.61356,-95.14945 19.04375,-126.03124 10.74754,-29.03741 25.75064,-54.27361 47.88125,-80.92188 27.62853,-33.26852 50.96618,-58.65148 85.79687,-82.56563 35.29612,-24.23369 53.08232,-28.88247 79.28438,-38.67656 26.20206,9.79409 43.98981,14.44287 79.28593,38.67656 34.8307,23.91415 58.16836,49.29711 85.79688,82.56563 22.13061,26.64827 37.13215,51.88447 47.87969,80.92188 11.43019,30.88179 17.93199,66.45063 19.04531,126.03124 1.87048,77.13463 -4.23305,105.57252 -9.07344,181.54532 -119.52228,4.49515 -136.64614,12.49028 -222.93437,45.88906 z"
           id="path5726" /></g><g
         id="g6165"><g
           id="g5843"><g
             id="g5838"><path
               style="fill:#ffffff;fill-rule:evenodd;stroke:none;stroke-width:0.80000001px;stroke-linecap:butt;stroke-linejoin:miter;stroke-opacity:1"
               d="m 389.63477,747.56641 0,30.2207 85.31054,55.0918 85.3125,-55.0918 0,-30.2207 -85.3125,33.22851 -85.31054,-33.22851 z"
               transform="matrix(0.8,0,0,-0.8,0,841.89)"
               id="path5722"
               inkscape:connector-curvature="0" /><path
               inkscape:connector-curvature="0"
               style="fill:#d01a27;fill-opacity:1;fill-rule:evenodd;stroke:none;stroke-width:0.80000001px;stroke-linecap:butt;stroke-linejoin:miter;stroke-opacity:1"
               d="m 313.86718,241.19625 0,-10.09531 66.08907,-33.43438 66.09062,33.43438 0,10.09531 -66.09062,-26.02187 -66.08907,26.02187 z"
               id="path5720" /><path
               inkscape:connector-curvature="0"
               style="fill:#09519a;fill-opacity:1;fill-rule:evenodd;stroke:none;stroke-width:0.80000001px;stroke-linecap:butt;stroke-linejoin:miter;stroke-opacity:1"
               d="m 313.86718,229.2775 0,-8.57656 66.08907,-42.23438 66.09062,42.23438 0,8.57656 -66.09062,-33.70312 -66.08907,33.70312 z"
               id="path5724" /></g><path
             sodipodi:nodetypes="ccccccccccccccccccccccccccc"
             inkscape:connector-curvature="0"
             id="path1276"
             transform="matrix(0.8,0,0,-0.8,0,841.89)"
             d="m 474.94531,196.5332 c -4.26435,6.74174 -6.34283,6.9326 -15.55078,8.70899 -1.77501,0.31966 -3.56446,0.63919 -5.36914,1.07226 -3.24996,0.77727 -6.25112,1.68009 -8.88672,3.79688 -1.37817,1.10525 -2.314,2.45305 -2.89062,3.98828 -0.79624,2.11679 -0.72243,4.44179 -0.004,6.51172 1.2559,3.62306 4.61315,6.08848 8.38086,7.24609 2.47256,0.75936 5.05982,1.14337 7.60938,0.82227 3.29976,-0.41481 5.2815,-0.73109 11.26367,-4.79102 0.0543,-0.0358 0.24968,0.2036 0.24218,0.21485 -2.80617,4.7476 -6.68561,7.64287 -11.30468,8.95898 -0.31244,0.0896 -0.37828,0.41615 -0.26953,0.76758 l 0,0.002 33.55859,0 0.002,-0.002 c 0.10875,-0.35143 0.0429,-0.67802 -0.26953,-0.76758 -4.61907,-1.31611 -8.49851,-4.21138 -11.30469,-8.95898 -0.007,-0.0112 0.1859,-0.25069 0.24024,-0.21485 5.98216,4.05993 7.96391,4.37621 11.26367,4.79102 2.54955,0.3211 5.13681,-0.0629 7.60937,-0.82227 3.76772,-1.15761 7.12692,-3.62303 8.38282,-7.24609 0.71852,-2.06993 0.79233,-4.39493 -0.004,-6.51172 -0.57662,-1.53523 -1.51245,-2.88303 -2.89062,-3.98828 -2.6356,-2.11679 -5.63871,-3.01961 -8.88868,-3.79688 -1.82046,-0.43686 -3.62574,-0.7576 -5.41601,-1.08007 l 0.0488,0.008 c -9.20795,-1.77639 -11.28839,-1.96725 -15.55274,-8.70899 z"
             style="fill:#ffffff;fill-opacity:1;fill-rule:nonzero;stroke:none" /><g
             style="fill:#cf1827;fill-opacity:1"
             transform="translate(-1081.341,-149.57564)"
             id="g5761"><path
               inkscape:connector-curvature="0"
               id="path5740"
               d="m 1380.9798,536.09974 c 2.9046,1.74126 7.2,5.47885 7.2001,6.26511 10e-5,0.24768 -3.7407,0.42536 -8.3127,0.39484 -7.7887,-0.052 -8.472,-0.18937 -10.8365,-2.17896 -1.388,-1.16791 -3.993,-2.51914 -5.789,-3.00275 -5.7913,-1.55943 -2.0686,-2.82554 8.9382,-3.03994 4.8113,-0.0937 6.5546,0.21565 8.7999,1.5617 z m -31.1452,2.0056 c 6.2422,1.85342 11.1452,4.31164 11.1452,5.58789 0,1.42853 -9.8876,6.39957 -15.8004,7.94369 -2.5298,0.66065 -8.7934,1.72174 -13.9192,2.35797 -11.2787,1.39995 -15.8244,2.45741 -21.0804,4.90387 -5.9993,2.79246 -9.199,5.82431 -16.8658,15.98092 -3.8338,5.07895 -8.1745,10.15264 -9.6458,11.27488 -3.6147,2.75708 -4.6208,6.69318 -4.5654,17.86062 0.049,9.92574 1.6616,18.34014 5.4351,28.36542 1.1345,3.01423 1.89,5.65318 1.6789,5.86434 -0.8276,0.82754 -9.2634,-4.04861 -11.5915,-6.70025 -3.0188,-3.4382 -7.4196,-12.03079 -9.1555,-17.87604 -3.4367,-11.57269 -0.016,-18.99237 11.8413,-25.6842 3.5356,-1.99537 4.3828,-2.92761 5.2299,-5.7551 5.0464,-16.84334 20.879,-34.38956 37.4571,-41.51124 9.1034,-3.91069 21.7387,-5.01715 29.8365,-2.61277 z m 45.6629,12.21534 c 6.227,2.40918 11.2928,7.10052 14.3308,13.27164 2.7444,5.57473 2.7271,7.16193 -0.1491,13.66396 -1.3954,3.15458 -1.4871,4.68696 -0.9966,16.654 0.5973,14.57242 -0.039,18.75784 -3.4004,22.38342 -1.0744,1.15878 -2.9657,2.63029 -4.2028,3.27002 -3.1711,1.63982 -10.1425,2.47641 -10.867,1.30408 -0.3149,-0.50946 0.8679,-3.69972 2.6284,-7.08946 4.2578,-8.1983 5.994,-14.99456 5.9681,-23.36316 -0.034,-10.95351 -3.963,-19.02997 -12.0891,-24.84893 -7.1693,-5.1338 -11.887,-6.53936 -23.34,-6.95363 -5.5,-0.19894 -10.3144,-0.65716 -10.6986,-1.01826 -1.3609,-1.27875 11.9392,-6.99704 20.3588,-8.7532 5.9625,-1.24366 17.3596,-0.4928 22.4575,1.47952 z m -59.3247,12.32639 c 1.0961,0.55456 2.0761,1.53925 2.1778,2.18821 0.105,0.66968 -2.6313,3.25556 -6.3277,5.9799 -7.8759,5.80474 -19.4408,16.99092 -22.964,22.21199 -10.023,14.85283 -11.8261,26.7902 -6.9475,45.99459 1.4819,5.83361 2.3758,10.80344 1.9865,11.04407 -0.3893,0.24061 -2.3466,-0.93235 -4.3496,-2.60658 -7.2717,-6.0784 -14.7824,-27.09377 -14.759,-41.29637 0.023,-14.20387 5.9485,-23.81962 18.5195,-30.05553 3.895,-1.93215 5.9473,-3.43571 6.1389,-4.49735 0.7581,-4.20172 7.0803,-7.95504 15.4502,-9.17242 6.4802,-0.94252 8.8879,-0.89698 11.0749,0.20949 z m 28.407,4.60589 c 11.0766,1.5944 20.7593,8.04692 24.9837,16.64901 2.0346,4.14315 2.2154,5.26755 2.2051,13.71321 -0.01,7.25237 -0.3095,9.75042 -1.4205,11.8 -2.5006,4.61325 -3.1526,3.33417 -4.1795,-8.2 -0.8664,-9.73123 -2.0155,-11.06604 -12.3888,-14.39101 -2.4199,-0.77569 -8.2553,-2.98504 -12.9674,-4.90967 -6.7378,-2.75201 -9.5568,-3.49765 -13.2,-3.4915 -7.7744,0.0131 -11.1176,2.0586 -26.5294,16.23146 -6.6451,6.11094 -7.7062,5.22986 -3.7093,-3.08001 5.6001,-11.64306 17.6073,-21.03784 30.0062,-23.47769 2.4199,-0.4762 5.1199,-1.00761 6,-1.18091 2.8587,-0.56294 5.4993,-0.48346 11.1999,0.33711 z m 53.7002,11.35584 c 0.7376,1.42649 1.5142,5.01129 1.7256,7.96621 0.3575,4.99689 0.2061,5.65039 -2.1646,9.3449 -4.6417,7.23343 -4.8437,7.04581 -4.3457,-4.03667 0.4612,-10.26258 1.4131,-15.86806 2.6948,-15.86806 0.4118,0 1.3522,1.16713 2.0899,2.59362 z m -63.3378,5.5348 c 1.1207,0.51062 2.0376,1.34949 2.0376,1.86416 0,0.51467 -2.6241,2.26771 -5.8314,3.89564 -12.286,6.23608 -21.7207,15.19776 -23.7934,22.60046 -0.8928,3.18894 -0.8092,3.71264 1.118,7.0011 1.1456,1.95489 4.2483,5.5139 6.8949,7.90891 2.6466,2.39501 4.8119,4.77009 4.8119,5.27793 0,1.2573 0.05,1.27066 -6.5556,-1.74136 -3.459,-1.57713 -8.247,-4.73863 -11.7312,-7.74598 l -5.8868,-5.08123 0.5469,-4.85403 c 0.7122,-6.32056 2.1758,-9.25972 7.4455,-14.95166 5.3114,-5.7369 13.3808,-11.20355 19.7812,-13.40089 5.5156,-1.89355 8.2826,-2.08518 11.1624,-0.77305 z m 26.6666,23.02464 c 0.1536,5.5114 -0.086,8.59296 -0.7288,9.36731 -2.9988,3.61332 -18.7433,10.70207 -23.6366,10.64206 l -3.0635,-0.0375 2.8,-2.13152 c 5.3435,-4.06779 10.1675,-9.55867 12.3918,-14.10496 2.0355,-4.16056 2.1917,-5.09444 1.7419,-10.41583 -0.2718,-3.21502 -0.2634,-6.0762 0.019,-6.35818 0.282,-0.28196 2.703,0.68838 5.3802,2.15633 l 4.8675,2.669 0.2289,8.21335 z m -18.1465,-11.111 c 2.1721,1.10812 3.1304,2.0836 2.9471,3 -0.2171,1.08557 -1.2301,1.37183 -5.0506,1.42719 -2.6284,0.0381 -5.2197,0.12809 -5.7583,0.2 -0.5387,0.0719 -3.1087,3.28075 -5.7113,7.13075 -5.2359,7.74548 -9.1245,11.8559 -10.4443,11.04018 -1.1133,-0.68803 -1.1049,-6.34425 0.015,-10.37925 1.0813,-3.89481 8.7839,-12.19331 12.2523,-13.20031 4.1819,-1.21416 8.386,-0.93456 11.7496,0.78144 z m -1.5454,13.28193 c 1.7831,1.61369 1.8547,3.59791 0.2424,6.71574 -1.491,2.88322 -2.2482,2.96266 -3.4339,0.36027 -0.5012,-1.1 -1.2045,-2 -1.563,-2 -0.3585,0 -2.3506,1.8 -4.427,4 -2.656,2.81406 -4.3944,4 -5.8634,4 -2.3616,0 -2.7487,0.73808 3.9854,-7.59929 2.1326,-2.64039 4.4514,-5.25071 5.1529,-5.80071 1.7629,-1.38226 4.1669,-1.2504 5.9066,0.32399 z m -49.3319,8.47601 c 3.3995,7.64384 8.7615,15.47607 12.3989,18.11095 4.068,2.94683 9.5739,4.20407 14.396,3.28722 4.4708,-0.85007 4.5766,-0.88825 16.9713,-6.12079 10.2904,-4.34424 22.6274,-8.14532 23.5246,-7.24806 0.8019,0.80181 -1.1008,5.30774 -3.3898,8.0281 -3.3922,4.03146 -10.0866,8.8625 -17.6821,12.76043 -18.9817,9.74121 -32.1192,11.08453 -38.8056,3.96795 -2.4013,-2.55583 -9.9037,-15.90249 -11.5606,-20.56632 -1.9696,-5.54394 -1.1471,-17.21948 1.2131,-17.21948 0.3908,0 1.7112,2.25 2.9342,5 z"
               style="fill:#cf1827;fill-opacity:1"
               sodipodi:nodetypes="scssssssssssssccccsscsssscscscsssscssscssscccscssscccscssssscscscsscsssccsscsccsssccccscccccccccscsccsccsscsssscssssscssssss" /><path
               sodipodi:nodetypes="ssssscssscsssssscsssssssscccssccsccssssscsccsccsssscssscccscccscscscscsssscsscscccssscscssccsssscccsccsccscsssssssssc"
               style="fill:#cf1827;fill-opacity:1"
               d="m 1594.2118,533.24602 c 18.7663,4.84437 35.3228,19.49342 44.5123,39.38397 5.428,11.74897 1.5318,10.63146 -9.439,-2.70731 -13.3708,-16.25666 -17.7301,-18.59465 -37.9053,-20.3294 -5.5,-0.47292 -12.7417,-1.53193 -16.0928,-2.35336 -7.0556,-1.7295 -16.1604,-6.05794 -15.6993,-7.4634 0.5438,-1.6572 5.4716,-4.52571 10.5304,-6.12982 6.0958,-1.93297 17.4278,-2.12142 24.0937,-0.40068 z m -42.9982,12.83646 c 12.0942,2.4856 22.5752,8.2682 15.1663,8.36757 -1.43,0.0192 -6.2567,0.338 -10.7259,0.7085 -6.8788,0.57025 -9.0435,1.11501 -14.1057,3.54988 -7.3784,3.54885 -13.2388,9.58897 -15.824,16.30942 -4.1219,10.71493 -1.2541,27.29108 6.7626,39.08869 1.1511,1.69403 2.0929,3.31746 2.0929,3.60762 0,1.10616 -4.002,1.45921 -7.983,0.70424 -5.211,-0.98825 -8.3663,-3.21116 -10.604,-7.47059 -1.5617,-2.97278 -1.8007,-4.97387 -2.2131,-18.53263 -0.4087,-13.4403 -0.665,-15.61677 -2.2135,-18.8 -2.2878,-4.70302 -2.2336,-7.97056 0.2122,-12.79706 6.8231,-13.46491 20.5893,-18.60886 39.4352,-14.73564 z m 92.1107,7.90396 c 4.3951,2.27282 8.3502,8.39872 12.4434,19.27333 2.1453,5.69962 2.4586,7.55541 1.2755,7.55541 -0.4052,0 -3.5455,-1.72013 -6.9786,-3.8225 l -6.2419,-3.82252 -2.6275,-7.12123 c -1.4452,-3.91667 -3.1648,-7.71489 -3.8214,-8.44048 -1.2551,-1.38685 -1.561,-3.35953 -0.6606,-4.25993 0.9098,-0.90981 4.2394,-0.58852 6.6111,0.63792 z m -39.0597,4.81536 c 3.9283,1.3702 7.5812,4.6224 8.0375,7.15584 0.1856,1.03086 1.9268,2.22491 5.2496,3.6 9.7639,4.04072 15.1917,9.34357 18.7739,18.34168 2.4647,6.19083 2.491,20.80985 0.054,29.7405 -3.2982,12.0849 -6.5611,19.21325 -10.6798,23.33202 -6.299,6.29896 -6.6556,5.4263 -3.4347,-8.40429 3.3302,-14.2997 2.5201,-24.02722 -2.9564,-35.50219 -4.8463,-10.15469 -15.989,-21.6026 -30.9437,-31.79139 -3.1816,-2.16766 -5.7848,-4.39725 -5.7848,-4.95464 0,-0.55738 0.81,-1.60503 1.8,-2.3281 1.4708,-1.07417 3.1172,-1.23784 9,-0.89468 3.96,0.231 8.8582,0.99836 10.8848,1.70525 z m -29.2848,4.8169 c 13.0192,2.73341 25.182,11.85108 30.6,22.93878 2.833,5.79744 3.1235,7.07368 1.6001,7.02719 -0.9707,-0.0296 -3.5951,-2.07095 -14.2754,-11.10367 -10.0208,-8.47505 -17.5325,-10.15614 -27.1468,-6.07533 -2.8478,1.20876 -9.4978,3.96501 -14.7779,6.12498 -13.1497,5.37937 -13.2368,5.48534 -14.0317,17.06778 -0.3532,5.14654 -0.8418,9.55701 -1.0859,9.80105 -0.9959,0.99596 -2.9774,-1.86154 -4.2222,-6.08896 -1.8955,-6.43708 -1.6933,-15.41011 0.4746,-21.05664 5.622,-14.64324 23.9428,-22.608 42.8652,-18.63518 z m -65.5213,12.52984 c 1.4886,3.24427 2.6984,7.19003 2.7066,8.82726 0.019,3.72948 -1.5121,11.18172 -2.5139,12.23938 -0.9332,0.98528 -2.8758,-1.43225 -6.3495,-7.90218 -2.1815,-4.06317 -2.4658,-5.25907 -2.0919,-8.8 0.5645,-5.34699 3.4994,-12.28847 4.6915,-11.09635 0.4759,0.47589 2.0766,3.50524 3.5572,6.73189 z m 75.9615,7.01902 c 7.2811,3.58019 16.0744,11.11061 19.1981,16.44075 1.3062,2.22877 2.171,5.2025 2.4822,8.5354 l 0.4776,5.11493 -6.1699,5.40255 c -6.4928,5.68525 -14.9715,10.57716 -16.9899,9.80261 -0.8776,-0.33675 0.4204,-2.17587 4.8853,-6.92204 3.3442,-3.5549 6.3034,-7.3522 6.576,-8.43844 2.0483,-8.16108 -6.4879,-17.9665 -22.6995,-26.07472 -4.5101,-2.25567 -8.2001,-4.51563 -8.2001,-5.02213 0,-1.00971 2.6841,-2.55057 5.2001,-2.98523 3.1336,-0.54137 8.8939,1.02581 15.2401,4.14632 z m 61.8654,-1.42505 c 12.3963,7.39781 14.3463,18.73905 6.2089,36.10994 -1.4848,3.16951 -3.9179,6.89669 -5.407,8.28264 -2.7864,2.59343 -8.7502,6.10403 -9.3502,5.50403 -0.1858,-0.18579 0.9375,-3.32718 2.4962,-6.98087 4.4203,-10.36176 5.6117,-15.87531 5.5843,-25.84307 -0.022,-8.07189 -0.6496,-11.67828 -3.0272,-17.4 -0.763,-1.83629 -0.013,-1.76602 3.495,0.32733 z m -77.3396,9.05644 c 7.4133,1.18964 15.034,11.00993 15.034,19.3733 0,6.9892 -2.791,5.53472 -11.3649,-5.92249 l -5.7194,-7.6428 -5.4403,0.45609 c -5.6278,0.47182 -6.7193,0.0111 -5.9224,-2.49965 0.5657,-1.7822 6.6795,-4.90872 8.8471,-4.52422 0.88,0.1561 2.9346,0.49799 4.5659,0.75977 z m -17.559,0.61623 c 0.1871,0.55 0,2.23672 -0.4119,3.74826 -0.8897,3.25076 -0.2517,8.04809 1.5278,11.48931 1.7186,3.32344 8.673,10.59797 12.9492,13.54532 7.8776,5.42966 -2.596,4.44573 -14.6721,-1.37835 -10.8651,-5.24009 -10.9004,-5.28994 -10.6273,-15.01334 l 0.2274,-8.0955 4.3999,-2.64454 c 4.7692,-2.86643 6.0819,-3.19447 6.607,-1.65116 z m 19.2229,17.65922 c 7.5942,8.10432 8.5315,10.10691 4.2249,9.026 -1.1109,-0.27881 -3.6101,-2.16652 -5.5537,-4.19492 -3.519,-3.67236 -5.301,-4.02302 -5.301,-1.04308 0,2.98821 -2.9259,1.80366 -4.3527,-1.76219 -1.3244,-3.31006 -1.3231,-3.31837 0.8675,-5.60491 2.9184,-3.04612 4.397,-2.52292 10.115,3.5791 z m 44.5845,2.20048 c 1.6442,6.85409 0.7599,11.38659 -4.3659,22.37672 -2.5558,5.47997 -5.3577,10.74448 -6.2264,11.69892 -0.8687,0.95444 -3.4183,2.5264 -5.6658,3.49324 -7.8333,3.36979 -20.1563,0.97044 -36.1562,-7.03975 -12.052,-6.03367 -19.6,-12.87857 -19.6,-17.77409 0,-1.68874 0.2277,-1.76268 3.8,-1.23363 3.8554,0.571 10.0184,2.50828 26.6,8.36145 9.6975,3.42318 13.9762,3.92801 19.4335,2.29294 6.1269,-1.83565 12.2004,-9.82541 17.6628,-23.2355 1.7212,-4.22558 3.3412,-3.84562 4.518,1.0597 z"
               id="path5757"
               inkscape:connector-curvature="0" /><path
               inkscape:connector-curvature="0"
               id="path5759"
               d="m 1478.0453,433.56164 c 4.2514,2.07285 13.1449,9.05008 12.0156,9.42654 -0.4707,0.15689 -3.8765,-0.58611 -7.5684,-1.65113 -11.1225,-3.20849 -20.6862,-3.42759 -36.7127,-0.84107 -3.2448,0.52369 -3.4955,0.45441 -2.5415,-0.70229 2.4914,-3.02073 23.1959,-8.91253 28.807,-8.19751 1.466,0.18681 4.166,1.07127 6,1.96546 z m -6.5247,11.62981 c 8.7498,1.31892 15.4533,3.39091 22.5785,6.97875 6.2175,3.13082 11.6807,6.87009 11.6807,7.99484 0,1.48967 -6.9375,0.17763 -18,-3.40416 -8.8461,-2.86419 -11.416,-3.36959 -17.2,-3.38253 -8.4207,-0.0189 -13.1753,1.59353 -24.5492,8.32518 -10.5385,6.23719 -17.6194,8.6969 -26.7366,9.28758 -8.288,0.53695 -8.484,0.29741 -4.6741,-5.71027 10.246,-16.15622 32.0123,-23.84104 56.9007,-20.08939 z m 50.1949,14.00527 c 7.1194,2.04184 12.4197,8.41268 15.8265,19.02331 2.7353,8.51936 2.8349,15.41559 0.3011,20.84508 -2.0189,4.32605 -4.0633,5.48364 -4.0633,2.30074 0,-2.92493 -2.9294,-13.33993 -5.1898,-18.45088 -3.0672,-6.93569 -7.6755,-13.2849 -13.5474,-18.6654 -2.8788,-2.63793 -5.0007,-5.02981 -4.7152,-5.31531 0.7918,-0.7918 8.3168,-0.61837 11.3881,0.26246 z m -47.9357,4.14759 c 1.6995,1.24238 2.47,1.33157 5.1278,0.5936 1.7202,-0.47766 6.4002,-0.74558 10.4,-0.59537 6.1689,0.23166 8.0612,0.65246 12.4722,2.77346 6.8439,3.29079 11.0716,7.08415 15.8384,14.21102 4.703,7.03151 8.2709,15.3504 11.0302,25.71756 1.9161,7.19885 1.9781,7.99769 0.9799,12.6278 -0.643,2.98262 -1.4789,4.9428 -2.1079,4.9428 -0.574,0 -3.2386,-5.03224 -5.9306,-11.2 -4.7318,-10.84147 -5.1079,-11.41855 -11.7491,-18.02727 -5.4299,-5.40339 -8.2878,-7.53195 -13.7028,-10.20599 -11.0209,-5.44238 -28.3207,-8.96674 -44.0145,-8.96674 -4.3573,0 -5.7009,-0.27907 -6.0782,-1.26246 -0.8028,-2.09199 2.3649,-5.33992 8.345,-8.55649 8.6212,-4.63715 14.9387,-5.3057 19.3896,-2.05192 z m -69.8114,13.22791 c 0.1739,0.52637 -1.2374,1.74652 -3.1362,2.71146 -1.8988,0.96493 -6.0624,4.48943 -9.2524,7.83221 -3.1899,3.34279 -5.8,5.643 -5.8,5.11158 0,-1.90829 4.8091,-14.09627 6.1441,-15.57145 1.1185,-1.23593 2.2957,-1.46502 6.5461,-1.27388 3.1262,0.14058 5.3077,0.61274 5.4984,1.19008 z m 26.6114,-0.58627 c 0,0.42392 -3.5161,3.43357 -7.8136,6.68812 -11.8936,9.00714 -15.7655,15.62236 -15.7785,26.95793 -0.01,6.10373 0.2683,7.37776 2.632,12.17915 4.6816,9.50961 14.3242,18.14654 26.031,23.31609 2.8189,1.24476 4.5389,2.46413 4.3378,3.07527 -0.4866,1.47946 -6.1157,4.45633 -9.5116,5.03007 -7.5656,1.27819 -13.5784,-3.22165 -23.1237,-17.30506 -5.0896,-7.50928 -7.3492,-10.12758 -10.1694,-11.78344 -6.4411,-3.78184 -7.9788,-5.45572 -9.0274,-9.82676 -3.1581,-13.16435 3.3175,-25.09776 17.4927,-32.23631 8.7248,-4.39375 24.9307,-8.35577 24.9307,-6.09506 z m 42.4,4.77191 c 5.5936,1.89548 13.6,6.32938 13.6,7.53155 0,0.84506 -7.9375,0.37114 -19.4097,-1.15886 -13.3127,-1.77547 -20.4799,0.83633 -25.5189,9.29935 -1.4693,2.46752 -4.9244,7.72736 -7.6781,11.68854 -9.0079,12.95787 -9.0029,12.90575 -2.2303,23.40412 2.4404,3.7829 4.4371,7.24129 4.4371,7.68531 0,2.44689 -5.0977,-0.45475 -10.0411,-5.71545 -5.3105,-5.65147 -7.2585,-8.97531 -8.8105,-15.03339 -2.4639,-9.61745 0.5839,-18.66612 9.2003,-27.31479 5.6885,-5.70984 12.3414,-9.43387 20.562,-11.50976 6.7064,-1.69354 19.1729,-1.1526 25.8892,1.12338 z m 7.9822,12.54664 c 6.4742,1.46438 11.1196,4.14628 14.4369,8.33479 l 2.5704,3.24529 -1.4271,6.9653 c -1.4265,6.96309 -6.7613,18.5653 -8.5364,18.5653 -0.5297,0 -0.652,-1.51798 -0.3383,-4.2 0.2702,-2.31 0.7284,-6.81589 1.0183,-10.01308 l 0.527,-5.81309 -3.3181,-3.1564 c -2.0368,-1.93752 -4.9393,-3.66444 -7.5165,-4.472 -5.6814,-1.78033 -19.9766,-2.3943 -27.4976,-1.18102 -3.3167,0.53502 -6.2296,0.77345 -6.4732,0.52983 -0.2436,-0.24362 0.01,-1.52807 0.5559,-2.85435 2.8068,-6.77612 19.8752,-9.59753 35.9987,-5.95057 z m 23.7073,6.07856 c 5.1236,4.7228 7.0656,9.11947 9.3867,21.25159 2.1623,11.30263 2.0567,13.11147 -1.06,18.15445 -4.9497,8.0088 -24.1079,13.71026 -44.0161,13.09914 -7.8712,-0.24162 -9.7726,-0.57062 -13.1641,-2.27774 -2.1803,-1.09742 -4.0844,-2.39777 -4.2315,-2.88965 -0.5236,-1.75151 10.7933,-5.40809 25.6267,-8.28021 15.9774,-3.09362 22.5566,-7.00033 24.6335,-14.62724 1.1201,-4.11332 0.4896,-14.25964 -1.2983,-20.89226 -1.1496,-4.2646 -1.1395,-6.90596 0.026,-6.90596 0.2436,0 2.0871,1.51554 4.0967,3.36788 z m -38.3639,7.42472 c 4.9667,1.47497 8.5862,3.88827 11.7759,7.85161 2.0416,2.53679 2.2539,3.16798 1.2742,3.78677 -1.6143,1.01964 -5.4518,0.22948 -14.2711,-2.93852 -4.1225,-1.48085 -8.3852,-2.69246 -9.4728,-2.69246 -1.1053,0 -3.4271,1.24086 -5.2643,2.81343 -1.8077,1.54739 -3.665,2.68919 -4.1271,2.53735 -1.551,-0.5096 -1.3701,-3.75197 0.366,-6.56112 3.27,-5.29099 11.3978,-7.26823 19.7192,-4.79706 z m -24.5753,13.5151 c 3.8191,7.08406 12.373,11.2669 25.0493,12.24904 7.3812,0.57189 7.2625,1.62693 -0.4727,4.20104 -5.3822,1.79108 -19.7692,3.47092 -22.1582,2.5872 -1.9577,-0.72421 -10.3687,-12.0096 -10.3687,-13.91216 0,-2.25733 3.9557,-9.58093 4.9889,-9.23652 0.4994,0.16647 1.8321,2.0166 2.9614,4.1114 z m 26.4498,0.96132 c 8.8431,2.40615 9.955,3.12763 6.7302,4.36744 -1.8314,0.70413 -3.3412,0.61686 -7.0528,-0.40771 -5.2367,-1.44553 -6.8063,-0.88545 -5.3171,1.89723 1.3666,2.55348 -0.8953,3.01554 -4.34,0.88657 -2.1586,-1.33403 -2.8203,-2.2775 -2.8203,-4.02065 0,-2.54088 1.8123,-4.7922 3.8571,-4.79133 0.7386,3.2e-4 4.7629,0.93112 8.9429,2.06845 z"
               style="fill:#cf1827;fill-opacity:1"
               sodipodi:nodetypes="scsssssssssssssssssscsssscsssssssssscsscscssscsscsscssssssssscssssssssscccssccscsscscsssccssssccsscssccsscsscsscscsccsss" /></g></g><g
           id="g6140"><g
             transform="translate(-1041.0214,-40.285706)"
             id="g5999"><g
               id="g5992"
               style="fill:#ffffff"><path
                 sodipodi:nodetypes="cssssccsssscc"
                 style="opacity:1;fill:#ffffff;fill-opacity:1;fill-rule:nonzero;stroke:none;stroke-width:0.99994594;stroke-linecap:butt;stroke-linejoin:miter;stroke-miterlimit:4;stroke-dasharray:none;stroke-dashoffset:0;stroke-opacity:1"
                 d="m 1359.2659,617.2348 0,-35.08479 c 0,-8.46045 6.7801,-15.272 15.2015,-15.272 l 10.3656,0 c 8.4214,0 15.2016,6.81155 15.2016,15.272 l 0,35.08479 -11.8826,1e-5 0,-32.97665 c 0,-4.52063 -2.401,-8.1595 -6.3784,-8.1595 l -4.2468,0 c -3.9773,0 -6.378,3.63887 -6.378,8.1595 l 0,32.97664 z"
                 id="path5928"
                 inkscape:connector-curvature="0" /><path
                 sodipodi:nodetypes="ssssscccccsssssccss"
                 inkscape:connector-curvature="0"
                 id="path5930"
                 d="m 1418.2796,617.23481 c -7.423,0 -13.3984,-6.00493 -13.3984,-13.46239 l 0,-23.4336 c 0,-7.45746 5.9755,-13.46081 13.3984,-13.46081 l 15.2781,0 c 2.9363,0 5.5541,0.94732 7.7485,2.54459 l 0.3625,0.26059 0,22.46662 -10.2344,0 0,-15.90653 -9.1813,0 c -3.4453,0 -6.2187,3.49674 -6.2187,7.84103 l 0,15.94263 c 0,4.3443 2.7734,7.04091 6.2187,7.04091 l 13.1969,0 c 1.2964,0 1.3461,-0.009 3.4922,-0.54362 l 0.8828,9.6335 c -1.8429,0.95612 -4.0426,1.07708 -6.2672,1.07708 z"
                 style="opacity:1;fill:#ffffff;fill-opacity:1;fill-rule:nonzero;stroke:none;stroke-width:1.03070414;stroke-linecap:butt;stroke-linejoin:miter;stroke-miterlimit:4;stroke-dasharray:none;stroke-dashoffset:0;stroke-opacity:1" /><path
                 inkscape:connector-curvature="0"
                 style="fill:#ffffff;fill-rule:evenodd;stroke:none;stroke-width:0.80000001px;stroke-linecap:butt;stroke-linejoin:miter;stroke-opacity:1"
                 d="m 1312.2824,617.23532 0,-50.35782 11.5766,0 0,15.57344 6.5359,0 12.2031,-15.57344 13.9282,0 -11.9923,16.89375 c 3.6216,1.65733 7.4891,4.74044 7.4892,8.45625 l 0,14.83125 c -0.021,3.89105 -7.7258,10.17657 -12.1954,10.17657 l -27.5453,0 z m 11.5766,-10.17657 12.7687,0 c 3.3732,-0.0161 3.4297,-3.28607 3.425,-6.83906 -0.01,-3.93903 0.3705,-8.16087 -3.3203,-7.99219 -0.037,0.002 -0.067,-0.002 -0.1047,0 l -12.7687,0 0,14.83125 z"
                 id="path5946" /><path
                 sodipodi:nodetypes="cccscccscccccccccccccccccc"
                 inkscape:connector-curvature="0"
                 style="fill:#ffffff;fill-rule:evenodd;stroke:none;stroke-width:0.80000001px;stroke-linecap:butt;stroke-linejoin:miter;stroke-opacity:1"
                 d="m 1447.5475,617.23531 0,-50.35781 11.5765,0 15.9688,4e-5 c 4.4696,1e-5 10.963,2.01951 10.8359,8.57652 0.2604,9.96229 -0.031,14.7721 -4.6969,17.075 4.301,3.72183 2.8563,9.01314 2.8563,14.52968 -0.021,5.66836 -2.8965,10.17634 -8.9953,10.1764 l -15.4079,1.6e-4 -12.1374,0 z m 12.1374,-9.29617 9.0079,0 c 3.3732,-0.0161 3.4296,-2.70302 3.425,-6.256 -0.01,-3.93903 0.3705,-6.42432 -3.3203,-6.25564 -0.037,0.002 -0.067,-0.002 -0.1047,0 l -9.0079,0 z M 1471.6037,587.09 c 2.9994,-0.10016 2.6641,-2.12747 2.6735,-5.82031 0,-3.55298 -0.052,-5.79953 -3.4251,-5.81563 l -11.1672,0 0,11.63125 11.2719,0 c 0.2307,0.0106 0.4469,0.0114 0.6469,0.005 z"
                 id="path5957" /><path
                 sodipodi:nodetypes="cccccccccc"
                 inkscape:connector-curvature="0"
                 id="path5961"
                 transform="matrix(0.8,0,0,-0.8,0,841.89)"
                 d="m 1855.7637,280.81836 20.6425,44.42187 0,18.52539 15.4532,0 0,-18.52539 20.6445,-44.42187 -16.0605,0 -12.3106,28.77734 -12.3105,-28.77734 z"
                 style="fill:#ffffff;fill-rule:evenodd;stroke:none;stroke-width:0.80000001px;stroke-linecap:butt;stroke-linejoin:miter;stroke-opacity:1" /></g><g
               id="g5980"
               style="fill:#ffffff"><path
                 sodipodi:nodetypes="ccccccccccc"
                 inkscape:connector-curvature="0"
                 id="path5869"
                 d="m 1207.9544,632.42629 11.5762,0 0,19.25419 20.1428,0 0,9.77521 -20.1428,0 0,11.1526 21.3518,0 0,10.17511 -32.928,0 z"
                 style="fill:#ffffff;fill-rule:evenodd;stroke:none;stroke-width:0.80000001px;stroke-linecap:butt;stroke-linejoin:miter;stroke-opacity:1" /><path
                 inkscape:connector-curvature="0"
                 id="path5871"
                 d="m 1341.6344,682.78375 0,-50.35781 11.5766,0 0,15.57344 6.5359,0 12.2031,-15.57344 13.9282,0 -11.9923,16.89375 c 3.6215,1.65733 7.4891,4.74043 7.4891,8.45625 l 0,14.83124 c -0.021,3.89105 -7.7257,10.17657 -12.1953,10.17657 l -27.5453,0 z m 11.5766,-10.17657 12.7687,0 c 3.3732,-0.0161 3.4297,-3.28607 3.425,-6.83905 -0.01,-3.93903 0.3705,-8.16087 -3.3203,-7.99219 -0.037,0.002 -0.067,-0.002 -0.1047,0 l -12.7687,0 0,14.83124 z"
                 style="fill:#ffffff;fill-rule:evenodd;stroke:none;stroke-width:0.80000001px;stroke-linecap:butt;stroke-linejoin:miter;stroke-opacity:1" /><path
                 sodipodi:nodetypes="cccccccccccccc"
                 inkscape:connector-curvature="0"
                 id="path5873"
                 d="m 1389.6344,632.42629 32.928,0 0,9.92359 -21.3518,0 0,10.4552 20.1428,0 2e-4,9.6 -20.143,0 0,10.20321 21.3518,0 0,10.17511 -32.928,0 0,-25.17831 z"
                 style="fill:#ffffff;fill-rule:evenodd;stroke:none;stroke-width:0.80000001px;stroke-linecap:butt;stroke-linejoin:miter;stroke-opacity:1" /><path
                 style="fill:#ffffff;fill-rule:evenodd;stroke:none;stroke-width:0.80000001px;stroke-linecap:butt;stroke-linejoin:miter;stroke-opacity:1"
                 d="m 1601.0744,632.42629 32.928,0 0,9.92359 -21.3518,0 0,10.4552 20.1428,0 2e-4,9.6 -20.143,0 0,10.20321 21.3518,0 0,10.17511 -32.928,0 0,-25.17831 z"
                 id="path5881"
                 inkscape:connector-curvature="0"
                 sodipodi:nodetypes="cccccccccccccc" /><path
                 sodipodi:nodetypes="cccccccc"
                 inkscape:connector-curvature="0"
                 id="path5883"
                 d="m 1565.1544,632.42629 32.928,0 0,9.92359 -21.3518,0 -2e-4,40.43351 -11.576,0 0,-25.17831 z"
                 style="fill:#ffffff;fill-rule:evenodd;stroke:none;stroke-width:0.80000001px;stroke-linecap:butt;stroke-linejoin:miter;stroke-opacity:1" /><path
                 sodipodi:nodetypes="cssssssccsssssscc"
                 inkscape:connector-curvature="0"
                 id="rect5887"
                 d="m 1285.816,681.01429 c -1.9604,1.12615 -4.2343,1.76895 -6.6629,1.76895 l -15.2781,0 c -7.4229,0 -13.3984,-6.00492 -13.3984,-13.46239 l 0,-23.4336 c 0,-7.45745 5.9755,-13.46081 13.3984,-13.46081 l 15.2781,0 c 2.5053,0 4.6613,0.68384 6.6629,1.87661 l -2.043,8.15655 c -0.9998,-0.46693 -1.638,-0.66789 -2.7277,-0.66789 l -13.1969,0 c -3.4453,0 -6.2187,3.49673 -6.2187,7.84102 l 0,15.94264 c 0,4.34429 2.7734,7.84103 6.2187,7.84103 l 13.1969,0 c 0.9649,0 1.8773,-0.27428 2.6907,-0.76464 z"
                 style="opacity:1;fill:#ffffff;fill-opacity:1;fill-rule:nonzero;stroke:none;stroke-width:1.03070414;stroke-linecap:butt;stroke-linejoin:miter;stroke-miterlimit:4;stroke-dasharray:none;stroke-dashoffset:0;stroke-opacity:1" /><path
                 style="opacity:1;fill:#ffffff;fill-opacity:1;fill-rule:nonzero;stroke:none;stroke-width:1.03070414;stroke-linecap:butt;stroke-linejoin:miter;stroke-miterlimit:4;stroke-dasharray:none;stroke-dashoffset:0;stroke-opacity:1"
                 d="m 1311.875,682.78324 c -7.423,0 -13.3984,-6.00492 -13.3984,-13.46239 l 0,-23.4336 c 0,-7.45745 5.9755,-13.46081 13.3984,-13.46081 l 15.2781,0 c 2.9363,0 5.5541,0.94732 7.7485,2.54459 l 0.3625,0.26059 0,22.46662 -10.2344,0 0,-15.90653 -9.1813,0 c -3.4453,0 -6.2187,3.49674 -6.2187,7.84103 l 0,15.94263 c 0,4.3443 2.7734,7.04092 6.2187,7.04092 l 13.1969,0 c 1.2964,0 1.3461,-0.009 3.4922,-0.54362 l 0.8828,9.6335 c -1.8429,0.95612 -4.0426,1.07708 -6.2672,1.07708 z"
                 id="rect5897"
                 inkscape:connector-curvature="0"
                 sodipodi:nodetypes="ssssscccccsssssccss" /><path
                 inkscape:connector-curvature="0"
                 id="rect5903"
                 d="m 1492.1828,682.78324 c -8.4214,0 -15.2015,-6.77998 -15.2015,-15.20125 l 0,-19.95429 c 0,-8.42125 6.7801,-15.20126 15.2015,-15.20126 l 10.3656,0 c 8.4214,0 15.2016,6.78 15.2016,15.20126 l 0,19.95429 c 0,8.42128 -6.7802,15.20125 -15.2016,15.20125 l -10.3656,0 z m 3.0594,-9.17794 4.2468,0 c 3.9774,0 7.1782,-3.62201 7.1782,-8.12171 l 0,-15.7575 c 0,-4.49969 -3.2008,-8.12171 -7.1782,-8.12171 l -4.2468,0 c -3.9773,0 -7.1781,3.62202 -7.1781,8.12171 l 0,15.7575 c 0,4.4997 3.2008,8.12171 7.1781,8.12171 z"
                 style="opacity:1;fill:#ffffff;fill-opacity:1;fill-rule:nonzero;stroke:none;stroke-width:0.99994594;stroke-linecap:butt;stroke-linejoin:miter;stroke-miterlimit:4;stroke-dasharray:none;stroke-dashoffset:0;stroke-opacity:1" /><path
                 id="path5959"
                 d="m 1522.4009,682.78375 0,-50.35781 11.5765,0 15.9688,0 c 4.4696,0 10.963,2.01955 10.8359,8.57656 0.2604,9.96229 -0.031,14.7721 -4.6969,17.075 4.301,3.72183 2.8563,9.01314 2.8563,14.52968 -0.021,5.66836 -2.8965,10.17656 -8.9953,10.17656 l -15.4079,0 -12.1374,0 z m 12.1374,-9.29617 9.0079,0 c 3.3732,-0.0161 3.4296,-2.70302 3.425,-6.256 -0.01,-3.93903 0.3705,-6.42432 -3.3203,-6.25564 -0.037,0.002 -0.067,-0.002 -0.1047,0 l -9.0079,0 z m 11.9188,-20.84914 c 2.9994,-0.10016 2.6641,-2.12747 2.6735,-5.82031 0,-3.55298 -0.052,-5.79953 -3.4251,-5.81563 l -11.1672,0 0,11.63125 11.2719,0 c 0.2307,0.0106 0.4469,0.0114 0.6469,0.005 z"
                 style="fill:#ffffff;fill-rule:evenodd;stroke:none;stroke-width:0.80000001px;stroke-linecap:butt;stroke-linejoin:miter;stroke-opacity:1"
                 inkscape:connector-curvature="0"
                 sodipodi:nodetypes="cccscccscccccccccccccccccc" /><path
                 sodipodi:nodetypes="ccccccccccc"
                 inkscape:connector-curvature="0"
                 id="path5975"
                 d="m 1428.0344,682.78375 0,-50.35781 11.2156,0 0.1547,31.125 16.9705,-31.125 14.5281,0 0,50.35781 -11.2156,0 -0.1547,-31.12656 -16.9705,31.12656 z"
                 style="fill:#ffffff;fill-rule:evenodd;stroke:none;stroke-width:0.80000001px;stroke-linecap:butt;stroke-linejoin:miter;stroke-opacity:1" /></g></g><g
             style="fill:#ffffff"
             transform="translate(-1037.2495,0)"
             id="g6134"><path
               style="fill:#ffffff;fill-rule:evenodd;stroke:none;stroke-width:0.80000001px;stroke-linecap:butt;stroke-linejoin:miter;stroke-opacity:1"
               d="m 1386.0056,240.08512 5.4798,0 0,24.4384 -5.332,-2.8e-4 -7.5102,-4.32058 2.4745,-4.41786 4.8879,2.52992 z"
               id="path6058"
               inkscape:connector-curvature="0"
               sodipodi:nodetypes="cccccccc" /><path
               style="fill:#ffffff;fill-rule:evenodd;stroke:none;stroke-width:0.31999999;stroke-linecap:butt;stroke-linejoin:miter;stroke-miterlimit:4;stroke-dasharray:none;stroke-opacity:1"
               d="m 1455.6168,240.08512 -15.848,0 0,4.66925 8.8392,9.55926 c 2.0049,2.69887 1.1796,4.30847 -0.8001,4.93092 -2.6494,0.83304 -6.9537,-0.26915 -8.0391,-0.21815 l 0,5.01509 c 2.3173,0.33921 5.1493,0.6 7.7947,0.4271 2.6299,-0.17189 4.1445,-0.51058 6.1241,-1.88879 2.3881,-1.6716 2.885,-7.87645 0.6337,-10.42 l -6.5545,-7.40543 7.85,0 z"
               id="path6060"
               inkscape:connector-curvature="0"
               sodipodi:nodetypes="ccccsccsccccc" /><path
               style="opacity:1;fill:#ffffff;fill-opacity:1;fill-rule:nonzero;stroke:none;stroke-width:0.40000001;stroke-linecap:butt;stroke-linejoin:miter;stroke-miterlimit:4;stroke-dasharray:none;stroke-dashoffset:0;stroke-opacity:1"
               d="m 1402.561,264.52352 c -3.264,0 -5.4922,-2.89555 -5.4922,-6.49402 0,-2.48278 0.8523,-4.63062 2.6999,-5.72442 -1.8476,-1.09381 -3.1,-3.24165 -3.1,-5.72444 0,-3.59847 2.6283,-6.49552 5.8923,-6.49552 l 5.6937,0 c 3.2639,0 5.8906,2.89705 5.8906,6.49552 0,2.48277 -1.2508,4.63062 -3.0984,5.72444 1.8476,1.09381 2.6987,3.24165 2.6987,5.72442 0,3.59847 -2.227,6.49402 -5.4909,6.49402 z m 2.8468,-4.00906 c 1.909,-0.0135 3.1862,-1.26847 2.6354,-3.43677 -0.4793,-0.98887 -0.9101,-2.64217 -2.6354,-2.64217 -1.7254,0 -2.1557,1.6533 -2.635,2.64217 -0.6684,1.79017 0.5198,3.43368 2.635,3.43677 z m -0.045,-10.33289 c 1.7255,0 2.716,-1.97354 3.1953,-2.96237 0.6684,-1.79018 -1.08,-3.43677 -3.1953,-3.43677 -1.9089,0.0134 -3.7461,1.26846 -3.1953,3.43677 0.4792,0.98883 1.4701,2.96237 3.1953,2.96237 z"
               id="rect6074"
               inkscape:connector-curvature="0"
               sodipodi:nodetypes="sscsssscsssccsccscccs" /><path
               style="opacity:1;fill:#ffffff;fill-opacity:1;fill-rule:nonzero;stroke:none;stroke-width:0.25;stroke-linecap:butt;stroke-linejoin:miter;stroke-miterlimit:4;stroke-dasharray:none;stroke-dashoffset:0;stroke-opacity:1"
               d="m 1424.5859,264.52352 c -3.6091,0 -6.5156,-2.51307 -6.5156,-5.63573 l 0,-3.52546 c 0,-3.12266 2.9065,-5.63573 6.5156,-5.63573 l 3.8547,0 c 0.4631,0 0.9132,0.0437 1.3484,0.12239 -0.116,-2.70227 -0.502,-4.95731 -4.0906,-5.04266 l -6.5171,0 0,-4.72102 8.9609,0 c 3.5564,-0.0273 6.7855,2.82319 6.8125,5.99345 l 0,8.43162 -0.091,-0.0565 c 0.055,0.29628 0.091,0.59825 0.091,0.90843 l 0,3.52546 c 0,3.12266 -2.9049,5.63573 -6.5141,5.63573 l -3.8547,0 z m 1.2625,-4.33035 1.3298,0 c 1.2454,0 2.2484,-1.04282 2.2484,-2.33776 l 0,-1.4607 c 0,-1.29494 -1.003,-2.33776 -2.2484,-2.33776 l -1.3298,0 c -1.2454,0 -2.2484,1.04282 -2.2484,2.33776 l 0,1.4607 c 0,1.29494 1.003,2.33776 2.2484,2.33776 z"
               id="rect6125"
               inkscape:connector-curvature="0" /></g></g></g></g></g></svg>