<?xml version="1.0" encoding="UTF-8" standalone="no"?>
<!-- Created with Inkscape (http://www.inkscape.org/) -->

<svg
   xmlns:dc="http://purl.org/dc/elements/1.1/"
   xmlns:cc="http://creativecommons.org/ns#"
   xmlns:rdf="http://www.w3.org/1999/02/22-rdf-syntax-ns#"
   xmlns:svg="http://www.w3.org/2000/svg"
   xmlns="http://www.w3.org/2000/svg"
   xmlns:sodipodi="http://sodipodi.sourceforge.net/DTD/sodipodi-0.dtd"
   xmlns:inkscape="http://www.inkscape.org/namespaces/inkscape"
   id="svg2"
   version="1.1"
   inkscape:version="0.91 r13725"
   xml:space="preserve"
   width="545"
   height="700"
   viewBox="0 0 545 700"
   sodipodi:docname="Logo Stade rochelais 2016.svg"><metadata
     id="metadata8"><rdf:RDF><cc:Work
         rdf:about=""><dc:format>image/svg+xml</dc:format><dc:type
           rdf:resource="http://purl.org/dc/dcmitype/StillImage" /><dc:title></dc:title></cc:Work></rdf:RDF></metadata><defs
     id="defs6" /><sodipodi:namedview
     pagecolor="#ffffff"
     bordercolor="#666666"
     borderopacity="1"
     objecttolerance="10"
     gridtolerance="10"
     guidetolerance="10"
     inkscape:pageopacity="0"
     inkscape:pageshadow="2"
     inkscape:window-width="1280"
     inkscape:window-height="691"
     id="namedview4"
     showgrid="false"
     inkscape:zoom="0.74408482"
     inkscape:cx="272.5"
     inkscape:cy="350"
     inkscape:window-x="0"
     inkscape:window-y="1"
     inkscape:window-maximized="1"
     inkscape:current-layer="g10" /><g
     id="g10"
     inkscape:groupmode="layer"
     inkscape:label="coloriage_logo"
     transform="matrix(1.25,0,0,-1.25,0,700)"><g
       id="g12"><path
         d="m 435.555,332.941 c 0,-46.519 -7.043,-101.281 -36.117,-164.503 C 342.168,43.793 217.766,0 217.766,0 217.766,0 93.387,43.793 36.117,168.438 7.047,231.66 0,286.422 0,332.941 c 0,98.493 30.051,195.934 30.051,195.934 0,0 73.039,31.125 187.715,31.125 114.695,0 187.734,-31.125 187.734,-31.125 0,0 30.055,-97.441 30.055,-195.934 z"
         style="fill:#7b7b7b;fill-opacity:1;fill-rule:nonzero;stroke:none"
         id="path14"
         inkscape:connector-curvature="0" /><g
         id="g16"
         transform="translate(0,560)"><path
           d="m 428.262,-227.055 c 0,-39.582 -6.391,-99.601 -35.403,-161.343 -57.57,-122.524 -175.082,-163.528 -175.082,-163.528 0,0 -117.531,41.004 -175.105,163.528 -29.008,61.742 -35.375,121.761 -35.375,161.343 0,94.957 28.765,190.243 28.765,190.243 0,0 69.11,29.464 181.715,29.464 112.578,0 181.696,-29.464 181.696,-29.464 0,0 28.789,-95.286 28.789,-190.243 z"
           style="fill:#000000;fill-opacity:1;fill-rule:nonzero;stroke:#040606;stroke-width:0.46582201;stroke-linecap:butt;stroke-linejoin:miter;stroke-miterlimit:10;stroke-dasharray:none;stroke-opacity:1"
           id="path18"
           inkscape:connector-curvature="0" /></g><path
         d="m 316.426,271.727 -109.414,15.14 c 66.183,22.492 96.008,-2.039 100.64,-9.535 11.414,26.816 -9.367,50.34 -9.367,50.34 l -31.051,6.504 0.782,21.429 -4.485,1.071 -1.578,-21.395 -43.324,9.078 c 9.82,-25.793 -3.996,-45.929 -11.711,-54.547 5.691,11.719 4.703,21.766 2.863,28.126 l -19.371,4.113 0.82,20.14 -4.488,1.071 -1.629,-20.086 -32.84,6.976 c 8.438,-26.257 -7.332,-45.222 -14.441,-52.117 l -13.547,1.832 c 23.192,-61.695 -20.777,-115.406 -20.777,-115.406 25.25,16.344 48.023,24.711 67.39,28.543 19.157,38.625 8.719,68.473 2.899,80.172 l -32.711,4.422 c 18.441,6.57 33.43,9.035 45.523,9.074 26.672,-59.43 -27.652,-120.113 -27.652,-120.113 43.223,29.132 91.109,35.75 116.055,34.589 48.101,-2.23 47.179,-29.769 47.179,-29.769 37.36,52.273 -5.765,100.348 -5.765,100.348 z"
         style="fill:#ffcc00;fill-opacity:1;fill-rule:nonzero;stroke:none"
         id="path20"
         inkscape:connector-curvature="0" /><path
         d="m 245.691,151.344 c 18.555,-2.035 23.926,-10.696 22.075,-20.469 -4.094,-23.973 -18.973,-39.43 -18.973,-39.43 32.223,23.172 39.672,48.754 48.906,52.141 10.063,3.699 9.504,-10.516 9.504,-10.516 0,0 16.723,32.711 -19.195,39.395 -34.301,6.387 -74.199,-3.973 -108.863,-21.383 -19.614,-9.848 -38.875,-23.988 -41.321,-26.734 18.531,11.277 61.34,32.121 107.867,26.996 z"
         style="fill:#ffcc00;fill-opacity:1;fill-rule:nonzero;stroke:none"
         id="path22"
         inkscape:connector-curvature="0" /><path
         d="m 196.93,497.793 -28.34,0 0,-7.422 10.215,0 0,-37.016 8.054,0 0,37.016 10.071,0 0,7.422 z"
         style="fill:#ffffff;fill-opacity:1;fill-rule:nonzero;stroke:none"
         id="path24"
         inkscape:connector-curvature="0" /><path
         d="m 248.207,460.777 -3.352,0 0,29.594 3.477,0 c 4.922,0 9.586,-2.789 9.586,-14.789 0,-12.012 -4.781,-14.805 -9.711,-14.805 z m 0.063,37.016 -13.852,0 2.625,-4.539 0,-39.899 11.23,0 c 7.278,0.016 17.348,2.547 17.348,22.219 0,19.672 -10.074,22.203 -17.351,22.219 z"
         style="fill:#ffffff;fill-opacity:1;fill-rule:nonzero;stroke:none"
         id="path26"
         inkscape:connector-curvature="0" /><path
         d="m 164.414,470.586 c -0.258,1.379 -0.82,2.523 -1.453,3.441 -0.629,0.914 -1.496,1.707 -2.594,2.375 -1.09,0.668 -2.476,1.629 -4.16,2.375 -1.836,0.836 -3.359,1.719 -4.445,2.297 -1.082,0.59 -1.899,1.137 -2.469,1.664 -0.559,0.52 -0.93,1.039 -1.082,1.563 -0.164,0.519 -0.242,1.137 -0.242,1.84 0,1.421 0.39,3.078 1.183,3.726 0.782,0.645 2.231,1.094 4.332,1.094 4.684,0 8.157,-0.949 9.336,-1.348 l 0,7.563 c -0.293,0.074 -4.605,1.281 -8.508,1.281 -4.679,0 -8.335,-0.848 -10.46,-3.059 -2.141,-2.207 -2.954,-5.566 -2.954,-9.812 0,-2.176 0.164,-3.488 0.481,-4.801 0.332,-1.312 0.859,-2.305 1.598,-3.219 0.75,-0.918 1.707,-1.711 2.878,-2.378 1.176,-0.668 2.637,-1.614 4.391,-2.489 1.641,-0.789 3.012,-1.48 3.965,-2.062 0.953,-0.586 1.68,-1.125 2.207,-1.633 0.508,-0.492 1.203,-1.559 1.203,-3.621 0,-1.633 -0.324,-3.399 -1.226,-4.063 -0.903,-0.668 -2.7,-1.129 -4.993,-1.129 -4.988,0 -8.644,1.059 -9.804,1.258 l 0,-7.597 c 0.328,-0.075 4.218,-1.164 9.492,-1.164 4.57,0 8.297,0.874 10.519,3.124 2.211,2.254 3.286,5.715 3.286,9.879 0,2.172 -0.219,3.516 -0.481,4.895 z"
         style="fill:#ffffff;fill-opacity:1;fill-rule:nonzero;stroke:none"
         id="path28"
         inkscape:connector-curvature="0" /><path
         d="m 209.73,470.223 4.375,18.078 4.368,-18.078 -8.743,0 z m 12.965,-16.868 8.325,0 -12.739,44.438 -12.332,0 2.633,-4.539 -11.414,-39.899 8.332,0 2.387,9.68 12.433,0 2.375,-9.68 z"
         style="fill:#ffffff;fill-opacity:1;fill-rule:nonzero;stroke:none"
         id="path30"
         inkscape:connector-curvature="0" /><path
         d="m 280.727,471.898 10.117,0 2.242,7.676 -12.359,0 0,10.797 13.699,0 0,7.422 -24.215,0 2.621,-4.539 0,-39.899 21.828,0 0,7.426 -13.933,0 0,11.117 z"
         style="fill:#ffffff;fill-opacity:1;fill-rule:nonzero;stroke:none"
         id="path32"
         inkscape:connector-curvature="0" /><path
         d="m 198.789,373.34 11.121,0 0,62.23 -11.121,0 0,-25.828 -19.394,0 0,25.828 -11.137,0 0,-62.23 11.137,0 0,25.933 19.394,0 0,-25.933 z"
         style="fill:#ffffff;fill-opacity:1;fill-rule:nonzero;stroke:none"
         id="path34"
         inkscape:connector-curvature="0" /><path
         d="m 143.547,382.582 c -6.543,0 -9.133,5.703 -8.563,21.879 0.563,16.18 3.551,21.867 10.094,21.867 3.961,0 8.344,-1.156 12.223,-4.387 l 3.129,9.641 c -4.434,3.508 -9.899,5.102 -14.989,5.102 -10.629,0 -20.3,-5.235 -21.246,-32.231 -0.945,-26.992 8.36,-32.23 18.993,-32.23 5.085,0 10.66,1.593 15.339,5.101 l -2.453,9.645 c -4.101,-3.227 -8.566,-4.387 -12.527,-4.387 z"
         style="fill:#ffffff;fill-opacity:1;fill-rule:nonzero;stroke:none"
         id="path36"
         inkscape:connector-curvature="0" /><path
         d="m 313.484,396.961 6.121,25.316 6.125,-25.316 -12.246,0 z m 18.157,-23.621 11.664,0 -17.836,62.23 -17.262,0 3.68,-6.355 -15.992,-55.875 11.679,0 3.324,13.558 17.414,0 3.329,-13.558 z"
         style="fill:#ffffff;fill-opacity:1;fill-rule:nonzero;stroke:none"
         id="path38"
         inkscape:connector-curvature="0" /><path
         d="m 232.449,399.309 14.172,0 3.141,10.753 -17.313,0 0,15.11 19.18,0 0,10.398 -33.902,0 3.671,-6.355 0,-55.875 30.559,0 0,10.402 -19.508,0 0,15.567 z"
         style="fill:#ffffff;fill-opacity:1;fill-rule:nonzero;stroke:none"
         id="path40"
         inkscape:connector-curvature="0" /><path
         d="m 292.734,383.742 -18.015,0 0,51.828 -14.805,0 3.668,-6.355 0,-55.875 26.113,0 3.039,10.402 z"
         style="fill:#ffffff;fill-opacity:1;fill-rule:nonzero;stroke:none"
         id="path42"
         inkscape:connector-curvature="0" /><path
         d="m 405.172,397.465 c -0.586,1.933 -1.559,3.543 -2.598,4.824 -1.035,1.281 -2.371,2.391 -4.019,3.324 -1.645,0.934 -3.735,2.282 -6.219,3.328 -2.703,1.168 -4.988,2.407 -6.602,3.219 -1.601,0.82 -2.843,1.59 -3.718,2.328 -0.883,0.731 -1.477,1.453 -1.778,2.184 -0.312,0.726 -0.527,1.59 -0.64,2.582 -0.239,1.988 0.047,4.308 1.047,5.211 0.996,0.902 2.941,1.539 5.878,1.539 6.567,0 11.575,-1.328 13.305,-1.887 l -1.851,10.727 c -0.422,0.105 -6.047,1.66 -11.524,1.66 -6.543,0 -11.523,-1.192 -14.148,-4.289 -2.629,-3.094 -3.211,-7.793 -2.516,-13.742 0.356,-3.043 0.801,-4.883 1.457,-6.719 0.672,-1.84 1.586,-3.223 2.766,-4.512 1.199,-1.281 2.664,-2.394 4.429,-3.328 1.747,-0.93 3.95,-2.258 6.543,-3.488 2.43,-1.106 4.465,-2.074 5.903,-2.887 1.422,-0.816 2.543,-1.578 3.351,-2.285 0.789,-0.688 1.946,-2.184 2.282,-5.07 0.269,-2.286 0.093,-4.762 -1.055,-5.688 -1.16,-0.937 -3.59,-1.582 -6.805,-1.582 -6.992,0 -12.269,1.481 -13.937,1.762 l 1.246,-10.645 c 0.476,-0.101 6.097,-1.625 13.48,-1.625 6.406,0 11.481,1.223 14.227,4.375 2.734,3.157 3.66,8.004 2.972,13.836 -0.351,3.039 -0.886,4.922 -1.476,6.848 z"
         style="fill:#ffffff;fill-opacity:1;fill-rule:nonzero;stroke:none"
         id="path44"
         inkscape:connector-curvature="0" /><path
         d="m 44.688,403.758 2.421,21.414 6.563,0 c 3.504,-0.004 5.742,-2.461 4.781,-10.969 -0.961,-8.508 -3.699,-10.437 -7.199,-10.445 l -6.566,0 z m 12.167,-30.418 11.766,0 -8.73,23.199 c 4.277,2.082 8.062,7.316 9.277,18.051 2.094,18.551 -7.254,20.957 -14.106,20.98 l -21.566,0 2.949,-6.355 -6.312,-55.875 11.125,0 2.347,20.797 6.477,0 6.773,-20.797 z"
         style="fill:#ffffff;fill-opacity:1;fill-rule:nonzero;stroke:none"
         id="path46"
         inkscape:connector-curvature="0" /><path
         d="m 95.258,381.906 c -6.547,0 -9.281,6.379 -8.531,22.555 0.746,16.18 4.05,22.547 10.597,22.547 6.535,0 9.274,-6.367 8.528,-22.547 -0.75,-16.176 -4.055,-22.555 -10.594,-22.555 z m 2.519,54.778 c -10.636,0 -20.355,-5.235 -21.601,-32.231 -1.246,-26.992 7.984,-32.23 18.625,-32.23 10.633,0 20.359,5.238 21.605,32.23 1.246,26.996 -7.992,32.231 -18.629,32.231 z"
         style="fill:#ffffff;fill-opacity:1;fill-rule:nonzero;stroke:none"
         id="path48"
         inkscape:connector-curvature="0" /><path
         d="m 357.977,435.57 4.882,-62.23 -11.117,0 -4.383,55.875 -4.175,6.355 14.793,0 z"
         style="fill:#ffffff;fill-opacity:1;fill-rule:nonzero;stroke:none"
         id="path50"
         inkscape:connector-curvature="0" /><path
         d="m 395.254,355.555 c 0.379,-7.539 0.586,-15.094 0.586,-22.594 0,-77.094 -26.563,-219.305 -178.063,-289.004 -151.496,69.699 -178.058,211.91 -178.058,289.004 0,7.5 0.207,15.055 0.582,22.594 l -11.699,0 c -0.356,-7.52 -0.555,-15.071 -0.555,-22.594 0,-30.641 4.844,-90.856 33.355,-152.344 51.41,-110.859 156.375,-149.578 156.375,-149.578 0,0 104.969,38.719 156.379,149.578 28.508,61.488 33.356,121.703 33.356,152.344 0,7.523 -0.2,15.074 -0.559,22.594 l -11.699,0 z"
         style="fill:#ffcc00;fill-opacity:1;fill-rule:nonzero;stroke:none"
         id="path52"
         inkscape:connector-curvature="0" /><path
         d="m 52.844,453.359 c 5.218,26.797 10.008,44.547 10.008,44.547 61.492,21.18 138.828,22.106 154.925,22.106 16.102,0 93.438,-0.926 154.93,-22.106 0,0 4.785,-17.75 10.004,-44.547 l 11.937,0 c -6.199,32.075 -12.308,53.653 -12.308,53.653 0,0 -61.942,24.754 -164.563,24.754 -102.617,0 -164.562,-24.754 -164.562,-24.754 0,0 -6.11,-21.578 -12.309,-53.653 l 11.938,0 z"
         style="fill:#ffcc00;fill-opacity:1;fill-rule:nonzero;stroke:none"
         id="path54"
         inkscape:connector-curvature="0" /></g></g></svg>