<?xml version="1.0" encoding="UTF-8" standalone="no"?>
<svg
   xmlns:dc="http://purl.org/dc/elements/1.1/"
   xmlns:cc="http://creativecommons.org/ns#"
   xmlns:rdf="http://www.w3.org/1999/02/22-rdf-syntax-ns#"
   xmlns:svg="http://www.w3.org/2000/svg"
   xmlns="http://www.w3.org/2000/svg"
   xmlns:sodipodi="http://sodipodi.sourceforge.net/DTD/sodipodi-0.dtd"
   xmlns:inkscape="http://www.inkscape.org/namespaces/inkscape"
   version="1.1"
   id="svg833"
   xml:space="preserve"
   width="560.539"
   height="800"
   viewBox="0 0 560.539 800"
   sodipodi:docname="Logo Rugby Club Massy Essonne - 2020.svg"
   inkscape:version="1.0 (4035a4f, 2020-05-01)"><metadata
     id="metadata839"><rdf:RDF><cc:Work
         rdf:about=""><dc:format>image/svg+xml</dc:format><dc:type
           rdf:resource="http://purl.org/dc/dcmitype/StillImage" /><dc:title /></cc:Work></rdf:RDF></metadata><defs
     id="defs837" /><sodipodi:namedview
     showguides="false"
     inkscape:document-rotation="0"
     pagecolor="#ffffff"
     bordercolor="#666666"
     borderopacity="1"
     objecttolerance="10"
     gridtolerance="10"
     guidetolerance="10"
     inkscape:pageopacity="0"
     inkscape:pageshadow="2"
     inkscape:window-width="1434"
     inkscape:window-height="756"
     id="namedview835"
     showgrid="false"
     inkscape:zoom="0.5036356"
     inkscape:cx="247.34545"
     inkscape:cy="431.37095"
     inkscape:window-x="0"
     inkscape:window-y="25"
     inkscape:window-maximized="1"
     inkscape:current-layer="g841" /><g
     id="g841"
     inkscape:groupmode="layer"
     inkscape:label="logo"
     transform="matrix(1.3333333,0,0,-1.3333333,-279.26194,1529.3233)"><path
       d="m 419.64859,1146.9918 c -24.56112,0.037 -47.54385,-1.4032 -71.3155,-5.7899 l -116.31562,-23.684 c -13.13227,-2.4669 -23.02435,-4.1044 -22.55498,-21.0526 l 7.29233,-351.84183 c 0.49716,-33.91741 7.62804,-31.83811 18.81656,-42.23549 L 396.62356,560.94016 c 6.90874,-6.52722 14.85431,-13.86211 23.02503,-13.94768 8.17071,0.0856 16.11774,7.42046 23.02649,13.94768 l 161.05217,141.44782 c 11.1885,10.39738 18.31794,8.31808 18.81509,42.23549 l 7.29236,351.84183 c 0.46933,16.9482 -9.42273,18.5857 -22.55499,21.0526 l -116.31563,23.684 c -23.77165,4.3867 -46.75438,5.8271 -71.31549,5.7899 z"
       style="fill:#009cdd;fill-opacity:1;stroke:none;stroke-width:0.149947;stroke-linecap:butt;stroke-linejoin:miter;stroke-miterlimit:4;stroke-dasharray:none;stroke-opacity:1"
       id="path1086" /><g
       transform="matrix(0.99964496,0,0,0.99964496,0.07436208,0.40722939)"
       id="g896"><path
         transform="matrix(0.75000002,0,0,-0.75000002,-240.61369,1146.9918)"
         d="m 1121.7617,563.35547 -49.6191,39.21094 c 0.1573,0.99701 0.2979,2.00417 0.4375,3.01171 z m -417.57615,55.84375 176.26367,151.32226 118.15625,-101.4375 c 1.68733,-4.05778 3.29083,-8.10538 4.64063,-12.07226 L 880.44922,754.04883 709.80469,619.19922 Z m 346.01365,0.70703 -2.7441,2.16992 c -0.632,2.39724 -1.3472,4.69381 -2.1309,6.90039 l 6.2676,-5.38086 c -0.4384,-1.26226 -0.8994,-2.49218 -1.3926,-3.68945 z"
         style="fill:#d4f0ff;fill-opacity:1;stroke:none;stroke-width:0.2;stroke-linecap:butt;stroke-linejoin:miter;stroke-miterlimit:4;stroke-dasharray:none;stroke-opacity:1"
         id="path1061" /><path
         id="path1081"
         style="fill:#d4f0ff;fill-opacity:1;stroke:none;stroke-width:0.15;stroke-linecap:butt;stroke-linejoin:miter;stroke-miterlimit:4;stroke-dasharray:none;stroke-opacity:1"
         d="m 238.73914,724.47519 26.37305,-22.64063 v 1.80029 z" /><path
         id="path1063"
         style="fill:#d4f0ff;fill-opacity:1;stroke:none;stroke-width:0.15;stroke-linecap:butt;stroke-linejoin:miter;stroke-miterlimit:4;stroke-dasharray:none;stroke-opacity:1"
         d="m 239.03211,799.78427 -2.20899,1.38575 1.91602,-66.56104 z" /><path
         id="path1069"
         style="fill:#d4f0ff;fill-opacity:1;stroke:none;stroke-width:0.15;stroke-linecap:butt;stroke-linejoin:miter;stroke-miterlimit:4;stroke-dasharray:none;stroke-opacity:1"
         d="m 417.61854,975.22129 -184.9336,-30.27393 3.18164,-110.52393 3.33252,2.46826 0.46143,102.78956 z" /><path
         d="M 600.7079,734.60898 599.78651,939.68125 421.8285,975.22129 606.7621,944.94736 Z"
         style="fill:#d4f0ff;fill-opacity:1;stroke:none;stroke-width:0.15;stroke-linecap:butt;stroke-linejoin:miter;stroke-miterlimit:4;stroke-dasharray:none;stroke-opacity:1"
         id="path1296"
         sodipodi:nodetypes="ccccc" /></g><g
       id="g1042"><g
         id="g900"
         transform="matrix(0.99964496,0,0,0.99964496,0.07436208,0.40722939)"><path
           sodipodi:nodetypes="cccc"
           id="path1059"
           d="m 386.2912,1100.1331 1.5e-4,-11.1883 H 232.6846 Z"
           style="fill:#002951;fill-opacity:1;stroke:none;stroke-width:0.75px;stroke-linecap:butt;stroke-linejoin:miter;stroke-opacity:1" /><path
           style="fill:#002951;fill-opacity:1;stroke:none;stroke-width:0.75px;stroke-linecap:butt;stroke-linejoin:miter;stroke-opacity:1"
           d="m 453.15584,1100.1331 -1.5e-4,-11.1883 h 153.60675 z"
           id="path1290"
           sodipodi:nodetypes="cccc" /></g><g
         id="g998"
         transform="matrix(0.99964496,0,0,0.99964496,449.91426,0.40722939)"
         style="fill:#d4f0ff;fill-opacity:1;stroke:none"><path
           sodipodi:nodetypes="cccccccccccccc"
           transform="matrix(0.75000002,0,0,-0.75000002,-240.61369,1146.9918)"
           d="M 250.77734,181.68359 V 86.371094 h -81.4082 V 195.21289 l 35.74024,-5.93945 v -24.22071 h 9.92773 v 22.57032 z m -45.66796,-78.92968 h 9.92773 v 45.91797 h -9.92773 z"
           style="fill:#d4f0ff;fill-opacity:1;fill-rule:evenodd;stroke:none;stroke-width:1"
           id="rect1021" /><path
           sodipodi:nodetypes="ccccccccccccccccccc"
           transform="matrix(0.75000002,0,0,-0.75000002,-240.61369,1146.9918)"
           d="m 261.83789,86.371094 v 67.681636 h 46 v 27.25 l 35.74023,5.94141 v -49.57226 h -46 v -34.91797 h 10.25977 v 24.35156 h 35.74023 V 86.371094 Z m 0,78.248046 v 15.22656 l 18.61133,-3.09375 17.1289,2.84571 v -14.97852 z"
           style="fill:#d4f0ff;fill-opacity:1;fill-rule:evenodd;stroke:none;stroke-width:1"
           id="path966" /><path
           sodipodi:nodetypes="cccccccccccccccccc"
           transform="matrix(0.75000002,0,0,-0.75000002,-240.61369,1146.9918)"
           d="m 354.53711,86.371094 v 67.681636 h 46 v 42.65625 l 35.74023,5.93946 v -64.97656 h -46 v -34.91797 h 10.25977 v 24.35156 h 35.74023 V 86.371094 Z m 0,78.248046 v 24.44531 l 35.74023,5.93946 v -30.38477 z"
           style="fill:#d4f0ff;fill-opacity:1;fill-rule:evenodd;stroke:none;stroke-width:1"
           id="path964" /><path
           sodipodi:nodetypes="ccccccccccccccc"
           transform="matrix(0.75000002,0,0,-0.75000002,-240.61369,1146.9918)"
           d="m 446.53711,86.371094 v 69.681636 h 47.55664 v 42.1836 h -11.81641 v -31.61719 h -35.74023 v 37.73438 l 83.29687,13.84375 V 86.371094 H 494.09375 V 139.67188 H 482.27734 V 86.371094 Z"
           style="fill:#d4f0ff;fill-opacity:1;fill-rule:evenodd;stroke:none;stroke-width:1"
           id="path960" /><path
           sodipodi:nodetypes="ccccccccccccc"
           transform="matrix(0.75000002,0,0,-0.75000002,-240.61369,1146.9918)"
           d="M 31.064453,86.371094 V 218.19727 l 35.740235,-5.93946 v -109.5039 h 10.412109 v 107.77343 l 35.740233,-5.93945 V 102.75391 h 10.41211 v 100.10351 l 35.74024,-5.93945 V 86.371094 Z"
           style="fill:#d4f0ff;fill-opacity:1;fill-rule:evenodd;stroke:none;stroke-width:1"
           id="path924" /></g><g
         id="g1055"
         transform="matrix(0.99964496,0,0,0.99964496,0.17082782,0.40722939)"><path
           d="m 395.71857,1123.7228 v -34.7784 h 9.86573 v 8.7349 h 2.58544 v -8.7349 h 9.86573 v 8.1607 l -2.85352,2.7641 2.85352,2.7657 v 21.0879 z m 9.86573,-4.73 h 2.58544 v -17.2105 h -2.58544 z"
           style="fill:#d4f0ff;fill-opacity:1;fill-rule:evenodd;stroke:none;stroke-width:0.75"
           id="rect1000" /><path
           d="m 421.21857,1123.7228 v -34.7784 h 22.3169 v 10.6729 h -9.86573 v -6.104 h -2.58544 v 25.4795 h 2.58544 v -13.3257 h 9.86573 v 18.0557 z"
           style="fill:#d4f0ff;fill-opacity:1;fill-rule:evenodd;stroke:none;stroke-width:0.75"
           id="rect1004" /></g><g
         id="g1313"
         transform="matrix(0.99964496,0,0,0.99964496,0.07436208,0.40722939)"><path
           transform="matrix(0.75000002,0,0,-0.75000002,-240.61369,1146.9918)"
           d="m 1048.0371,213.50391 v 33.35156 l 81.7969,13.41211 v -33.16992 z"
           style="fill:#002951;fill-opacity:1;stroke:none;stroke-width:0.2;stroke-linecap:butt;stroke-linejoin:miter;stroke-miterlimit:4;stroke-dasharray:none;stroke-opacity:1"
           id="path1065" /><g
           id="g1301"><path
             id="path1230"
             style="fill:#d4f0ff;fill-opacity:1;fill-rule:evenodd;stroke:none;stroke-width:0.15;stroke-miterlimit:4;stroke-dasharray:none"
             d="m 527.03012,989.91953 v -25.05469 l 15.35596,-2.51806 v 3.479 l -8.24854,1.3711 v 5.55175 l 5.24854,-0.87304 v 3.67529 l -5.24854,0.87304 v 9.07325 l 8.24854,-1.3711 v 3.2417 z" /><path
             style="fill:#d4f0ff;fill-opacity:1;fill-rule:evenodd;stroke:none;stroke-width:0.15;stroke-miterlimit:4;stroke-dasharray:none"
             d="m 509.78598,992.78476 v -25.09277 l 7.10889,-1.16455 v 21.83496 l 1.71094,-0.28418 v -21.83203 l 7.10742,-1.16455 v 25.05615 z"
             id="path1179" /><path
             style="fill:#d4f0ff;fill-opacity:1;fill-rule:evenodd;stroke:none;stroke-width:0.15;stroke-miterlimit:4;stroke-dasharray:none"
             d="m 492.31186,995.68955 v -25.13232 l 7.10742,-1.16456 v 21.87452 l 1.71094,-0.28418 v -21.87159 l 7.10742,-1.16454 v 25.0957 z"
             id="path1175" /><path
             id="path1171"
             style="fill:#d4f0ff;fill-opacity:1;fill-rule:evenodd;stroke:none;stroke-width:0.15;stroke-miterlimit:4;stroke-dasharray:none"
             d="m 474.67368,998.62071 v -25.17042 l 15.92724,-2.61181 v 25.13525 z m 7.10742,-4.42237 1.71093,-0.28418 v -18.3003 l -1.71093,0.28419 z" /><path
             id="path1259"
             style="fill:#d4f0ff;fill-opacity:1;fill-rule:evenodd;stroke:none;stroke-width:0.15;stroke-miterlimit:4;stroke-dasharray:none"
             d="m 457.20102,1001.524 v -15.99021 l 8.81835,-1.46631 v -5.55029 l -1.71093,0.28417 v 3.9756 l -7.10742,1.18212 v -7.64355 l 15.92578,-2.61182 v 12.8584 l -8.81836,1.46631 v 9.07324 l 1.71093,-0.28418 v -7.5 l 7.10743,-1.18066 v 10.74023 z"
             sodipodi:nodetypes="ccccccccccccccccc" /><path
             id="rect1057"
             style="fill:#d4f0ff;fill-opacity:1;fill-rule:evenodd;stroke:none;stroke-width:0.15;stroke-miterlimit:4;stroke-dasharray:none"
             d="m 422.75082,1007.2488 v -25.28484 l 15.15967,-2.48583 v 3.71044 l -8.05225,1.33887 v 5.55029 l 5.05225,-0.83935 v 3.67529 l -5.05225,0.83936 v 9.07467 l 8.05225,-1.3388 v 3.2417 z"
             sodipodi:nodetypes="ccccccccccccc" /><path
             id="path1254"
             style="fill:#d4f0ff;fill-opacity:1;fill-rule:evenodd;stroke:none;stroke-width:0.15;stroke-miterlimit:4;stroke-dasharray:none"
             d="m 439.72543,1004.4288 v -15.99023 l 8.81836,-1.46484 v -5.55176 l -1.71094,0.28418 v 3.97559 l -7.10742,1.18066 v -7.68164 l 15.92725,-2.61182 v 12.89796 l -8.81983,1.46631 v 9.07319 l 1.71094,-0.28414 v -7.5 l 7.10889,-1.18213 v 10.74167 z"
             sodipodi:nodetypes="ccccccccccccccccc" /></g><path
           sodipodi:nodetypes="ccccc"
           id="path1284"
           style="fill:#002951;fill-opacity:1;stroke:none;stroke-width:0.2;stroke-linecap:butt;stroke-linejoin:miter;stroke-miterlimit:4;stroke-dasharray:none;stroke-opacity:1"
           d="m 880.44922,185.65234 -249.38477,41.44532 v 33.16992 L 880.44922,219.375 Z"
           transform="matrix(0.75000002,0,0,-0.75000002,-240.61369,1146.9918)" /></g></g><g
       transform="matrix(0.99964496,0,0,0.99964496,0.07436208,0.40722939)"
       id="g1017"><path
         style="fill:#d4f0ff;fill-opacity:1;stroke:none;stroke-width:0.15;stroke-linecap:butt;stroke-linejoin:miter;stroke-miterlimit:4;stroke-dasharray:none;stroke-opacity:1"
         d="m 428.54306,741.98029 c 9.35934,-16.02769 17.87477,-32.51753 12.76767,-56.46732 11.58276,27.6013 24.40486,37.85204 36.98675,51.46555 17.74836,-40.65442 19.95171,-76.53297 -20.27032,-99.37721 5.7625,18.47513 15.50848,36.44328 2.89576,57.25707 -4.74684,-10.90303 -10.50323,-23.29248 -18.47235,-32.45536 -12.73292,-14.64029 -29.7706,-25.7478 -49.57801,-36.648 17.50327,25.00552 30.97928,46.88478 36.43532,64.46338 6.59842,21.25917 2.76524,39.41858 -0.76482,51.76189 z"
         id="path1319"
         sodipodi:nodetypes="cccccscsc" /><path
         style="fill:#d4f0ff;fill-opacity:1;stroke:none;stroke-width:0.15;stroke-linecap:butt;stroke-linejoin:miter;stroke-miterlimit:4;stroke-dasharray:none;stroke-opacity:1"
         d="m 580.3072,719.34071 c -5.64672,12.18183 -20.98648,49.12479 -40.96255,64.56224 -12.84499,9.92657 -30.48555,15.61766 -55.95071,13.75491 7.77516,-6.66187 15.52373,-13.37374 23.0577,-18.67699 7.51411,-5.28927 13.23181,-8.88273 18.90584,-11.00877 8.70439,-3.26151 17.08004,-10.41076 24.6757,-17.21646 10.6166,-9.51245 20.29715,-20.63996 30.27402,-31.41493 z"
         id="path1323"
         sodipodi:nodetypes="cscsssc" /><path
         style="fill:#d4f0ff;fill-opacity:1;stroke:none;stroke-width:0.225;stroke-linecap:butt;stroke-linejoin:miter;stroke-miterlimit:4;stroke-dasharray:none;stroke-opacity:1"
         d="m 583.54114,756.54952 c -5.16211,16.88583 -14.01268,31.2199 -28.80728,41.44174 -12.52069,8.65077 -31.16012,14.2399 -51.70108,15.49581 4.14653,8.45403 12.58139,13.56107 26.89817,14.07734 -24.81776,4.8981 -44.70357,20.89306 -64.68591,36.67086 13.28999,-5.18659 27.14929,-3.61212 40.0243,-2.48195 7.81435,0.68595 23.39054,-0.3669 35.08581,-1.61327 -22.32463,10.5945 -33.50331,15.02377 -49.40893,16.68349 -25.92021,2.39774 -41.8643,5.38497 -46.73573,35.15831 20.35214,3.79572 37.13173,4.09812 51.76302,2.25414 27.87025,-3.51249 51.85468,-12.29993 70.06986,-24.59172 l -55.93702,2.32683 c 66.24865,-20.1536 72.85909,-40.99412 84.8828,-56.12317 -19.16032,9.49829 -40.00714,13.54024 -63.38288,9.4004 16.61471,-7.99649 26.51662,-16.92965 32.75835,-26.37353 13.1112,-19.83755 17.42501,-42.11477 19.17652,-62.32528 z"
         id="path874"
         sodipodi:nodetypes="cscccscccsccccsc" /><path
         style="fill:#d4f0ff;fill-opacity:1;stroke:none;stroke-width:0.15;stroke-linecap:butt;stroke-linejoin:miter;stroke-miterlimit:4;stroke-dasharray:none;stroke-opacity:1"
         d="m 527.65702,917.56864 c -43.98684,15.05731 -86.39351,18.68157 -126.16715,3.25516 l 9.58654,13.5887 c -16.54434,2.87877 -31.73488,-3.26786 -46.81584,-10.14498 7.57479,10.87066 16.52937,19.81569 29.49487,29.052 8.63427,6.15084 21.04148,12.7732 35.93562,17.01926 l 19.82461,-4.83981 -18.05621,-14.42636 c 23.9004,0.30699 40.92618,-2.68399 54.22148,-7.46459 18.33932,-6.59427 31.16292,-16.77979 41.97608,-26.03938 z"
         id="path876"
         sodipodi:nodetypes="ccccscccsc" /><path
         style="fill:#d4f0ff;fill-opacity:1;stroke:none;stroke-width:0.15;stroke-linecap:butt;stroke-linejoin:miter;stroke-miterlimit:4;stroke-dasharray:none;stroke-opacity:1"
         d="m 496.14536,729.27906 c 16.94807,-0.261 25.78558,-6.16413 31.36569,-14.33328 1.1632,12.69 -2.82628,26.43256 -11.07572,41.0453 29.65003,-18.13037 43.16311,-47.36296 41.78988,-86.83734 -3.47879,11.22019 -5.25258,23.03944 -17.49776,31.17954 0.25238,-28.58474 -12.64473,-39.72627 -24.10597,-52.77253 5.93119,15.10514 8.16206,32.44177 1.64005,49.72296 -3.8938,10.31729 -11.0936,22.80803 -22.11617,31.99535 z"
         id="path1321"
         sodipodi:nodetypes="ccccccsc" /><path
         id="path913"
         style="fill:#d4f0ff;fill-opacity:1;stroke:none;stroke-width:0.15;stroke-linecap:butt;stroke-linejoin:miter;stroke-miterlimit:4;stroke-dasharray:none;stroke-opacity:1"
         d="m 316.26543,886.24228 -25.53516,-28.69482 c -3.9954,-4.1844 -6.97762,-6.12232 -10.66113,-7.23926 -21.39398,-5.79833 -41.42261,-19.64424 -44.18408,-28.14991 -2.22073,-6.84013 3.50019,-18.04832 12.84521,-19.07666 4.6745,-0.51439 10.6645,2.50191 18.04395,12.34571 -14.21115,0.35427 -21.36994,0.87216 -20.8916,5.64258 0.45304,4.51796 9.44047,14.28785 23.7876,22.26123 v -38.43457 c 0.17439,-18.04979 15.8052,-30.76053 37.90869,-30.65479 h 18.55957 c 4.5948,-0.13659 6.50524,-2.90393 6.31787,-8.042 v -30.01171 c 0.44994,-17.47249 -10.93657,-32.28077 -27.77344,-32.24708 h -23.29834 l -9.08203,20.00685 0.13184,-34.61719 40.80468,-0.13184 c 9.17316,-0.37732 30.48008,4.90599 39.72657,14.37891 7.86171,8.05422 12.59639,16.92145 12.1333,33.92724 v 115.12061 c 0.0719,12.96588 -8.84414,27.01905 -25.79883,27.03516 l -27.2461,0.13184 z m 25.65674,-19.21436 c -8.47684,-4.71519 -15.85619,-7.13654 -27.27099,-17.68505 -3.36536,-3.10997 -4.11579,-6.25224 -5.02735,-6.40723 -1.44704,-0.24604 -1.96564,1.81684 -2.69677,3.52295 -3.19823,-1.75558 -2.74092,-3.55744 -0.55811,-6.32959 -9.53584,-7.9551 -19.64313,-13.52128 -26.06104,-17.49756 l 23.45508,17.40527 c -1.45031,1.55177 -2.59246,3.3768 -2.54736,4.55713 0.0618,1.6184 1.48008,2.72297 2.91943,3.81885 -0.18669,8.08974 1.93253,12.77686 5.72608,14.99414 4.37725,2.55846 13.40337,2.47971 18.84521,-0.75439 4.40547,1.81203 8.81035,3.76009 13.21582,4.37548 z m -10.33154,-9.21533 0.27978,-2.23242 1.30371,0.37207 c 0.64275,-2.82323 -0.6593,-5.04737 -1.11767,-7.87061 v -48.25342 c 13.57615,-7.66446 15.64689,-18.48417 16.56738,-23.82567 -3.19513,5.79184 -7.93592,10.95017 -16.56738,14.51806 H 312.325 c -3.84262,-0.0985 -7.8206,2.24179 -8.0039,7.81934 v 35.74218 l 11.354,6.04688 c 3.04634,-3.39775 6.57335,-2.75037 9.41894,-0.20654 2.1242,1.89893 5.51385,6.43947 5.56641,12.86425 l -6.51562,-1.9541 c 1.84667,2.60252 4.36588,5.11741 7.4458,6.97998 z" /><path
         id="path1315"
         style="fill:#d4f0ff;fill-opacity:1;stroke:none;stroke-width:0.225;stroke-linecap:butt;stroke-linejoin:miter;stroke-miterlimit:4;stroke-dasharray:none;stroke-opacity:1"
         d="m 426.1847,807.2916 v -38.65577 c 50.2686,-8.90131 67.98246,-19.86652 87.38819,-26.7876 -17.19194,25.29139 -51.33927,47.264 -87.38819,65.44337 z" /><path
         id="path971"
         style="fill:#d4f0ff;fill-opacity:1;stroke:none;stroke-width:0.225;stroke-linecap:butt;stroke-linejoin:miter;stroke-miterlimit:4;stroke-dasharray:none;stroke-opacity:1"
         d="m 426.1847,841.21298 v -28.61572 l 55.79737,-4.31397 c -17.62881,14.68136 -36.33319,25.25647 -55.79737,32.92969 z" /><path
         id="path969"
         style="fill:#d4f0ff;fill-opacity:1;stroke:none;stroke-width:0.225;stroke-linecap:butt;stroke-linejoin:miter;stroke-miterlimit:4;stroke-dasharray:none;stroke-opacity:1"
         d="m 426.1847,871.22177 v -18.70752 c 8.95885,-0.68486 16.58331,-2.39911 23.5503,-4.3125 -6.99406,8.35792 -14.88014,16.00286 -23.5503,23.02002 z" /><path
         id="path965"
         style="fill:#d4f0ff;fill-opacity:1;stroke:none;stroke-width:0.225;stroke-linecap:butt;stroke-linejoin:miter;stroke-miterlimit:4;stroke-dasharray:none;stroke-opacity:1"
         d="m 364.77259,894.46738 h 14.53711 v -137.34668 -30.81299 -4.4751 h 24.36768 c -1.80979,9.69685 -4.74433,17.59953 -7.90869,23.83301 6.32081,-2.84795 11.74817,-8.59643 17.01269,-14.87696 v 20.88867 6.542 87.77637 c -5.57916,1.79684 -11.19612,3.45013 -16.88232,4.83838 6.1104,1.06081 11.70095,1.64579 16.88232,1.87939 v 28.3711 c -10.28402,6.96021 -21.43072,13.23063 -33.47168,18.78516 -0.0429,0.0198 -0.0831,0.0418 -0.12598,0.0615 0.0376,0.0443 0.0882,0.0861 0.12598,0.13037 3.55282,4.1603 7.89539,8.16158 13.16748,11.97803 H 379.3097 368.65297 c -1.3323,-0.30122 -2.58463,-0.78249 -3.88038,-1.16602 z" /><path
         id="path996"
         style="fill:#d4f0ff;fill-opacity:1;stroke:none;stroke-width:0.225;stroke-linecap:butt;stroke-linejoin:miter;stroke-miterlimit:4;stroke-dasharray:none;stroke-opacity:1"
         d="M 367.33753,944.42002 C 347.32069,928.04128 324.53661,909.65741 319.63197,893.275 l 23.64404,-0.11426 c 2.11934,-0.002 4.11323,-0.22314 5.9795,-0.63428 0.75714,-0.1668 1.40016,-0.49193 2.11523,-0.71923 v 13.84716 c -4.98416,-2.42271 -9.84055,-5.13193 -14.70264,-7.82959 5.23479,14.28477 18.78184,30.64723 30.66943,46.59522 z" /><path
         id="path1317"
         style="fill:#d4f0ff;fill-opacity:1;stroke:none;stroke-width:0.15;stroke-linecap:butt;stroke-linejoin:miter;stroke-miterlimit:4;stroke-dasharray:none;stroke-opacity:1"
         d="M 405.21547,708.43075 H 373.4181 c -1.2505,-3.41015 -3.62223,-6.65971 -6.12744,-9.89062 20.34871,-6.84689 25.89666,-24.79465 31.15869,-42.95655 6.0874,20.99805 7.63504,38.41902 6.76612,52.84717 z" /></g></g></svg>
