<?xml version="1.0" encoding="UTF-8"?>
<!DOCTYPE svg PUBLIC "-//W3C//DTD SVG 1.1//EN" "http://www.w3.org/Graphics/SVG/1.1/DTD/svg11.dtd">
<!-- Creator: CorelDRAW X6 -->
<svg xmlns="http://www.w3.org/2000/svg" xml:space="preserve" width="6.94444in" height="8.88889in" version="1.1" style="shape-rendering:geometricPrecision; text-rendering:geometricPrecision; image-rendering:optimizeQuality; fill-rule:evenodd; clip-rule:evenodd"
viewBox="0 0 6944 8889"
 xmlns:xlink="http://www.w3.org/1999/xlink">
 <defs>
  <style type="text/css">
   <![CDATA[
    .fil3 {fill:#1C6B36;fill-rule:nonzero}
    .fil2 {fill:#208845;fill-rule:nonzero}
    .fil1 {fill:#48AD61;fill-rule:nonzero}
    .fil0 {fill:black;fill-rule:nonzero}
    .fil4 {fill:white;fill-rule:nonzero}
   ]]>
  </style>
 </defs>
 <g id="Layer_x0020_1">
  <metadata id="CorelCorpID_0Corel-Layer"/>
  <path class="fil0" d="M251 1745c-237,847 -1186,5111 3223,7144 2760,-1272 3421,-3418 3471,-5054l0 -415c-23,-785 -171,-1405 -247,-1676l-6447 0z"/>
  <path class="fil1" d="M4652 6043c-48,22 -134,78 -255,82l0 212 1453 -87 -4 -207 -22 0c-104,-4 -136,28 -166,2 -103,-62 -229,-277 -377,-769 -136,-503 -262,-1110 -370,-2061 0,-69 35,-117 95,-143l52 -22 100 -9 0 -208 -904 -87 -882 2444 -882 -2444 -904 87 0 208 99 9 52 22c60,26 95,74 95,143 -108,951 -234,1558 -369,2061 -148,492 -275,708 -377,769 -30,26 -62,-6 -166,-2l-22 0 -4 207 1453 87 0 -212c-121,-4 -208,-61 -255,-82 -82,-39 -165,-128 -165,-193 -41,-586 111,-1254 364,-2817l1081 2928 1081 -2928c254,1563 405,2231 364,2817 0,65 -83,154 -165,193z"/>
  <path class="fil2" d="M5731 4179l-130 -752 -368 56c73,195 -100,234 -523,125 -467,-108 -1016,-160 -1643,-160 -402,0 -783,26 -1137,78 -355,52 -640,121 -865,216 -216,95 -333,199 -342,311 0,212 177,368 536,467 363,104 804,177 1315,217l1509 125c489,43 761,104 813,190 9,13 17,43 17,82 0,104 -121,182 -359,247 -242,60 -536,95 -891,95 -471,-4 -938,-65 -1401,-173 -458,-112 -822,-281 -1094,-510l-445 43 74 804 329 -39c-13,-247 199,-307 644,-177 597,130 1224,195 1881,195 420,0 804,-26 1155,-78 355,-52 640,-121 848,-212 216,-91 337,-186 359,-294 9,-17 9,-43 9,-78 0,-186 -156,-329 -467,-428 -316,-104 -658,-173 -1029,-208 -394,-39 -861,-78 -1401,-108 -562,-35 -904,-69 -1021,-104 -216,-60 -333,-130 -350,-208 9,-86 134,-156 376,-216 251,-56 545,-86 886,-86 268,0 541,21 830,65 272,39 541,108 800,199 255,99 467,216 640,359l445 -43z"/>
  <path class="fil3" d="M3534 2280l0 212c44,18 79,41 105,68 43,46 65,110 65,191l87 3107c0,161 -56,292 -235,369 -55,24 -95,35 -184,40 -89,-5 -129,-17 -184,-40 -178,-77 -235,-208 -235,-369l87 -3107c0,-82 22,-146 65,-191 26,-28 61,-50 105,-68l0 -212 -825 43 0 178c70,14 86,-10 133,15 103,54 154,146 154,276l-86 3110c0,147 56,359 240,482 137,91 281,131 546,142 265,-12 409,-51 546,-142 184,-123 240,-335 240,-482l-87 -3110c0,-130 51,-223 154,-276 47,-25 63,-1 133,-15l0 -178 -825 -43z"/>
  <path class="fil4" d="M3041 7373l253 377c42,63 72,102 90,115 18,13 39,22 63,24l0 24 -450 0 0 -24c36,-3 59,-8 69,-16 10,-8 16,-18 16,-30 0,-8 -1,-15 -5,-22 -6,-14 -22,-39 -48,-76l-134 -197 -140 170c-42,52 -63,88 -63,106 0,13 6,25 16,37 11,11 27,19 48,24 9,3 29,4 58,4l0 24 -354 0 0 -24c40,-6 72,-17 95,-33 30,-21 73,-65 127,-131l183 -221 -234 -345c-38,-57 -60,-88 -66,-95 -12,-15 -24,-26 -36,-32 -12,-6 -28,-11 -49,-14l0 -25 457 0 0 25 -23 0c-26,0 -45,4 -55,13 -11,8 -16,19 -16,31 0,10 2,19 5,26l47 71 115 171 95 -115c50,-61 75,-104 75,-129 0,-12 -3,-23 -11,-34 -7,-10 -17,-19 -30,-24 -13,-6 -33,-9 -61,-9l0 -25 338 0 0 25c-26,0 -48,4 -64,10 -16,6 -34,18 -52,34 -12,11 -41,45 -88,102l-173 209z"/>
  <path class="fil4" d="M4461 6993l0 25c-33,5 -63,23 -89,54 -19,23 -47,76 -85,160l-316 704 -23 0 -314 -733c-38,-88 -63,-140 -76,-156 -13,-16 -37,-25 -73,-29l0 -25 440 0 0 25 -15 0c-40,0 -67,5 -81,15 -10,7 -15,17 -15,30 0,8 2,18 5,29 4,11 16,41 37,90l197 458 181 -408c22,-49 35,-82 40,-99 5,-17 7,-31 7,-43 0,-14 -4,-26 -11,-36 -7,-11 -18,-19 -32,-24 -19,-7 -45,-12 -77,-12l0 -25 301 0z"/>
  <path class="fil0" d="M648 348l176 -337 261 0 0 13 -21 0c-19,0 -34,3 -46,8 -8,4 -14,10 -19,18 -3,6 -5,22 -5,48l0 337c0,26 2,43 5,49 4,7 11,12 22,17 11,5 25,7 43,7l21 0 0 13 -337 0 0 -13 21 0c19,0 34,-3 46,-8 8,-4 14,-10 19,-18 4,-6 5,-22 5,-48l0 -379 -247 466 -11 0 -251 -462 0 360c0,25 1,41 2,47 4,13 13,23 27,31 14,8 35,12 64,12l0 13 -221 0 0 -13 7 0c14,0 28,-2 40,-6 12,-4 22,-9 28,-16 6,-7 11,-16 15,-28 1,-3 1,-16 1,-39l0 -323c0,-26 -2,-43 -5,-49 -3,-7 -11,-12 -22,-17 -11,-5 -25,-8 -44,-8l-21 0 0 -13 264 0 182 337z"/>
  <path class="fil0" d="M1490 4c102,-3 186,21 250,71 64,50 96,114 96,189 0,65 -24,122 -72,171 -63,65 -153,98 -268,98 -116,0 -205,-31 -269,-93 -50,-49 -75,-108 -75,-175 0,-76 33,-139 97,-189 65,-51 145,-74 240,-71zm6 24c-59,0 -103,24 -134,72 -25,39 -37,96 -37,169 0,87 19,152 58,193 27,29 64,44 112,44 33,0 59,-6 81,-19 28,-16 49,-42 65,-77 16,-35 23,-81 23,-138 0,-68 -8,-118 -24,-152 -16,-34 -36,-57 -60,-71 -24,-14 -53,-21 -84,-21z"/>
  <path class="fil0" d="M2125 11l317 314 0 -217c0,-31 -6,-52 -17,-63 -15,-15 -41,-22 -77,-21l0 -13 213 0 0 13c-27,3 -45,6 -55,11 -9,4 -16,12 -21,22 -5,10 -8,27 -8,52l0 425 -16 0 -434 -423 0 323c0,30 9,50 26,60 17,10 37,16 59,16l15 0 0 13 -230 0 0 -13c35,0 60,-6 74,-18 14,-11 21,-31 21,-58l0 -359 -15 -14c-14,-14 -26,-24 -36,-28 -11,-4 -26,-7 -45,-7l0 -13 229 0z"/>
  <path class="fil0" d="M3212 11l0 138 -16 0c-10,-32 -21,-55 -34,-68 -13,-14 -30,-25 -51,-33 -12,-5 -33,-7 -63,-7l-48 0 0 394c0,26 2,43 5,49 3,7 11,12 21,17 11,5 25,7 43,7l21 0 0 13 -337 0 0 -13 21 0c19,0 34,-3 45,-8 8,-4 15,-10 19,-18 4,-6 5,-22 5,-48l0 -394 -48 0c-44,0 -76,7 -96,22 -28,20 -45,49 -53,87l-16 0 0 -138 580 0z"/>
  <path class="fil0" d="M3590 375l-226 0 -28 50c-9,17 -13,31 -13,42 0,15 7,25 22,32 8,4 30,7 63,9l0 13 -214 0 0 -13c23,-3 42,-11 57,-23 15,-13 33,-39 55,-78l230 -407 9 0 232 419c22,41 40,66 55,77 11,8 26,13 45,14l0 13 -312 0 0 -13 13 0c25,0 42,-3 53,-8 7,-4 11,-10 11,-18 0,-5 -1,-9 -3,-14 -1,-2 -5,-12 -14,-29l-35 -64zm-15 -28l-96 -174 -98 174 194 0z"/>
  <path class="fil0" d="M3922 11l332 0 0 13 -17 0c-25,0 -42,2 -51,6 -9,4 -16,10 -20,17 -4,7 -6,26 -6,55l0 250c0,46 4,76 13,91 9,15 23,27 43,37 20,10 45,15 76,15 35,0 64,-6 89,-19 24,-12 43,-30 55,-51 12,-22 18,-60 18,-114l0 -208c0,-23 -3,-40 -9,-50 -6,-10 -13,-17 -23,-21 -14,-6 -34,-9 -60,-9l0 -13 222 0 0 13 -13 0c-18,0 -33,3 -45,9 -12,6 -21,15 -26,26 -4,8 -6,23 -6,44l0 194c0,60 -5,103 -15,130 -10,27 -34,51 -73,73 -38,22 -91,34 -158,34 -56,0 -99,-6 -129,-18 -41,-16 -71,-36 -88,-62 -17,-25 -26,-59 -26,-101l0 -250c0,-30 -2,-48 -6,-55 -4,-7 -11,-13 -21,-17 -10,-4 -29,-6 -56,-6l0 -13z"/>
  <path class="fil0" d="M5046 253c62,11 105,25 130,41 36,23 54,52 54,88 0,38 -20,70 -59,95 -48,30 -118,45 -209,45l-328 0 0 -13c30,0 51,-2 62,-7 11,-4 18,-10 23,-17 4,-7 7,-25 7,-53l0 -331c0,-28 -2,-46 -7,-53 -4,-7 -12,-13 -23,-17 -11,-4 -32,-6 -62,-6l0 -13 310 0c74,0 127,5 157,16 31,10 55,26 73,47 18,21 27,43 27,66 0,25 -11,47 -34,66 -23,19 -63,35 -120,46zm-173 -10c45,0 79,-4 100,-12 21,-8 38,-20 49,-34 12,-15 17,-34 17,-57 0,-23 -6,-42 -17,-56 -11,-14 -28,-26 -49,-33 -21,-7 -55,-11 -101,-11l0 204zm0 28l0 182c0,14 4,24 13,31 9,7 21,10 38,10 25,0 48,-4 69,-13 21,-9 37,-22 48,-39 11,-17 17,-36 17,-57 0,-24 -6,-45 -19,-64 -13,-19 -31,-32 -56,-40 -25,-7 -61,-11 -110,-11z"/>
  <path class="fil0" d="M5680 375l-225 0 -28 50c-9,17 -13,31 -13,42 0,15 7,25 22,32 9,4 30,7 63,9l0 13 -214 0 0 -13c23,-3 42,-11 57,-23 15,-13 33,-39 55,-78l230 -407 9 0 233 419c22,41 40,66 55,77 11,8 26,13 46,14l0 13 -311 0 0 -13 13 0c25,0 43,-3 53,-8 7,-4 10,-10 10,-18 0,-5 -1,-9 -3,-14 -1,-2 -5,-12 -14,-29l-35 -64zm-15 -28l-96 -174 -98 174 194 0z"/>
  <path class="fil0" d="M6232 11l317 314 0 -217c0,-31 -6,-52 -17,-63 -15,-15 -41,-22 -77,-21l0 -13 213 0 0 13c-27,3 -45,6 -55,11 -9,4 -17,12 -22,22 -5,10 -8,27 -8,52l0 425 -16 0 -434 -423 0 323c0,30 9,50 26,60 17,10 37,16 59,16l16 0 0 13 -230 0 0 -13c35,0 60,-6 74,-18 14,-11 21,-31 21,-58l0 -359 -15 -14c-14,-14 -26,-24 -36,-28 -10,-4 -26,-7 -45,-7l0 -13 229 0z"/>
  <path class="fil0" d="M602 814l0 138 -12 0c-7,-32 -15,-54 -24,-68 -9,-14 -21,-25 -35,-33 -9,-5 -23,-7 -44,-7l-33 0 0 393c0,26 1,42 4,49 3,6 7,12 15,17 7,5 17,7 30,7l15 0 0 13 -234 0 0 -13 15 0c13,0 23,-3 31,-8 6,-4 10,-10 13,-18 2,-6 4,-22 4,-47l0 -393 -33 0c-30,0 -52,7 -66,22 -19,20 -31,49 -36,86l-12 0 0 -138 402 0z"/>
  <path class="fil0" d="M857 1179l-157 0 -19 49c-6,17 -9,30 -9,41 0,14 5,25 15,32 6,4 20,7 44,9l0 13 -148 0 0 -13c16,-3 29,-10 39,-23 10,-12 23,-38 38,-77l159 -407 6 0 160 418c15,40 28,65 38,75 7,8 18,12 32,14l0 13 -215 0 0 -13 9 0c17,0 29,-3 37,-8 5,-4 7,-10 7,-17 0,-4 -1,-9 -2,-14 0,-2 -4,-12 -10,-28l-24 -63zm-11 -28l-67 -176 -69 176 135 0z"/>
  <path class="fil0" d="M1241 1090l0 144c0,27 2,45 5,52 3,7 8,13 16,17 8,4 22,6 43,6l0 13 -230 0 0 -13c21,0 35,-2 43,-7 7,-4 13,-10 16,-17 3,-7 5,-24 5,-51l0 -333c0,-27 -1,-44 -5,-52 -3,-7 -8,-13 -16,-17 -7,-4 -22,-6 -43,-6l0 -13 208 0c54,0 94,4 119,13 25,8 45,24 61,47 16,23 24,50 24,81 0,38 -12,69 -35,93 -15,16 -36,27 -63,35l107 172c14,22 24,37 30,42 9,8 19,12 31,13l0 13 -140 0 -144 -233 -30 0zm0 -249l0 220 19 0c31,0 54,-3 69,-10 15,-6 27,-18 36,-34 9,-17 13,-38 13,-65 0,-38 -8,-67 -24,-85 -16,-18 -42,-27 -77,-27l-36 0z"/>
  <path class="fil0" d="M1716 814l219 312 0 -215c0,-31 -4,-52 -11,-63 -11,-15 -28,-22 -53,-21l0 -13 147 0 0 13c-19,3 -32,6 -38,11 -7,4 -12,12 -15,22 -3,10 -5,27 -5,51l0 423 -11 0 -301 -422 0 325c0,29 6,48 18,58 12,10 25,15 41,15l10 0 0 13 -159 0 0 -13c25,0 42,-6 51,-17 10,-11 14,-30 14,-57l0 -359 -10 -15c-10,-14 -18,-24 -25,-28 -7,-4 -18,-7 -31,-7l0 -13 160 0z"/>
  <path class="fil0" d="M2387 843l0 207 9 0c29,0 49,-10 62,-30 13,-20 21,-50 25,-90l12 0 0 267 -12 0c-3,-29 -8,-53 -17,-72 -9,-19 -19,-31 -30,-38 -11,-6 -28,-10 -49,-10l0 144c0,28 1,45 3,52 2,6 6,11 12,15 6,4 15,6 28,6l27 0c42,0 75,-11 100,-33 25,-22 43,-56 54,-101l12 0 -20 162 -386 0 0 -13 15 0c13,0 24,-3 31,-8 6,-3 10,-10 13,-18 2,-6 4,-22 4,-47l0 -336c0,-23 -1,-37 -2,-43 -2,-9 -6,-16 -12,-20 -8,-7 -20,-10 -34,-10l-15 0 0 -13 373 0 0 150 -12 0c-6,-37 -15,-63 -27,-78 -12,-16 -28,-28 -49,-35 -12,-5 -35,-7 -69,-7l-46 0z"/>
  <path class="fil0" d="M3078 814l0 138 -12 0c-7,-32 -15,-54 -23,-68 -9,-14 -20,-25 -35,-33 -8,-5 -23,-7 -44,-7l-33 0 0 393c0,26 1,42 4,49 3,6 7,12 15,17 7,5 17,7 30,7l15 0 0 13 -234 0 0 -13 15 0c13,0 23,-3 31,-8 6,-4 10,-10 13,-18 3,-6 4,-22 4,-47l0 -393 -33 0c-31,0 -52,7 -66,22 -20,20 -32,49 -37,86l-12 0 0 -138 402 0z"/>
  <path class="fil0" d="M3722 802l0 179 -12 0c-15,-49 -37,-87 -66,-113 -29,-26 -61,-39 -96,-39 -33,0 -61,11 -83,32 -22,22 -38,51 -47,90 -9,38 -14,78 -14,118 0,49 5,92 15,129 10,37 26,64 48,81 22,17 49,26 80,26 11,0 21,-1 33,-4 11,-2 23,-6 35,-11l0 -105c0,-20 -1,-33 -4,-39 -3,-6 -7,-11 -15,-16 -8,-5 -17,-7 -27,-7l-12 0 0 -13 218 0 0 13c-17,1 -28,4 -35,8 -7,4 -12,10 -15,19 -2,5 -3,16 -3,35l0 105c-28,14 -58,25 -89,32 -31,7 -63,11 -96,11 -42,0 -77,-7 -105,-20 -28,-13 -53,-30 -74,-52 -21,-21 -38,-45 -50,-72 -15,-35 -23,-73 -23,-116 0,-76 24,-141 71,-194 47,-53 107,-79 178,-79 22,0 42,2 60,6 10,2 25,8 47,17 22,9 35,14 38,14 6,0 12,-3 17,-8 5,-5 10,-15 14,-30l12 0z"/>
  <path class="fil0" d="M4063 1179l-157 0 -19 49c-6,17 -9,30 -9,41 0,14 5,25 15,32 6,4 20,7 44,9l0 13 -148 0 0 -13c16,-3 29,-10 39,-23 10,-12 23,-38 38,-77l159 -407 6 0 160 418c15,40 28,65 38,75 8,8 18,12 32,14l0 13 -215 0 0 -13 9 0c17,0 30,-3 37,-8 5,-4 7,-10 7,-17 0,-4 -1,-9 -2,-14 0,-2 -4,-12 -10,-28l-24 -63zm-11 -28l-67 -176 -69 176 135 0z"/>
  <path class="fil0" d="M4448 1090l0 144c0,27 1,45 5,52 3,7 8,13 16,17 8,4 22,6 43,6l0 13 -231 0 0 -13c21,0 35,-2 43,-7 7,-4 13,-10 16,-17 3,-7 5,-24 5,-51l0 -333c0,-27 -2,-44 -5,-52 -3,-7 -8,-13 -16,-17 -8,-4 -22,-6 -43,-6l0 -13 208 0c54,0 94,4 119,13 25,8 45,24 61,47 16,23 24,50 24,81 0,38 -12,69 -35,93 -15,16 -36,27 -63,35l107 172c14,22 24,37 30,42 9,8 19,12 31,13l0 13 -140 0 -144 -233 -29 0zm0 -249l0 220 19 0c31,0 54,-3 69,-10 15,-6 27,-18 36,-34 9,-17 13,-38 13,-65 0,-38 -8,-67 -24,-85 -16,-18 -42,-27 -77,-27l-35 0z"/>
  <path class="fil0" d="M5015 806c71,-3 129,21 173,71 44,50 67,113 67,189 0,65 -17,122 -50,170 -44,65 -106,98 -186,98 -80,0 -142,-31 -186,-93 -35,-49 -52,-107 -52,-175 0,-76 23,-139 68,-189 45,-51 100,-74 166,-71zm4 24c-41,0 -72,24 -93,71 -17,39 -26,95 -26,168 0,87 13,151 40,193 19,29 44,44 78,44 22,0 41,-6 56,-19 19,-16 34,-42 45,-77 11,-35 16,-81 16,-138 0,-67 -5,-118 -16,-151 -11,-33 -25,-57 -42,-71 -17,-14 -36,-21 -58,-21z"/>
  <path class="fil0" d="M5447 814l219 312 0 -215c0,-31 -4,-52 -11,-63 -11,-15 -28,-22 -53,-21l0 -13 147 0 0 13c-19,3 -31,6 -38,11 -7,4 -12,12 -15,22 -4,10 -5,27 -5,51l0 423 -11 0 -301 -422 0 325c0,29 6,48 18,58 12,10 25,15 41,15l10 0 0 13 -159 0 0 -13c24,0 41,-6 51,-17 10,-11 14,-30 14,-57l0 -359 -11 -15c-9,-14 -18,-24 -25,-28 -7,-4 -17,-7 -31,-7l0 -13 160 0z"/>
  <path class="fil0" d="M5933 814l219 312 0 -215c0,-31 -4,-52 -12,-63 -11,-15 -28,-22 -53,-21l0 -13 147 0 0 13c-19,3 -31,6 -38,11 -6,4 -11,12 -15,22 -4,10 -5,27 -5,51l0 423 -11 0 -301 -422 0 325c0,29 6,48 18,58 12,10 26,15 41,15l11 0 0 13 -159 0 0 -13c24,0 42,-6 51,-17 10,-11 15,-30 15,-57l0 -359 -10 -15c-9,-14 -18,-24 -25,-28 -7,-4 -18,-7 -31,-7l0 -13 160 0z"/>
  <path class="fil0" d="M6435 843l0 207 9 0c29,0 49,-10 62,-30 13,-20 21,-50 25,-90l12 0 0 267 -12 0c-3,-29 -8,-53 -17,-72 -8,-19 -18,-31 -30,-38 -11,-6 -28,-10 -49,-10l0 144c0,28 1,45 3,52 2,6 6,11 12,15 6,4 15,6 28,6l26 0c41,0 75,-11 100,-33 25,-22 43,-56 54,-101l12 0 -20 162 -386 0 0 -13 15 0c13,0 24,-3 31,-8 6,-3 10,-10 13,-18 3,-6 4,-22 4,-47l0 -336c0,-23 0,-37 -1,-43 -2,-9 -6,-16 -12,-20 -8,-7 -20,-10 -34,-10l-15 0 0 -13 373 0 0 150 -12 0c-6,-37 -15,-63 -27,-78 -12,-16 -28,-28 -49,-35 -12,-5 -35,-7 -69,-7l-46 0z"/>
 </g>
</svg>
