<?xml version="1.0" encoding="UTF-8"?>
<svg id="Calque_2" data-name="Calque 2" xmlns="http://www.w3.org/2000/svg" viewBox="0 0 244.81 244.2">
  <defs>
    <style>
      .cls-1 {
        fill: #1d1d1b;
        stroke-width: 0px;
      }

      .cls-1, .cls-2 {
        fill-rule: evenodd;
      }

      .cls-2 {
        fill: #ffed00;
        stroke: #1d1d1b;
        stroke-width: .5px;
      }
    </style>
  </defs>
  <g id="Calque_1-2" data-name="Calque 1">
    <g>
      <path class="cls-2" d="M201.11,63.05l-1.38-.79c-24-13.85-50.82-20.67-77.59-20.48-26.81-.19-53.66,6.65-77.69,20.54l-1.29.75c-4.36,2.52-6.85,7.35-6.37,12.36l.19,1.97c5.04,52.93,36.88,99.68,84.45,123.72l.74.37,2.07-1.07c47.3-24.49,78.74-71.56,83.23-124.65l.04-.48c.42-4.97-2.07-9.74-6.39-12.23h0Z"/>
      <path class="cls-1" d="M42.11,76.9c4.82,50.6,34.95,95.31,80.03,118.78,45.9-23.89,75.86-69.35,80.22-120.83.25-2.98-1.24-5.84-3.83-7.33l-1.38-.79c-22.78-13.15-48.66-19.98-74.97-19.79h-.08c-26.35-.19-52.26,6.66-75.07,19.85l-1.29.75c-2.61,1.51-4.1,4.41-3.82,7.41l.19,1.96h0ZM51.9,75.97c4.33,45.46,30.54,85.95,70.25,108.52,39.89-22.67,66.15-63.44,70.3-109.13-42.88-24.79-97.73-24.79-140.61,0l.06.61h0Z"/>
      <path class="cls-1" d="M65.57,110.96l14.6-.86c.32,2.24.96,3.95,1.93,5.12,1.58,1.9,3.84,2.85,6.78,2.85,2.19,0,3.88-.48,5.06-1.45,1.19-.97,1.78-2.09,1.78-3.37s-.57-2.3-1.7-3.25c-1.13-.96-3.75-1.86-7.86-2.71-6.73-1.43-11.52-3.32-14.39-5.68-2.89-2.36-4.33-5.38-4.33-9.04,0-2.41.74-4.68,2.22-6.82,1.48-2.14,3.7-3.82,6.67-5.05,2.97-1.22,7.04-1.84,12.21-1.84,6.34,0,11.18,1.11,14.51,3.34,3.33,2.23,5.31,5.77,5.94,10.63l-14.45.8c-.38-2.11-1.19-3.64-2.43-4.6-1.23-.96-2.93-1.44-5.11-1.44-1.79,0-3.13.36-4.04,1.07-.9.71-1.36,1.58-1.36,2.6,0,.74.38,1.41,1.13,2.01.73.62,2.45,1.19,5.16,1.72,6.7,1.36,11.5,2.74,14.41,4.13,2.9,1.39,5.01,3.12,6.33,5.18,1.32,2.06,1.98,4.37,1.98,6.92,0,3-.88,5.76-2.64,8.3-1.76,2.53-4.22,4.45-7.38,5.76-3.16,1.31-7.14,1.96-11.95,1.96-8.44,0-14.29-1.53-17.54-4.6-3.25-3.07-5.09-6.96-5.52-11.69h0Z"/>
      <polygon class="cls-1" points="118.13 79.66 138.3 79.66 146.02 108.12 153.7 79.66 173.84 79.66 173.84 126.44 161.29 126.44 161.29 90.75 151.66 126.44 140.29 126.44 130.67 90.75 130.67 126.44 118.13 126.44 118.13 79.66 118.13 79.66"/>
      <path class="cls-1" d="M223.92,46.14l3.69,1.83c-.77,1.6-1.07,2.96-.9,4.06.17,1.1.79,2.01,1.85,2.71,1.13.75,2.18,1,3.15.77.98-.23,1.74-.76,2.28-1.58.35-.53.52-1.05.53-1.58,0-.53-.2-1.13-.62-1.8-.29-.45-1.01-1.39-2.16-2.82-1.48-1.84-2.32-3.44-2.5-4.81-.26-1.93.2-3.77,1.36-5.52.75-1.13,1.7-2.02,2.85-2.67,1.15-.65,2.37-.92,3.65-.81,1.28.11,2.59.6,3.92,1.49,2.18,1.44,3.41,3.14,3.7,5.09.29,1.95-.21,3.96-1.51,6.04l-3.63-2.11c.61-1.24.83-2.28.67-3.1-.16-.83-.74-1.57-1.72-2.22-1.02-.67-1.99-.93-2.92-.78-.6.1-1.09.43-1.47,1.01-.35.53-.47,1.09-.37,1.69.13.77.87,1.97,2.24,3.61,1.36,1.64,2.27,3.01,2.72,4.1.45,1.09.59,2.27.42,3.53-.17,1.26-.72,2.59-1.65,4-.84,1.27-1.91,2.28-3.2,3.03-1.29.75-2.61,1.05-3.98.93-1.37-.13-2.8-.69-4.31-1.69-2.19-1.45-3.44-3.22-3.76-5.29-.31-2.08.24-4.44,1.66-7.08h0Z"/>
      <polygon class="cls-1" points="212.84 50 225.91 26.78 229.56 28.84 216.5 52.06 212.84 50 212.84 50"/>
      <path class="cls-1" d="M197.37,27.89c1.13-2.46,2.37-4.4,3.72-5.81,1-1.03,2.09-1.87,3.29-2.51,1.19-.64,2.34-.99,3.44-1.05,1.47-.1,2.97.21,4.51.92,2.78,1.28,4.5,3.41,5.15,6.39.65,2.98.07,6.44-1.74,10.38-1.8,3.91-4.03,6.58-6.71,8.02-2.67,1.44-5.4,1.53-8.17.25-2.81-1.29-4.54-3.42-5.18-6.38-.65-2.96-.08-6.36,1.69-10.21h0ZM201.38,29.54c-1.26,2.74-1.72,5.05-1.39,6.92.34,1.87,1.27,3.15,2.79,3.86,1.52.7,3.09.57,4.72-.38,1.62-.95,3.08-2.83,4.37-5.64,1.28-2.77,1.75-5.06,1.43-6.86-.32-1.8-1.27-3.07-2.84-3.79-1.57-.72-3.16-.62-4.76.32-1.6.94-3.04,2.8-4.32,5.58h0Z"/>
      <polygon class="cls-1" points="182 36.51 189.26 15.6 183.44 13.58 184.91 9.32 200.51 14.73 199.03 18.99 193.22 16.97 185.97 37.89 182 36.51 182 36.51"/>
      <polygon class="cls-1" points="159.23 30.28 165.6 4.4 169.55 5.37 173.57 24.76 177.84 7.42 181.61 8.34 175.24 34.22 171.17 33.21 167.18 14.23 163 31.2 159.23 30.28 159.23 30.28"/>
      <path class="cls-1" d="M139.44,14.13c.36-2.69.98-4.9,1.86-6.64.65-1.28,1.45-2.4,2.41-3.36.96-.96,1.95-1.63,2.99-2.02,1.38-.52,2.91-.67,4.58-.44,3.04.41,5.3,1.95,6.8,4.61,1.5,2.66,1.95,6.14,1.37,10.43-.58,4.26-1.93,7.47-4.07,9.63-2.13,2.16-4.71,3.04-7.74,2.63-3.06-.42-5.34-1.94-6.82-4.58-1.48-2.64-1.94-6.06-1.37-10.26h0ZM143.75,14.53c-.41,2.99-.17,5.33.7,7.02.87,1.69,2.13,2.65,3.79,2.87,1.66.23,3.13-.36,4.4-1.74,1.27-1.39,2.12-3.61,2.53-6.67.41-3.03.2-5.35-.64-6.98-.83-1.63-2.11-2.56-3.83-2.79-1.72-.23-3.2.33-4.46,1.7-1.25,1.36-2.09,3.57-2.5,6.6h0Z"/>
      <polygon class="cls-1" points="115.45 26.64 115.94 0 122.22 .11 125.64 18.35 129.67 .25 135.97 .36 135.49 27.01 131.61 26.93 131.98 5.96 127.49 26.86 123.44 26.79 119.72 5.74 119.34 26.71 115.45 26.64 115.45 26.64"/>
      <polygon class="cls-1" points="81.78 30.92 77.2 4.67 92.38 2.02 93.16 6.46 82.11 8.39 83.13 14.21 93.41 12.42 94.18 16.86 83.9 18.65 85.14 25.75 96.58 23.76 97.35 28.2 81.78 30.92 81.78 30.92"/>
      <path class="cls-1" d="M54.15,10.86l7.38-2.12c1.66-.48,2.98-.68,3.95-.61,1.3.1,2.53.6,3.69,1.49,1.16.89,2.2,2.09,3.1,3.6.91,1.51,1.71,3.46,2.4,5.86.61,2.11.92,3.98.95,5.63.04,2.01-.24,3.72-.84,5.14-.45,1.07-1.2,2.03-2.25,2.86-.79.62-1.93,1.14-3.42,1.57l-7.6,2.19-7.37-25.61h0ZM59.43,14.03l4.87,16.94,3.02-.87c1.13-.33,1.92-.64,2.38-.95.6-.4,1.04-.91,1.33-1.53.29-.62.41-1.55.35-2.77-.06-1.22-.37-2.83-.94-4.8-.57-1.98-1.14-3.46-1.72-4.44-.58-.98-1.2-1.7-1.86-2.15-.66-.45-1.4-.67-2.22-.66-.61,0-1.74.24-3.39.71l-1.82.52h0Z"/>
      <path class="cls-1" d="M59.37,37.1l-4.22,1.74-3.98-4.91-7.68,3.17.72,6.25-4.11,1.7-2.71-27.71,4.13-1.71,17.84,21.46h0ZM48.21,30.28l-6.43-8.02,1.18,10.19,5.25-2.17h0Z"/>
      <polygon class="cls-1" points="32.9 49.03 22.68 29.39 17.21 32.24 15.13 28.24 29.77 20.61 31.85 24.61 26.4 27.45 36.62 47.09 32.9 49.03 32.9 49.03"/>
      <path class="cls-1" d="M6.74,54.87l3.15-2.66c1.17,1.34,2.29,2.15,3.37,2.43,1.08.28,2.15.07,3.22-.62,1.13-.74,1.78-1.6,1.96-2.59.17-.99,0-1.89-.55-2.72-.34-.53-.76-.9-1.24-1.11s-1.12-.26-1.9-.14c-.53.09-1.68.38-3.45.87-2.27.63-4.08.76-5.41.39-1.87-.53-3.38-1.68-4.53-3.44-.74-1.14-1.18-2.36-1.32-3.68-.14-1.32.09-2.54.7-3.68.61-1.13,1.58-2.14,2.92-3.01,2.19-1.43,4.23-1.88,6.14-1.38,1.9.51,3.55,1.77,4.94,3.78l-3.38,2.5c-.9-1.05-1.76-1.67-2.58-1.85-.82-.18-1.73.05-2.72.7-1.02.67-1.65,1.46-1.87,2.37-.15.59-.03,1.17.35,1.75.34.53.81.87,1.41,1.01.75.19,2.16-.02,4.21-.62,2.05-.6,3.66-.89,4.84-.87,1.18.02,2.32.35,3.41,1.01,1.09.66,2.09,1.69,3.01,3.1.83,1.28,1.34,2.66,1.51,4.13.17,1.48-.07,2.82-.73,4.02-.66,1.2-1.75,2.3-3.26,3.29-2.2,1.44-4.32,1.89-6.35,1.35-2.03-.54-3.98-1.98-5.84-4.33h0Z"/>
      <polygon class="cls-1" points="163.8 238.86 161.08 227.98 150.71 214.66 155 213.59 161.82 222.77 163.44 211.48 167.65 210.43 164.74 227.1 167.45 237.95 163.8 238.86 163.8 238.86"/>
      <path class="cls-1" d="M134.01,216.82l7.41-.94c1.47-.19,2.57-.24,3.31-.16.74.08,1.43.36,2.07.84.64.48,1.21,1.15,1.7,2.02.5.87.82,1.87.96,3.02.16,1.24.07,2.4-.27,3.49-.33,1.09-.87,1.95-1.6,2.56,1.18.33,2.15,1.02,2.9,2.07.75,1.05,1.22,2.35,1.41,3.87.15,1.2.11,2.4-.14,3.59-.25,1.19-.67,2.16-1.26,2.93-.59.77-1.37,1.29-2.35,1.57-.61.17-2.11.43-4.49.75l-6.3.8-3.36-26.43h0ZM138.31,220.74l.78,6.1,2.45-.31c1.46-.19,2.36-.33,2.71-.44.63-.19,1.09-.57,1.39-1.14.3-.57.4-1.28.29-2.13-.1-.82-.35-1.46-.73-1.93-.38-.47-.89-.72-1.53-.75-.38-.01-1.45.09-3.21.32l-2.15.27h0ZM139.64,231.23l.9,7.07,3.47-.44c1.35-.17,2.2-.33,2.55-.49.54-.21.95-.62,1.23-1.23.28-.6.36-1.37.24-2.31-.1-.79-.32-1.45-.66-1.97-.34-.52-.78-.87-1.32-1.06-.54-.19-1.67-.17-3.37.04l-3.03.38h0Z"/>
      <path class="cls-1" d="M122.66,233.99v-4.51s8.11-.02,8.11-.02l.02,10.61c-.79,1.09-1.93,2.05-3.42,2.88-1.5.83-3.01,1.25-4.55,1.25-1.95,0-3.65-.58-5.11-1.74-1.45-1.17-2.55-2.83-3.28-5.01-.73-2.17-1.1-4.54-1.11-7.09,0-2.77.4-5.24,1.21-7.4.81-2.16,2-3.81,3.57-4.97,1.19-.89,2.68-1.33,4.46-1.33,2.32,0,4.13.69,5.43,2.07,1.31,1.39,2.15,3.3,2.52,5.75l-3.74,1c-.27-1.31-.76-2.35-1.49-3.1-.73-.76-1.63-1.14-2.72-1.13-1.65,0-2.95.75-3.92,2.24-.97,1.49-1.45,3.71-1.44,6.64,0,3.16.5,5.53,1.49,7.11.99,1.58,2.28,2.37,3.87,2.36.79,0,1.58-.22,2.37-.66.79-.44,1.47-.98,2.04-1.61v-3.36s-4.31,0-4.31,0h0Z"/>
      <path class="cls-1" d="M95.44,215.03l3.74.46-1.76,14.32c-.28,2.27-.41,3.75-.41,4.44.03,1.1.3,2.02.82,2.75.52.73,1.3,1.16,2.35,1.29,1.06.13,1.9-.08,2.51-.63.61-.55,1.03-1.27,1.25-2.16.22-.89.46-2.38.72-4.47l1.8-14.63,3.74.46-1.71,13.89c-.39,3.17-.77,5.4-1.13,6.69-.36,1.29-.87,2.35-1.53,3.18s-1.47,1.46-2.44,1.89c-.97.42-2.19.54-3.66.36-1.77-.22-3.07-.67-3.91-1.37-.84-.7-1.47-1.54-1.89-2.54-.42-1-.64-2.02-.69-3.06-.06-1.54.1-3.8.46-6.75l1.74-14.1h0Z"/>
      <path class="cls-1" d="M70.84,236.58l6.45-25.85,7.7,1.92c1.94.48,3.28,1.07,4.05,1.75.76.68,1.26,1.68,1.49,3,.23,1.32.16,2.74-.23,4.27-.48,1.94-1.28,3.44-2.39,4.51-1.11,1.06-2.5,1.56-4.17,1.5.62.86,1.1,1.74,1.41,2.66.32.92.66,2.49,1.03,4.72l.95,5.6-4.37-1.09-1.23-6.3c-.44-2.24-.77-3.67-.99-4.28-.22-.61-.49-1.06-.83-1.35-.34-.29-.93-.54-1.77-.75l-.74-.19-2.7,10.8-3.65-.91h0ZM78.22,222.58l2.71.68c1.76.44,2.88.61,3.37.5.49-.1.92-.38,1.3-.84.38-.46.66-1.07.86-1.85.22-.87.23-1.61.04-2.23-.19-.62-.57-1.07-1.12-1.36-.28-.13-1.16-.38-2.65-.75l-2.86-.71-1.64,6.56h0Z"/>
    </g>
  </g>
</svg>