<?xml version="1.0" encoding="UTF-8" standalone="no"?>
<!-- Created with Inkscape (http://www.inkscape.org/) -->

<svg
   width="175.93037mm"
   height="198.4375mm"
   viewBox="0 0 175.93038 198.4375"
   version="1.1"
   id="svg5"
   xml:space="preserve"
   inkscape:version="1.2 (dc2aeda, 2022-05-15)"
   sodipodi:docname="Logo_RC_Narbonne_-_2019.svg"
   xmlns:inkscape="http://www.inkscape.org/namespaces/inkscape"
   xmlns:sodipodi="http://sodipodi.sourceforge.net/DTD/sodipodi-0.dtd"
   xmlns="http://www.w3.org/2000/svg"
   xmlns:svg="http://www.w3.org/2000/svg"><sodipodi:namedview
     id="namedview7"
     pagecolor="#ffffff"
     bordercolor="#666666"
     borderopacity="1.0"
     inkscape:showpageshadow="2"
     inkscape:pageopacity="0.0"
     inkscape:pagecheckerboard="0"
     inkscape:deskcolor="#d1d1d1"
     inkscape:document-units="mm"
     showgrid="false"
     inkscape:zoom="0.59465218"
     inkscape:cx="285.8814"
     inkscape:cy="301.85713"
     inkscape:window-width="1920"
     inkscape:window-height="877"
     inkscape:window-x="0"
     inkscape:window-y="25"
     inkscape:window-maximized="0"
     inkscape:current-layer="layer1"
     showguides="false"><sodipodi:guide
       position="-0.45166454,88.646174"
       orientation="1,0"
       id="guide65761"
       inkscape:locked="false" /></sodipodi:namedview><defs
     id="defs2" /><g
     inkscape:label="Calque 1"
     inkscape:groupmode="layer"
     id="layer1"
     transform="translate(-25.532687,162.53636)"><g
       id="g915"><path
         id="path4340"
         style="fill:#000000;fill-opacity:1;stroke:none;stroke-width:0.05;stroke-linecap:butt;stroke-linejoin:miter;stroke-dasharray:none;stroke-opacity:1"
         d="m 62.697328,-162.53636 -37.164641,37.19706 c 7.512522,14.6913 12.782651,22.55732 13.848101,38.650757 1.051443,15.881903 -12.977517,30.619301 -13.058743,42.507269 -0.09364,13.704877 0.760868,29.447644 9.081088,39.4223761 9.418986,11.2919887 29.199101,16.7097899 43.406202,21.7378229 10.619603,3.758382 26.909495,7.927267 34.688545,18.922215 l -7.7e-4,-198.4375 c -10.16621,11.01591 -25.268982,17.00524 -50.799782,0 z m 50.800552,198.4375 c 7.77904,-10.994948 24.06817,-15.163833 34.68776,-18.922215 14.2071,-5.028033 33.988,-10.4458342 43.40698,-21.7378229 8.32022,-9.9747321 9.17471,-25.7174991 9.08109,-39.4223761 -0.0812,-11.887968 -14.11097,-26.625366 -13.05952,-42.507269 1.06544,-16.093437 6.33635,-23.959457 13.84888,-38.650757 l -37.16541,-37.19706 c -25.5308,17.00524 -40.63358,11.01591 -50.79978,0 z" /><path
         id="path2810"
         style="fill:#ec6719;fill-opacity:1;stroke:none;stroke-width:0.05;stroke-linecap:butt;stroke-linejoin:miter;stroke-dasharray:none;stroke-opacity:1"
         d="m 63.444246,-151.17671 -27.811944,27.24637 c 7.629967,12.69475 16.519177,35.837183 9.151306,54.036677 -4.964002,12.261653 -10.359122,18.032903 -10.47539,30.879868 -0.08859,9.788301 2.659043,24.143849 8.023982,29.3320183 10.501266,10.15526231 22.035464,12.8347618 36.242565,17.8627931 10.619604,3.7583826 22.563765,7.2221056 34.923115,15.8681796 12.35935,-8.646074 24.30274,-12.109797 34.92234,-15.8681796 14.2071,-5.0280313 25.7413,-7.70753079 36.24256,-17.8627931 5.36493,-5.1881693 8.1133,-19.5437173 8.02476,-29.3320183 -0.11632,-12.846965 -5.5114,-18.618215 -10.47539,-30.879868 -7.36787,-18.199494 1.52056,-41.341927 9.15052,-54.036677 l -27.81116,-27.24637 c -16.60507,9.48885 -41.17931,10.54614 -50.05363,0 -8.87432,10.54614 -33.448558,9.48885 -50.053634,0 z" /></g><g
       id="g891"
       style="fill:#000000"><path
         id="rect4468"
         style="fill:#000000;fill-opacity:1;stroke:none;stroke-width:0.0499999;stroke-linecap:round;stroke-linejoin:round;stroke-dasharray:none"
         d="m 67.909556,-133.33706 c -3.902621,-0.006 -7.779725,0.0185 -11.673702,0.0185 v 32.55426 h 8.221514 l 7.72e-4,-8.71997 h 5.509302 l 5.231522,8.71997 h 9.966127 l -7.093419,-10.57879 c 3.237762,-2.11439 5.377358,-5.82984 5.377358,-10.07724 0,-6.61219 -5.185323,-11.89823 -11.626634,-11.89823 -1.308053,-0.0105 -2.611966,-0.0164 -3.91284,-0.0185 z m -3.451416,7.61581 h 5.881991 c 2.723669,0 4.916705,1.90483 4.916705,4.27162 v 0.13573 c 0,2.36681 -2.193036,4.27242 -4.916705,4.27242 H 64.45814 Z" /><path
         id="circle4527"
         style="fill:#000000;fill-opacity:1;stroke:none;stroke-width:0.0499999;stroke-linecap:round;stroke-linejoin:round;stroke-dasharray:none"
         d="m 114.32041,-133.89957 c -9.33034,1.8e-4 -16.8939,7.56411 -16.893649,16.89443 1.86e-4,9.33003 7.563619,16.89346 16.893649,16.89364 5.20786,-0.003 10.12322,-2.40797 13.32186,-6.51778 l -5.10213,-6.12385 c -2.10495,2.70347 -4.82204,4.50326 -8.21973,4.50346 -4.83549,-3e-5 -8.75543,-3.91998 -8.75547,-8.75547 -4e-4,-4.8358 3.91967,-8.75622 8.75547,-8.75625 3.40665,4.9e-4 6.42068,1.9354 8.14672,4.90032 l 5.0324,-6.7136 c -3.20626,-3.99818 -8.05412,-6.32476 -13.17912,-6.3249 z"
         sodipodi:nodetypes="ccccccccccc" /><path
         id="rect4695"
         style="fill:#000000;fill-opacity:1;stroke:none;stroke-width:0.0499999;stroke-linecap:round;stroke-linejoin:round"
         d="m 142.1123,-133.26684 v 32.2379 h 8.10422 v -16.85276 l -0.0154,-0.23765 13.0055,17.09041 h 7.5533 v -32.2379 h -8.10423 v 17.91681 l -13.43761,-17.91681 z" /></g><g
       id="g911"><path
         id="path1296"
         style="fill:#000000;fill-opacity:1;stroke:none;stroke-width:0.05;stroke-linecap:butt;stroke-linejoin:miter;stroke-dasharray:none;stroke-opacity:1"
         d="m 100.53173,-85.720947 c -1.668324,0.03584 -3.418992,0.823417 -3.229195,2.022394 l 0.534727,3.719158 -1.738822,-0.438734 -0.18334,-2.477493 -10.239199,-2.75434 -10.47539,1.275471 c -1.869735,-1.247624 -4.855882,-1.033579 -5.812545,0.707578 l -6.217641,0.756941 -0.456793,-1.494606 c -0.515634,-1.472538 -4.937155,-1.336631 -4.317935,0.498461 l 5.314855,15.487772 c 0.611674,0.865957 1.436965,1.251709 2.491532,1.121152 l 19.557252,60.2080289 9.798687,9.5502286 16.609697,-3.3634511 -0.49846,-3.2801194 28.65069,-4.8163941 5.81331,1.1203779 15.23855,-2.9475528 5.56409,-65.688789 -11.45998,-2.449855 -15.07342,0.331795 v 2.699092 l -10.21458,0.747685 v 5.72998 l -24.24864,2.324869 -2.61654,-17.148288 c -0.24625,-1.042195 -1.49333,-1.469253 -2.79091,-1.441361 z"
         sodipodi:nodetypes="scccccccccccccccccccccccccccs" /><g
         id="g817"
         style="fill:#f36f27;fill-opacity:1"><path
           id="path5209"
           style="fill:#f36f27;fill-opacity:1;stroke:none;stroke-width:0.02;stroke-linecap:butt;stroke-linejoin:miter;stroke-dasharray:none;stroke-opacity:1"
           d="m 140.36151,-75.601275 -8.59574,0.788596 8.30484,3.902802 0.10034,-1.61806 -3.71299,-1.744622 3.8434,-0.352624 z" /><path
           id="path692"
           style="fill:#f36f27;fill-opacity:1;stroke:none;stroke-width:0.05;stroke-linecap:butt;stroke-linejoin:miter;stroke-dasharray:none;stroke-opacity:1"
           d="m 97.986182,-78.919969 -20.249386,2.111893 3.116537,11.558737 c 0.544734,1.840948 -1.71625,3.072807 -2.671317,3.344935 l 17.70847,63.5352157 5.913624,-1.16436036 -2.429028,-11.65055434 4.022408,-0.67516 2.22224,11.57493643 5.88353,-1.15818763 -8.29404,-62.6686978 c -0.94734,0.05786 -3.00967,-0.277397 -3.311758,-2.293228 z m -3.631973,17.892886 1.740755,9.024761 -5.254671,0.475313 -2.008504,-8.919052 z m 3.687529,19.115117 1.959122,10.158259 -4.567167,0.622689 -2.327178,-10.334184 z" /><path
           style="fill:#f36f27;fill-opacity:1;stroke:none;stroke-width:0.05;stroke-linecap:butt;stroke-linejoin:miter;stroke-dasharray:none;stroke-opacity:1"
           d="m 102.94931,-83.947702 2.49136,16.816681 c 0.33596,1.851673 -1.41477,2.514813 -2.27919,2.614103 -0.86757,0.09965 -2.63512,-0.162878 -2.95267,-2.28192 l -2.574403,-16.858206 c 2.406203,1.172249 4.010553,0.740801 5.314903,-0.290658 z"
           id="path2117"
           sodipodi:nodetypes="ccsccc" /><path
           style="fill:#f36f27;fill-opacity:1;stroke:none;stroke-width:0.05;stroke-linecap:butt;stroke-linejoin:miter;stroke-dasharray:none;stroke-opacity:1"
           d="m 75.528161,-83.206005 4.826902,17.873744 c 0.510543,1.811326 -1.418311,2.80406 -2.269367,2.985114 -0.854162,0.181718 -2.638666,0.08848 -3.15632,-1.990749 l -5.121127,-18.197845 c 2.506783,0.938076 4.519577,0.480573 5.719912,-0.670264 z"
           id="path2857"
           sodipodi:nodetypes="ccsccc" /><path
           style="fill:#f36f27;fill-opacity:1;stroke:none;stroke-width:0.05;stroke-linecap:butt;stroke-linejoin:miter;stroke-dasharray:none;stroke-opacity:1"
           d="m 75.528161,-83.206005 4.826902,17.873744 c 0.510543,1.811326 -1.418311,2.80406 -2.269367,2.985114 -0.854162,0.181718 -2.638666,0.08848 -3.15632,-1.990749 l -5.121127,-18.197845 c 2.506783,0.938076 4.519577,0.480573 5.719912,-0.670264 z"
           id="path3598"
           sodipodi:nodetypes="ccsccc" /><path
           id="path4364"
           style="fill:#f36f27;fill-opacity:1;stroke:none;stroke-width:0.05;stroke-linecap:butt;stroke-linejoin:miter;stroke-dasharray:none;stroke-opacity:1"
           d="m 130.67394,-69.054923 -24.92689,2.319462 c 0.24336,1.711517 -1.33197,2.365948 -2.20373,2.496162 l 0.5301,3.728423 12.38976,-1.379639 -0.0586,-1.057108 6.45993,-4.873494 3.34647,1.438283 2.26082,2.818695 9.45455,-0.704481 z" /><path
           id="path5166"
           style="fill:#f36f27;fill-opacity:1;stroke:none;stroke-width:0.05;stroke-linecap:butt;stroke-linejoin:miter;stroke-dasharray:none;stroke-opacity:1"
           d="m 142.96878,-52.123465 -37.11371,4.432134 5.68909,43.0103655 5.40205,-0.8950693 -0.74384,-9.7192112 c -0.10809,-0.834669 -0.51113,-1.393999 -1.10572,-1.804798 -0.59571,-0.411576 -2.76729,-0.959787 -2.76729,-0.959787 0,0 2.37223,0.04896 3.06514,0.527685 0.6929,0.478726 1.20425,1.197573 1.32948,2.175942 v 0.0054 l 0.74075,9.6891173 5.16362,-0.8557156 -0.31096,-9.2238377 c -0.0711,-0.841118 -0.45183,-1.418187 -1.02933,-1.854953 -0.57749,-0.436764 -2.71906,-1.051609 -2.71906,-1.051609 0,0 2.36216,0.126918 3.03388,0.63494 0.67171,0.508024 1.15377,1.244798 1.23689,2.22764 v 0.0085 l 0.30787,9.1729101 2.58104,-0.4274718 -0.16358,-7.8526853 3.67055,-0.439819 0.0363,7.7053078 0.96143,-0.1597231 0.0139,-8.8843297 c -0.0417,-0.843087 -0.40111,-1.436061 -0.96297,-1.892761 -0.56187,-0.456698 -2.67895,-1.123369 -2.67895,-1.123369 0,0 2.35566,0.186291 3.00919,0.717501 0.65354,0.531212 1.10564,1.286474 1.15433,2.271624 v 0.0093 l -0.0131,8.8156542 4.09031,-0.6774743 0.22763,-8.9954399 c -0.0216,-0.843843 -0.36813,-1.446001 -0.91899,-1.91591 -0.55086,-0.469913 -2.64885,-1.172753 -2.64885,-1.172753 0,0 2.34685,0.229564 2.98759,0.776145 0.64073,0.546579 1.07658,1.311832 1.10186,2.297857 v 0.0054 l -0.22531,8.917509 3.25002,-0.5385852 0.70294,-9.2246078 -0.003,0.01463 c 0.0196,-0.778112 -0.2702,-1.343929 -0.7554,-1.802483 -0.48519,-0.458556 -2.42469,-1.193971 -2.42469,-1.193971 0,0 2.21551,0.272322 2.78657,0.812023 0.57106,0.539703 0.94136,1.27885 0.91822,2.199092 v 0.0061 l -0.69522,9.1019227 0.96297,-0.1597232 z m -3.39663,18.085789 -0.20757,9.010873 -2.55325,0.321762 0.152,-8.988496 z m -4.82951,0.637352 -0.10031,8.969204 -2.88197,0.363429 0.0502,-8.945286 z m -5.33955,0.705251 -0.0509,8.930625 -5.81177,0.733031 -0.40896,-8.835718 z m -9.60964,1.268529 0.40741,8.816426 -3.04478,0.384263 -0.89969,-8.733093 z m -6.77629,0.895068 0.89816,8.713803 -2.86885,0.361885 -1.03859,-8.678308 z"
           sodipodi:nodetypes="cccccscscccccscscccccccccscscccccscsccccccscscccccccccccccccccccccccccccccc" /><path
           id="path4366"
           style="fill:#f36f27;fill-opacity:1;stroke:none;stroke-width:0.05;stroke-linecap:butt;stroke-linejoin:miter;stroke-dasharray:none;stroke-opacity:1"
           d="m 126.09365,-65.736997 -4.3758,4.50235 v 9.882022 l -16.11124,1.785508 0.19599,1.483036 37.19242,-4.439079 0.0957,-1.42748 -13.6498,1.602637 -0.0293,-9.366585 z m 0.68982,4.460684 0.62269,0.581022 -0.0417,7.93139 -0.70602,-0.04167 -0.0409,-7.473825 -1.24615,-0.955254 z" /><path
           style="fill:#f36f27;fill-opacity:1;stroke:none;stroke-width:0.05;stroke-linecap:butt;stroke-linejoin:miter;stroke-dasharray:none;stroke-opacity:1"
           d="m 95.323512,-82.472551 0.08808,1.879095 -5.4905,-0.998266 z"
           id="path6981"
           sodipodi:nodetypes="cccc" /><path
           id="path7882"
           style="fill:#f36f27;fill-opacity:1;stroke:none;stroke-width:0.05;stroke-linecap:butt;stroke-linejoin:miter;stroke-dasharray:none;stroke-opacity:1"
           d="m 166.23053,-75.954661 -2.20217,0.104969 v 2.038594 h -0.64583 v -2.007731 l -1.99694,0.09496 v 2.148162 h -0.64583 V -75.693 l -1.84956,0.08795 v 2.20526 h -0.64584 v -2.174396 l -1.85032,0.08869 v 2.320234 h -0.64584 v -2.290147 l -1.90819,0.09108 v 2.405105 h -0.64584 v -2.374241 l -1.76158,0.08406 -4.81563,66.76672 5.39202,-1.0192985 0.8179,-8.3202795 3.41053,-0.389664 -0.85109,8.071049 5.20682,-0.984575 z m -3.74617,3.245394 0.35494,0.3395 -0.0154,2.875031 -0.42053,0.04629 -0.0134,-2.678263 -0.70911,-0.558635 z m -2.69831,0.373454 0.35416,0.339515 -0.0154,2.801717 -0.42053,0.04706 -0.0134,-2.604964 -0.70912,-0.559411 z m -2.49153,0.310965 0.35338,0.340276 -0.0134,2.767768 -0.4213,0.04629 -0.0134,-2.571 -0.7091,-0.55865 z m -2.69911,0.249223 0.35418,0.340276 -0.0134,2.818701 -0.42053,0.04706 -0.0149,-2.622708 -0.70911,-0.558636 z m 8.02168,9.045597 -0.48535,5.23538 -2.70063,0.337966 0.46297,-5.304826 z m -4.2971,0.424385 -0.50927,5.351895 -2.75773,0.345681 0.67979,-5.442173 z m 1.4321,10.745454 -0.72454,6.872739 -3.60033,0.411268 0.67129,-6.827212 z m -1.65588,15.709227 -0.73224,6.946813 -3.48692,0.398153 0.68287,-6.940641 z" /><path
           style="fill:#f36f27;fill-opacity:1;stroke:none;stroke-width:0.05;stroke-linecap:butt;stroke-linejoin:miter;stroke-dasharray:none;stroke-opacity:1"
           d="m 163.05921,-76.723966 v 0.420533 l 1.51005,-0.0872 z"
           id="path9562" /><path
           style="fill:#f36f27;fill-opacity:1;stroke:none;stroke-width:0.05;stroke-linecap:butt;stroke-linejoin:miter;stroke-dasharray:none;stroke-opacity:1"
           d="m 160.85705,-77.210079 v 1.034729 l 1.55633,-0.09034 v -0.601086 z"
           id="path9560" /><path
           style="fill:#f36f27;fill-opacity:1;stroke:none;stroke-width:0.05;stroke-linecap:butt;stroke-linejoin:miter;stroke-dasharray:none;stroke-opacity:1"
           d="m 158.62554,-77.702373 v 1.655883 l 1.58567,-0.09183 v -1.21452 z"
           id="path9558" /><path
           style="fill:#f36f27;fill-opacity:1;stroke:none;stroke-width:0.05;stroke-linecap:butt;stroke-linejoin:miter;stroke-dasharray:none;stroke-opacity:1"
           d="m 146.02976,-78.16688 -2.67903,0.07406 2.67903,0.878097 z"
           id="path9556" /><path
           style="fill:#f36f27;fill-opacity:1;stroke:none;stroke-width:0.05;stroke-linecap:butt;stroke-linejoin:miter;stroke-dasharray:none;stroke-opacity:1"
           d="m 155.35083,-78.42536 -1.15896,0.0324 v 1.087975 h -0.64584 v -1.070221 l -1.90819,0.05241 v 1.193675 H 150.992 v -1.17516 l -1.82023,0.05017 v 1.360342 h -0.64584 v -1.342603 l -1.85032,0.05166 v 1.182104 l 4.27394,1.401239 7.03015,-0.407408 v -1.836436 l -1.35031,-0.29784 v 1.454486 h -0.64585 v -1.597232 z"
           id="path8610" /></g><path
         id="path10333"
         style="fill:#000000;fill-opacity:1;stroke:none;stroke-width:0.0400001;stroke-linecap:butt;stroke-linejoin:miter;stroke-dasharray:none;stroke-opacity:1"
         d="m 126.61063,-48.318651 c -0.24861,0.0042 -0.48374,0.04022 -0.6929,0.110344 1.30906,0.542266 2.74495,1.157057 2.78937,2.90666 l -0.0285,5.913625 -6.0857,0.567134 -7.7e-4,3.746944 7.5587,-0.851859 v -3.599566 l -0.50386,0.04706 0.0285,-6.615792 c 6e-4,-1.351815 -1.72231,-2.247412 -3.06484,-2.224555 z m -0.18364,1.827947 c -0.008,3.33e-4 -0.0153,0.0011 -0.0231,0.0024 v 7.72e-4 0.0015 c -0.12501,0.01853 -0.2262,0.136698 -0.22609,0.264664 10e-6,0.0036 -1.4e-4,0.0078 0,0.01 -0.1139,0.02686 -0.20224,0.138386 -0.20216,0.258489 9e-5,0.127397 0.0998,0.217085 0.22377,0.200618 0.0103,-0.0014 0.0203,-0.0031 0.0301,-0.0061 v 0.429016 l -0.34569,0.04321 c 0.001,-0.0096 7.8e-4,-0.01969 7.8e-4,-0.02933 -9e-5,-0.127247 -0.099,-0.217114 -0.22069,-0.201391 -0.11409,0.01478 -0.20803,0.117273 -0.21836,0.234571 -0.003,2.73e-4 -0.005,3.64e-4 -0.009,7.72e-4 -0.11989,0.01493 -0.21762,0.129173 -0.2176,0.254631 3e-5,0.12544 0.0977,0.215878 0.2176,0.202162 0.004,-4.23e-4 0.007,-9.43e-4 0.0108,-0.0015 0.0178,0.105492 0.10771,0.177834 0.21605,0.165896 0.11866,-0.01314 0.21584,-0.121946 0.22068,-0.245372 l 0.34568,-0.03934 v 0.564048 l -0.65355,0.06713 c 2.5e-4,-0.0046 7.7e-4,-0.0094 7.7e-4,-0.01389 -6e-5,-0.126545 -0.0982,-0.218234 -0.21837,-0.205248 -0.11262,0.01224 -0.20428,0.112062 -0.2145,0.228397 -0.003,2.15e-4 -0.006,0.0012 -0.009,0.0015 -0.11835,0.01224 -0.21451,0.122902 -0.21451,0.247687 0,0.124768 0.0961,0.21706 0.21451,0.20602 0.004,-3.42e-4 0.007,-10e-4 0.0108,-0.0015 0.0175,0.105298 0.106,0.179278 0.21296,0.169755 0.12022,-0.01075 0.21843,-0.122559 0.21837,-0.249231 0,-0.0034 -6e-4,-0.0073 -7.7e-4,-0.01075 l 0.65432,-0.06173 0.002,2.479187 -0.44753,0.01852 v 0.337194 l 0.44753,-0.01463 0.002,1.486893 h 0.36265 l -0.001,-1.498468 0.45448,-0.01543 -7.7e-4,-0.346453 -0.45371,0.01852 -0.003,-2.500019 0.67439,-0.06328 c -5.9e-4,0.0075 -7.8e-4,0.01389 -7.7e-4,0.02083 2.1e-4,0.131383 0.10637,0.229258 0.23766,0.217594 0.11804,-0.01045 0.21597,-0.105835 0.23534,-0.22068 0.004,-1.49e-4 0.009,-0.0012 0.0131,-0.0015 0.13343,-0.01239 0.24179,-0.130458 0.24151,-0.263891 -2.8e-4,-0.133354 -0.10892,-0.229824 -0.24228,-0.216051 -0.004,3.74e-4 -0.007,2.75e-4 -0.0108,7.71e-4 -0.0118,-0.120842 -0.1149,-0.204772 -0.2392,-0.191359 -0.13124,0.01418 -0.2371,0.13104 -0.23689,0.262348 0,0.0012 -3e-5,0.0034 0,0.0046 l -0.67207,0.06945 -7.7e-4,-0.567905 0.34645,-0.04012 c 5.7e-4,0.129904 0.10466,0.22331 0.2338,0.209106 0.11632,-0.01284 0.21392,-0.109493 0.23303,-0.223768 0.004,-2.18e-4 0.008,4.6e-4 0.0116,0 0.13146,-0.01501 0.23868,-0.135429 0.23843,-0.267748 -2.5e-4,-0.132235 -0.10779,-0.225452 -0.2392,-0.209107 -0.004,4.44e-4 -0.006,2.08e-4 -0.01,7.72e-4 -0.0115,-0.119602 -0.11284,-0.200991 -0.23535,-0.185187 -0.1293,0.01668 -0.2332,0.135967 -0.23302,0.266206 1e-5,0.0073 2.4e-4,0.01284 7.7e-4,0.01929 l -0.34723,0.04243 v -0.430558 c 7.4e-4,-8.8e-5 0.002,9.8e-5 0.002,0 0.1268,-0.01684 0.23011,-0.13637 0.22994,-0.266206 -1.5e-4,-0.115959 -0.0839,-0.200091 -0.19213,-0.203706 2e-4,-0.0036 7.8e-4,-0.0088 7.8e-4,-0.01239 -1.5e-4,-0.12111 -0.0904,-0.207925 -0.20525,-0.202934 z m 3.42518,7.413637 v 2.702954 l -0.99846,0.125007 v -2.724559 z m -1.38041,0.142745 v 2.733046 l -1.06637,0.133488 v -2.756194 z m -1.44832,0.149693 v 2.76391 l -1.06636,0.133489 v -2.78706 z m -1.44831,0.149692 v 2.795547 l -1.06714,0.133489 v -2.818695 z m -1.44831,0.149693 v 2.827182 l -1.08643,0.135803 v -2.850332 z" /></g></g></svg>
