<?xml version="1.0" encoding="UTF-8" standalone="no"?>
<!-- Created with Inkscape (http://www.inkscape.org/) -->

<svg
   xmlns:dc="http://purl.org/dc/elements/1.1/"
   xmlns:cc="http://creativecommons.org/ns#"
   xmlns:rdf="http://www.w3.org/1999/02/22-rdf-syntax-ns#"
   xmlns:svg="http://www.w3.org/2000/svg"
   xmlns="http://www.w3.org/2000/svg"
   xmlns:sodipodi="http://sodipodi.sourceforge.net/DTD/sodipodi-0.dtd"
   xmlns:inkscape="http://www.inkscape.org/namespaces/inkscape"
   id="svg2"
   version="1.1"
   inkscape:version="0.91 r13725"
   xml:space="preserve"
   width="458"
   height="600"
   viewBox="0 0 458 599.99997"
   sodipodi:docname="Logo USO Nevers.svg"><metadata
     id="metadata8"><rdf:RDF><cc:Work
         rdf:about=""><dc:format>image/svg+xml</dc:format><dc:type
           rdf:resource="http://purl.org/dc/dcmitype/StillImage" /><dc:title></dc:title></cc:Work></rdf:RDF></metadata><defs
     id="defs6" /><sodipodi:namedview
     pagecolor="#ffffff"
     bordercolor="#666666"
     borderopacity="1"
     objecttolerance="10"
     gridtolerance="10"
     guidetolerance="10"
     inkscape:pageopacity="0"
     inkscape:pageshadow="2"
     inkscape:window-width="1440"
     inkscape:window-height="790"
     id="namedview4"
     showgrid="false"
     inkscape:zoom="5.0743638"
     inkscape:cx="1286.6518"
     inkscape:cy="952.53432"
     inkscape:window-x="0"
     inkscape:window-y="1"
     inkscape:window-maximized="1"
     inkscape:current-layer="g10" /><g
     id="g10"
     inkscape:groupmode="layer"
     inkscape:label="Brochure_18-19"
     transform="matrix(1.25,0,0,-1.25,0,599.99995)"><g
       id="g27451"
       transform="matrix(5.8891186,0,0,5.8891186,-5838.2035,-4254.314)"><path
         d="m 1022.4505,725.1848 -0.5264,0.29231 c -0.3412,0.19037 -8.4406,4.76539 -15.9876,15.15126 -4.4263,6.09067 -7.7301,12.92304 -9.81789,20.30363 -2.60791,9.2083 -3.31944,19.29874 -2.11587,29.99044 l 0.078,0.69801 c 0,0 18.34486,6.88438 28.36976,6.90415 10.0249,0.0208 28.3697,-6.90415 28.3697,-6.90415 l 0.079,-0.69801 c 1.2025,-10.6917 0.491,-20.78214 -2.1159,-29.99044 -2.0899,-7.38059 -5.3937,-14.21296 -9.82,-20.30363 -7.547,-10.38587 -15.6453,-14.96089 -15.9865,-15.15126 l -0.5264,-0.29231 z"
         style="fill:#f6de19;fill-opacity:1;fill-rule:nonzero;stroke:none"
         id="path21852"
         inkscape:connector-curvature="0" /><path
         sodipodi:nodetypes="ccccc"
         inkscape:connector-curvature="0"
         id="path21866"
         style="fill:#1b2e51;fill-opacity:1;fill-rule:nonzero;stroke:none"
         d="m 1027.003,799.479 7.867,-1.6 0,-61.676 -7.867,-8 z" /><path
         sodipodi:nodetypes="ccccc"
         inkscape:connector-curvature="0"
         id="path21868"
         style="fill:#1b2e51;fill-opacity:1;fill-rule:nonzero;stroke:none"
         d="m 1010.031,797.879 7.867,1.6 0,-71.276 -7.867,8 z" /><g
         id="g27445"><path
           inkscape:connector-curvature="0"
           id="path21872"
           style="fill:#1b2e51;fill-opacity:1;fill-rule:nonzero;stroke:none"
           d="m 1019.5236,732.5172 0,-0.357 0.179,0 0,-1.431 0.357,0 0,1.788 -0.536,0 z" /><path
           inkscape:connector-curvature="0"
           id="path21884"
           style="fill:#1b2e51;fill-opacity:1;fill-rule:nonzero;stroke:none"
           d="m 1021.2446,731.6008 c 0.079,0 0.145,0.027 0.198,0.083 0.056,0.056 0.084,0.123 0.084,0.202 0,0.079 -0.028,0.147 -0.084,0.202 -0.053,0.053 -0.119,0.079 -0.198,0.079 -0.078,0 -0.145,-0.026 -0.2,-0.079 -0.057,-0.055 -0.085,-0.123 -0.085,-0.202 0,-0.079 0.028,-0.146 0.085,-0.202 0.055,-0.056 0.122,-0.083 0.2,-0.083 m -0.659,0.29 c 0,0.069 0.011,0.137 0.033,0.206 0.047,0.151 0.13,0.268 0.249,0.352 0.104,0.068 0.229,0.101 0.372,0.101 0.07,0 0.139,-0.009 0.207,-0.028 0.151,-0.047 0.268,-0.131 0.349,-0.252 0.057,-0.082 0.09,-0.179 0.1,-0.29 0.02,-0.086 0.03,-0.185 0.03,-0.296 0,-0.318 -0.087,-0.569 -0.262,-0.753 -0.128,-0.134 -0.29,-0.202 -0.486,-0.202 l -0.011,0 c -0.112,0.004 -0.226,0.025 -0.344,0.064 l -0.02,0.005 0.127,0.379 0.021,-0.003 c 0.078,-0.028 0.15,-0.042 0.216,-0.042 0.089,0 0.158,0.027 0.207,0.079 0.013,0.013 0.026,0.03 0.038,0.051 -0.052,-0.014 -0.106,-0.023 -0.162,-0.027 l -0.01,0 c -0.143,0 -0.268,0.035 -0.372,0.105 -0.086,0.059 -0.154,0.138 -0.204,0.236 -0.049,0.099 -0.075,0.203 -0.078,0.31 l 0,0.005 z" /><path
           inkscape:connector-curvature="0"
           id="path21888"
           style="fill:#1b2e51;fill-opacity:1;fill-rule:nonzero;stroke:none"
           d="m 1022.9138,732.001 c -0.07,-0.105 -0.105,-0.231 -0.105,-0.375 0,-0.361 0.12,-0.541 0.36,-0.541 0.238,0 0.357,0.18 0.357,0.541 0,0.144 -0.035,0.27 -0.106,0.375 -0.071,0.106 -0.154,0.159 -0.251,0.159 -0.099,0 -0.184,-0.053 -0.255,-0.159 m -0.266,-1.026 c -0.131,0.163 -0.197,0.38 -0.197,0.651 0,0.243 0.071,0.453 0.213,0.63 0.138,0.174 0.306,0.261 0.505,0.261 0.196,0 0.366,-0.087 0.508,-0.261 0.138,-0.177 0.207,-0.387 0.207,-0.63 0,-0.271 -0.067,-0.488 -0.199,-0.651 -0.131,-0.164 -0.303,-0.246 -0.516,-0.246 -0.215,0 -0.388,0.082 -0.521,0.246" /><path
           inkscape:connector-curvature="0"
           id="path21892"
           style="fill:#1b2e51;fill-opacity:1;fill-rule:nonzero;stroke:none"
           d="m 1024.4192,730.7294 0,0.355 0.312,0 c 0.194,0.004 0.291,0.102 0.291,0.296 0,0.189 -0.099,0.285 -0.294,0.289 l -0.319,0.004 0.309,0.486 -0.299,0 0,0.358 0.95,0 -0.353,-0.555 c 0.241,-0.109 0.361,-0.303 0.361,-0.582 0,-0.216 -0.075,-0.385 -0.225,-0.508 -0.123,-0.095 -0.263,-0.143 -0.421,-0.143 l -0.312,0 z" /></g><path
         id="path27418"
         transform="matrix(0.8,0,0,-0.8,0,841.89)"
         d="m 1278.0664,52.519531 c -13.006,0.02456 -36.8027,8.957031 -36.8027,8.957031 l -0.1016,0.90625 c -0.3943,3.5075 -0.6294,6.964413 -0.707,10.367188 -0.9407,9.982687 0.9394,17.545138 2.6015,25.296875 0.2638,1.088575 0.5471,2.169755 0.8496,3.240235 2.7086,9.57354 6.9967,18.43729 12.7383,26.33789 9.7907,13.47405 20.2969,19.40866 20.7403,19.6543 l 0.6816,0.38086 0.6836,-0.38086 c 0.4423,-0.24564 10.9475,-6.18025 20.7383,-19.6543 5.7415,-7.9006 10.0273,-16.76435 12.7383,-26.33789 0.3038,-1.07306 0.5878,-2.152979 0.8515,-3.244141 2.82,-8.44575 2.7966,-16.892141 2.5996,-25.337891 -0.079,-3.38855 -0.314,-6.82899 -0.707,-10.322266 l -0.1016,-0.90625 c 0,0 -23.7979,-8.982906 -36.8027,-8.957031 z m 0,3.460938 c 12.0462,-0.025 34.0898,8.296875 34.0898,8.296875 l 0.096,0.83789 c 1.445,12.8475 0.5896,24.97211 -2.5429,36.037106 -2.5113,8.86875 -6.4801,17.07969 -11.7989,24.39844 -9.0687,12.48 -18.8009,17.97633 -19.2109,18.20508 l -0.6328,0.35156 -0.6328,-0.35156 c -0.41,-0.22875 -10.1422,-5.72508 -19.2109,-18.20508 -5.3188,-7.31875 -9.2882,-15.52969 -11.7969,-24.39844 -3.1338,-11.064996 -3.9892,-23.189606 -2.543,-36.037106 l 0.094,-0.83789 c 0,0 22.0436,-8.273125 34.0898,-8.296875 z"
         style="fill:#ffffff;fill-opacity:1;fill-rule:nonzero;stroke:none"
         inkscape:connector-curvature="0" /><path
         transform="matrix(0.8,0,0,-0.8,0,841.89)"
         id="path27411"
         d="m 1278.0645,47.476562 -38.0079,12.044922 -0.1035,1.773438 c -1.6112,14.3225 -0.6585,27.839531 2.834,40.175778 2.7975,9.8875 7.2243,19.03922 13.1543,27.19922 10.11,13.91375 20.9605,20.04188 21.418,20.29688 l 0.7051,0.39258 0.705,-0.39258 c 0.4563,-0.255 11.306,-6.38313 21.416,-20.29688 5.93,-8.16 10.3556,-17.31172 13.1543,-27.19922 3.4913,-12.336247 4.4453,-25.853278 2.834,-40.175778 l -0.1054,-1.773438 -38.0039,-12.044922 z m 0,6.621094 c 12.5737,-0.025 35.582,8.658203 35.582,8.658203 l 0.098,0.875 c 0.38,3.3775 0.6074,6.706172 0.6836,9.982422 0.1905,8.165838 0.2129,16.33221 -2.5136,24.498047 -0.255,1.055 -0.5286,2.099222 -0.8223,3.136722 -2.6213,9.25625 -6.7652,17.82414 -12.3164,25.46289 -9.4663,13.0275 -19.6252,18.7664 -20.0527,19.0039 l -0.6582,0.36719 -0.6602,-0.36719 c -0.4288,-0.2375 -10.5865,-5.9764 -20.0527,-19.0039 -5.5513,-7.63875 -9.6977,-16.20664 -12.3164,-25.46289 -0.2925,-1.035 -0.5654,-2.080316 -0.8204,-3.132816 -1.607,-7.494825 -3.4251,-14.807134 -2.5156,-24.458984 0.075,-3.29 0.3024,-6.634141 0.6836,-10.025391 l 0.098,-0.875 c 0,0 23.009,-8.634453 35.584,-8.658203 z"
         style="fill:#1b2e51;fill-opacity:1;fill-rule:nonzero;stroke:none"
         inkscape:connector-curvature="0" /><path
         inkscape:connector-curvature="0"
         id="path27413"
         style="fill:#1b2e51;fill-opacity:1;fill-rule:nonzero;stroke:none"
         d="m 1053.1419,782.9996 -30.692,3.487 -30.691,-3.521 2.013,-19.568 28.678,-2 28.681,2.004 z"
         sodipodi:nodetypes="ccccccc" /><g
         id="g27423"><g
           id="g27387"><path
             d="m 1008.1943,764.813 0,2.725 1.581,-1.468 0,1.468 0.552,0 0,-2.725 -1.588,1.476 0,-1.476 -0.545,0 z"
             style="fill:#ffffff;fill-opacity:1;fill-rule:nonzero;stroke:none"
             id="path21896"
             inkscape:connector-curvature="0" /><path
             d="m 1012.5189,767.5383 0,-0.545 -1.367,0 0,-0.542 1.145,0 0,-0.544 -1.145,0 0,-0.552 1.367,0 0,-0.542 -1.911,0 0,2.725 1.911,0 z"
             style="fill:#ffffff;fill-opacity:1;fill-rule:nonzero;stroke:none"
             id="path21900"
             inkscape:connector-curvature="0" /><path
             d="m 1013.9719,764.813 -1.173,2.725 0.629,0 0.544,-1.399 0.542,1.399 0.628,0 -1.17,-2.725 z"
             style="fill:#ffffff;fill-opacity:1;fill-rule:nonzero;stroke:none"
             id="path21904"
             inkscape:connector-curvature="0" /><path
             d="m 1017.334,767.5383 0,-0.545 -1.367,0 0,-0.542 1.145,0 0,-0.544 -1.145,0 0,-0.552 1.367,0 0,-0.542 -1.912,0 0,2.725 1.912,0 z"
             style="fill:#ffffff;fill-opacity:1;fill-rule:nonzero;stroke:none"
             id="path21908"
             inkscape:connector-curvature="0" /><path
             d="m 1018.708,765.907 c 0.089,0 0.18,0.022 0.273,0.066 0.181,0.094 0.272,0.254 0.272,0.479 0,0.229 -0.091,0.388 -0.272,0.476 -0.093,0.049 -0.184,0.073 -0.273,0.073 l -0.549,0 0,-1.094 0.549,0 z m 1.09,0.545 c 0,-0.408 -0.15,-0.708 -0.448,-0.898 l 0.269,-0.741 -0.58,0 -0.206,0.557 c -0.053,-0.005 -0.094,-0.007 -0.125,-0.007 l -0.549,0 0,-0.55 -0.545,0 0,2.733 1.094,0 c 0.182,0 0.363,-0.047 0.545,-0.14 0.363,-0.181 0.545,-0.499 0.545,-0.954"
             style="fill:#ffffff;fill-opacity:1;fill-rule:nonzero;stroke:none"
             id="path21912"
             inkscape:connector-curvature="0" /><path
             d="m 1020.3416,764.9734 c -0.123,0.059 -0.219,0.12 -0.286,0.183 l 0.19,0.199 0.183,0.205 c 0.036,-0.033 0.085,-0.064 0.147,-0.094 0.157,-0.074 0.333,-0.111 0.529,-0.111 0.317,0 0.486,0.086 0.513,0.259 l 0,0.012 c 0,0.05 -0.019,0.096 -0.054,0.141 -0.083,0.093 -0.236,0.139 -0.459,0.139 -0.389,0 -0.677,0.109 -0.862,0.325 -0.127,0.137 -0.191,0.296 -0.191,0.477 0,0.034 0,0.068 0.01,0.102 0.029,0.216 0.136,0.393 0.323,0.529 0.19,0.133 0.431,0.199 0.722,0.199 0.28,0 0.535,-0.053 0.765,-0.161 0.123,-0.058 0.219,-0.121 0.287,-0.185 l -0.374,-0.397 c 0,0.01 -0.049,0.04 -0.147,0.089 -0.156,0.073 -0.333,0.109 -0.531,0.109 -0.315,0 -0.482,-0.083 -0.503,-0.249 l 0,-0.036 c 0,-0.044 0.015,-0.083 0.046,-0.117 0.083,-0.092 0.235,-0.14 0.457,-0.14 0.39,0 0.679,-0.107 0.871,-0.323 0.122,-0.142 0.184,-0.302 0.184,-0.478 0,-0.039 0,-0.076 -0.01,-0.11 -0.024,-0.216 -0.132,-0.389 -0.323,-0.521 -0.191,-0.137 -0.431,-0.207 -0.724,-0.207 -0.279,0 -0.534,0.054 -0.763,0.161"
             style="fill:#ffffff;fill-opacity:1;fill-rule:nonzero;stroke:none"
             id="path21916"
             inkscape:connector-curvature="0" /><path
             d="m 1025.1777,765.9044 c 0.089,0 0.18,0.023 0.274,0.067 0.182,0.093 0.273,0.253 0.273,0.48 0,0.23 -0.091,0.389 -0.273,0.478 -0.094,0.048 -0.185,0.074 -0.274,0.074 l -0.552,0 0,-1.099 0.552,0 z m 1.094,0.547 c 0,-0.409 -0.151,-0.709 -0.45,-0.902 l 0.271,-0.743 -0.583,0 -0.206,0.56 c -0.053,-0.006 -0.095,-0.009 -0.126,-0.009 l -0.552,0 0,-0.551 -0.547,0 0,2.743 1.099,0 c 0.182,0 0.365,-0.046 0.547,-0.141 0.364,-0.181 0.547,-0.5 0.547,-0.957"
             style="fill:#ffffff;fill-opacity:1;fill-rule:nonzero;stroke:none"
             id="path21920"
             inkscape:connector-curvature="0" /><path
             d="m 1028.7378,767.5422 0,-1.64 c 0,-0.182 -0.044,-0.364 -0.132,-0.546 -0.188,-0.367 -0.507,-0.55 -0.958,-0.55 -0.455,0 -0.773,0.183 -0.955,0.55 -0.094,0.182 -0.141,0.364 -0.141,0.546 l 0,1.64 0.547,0 0,-1.64 c 0,-0.094 0.024,-0.185 0.071,-0.273 0.089,-0.183 0.248,-0.273 0.478,-0.273 0.226,0 0.386,0.09 0.48,0.273 0.043,0.088 0.064,0.179 0.064,0.273 l 0,1.64 0.546,0 z"
             style="fill:#ffffff;fill-opacity:1;fill-rule:nonzero;stroke:none"
             id="path21924"
             inkscape:connector-curvature="0" /><path
             d="m 1031.7548,766.1784 c 0,-0.572 -0.226,-0.971 -0.676,-1.203 -0.232,-0.113 -0.461,-0.169 -0.688,-0.169 -0.571,0 -0.972,0.228 -1.203,0.685 -0.112,0.226 -0.169,0.455 -0.169,0.687 0,0.226 0.057,0.454 0.169,0.684 0.231,0.453 0.632,0.68 1.203,0.68 0.614,0 1.028,-0.261 1.238,-0.782 l -0.47,-0.289 c -0.124,0.35 -0.38,0.524 -0.768,0.524 -0.344,0 -0.585,-0.137 -0.723,-0.411 -0.068,-0.133 -0.102,-0.269 -0.102,-0.406 0,-0.138 0.034,-0.276 0.102,-0.414 0.138,-0.276 0.379,-0.413 0.723,-0.413 0.261,0 0.473,0.091 0.635,0.272 l -0.635,0 0,0.555 1.364,0 z"
             style="fill:#ffffff;fill-opacity:1;fill-rule:nonzero;stroke:none"
             id="path21928"
             inkscape:connector-curvature="0" /><path
             d="m 1032.5819,765.351 0.818,0 c 0.187,0.005 0.28,0.095 0.28,0.273 0,0.188 -0.091,0.281 -0.273,0.281 l -0.825,0 0,-0.554 z m 0,1.1 0.552,0 c 0.182,0.005 0.273,0.097 0.273,0.274 0,0.181 -0.091,0.27 -0.273,0.27 l -0.552,0 0,-0.544 z m -0.547,-1.644 0,2.735 1.099,0 c 0.197,0 0.375,-0.062 0.532,-0.185 0.192,-0.148 0.288,-0.358 0.288,-0.632 0,-0.154 -0.033,-0.289 -0.097,-0.406 0.247,-0.149 0.37,-0.38 0.37,-0.695 0,-0.271 -0.096,-0.482 -0.288,-0.633 -0.152,-0.124 -0.329,-0.184 -0.532,-0.184 l -1.372,0 z"
             style="fill:#ffffff;fill-opacity:1;fill-rule:nonzero;stroke:none"
             id="path21932"
             inkscape:connector-curvature="0" /><path
             d="m 1036.707,767.5422 -1.091,-2.02 0,-0.716 -0.546,0 0,0.716 -1.099,2.02 0.687,0 0.684,-1.313 0.688,1.313 0.677,0 z"
             style="fill:#ffffff;fill-opacity:1;fill-rule:nonzero;stroke:none"
             id="path21936"
             inkscape:connector-curvature="0" /></g><g
           id="g27400"><path
             d="m 1000.5885,771.0502 c 4.684,0 4.63,3.625 4.63,3.625 l 0,6.806 -3.732,0 0,-6.39 c 0,0 0,-0.853 -0.898,-0.853 l -0.141,0 c -0.904,0 -0.904,0.853 -0.904,0.853 l 0,6.39 -3.733,0 0,-6.806 c 0,0 -0.047,-3.625 4.637,-3.625 l 0.141,0 z"
             style="fill:#ffffff;fill-opacity:1;fill-rule:nonzero;stroke:none"
             id="path21940"
             inkscape:connector-curvature="0" /><path
             d="m 1044.3142,781.4825 c -4.685,0 -4.631,-3.626 -4.631,-3.626 l 0,-6.806 3.734,0 0,6.39 c 0,0 0,0.854 0.897,0.854 l 0.14,0 c 0.905,0 0.905,-0.854 0.905,-0.854 l 0,-6.39 3.732,0 0,6.806 c 0,0 0.047,3.626 -4.637,3.626 l -0.14,0 z"
             style="fill:#ffffff;fill-opacity:1;fill-rule:nonzero;stroke:none"
             id="path21944"
             inkscape:connector-curvature="0" /><path
             d="m 1006.7712,772.185 c 0,0.626 0.591,1.134 1.32,1.134 0.736,0 1.325,-0.508 1.325,-1.134 0,-0.625 -0.589,-1.135 -1.325,-1.135 -0.729,0 -1.32,0.51 -1.32,1.135"
             style="fill:#ffffff;fill-opacity:1;fill-rule:nonzero;stroke:none"
             id="path21948"
             inkscape:connector-curvature="0" /><path
             d="m 1035.5753,772.185 c 0,0.626 0.604,1.134 1.326,1.134 0.735,0 1.325,-0.508 1.325,-1.134 0,-0.625 -0.59,-1.135 -1.325,-1.135 -0.722,0 -1.326,0.51 -1.326,1.135"
             style="fill:#ffffff;fill-opacity:1;fill-rule:nonzero;stroke:none"
             id="path21952"
             inkscape:connector-curvature="0" /><path
             d="m 1020.8317,772.2273 c 0,0.627 0.601,1.136 1.325,1.136 0.732,0 1.324,-0.509 1.324,-1.136 0,-0.623 -0.592,-1.135 -1.324,-1.135 -0.724,0 -1.325,0.512 -1.325,1.135"
             style="fill:#ffffff;fill-opacity:1;fill-rule:nonzero;stroke:none"
             id="path21956"
             inkscape:connector-curvature="0" /><path
             d="m 1029.5387,774.4969 c -1.064,0 -1.929,0.833 -1.929,1.864 0,1.023 0.865,1.856 1.929,1.856 1.075,0 1.941,-0.833 1.941,-1.856 0,-1.031 -0.866,-1.864 -1.941,-1.864 m 0.03,7.135 c -3.033,0 -5.503,-2.369 -5.503,-5.288 0,-2.921 2.47,-5.294 5.503,-5.294 3.044,0 5.51,2.373 5.51,5.294 0,2.919 -2.466,5.288 -5.51,5.288"
             style="fill:#ffffff;fill-opacity:1;fill-rule:nonzero;stroke:none"
             id="path21960"
             inkscape:connector-curvature="0" /><path
             d="m 1011.8801,774.8294 -1.14,-2.722 c 0,0 1.043,-1.057 3.766,-1.057 2.728,0 4.614,1.645 4.614,3.634 0,0.915 -0.512,1.995 -1.482,2.524 -1.143,0.62 -2.929,0.152 -2.782,1.288 0.096,0.741 2.235,0.196 2.729,-0.445 l 1.133,2.629 c 0,0 -1.331,0.992 -3.662,0.992 -2.336,0 -3.962,-1.831 -3.962,-3.523 0,-1.686 0.741,-2.723 2.921,-3.071 2.177,-0.348 1.167,-1.24 0.149,-1.24 -1.238,0 -2.284,0.991 -2.284,0.991"
             style="fill:#ffffff;fill-opacity:1;fill-rule:nonzero;stroke:none"
             id="path21964"
             inkscape:connector-curvature="0" /></g></g></g></g></svg>