<?xml version="1.0" encoding="UTF-8" standalone="no"?>
<svg
   xmlns:dc="http://purl.org/dc/elements/1.1/"
   xmlns:cc="http://creativecommons.org/ns#"
   xmlns:rdf="http://www.w3.org/1999/02/22-rdf-syntax-ns#"
   xmlns:svg="http://www.w3.org/2000/svg"
   xmlns="http://www.w3.org/2000/svg"
   xmlns:sodipodi="http://sodipodi.sourceforge.net/DTD/sodipodi-0.dtd"
   xmlns:inkscape="http://www.inkscape.org/namespaces/inkscape"
   viewBox="0 0 790 900"
   height="900"
   width="790"
   xml:space="preserve"
   version="1.1"
   id="svg2"
   inkscape:version="0.91 r13725"
   sodipodi:docname="Logo_Oyonnax_rugby_2018.svg"><sodipodi:namedview
     pagecolor="#ffffff"
     bordercolor="#666666"
     borderopacity="1"
     objecttolerance="10"
     gridtolerance="10"
     guidetolerance="10"
     inkscape:pageopacity="0"
     inkscape:pageshadow="2"
     inkscape:window-width="1280"
     inkscape:window-height="691"
     id="namedview72"
     showgrid="false"
     inkscape:zoom="0.48678446"
     inkscape:cx="468.95151"
     inkscape:cy="292.89069"
     inkscape:window-x="0"
     inkscape:window-y="1"
     inkscape:window-maximized="1"
     inkscape:current-layer="svg2" /><metadata
     id="metadata8"><rdf:RDF><cc:Work
         rdf:about=""><dc:format>image/svg+xml</dc:format><dc:type
           rdf:resource="http://purl.org/dc/dcmitype/StillImage" /><dc:title></dc:title></cc:Work></rdf:RDF></metadata><defs
     id="defs6" /><g
     id="g4487"
     transform="translate(0,365)"><path
       style="fill:#241f20;fill-opacity:1;fill-rule:evenodd;stroke:none;stroke-width:1px;stroke-linecap:butt;stroke-linejoin:miter;stroke-opacity:1"
       d="m 24.879839,-354.84915 722.029461,0 c 26.63055,135.02585 32.89873,232.05078 25.91004,327.16642 -10.8249,147.32644 -64.38271,246.94863 -123.8515,324.86601 -77.82095,101.96281 -166.90095,165.61928 -242.57567,220.47831 l -232.3508,-294.71355 151.11099,0 -223.6491,-288.85477 146.97096,0 z"
       id="path4342"
       inkscape:connector-curvature="0"
       sodipodi:nodetypes="ccsscccccc" /><path
       inkscape:connector-curvature="0"
       id="path4338"
       d="m 190.51744,-353.83169 82.5475,107.91962 269.1292,0 -81.8796,-107.91962 -269.7971,0 z m 242.96723,317.64717 240.63058,314.5923 C 715.5663,213.29781 748.38349,139.5552 770.83365,55.44436 l -69.51876,-91.62888 -267.83022,0 z"
       style="fill:#ed3030;fill-opacity:1;fill-rule:evenodd;stroke:none;stroke-width:1px;stroke-linecap:butt;stroke-linejoin:miter;stroke-opacity:1" /><path
       inkscape:connector-curvature="0"
       id="path4332"
       d="m 0,-365 221.89284,288.12251 -144.570384,0 221.945104,286.08592 -148.64163,0 L 402.60486,535 C 508.07881,464.45619 576.80611,405.58022 665.47139,304.58912 728.96188,232.27247 778.83975,88.85439 787.5561,-37.69453 795.7012,-155.94974 776.66983,-264.18932 753.97763,-365 L 0,-365 Z m 38.875138,17.27806 702.433852,0 c 26.19551,132.82006 32.36279,228.25918 25.48827,321.82101 -10.64807,144.9197 -63.33187,242.91534 -121.82917,319.55985 -76.54967,100.29714 -164.17485,162.91406 -238.61335,216.8769 l -216.85365,-284.04934 148.64162,0 -221.94512,-286.08591 144.5704,0 -221.892852,-288.12251 z"
       style="fill:#ffffff;fill-rule:evenodd;stroke:none;stroke-width:1px;stroke-linecap:butt;stroke-linejoin:miter;stroke-opacity:1" /><g
       transform="matrix(0.99118938,0,0,0.99118943,-996.58489,-171.44817)"
       id="g4437"><g
         id="g4428"><path
           sodipodi:nodetypes="cscscccccc"
           inkscape:connector-curvature="0"
           id="ellipse4352"
           d="m 1296.7754,-53.043 c -16.3196,-4.31e-4 -29.5493,16.55576 -29.5488,36.978547 3e-4,20.422024 13.2298,36.976884 29.5488,36.976453 16.319,4.31e-4 29.5485,-16.554429 29.5488,-36.976453 5e-4,-20.422787 -13.2292,-36.978978 -29.5488,-36.978547 z m -0.2578,12.326203 c 8.0059,-0.0013 14.4963,10.806417 14.4961,24.138672 -4e-4,13.3314922 -6.4907,24.1380543 -14.4961,24.1367188 -8.0047,-4.12e-4 -14.4938,-10.8064623 -14.4942,-24.1367188 -2e-4,-13.331019 6.489,-24.13826 14.4942,-24.138672 z"
           style="opacity:1;fill:#ffffff;fill-opacity:1;fill-rule:nonzero;stroke:none;stroke-width:10;stroke-linecap:round;stroke-linejoin:round;stroke-miterlimit:4;stroke-dasharray:none;stroke-dashoffset:0;stroke-opacity:1" /><path
           inkscape:connector-curvature="0"
           style="opacity:1;fill:#ffffff;fill-opacity:1;fill-rule:nonzero;stroke:none;stroke-width:10;stroke-linecap:round;stroke-linejoin:round;stroke-miterlimit:4;stroke-dasharray:none;stroke-dashoffset:0;stroke-opacity:1"
           d="m 1416.7754,-53.043039 a 29.548176,36.977352 0 0 0 -29.5488,36.978516 29.548176,36.977352 0 0 0 29.5488,36.976562 29.548176,36.977352 0 0 0 29.5488,-36.976562 29.548176,36.977352 0 0 0 -29.5488,-36.978516 z m -0.2578,12.326172 a 14.494648,24.137993 0 0 1 14.4961,24.138672 14.494648,24.137993 0 0 1 -14.4961,24.1367188 14.494648,24.137993 0 0 1 -14.4942,-24.1367188 14.494648,24.137993 0 0 1 14.4942,-24.138672 z"
           id="path4355" /><path
           sodipodi:nodetypes="cccccccccc"
           inkscape:connector-curvature="0"
           id="path4359"
           d="m 1328.7734,-53.043023 c 1.1928,20.778868 10.2061,34.491946 19.9727,46.2207029 l 0,27.7343751 14.8906,-1.09e-4 0,-27.7342661 c 9.7666,-11.7287569 18.7799,-25.4418659 19.9727,-46.2207339 l -15.4336,0 c -1.5135,10.985148 -5.6295,21.859413 -11.9844,30.423859 -6.3549,-8.564446 -10.4709,-19.43868 -11.9844,-30.423828 z"
           style="fill:#ffffff;fill-rule:evenodd;stroke:none;stroke-width:1px;stroke-linecap:butt;stroke-linejoin:miter;stroke-opacity:1" /><path
           sodipodi:nodetypes="ccccccccccccc"
           inkscape:connector-curvature="0"
           id="path4368"
           d="m 1613.9082,-53.043039 c -9.9133,24.651667 -18.9174,49.1218358 -20.8008,73.955078 l 15.5508,0 2.6816,-14.380859 20.8418,0 2.6817,14.380859 15.5508,0 c -1.8834,-24.8332422 -10.8856,-49.303411 -20.7989,-73.955078 z m 7.8535,25.378907 8.1094,21.3574214 -16.2207,0 z"
           style="fill:#ffffff;fill-rule:evenodd;stroke:none;stroke-width:1px;stroke-linecap:butt;stroke-linejoin:miter;stroke-opacity:1" /><path
           sodipodi:nodetypes="ccccccccccc"
           inkscape:connector-curvature="0"
           id="path4373"
           d="m 1456.9654,20.912 -4e-4,-73.955 13.0738,0 27.0552,34.962678 0,-34.962678 15.978,0 0,73.955 -15.978,0 c 0.2303,-22.1554023 -17.8247,-39.452969 -25.058,-46.981663 l 0,46.981663 z"
           style="fill:#ffffff;fill-rule:evenodd;stroke:none;stroke-width:1px;stroke-linecap:butt;stroke-linejoin:miter;stroke-opacity:1" /><path
           style="fill:#ffffff;fill-rule:evenodd;stroke:none;stroke-width:1px;stroke-linecap:butt;stroke-linejoin:miter;stroke-opacity:1"
           d="m 1526.9654,20.912 -4e-4,-73.955 13.0738,0 27.0552,34.962678 0,-34.962678 15.978,0 0,73.955 -15.978,0 c 0.2303,-22.1554023 -17.8247,-39.452969 -25.058,-46.981663 l 0,46.981663 z"
           id="path4375"
           inkscape:connector-curvature="0"
           sodipodi:nodetypes="ccccccccccc" /><path
           inkscape:connector-curvature="0"
           id="path4377"
           d="m 1654.2227,-53.043039 20.0566,37.234375 -20.0566,36.720703 17.7187,0 12.582,-22.8535152 12.584,22.8535152 17.7168,0 -20.0547,-36.720703 20.0547,-37.234375 -17.7168,0 -12.584,24.652344 -12.582,-24.652344 -17.7187,0 z"
           style="fill:#ffffff;fill-rule:evenodd;stroke:none;stroke-width:1px;stroke-linecap:butt;stroke-linejoin:miter;stroke-opacity:1" /></g><g
         id="g4421"
         style="fill:#ffffff"><path
           sodipodi:nodetypes="ccssccccccscscc"
           id="path4357"
           d="m 1561.326,75.604239 c 0.028,0.61855 0,11.035273 0,11.666 l 13.8006,0 c 0.1619,0 -0.084,0.311894 -0.1281,0.466506 -2.316,8.201818 -7.3227,13.879155 -13.1255,13.878185 -8.0047,-4.1e-4 -14.4938,-10.80646 -14.4942,-24.136715 -2e-4,-13.331019 6.489,-24.13826 14.4942,-24.138672 5.4374,-9.07e-4 10.1758,4.984423 12.6564,12.360213 l 13.5774,-5.182816 c -5.0057,-11.578966 -14.7612,-19.503865 -25.976,-19.503569 -16.3196,-4.31e-4 -29.5493,16.555729 -29.5488,36.978516 3e-4,20.422024 13.2298,36.976993 29.5488,36.976563 16.319,4.3e-4 29.5483,-16.554539 29.5488,-36.976563 0,-0.8722 -0.024,-1.530541 -0.072,-2.387648 z"
           style="opacity:1;fill:#ffffff;fill-opacity:1;fill-rule:nonzero;stroke:none;stroke-width:1;stroke-linecap:round;stroke-linejoin:round;stroke-miterlimit:4;stroke-dasharray:none;stroke-dashoffset:0;stroke-opacity:1"
           inkscape:connector-curvature="0" /><path
           style="fill:#ffffff;fill-rule:evenodd;stroke:none;stroke-width:1px;stroke-linecap:butt;stroke-linejoin:miter;stroke-opacity:1"
           d="m 1659.6048,41.013369 c 1.1928,20.778868 10.2061,34.491946 19.9727,46.220704 l 0,27.734377 14.8906,0 0,-27.734377 c 9.7666,-11.728758 18.7799,-25.441836 19.9727,-46.220704 l -15.4336,0 c -1.5135,10.985148 -5.6295,21.859382 -11.9844,30.423828 -6.3549,-8.564446 -10.4709,-19.43868 -11.9844,-30.423828 z"
           id="path4364"
           inkscape:connector-curvature="0"
           sodipodi:nodetypes="cccccccccc" /><path
           sodipodi:nodetypes="cccccccccsccccccc"
           inkscape:connector-curvature="0"
           id="path4398"
           d="m 1401.4199,41.013372 0,73.955078 15.0703,0 0,-27.615234 8.6309,0 c 0.3709,-0.0052 0.7085,-0.02961 1.0723,-0.03906 l 13.2265,27.654294 18.0703,0 -14.9023,-30.193357 c 10.1439,-3.529415 14.5538,-10.578925 14.5332,-20.591797 -0.031,-15.181432 -14.6429,-23.116912 -32,-23.169922 z m 15.0703,14.681641 8.6309,0 c 20.8024,0.386498 20.232,19.322044 0,18.976562 l -8.6309,0 z"
           style="fill:#ffffff;fill-rule:evenodd;stroke:none;stroke-width:1px;stroke-linecap:butt;stroke-linejoin:miter;stroke-opacity:1" /><path
           sodipodi:nodetypes="ccccccccsc"
           inkscape:connector-curvature="0"
           id="path4402"
           d="m 1466.8204,82.968459 -4e-4,-41.955001 15.071,0 0,41.955001 c 0.021,24.952971 25.7648,25.704991 24.9294,0 l -4e-4,-41.955001 15.071,0 0,41.955001 c -0.063,17.357031 -9.4933,31.968681 -27.535,31.999831 -17.2974,0.0299 -27.1573,-9.30181 -27.5356,-31.999831 z"
           style="fill:#ffffff;fill-rule:evenodd;stroke:none;stroke-width:1px;stroke-linecap:butt;stroke-linejoin:miter;stroke-opacity:1" /><path
           inkscape:connector-curvature="0"
           id="path4410"
           d="m 1608.8672,40.909853 0,0.18164 -5.7481,0 0,73.955077 7.7461,0 0,0.0254 15.7363,-0.002 c 19.893,-0.30336 28.0709,-8.20933 28.0449,-22.080079 -0.014,-7.193434 -3.1873,-12.185151 -8.2441,-15.392578 4.3068,-3.615067 6.2568,-8.784814 6.2441,-15.333985 -0.027,-13.991716 -12.8329,-21.304655 -28.0449,-21.353515 l -15.7363,0 z m 17.3906,13.501953 c 16.5291,0.266196 15.5232,17.827989 -1.6543,17.519531 l -6.4121,0 0,-17.490234 6.4121,0 c 0.5698,-0.02859 1.1211,-0.03788 1.6543,-0.0293 z m -1.2051,29.189453 1.5508,0 c 16.0526,0.368326 14.8264,18.231651 0,18.083991 l -8.4121,0 0,-18.066413 6.4121,0 c 0.1555,-0.0023 0.2952,-0.01439 0.4492,-0.01758 z"
           style="fill:#ffffff;fill-rule:evenodd;stroke:none;stroke-width:1px;stroke-linecap:butt;stroke-linejoin:miter;stroke-opacity:1" /></g></g></g></svg>