<?xml version="1.0" encoding="UTF-8" standalone="no"?>
<!-- Generator: Adobe Illustrator 13.0.2, SVG Export Plug-In . SVG Version: 6.00 Build 14948)  -->

<svg
   xmlns:dc="http://purl.org/dc/elements/1.1/"
   xmlns:cc="http://creativecommons.org/ns#"
   xmlns:rdf="http://www.w3.org/1999/02/22-rdf-syntax-ns#"
   xmlns:svg="http://www.w3.org/2000/svg"
   xmlns="http://www.w3.org/2000/svg"
   xmlns:sodipodi="http://sodipodi.sourceforge.net/DTD/sodipodi-0.dtd"
   xmlns:inkscape="http://www.inkscape.org/namespaces/inkscape"
   version="1.1"
   id="Ebene_1"
   x="0px"
   y="0px"
   width="420"
   height="550"
   viewBox="0 0 420.00001 550.00002"
   xml:space="preserve"
   inkscape:version="0.91 r13725"
   sodipodi:docname="Stade_francais_rugby.svg"><metadata
     id="metadata17"><rdf:RDF><cc:Work
         rdf:about=""><dc:format>image/svg+xml</dc:format><dc:type
           rdf:resource="http://purl.org/dc/dcmitype/StillImage" /><dc:title /></cc:Work></rdf:RDF></metadata><defs
     id="defs15" /><sodipodi:namedview
     pagecolor="#ffffff"
     bordercolor="#666666"
     borderopacity="1"
     objecttolerance="10"
     gridtolerance="10"
     guidetolerance="10"
     inkscape:pageopacity="0"
     inkscape:pageshadow="2"
     inkscape:window-width="1280"
     inkscape:window-height="691"
     id="namedview13"
     showgrid="false"
     inkscape:zoom="0.80770639"
     inkscape:cx="113.73772"
     inkscape:cy="327.86723"
     inkscape:window-x="0"
     inkscape:window-y="1"
     inkscape:window-maximized="1"
     inkscape:current-layer="Ebene_1" /><path
     style="fill:#eb5296;fill-opacity:1;stroke:none"
     d="m 353.34813,404.17162 c 34.87333,-41.34833 43.96375,-69.62097 43.96375,-115.67683 0,-46.05388 -32.1292,-70.00039 -31.77849,-105.36264 0.50375,-50.7973 44.8602,-80.07226 44.8602,-80.07226 -21.72986,-22.342567 -44.2906,-43.355217 -70.6506,-58.289578 0,0 -5.91836,6.202973 -24.35291,6.202973 -35.08914,0 -46.4676,-32.965985 -46.4676,-32.965985 -15.84608,-2.567174 -31.49666,-6.304983 -59.33839,-6.49398 -27.84174,0.188997 -43.49231,3.926806 -59.33839,6.49398 0,0 -11.37847,32.965985 -46.4676,32.965985 -18.43455,0 -24.352919,-6.202973 -24.352919,-6.202973 C 53.065176,59.704673 30.50445,80.717323 8.7745767,103.05989 c 0,0 44.3564563,29.27496 44.8602243,80.07226 0.350692,35.36225 -31.778516,59.30876 -31.778516,105.36264 0,46.05586 9.090432,74.3285 43.963761,115.67683 35.219014,36.78333 143.764044,134.31507 143.764044,134.31507 0,0 108.54502,-97.53174 143.76404,-134.31507 z"
     id="path3"
     inkscape:connector-curvature="0"
     sodipodi:nodetypes="cssccscccsccssccc" /><path
     style="fill:#ffffff;fill-rule:evenodd;stroke:none;stroke-width:1px;stroke-linecap:butt;stroke-linejoin:miter;stroke-opacity:1"
     d="m 223.63723,293.42193 -59.66099,56.73286 12.81064,-4.39223 -34.77175,33.67369 16.83685,-6.58833 -38.06592,49.41248 61.85711,-58.92896 -13.54269,4.75824 35.13777,-34.03971 -17.93489,5.85629 z"
     id="path4483"
     inkscape:connector-curvature="0"
     sodipodi:nodetypes="ccccccccccc" /><g
     id="g4445"
     transform="matrix(1.0021313,0,0,1.0021313,-0.77966723,-0.5000137)"><g
       transform="matrix(1.0414507,0,0,1.0414507,-8.3529914,-3.1522295)"
       id="g4590"><path
         style="fill:#ffffff;fill-rule:evenodd;stroke:none;stroke-width:1px;stroke-linecap:butt;stroke-linejoin:miter;stroke-opacity:1"
         d="m 224.674,200.28269 21.00187,3.7e-4 0,-43.9801 44.22646,0 16.55417,-18.53033 -60.78063,0 0,-25.69663 66.4634,0 17.04832,-18.530939 -104.51359,0 z"
         id="path4441"
         inkscape:connector-curvature="0"
         sodipodi:nodetypes="ccccccccccc" /><path
         style="opacity:1;fill:#ffffff;fill-opacity:1;fill-rule:nonzero;stroke:none;stroke-width:2;stroke-linecap:round;stroke-linejoin:round;stroke-miterlimit:4;stroke-dasharray:none;stroke-dashoffset:0;stroke-opacity:1"
         d="m 124.73633,93.544922 c -10.85329,0 -19.5918,8.736558 -19.5918,19.589848 l 0,23.55859 c 0,10.85329 8.73851,19.59159 19.5918,19.59162 l 64.85367,0 0,26.88885 -65.22086,0 0,-16.61524 c 0,0 -19.30207,15.58822 -19.22461,16.29883 1.07076,9.8271 9.35126,17.42578 19.47266,17.42578 l 64.47656,0 c 10.85329,0 19.5918,-8.73655 19.5918,-19.58984 l 0,-23.55859 c 0,-10.85329 -8.73851,-19.57379 -19.5918,-19.57379 l -64.85352,0 0,-26.90668 65.22071,0 0,16.61523 c 0,0 19.30207,-15.58822 19.22461,-16.29883 -1.07076,-9.8271 -9.35126,-17.425778 -19.47266,-17.425778 z"
         id="rect4447"
         inkscape:connector-curvature="0"
         sodipodi:nodetypes="sssscccccssssccccccss" /></g><g
       transform="matrix(1.0414507,0,0,1.0414507,-8.3529914,-3.1522295)"
       id="g4571"><path
         style="fill:#ffffff;fill-rule:evenodd;stroke:none;stroke-width:1px;stroke-linecap:butt;stroke-linejoin:miter;stroke-opacity:1"
         d="m 198.43945,219.69468 0,53 10.42774,0 0,-19.83789 13.91015,0 20.63086,19.83789 14.42774,0 -20.64063,-19.84766 3.84766,0 c 5.38911,0 9.72851,-4.33743 9.72851,-9.72656 l 0,-13.69922 c 0,-5.38912 -4.3394,-9.72656 -9.72851,-9.72656 l -0.70899,0 -31.30664,0 -10.58789,0 z m 10.42774,9.20117 0.0391,0 -0.002,0.0937 28.38476,0 c 4.92617,0.0706 4.67119,14.52296 0,14.56054 l -28.20117,0 -0.002,0.10547 -0.21875,0 0,-14.75976 z"
         id="path4460"
         inkscape:connector-curvature="0" /><path
         sodipodi:nodetypes="sssscccccssssccccccss"
         inkscape:connector-curvature="0"
         id="path4462"
         d="m 309.08698,219.69468 c -5.38911,0 -9.72814,4.33806 -9.72814,9.72718 l 0,11.69781 c 0,5.38913 4.33903,9.72804 9.72814,9.72805 l 32.20254,0 0,13.35144 -32.38486,0 0,-8.25015 c 0,0 -9.58429,7.74019 -9.54582,8.09304 0.53167,4.87957 4.64328,8.65263 9.66898,8.65263 l 32.01529,0 c 5.38911,0 9.72815,-4.33806 9.72815,-9.72718 l 0,-11.69781 c 0,-5.38911 -4.33904,-9.7192 -9.72815,-9.7192 l -32.20247,0 0,-13.36029 32.3848,0 0,8.25015 c 0,0 9.58428,-7.74019 9.54582,-8.09305 -0.53168,-4.87956 -4.64329,-8.65262 -9.66899,-8.65262 z"
         style="opacity:1;fill:#ffffff;fill-opacity:1;fill-rule:nonzero;stroke:none;stroke-width:2;stroke-linecap:round;stroke-linejoin:round;stroke-miterlimit:4;stroke-dasharray:none;stroke-dashoffset:0;stroke-opacity:1" /><path
         style="fill:#ffffff;fill-rule:evenodd;stroke:none;stroke-width:1px;stroke-linecap:butt;stroke-linejoin:miter;stroke-opacity:1"
         d="m 270.43888,272.69442 10.42832,1.9e-4 -2e-4,-52.99986 -10.42812,0 z"
         id="path4464"
         inkscape:connector-curvature="0"
         sodipodi:nodetypes="ccccc" /><path
         id="path4472"
         d="m 66.43945,219.69479 0,53 10.42774,0 0,-19.83789 21.96093,0 0.008,-0.01 10.20703,0 c 5.38911,0 9.72851,-4.33743 9.72851,-9.72656 l 0,-13.69922 c 0,-5.38912 -4.3394,-9.72656 -9.72851,-9.72656 l -0.70899,0 -31.30664,0 -10.58789,0 z m 10.42774,9.20117 0.0391,0 -0.002,0.0937 28.38476,0 c 4.92617,0.0706 4.67119,14.52295 0,14.56054 l -28.20117,0 -0.002,0.10547 -0.21875,0 0,-14.75976 z"
         style="fill:#ffffff;fill-rule:evenodd;stroke:none;stroke-width:1px;stroke-linecap:butt;stroke-linejoin:miter;stroke-opacity:1"
         inkscape:connector-curvature="0" /><path
         style="fill:#ffffff;fill-rule:evenodd;stroke:none;stroke-width:1px;stroke-linecap:butt;stroke-linejoin:miter;stroke-opacity:1"
         d="m 147.2757,219.69468 -28.18976,53 14.20061,0 6.09587,-12.26863 29.78149,0 6.09587,12.26863 14.20062,0 -28.18977,-53 z m 6.99747,10.76532 10.22705,20.581 -20.45411,0 z"
         id="path4475"
         inkscape:connector-curvature="0"
         sodipodi:nodetypes="ccccccccccccc" /></g><path
       style="fill:#ffffff;fill-rule:evenodd;stroke:none;stroke-width:1px;stroke-linecap:butt;stroke-linejoin:miter;stroke-opacity:1"
       d="m 269.76345,293.29998 -72.31751,67.5694 19.35771,-8.03528 -43.0983,42.00259 19.72295,-6.93955 -45.28975,56.97742 73.04797,-67.93462 -17.89674,5.11336 44.55927,-41.27212 -21.54916,8.40052 z"
       id="path4485"
       inkscape:connector-curvature="0"
       sodipodi:nodetypes="ccccccccccc" /></g><path
     style="fill:#ffffff;fill-rule:evenodd;stroke:none;stroke-width:1px;stroke-linecap:butt;stroke-linejoin:miter;stroke-opacity:1"
     d="m 318.50725,293.42507 -84.18422,78.69395 21.96109,-8.41842 -52.70663,48.68044 25.25527,-8.0524 -51.24258,64.78526 83.8182,-77.22987 -20.86304,6.2223 50.51053,-47.58238 -23.79119,9.15046 z"
     id="path4489"
     inkscape:connector-curvature="0"
     sodipodi:nodetypes="ccccccccccc" /><g
     id="g4440"
     transform="matrix(1.0021313,0,0,1.0021313,-0.77966723,-0.5000137)"><path
       id="path4498"
       d="M 73.066406,42.580078 13.193359,96.431641 60.3125,163.27148 C 57.79233,143.85152 63.373941,128.63138 36.207031,96.431641 45.874555,80.035473 58.592343,66.980624 73.066406,54.429688 l 0,-11.84961 z"
       style="fill:#ffffff;fill-opacity:1;fill-rule:evenodd;stroke:none;stroke-width:1px;stroke-linecap:butt;stroke-linejoin:miter;stroke-opacity:1"
       inkscape:connector-curvature="0" /><path
       style="fill:#ffffff;fill-opacity:1;fill-rule:evenodd;stroke:none;stroke-width:1px;stroke-linecap:butt;stroke-linejoin:miter;stroke-opacity:1"
       d="m 347.25764,40.225187 0,14.935213 c 12.90322,11.877714 22.56989,22.787429 37.11062,41.272115 -27.16691,32.199735 -21.58566,47.418955 -24.10584,66.838915 l 47.89259,-70.914766 z"
       id="path4502"
       inkscape:connector-curvature="0"
       sodipodi:nodetypes="cccccc" /><path
       sodipodi:nodetypes="ccccscscccccc"
       inkscape:connector-curvature="0"
       id="path4504"
       d="m 286.30078,473.98047 c 37.80336,-32.75755 70.75166,-67.94152 96.875,-106.53906 l 16.29688,-50.17969 -8.99219,-4.60742 c -18.18945,51.72677 -53.72734,88.62817 -91.8125,122.56836 -30.00428,26.7388 -61.32474,57.11883 -88.24707,80.50586 C 183.49856,492.34149 152.17812,461.96146 122.17383,435.22266 84.088672,401.28247 48.552734,364.38107 30.363281,312.6543 l -8.992187,4.60742 16.296875,50.17969 c 26.123349,38.59754 59.069685,73.78151 96.873051,106.53906 l 75.87988,70.60156 z"
       style="fill:#ffffff;fill-opacity:1;fill-rule:evenodd;stroke:none;stroke-width:1px;stroke-linecap:butt;stroke-linejoin:miter;stroke-opacity:1" /></g><path
     style="fill:#eb5296;fill-opacity:1;stroke:none"
     d="m 209.58409,0 c -29.05833,0.19725546 -45.39276,4.0983937 -61.93123,6.7777418 0,0 -11.87568,34.4064682 -48.498061,34.4064682 -19.240068,0 -25.417044,-6.474018 -25.417044,-6.474018 C 46.225923,50.297125 22.679381,72.227943 0,95.546796 c 0,0 46.294657,30.554134 46.820437,83.571094 0.366019,36.90745 -33.16711,61.90032 -33.16711,109.96656 0,48.06833 9.487649,77.57637 45.884803,120.73146 C 96.296081,448.20651 209.58409,550 209.58409,550 c 0,0 113.288,-101.79349 150.04595,-140.18409 36.39716,-43.15509 45.88481,-72.66313 45.88481,-120.73146 0,-48.06624 -33.53313,-73.05911 -33.16711,-109.96656 0.52579,-53.01696 46.82043,-83.571095 46.82043,-83.571094 -22.67938,-23.318852 -46.22592,-45.249671 -73.73775,-60.836604 0,0 -6.17697,6.474018 -25.41705,6.474018 -36.62237,0 -48.49804,-34.4064682 -48.49804,-34.4064682 C 254.97684,4.0983937 238.64241,0.19725546 209.58409,0 Z m 0.24461,16.24212 c 27.58819,0.185607 34.67692,0.750518 50.23886,3.271662 0,0 27.73828,40.656996 62.19827,35.480714 17.90318,-2.689259 24.95225,-4.537521 24.95225,-4.537521 25.36975,18.289992 28.37273,21.843255 49.71298,43.785234 0,0 -37.86626,34.962661 -38.361,84.849181 -0.34439,34.72823 31.72595,66.52612 31.72595,111.75425 0,45.23011 -8.92768,71.96063 -43.17573,112.5676 -34.58757,36.12379 -137.29158,128.26749 -137.29158,128.26749 0,0 -102.70198,-92.1437 -137.289536,-128.26749 -34.248061,-40.60697 -43.175743,-67.33749 -43.175743,-112.5676 0,-45.22813 32.070353,-77.02602 31.725946,-111.75425 -0.494735,-49.88652 -38.361,-84.849181 -38.361,-84.849181 21.340264,-21.941981 24.343481,-25.495243 49.713231,-43.785234 0,0 7.048824,1.848262 24.952007,4.537521 34.459995,5.176282 62.198265,-35.480714 62.198265,-35.480714 15.56196,-2.521144 22.64865,-3.086055 50.23683,-3.271662 z"
     id="path4514"
     inkscape:connector-curvature="0"
     sodipodi:nodetypes="ccsccsscccssccsccccsccsscccssccscc" /></svg>