<?xml version="1.0" encoding="UTF-8" standalone="no"?>
<svg
   xmlns:dc="http://purl.org/dc/elements/1.1/"
   xmlns:cc="http://creativecommons.org/ns#"
   xmlns:rdf="http://www.w3.org/1999/02/22-rdf-syntax-ns#"
   xmlns:svg="http://www.w3.org/2000/svg"
   xmlns="http://www.w3.org/2000/svg"
   xmlns:sodipodi="http://sodipodi.sourceforge.net/DTD/sodipodi-0.dtd"
   xmlns:inkscape="http://www.inkscape.org/namespaces/inkscape"
   inkscape:version="1.0 (4035a4fb49, 2020-05-01)"
   sodipodi:docname="Logo Section paloise Béarn Pyrénées 2021.svg"
   id="svg162"
   version="1.1"
   viewBox="0 0 999.99554 1003.269"
   height="1003.269"
   width="999.99554">
  <metadata
     id="metadata168">
    <rdf:RDF>
      <cc:Work
         rdf:about="">
        <dc:format>image/svg+xml</dc:format>
        <dc:type
           rdf:resource="http://purl.org/dc/dcmitype/StillImage" />
        <dc:title></dc:title>
      </cc:Work>
    </rdf:RDF>
  </metadata>
  <defs
     id="defs166" />
  <sodipodi:namedview
     inkscape:current-layer="layer1"
     inkscape:window-maximized="1"
     inkscape:window-y="-9"
     inkscape:window-x="-9"
     inkscape:cy="418.91228"
     inkscape:cx="172.58091"
     inkscape:zoom="0.56172837"
     fit-margin-bottom="0"
     fit-margin-right="0"
     fit-margin-left="0"
     fit-margin-top="0"
     inkscape:pagecheckerboard="true"
     showgrid="false"
     id="namedview164"
     inkscape:window-height="1001"
     inkscape:window-width="1920"
     inkscape:pageshadow="2"
     inkscape:pageopacity="0"
     guidetolerance="10"
     gridtolerance="10"
     objecttolerance="10"
     borderopacity="1"
     bordercolor="#666666"
     pagecolor="#ffffff">
    <inkscape:grid
       originy="0"
       originx="-0.003902535"
       id="grid170"
       type="xygrid" />
  </sodipodi:namedview>
  <g
     inkscape:label="Layer 1"
     id="layer1"
     inkscape:groupmode="layer">
    <path
       id="path197"
       d="m 106.20019,171.44657 c -2.98468,-0.1205 -5.67872,1.44116 -8.33833,2.57589 -5.927607,2.83098 -11.784577,5.80774 -17.651271,8.76227 -0.04687,0.62617 0.6197,1.23864 0.827643,1.84381 6.837337,12.27415 13.824853,24.46893 21.040108,36.52517 0.44163,0.30813 1.03905,-0.41759 1.52192,-0.50838 6.40974,-3.21596 12.84608,-6.39334 19.14827,-9.81364 2.45153,-1.52486 4.603,-4.18128 4.24869,-7.23057 -0.51777,-3.60103 -2.2459,-6.92964 -4.20578,-9.94927 -1.51141,-2.35054 -4.20665,-4.1024 -7.08106,-3.76514 -1.37438,0.0385 -2.81351,0.59601 -4.02597,0.93858 1.86371,-1.44592 3.93175,-3.1164 4.40183,-5.56444 0.35552,-3.11461 -1.39099,-5.90946 -2.73612,-8.57469 -1.28168,-2.24004 -3.00692,-4.75566 -5.73961,-5.21347 -0.46907,-0.0368 -0.94033,-0.0247 -1.41032,-0.0261 z m -5.81521,10.20874 c 1.59293,-0.17585 2.23791,1.56665 2.93462,2.65736 0.76029,1.56499 1.92373,3.09793 1.94816,4.89946 -0.27369,1.53213 -2.03934,2.07005 -3.21012,2.76906 -0.66394,0.1934 -1.3464,0.98212 -2.071266,0.71817 -1.14023,-1.52316 -1.851877,-3.35094 -2.835424,-4.98406 -0.635779,-1.29496 -1.524819,-2.59512 -1.984977,-3.91087 1.470048,-0.83125 2.997849,-1.71774 4.653832,-2.11224 0.187475,-0.0235 0.376295,-0.0347 0.565175,-0.0369 z m 8.69577,15.39025 c 1.70937,0.0269 2.48126,1.89879 3.25274,3.13533 0.80847,1.68297 2.0611,3.30604 2.21059,5.2064 -0.15662,1.50985 -1.89257,2.02496 -3.00137,2.69575 -0.80402,0.35872 -1.66521,0.94053 -2.45827,1.12984 -1.91794,-3.2531 -3.78275,-6.53983 -5.56659,-9.86822 1.72959,-0.92414 3.48856,-2.01399 5.46026,-2.29603 l 0.0999,-0.003 z"
       style="fill:#ffffff;stroke:#ffffff;stroke-width:1" />
    <path
       id="path199"
       d="m 167.0896,143.13297 c -4.3949,1.49198 -8.62486,3.453 -12.92338,5.20472 -2.82902,1.2351 -5.74302,2.359 -8.51412,3.67883 1.70415,4.48575 3.78505,8.8439 5.68181,13.259 3.98664,9.00674 8.02677,17.9898 12.14461,26.93734 1.87862,-0.56144 3.74531,-1.57706 5.62405,-2.30709 5.03461,-2.16935 10.14564,-4.18181 15.15792,-6.39391 0.55751,-0.43642 -0.26054,-1.14222 -0.30824,-1.6573 -0.82899,-1.87455 -1.52372,-3.85217 -2.56525,-5.60941 -1.94905,0.57099 -3.784,1.5747 -5.70137,2.27587 -1.59624,0.64769 -3.19442,1.31514 -4.80087,1.92281 -1.4442,-3.31428 -2.95171,-6.68045 -4.25031,-10.01052 2.95302,-1.45811 6.12353,-2.51511 9.06641,-3.93837 -0.77172,-2.33014 -1.80852,-4.57492 -2.70231,-6.86351 -1.73649,0.46017 -3.47418,1.40185 -5.21393,2.03708 -1.40071,0.50642 -2.79249,1.25222 -4.22773,1.57216 -1.31874,-2.86251 -2.51904,-5.78293 -3.59602,-8.74465 3.25863,-1.4974 6.67929,-2.65269 9.89251,-4.23556 0.25335,-0.51547 -0.37,-1.11685 -0.43772,-1.64551 -0.74813,-1.82029 -1.37832,-3.72333 -2.25691,-5.47215 -0.022,-0.009 -0.0458,-0.0111 -0.0692,-0.01 z"
       style="fill:#ffffff;stroke:#ffffff;stroke-width:1" />
    <path
       id="path201"
       d="m 162.95945,132.71525 c -3.43988,1.27616 -6.85062,2.70506 -10.20598,4.15381 -0.89353,3.52458 -1.95007,7.02406 -2.71952,10.57138 0.15094,0.50739 0.84393,-0.21204 1.15278,-0.19668 1.83571,-0.87403 3.87943,-1.41309 5.54384,-2.59936 2.2147,-3.88121 4.3287,-7.83583 6.35796,-11.81759 -3.8e-4,-0.094 -0.0692,-0.12137 -0.12908,-0.11156 z"
       style="fill:#ffffff;stroke:#ffffff;stroke-width:1" />
    <path
       id="path203"
       d="m 225.16021,121.32668 c -5.936,1.95415 -11.84608,4.00967 -17.69734,6.20183 -0.15895,1.19218 0.29968,2.46848 0.38913,3.67715 2.05037,13.44016 4.24398,26.87276 6.88127,40.20556 0.72449,0.23614 1.51243,-0.37159 2.22873,-0.5034 2.81226,-0.99213 5.60862,-2.03447 8.42348,-3.01363 -0.29431,-2.43957 -0.99049,-4.93963 -1.4289,-7.40542 -0.12544,-1.00144 -0.5361,-2.03114 -0.50633,-3.02367 1.71636,-0.94579 3.68848,-1.37704 5.51435,-2.09719 0.44555,-0.039 1.13955,-0.71246 1.33717,0.009 1.67223,2.91621 3.00541,6.05674 4.57915,9.00371 3.49463,-0.95197 6.953,-2.10197 10.35533,-3.35077 0.14128,-0.64971 -0.5299,-1.33267 -0.705,-1.96534 -5.40404,-10.89078 -10.98663,-21.6936 -16.47851,-32.54083 -0.93393,-1.72722 -1.75052,-3.54127 -2.80433,-5.19199 l -0.0599,-0.01 z m -6.98243,8.86235 c 2.02403,3.51682 3.57108,7.30212 5.40784,10.92503 1.09642,2.30356 2.24205,4.58673 3.23845,6.93581 -1.6813,0.61101 -3.36043,1.30541 -5.09515,1.72502 -1.16632,-6.52798 -2.46188,-13.05651 -3.55114,-19.58586 z"
       style="fill:#ffffff;stroke:#ffffff;stroke-width:1" />
    <path
       id="path205"
       d="m 287.70896,103.23012 c -5.4863,0.20634 -10.6982,2.16242 -15.96402,3.52661 -2.12593,0.66241 -4.36012,1.13782 -6.41666,1.94256 0.9663,4.80823 2.33894,9.54527 3.51868,14.31126 2.43059,9.25108 4.78783,18.52551 7.40606,27.72454 0.0593,0.5001 0.47963,0.80735 0.93434,0.4535 3.14349,-0.91789 6.30641,-1.77034 9.44319,-2.71 0.0686,-0.88378 -0.42117,-1.85244 -0.55343,-2.75972 -0.96698,-4.02467 -2.0817,-8.01422 -2.93133,-12.06628 1.87091,-0.52593 3.91754,-1.34004 5.85854,-0.71023 1.14028,0.52464 0.9752,2.02828 1.40282,3.02317 0.97501,3.51327 1.67525,7.13235 2.75438,10.59811 3.07812,-0.4945 6.07637,-1.51258 9.11589,-2.23333 0.5386,-0.1276 1.40037,-0.33417 0.97483,-1.07994 -0.95136,-4.27312 -1.78025,-8.59194 -3.11167,-12.76692 -0.59143,-1.96988 -2.49325,-3.43069 -4.56901,-3.3769 -1.164,-0.0851 -2.44801,0.0169 -3.54254,-0.12323 2.13661,-1.10773 4.56012,-2.45204 5.22853,-4.96085 0.80972,-3.07139 -0.33882,-6.19546 -0.87434,-9.21147 -0.71205,-2.98401 -1.28824,-6.4842 -3.96696,-8.39306 -1.37543,-0.93219 -3.07581,-1.20444 -4.7073,-1.18782 z m -5.1514,8.53536 c 1.41183,-0.0633 2.5395,1.1571 2.68183,2.51779 0.66275,2.833 1.52007,5.6633 1.73076,8.57113 -10e-4,1.61732 -1.90938,2.21445 -3.15132,2.64853 -0.84185,0.21219 -1.75987,0.62465 -2.5843,0.65368 -1.2277,-4.33556 -2.16041,-8.77465 -3.26226,-13.14247 1.41248,-0.66393 3.04938,-0.98624 4.58529,-1.24866 z"
       style="fill:#ffffff;stroke:#ffffff;stroke-width:1" />
    <path
       id="path207"
       d="m 359.94355,86.465207 c -3.11621,0.529718 -6.22898,1.089968 -9.32979,1.703198 -0.0686,1.147965 0.38403,2.395411 0.50204,3.574545 1.73144,10.14392 3.64618,20.25946 5.34268,30.40736 -4.41267,-10.7907 -8.51787,-21.7072 -12.91904,-32.503054 -1.44509,0.04264 -2.94422,0.540919 -4.40468,0.760566 -3.45918,0.722815 -6.95025,1.330877 -10.38137,2.167017 -0.65682,0.216159 -0.0374,1.080136 -0.0991,1.549108 2.46056,13.969313 5.00399,27.927853 7.68447,41.855093 0.30609,0.65316 1.1866,-0.0791 1.69265,-0.0124 2.43329,-0.52426 4.88563,-0.98396 7.30615,-1.56882 0.0914,-0.94936 -0.33966,-1.99832 -0.43978,-2.97707 -1.96871,-10.28911 -4.01807,-20.56704 -5.8607,-30.87854 1.93852,4.22227 3.4905,8.61802 5.27769,12.9077 2.64318,6.50636 5.16789,13.08318 7.89858,19.54066 3.97741,-0.52641 7.91826,-1.41772 11.88173,-2.07953 0.767,-0.23037 1.72083,-0.16734 2.39662,-0.55548 -1.98314,-13.67499 -4.03149,-27.34237 -5.99237,-41.021376 -0.2224,-0.928857 -0.14791,-2.026985 -0.52508,-2.870861 z"
       style="fill:#ffffff;stroke:#ffffff;stroke-width:1" />
    <path
       id="path209"
       d="m 429.05185,87.356758 c -5.88475,0.09736 -12.07312,2.15443 -15.99537,6.716908 -2.25341,2.563483 -3.30482,6.376204 -1.88729,9.596854 1.79214,4.19329 6.22703,6.52178 10.48595,7.4548 3.16067,0.68361 6.46047,0.49437 9.6398,0.0393 5.14332,-1.05638 10.42065,-3.73139 12.94218,-8.54977 1.62632,-3.109155 1.16278,-7.188255 -1.19137,-9.812392 -3.40408,-3.97535 -8.9291,-5.464985 -13.9939,-5.44571 z"
       style="fill:#ffffff;stroke:#ffffff;stroke-width:1" />
    <path
       id="path211"
       d="m 493.99083,74.180789 c -3.7937,0.03269 -7.58704,0.09634 -11.38057,0.143829 -0.2447,1.902723 -0.011,3.976152 -0.0508,5.945019 0.21742,12.894353 0.36647,25.797933 0.70023,38.685413 0.61436,0.47742 1.54477,-0.005 2.26983,0.10571 2.59312,-0.082 5.18791,-0.0508 7.78187,-0.0572 0.23281,-1.83886 0.0335,-3.85672 0.0999,-5.76451 0,-2.32696 0,-4.65393 0,-6.9809 3.97115,-0.0782 8.25297,0.27856 11.86952,-1.678 2.98172,-1.66226 3.91978,-5.277992 4.18547,-8.441306 0.18334,-4.588859 0.30307,-9.193417 0.10382,-13.782456 -0.34248,-3.205361 -2.43745,-6.275017 -5.57606,-7.291166 -3.17396,-1.153024 -6.69141,-0.805269 -10.00314,-0.884483 z m 1.68292,8.084507 c 0.91217,0.09726 2.21612,-0.121156 2.81479,0.734815 0.30839,2.944055 0.077,5.949074 0.14998,8.915822 -0.0849,1.688889 0.1496,3.465404 -0.22435,5.103141 -0.5562,1.371153 -2.2141,1.069987 -3.38292,1.156234 -1.05588,0.16158 -1.97192,0.167794 -1.67351,-1.175287 -0.16158,-4.864163 -0.082,-9.747242 -0.10387,-14.618556 0.80637,-0.04172 1.61194,-0.11426 2.41988,-0.116169 z"
       style="fill:#ffffff;stroke:#ffffff;stroke-width:1" />
    <path
       id="path213"
       d="m 534.6079,74.98629 c -0.36238,0.285613 0.20454,0.952678 0.18053,1.362079 2.71297,9.79984 5.50586,19.580119 8.0435,29.426411 -0.19172,4.74998 -0.52187,9.49993 -0.58084,14.25222 1.22196,0.33769 2.6162,0.24493 3.90009,0.39725 1.91757,0.044 3.85886,0.40991 5.76868,0.21095 0.45532,-0.41274 0.0698,-1.24688 0.25763,-1.78993 0.26466,-4.23643 0.42707,-8.49836 0.78282,-12.71706 3.73043,-9.740619 7.49988,-19.466692 11.3838,-29.14707 -0.75993,-0.373019 -1.86678,-0.167905 -2.75413,-0.328599 -2.55092,-0.171818 -5.14416,-0.389078 -7.66943,-0.54943 -0.7788,1.569911 -1.00638,3.391614 -1.5408,5.063947 -1.34184,4.872271 -2.55046,9.826358 -3.976,14.648836 -0.52441,-1.890194 -0.655,-3.913874 -1.04409,-5.849457 -0.79724,-4.772467 -1.5424,-9.554699 -2.40257,-14.316017 -1.14263,-0.320783 -2.46526,-0.197321 -3.66923,-0.343037 -2.2255,-0.120199 -4.45134,-0.281081 -6.67996,-0.321093 z"
       style="fill:#ffffff;stroke:#ffffff;stroke-width:1" />
    <path
       id="path215"
       d="m 591.39613,79.716645 c -0.41421,0.368484 -0.17846,1.216974 -0.35202,1.745364 -1.33278,14.011439 -2.62348,28.027631 -3.96959,42.037711 -0.24954,0.8682 1.02673,0.49261 1.48609,0.70687 2.87165,0.31383 5.73379,0.79453 8.61355,0.99086 0.38765,-1.49733 0.39727,-3.16021 0.63586,-4.71684 0.42371,-3.46195 0.69069,-7.02669 1.2545,-10.42263 1.74417,0.17269 3.66007,0.2734 5.17352,1.26495 1.18779,0.78658 0.52558,2.37976 0.54196,3.52415 -0.33571,3.72017 -0.90505,7.42211 -1.17413,11.14634 2.00312,0.53342 4.1683,0.67767 6.23479,1.03725 1.27378,0.0874 2.58734,0.57015 3.8544,0.34818 0.44722,-0.79719 0.27358,-1.86852 0.50286,-2.75361 0.41694,-3.63792 1.05844,-7.262 1.27826,-10.9165 0.02,-1.75853 -0.72151,-3.55109 -2.27775,-4.47378 -1.187,-0.89178 -2.75113,-1.4055 -4.00169,-1.96443 2.12755,-0.2134 4.5231,-0.47239 6.02204,-2.19307 2.18801,-2.51665 2.10761,-6.070184 2.58791,-9.182663 0.25496,-3.157909 1.01754,-6.701274 -0.83093,-9.545145 -1.93934,-2.930391 -5.63521,-3.790765 -8.84913,-4.494636 -5.44374,-0.970995 -10.95072,-1.572527 -16.44991,-2.130688 -0.0935,-0.0034 -0.1869,-0.01219 -0.28059,-0.0077 z m 9.93676,8.824853 c 1.4982,0.266538 3.09528,0.273193 4.52937,0.799969 0.97193,0.471478 1.55453,1.475219 1.42695,2.554465 -0.17417,3.060832 -0.46174,6.142109 -1.07076,9.150028 -0.30778,1.20791 -1.56695,1.79778 -2.73612,1.68691 -1.21172,-0.0399 -2.42612,-0.1653 -3.61446,-0.42718 0.37856,-4.590499 0.83665,-9.203088 1.36238,-13.772489 z"
       style="fill:#ffffff;stroke:#ffffff;stroke-width:1" />
    <path
       id="path217"
       d="m 652.32484,89.126954 c -0.40597,0.567287 -0.28895,1.50236 -0.5012,2.190714 -2.15281,13.848602 -4.44142,27.676062 -6.68315,41.510062 1.91345,0.6152 4.06784,0.83961 6.07068,1.30811 4.78099,0.91213 9.54033,2.01338 14.30777,2.93237 0.62372,-0.69384 0.40761,-1.84859 0.72445,-2.6984 0.30473,-1.66775 0.66258,-3.3306 0.89454,-5.00933 -1.54762,-0.55481 -3.3018,-0.73989 -4.92496,-1.14927 -1.73675,-0.45294 -3.59846,-0.5918 -5.25305,-1.28844 0.48545,-3.55649 1.17856,-7.15246 1.87438,-10.66911 2.92945,0.44314 5.81326,1.27789 8.73911,1.67124 0.622,-0.64505 0.45834,-1.75628 0.74526,-2.56651 0.25885,-1.56073 0.66236,-3.12173 0.74711,-4.69898 -2.59967,-0.77911 -5.35091,-1.17196 -8.00909,-1.78738 -0.70231,-0.0229 -1.19945,-0.20388 -0.81392,-0.97916 0.49979,-2.88948 0.89131,-5.88675 1.5142,-8.704692 3.2945,0.447774 6.53106,1.323462 9.79907,1.968422 0.52494,-1.618578 0.67023,-3.491404 1.02439,-5.215483 0.0641,-0.84523 0.42307,-1.757281 0.28451,-2.579524 -6.38798,-1.546825 -12.85757,-2.779876 -19.30955,-4.043368 -0.40914,-0.06692 -0.8166,-0.161722 -1.23055,-0.191271 z"
       style="fill:#ffffff;stroke:#ffffff;stroke-width:1" />
    <path
       id="path219"
       d="m 665.02537,80.117705 c -2.40309,2.544478 -5.01564,4.931711 -7.2495,7.615527 0.87043,0.484987 2.03935,0.510844 3.02168,0.798624 1.03296,0.107188 2.08918,0.62551 3.12206,0.497983 3.30096,-1.719161 6.39136,-3.82134 9.59102,-5.722095 0.45237,-0.350276 1.07339,-0.566258 1.42169,-1.016633 -1.56058,-0.552294 -3.36554,-0.750634 -5.01525,-1.171218 -1.62928,-0.316717 -3.26584,-0.765812 -4.8917,-1.002188 z"
       style="fill:#ffffff;stroke:#ffffff;stroke-width:1" />
    <path
       id="path223"
       d="m 708.16405,101.90371 c -0.43574,0.56547 -0.38885,1.50734 -0.64385,2.20238 -3.05705,13.56968 -6.09424,27.14557 -9.33255,40.67445 1.75293,0.69601 3.77052,1.04595 5.63081,1.59564 1.28614,0.27923 2.56664,0.74526 3.87692,0.84268 0.91629,-3.0567 1.49298,-6.25439 2.2522,-9.36986 1.81318,-7.88445 3.48569,-15.80205 5.2785,-23.69007 0.19851,-0.4712 0.13302,0.8808 0.16779,1.19025 0.0132,11.32188 -0.4062,22.63941 -0.5166,33.9598 3.28268,1.12614 6.75248,1.97283 10.10309,3.00763 1.65383,0.43212 3.29984,1.07703 4.95156,1.41448 1.92585,-6.07995 3.49743,-12.28238 5.23085,-18.42489 2.15212,-8.00363 4.44161,-15.97647 6.38728,-24.03183 -0.86318,-0.53195 -2.0753,-0.64352 -3.05536,-1.02734 -2.32405,-0.70276 -4.66311,-1.3578 -6.97544,-2.09816 -0.57952,1.42548 -0.74343,3.15752 -1.16221,4.70374 -2.12912,9.23101 -4.15634,18.48982 -6.49757,27.6684 -0.0894,0.24879 -0.23237,0.89744 -0.34205,0.93826 0.39917,-11.7838 0.4894,-23.58143 0.37125,-35.37255 -3.18849,-1.05385 -6.55835,-1.8416 -9.82609,-2.76109 -1.96029,-0.4829 -3.90424,-1.10513 -5.89853,-1.42192 z"
       style="fill:#ffffff;stroke:#ffffff;stroke-width:1" />
    <path
       id="path225"
       d="m 777.34297,122.77142 c -1.12002,2.99078 -1.95122,6.16771 -2.96257,9.22589 -3.38188,10.90872 -7.08674,21.71366 -10.55606,32.59313 1.48908,0.74362 3.23532,1.13943 4.81388,1.7679 5.29626,1.83678 10.55337,3.80924 15.83747,5.66047 0.70842,-0.36411 0.61658,-1.45915 1.02112,-2.07925 0.64168,-1.72471 1.28837,-3.44766 1.91476,-5.17794 -1.66177,-0.8524 -3.63443,-1.36742 -5.42019,-2.08304 -1.61206,-0.66478 -3.4801,-1.10614 -4.9628,-1.87408 1.02956,-3.44141 2.17183,-6.87577 3.45649,-10.23825 3.10156,0.85672 6.09532,2.06918 9.11927,3.1673 0.80143,-1.57706 1.26325,-3.46656 1.91674,-5.1718 0.10608,-0.64497 0.65303,-1.34846 0.54525,-1.97844 -3.03768,-1.13627 -6.10137,-2.20328 -9.1411,-3.33417 1.03808,-2.98592 1.93844,-6.13202 3.09293,-9.01325 3.38945,0.99397 6.67558,2.39141 10.05047,3.46172 0.72759,-1.34129 1.04811,-2.95488 1.58426,-4.40859 0.27901,-0.97608 0.67392,-1.93769 0.84484,-2.93588 -2.91145,-1.27593 -6.00509,-2.23032 -8.99426,-3.35685 -4.04841,-1.41774 -8.07146,-2.9391 -12.1605,-4.22487 z"
       style="fill:#ffffff;stroke:#ffffff;stroke-width:1" />
    <path
       id="path227"
       d="m 791.90529,116.04837 c -2.84142,2.06979 -5.76864,4.0323 -8.53075,6.2049 0.17642,0.49233 1.04067,0.49863 1.46079,0.77996 1.59388,0.56228 3.18068,1.23396 4.82279,1.61134 4.01776,-1.35256 7.95363,-2.95175 11.91379,-4.46483 0.31011,-0.0294 0.74273,-0.39913 0.25292,-0.54243 -3.27073,-1.27042 -6.6132,-2.46112 -9.91954,-3.58894 z"
       style="fill:#ffffff;stroke:#ffffff;stroke-width:1" />
    <path
       id="path229"
       d="m 832.87293,143.70183 c -2.29086,5.33835 -4.35194,10.83728 -6.58852,16.2233 -3.16967,7.90057 -6.54797,15.71478 -9.73969,23.60517 -0.22326,0.46024 -0.46375,1.10408 0.31378,1.15124 6.73693,2.82756 13.47291,5.65528 20.17254,8.57008 0.5661,-0.44016 0.72463,-1.38209 1.12862,-1.9976 0.72128,-1.6942 1.74821,-3.31066 2.17636,-5.105 -0.58584,-0.56528 -1.581,-0.70915 -2.30417,-1.12506 -2.66722,-1.18574 -5.4602,-2.29718 -8.05731,-3.51371 1.42003,-3.35673 2.85308,-6.75376 4.37017,-10.04156 3.05193,1.19789 6.03293,2.64675 9.09315,3.78963 0.81484,-0.72783 1.03352,-1.96033 1.56807,-2.89224 0.50052,-1.25696 1.21408,-2.48787 1.56388,-3.77611 -2.93853,-1.5594 -6.21255,-2.65117 -9.13156,-4.13445 1.08676,-2.96749 2.3083,-5.8982 3.69713,-8.74095 3.44063,1.2498 6.73966,2.86922 10.16264,4.16272 0.94273,-1.64118 1.57229,-3.5372 2.37821,-5.27961 0.14351,-0.62513 0.76621,-1.30097 0.65571,-1.91119 -7.09407,-3.09952 -14.23417,-6.10766 -21.42121,-8.98374 l -0.0326,-0.002 z"
       style="fill:#ffffff;stroke:#ffffff;stroke-width:1" />
    <path
       id="path231"
       d="m 891.35698,170.6214 c -2.81977,-0.002 -5.06387,2.09868 -6.4442,4.37617 -1.74139,2.85377 -3.30162,5.85305 -4.42928,9.00417 -0.50204,1.82338 -0.5863,3.92523 0.55441,5.53923 2.62277,3.94565 7.00751,6.16932 10.24193,9.51419 0.88625,0.79185 0.86909,2.09559 0.23972,3.04867 -1.03685,1.91408 -1.96514,3.94381 -3.34155,5.63789 -1.34501,0.96794 -3.05107,0.0181 -4.3127,-0.63832 -0.90307,-0.47611 -1.98674,-1.40278 -1.53356,-2.54435 0.54587,-1.845 1.78182,-3.41705 2.45185,-5.20947 -3.23223,-1.71448 -6.59323,-3.25817 -9.91402,-4.8244 -1.05384,1.57294 -1.88503,3.43962 -2.71706,5.19626 -1.1053,2.40366 -2.01,5.47103 -0.36726,7.85493 2.18126,3.05383 5.69906,4.75114 8.9131,6.49611 3.33889,1.60756 6.80985,3.42685 10.59747,3.50304 3.57666,0.0115 6.53353,-2.53877 8.43362,-5.35761 1.84574,-2.82715 3.56755,-5.81285 4.54965,-9.05903 0.65333,-2.15107 -0.19678,-4.43529 -1.66534,-6.04232 -2.7746,-3.32578 -6.5553,-5.58723 -9.56464,-8.66383 -0.90412,-0.8124 -0.68977,-2.10769 -0.16043,-3.05481 0.8001,-1.54072 1.44285,-3.24567 2.60459,-4.55918 1.38265,-0.97201 3.07675,0.0493 4.3797,0.6838 0.83285,0.38566 1.85338,1.13579 1.51818,2.19431 -0.38637,1.6506 -1.53337,3.07457 -1.99608,4.63324 3.27001,1.6331 6.53995,3.26633 9.80984,4.89969 1.0971,-1.56023 1.95875,-3.435 2.89193,-5.15877 1.31137,-2.11471 1.40979,-4.99757 -0.15962,-7.00957 -2.5311,-3.30705 -6.44397,-5.11488 -10.06178,-6.96521 -3.32955,-1.52367 -6.7829,-3.37028 -10.51847,-3.49483 z"
       style="fill:#ffffff;stroke:#ffffff;stroke-width:1" />
    <path
       id="path233"
       d="m 575.49018,185.31565 c -45.50458,0.89611 -91.47896,8.70173 -133.19859,27.39623 -53.52721,23.89538 -100.26788,64.65813 -127.26312,117.08988 -11.90917,22.3591 -19.88854,46.98399 -21.29429,72.37937 -1.64461,22.26103 1.45041,46.85036 16.79587,64.17269 17.15695,19.60823 43.58964,27.39403 68.64659,30.28045 60.48126,6.88715 122.90901,-5.13461 176.84139,-33.23323 26.48414,-14.09203 50.8404,-32.03246 72.57801,-52.6756 0.90644,-0.71983 2.22136,-2.28698 2.8532,-0.26676 27.83116,35.3808 54.74599,71.47651 82.6669,106.78334 -2.36352,-4.87447 -6.32376,-9.85502 -9.28312,-14.73597 -22.20668,-33.86748 -44.83986,-67.45468 -67.01107,-101.34458 28.03282,-30.40974 49.53016,-67.54378 58.04254,-108.26335 4.04395,-17.99822 4.85041,-36.60648 3.51969,-54.96095 -0.76728,-5.75806 -0.76914,0.5351 -0.95699,2.80565 -2.18818,19.08631 -6.1807,38.09323 -12.57556,56.22135 -10.66986,26.31546 -25.91273,50.73251 -43.79429,72.74485 -4.72781,5.46448 -9.17289,11.22318 -14.47179,16.1587 -12.21565,-18.22486 -24.23296,-36.81621 -36.57174,-54.81336 -10.27556,14.65191 -20.29305,29.49675 -30.84319,43.94509 -22.98662,-44.01969 -44.48541,-88.81904 -67.88143,-132.62466 -0.63868,-1.0588 -1.8069,-3.93729 -2.74322,-1.23775 -46.94796,66.33592 -93.76015,132.78129 -139.45387,199.99116 -3.57163,5.62483 -7.77191,11.0028 -10.77179,16.91431 9.7356,-11.09104 18.90376,-23.20631 28.36951,-34.72196 40.06418,-49.5881 79.42058,-99.78287 120.04416,-148.89646 17.49028,44.41362 33.94702,89.34616 51.568,133.66695 17.11413,-16.99671 32.5583,-35.68691 49.49294,-52.89073 10.72985,12.58779 20.39558,26.07799 30.58504,39.11517 -40.48198,39.42448 -93.62867,64.1446 -148.50123,75.9221 -35.98044,7.52316 -73.11507,9.66991 -109.73953,6.60957 -16.58389,-1.70113 -34.79912,-5.1571 -46.27708,-18.42356 -7.76279,-8.54831 -10.52862,-20.30681 -10.09388,-31.60166 0.22114,-20.38247 8.58884,-39.59812 17.27177,-57.67273 23.25284,-45.26371 55.94982,-86.26087 97.41023,-116.1159 38.84653,-27.93099 84.09658,-47.06489 131.23631,-55.26358 40.21501,-6.52384 82.81411,-6.95837 121.37516,7.68191 3.56458,1.17692 7.13191,3.49344 10.75639,3.94114 -3.47496,-3.89481 -8.68699,-6.2554 -13.32712,-8.66535 -29.37389,-12.94196 -62.27607,-15.50256 -94.0008,-15.41177 z"
       style="fill:#ffffff;stroke:#ffffff;stroke-width:1" />
    <path
       id="path235"
       d="m 227.97776,566.27272 c -7.72574,0.10471 -15.50294,0.11836 -23.1496,1.35069 -5.90812,1.02754 -12.15774,2.93245 -16.17376,7.66381 -4.06211,4.79083 -4.94908,11.36749 -4.84226,17.43969 0.17663,5.41387 1.11166,11.27669 4.91523,15.414 3.84915,4.30679 9.733,5.86533 15.22348,6.78054 8.13341,1.22447 16.37831,1.38582 24.57676,1.88128 4.97418,0.32965 10.00393,0.31621 14.92215,1.14524 1.87443,0.25073 3.57118,1.80415 3.66356,3.77578 0.29767,2.36423 0.43486,4.98639 -0.73352,7.15487 -1.62165,2.33433 -4.61368,2.8678 -7.25345,3.07905 -5.86871,0.40635 -11.7888,0.49408 -17.66323,0.13177 -2.88623,-0.30556 -6.19751,-0.53616 -8.37651,-2.66593 -1.63549,-1.70705 -1.65146,-4.2113 -1.76774,-6.44339 -2.05675,-0.21929 -4.275,-0.0315 -6.39391,-0.094 -7.069,0 -14.138,0 -21.207,0 -0.14876,1.61096 0.12598,3.38309 0.25078,5.05182 0.51681,5.36537 2.16168,10.93012 6.14003,14.77411 4.60906,4.56304 11.23093,6.09613 17.45576,6.90716 9.19084,1.09992 18.47184,0.79786 27.70712,0.73377 8.65322,-0.30924 17.43354,-0.8395 25.75501,-3.41334 4.9596,-1.62139 10.114,-4.23158 12.6971,-8.99906 2.71325,-4.98422 2.30549,-10.84652 2.23948,-16.32234 0.0173,-4.64036 -0.72512,-9.6064 -3.72783,-13.32025 -3.4108,-4.09909 -8.82693,-5.60421 -13.84618,-6.63676 -9.63943,-1.82846 -19.48498,-1.99457 -29.24699,-2.6687 -3.86349,-0.30696 -7.77629,-0.30619 -11.59002,-0.97863 -1.91883,-0.30924 -3.79755,-1.42556 -4.49358,-3.31875 -0.64146,-1.56581 -0.2617,-3.32851 -0.33273,-4.97572 0.0708,-2.2004 2.14818,-3.694 4.13189,-4.1414 4.88178,-1.35595 10.00901,-0.83593 15.01931,-0.96313 3.56044,0.13692 7.42891,-0.45593 10.68263,1.34575 1.9145,1.09926 2.66633,3.33885 2.7966,5.42121 0.0248,0.84978 0.0182,1.8689 1.17958,1.49269 8.81769,0 17.63537,0 26.45305,0 0.1876,-1.64771 -0.0293,-3.46635 -0.0419,-5.18193 -0.11603,-5.35897 -1.99246,-10.93736 -6.18509,-14.47676 -4.3975,-3.87439 -10.35048,-5.206 -15.99292,-6.04644 -7.553,-0.9085 -15.19579,-0.84644 -22.79126,-0.89666 z"
       style="fill:#ffffff;stroke:#ffffff;stroke-width:1" />
    <path
       id="path237"
       d="m 289.65266,566.96912 c 0,27.58882 0,55.17764 0,82.76646 1.83885,0.23282 3.85672,0.0335 5.7645,0.0999 22.29135,0 44.5827,0 66.87405,0 0.23281,-1.83886 0.0335,-3.85672 0.0999,-5.76451 0,-4.09111 0,-8.18223 0,-12.27335 -1.83886,-0.23282 -3.85672,-0.0335 -5.76451,-0.0999 -13.49886,0 -26.99773,0 -40.4966,0 0,-5.38824 0,-10.77647 0,-16.16471 14.12827,0 28.25654,0 42.38481,0 0.23282,-1.83886 0.0335,-3.85672 0.0999,-5.76451 0,-3.14701 0,-6.29402 0,-9.44104 -1.83886,-0.23282 -3.85672,-0.0335 -5.76451,-0.0999 -12.24006,0 -24.48012,0 -36.72018,0 0,-5.02108 0,-10.04217 0,-15.06325 15.07238,0 30.14475,0 45.21712,0 0.23282,-1.83886 0.0335,-3.85672 0.0999,-5.76451 0,-4.14357 0,-8.28714 0,-12.4307 -1.83885,-0.23282 -3.85672,-0.0335 -5.7645,-0.0999 -21.97665,0 -43.9533,0 -65.92994,0 z"
       style="fill:#ffffff;stroke:#ffffff;stroke-width:1" />
    <path
       id="path239"
       d="m 421.35642,566.29023 c -9.3929,0.10384 -18.98885,0.29776 -28.01027,3.20357 -5.88444,1.87184 -11.37816,5.68939 -14.21832,11.29283 -1.74163,3.43663 -2.74735,7.24288 -3.13647,11.06522 -0.3377,10.1549 -0.32371,20.32175 -0.15171,30.48012 0.20557,5.97761 1.48602,12.18795 5.07702,17.09837 2.96554,4.13977 7.49179,6.90646 12.32437,8.33805 8.7052,2.59338 17.90155,2.61225 26.90666,2.66189 8.99699,-0.076 18.28051,0.39319 26.92052,-2.57234 5.93512,-2.08226 11.57953,-6.09192 14.06687,-12.05098 2.34604,-5.41941 1.88516,-11.46399 2.13961,-17.22436 -1.78293,-0.23851 -3.75239,-0.0343 -5.60715,-0.10234 -7.24541,0 -14.49082,0 -21.73622,0 -0.21602,1.66952 -0.004,3.51976 -0.33704,5.22855 -0.31504,2.5711 -1.70687,5.20376 -4.25072,6.15448 -3.31912,1.2884 -6.97749,1.17527 -10.48715,1.31135 -4.4367,-0.088 -9.14262,0.11605 -13.1929,-1.93245 -2.70498,-1.35772 -3.91965,-4.40798 -4.31239,-7.22676 -0.39217,-3.81144 -0.21092,-7.66313 -0.29551,-11.49088 0.0399,-5.23464 -0.0995,-10.48298 0.23372,-15.70806 0.36982,-2.87767 1.55858,-6.01841 4.30097,-7.39132 3.76839,-1.86748 8.11439,-1.72407 12.21903,-1.81307 4.14245,0.14569 8.59245,-0.24422 12.33451,1.86301 2.64632,1.45184 3.71877,4.6435 3.53025,7.51073 -0.18887,1.13184 0.0114,2.05397 1.35868,1.66509 8.60184,0 17.20368,0 25.80552,0 0.21666,-1.73777 0.0693,-3.64803 0.0416,-5.45381 -0.30709,-6.00513 -1.51917,-12.3934 -5.59005,-17.05687 -4.00256,-4.43473 -10.0557,-6.09897 -15.77308,-6.91204 -6.6724,-0.92977 -13.43723,-0.90803 -20.16034,-0.93798 z"
       style="fill:#ffffff;stroke:#ffffff;stroke-width:1" />
    <path
       id="path241"
       d="m 472.91671,566.96912 c 0,6.39892 0,12.79785 0,19.19678 1.83886,0.23282 3.85672,0.0335 5.76451,0.0999 6.57543,0 13.15087,0 19.7263,0 0,21.1566 0,42.3132 0,63.4698 1.83886,0.23282 3.85673,0.0335 5.76451,0.0999 6.87098,0 13.74196,0 20.61294,0 0.23282,-1.83886 0.0335,-3.85672 0.0999,-5.76451 0,-19.26839 0,-38.53678 0,-57.80517 8.88325,0 17.76649,0 26.64974,0 0.23282,-1.83886 0.0335,-3.85672 0.0999,-5.7645 0,-4.51072 0,-9.02144 0,-13.53216 -1.83886,-0.23282 -3.85672,-0.0335 -5.76451,-0.0999 -24.28445,0 -48.56891,0 -72.85337,0 z"
       style="fill:#ffffff;stroke:#ffffff;stroke-width:1" />
    <path
       id="path243"
       d="m 565.12422,566.96912 c 0,27.58882 0,55.17764 0,82.76646 1.83885,0.23282 3.85672,0.0335 5.7645,0.0999 6.92343,0 13.84686,0 20.7703,0 0.23281,-1.83886 0.0335,-3.85672 0.0999,-5.76451 0,-25.70061 0,-51.40122 0,-77.10183 -1.83886,-0.23282 -3.85672,-0.0335 -5.76451,-0.0999 -6.92343,0 -13.84686,0 -20.77029,0 z"
       style="fill:#ffffff;stroke:#ffffff;stroke-width:1" />
    <path
       id="path245"
       d="m 654.95093,566.28839 c -9.67313,0.13373 -19.60112,0.48883 -28.75113,3.95647 -6.27362,2.33546 -11.89735,7.00499 -14.37341,13.33951 -1.47375,3.73877 -2.28618,7.7545 -2.15679,11.78249 -0.0338,9.2267 -0.20945,18.45717 0.0163,27.68212 0.25565,6.93482 2.84311,14.07937 8.25215,18.64712 5.83559,4.99863 13.59279,6.84847 21.03133,7.83355 8.64892,1.08327 17.39986,1.07179 26.09421,0.66702 8.15438,-0.53737 16.57303,-1.59389 23.8633,-5.54041 5.63029,-2.99632 9.84585,-8.42276 11.40063,-14.60502 0.99312,-3.47549 1.24172,-7.09549 1.20331,-10.69413 0.0635,-8.98793 0.17057,-17.983 -0.14762,-26.96664 -0.62069,-6.33482 -2.98246,-12.78144 -7.876,-17.05918 -5.64545,-5.00314 -13.22375,-6.96783 -20.51722,-8.02663 -5.97457,-0.79739 -12.01639,-1.01717 -18.03906,-1.01627 z m 0.24924,19.32893 c 4.26916,0.12229 8.66838,-0.18273 12.78597,1.10422 2.65015,0.75891 4.8041,2.9715 5.47716,5.65418 1.07399,3.69932 0.60063,7.60132 0.7607,11.39744 -0.0217,5.85797 0.11187,11.72576 -0.18139,17.57722 -0.28299,2.99211 -1.37885,6.26455 -4.16826,7.80146 -3.5758,1.97087 -7.81398,1.81041 -11.77833,2.01162 -4.29562,0.009 -8.65814,0.13805 -12.88731,-0.64126 -2.38303,-0.45959 -4.85598,-1.47053 -6.15727,-3.63935 -2.27957,-3.54507 -2.06011,-7.92177 -2.12195,-11.96722 -0.0204,-6.40478 -0.14767,-12.81995 0.18334,-19.21772 0.41132,-3.11057 1.46731,-6.60449 4.43225,-8.19361 4.15094,-2.18337 9.098,-1.75514 13.65509,-1.88698 z"
       style="fill:#ffffff;stroke:#ffffff;stroke-width:1" />
    <path
       id="path247"
       d="m 718.60888,566.96912 c 0,27.58882 0,55.17764 0,82.76646 1.83885,0.23282 3.85672,0.0335 5.7645,0.0999 6.13668,0 12.27335,0 18.41003,0 0.23673,-1.73536 -0.0246,-3.64612 0.008,-5.44911 -0.4114,-19.346 -0.9216,-38.70254 -1.3002,-58.04128 0.4892,-0.17404 1.21476,-0.19709 1.22519,0.50718 8.48174,20.94737 16.96345,41.89475 25.44514,62.84215 4.7132,0.15429 9.50905,0.0392 14.25404,0.0898 9.02821,0.0175 18.05642,0.035 27.08463,0.0525 0.23353,-1.83842 0.0336,-3.85679 0.10019,-5.76451 0,-25.70102 0,-51.40204 0,-77.10306 -1.83886,-0.23282 -3.85672,-0.0335 -5.76451,-0.0999 -6.13668,0 -12.27335,0 -18.41003,0 -0.23891,1.7742 0.022,3.72303 -0.009,5.56467 0.40881,19.3657 0.92237,38.76071 1.29979,58.10734 -0.70418,0.20815 -1.21511,-0.15439 -1.3067,-0.8916 -8.57874,-20.90604 -17.14574,-41.81691 -25.73488,-62.71864 -4.76634,-0.14415 -9.61386,-0.0206 -14.41142,-0.0618 -8.85149,0 -17.70298,0 -26.55446,0 z"
       style="fill:#ffffff;stroke:#ffffff;stroke-width:1" />
    <path
       id="path249"
       d="m 332.13228,682.77922 c 0,15.83997 0,31.67994 0,47.51991 1.83886,0.23282 3.85672,0.0335 5.76451,0.0999 1.90778,-0.0664 3.92565,0.13294 5.7645,-0.0999 0,-4.47742 0,-8.95485 0,-13.43227 4.40138,-0.10043 9.1423,0.41896 13.18273,-1.70966 3.26665,-1.80558 4.42512,-5.79432 4.58815,-9.29305 0.10069,-4.78443 0.19035,-9.58031 -0.0492,-14.36118 -0.28948,-3.09008 -2.11836,-6.19417 -5.04907,-7.44142 -3.40002,-1.67791 -7.31573,-1.22066 -10.98285,-1.37228 -4.37291,-0.0195 -8.74589,-0.006 -13.11884,-0.01 z m 14.11608,8.62571 c 0.92074,0.15755 2.10856,-0.25256 2.84931,0.28757 0.95841,0.7991 0.32557,2.1823 0.49531,3.2709 -0.0928,3.89445 0.0937,7.85653 -0.20959,11.71315 -0.25628,1.0253 -1.29675,1.69628 -2.33506,1.57505 -1.12842,0.0534 -2.25803,0.0751 -3.38704,0.11248 0,-5.66893 0,-11.33786 0,-17.00678 0.86236,0.0159 1.72471,0.0317 2.58707,0.0476 z"
       style="fill:#ffffff;stroke:#ffffff;stroke-width:1" />
    <path
       id="path251"
       d="m 389.90672,682.75925 c -2.60098,15.82609 -4.95919,31.69544 -7.58326,47.51683 1.22545,0.28566 2.70685,0.0419 4.03119,0.12293 2.5464,0 5.0928,0 7.6392,0 0.49575,-2.33769 0.63512,-4.86195 0.99518,-7.27283 0.22562,-1.34633 0.25963,-2.78576 0.59922,-4.08377 2.42716,-0.28936 4.90776,-0.0494 7.35307,-0.13 0.57777,3.74677 0.91707,7.57231 1.48131,11.29852 1.93893,0.345 3.96467,0.10597 5.93415,0.18798 1.84964,-0.0865 3.75555,0.16714 5.57581,-0.17415 0.31843,-0.51648 -0.19301,-1.26367 -0.13195,-1.84221 -2.34978,-15.18843 -4.78075,-30.36699 -7.15443,-45.55077 -0.90427,-0.26702 -2.00913,-0.0428 -2.97921,-0.13341 -5.22068,-0.0322 -10.4415,-0.0143 -15.66224,-0.019 z m 9.36483,6.74702 c 0.91936,7.07064 1.90902,14.22758 2.68602,21.26447 -1.79606,0.0532 -3.65267,0.20863 -5.41876,-0.0593 0.79973,-7.1257 1.73841,-14.24488 2.71061,-21.35021 z"
       style="fill:#ffffff;stroke:#ffffff;stroke-width:1" />
    <path
       id="path253"
       d="m 441.80571,682.77922 c 0,15.83997 0,31.67994 0,47.51991 1.83886,0.23282 3.85672,0.0335 5.76451,0.0999 5.61217,0 11.22435,0 16.83652,0 0.23233,-1.86528 0.0344,-3.90877 0.0999,-5.84318 -0.16713,-0.83084 0.33805,-2.19798 -0.25724,-2.69616 -3.63822,0 -7.27644,0 -10.91466,0 0,-13.02682 0,-26.05363 0,-39.08045 -1.83886,-0.23281 -3.85673,-0.0335 -5.76451,-0.0999 -1.90573,0.0661 -3.9286,-0.13246 -5.76451,0.0999 z"
       style="fill:#ffffff;stroke:#ffffff;stroke-width:1" />
    <path
       id="path255"
       d="m 504.3005,682.20944 c -3.82705,0.0616 -8.02627,0.20859 -11.21892,2.58768 -1.88061,1.50759 -3.02264,3.91614 -2.8655,6.33798 -0.10889,9.90871 -0.16567,19.82023 -0.0652,29.72914 -6e-4,2.1033 0.18465,4.33157 1.51112,6.06353 2.05953,2.83225 5.80804,3.44614 9.04675,3.86352 3.25347,0.35367 6.54885,0.13754 9.80153,-0.12398 3.24957,-0.4061 6.87614,-1.67308 8.40628,-4.81733 1.2226,-2.32877 0.72109,-5.04803 0.90301,-7.56749 0.076,-9.47812 0.17608,-18.96353 -0.16021,-28.43724 -0.27267,-3.4936 -3.32995,-6.11811 -6.59551,-6.87333 -2.85529,-0.72918 -5.83432,-0.76236 -8.76339,-0.76248 z m 0.66997,8.22342 c 0.82817,0.0836 2.00811,-0.0956 2.57109,0.65337 0.49509,2.45917 0.22031,5.03195 0.31764,7.54085 -0.0515,7.40245 0.12051,14.80985 -0.11604,22.20919 -0.0221,0.66605 -0.0694,1.66874 -0.96039,1.71887 -1.41388,0.14511 -3.17227,0.56928 -4.35327,-0.46467 -0.50496,-0.86104 -0.15402,-2.00179 -0.29214,-2.97147 -0.0525,-8.7615 -0.13682,-17.5263 0.0238,-26.28654 0.11963,-0.73737 -0.13865,-2.01946 0.89401,-2.18785 0.61072,-0.20634 1.27883,-0.19245 1.91525,-0.21175 z"
       style="fill:#ffffff;stroke:#ffffff;stroke-width:1" />
    <path
       id="path257"
       d="m 548.29938,682.77922 c 0,15.83997 0,31.67994 0,47.51991 1.83886,0.23282 3.85672,0.0335 5.76451,0.0999 1.90778,-0.0664 3.92565,0.13294 5.7645,-0.0999 0,-15.83997 0,-31.67994 0,-47.51991 -1.83885,-0.23281 -3.85672,-0.0335 -5.7645,-0.0999 -1.90573,0.0661 -3.9286,-0.13246 -5.76451,0.0999 z"
       style="fill:#ffffff;stroke:#ffffff;stroke-width:1" />
    <path
       id="path259"
       d="m 600.43655,682.23679 c -3.34803,0.0867 -7.15188,-0.0286 -9.85255,2.28589 -2.34932,2.26547 -2.65613,5.78348 -2.69801,8.8688 0.028,3.1143 -0.18502,6.28505 0.4289,9.35526 0.50584,2.46793 2.29261,4.56388 4.6446,5.46332 3.52789,1.57627 7.48931,1.83965 11.01683,3.39784 1.34958,0.55516 1.20096,2.20221 1.22544,3.40203 -0.0664,2.19214 0.30277,4.45678 -0.2337,6.60449 -0.70859,1.23702 -2.37818,1.1229 -3.62183,1.11467 -1.15456,0.023 -2.64002,-0.54832 -2.64177,-1.91679 -0.2643,-1.97865 -0.006,-4.106 -0.29626,-6.03342 -3.52011,0 -7.04021,0 -10.56032,0 -0.18824,1.6736 0.039,3.51819 0.0433,5.25988 0.0322,3.04453 0.44481,6.58666 3.02163,8.59897 2.72629,1.98031 6.27281,2.1696 9.52273,2.30956 3.91656,-0.0725 8.12422,0.27534 11.6984,-1.63959 2.97373,-1.56615 4.17325,-5.02655 4.49259,-8.17738 0.28513,-3.69232 0.19869,-7.4289 -0.25764,-11.10392 -0.35106,-2.29624 -1.59027,-4.52989 -3.72018,-5.60623 -3.79658,-2.10409 -8.2349,-2.50753 -12.23125,-4.04133 -1.53891,-0.6897 -1.35827,-2.65831 -1.39956,-4.05332 0.10972,-1.63835 -0.28474,-3.40164 0.3648,-4.95439 0.79598,-1.27433 2.5552,-0.84607 3.81883,-0.89555 0.86466,-0.10811 1.83035,0.28026 1.96411,1.23606 0.44987,1.7813 0.0777,3.74084 0.35189,5.48638 3.35682,0 6.71363,0 10.07045,0 0.22418,-1.74064 0.0469,-3.6558 0.083,-5.46609 0.0801,-2.57844 -0.43298,-5.48518 -2.60366,-7.14963 -2.86572,-2.17356 -6.64125,-2.34286 -10.09608,-2.32466 -0.84479,-0.0158 -1.68975,-0.0245 -2.53469,-0.0208 z"
       style="fill:#ffffff;stroke:#ffffff;stroke-width:1" />
    <path
       id="path261"
       d="m 644.12595,682.77922 c 0,15.83997 0,31.67994 0,47.51991 1.83886,0.23282 3.85672,0.0335 5.76451,0.0999 5.71707,0 11.43415,0 17.15122,0 0.23232,-1.86528 0.0344,-3.90877 0.0999,-5.84318 -0.16712,-0.83084 0.33806,-2.19798 -0.25723,-2.69616 -3.69067,0 -7.38134,0 -11.07202,0 0,-3.97209 0,-7.94416 0,-11.91625 3.21862,0 6.43724,0 9.65587,0 0.23249,-1.86521 0.0342,-3.90888 0.0999,-5.84318 -0.23643,-0.73115 0.55825,-2.46293 -0.57194,-2.38146 -3.06127,0 -6.12254,0 -9.18381,0 0,-3.44758 0,-6.89516 0,-10.34274 3.48088,0 6.96175,0 10.44262,0 0.23282,-1.83885 0.0335,-3.85672 0.0999,-5.7645 -0.0659,-0.96391 0.13222,-2.03715 -0.0999,-2.9322 -7.34303,0 -14.68607,0 -22.0291,0 z"
       style="fill:#ffffff;stroke:#ffffff;stroke-width:1" />
    <path
       id="path273"
       d="m 436.37556,22.287751 c -39.46912,3.532246 -78.69262,9.805339 -117.27194,18.862463 -68.78074,16.115973 -135.55211,40.621883 -198.67188,72.311206 -22.116093,11.20467 -43.634369,23.58434 -64.615982,36.7779 -0.332282,0.64327 0.796952,0.008 0.966604,-0.11996 29.578911,-15.44644 59.042678,-31.22329 89.729328,-44.39459 65.21795,-28.308601 133.52545,-49.61194 203.42216,-62.697541 28.95816,-5.347029 58.16901,-9.380977 87.51785,-11.845332 0.21296,-2.900639 0.0302,-5.955271 0.0913,-8.915008 -0.27958,-0.228104 -0.81657,0.05358 -1.1674,0.02086 z"
       style="fill:#ffffff;stroke:#ffffff;stroke-width:1" />
    <path
       id="path275"
       d="m 507.649,19.119342 c -13.9281,0.01459 -27.86119,0.176612 -41.76438,1.078849 -68.03238,3.669462 -135.61137,15.598386 -200.78688,35.448332 -10.42364,3.186262 -20.87707,6.477332 -31.13364,10.062337 0.14746,2.20415 -0.28414,4.52725 0.24295,6.672782 1.22942,0.05317 2.46286,-0.753685 3.68483,-1.004998 67.17563,-21.555741 136.83174,-35.4816 207.19974,-40.815029 50.10499,-3.924957 100.57509,-3.389653 150.55792,1.932234 46.65912,4.899208 92.85182,13.918598 138.0435,26.480769 0.74932,0.06525 1.63269,0.650329 2.33174,0.481743 0.25092,-2.379705 0.19233,-4.853238 0.0904,-7.207806 C 714.34361,45.705186 692.25431,40.226879 670.00695,35.560092 621.7759,25.514217 572.59365,20.09624 523.3416,19.166957 c -5.23064,-0.05602 -10.46173,-0.05773 -15.6926,-0.04762 z"
       style="fill:#ffffff;stroke:#ffffff;stroke-width:1" />
    <path
       id="path277"
       d="m 560.5274,20.733101 c 0.0616,2.900232 -0.12104,5.894158 0.0895,8.737246 11.30674,0.92487 22.6347,1.63802 33.91531,2.887952 60.77781,6.397766 120.84641,19.439647 178.79458,38.846769 43.55952,14.539125 85.99553,32.407072 126.94722,53.181072 14.88199,7.45675 29.5731,15.29048 44.10588,23.40363 0.26174,0.33072 1.33499,0.44405 0.65194,-0.093 C 921.50812,133.06884 897.58982,119.019 872.75892,106.71004 840.356,90.327402 806.83475,76.174112 772.5959,64.105307 705.11026,40.332828 634.40129,25.775386 563.02123,20.86452 562.209,20.88641 561.27164,20.563951 560.5274,20.733101 Z"
       style="fill:#ffffff;stroke:#ffffff;stroke-width:1" />
    <path
       id="path279"
       d="m 464.86487,289.71363 c -3.3474,0.0477 -6.72294,-0.0175 -10.05285,0.1004 -34.6516,49.25281 -69.19842,98.58361 -103.09581,148.35936 -5.92488,8.8698 -12.07924,17.61385 -17.38935,26.87103 -0.18672,0.80505 0.69738,-0.042 0.79405,-0.35295 46.62678,-58.26785 93.2207,-116.56341 139.79464,-174.87397 -1.53001,-0.37011 -3.49838,-0.034 -5.19715,-0.13222 -1.61784,0.009 -3.23569,0.0189 -4.85353,0.0284 z"
       style="fill:#ffffff;stroke:#ffffff;stroke-width:1" />
    <path
       id="path281"
       d="m 582.30092,343.10458 c -7.407,10.52965 -14.57193,21.23551 -22.23667,31.57673 -5.45287,-10.48407 -10.63637,-21.15154 -16.07457,-31.61454 -10.00345,0 -20.0069,0 -30.01035,0 0.54374,2.2143 1.72401,4.54106 2.48841,6.79898 7.61357,19.72294 14.98202,39.54626 22.82366,59.17737 1.2307,-0.82024 2.19379,-2.34053 3.32631,-3.40456 15.47329,-16.80999 30.79542,-33.76415 46.2821,-50.55966 9.97176,13.08952 20.15833,26.02103 29.903,39.28002 -2.97313,3.44945 -6.59948,6.30088 -9.97577,9.35447 -37.1803,32.35872 -83.16274,53.56456 -130.95211,64.71313 -21.70147,5.08151 -43.85991,8.15145 -66.11134,9.37803 -1.68285,-0.3422 -1.76916,0.90271 -1.57595,2.24874 0,6.22005 0,12.4401 0,18.66015 5.36725,0.26508 10.90602,-0.0687 16.33429,-0.2793 49.72083,-2.1579 98.94286,-16.36453 141.8814,-41.59014 22.24091,-12.9765 42.72765,-28.86767 61.1349,-46.85688 0.43338,-0.33459 0.96338,-1.28046 1.29022,-0.29712 28.66103,37.28397 57.27586,74.6111 85.78388,112.01157 0.41281,0.72809 1.26872,1.17567 1.4912,1.99797 1.42195,1.16704 2.22594,3.0978 3.6817,4.18499 -0.23493,-1.06594 -1.29932,-2.04089 -1.81485,-3.06767 -27.20797,-41.25768 -54.59313,-82.39865 -81.89634,-123.59349 15.5222,-16.78377 29.0565,-35.47802 39.46427,-55.85798 0.20412,-0.69484 1.04218,-1.46734 0.90535,-2.15346 -5.72276,-0.23341 -11.48834,-0.15404 -17.1985,-0.10127 -9.80519,14.76955 -20.59461,28.9485 -32.86237,41.75998 -0.36782,0.40813 -1.00678,0.90717 -1.18088,-0.0401 -9.22775,-13.87834 -18.38941,-27.83565 -27.67685,-41.65247 -5.73769,-0.01 -11.50395,-0.13637 -17.22414,-0.0734 z"
       style="fill:#ffffff;stroke:#ffffff;stroke-width:1" />
    <path
       id="path283"
       d="m 579.92917,185.11311 c -13.72674,-0.0219 -27.45166,0.6601 -41.09285,2.20871 -29.41427,3.27113 -58.64889,9.604 -86.17254,20.63277 -14.63895,6.00648 -28.85511,13.06583 -42.42702,21.20549 -0.0777,10.23664 -0.10454,20.53259 0.0595,30.78876 0.72522,0.0164 1.39631,-0.98086 2.08132,-1.34015 21.27778,-16.36535 44.70425,-29.913 69.44113,-40.32567 23.82976,-10.00685 48.81696,-17.47648 74.41274,-21.25543 13.0033,-1.79083 26.09272,-3.2283 39.23548,-3.18958 10.83329,-0.061 21.70194,-0.12687 32.46121,1.30187 18.50023,2.12482 36.90196,6.58093 53.71979,14.70518 1.69517,0.7419 3.23675,1.92338 4.97923,2.49941 0.0876,-0.66344 -0.99646,-1.10986 -1.33995,-1.62853 -8.98831,-8.16265 -20.49881,-12.85402 -31.95065,-16.4177 -19.34249,-5.76285 -39.53743,-8.13877 -59.65044,-8.99663 -4.58356,-0.16527 -9.17075,-0.20802 -13.75699,-0.1885 z"
       style="fill:#ffffff;stroke:#ffffff;stroke-width:1" />
    <path
       id="path285"
       d="m 698.93053,232.67227 c -1.80538,21.23518 -5.58439,42.40248 -12.64477,62.54486 -4.62779,13.03482 -11.46373,25.15344 -18.392,37.08625 -7.15034,12.0563 -15.14129,23.61583 -23.83669,34.61207 1.60433,0.37701 3.64648,0.0541 5.41933,0.16168 5.15394,-0.0305 10.33893,0.061 15.47348,-0.0456 21.88408,-33.34024 35.23131,-72.75501 35.38405,-112.8097 0.0967,-7.20262 -0.33075,-14.40148 -1.20435,-21.5504 z"
       style="fill:#ffffff;stroke:#ffffff;stroke-width:1" />
    <path
       id="path287"
       d="m 973.65492,183.94484 c -0.83047,26.90647 -3.522,53.71473 -6.52801,80.45282 -4.03388,34.37015 -9.81996,68.53848 -17.10988,102.35785 0.74707,0.61536 2.00547,0.14476 2.90676,0.32021 1.647,-0.0514 3.37194,0.11064 4.97036,-0.079 10.30662,-53.78198 15.85404,-108.49002 16.22518,-163.25718 0.0691,-6.59934 0.0731,-13.20215 -0.26448,-19.79515 z"
       style="fill:#ffffff;stroke:#ffffff;stroke-width:1" />
    <path
       id="path289"
       d="m 965.45357,298.61038 c -1.15062,0.24663 -3.37254,-0.66176 -3.1011,1.24758 -4.85057,31.76909 -11.12281,63.33142 -18.78086,94.54226 -0.3954,1.78381 -0.98059,3.54249 -1.53645,5.25676 -0.41012,3.2587 -1.50997,6.43779 -2.25392,9.64667 -16.07367,61.23418 -37.83976,121.00729 -65.42738,178.00552 -0.18456,0.71042 -1.03309,1.57042 -0.84282,2.21286 4.02443,0.11191 8.09584,0.13016 12.09428,0.0252 29.26555,-61.58045 51.26646,-126.5444 66.15545,-193.06221 7.25417,-32.28587 12.77419,-64.95903 16.63216,-97.82336 -0.85053,-0.25214 -2.00049,0.006 -2.93936,-0.0513 z"
       style="fill:#ffffff;stroke:#ffffff;stroke-width:1" />
    <path
       id="path291"
       d="m 906.75511,512.25241 c -20.22925,52.96995 -45.1792,104.15466 -74.7843,152.51976 -29.73913,48.61831 -63.97588,94.48227 -102.13733,136.81279 -0.14344,0.43987 -1.39669,1.03277 -0.8374,1.50001 4.18029,0.32741 8.40382,0.055 12.59931,0.14602 47.14575,-51.44499 87.90852,-108.71569 121.5411,-169.85247 21.20615,-38.64869 39.3763,-78.94318 54.55331,-120.32808 0.4581,-0.5376 0.12902,-0.89549 -0.48546,-0.77412 -3.47422,-0.10863 -7.00726,-0.15063 -10.44923,-0.0239 z"
       style="fill:#ffffff;stroke:#ffffff;stroke-width:1" />
    <path
       id="path293"
       d="m 791.23569,725.85445 c -31.94188,43.84384 -67.64662,84.96412 -106.81947,122.49493 -29.83069,28.71727 -61.49324,55.51013 -94.66696,80.29066 -21.85074,16.38714 -44.14453,32.2085 -67.18347,46.8819 -0.61551,0.49158 0.47187,0.39409 0.66077,0.0731 25.84582,-14.81067 51.41887,-30.18586 75.71903,-47.4449 62.771,-44.26241 120.17332,-96.3298 169.28098,-155.43792 12.52668,-15.23427 24.85305,-30.65774 36.2795,-46.74085 -1.69056,-0.36696 -3.79505,-0.0526 -5.6449,-0.15734 -2.53834,0.0269 -5.10333,-0.0543 -7.62548,0.0404 z"
       style="fill:#ffffff;stroke:#ffffff;stroke-width:1" />
    <path
       id="path295"
       d="m 255.55809,797.18799 c 48.09745,53.72346 103.33653,100.91466 163.12485,141.16193 21.25153,14.28688 43.07746,27.72589 65.41956,40.23708 0.29603,0.37522 1.05036,0.18547 0.47158,-0.1921 -26.68124,-16.76508 -52.3552,-35.08043 -77.48816,-54.07584 -40.02284,-30.30839 -77.74554,-63.66235 -112.75629,-99.64113 -8.76076,-8.98974 -17.23933,-18.2755 -25.60808,-27.61685 -4.36232,-0.0127 -8.72464,-0.0255 -13.08696,-0.0382 z"
       style="fill:#ffffff;stroke:#ffffff;stroke-width:1" />
    <path
       id="path297"
       d="m 110.06113,574.63573 c 36.23022,79.9948 84.68529,154.42111 143.13642,219.95506 22.23729,25.05835 46.13505,48.62412 71.11321,70.92878 3.93132,0.003 7.86264,0.007 11.79396,0.0109 -0.65539,-1.16643 -2.15999,-2.14323 -3.16038,-3.22343 C 279.60806,813.17788 231.95343,757.83813 191.62703,697.54834 165.39007,658.39045 142.04434,617.2795 122.12586,574.55272 c -3.95783,-0.13383 -7.98791,-0.019 -11.97346,-0.0574 z"
       style="fill:#ffffff;stroke:#ffffff;stroke-width:1" />
    <path
       id="path299"
       d="m 43.548175,360.98936 c 7.363009,39.70966 17.078126,78.99485 29.459037,117.44211 19.350916,60.31186 45.080458,118.58357 76.771758,173.43043 4.28144,0.11763 8.62169,0.0167 12.92572,0.0504 -0.63608,-1.77631 -2.01878,-3.54758 -2.94224,-5.32524 C 117.23373,573.47423 85.420491,494.31181 63.670381,412.63229 59.107586,395.53096 55.061824,378.25642 51.28057,360.98979 c -2.533228,-0.22227 -5.092143,-0.0748 -7.634605,-0.12083 z"
       style="fill:#ffffff;stroke:#ffffff;stroke-width:1" />
    <path
       id="path301"
       d="m 28.917427,182.99736 c -0.330441,4.61948 -0.120624,9.33172 -0.207727,13.98402 -0.119271,22.26568 0.319583,44.55074 2.186281,66.74684 4.606129,58.84359 14.690912,117.26717 30.161456,174.22738 1.222341,0.565 2.766597,0.18613 4.095024,0.32812 1.835812,-0.0503 3.728855,0.10595 5.531898,-0.17729 C 68.353428,429.38861 65.728151,420.70098 63.47059,411.94308 49.695024,359.73563 39.809113,306.48463 34.166377,252.7796 31.787864,229.58111 30.59647,206.27504 29.05303,183.02083 l -0.130387,-0.0265 z"
       style="fill:#ffffff;stroke:#ffffff;stroke-width:1" />
  </g>
  <g
     transform="translate(-50.422903,-61.424)"
     data-name="Group 5731"
     id="Group_5731">
    <path
       fill="#003325"
       transform="translate(116.377,69.4)"
       d="m 152.17,122.149 q 1.73,9.885 3.64,19.74 2.585,-0.913 5.173,-1.807 -4.364,-9 -8.68,-17.979 c -0.043,0.016 -0.088,0.031 -0.133,0.046 z"
       data-name="Path 702"
       id="Path_702" />
    <path
       fill="#003325"
       transform="translate(263.148,43.873)"
       d="m 286.012,112.442 q 0,-5.373 -0.011,-10.749 c 0,-1.481 -0.577,-1.917 -2.431,-1.91 q -1.537,0.006 -3.074,0.015 0.055,7.971 0.1,15.941 1.543,-0.01 3.087,-0.015 c 1.517,-0.007 2.331,-0.808 2.329,-3.282 z"
       data-name="Path 703"
       id="Path_703" />
    <path
       fill="#003325"
       transform="translate(148.28,59.619)"
       d="m 188.937,122.558 q -0.765,-3.238 -1.522,-6.483 c -0.512,-2.2 -1.728,-2.948 -4.082,-2.3 q -1.634,0.447 -3.269,0.9 1.608,6.7 3.265,13.4 1.029,-0.286 2.058,-0.57 c 3.796,-1.035 4.213,-2.152 3.55,-4.947 z"
       data-name="Path 704"
       id="Path_704" />
    <path
       fill="#003325"
       transform="translate(319.988,47.225)"
       d="m 334.849,103.141 c -1.076,-0.146 -2.146,-0.287 -3.218,-0.427 q -0.707,6.923 -1.438,13.842 c 0.675,0.088 1.353,0.176 2.028,0.266 3.743,0.5 4.491,-0.386 4.808,-3.263 q 0.376,-3.335 0.742,-6.667 c 0.251,-2.266 -0.604,-3.441 -2.922,-3.751 z"
       data-name="Path 705"
       id="Path_705" />
    <path
       fill="#003325"
       transform="translate(211.53,367.755)"
       d="m 238.205,382.962 h -0.139 l -2.7,21.5 h 5.54 z"
       data-name="Path 706"
       id="Path_706" />
    <path
       fill="#003325"
       transform="translate(339.785,312.395)"
       d="m 366.2,334.56 c -13.78,0 -18.286,1.2 -18.693,13.45 v 18.657 c 0.407,12.393 4.913,13.572 18.693,13.572 13.8,0 18.7,-1.179 18.7,-13.572 V 348.01 c -0.009,-12.254 -4.9,-13.45 -18.7,-13.45 z"
       data-name="Path 707"
       id="Path_707" />
    <path
       fill="#003325"
       transform="translate(183.379,368.81)"
       d="M 210.752,383.885 V 400.9 h 3.394 c 1.661,0 2.562,-0.857 2.562,-3.494 V 385.93 c 0,-1.582 -0.622,-2.045 -2.63,-2.045 z"
       data-name="Path 708"
       id="Path_708" />
    <path
       fill="#003325"
       transform="translate(50.699,96.873)"
       d="m 104.174,150.966 -1.256,-2.375 c -1.333,-2.536 -2.189,-3.2 -5.454,-1.6 q -1.36,0.669 -2.718,1.342 2.47,4.6 4.973,9.19 1.338,-0.666 2.678,-1.325 c 3.209,-1.585 3.149,-2.638 1.777,-5.232 z"
       data-name="Path 709"
       id="Path_709" />
    <path
       fill="#003325"
       transform="translate(55.21,105.088)"
       d="m 101.933,154.031 q -1.621,0.8 -3.243,1.608 2.775,5.016 5.6,10.026 c 1.061,-0.532 2.122,-1.057 3.183,-1.584 2.665,-1.316 2.956,-2.277 1.34,-5.239 -0.532,-0.971 -1.057,-1.94 -1.584,-2.909 -1.576,-2.911 -2.714,-3.175 -5.296,-1.902 z"
       data-name="Path 710"
       id="Path_710" />
    <path
       fill="#003325"
       transform="translate(267.831,368.318)"
       d="m 287.569,383.455 c -2.146,0 -2.978,0.461 -2.978,2.242 v 27.959 c 0,1.781 0.832,2.242 2.978,2.242 2.146,0 2.98,-0.461 2.98,-2.242 V 385.7 c -10e-4,-1.784 -0.832,-2.245 -2.98,-2.245 z"
       data-name="Path 711"
       id="Path_711" />
    <path
       fill="#003325"
       d="m 1050.371,261.4 -0.617,-54.059 -47.085,-26.569 C 862.4,101.565 712.827,61.424 558.088,61.424 324.372,61.424 146,155.208 96.881,183.971 l -45.981,26.914 -0.457,53.3 c -0.493,66.572 7.692,200.2 68.3,346.826 75.243,181.937 204.99,325.852 385.624,427.7 l 46.047,25.982 46.086,-25.983 C 778.2,936.3 908.372,791.33 983.339,607.931 1043.434,460.995 1051.128,327.738 1050.371,261.4 Z M 102.549,213.861 c 0.326,-0.186 0.66,-0.379 0.986,-0.6 20.807,-13.079 41.957,-25.487 63.93,-36.718 a 907.062,907.062 0 0 1 138.981,-56.732 849.339,849.339 0 0 1 229.112,-39.05 795.615,795.615 0 0 1 260.391,35.734 844.135,844.135 0 0 1 144.406,60.428 c 20.05,10.665 39.273,22.312 58.477,34.227 a 34.657,34.657 0 0 1 4.067,2.712 c -0.2,-0.036 -1.584,-0.827 -4.152,-2.3 -16.882,-9.726 -34.2,-18.773 -51.542,-27.478 A 936.36,936.36 0 0 0 817.916,130.707 C 729.236,101.758 635.484,87.431 542.176,89.614 a 894.408,894.408 0 0 0 -213.162,31.174 965.166,965.166 0 0 0 -150.07,54.434 c -29.819,13.686 -76.015,38.945 -76.823,38.98 -0.04,-0.002 0.079,-0.112 0.428,-0.341 z m 846.96,28.677 c -3,-1.466 -3.707,-0.59 -4.665,1.248 q -0.675,1.3 -1.357,2.594 c -1.308,2.487 -0.731,3.308 2.208,5.567 10.521,8.346 11.473,9.784 5.75,19.667 -5.4,9.257 -10.536,8.753 -19.577,4.27 -11.555,-5.681 -12.432,-8.888 -8.356,-16.732 q 0.855,-1.63 1.7,-3.263 5.055,2.4 10.118,4.873 c -0.508,0.935 -1.01,1.871 -1.518,2.806 -1.466,2.695 -2.058,3.769 1.128,5.334 2.41,1.185 3.548,0.935 4.48,-0.729 q 1.164,-2.093 2.324,-4.185 c 1.483,-2.684 0.851,-3.218 -4.3,-7.164 -7.651,-5.822 -8.444,-8.26 -4.9,-15.293 0.4,-0.8 0.8,-1.595 1.2,-2.395 4.592,-9.192 8.573,-8.5 19.463,-3.19 9.923,4.868 12.086,8.738 9.087,14.114 q -1.3,2.328 -2.592,4.648 -5,-2.534 -10,-5 c 0.341,-0.628 0.675,-1.254 1.012,-1.882 1.854,-3.445 1.652,-3.886 -1.205,-5.289 z m -52.365,-12.6 q -1.534,3.447 -3.081,6.894 -4.663,-2.023 -9.312,-3.992 -2.187,5.055 -4.418,10.116 5.322,2.251 10.654,4.581 -1.666,3.6 -3.351,7.209 -10.57,-4.621 -21.105,-8.939 8.7,-20.345 16.728,-40.761 10.8,4.418 21.647,9.124 -1.553,3.621 -3.136,7.239 -5.145,-2.241 -10.284,-4.405 -1.865,4.45 -3.762,8.9 4.708,1.996 9.419,4.037 z M 793.322,711.2 H 769.015 V 628.367 H 810.1 l 26.1,63.615 h 0.986 l -1.46,-63.615 H 860 V 711.2 h -41.379 l -25.77,-63.615 h -0.986 z m -77.348,51.979 v 8.176 h -9.833 v 11.936 h 11.426 v 8.573 h -22.921 v -47.742 h 22.091 v 8.578 h -10.6 v 10.487 z m -9.994,-51.327 c -26.9,0 -46.011,-4.823 -46.011,-30.381 v -23.355 c 0,-25.523 19.116,-30.381 46.011,-30.381 26.917,0 46,4.858 46,30.381 v 23.358 c -0.002,25.557 -19.08,30.381 -46,30.381 z m -67.7,64.316 h 10.665 v 3.43 c 0,3.3 0,4.615 3.393,4.615 2.562,0 3.394,-0.791 3.394,-2.834 v -5.139 c 0,-3.3 -0.763,-3.5 -6.787,-4.881 -8.933,-2.045 -10.665,-4.088 -10.665,-12.6 v -2.9 c 0,-11.145 3.6,-12.266 14.543,-12.266 9.973,0 13.3,2.639 13.3,9.3 v 5.737 h -10.251 v -2.307 c 0,-4.221 -0.345,-4.551 -3.254,-4.551 -3.046,0 -3.254,1.186 -3.254,3.428 v 3.166 c 0,3.033 0.832,3.561 4.223,4.352 12.256,3.033 13.643,3.891 13.643,16.157 0,11.475 -4.431,13.518 -14.2,13.518 -12.466,0 -14.751,-2.77 -14.751,-12.266 z M 615.613,711.2 V 628.367 H 642.1 V 711.2 Z m 65.2,-240.568 q -3.958,3.929 -8.2,7.848 c -87.518,80.523 -190.835,87.606 -250.886,78.823 -43.046,-6.337 -61.422,-26.615 -68.885,-40.371 -10.942,-20.286 -11.312,-47.272 -5.977,-76.9 0,0 19.581,-112.407 151.59,-168.8 83.295,-35.582 209.2,-31.586 240.272,3.848 0,0 -40.592,-28.349 -124.221,-17.6 0,0 -121.6,9.154 -204.221,114.707 0,0 -103.326,127.449 -27.028,159.942 C 412,544.4 567.143,554.307 669.438,455.813 L 639.3,416.551 589.65,470.905 537.916,335.614 384.248,527.787 c -4.032,0 157.3,-228.169 157.3,-228.169 L 610.56,436.3 641.539,391.783 678.172,447 c 19.647,-20.734 37.741,-46 52.929,-76.894 0,0 14.539,-27.4 18.288,-77.012 2.746,18.241 8.828,94.67 -60.841,169.544 l 88.461,133.338 z M 523.368,647.588 v -19.221 h 78.727 v 19.221 H 575.3 V 711.2 h -26.49 v -63.612 z m 75.307,96.534 h 11.5 v 47.745 h -11.5 z M 426.116,680.5 v -21.42 c 0,-27.408 17.6,-31.35 46.778,-31.35 27.292,0 39.991,2.324 40.521,27.125 v 3.256 h -27.277 v -3.256 c -0.924,-7.377 -7.156,-7.9 -16.183,-7.9 -15.1,0 -16.547,3.874 -16.547,15.63 v 12.974 c 0,12.357 0.677,17.075 16.547,17.075 11,0 16.3,-0.652 16.3,-10.369 v -2.412 h 27.328 v 2.412 c 0,9.049 -0.167,17.216 -9.154,23.517 -9,6.2 -20,6.073 -31.534,6.073 -27.066,0 -46.779,-1.091 -46.779,-31.355 z m 40.448,111.363 h -11.7 l -1.453,-11.475 h -7.479 l -1.453,11.475 h -11.7 l 7.548,-47.745 h 18.7 z m 25.686,-47.745 h 11.495 v 39.173 h 11.15 v 8.573 H 492.25 Z M 340.092,711.2 v -82.833 h 71.714 V 646.5 h -45.213 v 15.1 h 42.44 v 15.383 h -42.44 v 16.089 h 46.135 V 711.2 Z M 412,755.729 v 8.309 c 0,11.409 -3.67,14.245 -13.988,14.245 h -3.878 v 13.585 h -11.498 v -47.746 h 16.55 c 8.314,0 12.814,2.903 12.814,11.607 z M 337.219,209.873 q -5.2,1.437 -10.4,2.948 -5.849,-21.361 -11.2,-42.757 6.779,-1.978 13.542,-3.839 c 11.752,-3.211 15.493,-1.773 17.263,6.328 q 0.572,2.6 1.147,5.194 c 1.458,6.568 -0.95,8.753 -5.261,10.657 0.009,0.039 0.017,0.079 0.028,0.12 4.961,-0.3 7.617,-0.152 8.834,5.156 q 1.347,5.878 2.731,11.752 -5.18,1.322 -10.371,2.718 Q 342,202 340.5,195.849 c -0.433,-1.781 -1.7,-2.27 -5.274,-1.291 l -1.786,0.5 q 1.86,7.408 3.779,14.815 z M 217.6,204.362 q 1.437,3.669 2.894,7.336 -5.116,2.084 -10.241,4.236 1.849,4.46 3.73,8.914 4.7,-1.971 9.383,-3.887 1.418,3.5 2.858,6.984 -4.64,1.9 -9.285,3.848 2.171,5.071 4.386,10.133 5.312,-2.235 10.618,-4.395 1.527,3.659 3.078,7.319 -10.518,4.286 -21.073,8.871 -9.322,-20.1 -17.958,-40.283 10.833,-4.688 21.61,-9.076 z m -17.291,4.847 q 1.4,-5.473 2.9,-10.957 5.328,-2.228 10.639,-4.393 -3.473,6.245 -6.811,12.507 -3.364,1.406 -6.73,2.843 z m 82.341,469.184 -6.3,-0.317 c -26.572,-1.426 -42.105,-1.3 -42.105,-25.065 0,-23.765 17.381,-25.277 45.537,-25.277 23.56,0 43.67,0.317 43.67,23.163 v 3.434 h -27.59 c 0,-8.468 -4.585,-8.468 -16.08,-8.468 -15.488,0 -16.809,2.392 -16.809,7.04 0,6.583 4.18,6.832 11.793,7.269 l 11.917,0.688 c 31.886,1.724 39.807,4.856 39.807,23.851 0,13.677 0.677,27.142 -46.708,27.142 -27.423,0 -45.651,-0.405 -45.651,-27.583 h 27.558 c 0,8.592 4.03,9.49 18.093,9.49 13.493,0 17.98,-0.688 17.98,-7.623 -0.005,-7.182 -1.587,-7.075 -15.114,-7.744 z m -6.772,-449.125 q -5.338,1.894 -10.684,3.867 -4.232,-22.008 -7.449,-44.191 9.039,-3.257 18.044,-6.313 10.023,19.808 20.2,39.745 -5.319,1.756 -10.648,3.584 -2.363,-4.811 -4.708,-9.615 -3.457,1.19 -6.916,2.416 1.057,5.258 2.159,10.507 z M 400.927,149.6 q 4.8,-0.9 9.591,-1.741 3.071,22.02 6.451,44.028 -7.174,1.244 -14.352,2.628 -6.518,-16.39 -13.122,-32.688 c -0.043,0.009 -0.084,0.017 -0.124,0.024 q 3.174,16.994 6.536,33.985 -4.544,0.916 -9.092,1.882 -4.18,-21.827 -7.988,-43.674 7.566,-1.624 15.115,-3.1 6.5,16.338 12.912,32.771 c 0.034,-0.047 0.064,-0.1 0.1,-0.144 q -3.098,-16.984 -6.027,-33.971 z m 76.5,-0.725 c 9.718,-0.9 17.859,3.972 18.215,10.631 0.356,6.659 -6.98,12.56 -16.41,13.426 -9.43,0.866 -17.617,-3.612 -18.26,-10.241 -0.643,-6.629 6.728,-12.919 16.452,-13.811 z m 66.464,31.491 q -5.113,0.039 -10.223,0.144 -0.409,-22.361 -0.78,-44.723 7.708,-0.164 15.416,-0.174 c 7.747,-0.006 11.917,2.8 11.827,10.946 q -0.042,3.891 -0.079,7.784 c -0.12,10.7 -3.454,13.263 -12.751,13.276 q -1.746,0 -3.494,0.017 0.037,6.369 0.081,12.735 z m 40.92,-43.959 q 5.29,0.238 10.588,0.547 1.72,10.181 3.34,20.365 c 0.041,0 0.086,0.006 0.124,0.006 q 2.63,-9.914 5.319,-19.81 5.3,0.367 10.6,0.808 -5.862,14.679 -11.484,29.444 -0.408,7.213 -0.832,14.423 -4.936,-0.344 -9.865,-0.624 0.344,-7.216 0.677,-14.434 -4.064,-15.374 -8.47,-30.72 z m 80.962,40.557 Q 665,182.982 664.218,189 q -5.142,-0.775 -10.271,-1.477 0.746,-6.332 1.477,-12.665 c 0.214,-1.833 -0.765,-2.78 -4.292,-3.248 l -1.762,-0.229 q -0.817,7.656 -1.67,15.313 -5.129,-0.662 -10.26,-1.254 2.2,-22.21 4.185,-44.423 6.643,0.778 13.291,1.664 c 11.557,1.569 14.554,4.395 13.538,12.68 q -0.318,2.653 -0.645,5.312 c -0.832,6.716 -3.752,7.82 -8.262,7.928 0,0.041 -0.011,0.081 -0.017,0.122 4.57,1.639 6.933,2.814 6.24,8.246 z m 57.688,-22.211 q -0.691,3.92 -1.4,7.837 -4.962,-1.087 -9.925,-2.105 -0.807,4.8 -1.634,9.61 4.55,0.939 9.113,1.925 -0.688,3.74 -1.383,7.473 -4.518,-0.981 -9.034,-1.906 -0.955,5.467 -1.936,10.935 5.174,1.061 10.365,2.193 -0.756,3.917 -1.518,7.831 -10.3,-2.244 -20.584,-4.21 3.711,-21.934 7.079,-43.878 10.407,2.016 20.854,4.3 z m -15.549,-5.5 q 3.724,-3.881 7.488,-7.726 5.129,1.061 10.262,2.189 -5.676,3.386 -11.263,6.856 -3.247,-0.666 -6.489,-1.313 z m 66.184,53.773 q 4.032,-16.7 7.745,-33.436 5.1,1.476 10.2,3.018 -5.547,21.319 -11.608,42.607 -7.6,-2.283 -15.186,-4.414 0.595,-17.753 0.568,-35.588 c -0.045,-0.013 -0.09,-0.021 -0.131,-0.034 q -3.6,16.847 -7.514,33.667 -4.788,-1.3 -9.574,-2.545 5.161,-21.564 9.861,-43.149 7.971,2.084 15.971,4.326 0.055,17.853 -0.5,35.629 c 0.06,-0.021 0.111,-0.049 0.165,-0.074 z m 75,-11.278 q -1.273,3.733 -2.557,7.464 -5.084,-1.881 -10.163,-3.692 -1.511,4.589 -3.055,9.171 4.656,1.659 9.31,3.374 -1.244,3.56 -2.513,7.113 -4.611,-1.7 -9.22,-3.342 -1.781,5.216 -3.6,10.427 5.277,1.881 10.56,3.837 -1.363,3.724 -2.746,7.445 -10.486,-3.881 -20.934,-7.469 7.061,-20.95 13.544,-41.951 10.658,3.675 21.368,7.63 z m -15.634,-7.938 q 4.437,-3.206 8.914,-6.36 5.267,1.881 10.543,3.833 -6.45,2.389 -12.809,4.879 -3.332,-1.184 -6.655,-2.346 z m -671.343,68.518 c 7.083,-2.883 10.223,0.583 12.712,5.357 4.3,8.271 3.642,12.23 -4.759,16.337 q -8.727,4.286 -17.478,8.779 -11.444,-19.207 -22.13,-38.532 8.441,-4.3 16.854,-8.406 c 9.9,-4.819 13.205,-4.332 17.165,3.552 2.6,5.175 3.8,8.639 -2.422,12.8 0.019,0.038 0.039,0.077 0.058,0.113 z M 540.2,1043.077 a 21.8,21.8 0 0 1 -2.352,-1.126 C 461.87,999.705 391.697,947.337 330.748,885.184 A 872.8,872.8 0 0 1 201.561,715.673 C 155.496,636.994 122.228,550.593 102.047,461.743 A 947.115,947.115 0 0 1 80.423,313.154 c -1.6,-25.18 -1.488,-50.256 -1.293,-75.434 v -0.187 c 0,-2 2.675,51.233 5.614,78.3 a 1057.1,1057.1 0 0 0 26.72,148.106 c 22.108,86.7 55.677,170.978 101.144,248.148 a 921.369,921.369 0 0 0 133.4,175.246 994.387,994.387 0 0 0 119.535,104.414 c 23.65,17.57 47.9,34.819 73.095,50.238 1.689,1.058 1.919,1.249 1.562,1.092 z m 0.315,-260.507 v -29.148 c 0,-7.782 5.263,-9.827 14.888,-9.827 9.625,0 14.888,2.045 14.888,9.827 v 29.148 c 0,7.782 -5.263,9.825 -14.888,9.825 -9.625,0 -14.891,-2.043 -14.891,-9.825 z M 997.758,476.979 c -20.8,84.967 -53.6,167.406 -98.254,242.6 -38.268,64.494 -84.39,124.131 -137.952,176.691 a 902.839,902.839 0 0 1 -122.159,100.3 c -23.993,16.406 -48.989,30.911 -74.107,45.381 a 15.9,15.9 0 0 1 -2.967,1.619 28.121,28.121 0 0 1 2.508,-1.657 c 26.036,-15.945 51.156,-33.76 75.515,-52.011 A 997.177,997.177 0 0 0 759.616,885.079 922.554,922.554 0 0 0 891.3,711.257 C 937,633.4 970.684,548.374 992.707,460.918 A 1061.1,1061.1 0 0 0 1019,312.777 c 2.446,-23.6 4.7,-47.5 5.141,-71.247 0.054,-2.077 0.088,-2.868 0.156,-2.491 0.019,0.309 0.056,1.057 0.056,2.341 0.034,0.907 0.034,1.85 0.051,2.755 1.535,78.365 -7.987,156.812 -26.646,232.844 z"
       data-name="Path 712"
       id="Path_712" />
  </g>
</svg>
