<?xml version="1.0" encoding="UTF-8" standalone="no"?>
<svg
   xmlns:dc="http://purl.org/dc/elements/1.1/"
   xmlns:cc="http://creativecommons.org/ns#"
   xmlns:rdf="http://www.w3.org/1999/02/22-rdf-syntax-ns#"
   xmlns:svg="http://www.w3.org/2000/svg"
   xmlns="http://www.w3.org/2000/svg"
   xmlns:xlink="http://www.w3.org/1999/xlink"
   xmlns:sodipodi="http://sodipodi.sourceforge.net/DTD/sodipodi-0.dtd"
   xmlns:inkscape="http://www.inkscape.org/namespaces/inkscape"
   width="647.2301"
   height="800"
   viewBox="0 0 171.24629 211.66666"
   version="1.1"
   id="svg8"
   inkscape:version="1.0 (4035a4f, 2020-05-01)"
   sodipodi:docname="Logo Rouen MeÌtropole Basket - 2015.svg">
  <defs
     id="defs2">
    <inkscape:path-effect
       overflow_perspective="false"
       vertical_mirror="false"
       horizontal_mirror="false"
       deform_type="perspective"
       lpeversion="1"
       is_visible="true"
       id="path-effect962"
       down_right_point="414.08498,-104.59472"
       down_left_point="406.08608,-104.26064"
       up_right_point="414.08498,-116.50522"
       up_left_point="406.1529,-115.90386"
       effect="perspective-envelope" />
    <inkscape:path-effect
       overflow_perspective="false"
       vertical_mirror="false"
       horizontal_mirror="false"
       deform_type="perspective"
       lpeversion="1"
       is_visible="true"
       id="path-effect960"
       down_right_point="450.20676,-104.32756"
       down_left_point="442.22689,-104.19393"
       up_right_point="450.54085,-116.12024"
       up_left_point="442.22689,-116.85524"
       effect="perspective-envelope" />
    <linearGradient
       inkscape:collect="always"
       id="linearGradient1999">
      <stop
         style="stop-color:#4b4948;stop-opacity:1"
         offset="0"
         id="stop1995" />
      <stop
         id="stop2003"
         offset="0.55721337"
         style="stop-color:#ffffff;stop-opacity:1" />
      <stop
         style="stop-color:#212020;stop-opacity:1"
         offset="1"
         id="stop1997" />
    </linearGradient>
    <linearGradient
       inkscape:collect="always"
       id="linearGradient1989">
      <stop
         style="stop-color:#000000;stop-opacity:1"
         offset="0"
         id="stop1985" />
      <stop
         id="stop1993"
         offset="0.54821223"
         style="stop-color:#ffffff;stop-opacity:1" />
      <stop
         style="stop-color:#292929;stop-opacity:1"
         offset="1"
         id="stop1987" />
    </linearGradient>
    <linearGradient
       inkscape:collect="always"
       id="linearGradient1979">
      <stop
         style="stop-color:#000000;stop-opacity:1"
         offset="0"
         id="stop1975" />
      <stop
         id="stop1983"
         offset="0.55141675"
         style="stop-color:#ffffff;stop-opacity:1" />
      <stop
         style="stop-color:#434241;stop-opacity:1"
         offset="1"
         id="stop1977" />
    </linearGradient>
    <linearGradient
       inkscape:collect="always"
       id="linearGradient1969">
      <stop
         style="stop-color:#0c0c0c;stop-opacity:1"
         offset="0"
         id="stop1965" />
      <stop
         id="stop1973"
         offset="0.45732942"
         style="stop-color:#ffffff;stop-opacity:1" />
      <stop
         style="stop-color:#000000;stop-opacity:1"
         offset="1"
         id="stop1967" />
    </linearGradient>
    <linearGradient
       inkscape:collect="always"
       id="linearGradient1959">
      <stop
         style="stop-color:#000000;stop-opacity:1"
         offset="0"
         id="stop1955" />
      <stop
         id="stop1963"
         offset="0.48823416"
         style="stop-color:#ffffff;stop-opacity:1" />
      <stop
         style="stop-color:#000000;stop-opacity:1"
         offset="1"
         id="stop1957" />
    </linearGradient>
    <linearGradient
       inkscape:collect="always"
       id="linearGradient1949">
      <stop
         style="stop-color:#000000;stop-opacity:1"
         offset="0"
         id="stop1945" />
      <stop
         id="stop1953"
         offset="0.55050439"
         style="stop-color:#ffffff;stop-opacity:1" />
      <stop
         style="stop-color:#000000;stop-opacity:1"
         offset="1"
         id="stop1947" />
    </linearGradient>
    <linearGradient
       inkscape:collect="always"
       id="linearGradient1810">
      <stop
         style="stop-color:#ffffff;stop-opacity:1"
         offset="0"
         id="stop1806" />
      <stop
         id="stop1814"
         offset="0.70716071"
         style="stop-color:#545251;stop-opacity:1" />
      <stop
         style="stop-color:#000000;stop-opacity:1"
         offset="1"
         id="stop1808" />
    </linearGradient>
    <linearGradient
       inkscape:collect="always"
       id="linearGradient1800">
      <stop
         style="stop-color:#ffffff;stop-opacity:1"
         offset="0"
         id="stop1796" />
      <stop
         id="stop1804"
         offset="0.63159674"
         style="stop-color:#7c7a7a;stop-opacity:1" />
      <stop
         style="stop-color:#000000;stop-opacity:1"
         offset="1"
         id="stop1798" />
    </linearGradient>
    <linearGradient
       inkscape:collect="always"
       id="linearGradient1788">
      <stop
         style="stop-color:#ffffff;stop-opacity:1"
         offset="0"
         id="stop1784" />
      <stop
         id="stop1792"
         offset="0.79759127"
         style="stop-color:#1c1a18;stop-opacity:1" />
      <stop
         style="stop-color:#000000;stop-opacity:1"
         offset="1"
         id="stop1786" />
    </linearGradient>
    <linearGradient
       inkscape:collect="always"
       id="linearGradient1778">
      <stop
         style="stop-color:#ffffff;stop-opacity:1"
         offset="0"
         id="stop1774" />
      <stop
         id="stop1782"
         offset="0.36768064"
         style="stop-color:#ffffff;stop-opacity:1" />
      <stop
         style="stop-color:#000000;stop-opacity:1"
         offset="1"
         id="stop1776" />
    </linearGradient>
    <inkscape:path-effect
       effect="perspective-envelope"
       up_left_point="108.69259,-128.88021"
       up_right_point="111.09721,-128.31325"
       down_left_point="108.69259,-117.28761"
       down_right_point="111.04996,-116.62615"
       id="path-effect1191"
       is_visible="true"
       lpeversion="1"
       deform_type="perspective"
       horizontal_mirror="false"
       vertical_mirror="false"
       overflow_perspective="false" />
    <inkscape:path-effect
       effect="perspective-envelope"
       up_left_point="112.7391,-128.02977"
       up_right_point="119.23816,-126.09264"
       down_left_point="112.64461,-116.29543"
       down_right_point="119.23816,-114.64178"
       id="path-effect1189"
       is_visible="true"
       lpeversion="1"
       deform_type="perspective"
       horizontal_mirror="false"
       vertical_mirror="false"
       overflow_perspective="false" />
    <inkscape:path-effect
       effect="perspective-envelope"
       up_left_point="99.481834,-131.14807"
       up_right_point="107.22191,-129.54167"
       down_left_point="99.434587,-119.36648"
       down_right_point="107.17466,-117.66559"
       id="path-effect1187"
       is_visible="true"
       lpeversion="1"
       deform_type="perspective"
       horizontal_mirror="false"
       vertical_mirror="false"
       overflow_perspective="false" />
    <inkscape:path-effect
       effect="perspective-envelope"
       up_left_point="89.895614,-132.64492"
       up_right_point="97.716383,-131.65273"
       down_left_point="89.933411,-121.22713"
       down_right_point="97.669136,-119.87114"
       id="path-effect1185"
       is_visible="true"
       lpeversion="1"
       deform_type="perspective"
       horizontal_mirror="false"
       vertical_mirror="false"
       overflow_perspective="false" />
    <inkscape:path-effect
       effect="perspective-envelope"
       up_left_point="80.318175,-133.83555"
       up_right_point="89.366447,-133.07959"
       down_left_point="80.176434,-122.1957"
       down_right_point="89.3192,-121.20351"
       id="path-effect1183"
       is_visible="true"
       lpeversion="1"
       deform_type="perspective"
       horizontal_mirror="false"
       vertical_mirror="false"
       overflow_perspective="false" />
    <inkscape:path-effect
       effect="perspective-envelope"
       up_left_point="68.878788,-134.7861"
       up_right_point="79.229661,-133.9829"
       down_left_point="68.878788,-123.28799"
       down_right_point="79.276908,-122.24856"
       id="path-effect1181"
       is_visible="true"
       lpeversion="1"
       deform_type="perspective"
       horizontal_mirror="false"
       vertical_mirror="false"
       overflow_perspective="false" />
    <inkscape:path-effect
       effect="perspective-envelope"
       up_left_point="59.722466,-135.06958"
       up_right_point="67.804607,-135.06958"
       down_left_point="59.722466,-123.47697"
       down_right_point="67.804607,-123.28798"
       id="path-effect1179"
       is_visible="true"
       lpeversion="1"
       deform_type="perspective"
       horizontal_mirror="false"
       vertical_mirror="false"
       overflow_perspective="false" />
    <inkscape:path-effect
       effect="perspective-envelope"
       up_left_point="28.041348,-133.45073"
       up_right_point="35.62015,-134.18572"
       down_left_point="28.041348,-121.82472"
       down_right_point="35.653559,-122.65994"
       id="path-effect1177"
       is_visible="true"
       lpeversion="1"
       deform_type="perspective"
       horizontal_mirror="false"
       vertical_mirror="false"
       overflow_perspective="false" />
    <inkscape:path-effect
       effect="perspective-envelope"
       up_left_point="20.17369,-132.24663"
       up_right_point="26.942396,-133.21548"
       down_left_point="20.17369,-120.45357"
       down_right_point="26.942396,-121.82333"
       id="path-effect1175"
       is_visible="true"
       lpeversion="1"
       deform_type="perspective"
       horizontal_mirror="false"
       vertical_mirror="false"
       overflow_perspective="false" />
    <inkscape:path-effect
       effect="perspective-envelope"
       up_left_point="11.264721,-130.53173"
       up_right_point="18.62845,-132.03512"
       down_left_point="11.264721,-119.09461"
       down_right_point="18.62845,-119.92983"
       id="path-effect1173"
       is_visible="true"
       lpeversion="1"
       deform_type="perspective"
       horizontal_mirror="false"
       vertical_mirror="false"
       overflow_perspective="false" />
    <inkscape:path-effect
       effect="perspective-envelope"
       up_left_point="2.5431094,-129.27595"
       up_right_point="10.157577,-130.24481"
       down_left_point="2.0419791,-117.04358"
       down_right_point="9.8568988,-118.01244"
       id="path-effect1171"
       is_visible="true"
       lpeversion="1"
       deform_type="perspective"
       horizontal_mirror="false"
       vertical_mirror="false"
       overflow_perspective="false" />
    <inkscape:path-effect
       effect="perspective-envelope"
       up_left_point="-6.4067759,-126.46422"
       up_right_point="1.3413107,-128.16807"
       down_left_point="-6.3733672,-114.8048"
       down_right_point="1.2076759,-116.70909"
       id="path-effect1169"
       is_visible="true"
       lpeversion="1"
       deform_type="perspective"
       horizontal_mirror="false"
       vertical_mirror="false"
       overflow_perspective="false" />
    <inkscape:path-effect
       effect="envelope"
       id="path-effect1167"
       is_visible="true"
       lpeversion="1"
       yy="true"
       xx="true"
       bendpath1="M -6.4735933,-127.56671 H 1.6085802"
       bendpath2="m 1.6085802,-127.56671 v 11.59261"
       bendpath3="M -6.4735933,-115.9741 H 1.6085802"
       bendpath4="m -6.4735933,-127.56671 v 11.59261" />
    <inkscape:path-effect
       effect="lattice2"
       gridpoint0="-6.4735933,-127.56671"
       gridpoint1="1.6085802,-127.56671"
       gridpoint2="-6.4169252,-114.75675"
       gridpoint3="1.6085802,-115.9741"
       gridpoint4="-4.4530499,-127.56671"
       gridpoint5="-0.41196318,-127.56671"
       gridpoint6="-4.4530499,-115.9741"
       gridpoint7="-0.44537186,-116.57546"
       gridpoint8x9="-2.4325066,-127.56671"
       gridpoint10x11="-2.4325066,-115.9741"
       gridpoint12="-6.4735933,-124.66856"
       gridpoint13="1.6085802,-124.66856"
       gridpoint14="-6.4735933,-118.87225"
       gridpoint15="1.6085802,-118.87225"
       gridpoint16="-4.4530499,-124.66856"
       gridpoint17="-0.41196318,-124.66856"
       gridpoint18="-4.4530499,-118.87225"
       gridpoint19="-0.41196318,-118.87225"
       gridpoint20x21="-2.4325066,-124.66856"
       gridpoint22x23="-2.4325066,-118.87225"
       gridpoint24x26="-6.4735933,-121.7704"
       gridpoint25x27="1.6085802,-121.7704"
       gridpoint28x30="-4.4530499,-121.7704"
       gridpoint29x31="-0.41196318,-121.7704"
       gridpoint32x33x34x35="-2.4325066,-121.7704"
       id="path-effect1165"
       is_visible="true"
       lpeversion="1"
       horizontal_mirror="false"
       vertical_mirror="false"
       perimetral="false"
       live_update="true" />
    <inkscape:path-effect
       effect="perspective-envelope"
       up_left_point="-8.0610931,-139.18994"
       up_right_point="121.26979,-139.18994"
       down_left_point="-8.0610931,-127.56941"
       down_right_point="121.26979,-127.56941"
       id="path-effect1149"
       is_visible="true"
       lpeversion="1"
       deform_type="perspective"
       horizontal_mirror="false"
       vertical_mirror="false"
       overflow_perspective="false" />
    <inkscape:path-effect
       effect="perspective-envelope"
       up_left_point="-6.4169252,-136.13398"
       up_right_point="119.26015,-136.13398"
       down_left_point="-6.4169252,-114.75675"
       down_right_point="119.26015,-114.75675"
       id="path-effect1147"
       is_visible="true"
       lpeversion="1"
       deform_type="envelope_deformation"
       horizontal_mirror="false"
       vertical_mirror="false"
       overflow_perspective="false" />
    <inkscape:path-effect
       effect="perspective-envelope"
       up_left_point="-6.416925,-130.95374"
       up_right_point="119.26015,-131.07954"
       down_left_point="-6.4169252,-119.38838"
       down_right_point="119.26015,-119.38838"
       id="path-effect1145"
       is_visible="true"
       lpeversion="1"
       deform_type="envelope_deformation"
       horizontal_mirror="false"
       vertical_mirror="false"
       overflow_perspective="false" />
    <inkscape:path-effect
       effect="envelope"
       id="path-effect1143"
       is_visible="true"
       lpeversion="1"
       yy="true"
       xx="true"
       bendpath1="M -8.0610931,-139.18994 H 121.26979"
       bendpath2="m 121.26979,-139.18994 v 11.62053"
       bendpath3="M -8.0610931,-127.56941 H 121.26979"
       bendpath4="m -8.0610931,-139.18994 v 11.62053" />
    <inkscape:path-effect
       live_update="true"
       perimetral="true"
       vertical_mirror="false"
       horizontal_mirror="false"
       lpeversion="1"
       is_visible="true"
       id="path-effect1139"
       gridpoint32x33x34x35="56.604348,-133.37967"
       gridpoint29x31="88.937069,-133.37967"
       gridpoint28x30="24.271628,-133.37967"
       gridpoint25x27="121.26979,-133.37967"
       gridpoint24x26="-8.0610931,-133.37967"
       gridpoint22x23="56.604348,-130.47454"
       gridpoint20x21="56.604348,-136.28481"
       gridpoint19="88.937069,-130.47454"
       gridpoint18="24.271628,-130.47454"
       gridpoint17="88.937069,-136.28481"
       gridpoint16="24.271628,-136.28481"
       gridpoint15="121.26979,-130.47454"
       gridpoint14="-8.0610931,-130.47454"
       gridpoint13="121.26979,-136.28481"
       gridpoint12="-8.0610931,-136.28481"
       gridpoint10x11="56.604348,-127.56941"
       gridpoint8x9="56.604348,-139.18994"
       gridpoint7="88.937069,-127.56941"
       gridpoint6="24.271628,-127.56941"
       gridpoint5="88.937069,-139.18994"
       gridpoint4="24.271628,-139.18994"
       gridpoint3="121.26979,-127.56941"
       gridpoint2="-8.0610931,-127.56941"
       gridpoint1="121.26979,-139.18994"
       gridpoint0="-8.0610931,-139.18994"
       effect="lattice2" />
    <inkscape:path-effect
       effect="lattice2"
       gridpoint0="-8.0610931,-139.18994"
       gridpoint1="121.26979,-139.18994"
       gridpoint2="-8.0610931,-127.56941"
       gridpoint3="121.26979,-127.56941"
       gridpoint4="24.271628,-139.18994"
       gridpoint5="88.937069,-139.18994"
       gridpoint6="24.271628,-127.56941"
       gridpoint7="88.937069,-127.56941"
       gridpoint8x9="56.604348,-139.18994"
       gridpoint10x11="56.604348,-127.56941"
       gridpoint12="-8.0610931,-136.28481"
       gridpoint13="121.26979,-136.28481"
       gridpoint14="-8.0610931,-130.47454"
       gridpoint15="121.26979,-130.47454"
       gridpoint16="24.271628,-136.28481"
       gridpoint17="88.937069,-136.28481"
       gridpoint18="24.271628,-130.47454"
       gridpoint19="88.937069,-130.47454"
       gridpoint20x21="56.604348,-136.28481"
       gridpoint22x23="56.604348,-130.47454"
       gridpoint24x26="-8.0610931,-133.37967"
       gridpoint25x27="121.26979,-133.37967"
       gridpoint28x30="24.271628,-133.37967"
       gridpoint29x31="88.937069,-133.37967"
       gridpoint32x33x34x35="56.604348,-133.37967"
       id="path-effect1107"
       is_visible="true"
       lpeversion="1"
       horizontal_mirror="false"
       vertical_mirror="false"
       perimetral="true"
       live_update="true" />
    <inkscape:path-effect
       effect="lattice2"
       gridpoint0="33.931977,-117.49411"
       gridpoint1="78.640049,-117.56093"
       gridpoint2="33.999751,-105.47268"
       gridpoint3="78.476522,-104.83487"
       gridpoint4="45.176769,-117.49411"
       gridpoint5="67.632944,-117.8282"
       gridpoint6="45.176769,-105.87358"
       gridpoint7="67.666353,-106.3933"
       gridpoint8x9="56.374314,-118.09113"
       gridpoint10x11="56.387674,-106.77799"
       gridpoint12="33.931977,-114.58898"
       gridpoint13="78.911145,-114.58898"
       gridpoint14="33.931977,-108.77871"
       gridpoint15="78.911145,-108.77871"
       gridpoint16="45.176769,-114.58898"
       gridpoint17="67.666353,-114.58898"
       gridpoint18="45.176769,-108.77871"
       gridpoint19="67.666353,-108.77871"
       gridpoint20x21="56.421561,-114.58898"
       gridpoint22x23="56.421561,-108.77871"
       gridpoint24x26="33.931977,-111.68385"
       gridpoint25x27="78.911145,-111.68385"
       gridpoint28x30="45.176769,-111.68385"
       gridpoint29x31="67.666353,-111.68385"
       gridpoint32x33x34x35="56.421561,-111.68385"
       id="path-effect1046"
       is_visible="true"
       lpeversion="1"
       horizontal_mirror="false"
       vertical_mirror="false"
       perimetral="false"
       live_update="true" />
    <inkscape:path-effect
       effect="lattice2"
       gridpoint0="34.498994,-118.53837"
       gridpoint1="78.816702,-118.53837"
       gridpoint2="34.026524,-104.83487"
       gridpoint3="78.816702,-104.83487"
       gridpoint4="45.224068,-118.53837"
       gridpoint5="67.619158,-118.53837"
       gridpoint6="45.224068,-104.83487"
       gridpoint7="67.619158,-104.83487"
       gridpoint8x9="56.421613,-118.53837"
       gridpoint10x11="56.421613,-104.83487"
       gridpoint12="34.026524,-115.11249"
       gridpoint13="78.816702,-115.11249"
       gridpoint14="34.026524,-108.26074"
       gridpoint15="78.816702,-108.26074"
       gridpoint16="45.224068,-115.11249"
       gridpoint17="67.619158,-115.11249"
       gridpoint18="45.224068,-108.26074"
       gridpoint19="67.619158,-108.26074"
       gridpoint20x21="56.421613,-115.11249"
       gridpoint22x23="56.421613,-108.26074"
       gridpoint24x26="34.026524,-111.68662"
       gridpoint25x27="78.816702,-111.68662"
       gridpoint28x30="45.224068,-111.68662"
       gridpoint29x31="67.619158,-111.68662"
       gridpoint32x33x34x35="56.421613,-111.68662"
       id="path-effect1015"
       is_visible="true"
       lpeversion="1"
       horizontal_mirror="false"
       vertical_mirror="false"
       perimetral="false"
       live_update="true" />
    <radialGradient
       inkscape:collect="always"
       xlink:href="#linearGradient1778"
       id="radialGradient1780"
       cx="-76.398064"
       cy="369.91522"
       fx="-76.398064"
       fy="369.91522"
       r="94.932663"
       gradientTransform="matrix(0.66093212,-0.01990751,0.02746125,0.91171824,358.21252,-422.05317)"
       gradientUnits="userSpaceOnUse" />
    <radialGradient
       inkscape:collect="always"
       xlink:href="#linearGradient1788"
       id="radialGradient1790"
       cx="-69.999992"
       cy="376.1409"
       fx="-69.999992"
       fy="376.1409"
       r="73.888714"
       gradientTransform="matrix(3.1514574,-0.01933413,0.02797432,4.5597964,140.07971,-1400.765)"
       gradientUnits="userSpaceOnUse" />
    <radialGradient
       inkscape:collect="always"
       xlink:href="#linearGradient1800"
       id="radialGradient1802"
       cx="-82.857147"
       cy="328.68588"
       fx="-82.857147"
       fy="328.68588"
       r="34.136761"
       gradientTransform="matrix(1.4726304,-0.0332183,0.04384456,1.9437016,426.99569,-732.8309)"
       gradientUnits="userSpaceOnUse" />
    <radialGradient
       inkscape:collect="always"
       xlink:href="#linearGradient1810"
       id="radialGradient1812"
       cx="-92.934036"
       cy="330.92621"
       fx="-92.934036"
       fy="330.92621"
       r="29.298873"
       gradientTransform="matrix(1.651114,0.0091223,-0.01105622,2.0011501,473.82613,-749.54182)"
       gradientUnits="userSpaceOnUse" />
    <radialGradient
       inkscape:collect="always"
       xlink:href="#linearGradient1788"
       id="radialGradient1887"
       gradientUnits="userSpaceOnUse"
       gradientTransform="matrix(3.1514574,-0.01933413,0.02797432,4.5597964,140.07971,-1400.765)"
       cx="-69.999992"
       cy="376.1409"
       fx="-69.999992"
       fy="376.1409"
       r="73.888714" />
    <radialGradient
       inkscape:collect="always"
       xlink:href="#linearGradient1810"
       id="radialGradient1889"
       gradientUnits="userSpaceOnUse"
       gradientTransform="matrix(1.651114,0.0091223,-0.01105622,2.0011501,473.82613,-749.54182)"
       cx="-92.934036"
       cy="330.92621"
       fx="-92.934036"
       fy="330.92621"
       r="29.298873" />
    <radialGradient
       inkscape:collect="always"
       xlink:href="#linearGradient1778"
       id="radialGradient1891"
       gradientUnits="userSpaceOnUse"
       gradientTransform="matrix(0.66093212,-0.01990751,0.02746125,0.91171824,358.21252,-422.05317)"
       cx="-76.398064"
       cy="369.91522"
       fx="-76.398064"
       fy="369.91522"
       r="94.932663" />
    <radialGradient
       inkscape:collect="always"
       xlink:href="#linearGradient1800"
       id="radialGradient1893"
       gradientUnits="userSpaceOnUse"
       gradientTransform="matrix(1.4726304,-0.0332183,0.04384456,1.9437016,426.99569,-732.8309)"
       cx="-82.857147"
       cy="328.68588"
       fx="-82.857147"
       fy="328.68588"
       r="34.136761" />
    <linearGradient
       inkscape:collect="always"
       xlink:href="#linearGradient1949"
       id="linearGradient1951"
       x1="386.12921"
       y1="-153.05292"
       x2="410.13675"
       y2="-156.84285"
       gradientUnits="userSpaceOnUse" />
    <linearGradient
       inkscape:collect="always"
       xlink:href="#linearGradient1959"
       id="linearGradient1961"
       x1="442.53976"
       y1="-148.69313"
       x2="467.99719"
       y2="-145.15181"
       gradientUnits="userSpaceOnUse" />
    <linearGradient
       inkscape:collect="always"
       xlink:href="#linearGradient1969"
       id="linearGradient1971"
       x1="370.17926"
       y1="-37.476891"
       x2="387.80853"
       y2="-10.878345"
       gradientUnits="userSpaceOnUse" />
    <linearGradient
       inkscape:collect="always"
       xlink:href="#linearGradient1979"
       id="linearGradient1981"
       x1="363.39948"
       y1="-34.622017"
       x2="353.02695"
       y2="-77.861694"
       gradientUnits="userSpaceOnUse" />
    <linearGradient
       inkscape:collect="always"
       xlink:href="#linearGradient1989"
       id="linearGradient1991"
       x1="470.65283"
       y1="-9.1110001"
       x2="488.63556"
       y2="-38.095463"
       gradientUnits="userSpaceOnUse" />
    <linearGradient
       inkscape:collect="always"
       xlink:href="#linearGradient1999"
       id="linearGradient2001"
       x1="501.05411"
       y1="-90.671143"
       x2="500.05435"
       y2="-115.04032"
       gradientUnits="userSpaceOnUse" />
  </defs>
  <sodipodi:namedview
     inkscape:window-maximized="1"
     inkscape:window-y="25"
     inkscape:window-x="0"
     inkscape:window-height="756"
     inkscape:window-width="1434"
     units="px"
     showgrid="false"
     inkscape:document-rotation="0"
     inkscape:current-layer="layer1"
     inkscape:document-units="px"
     inkscape:cy="242.11848"
     inkscape:cx="334.24209"
     inkscape:zoom="1.4"
     inkscape:pageshadow="2"
     inkscape:pageopacity="0.0"
     borderopacity="1.0"
     bordercolor="#666666"
     pagecolor="#ffffff"
     id="base" />
  <metadata
     id="metadata5">
    <rdf:RDF>
      <cc:Work
         rdf:about="">
        <dc:format>image/svg+xml</dc:format>
        <dc:type
           rdf:resource="http://purl.org/dc/dcmitype/StillImage" />
        <dc:title />
      </cc:Work>
    </rdf:RDF>
  </metadata>
  <g
     transform="translate(-341.31144,170.20833)"
     id="layer1"
     inkscape:groupmode="layer"
     inkscape:label="Calque 1">
    <g
       id="g1627">
      <path
         id="path1437"
         style="fill:#dcdcdc;stroke-width:0.22153;fill-opacity:1"
         d="m 426.93461,-170.20694 c -23.07938,-0.0833 -48.08902,3.57819 -71.25603,13.26611 -1.77417,0.86512 -4.36286,3.34001 -5.17231,4.94492 -0.80968,1.60536 -2.93714,8.73197 -4.04007,13.53446 -3.88006,16.89482 -5.43226,31.23405 -5.11455,47.240893 0.31247,15.741593 2.0718,28.774989 5.90703,43.75225 6.96167,26.571211 20.38362,46.92163771 42.28126,65.905662 9.536,7.980177 23.43692,20.786324 37.39467,23.020978 13.95772,-2.234654 27.85863,-15.040801 37.39464,-23.020978 21.89764,-18.98402429 35.31908,-39.334451 42.28075,-65.905662 3.83523,-14.977261 5.59507,-28.010657 5.90754,-43.75225 0.31771,-16.006843 -1.23503,-30.346073 -5.11509,-47.240893 -1.10293,-4.80249 -3.22985,-11.9291 -4.03953,-13.53446 -0.80945,-1.60491 -3.39814,-4.0798 -5.17231,-4.94492 -23.16701,-9.68792 -48.17662,-13.34941 -71.256,-13.26611 z" />
      <path
         id="path1439"
         style="fill:#b5303e;stroke-width:0.22153;fill-opacity:1"
         d="m 424.92113,-168.23181 c -20.86212,0.13596 -43.47663,4.4682 -60.85624,10.40188 -6.87632,2.38123 -8.03528,2.92722 -9.72389,4.58098 -1.78617,1.74931 -2.36679,2.89112 -3.54904,6.9815 -4.67176,16.16341 -6.94379,31.40632 -7.23147,48.511786 -0.319,18.967201 1.82722,35.706934 6.919,53.960862 7.26126,22.929851 17.64139,39.1616379 34.54933,55.173463 12.06871,10.434223 22.08352,18.946779 35.05138,26.096848 2.8223,1.55263 4.7361,2.125501 6.85441,1.940996 2.11831,0.184505 4.03154,-0.388366 6.85387,-1.940996 12.96783,-7.150069 22.98264,-15.662625 35.05138,-26.096848 16.90794,-16.0118251 27.28807,-32.243612 34.5493,-55.173463 5.09178,-18.253928 7.23854,-34.993661 6.91953,-53.960862 -0.28767,-17.105466 -2.56022,-32.348376 -7.232,-48.511786 -1.18225,-4.09038 -1.76234,-5.23219 -3.5485,-6.9815 -1.68861,-1.65376 -2.84811,-2.19975 -9.72441,-4.58098 -17.94025,-6.12509 -41.45831,-10.54377 -62.86917,-10.40188 -0.66912,-0.004 -1.34052,-0.004 -2.01348,0 z" />
      <path
         id="path1369"
         style="fill:#000000;stroke-width:0.22153"
         d="m 426.93461,-162.21503 c -19.92784,-0.0744 -36.49136,2.43304 -58.07761,8.92144 -5.47232,1.80255 -9.3868,3.31508 -10.24591,3.95867 -2.05493,6.26891 -4.51031,13.48846 -5.36399,17.2421 -6.557,28.83082 -5.16021,57.371521 2.54336,85.510987 4.65259,16.994973 13.59568,33.119842 25.43302,45.85657185 9.66418,10.32239995 22.58273,21.34746015 35.96833,29.67949915 3.10344,1.766263 6.05507,4.415363 9.7428,4.498533 3.68772,-0.08317 6.63882,-2.73227 9.74226,-4.498533 13.3856,-8.332039 26.30415,-19.3570992 35.9683,-29.67949915 11.83734,-12.73672985 20.78097,-28.86159885 25.43356,-45.85657185 7.70357,-28.139466 9.10039,-56.680167 2.54336,-85.510987 -0.85368,-3.75364 -3.3096,-10.97319 -5.36451,-17.2421 -0.85913,-0.64359 -4.77358,-2.15612 -10.2459,-3.95867 -21.58628,-6.4884 -38.14926,-8.99587 -58.07707,-8.92144 z" />
    </g>
    <g
       id="g2027">
      <g
         id="g1863">
        <path
           id="path1681"
           style="fill:url(#radialGradient1790);fill-opacity:1;stroke-width:0.837279"
           d="m 153.09766,56.191406 c -4.57304,1.139901 -9.19566,2.332244 -13.8711,3.578125 -1.34772,5.959597 -2.68976,11.920956 -3.90039,17.923828 -2.47515,12.273012 -4.74521,24.584291 -6.81055,36.855471 -2.06532,12.27118 -3.92596,24.5032 -5.58007,36.61523 -1.65411,12.11204 -3.10229,24.10482 -4.34375,35.90039 -1.24147,11.79557 -2.27612,23.39305 -3.10352,34.71485 -0.8274,11.32179 -1.44745,22.36788 -1.85937,33.05859 -0.41193,10.69071 -0.61631,21.02544 -0.61133,30.92773 0.005,9.90231 0.21928,19.37155 0.64258,28.32813 0.53901,11.40511 1.29099,22.55847 2.24414,33.47852 0.95314,10.92004 2.10788,21.60753 3.45312,32.08203 1.34524,10.47449 2.88041,20.73622 4.5957,30.80468 1.71531,10.06847 3.6105,19.94259 5.67383,29.64454 2.06334,9.70194 4.29426,19.23052 6.6836,28.60546 2.38934,9.37495 4.93754,18.59614 7.63086,27.6836 2.69331,9.08746 5.53256,18.04137 8.50781,26.88086 2.97525,8.83949 6.08515,17.56622 9.32031,26.19726 3.23516,8.63104 6.59532,17.16681 10.06836,25.62891 3.47304,8.4621 7.05916,16.84896 10.74805,25.18164 3.68889,8.33268 7.48057,16.61074 11.36328,24.85352 3.8827,8.24277 7.85762,16.45018 11.91211,24.64257 8.10898,16.38478 16.53919,32.70858 25.20312,49.12891 2.68913,5.09656 5.45551,10.25136 8.22852,15.41016 7.06833,5.38193 14.241,10.64182 21.50195,15.72265 -5.61683,-10.43473 -11.20664,-20.83775 -16.63867,-31.13281 -8.66393,-16.42033 -17.09415,-32.74413 -25.20313,-49.12891 -4.05446,-8.19239 -8.0294,-16.3998 -11.9121,-24.64257 -3.88271,-8.24278 -7.67244,-16.52084 -11.36133,-24.85352 -3.68889,-8.33268 -7.27696,-16.71954 -10.75,-25.18164 -3.47304,-8.4621 -6.83125,-16.99787 -10.06641,-25.62891 -3.23516,-8.63104 -6.34701,-17.35777 -9.32226,-26.19726 -2.97526,-8.83949 -5.8145,-17.7934 -8.50782,-26.88086 -2.69331,-9.08746 -5.23956,-18.30865 -7.6289,-27.6836 -2.38934,-9.37494 -4.62221,-18.90352 -6.68555,-28.60546 -2.06334,-9.70195 -3.95852,-19.57607 -5.67383,-29.64454 -1.7153,-10.06846 -3.25046,-20.33019 -4.5957,-30.80468 -1.34524,-10.4745 -2.49998,-21.16199 -3.45313,-32.08203 -0.95314,-10.92005 -1.70512,-22.07341 -2.24414,-33.47852 -0.42329,-8.95658 -0.63564,-18.42582 -0.64062,-28.32813 -0.005,-9.90228 0.19745,-20.23702 0.60937,-30.92773 0.41192,-10.69071 1.03198,-21.7368 1.85938,-33.05859 0.8274,-11.3218 1.86205,-22.91928 3.10351,-34.71485 1.24147,-11.79557 2.68964,-23.78835 4.34375,-35.90039 1.65411,-12.11203 3.51474,-24.34405 5.58008,-36.61523 2.06534,-12.27118 4.3354,-24.582459 6.81055,-36.855471 1.45227,-7.20107 3.0561,-14.355855 4.67969,-21.501953 z"
           transform="matrix(0.26458332,0,0,0.26458332,341.31144,-170.20833)" />
        <path
           id="path1717"
           style="fill:url(#radialGradient1812);fill-opacity:1;stroke-width:0.218298"
           d="m 357.09859,-140.44426 c -1.20164,3.69991 -2.27633,7.13937 -2.77658,9.33897 -0.66691,2.93241 -1.24547,5.86189 -1.74718,8.78809 -0.0592,0.53509 -0.11917,1.07084 -0.17518,1.603 -0.32847,3.12091 -0.60222,6.18941 -0.82114,9.18497 -0.21891,2.99556 -0.38297,5.91817 -0.49196,8.74675 -0.10898,2.828589 -0.16306,5.562988 -0.16174,8.182966 0.001,2.619987 0.058,5.125389 0.17001,7.495151 0.14262,3.017602 0.34158,5.968595 0.59376,8.857858 0.25219,2.889261 0.55772,5.716992 0.91364,8.48837 0.35593,2.771375 0.76211,5.486458 1.21595,8.150405 0.45384,2.663949 0.95528,5.276476 1.5012,7.84345 0.54592,2.566972 1.13671,5.088075 1.76888,7.568528 0.21883,0.858591 0.44417,1.710473 0.67283,2.559534 2.17614,7.066338 5.10173,13.947872 8.66769,20.456633 -0.21029,-0.548019 -0.4188,-1.097093 -0.62529,-1.647963 -0.85597,-2.283629 -1.67879,-4.592576 -2.466,-6.931358 -0.7872,-2.338782 -1.53893,-4.707837 -2.25154,-7.112227 -0.7126,-2.40439 -1.3863,-4.844164 -2.01848,-7.324619 -0.63218,-2.480453 -1.22296,-5.001556 -1.76888,-7.568528 -0.54593,-2.566974 -1.04685,-5.179501 -1.50069,-7.84345 -0.45384,-2.663947 -0.86053,-5.37903 -1.21646,-8.150405 -0.35593,-2.771378 -0.66145,-5.599109 -0.91364,-8.48837 -0.25218,-2.889263 -0.45063,-5.840256 -0.59324,-8.857858 -0.112,-2.369762 -0.1687,-4.875164 -0.17002,-7.495151 -0.001,-2.61998 0.0528,-5.354377 0.16175,-8.182966 0.10898,-2.82858 0.27304,-5.75119 0.49196,-8.74675 0.21891,-2.99556 0.49267,-6.06406 0.82114,-9.18497 0.32847,-3.12091 0.71163,-6.294 1.14928,-9.49864 0.43765,-3.20464 0.92943,-6.44103 1.47588,-9.68778 0.0305,-0.1811 0.0632,-0.36247 0.094,-0.54364 z" />
        <path
           id="path1684"
           style="fill:url(#radialGradient1780);fill-opacity:1;stroke-width:0.22153"
           d="m 378.14847,-154.39431 c -2.73751,0.72947 -5.54384,1.52592 -8.44445,2.39779 -4.75419,1.56601 -8.31212,2.90877 -9.66866,3.63957 -0.55538,2.81786 -1.0723,5.64091 -1.54616,8.45633 -0.54645,3.24675 -1.03874,6.48314 -1.47639,9.68778 -0.43765,3.20464 -0.82082,6.37773 -1.14929,9.49864 -0.32847,3.12091 -0.60222,6.18941 -0.82114,9.18497 -0.21891,2.99556 -0.38297,5.91817 -0.49196,8.74675 -0.10898,2.828589 -0.16254,5.562986 -0.16123,8.182966 0.001,2.619987 0.0575,5.125389 0.1695,7.495151 0.14262,3.017602 0.34158,5.968595 0.59376,8.857858 0.25219,2.889261 0.55772,5.716992 0.91364,8.48837 0.35593,2.771375 0.76211,5.486458 1.21595,8.150405 0.45384,2.663949 0.95528,5.276476 1.5012,7.84345 0.54593,2.566972 1.13671,5.088075 1.76889,7.568528 0.63217,2.480455 1.30587,4.920229 2.01848,7.324619 0.7126,2.40439 1.46382,4.773445 2.25102,7.112227 0.7872,2.338782 1.61055,4.647729 2.46652,6.931358 0.85597,2.283629 1.74449,4.542052 2.6634,6.780982 0.33344,0.812435 0.67572,1.619269 1.01699,2.426724 3.26977,4.98012 6.92824,9.6690677 10.92182,13.9660728 6.40494,6.8411828 14.26345,13.9920422 22.73401,20.4416462 -0.73369,-1.364932 -1.46563,-2.728806 -2.17713,-4.077271 -2.29233,-4.344545 -4.52282,-8.6635506 -6.66833,-12.9986901 -1.07275,-2.16756977 -2.12444,-4.3391136 -3.15174,-6.520013 -1.0273,-2.1809021 -2.03052,-4.3711387 -3.00654,-6.5758269 -0.97601,-2.204688 -1.92484,-4.423711 -2.84375,-6.662642 -0.91891,-2.23893 -1.80795,-4.497353 -2.66392,-6.780982 -0.85597,-2.283629 -1.6788,-4.592576 -2.466,-6.931358 -0.7872,-2.338782 -1.53842,-4.707837 -2.25102,-7.112227 -0.71261,-2.40439 -1.38682,-4.844164 -2.019,-7.324619 -0.63218,-2.480453 -1.22245,-5.001556 -1.76837,-7.568528 -0.54592,-2.566974 -1.04736,-5.179501 -1.5012,-7.84345 -0.45384,-2.663947 -0.86002,-5.37903 -1.21595,-8.150405 -0.35593,-2.771378 -0.66145,-5.599109 -0.91364,-8.48837 -0.25218,-2.889263 -0.45114,-5.840256 -0.59376,-8.857858 -0.112,-2.369762 -0.1687,-4.875164 -0.17001,-7.495151 -10e-4,-2.619978 0.0528,-5.354377 0.16174,-8.182966 0.10899,-2.82858 0.27305,-5.75119 0.49196,-8.74675 0.21892,-2.99556 0.49267,-6.06406 0.82114,-9.18497 0.32847,-3.12091 0.71164,-6.294 1.14929,-9.49864 0.43765,-3.20464 0.92994,-6.44103 1.47639,-9.68778 0.54645,-3.24675 1.14707,-6.50411 1.80196,-9.75134 0.32031,-1.58826 0.67539,-3.16554 1.03198,-4.74235 z" />
        <path
           id="path1694"
           style="fill:url(#radialGradient1802);fill-opacity:1;stroke-width:0.22153"
           d="m 360.03536,-148.35695 c -0.18213,0.0981 -0.32716,0.18641 -0.42736,0.26148 -0.82079,2.50394 -1.69035,5.12929 -2.50941,7.65121 -0.0308,0.18117 -0.0636,0.36254 -0.094,0.54364 -0.54645,3.24675 -1.03823,6.48314 -1.47588,9.68778 -0.43765,3.20464 -0.82081,6.37773 -1.14928,9.49864 -0.32847,3.12091 -0.60223,6.18941 -0.82114,9.18497 -0.21892,2.99556 -0.38298,5.91817 -0.49196,8.74675 -0.10899,2.828589 -0.16307,5.562986 -0.16175,8.182966 10e-4,2.619987 0.058,5.125389 0.17002,7.495151 0.14261,3.017602 0.34106,5.968595 0.59324,8.857858 0.25219,2.889261 0.55771,5.716992 0.91364,8.48837 0.35593,2.771375 0.76262,5.486458 1.21646,8.150405 0.45384,2.663949 0.95476,5.276476 1.50069,7.84345 0.54592,2.566972 1.1367,5.088075 1.76888,7.568528 0.63218,2.480455 1.30588,4.920229 2.01848,7.324619 0.71261,2.40439 1.46434,4.773445 2.25154,7.112227 0.78721,2.338782 1.61003,4.647729 2.466,6.931358 0.20649,0.55087 0.415,1.099944 0.62529,1.647963 1.41484,2.582441 2.92936,5.106955 4.53977,7.559743 -0.34127,-0.807455 -0.68355,-1.614289 -1.01699,-2.426724 -0.91891,-2.23893 -1.80743,-4.497353 -2.6634,-6.780982 -0.85597,-2.283629 -1.67932,-4.592576 -2.46652,-6.931358 -0.7872,-2.338782 -1.53842,-4.707837 -2.25102,-7.112227 -0.71261,-2.40439 -1.38631,-4.844164 -2.01848,-7.324619 -0.63218,-2.480453 -1.22296,-5.001556 -1.76889,-7.568528 -0.54592,-2.566974 -1.04736,-5.179501 -1.5012,-7.84345 -0.45384,-2.663947 -0.86002,-5.37903 -1.21595,-8.150405 -0.35592,-2.771378 -0.66145,-5.599109 -0.91364,-8.48837 -0.25218,-2.889263 -0.45114,-5.840256 -0.59376,-8.857858 -0.11199,-2.369762 -0.16818,-4.875164 -0.1695,-7.495151 -10e-4,-2.619975 0.0523,-5.354377 0.16123,-8.182966 0.10899,-2.82858 0.27305,-5.75119 0.49196,-8.74675 0.21892,-2.99556 0.49267,-6.06406 0.82114,-9.18497 0.32847,-3.12091 0.71164,-6.294 1.14929,-9.49864 0.43765,-3.20464 0.92994,-6.44103 1.47639,-9.68778 0.47386,-2.81542 0.99078,-5.63847 1.54616,-8.45633 z" />
      </g>
      <g
         transform="matrix(-1,0,0,1,853.86857,0)"
         id="g1881">
        <path
           transform="matrix(0.26458332,0,0,0.26458332,341.31144,-170.20833)"
           d="m 153.09766,56.191406 c -4.57304,1.139901 -9.19566,2.332244 -13.8711,3.578125 -1.34772,5.959597 -2.68976,11.920956 -3.90039,17.923828 -2.47515,12.273012 -4.74521,24.584291 -6.81055,36.855471 -2.06532,12.27118 -3.92596,24.5032 -5.58007,36.61523 -1.65411,12.11204 -3.10229,24.10482 -4.34375,35.90039 -1.24147,11.79557 -2.27612,23.39305 -3.10352,34.71485 -0.8274,11.32179 -1.44745,22.36788 -1.85937,33.05859 -0.41193,10.69071 -0.61631,21.02544 -0.61133,30.92773 0.005,9.90231 0.21928,19.37155 0.64258,28.32813 0.53901,11.40511 1.29099,22.55847 2.24414,33.47852 0.95314,10.92004 2.10788,21.60753 3.45312,32.08203 1.34524,10.47449 2.88041,20.73622 4.5957,30.80468 1.71531,10.06847 3.6105,19.94259 5.67383,29.64454 2.06334,9.70194 4.29426,19.23052 6.6836,28.60546 2.38934,9.37495 4.93754,18.59614 7.63086,27.6836 2.69331,9.08746 5.53256,18.04137 8.50781,26.88086 2.97525,8.83949 6.08515,17.56622 9.32031,26.19726 3.23516,8.63104 6.59532,17.16681 10.06836,25.62891 3.47304,8.4621 7.05916,16.84896 10.74805,25.18164 3.68889,8.33268 7.48057,16.61074 11.36328,24.85352 3.8827,8.24277 7.85762,16.45018 11.91211,24.64257 8.10898,16.38478 16.53919,32.70858 25.20312,49.12891 2.68913,5.09656 5.45551,10.25136 8.22852,15.41016 7.06833,5.38193 14.241,10.64182 21.50195,15.72265 -5.61683,-10.43473 -11.20664,-20.83775 -16.63867,-31.13281 -8.66393,-16.42033 -17.09415,-32.74413 -25.20313,-49.12891 -4.05446,-8.19239 -8.0294,-16.3998 -11.9121,-24.64257 -3.88271,-8.24278 -7.67244,-16.52084 -11.36133,-24.85352 -3.68889,-8.33268 -7.27696,-16.71954 -10.75,-25.18164 -3.47304,-8.4621 -6.83125,-16.99787 -10.06641,-25.62891 -3.23516,-8.63104 -6.34701,-17.35777 -9.32226,-26.19726 -2.97526,-8.83949 -5.8145,-17.7934 -8.50782,-26.88086 -2.69331,-9.08746 -5.23956,-18.30865 -7.6289,-27.6836 -2.38934,-9.37494 -4.62221,-18.90352 -6.68555,-28.60546 -2.06334,-9.70195 -3.95852,-19.57607 -5.67383,-29.64454 -1.7153,-10.06846 -3.25046,-20.33019 -4.5957,-30.80468 -1.34524,-10.4745 -2.49998,-21.16199 -3.45313,-32.08203 -0.95314,-10.92005 -1.70512,-22.07341 -2.24414,-33.47852 -0.42329,-8.95658 -0.63564,-18.42582 -0.64062,-28.32813 -0.005,-9.90228 0.19745,-20.23702 0.60937,-30.92773 0.41192,-10.69071 1.03198,-21.7368 1.85938,-33.05859 0.8274,-11.3218 1.86205,-22.91928 3.10351,-34.71485 1.24147,-11.79557 2.68964,-23.78835 4.34375,-35.90039 1.65411,-12.11203 3.51474,-24.34405 5.58008,-36.61523 2.06534,-12.27118 4.3354,-24.582459 6.81055,-36.855471 1.45227,-7.20107 3.0561,-14.355855 4.67969,-21.501953 z"
           style="fill:url(#radialGradient1887);fill-opacity:1;stroke-width:0.837279"
           id="path1873" />
        <path
           d="m 357.09859,-140.44426 c -1.20164,3.69991 -2.27633,7.13937 -2.77658,9.33897 -0.66691,2.93241 -1.24547,5.86189 -1.74718,8.78809 -0.0592,0.53509 -0.11917,1.07084 -0.17518,1.603 -0.32847,3.12091 -0.60222,6.18941 -0.82114,9.18497 -0.21891,2.99556 -0.38297,5.91817 -0.49196,8.74675 -0.10898,2.828589 -0.16306,5.562988 -0.16174,8.182966 0.001,2.619987 0.058,5.125389 0.17001,7.495151 0.14262,3.017602 0.34158,5.968595 0.59376,8.857858 0.25219,2.889261 0.55772,5.716992 0.91364,8.48837 0.35593,2.771375 0.76211,5.486458 1.21595,8.150405 0.45384,2.663949 0.95528,5.276476 1.5012,7.84345 0.54592,2.566972 1.13671,5.088075 1.76888,7.568528 0.21883,0.858591 0.44417,1.710473 0.67283,2.559534 2.17614,7.066338 5.10173,13.947872 8.66769,20.456633 -0.21029,-0.548019 -0.4188,-1.097093 -0.62529,-1.647963 -0.85597,-2.283629 -1.67879,-4.592576 -2.466,-6.931358 -0.7872,-2.338782 -1.53893,-4.707837 -2.25154,-7.112227 -0.7126,-2.40439 -1.3863,-4.844164 -2.01848,-7.324619 -0.63218,-2.480453 -1.22296,-5.001556 -1.76888,-7.568528 -0.54593,-2.566974 -1.04685,-5.179501 -1.50069,-7.84345 -0.45384,-2.663947 -0.86053,-5.37903 -1.21646,-8.150405 -0.35593,-2.771378 -0.66145,-5.599109 -0.91364,-8.48837 -0.25218,-2.889263 -0.45063,-5.840256 -0.59324,-8.857858 -0.112,-2.369762 -0.1687,-4.875164 -0.17002,-7.495151 -0.001,-2.61998 0.0528,-5.354377 0.16175,-8.182966 0.10898,-2.82858 0.27304,-5.75119 0.49196,-8.74675 0.21891,-2.99556 0.49267,-6.06406 0.82114,-9.18497 0.32847,-3.12091 0.71163,-6.294 1.14928,-9.49864 0.43765,-3.20464 0.92943,-6.44103 1.47588,-9.68778 0.0305,-0.1811 0.0632,-0.36247 0.094,-0.54364 z"
           style="fill:url(#radialGradient1889);fill-opacity:1;stroke-width:0.218298"
           id="path1875" />
        <path
           d="m 378.14847,-154.39431 c -2.73751,0.72947 -5.54384,1.52592 -8.44445,2.39779 -4.75419,1.56601 -8.31212,2.90877 -9.66866,3.63957 -0.55538,2.81786 -1.0723,5.64091 -1.54616,8.45633 -0.54645,3.24675 -1.03874,6.48314 -1.47639,9.68778 -0.43765,3.20464 -0.82082,6.37773 -1.14929,9.49864 -0.32847,3.12091 -0.60222,6.18941 -0.82114,9.18497 -0.21891,2.99556 -0.38297,5.91817 -0.49196,8.74675 -0.10898,2.828589 -0.16254,5.562986 -0.16123,8.182966 0.001,2.619987 0.0575,5.125389 0.1695,7.495151 0.14262,3.017602 0.34158,5.968595 0.59376,8.857858 0.25219,2.889261 0.55772,5.716992 0.91364,8.48837 0.35593,2.771375 0.76211,5.486458 1.21595,8.150405 0.45384,2.663949 0.95528,5.276476 1.5012,7.84345 0.54593,2.566972 1.13671,5.088075 1.76889,7.568528 0.63217,2.480455 1.30587,4.920229 2.01848,7.324619 0.7126,2.40439 1.46382,4.773445 2.25102,7.112227 0.7872,2.338782 1.61055,4.647729 2.46652,6.931358 0.85597,2.283629 1.74449,4.542052 2.6634,6.780982 0.33344,0.812435 0.67572,1.619269 1.01699,2.426724 3.26977,4.98012 6.92824,9.6690677 10.92182,13.9660728 6.40494,6.8411828 14.26345,13.9920422 22.73401,20.4416462 -0.73369,-1.364932 -1.46563,-2.728806 -2.17713,-4.077271 -2.29233,-4.344545 -4.52282,-8.6635506 -6.66833,-12.9986901 -1.07275,-2.16756977 -2.12444,-4.3391136 -3.15174,-6.520013 -1.0273,-2.1809021 -2.03052,-4.3711387 -3.00654,-6.5758269 -0.97601,-2.204688 -1.92484,-4.423711 -2.84375,-6.662642 -0.91891,-2.23893 -1.80795,-4.497353 -2.66392,-6.780982 -0.85597,-2.283629 -1.6788,-4.592576 -2.466,-6.931358 -0.7872,-2.338782 -1.53842,-4.707837 -2.25102,-7.112227 -0.71261,-2.40439 -1.38682,-4.844164 -2.019,-7.324619 -0.63218,-2.480453 -1.22245,-5.001556 -1.76837,-7.568528 -0.54592,-2.566974 -1.04736,-5.179501 -1.5012,-7.84345 -0.45384,-2.663947 -0.86002,-5.37903 -1.21595,-8.150405 -0.35593,-2.771378 -0.66145,-5.599109 -0.91364,-8.48837 -0.25218,-2.889263 -0.45114,-5.840256 -0.59376,-8.857858 -0.112,-2.369762 -0.1687,-4.875164 -0.17001,-7.495151 -10e-4,-2.619978 0.0528,-5.354377 0.16174,-8.182966 0.10899,-2.82858 0.27305,-5.75119 0.49196,-8.74675 0.21892,-2.99556 0.49267,-6.06406 0.82114,-9.18497 0.32847,-3.12091 0.71164,-6.294 1.14929,-9.49864 0.43765,-3.20464 0.92994,-6.44103 1.47639,-9.68778 0.54645,-3.24675 1.14707,-6.50411 1.80196,-9.75134 0.32031,-1.58826 0.67539,-3.16554 1.03198,-4.74235 z"
           style="fill:url(#radialGradient1891);fill-opacity:1;stroke-width:0.22153"
           id="path1877" />
        <path
           d="m 360.03536,-148.35695 c -0.18213,0.0981 -0.32716,0.18641 -0.42736,0.26148 -0.82079,2.50394 -1.69035,5.12929 -2.50941,7.65121 -0.0308,0.18117 -0.0636,0.36254 -0.094,0.54364 -0.54645,3.24675 -1.03823,6.48314 -1.47588,9.68778 -0.43765,3.20464 -0.82081,6.37773 -1.14928,9.49864 -0.32847,3.12091 -0.60223,6.18941 -0.82114,9.18497 -0.21892,2.99556 -0.38298,5.91817 -0.49196,8.74675 -0.10899,2.828589 -0.16307,5.562986 -0.16175,8.182966 10e-4,2.619987 0.058,5.125389 0.17002,7.495151 0.14261,3.017602 0.34106,5.968595 0.59324,8.857858 0.25219,2.889261 0.55771,5.716992 0.91364,8.48837 0.35593,2.771375 0.76262,5.486458 1.21646,8.150405 0.45384,2.663949 0.95476,5.276476 1.50069,7.84345 0.54592,2.566972 1.1367,5.088075 1.76888,7.568528 0.63218,2.480455 1.30588,4.920229 2.01848,7.324619 0.71261,2.40439 1.46434,4.773445 2.25154,7.112227 0.78721,2.338782 1.61003,4.647729 2.466,6.931358 0.20649,0.55087 0.415,1.099944 0.62529,1.647963 1.41484,2.582441 2.92936,5.106955 4.53977,7.559743 -0.34127,-0.807455 -0.68355,-1.614289 -1.01699,-2.426724 -0.91891,-2.23893 -1.80743,-4.497353 -2.6634,-6.780982 -0.85597,-2.283629 -1.67932,-4.592576 -2.46652,-6.931358 -0.7872,-2.338782 -1.53842,-4.707837 -2.25102,-7.112227 -0.71261,-2.40439 -1.38631,-4.844164 -2.01848,-7.324619 -0.63218,-2.480453 -1.22296,-5.001556 -1.76889,-7.568528 -0.54592,-2.566974 -1.04736,-5.179501 -1.5012,-7.84345 -0.45384,-2.663947 -0.86002,-5.37903 -1.21595,-8.150405 -0.35592,-2.771378 -0.66145,-5.599109 -0.91364,-8.48837 -0.25218,-2.889263 -0.45114,-5.840256 -0.59376,-8.857858 -0.11199,-2.369762 -0.16818,-4.875164 -0.1695,-7.495151 -10e-4,-2.619975 0.0523,-5.354377 0.16123,-8.182966 0.10899,-2.82858 0.27305,-5.75119 0.49196,-8.74675 0.21892,-2.99556 0.49267,-6.06406 0.82114,-9.18497 0.32847,-3.12091 0.71164,-6.294 1.14929,-9.49864 0.43765,-3.20464 0.92994,-6.44103 1.47639,-9.68778 0.47386,-2.81542 0.99078,-5.63847 1.54616,-8.45633 z"
           style="fill:url(#radialGradient1893);fill-opacity:1;stroke-width:0.22153"
           id="path1879" />
      </g>
    </g>
    <path
       sodipodi:nodetypes="cccsccsccsssssssssssccssssssssssssscssccsssssssccccsccsssccccccssssscccsssssssccccsssssssscccsssssscsssssscssssssssscsssscccsscccss"
       d="m 417.64395,-94.556982 c -2.18913,0.03297 -4.07769,0.312457 -6.02203,0.985203 l 1.54608,0.286214 c 3.02884,0.560478 5.16171,1.544457 7.61431,3.512804 1.24829,1.001811 3.12523,3.044976 3.12523,3.401995 -2.66202,-0.28112 -5.58629,-0.3071 -8.14314,0.261536 -4.215,0.961115 -10.82531,4.37472 -16.82303,8.68722 -3.71608,2.671951 -5.94145,3.566438 -9.10366,3.660901 l -1.39379,0.04201 0.61234,0.63912 c 1.34947,1.408542 3.77748,1.556258 8.03024,0.488402 1.14884,-0.288468 2.12756,-0.486162 2.1747,-0.439037 0.15439,0.154392 -1.35585,1.192527 -2.71245,1.864324 -1.53249,0.758898 -3.59299,1.464811 -4.9381,1.692071 -0.51313,0.0867 -0.93269,0.240679 -0.93269,0.341879 0,0.101198 0.6727,0.415965 1.49513,0.700041 1.18245,0.408434 1.93579,0.512827 3.59999,0.497853 3.223,-0.029 5.42232,-0.872858 11.01841,-4.227024 5.96712,-3.576548 9.80767,-5.250803 13.35013,-5.820366 4.3919,-0.706137 10.17624,0.199167 14.27862,2.234563 1.47374,0.7312 2.54895,1.487539 3.54169,2.562264 -1.30435,-0.689695 -1.64234,-0.94959 -2.34734,-1.310563 -1.87701,-0.95421 -4.29295,-1.663986 -7.10767,-2.079357 -6.16756,-0.910149 -12.16766,0.839301 -21.54632,6.282508 -1.58394,0.919291 -3.29225,1.951543 -3.79588,2.293905 -1.30463,0.88688 -4.75243,2.475436 -6.89327,3.176177 -1.00519,0.329021 -1.82755,0.673933 -1.82755,0.76621 0,0.366525 1.30354,0.749135 2.87998,0.84551 1.24328,0.07601 2.35791,-0.04344 4.42816,-0.47422 1.52165,-0.316631 2.88059,-0.575578 3.02021,-0.575578 0.13962,0 -0.0909,0.649903 -0.51256,1.444195 -0.42176,0.794288 -0.73464,1.536644 -0.69479,1.649531 0.0398,0.112888 0.91759,-0.192732 1.95045,-0.679034 3.66172,-1.724038 7.40374,-2.33613 12.95048,-2.118502 1.9573,0.0768 4.98262,0.149549 6.71525,0.288315 1.01444,0.08125 1.89337,0.02943 3.33613,-0.05567 -0.90548,-0.249313 -1.71111,-0.380574 -3.06043,-0.589752 -2.85274,-0.442252 -3.32166,-0.46683 -3.32166,-0.808224 0,-0.216908 3.26899,-2.209484 4.65242,-2.835871 2.39986,-1.060134 6.8889,-2.498894 10.46249,-2.659536 -2.00126,0.820203 -0.65069,0.273143 -2.81982,0.946459 -3.7885,1.175982 -9.6367,3.666284 -9.6367,4.103611 0,0.09898 0.42379,0.231006 0.9416,0.293566 4.65298,0.562145 6.20433,0.782567 6.31928,0.897501 0.39039,0.390404 -1.86505,1.47598 -4.03692,1.943096 -0.65229,0.140292 -4.07667,0.254734 -8.20828,0.274134 -5.85242,0.02748 -7.37859,0.10001 -8.75024,0.416979 -2.24801,0.519483 -4.22521,1.147012 -4.22521,1.350346 l 2.30102,0.408944 c -1.67495,0.380869 -5.14976,1.400639 -7.60171,3.2518 2.03449,0.178842 6.85755,0.668314 7.07813,1.301876 -0.88884,0.522985 -1.05582,0.641311 -2.3333,1.244107 -3.6448,1.719845 -6.28582,3.580819 -7.99884,5.659714 -1.39907,2.013959 -2.47364,4.008365 -2.52117,6.313048 l 1.91994,-1.243347 c 2.19123,-1.419032 3.48596,-1.821722 4.61252,-1.389418 0.34992,0.134274 0.49886,0.746071 0.18433,0.757284 -0.26443,0.0095 -1.86568,1.567158 -2.72821,2.654165 -4.34423,6.081996 -6.38131,12.305333 -1.98511,19.484539 0.72852,1.135313 3.17033,3.553243 3.58842,3.553243 -0.28719,-4.141314 -0.40289,-5.333121 1.07501,-7.826483 0.60878,-0.991833 2.35901,-2.531387 3.04331,-2.974514 0.19034,1.074045 0.26539,1.740676 0.38815,2.58593 0.26852,1.827359 0.86789,4.021345 1.52292,5.439064 1.33136,2.88155 2.57422,4.221985 6.37021,6.871213 1.35556,0.946047 2.95692,2.308707 3.76592,3.204008 0.77416,0.856728 1.48254,1.5585485 1.57392,1.5597294 0.0914,0.00112 0.16595,-0.9572094 0.16595,-2.1295294 0,-3.292925 -0.84551,-7.941402 -2.19113,-12.280138 1.41606,1.299034 4.01335,4.112409 6.02954,5.424682 1.42047,0.908678 4.80078,2.637586 4.92127,2.517096 l -0.76567,-1.854343 c -1.8375,-4.45017 -2.72303,-7.611114 -1.90635,-9.749621 0.74303,-1.945552 3.37701,-2.915965 5.27683,-1.944148 1.56164,0.798823 6.65782,5.232712 6.97467,6.068241 0.43105,1.136741 1.80601,3.029621 2.78019,3.827899 1.37324,1.125255 3.43603,2.061096 5.26476,2.387909 3.79974,0.679053 7.65102,-1.284907 8.07594,-4.118314 0.0846,-0.564111 0.009,-1.453437 -0.18908,-2.239814 -0.12496,-0.494846 -0.4894,-1.026145 -0.52026,-1.644164 0.37911,-1.770354 1.019,-3.129608 -0.46019,-4.950288 l -0.72789,0.828704 c -1.44313,1.643618 -2.81327,1.902413 -4.09836,0.774089 -1.14099,-1.001787 -1.50618,-1.980888 -1.51717,-4.066326 -0.0111,-2.07804 0.56327,-4.098707 1.8328,-6.448457 1.60459,-2.969984 4.61188,-4.629444 8.35583,-4.610918 3.28314,0.01624 3.89928,1.035661 2.83378,4.690742 -0.20411,0.700178 0.22204,0.646867 1.96306,-0.244724 3.9366,-2.015975 6.1704,-4.640802 7.75401,-9.111552 0.54554,-1.540135 1.48724,-6.089294 1.48724,-7.184208 0,-0.361346 -2.92313,-2.707444 -4.65871,-3.73915 -4.83312,-2.914623 -9.47236,-3.652655 -14.83318,-3.682433 l -0.11764,-0.78459 c -0.39937,-2.671365 -1.80355,-4.82113 -3.77223,-5.774149 -0.5486,-0.265571 -2.10923,-0.670091 -3.46816,-0.898553 -3.55836,-0.598228 -3.7988,-0.868795 -5.38711,-6.074543 -1.10203,-3.611949 -2.09595,-5.812186 -3.7549,-8.309628 -2.92163,-4.398253 -7.79098,-7.96834 -12.52353,-9.182448 -1.2802,-0.328431 -2.77928,-0.496577 -4.26956,-0.509932 z m 25.68565,31.263388 c 0.032,-0.0031 0.0705,-0.0029 0.1166,0 0.36844,0.02377 1.21809,0.244849 3.05749,0.695312 2.86806,0.702391 3.28741,0.887605 3.44766,1.526118 0.40744,1.623288 -1.2064,2.485562 -3.58842,1.917365 -1.4638,-0.349166 -2.59459,-1.686252 -3.08796,-3.651973 -0.074,-0.295041 -0.1695,-0.464954 0.0547,-0.486822 z m 12.31083,12.879584 c 0.63424,0.25725 0.25032,0.491781 -1.07604,0.657501 -2.09761,0.262078 -5.88681,1.414404 -6.28831,1.912113 -0.061,0.07553 -0.41013,0.291276 -0.77564,0.479996 -1.01837,0.525787 -3.28459,2.67385 -3.76751,3.570575 -0.23718,0.440372 -0.50824,0.800345 -0.60238,0.800345 -0.0941,0 -0.1712,-0.442221 -0.1712,-0.982578 0,-2.063059 -0.80882,-3.004974 -2.57957,-3.004974 -1.25488,0 -4.93757,1.19449 -7.16793,2.324891 -5.10377,2.586705 -10.01847,7.849783 -12.33238,13.20571 -0.46665,1.080131 -0.90477,1.965405 -0.97312,1.967256 -0.0684,0.0016 -0.2481,-0.480499 -0.39966,-1.071856 -0.36952,-1.441786 -1.24835,-2.452457 -2.27289,-2.61373 -0.70324,-0.110696 -0.91718,-0.0228 -1.72253,0.704769 -1.60078,1.583733 -2.45589,3.872352 -3.29486,5.97476 -0.34297,-1.181508 -0.25516,-2.48897 -0.19222,-3.520158 0.37873,-5.931723 2.37127,-10.073993 7.15323,-14.871521 1.99921,-2.005713 2.09775,-2.147329 1.75455,-2.52655 -0.19995,-0.220967 -1.34957,-0.735445 -2.55437,-1.143278 -1.20478,-0.407833 -2.14423,-0.816032 -2.08805,-0.906953 0.0562,-0.09092 0.42242,-0.260697 0.81401,-0.377591 11.89863,-3.093925 26.65825,-5.264298 38.53686,-0.578727 z"
       style="fill:#ffffff;stroke-width:0.22153"
       id="path1373" />
    <g
       id="g1002">
      <path
         d="m 406.15237,-115.80789 c 0.009,3.83431 -0.003,11.53682 -0.003,11.53682 0.78194,-0.0109 2.32392,-0.10605 2.32392,-0.10605 0.009,-1.64325 -0.003,-4.94616 -0.003,-4.94616 0.42652,-0.023 1.25245,-0.10557 1.25245,-0.10557 0.49043,-0.0441 0.83973,0.053 1.04801,0.29573 0.20845,0.243 0.32408,0.5936 0.34673,1.05263 0.033,0.76042 0.0695,2.25478 0.0695,2.25478 0.0113,0.23049 0.0337,0.45456 0.067,0.67221 0.0333,0.20671 0.11061,0.38753 0.2319,0.54225 0.87074,-0.0682 2.5941,-0.25239 2.5941,-0.25239 0.0102,-0.0238 -2.8e-4,-0.0999 -2.8e-4,-0.0999 -0.22349,-0.0992 -0.36902,-0.31199 -0.43673,-0.63791 -0.0454,-0.32795 -0.08,-0.80638 -0.10397,-1.43492 -0.0119,-0.31957 -0.0238,-0.60581 -0.0356,-0.85879 -0.0118,-0.2639 -0.029,-0.50501 -0.0519,-0.72335 -0.0683,-0.65446 -0.24147,-1.11464 -0.51919,-1.38157 -0.27735,-0.26653 -0.7134,-0.41048 -1.30817,-0.43582 0.01,-0.002 -6e-5,-0.0328 -6e-5,-0.0328 0.67105,-0.21329 1.16763,-0.58779 1.48719,-1.11775 0.32008,-0.54183 0.47932,-1.20831 0.47724,-1.9977 -0.003,-1.01856 -0.28143,-1.73852 -0.83524,-2.16295 -0.5522,-0.43409 -1.31974,-0.59005 -2.3034,-0.47853 -1.43865,0.16309 -2.87918,0.30894 -4.29805,0.41786 z m 2.31774,4.85461 c 0.009,-1.10772 -0.002,-3.3454 -0.002,-3.3454 0.37707,-0.0257 1.10354,-0.10896 1.10354,-0.10896 1.08844,-0.11213 1.63549,0.3618 1.63722,1.44081 6.8e-4,0.63281 -0.15162,1.10271 -0.4575,1.40737 -0.3053,0.29313 -0.74159,0.46826 -1.30685,0.52045 -0.32535,0.0301 -0.65033,0.0587 -0.97461,0.0857 z"
         style="font-style:normal;font-variant:normal;font-weight:bold;font-stretch:condensed;font-size:13.2292px;line-height:1.25;font-family:'Helvetica Neue';-inkscape-font-specification:'Helvetica Neue Bold Condensed';white-space:pre;fill:#ffffff;stroke-width:1.23598"
         id="path1023" />
      <path
         d="m 417.81341,-116.86116 c -0.78515,0.0508 -2.38467,0.12454 -2.38467,0.12454 0.0166,2.75161 0.02,8.22339 0.02,8.22339 0.002,0.79261 0.10812,1.43036 0.31844,1.91277 0.21035,0.48246 0.49186,0.85004 0.84463,1.10305 0.35279,0.24204 0.7547,0.39276 1.20609,0.45307 0.45139,0.0603 0.91911,0.0761 1.40342,0.0484 0.48421,-0.0277 0.95208,-0.1028 1.40329,-0.22474 0.45125,-0.12194 0.85303,-0.33303 1.20526,-0.63383 0.35225,-0.30082 0.63296,-0.69589 0.84215,-1.18632 0.20916,-0.50135 0.31372,-1.12414 0.31349,-1.86914 0.009,-2.71832 -0.003,-8.18357 -0.003,-8.18357 -0.78617,0.0388 -2.38673,0.0973 -2.38673,0.0973 0.0127,2.7408 0.008,8.19085 0.008,8.19085 2.9e-4,0.29606 -0.0215,0.57127 -0.0653,0.8257 -0.0328,0.2429 -0.1042,0.46034 -0.21414,0.65247 -0.099,0.18059 -0.23646,0.33036 -0.41254,0.44948 -0.17609,0.10817 -0.40729,0.17014 -0.69357,0.18622 -0.27531,0.0154 -0.50656,-0.0205 -0.69393,-0.10853 -0.17636,-0.0996 -0.31973,-0.23391 -0.43015,-0.40318 -0.0994,-0.18091 -0.17137,-0.39091 -0.21586,-0.63001 -0.0335,-0.25074 -0.0505,-0.52443 -0.051,-0.82107 -0.001,-0.62752 -0.0135,-7.57926 -0.0146,-8.20678 z"
         style="font-style:normal;font-variant:normal;font-weight:bold;font-stretch:condensed;font-size:13.2292px;line-height:1.25;font-family:'Helvetica Neue';-inkscape-font-specification:'Helvetica Neue Bold Condensed';white-space:pre;fill:#ffffff;stroke-width:1.23598"
         id="path1025" />
      <path
         d="m 429.73111,-113.72815 c 0.77386,0.0131 2.29238,0.0249 2.29238,0.0249 0.003,-1.2027 -0.28207,-2.1295 -0.85702,-2.77322 -0.57463,-0.65441 -1.51722,-0.98338 -2.82425,-0.97142 -0.76418,0.007 -1.4014,0.14378 -1.91049,0.40559 -0.50926,0.26191 -0.91885,0.64983 -1.22863,1.16161 -0.30981,0.50088 -0.53101,1.12614 -0.66372,1.87482 -0.12167,0.74841 -0.18249,1.61563 -0.1826,2.60153 -1.2e-4,1.01876 0.0439,1.91575 0.13203,2.691 0.0881,0.76437 0.25892,1.40583 0.51232,1.92548 0.26446,0.51944 0.62245,0.90021 1.07429,1.14504 0.46301,0.24472 1.05779,0.36355 1.7858,0.36261 0.56249,-7.2e-4 1.04228,-0.0906 1.43991,-0.27327 0.40862,-0.19349 0.75687,-0.51764 1.04499,-0.97467 0.021,0.0109 0.0332,6e-4 0.0332,6e-4 0.009,0.3739 -0.002,1.08943 -0.002,1.08943 0.59467,0.0224 1.75513,0.048 1.75513,0.048 0.0161,-2.11419 0.0188,-6.37367 0.0188,-6.37367 -1.2801,-0.0185 -3.86653,-0.0362 -3.86653,-0.0362 0.009,0.59231 -0.003,1.74526 -0.003,1.74526 0.53463,0.009 1.57478,0.005 1.57478,0.005 0.009,0.41204 -0.002,1.2041 -0.002,1.2041 -6.5e-4,0.3189 -0.0509,0.59872 -0.15081,0.83952 -0.0999,0.22981 -0.22722,0.42084 -0.38209,0.57338 -0.14382,0.15263 -0.30408,0.26681 -0.48083,0.34281 -0.16569,0.076 -0.32026,0.11402 -0.46373,0.11383 -0.34213,-4.8e-4 -0.62333,-0.10375 -0.84378,-0.31094 -0.20941,-0.2182 -0.3746,-0.52381 -0.4956,-0.91734 -0.10996,-0.40459 -0.18677,-0.89157 -0.23041,-1.46112 -0.0436,-0.56955 -0.0651,-1.20512 -0.0645,-1.90676 10e-4,-1.46903 0.12936,-2.52356 0.38447,-3.1632 0.255,-0.63938 0.67053,-0.96349 1.24618,-0.96767 0.24356,-0.002 0.44832,0.0631 0.6142,0.19439 0.17696,0.12023 0.32064,0.27937 0.43101,0.47717 0.11038,0.1868 0.18748,0.39578 0.23132,0.62673 0.0549,0.23097 0.0821,0.45645 0.0816,0.67634 0,0 -2e-5,0 -2e-5,0 z"
         style="font-style:normal;font-variant:normal;font-weight:bold;font-stretch:condensed;font-size:13.2292px;line-height:1.25;font-family:'Helvetica Neue';-inkscape-font-specification:'Helvetica Neue Bold Condensed';white-space:pre;fill:#ffffff;stroke-width:1.23598"
         id="path1027" />
      <path
         d="m 436.07777,-106.96296 c 0.0155,-1.18633 0.0169,-3.59173 0.0169,-3.59173 0.35333,0.0283 1.03051,0.0548 1.03051,0.0548 0.26597,0.0149 0.50966,0.057 0.73101,0.12625 0.22137,0.0692 0.40922,0.18174 0.56354,0.33738 0.16546,0.1451 0.29179,0.33859 0.37903,0.58028 0.0984,0.23118 0.14648,0.52105 0.14436,0.86922 -0.004,0.69661 -0.18433,1.16057 -0.53994,1.39282 -0.35584,0.23238 -0.82083,0.32739 -1.39625,0.28949 -0.30981,-0.0204 -0.61937,-0.0399 -0.92912,-0.0585 z m 0.0247,-5.26229 c 0.0148,-1.03051 0.0147,-3.12398 0.0147,-3.12398 0.29864,0.0218 0.86631,0.0341 0.86631,0.0341 0.59981,0.0248 1.03816,0.16252 1.31453,0.41113 0.27643,0.24868 0.41285,0.65984 0.40944,1.23222 -0.003,0.57249 -0.16129,0.97322 -0.47338,1.20259 -0.30128,0.21904 -0.78383,0.30927 -1.44957,0.2764 -0.22739,-0.0112 -0.45466,-0.022 -0.682,-0.0324 z m -2.37659,-4.95912 c -0.004,3.96434 -0.0428,11.85785 -0.0428,11.85785 1.35215,0.0745 4.02762,0.24967 4.02762,0.24967 0.69676,0.0524 1.2769,0.005 1.74292,-0.14753 0.47678,-0.15164 0.8598,-0.37233 1.14974,-0.66407 0.30098,-0.30199 0.51393,-0.66288 0.63885,-1.0828 0.1249,-0.41987 0.18917,-0.86792 0.19268,-1.3435 0.006,-0.81539 -0.18307,-1.48148 -0.5678,-1.99505 -0.38472,-0.51356 -0.9097,-0.83653 -1.57472,-0.96843 0.01,8e-5 2.1e-4,-0.0337 2.1e-4,-0.0337 0.6002,-0.13099 1.05137,-0.41659 1.35447,-0.86057 0.303,-0.45503 0.45706,-1.01121 0.46178,-1.66725 0.004,-0.57681 -0.0757,-1.06796 -0.23972,-1.47248 -0.16403,-0.40455 -0.3954,-0.73275 -0.69418,-0.9843 -0.29877,-0.25153 -0.65925,-0.43738 -1.08136,-0.55728 -0.41095,-0.1194 -0.86121,-0.18879 -1.3505,-0.208 -1.34571,-0.0528 -2.67351,-0.0945 -4.01717,-0.12247 z"
         style="font-style:normal;font-variant:normal;font-weight:bold;font-stretch:condensed;font-size:13.2292px;line-height:1.25;font-family:'Helvetica Neue';-inkscape-font-specification:'Helvetica Neue Bold Condensed';white-space:pre;fill:#ffffff;stroke-width:1.23598"
         id="path1029" />
      <path
         d="m 444.9768,-116.46937 c -0.89271,-0.11392 -2.74991,-0.38587 -2.74991,-0.38587 1.04376,2.6815 2.98337,7.81557 2.98337,7.81557 -0.0211,1.55998 -0.0913,4.59632 -0.0913,4.59632 0.75952,0.0688 2.21928,0.16383 2.21928,0.16383 0.0521,-1.48662 0.13142,-4.53857 0.13142,-4.53857 1.01494,-2.24399 3.06039,-6.91952 3.06039,-6.91952 -0.77716,-0.0797 -2.39311,-0.29913 -2.39311,-0.29913 -0.56481,1.53109 -1.70572,4.49749 -1.70572,4.49749 -0.001,0.0106 -0.0317,-0.003 -0.0317,-0.003 -0.46384,-1.61912 -0.93713,-3.25851 -1.42262,-4.92656 z"
         style="font-style:normal;font-variant:normal;font-weight:bold;font-stretch:condensed;font-size:13.2292px;line-height:1.25;font-family:'Helvetica Neue';-inkscape-font-specification:'Helvetica Neue Bold Condensed';white-space:pre;fill:#ffffff;stroke-width:1.23598"
         id="path1031" />
      <path
         id="path1109"
         style="font-style:normal;font-variant:normal;font-weight:bold;font-stretch:condensed;font-size:13.2292px;line-height:1.25;font-family:'Helvetica Neue';-inkscape-font-specification:'Helvetica Neue Bold Condensed';white-space:pre;fill:#ffffff;stroke-width:1.26489"
         d="m 364.37866,-125.75339 0.0339,11.84887 2.32539,-0.58412 0.008,-4.92252 1.24316,-0.29603 c 0.48212,-0.1148 0.82351,-0.0653 1.02478,0.14799 0.20084,0.21285 0.31029,0.54479 0.32864,0.99553 l 0.0492,2.20355 c 0.009,0.2231 0.0288,0.43798 0.059,0.64467 0.0303,0.19577 0.10292,0.35937 0.21772,0.4908 l 2.44876,-0.61511 10e-4,-0.0957 c -0.20676,-0.0649 -0.33976,-0.24955 -0.39881,-0.5541 -0.0383,-0.31021 -0.0646,-0.76803 -0.079,-1.37422 -0.007,-0.30903 -0.0146,-0.58613 -0.0225,-0.83122 -0.008,-0.25613 -0.0209,-0.48966 -0.0397,-0.70055 -0.0562,-0.63382 -0.21453,-1.06646 -0.47524,-1.29704 -0.26137,-0.23116 -0.678,-0.323 -1.25083,-0.27495 l 2.4e-4,-0.0328 c 0.64904,-0.29467 1.12861,-0.72333 1.44018,-1.2867 0.31176,-0.57442 0.47194,-1.25618 0.48051,-2.04689 0.0111,-1.02477 -0.24635,-1.72827 -0.77427,-2.10893 -0.53032,-0.39359 -1.28028,-0.48469 -2.25173,-0.27106 z m 2.3694,4.69201 0.005,-3.43177 1.10866,-0.24905 c 1.08061,-0.24275 1.61497,0.18573 1.60776,1.28104 -0.004,0.63964 -0.15693,1.1311 -0.4583,1.47569 -0.3015,0.33379 -0.73147,0.56601 -1.291,0.69679 z" />
      <path
         id="path1111"
         style="font-style:normal;font-variant:normal;font-weight:bold;font-stretch:condensed;font-size:13.2292px;line-height:1.25;font-family:'Helvetica Neue';-inkscape-font-specification:'Helvetica Neue Bold Condensed';white-space:pre;fill:#ffffff;stroke-width:1.26489"
         d="m 375.54095,-122.74239 c 0.0291,-0.80602 0.0698,-1.48878 0.12197,-2.04938 0.0627,-0.56063 0.1538,-1.0244 0.27317,-1.39188 0.12984,-0.36832 0.29865,-0.64229 0.50648,-0.82224 0.21874,-0.19223 0.49849,-0.30991 0.83939,-0.35312 0.34096,-0.0432 0.61011,0.005 0.80751,0.14442 0.20856,0.12728 0.36092,0.36073 0.45706,0.70066 0.10697,0.33913 0.16835,0.78398 0.18404,1.33515 0.0264,0.55114 0.0278,1.22918 0.004,2.0352 -0.0238,0.80875 -0.0658,1.50444 -0.12603,2.08606 -0.0492,0.57031 -0.13884,1.0451 -0.26891,1.42379 -0.11908,0.36649 -0.2898,0.64898 -0.51212,0.84718 -0.21125,0.18553 -0.49062,0.29996 -0.838,0.34318 -0.34731,0.0432 -0.62672,-0.002 -0.83817,-0.13449 -0.20004,-0.14553 -0.35336,-0.3875 -0.45996,-0.72561 -0.0952,-0.35031 -0.1542,-0.80619 -0.17702,-1.36704 -0.0116,-0.57216 -0.003,-1.26313 0.0265,-2.07188 z m -2.31933,0.29136 c -0.0377,0.9213 -0.0347,1.76236 0.009,2.52235 0.055,0.76111 0.20655,1.40493 0.45496,1.93053 0.25988,0.52556 0.64496,0.90559 1.15534,1.13938 0.51116,0.23414 1.20799,0.29667 2.09021,0.1873 0.88265,-0.10943 1.5902,-0.34619 2.12197,-0.71 0.53126,-0.36346 0.94028,-0.84278 1.22699,-1.43724 0.29694,-0.59452 0.49285,-1.28291 0.58797,-2.06431 0.10565,-0.78027 0.1697,-1.63147 0.19235,-2.55278 0.0223,-0.90656 -2.4e-4,-1.73193 -0.0673,-2.47687 -0.0559,-0.75494 -0.21592,-1.3843 -0.4797,-1.88899 -0.25247,-0.5048 -0.63004,-0.87229 -1.13258,-1.10313 -0.50144,-0.24142 -1.18202,-0.30726 -2.04202,-0.19784 -0.8596,0.10938 -1.54934,0.34945 -2.06991,0.72053 -0.52069,0.36052 -0.92976,0.8273 -1.22733,1.401 -0.28755,0.57361 -0.48962,1.24755 -0.60603,2.02277 -0.10563,0.76521 -0.17708,1.60072 -0.21422,2.5073 z" />
      <path
         id="path1113"
         style="font-style:normal;font-variant:normal;font-weight:bold;font-stretch:condensed;font-size:13.2292px;line-height:1.25;font-family:'Helvetica Neue';-inkscape-font-specification:'Helvetica Neue Bold Condensed';white-space:pre;fill:#ffffff;stroke-width:1.24387"
         d="m 384.60966,-130.35093 -2.27235,0.46392 v 7.98377 c 0,0.76952 0.0983,1.38189 0.29528,1.83816 0.1976,0.45767 0.46377,0.8011 0.79935,1.03014 0.33733,0.21942 0.72426,0.3478 1.16166,0.38448 0.44034,0.0369 0.89995,0.0284 1.3792,-0.0259 0.48276,-0.0548 0.95244,-0.15784 1.40871,-0.30974 0.45943,-0.15294 0.8711,-0.39609 1.23411,-0.72998 0.36498,-0.33569 0.65725,-0.76541 0.87584,-1.28905 0.21931,-0.53665 0.32923,-1.19023 0.32923,-1.95946 v -8.4502 l -2.45593,0.50141 v 8.29712 c 0,0.29989 -0.0223,0.58065 -0.0669,0.84213 -0.0335,0.24871 -0.10588,0.4747 -0.21712,0.67782 -0.1,0.19027 -0.23858,0.35202 -0.41557,0.48521 -0.17651,0.12181 -0.40748,0.20064 -0.69232,0.23662 -0.27273,0.0344 -0.50096,0.014 -0.68513,-0.0611 -0.17286,-0.0872 -0.31298,-0.21099 -0.42056,-0.37145 -0.0967,-0.17251 -0.1664,-0.37556 -0.20927,-0.60921 -0.0322,-0.24587 -0.0482,-0.51559 -0.0482,-0.80928 z" />
      <path
         id="path1115"
         style="font-style:normal;font-variant:normal;font-weight:bold;font-stretch:condensed;font-size:13.2292px;line-height:1.25;font-family:'Helvetica Neue';-inkscape-font-specification:'Helvetica Neue Bold Condensed';white-space:pre;fill:#ffffff;stroke-width:1.2561"
         d="m 398.10714,-132.5911 -6.7161,0.96132 v 11.9847 l 6.8787,-1.39202 v -1.91333 l -4.40231,0.84779 v -3.18334 l 3.9953,-0.70577 v -1.91731 l -3.9953,0.66666 v -2.78541 l 4.23971,-0.64836 z" />
      <path
         id="path1117"
         style="font-style:normal;font-variant:normal;font-weight:bold;font-stretch:condensed;font-size:13.2292px;line-height:1.25;font-family:'Helvetica Neue';-inkscape-font-specification:'Helvetica Neue Bold Condensed';white-space:pre;fill:#ffffff;stroke-width:1.24587"
         d="m 402.09848,-133.11645 -2.71193,0.26301 v 11.81492 l 2.16733,-0.2378 -0.007,-8.2647 0.0327,-0.003 2.88068,7.94908 2.6619,-0.29207 -0.034,-11.71307 -2.13195,0.20675 0.0168,8.0301 -0.0325,0.003 z" />
      <path
         id="path1119"
         style="font-style:normal;font-variant:normal;font-weight:bold;font-stretch:condensed;font-size:13.2292px;line-height:1.25;font-family:'Helvetica Neue';-inkscape-font-specification:'Helvetica Neue Bold Condensed';white-space:pre;fill:#ffffff;stroke-width:1.26489"
         d="m 415.49678,-134.40256 h -2.81704 v 11.78097 h 2.24006 v -8.24997 h 0.034 l 2.98674,8.24997 h 2.7831 v -11.78097 h -2.24007 v 8.06848 h -0.034 z" />
      <path
         id="path1121"
         style="font-style:normal;font-variant:normal;font-weight:bold;font-stretch:condensed;font-size:13.2292px;line-height:1.25;font-family:'Helvetica Neue';-inkscape-font-specification:'Helvetica Neue Bold Condensed';white-space:pre;fill:#ffffff;stroke-width:1.26489"
         d="m 424.42139,-128.65612 q 0,-1.18799 0.0509,-2.013 0.0678,-0.825 0.23758,-1.35299 0.18667,-0.528 0.50911,-0.759 0.33939,-0.24749 0.88245,-0.24749 0.54303,0 0.86547,0.24749 0.3394,0.231 0.5091,0.759 0.18667,0.52799 0.23758,1.35299 0.0679,0.82501 0.0679,2.013 0,1.188 -0.0679,2.0295 -0.0509,0.82499 -0.23758,1.353 -0.1697,0.5115 -0.5091,0.759 -0.32244,0.231 -0.86547,0.231 -0.54306,0 -0.88245,-0.231 -0.32244,-0.2475 -0.50911,-0.759 -0.1697,-0.52801 -0.23758,-1.353 -0.0509,-0.8415 -0.0509,-2.0295 z m -2.4437,0 q 0,1.35301 0.11878,2.47501 0.13576,1.12199 0.56001,1.93048 0.44123,0.8085 1.25579,1.2375 0.81456,0.429 2.18915,0.429 1.37457,0 2.18913,-0.429 0.81457,-0.429 1.23882,-1.2375 0.44122,-0.80849 0.56002,-1.93048 0.13576,-1.122 0.13576,-2.47501 0,-1.33649 -0.13576,-2.45849 -0.11878,-1.13849 -0.56002,-1.947 -0.42425,-0.8085 -1.23882,-1.254 -0.81456,-0.462 -2.18913,-0.462 -1.37459,0 -2.18915,0.462 -0.81456,0.4455 -1.25579,1.254 -0.42425,0.80851 -0.56001,1.947 -0.11878,1.122 -0.11878,2.45849 z" />
      <path
         id="path1123"
         style="font-style:normal;font-variant:normal;font-weight:bold;font-stretch:condensed;font-size:13.2292px;line-height:1.25;font-family:'Helvetica Neue';-inkscape-font-specification:'Helvetica Neue Bold Condensed';white-space:pre;fill:#ffffff;stroke-width:1.26489"
         d="m 431.58247,-134.49859 v 11.78098 l 2.41602,0.0565 v -5.00688 l 1.30144,0.0176 c 0.50887,0.007 0.87135,0.14496 1.08681,0.41443 0.21566,0.26972 0.33491,0.63819 0.35763,1.10527 l 0.0682,2.28508 c 0.0113,0.23365 0.0341,0.46199 0.0682,0.68504 0.0341,0.21197 0.1137,0.40278 0.23882,0.57249 l 2.67643,0.0626 v -0.10061 c -0.22985,-0.12824 -0.37915,-0.36067 -0.44803,-0.69731 -0.0459,-0.33605 -0.0803,-0.82258 -0.10331,-1.45958 -0.0114,-0.32406 -0.0229,-0.61462 -0.0345,-0.87165 -0.0114,-0.26818 -0.0287,-0.51412 -0.0516,-0.7378 -0.0688,-0.67093 -0.24649,-1.15897 -0.53276,-1.46401 -0.28598,-0.3047 -0.73716,-0.50522 -1.35269,-0.60161 v -0.0334 c 0.69542,-0.13661 1.20966,-0.45406 1.5416,-0.95255 0.33238,-0.51031 0.49872,-1.16779 0.49872,-1.97195 0,-1.03869 -0.28674,-1.81004 -0.85927,-2.31323 -0.57124,-0.51318 -1.36883,-0.76935 -2.39065,-0.76935 z m 2.41602,5.17267 v -3.41529 l 1.14898,0.004 c 1.13152,0.004 1.69917,0.55608 1.69917,1.65645 0,0.64467 -0.15907,1.10453 -0.47692,1.37932 -0.31744,0.26334 -0.77025,0.39188 -1.35769,0.38588 z" />
      <path
         id="path1125"
         style="font-style:normal;font-variant:normal;font-weight:bold;font-stretch:condensed;font-size:13.2292px;line-height:1.25;font-family:'Helvetica Neue';-inkscape-font-specification:'Helvetica Neue Bold Condensed';white-space:pre;fill:#ffffff;stroke-width:1.25354"
         d="m 440.88757,-134.21051 v 11.68495 l 2.16539,0.21646 -0.008,-9.37605 0.0329,0.003 2.1085,9.58662 1.86654,0.1866 2.1026,-9.2743 0.0336,0.003 0.0301,9.48809 2.23515,0.22343 -0.048,-11.92502 -3.58091,-0.27786 -1.69777,8.18823 -0.0333,-0.003 -1.70319,-8.45163 z" />
      <path
         id="path1127"
         style="font-style:normal;font-variant:normal;font-weight:bold;font-stretch:condensed;font-size:13.2292px;line-height:1.25;font-family:'Helvetica Neue';-inkscape-font-specification:'Helvetica Neue Bold Condensed';white-space:pre;fill:#ffffff;stroke-width:1.26489"
         d="m 458.17408,-125.33167 -1.10784,-5.47408 -0.0332,-0.003 -1.18919,5.2462 z m 0.36859,-7.40907 3.11746,12.33353 -2.54234,-0.2759 -0.53856,-2.6171 -3.16784,-0.3269 -0.5713,2.47977 -2.47129,-0.26818 3.23029,-11.57115 z" />
      <path
         id="path1129"
         style="font-style:normal;font-variant:normal;font-weight:bold;font-stretch:condensed;font-size:13.2292px;line-height:1.25;font-family:'Helvetica Neue';-inkscape-font-specification:'Helvetica Neue Bold Condensed';white-space:pre;fill:#ffffff;stroke-width:1.26489"
         d="m 464.97055,-131.68887 -2.72464,-0.34567 0.0384,11.60333 2.13859,0.37487 -0.0108,-8.16938 0.033,0.005 2.92292,8.68094 2.7777,0.48691 0.048,-11.97304 -2.26583,-0.28746 -0.0157,8.15601 -0.0338,-0.005 z" />
      <path
         id="path1131"
         style="font-style:normal;font-variant:normal;font-weight:bold;font-stretch:condensed;font-size:13.2292px;line-height:1.25;font-family:'Helvetica Neue';-inkscape-font-specification:'Helvetica Neue Bold Condensed';white-space:pre;fill:#ffffff;stroke-width:1.26489"
         d="m 474.33346,-119.7978 0.0337,-8.43852 1.01446,0.21239 c 0.45522,0.0953 0.81602,0.26073 1.08217,0.49631 0.27748,0.2268 0.48236,0.52843 0.6146,0.90484 0.14345,0.36763 0.23644,0.81471 0.27895,1.34119 0.0425,0.52653 0.0624,1.13267 0.0597,1.81839 -0.003,0.82064 -0.0338,1.50039 -0.0917,2.03921 -0.0467,0.54116 -0.14879,0.96343 -0.30605,1.26677 -0.14609,0.30567 -0.34739,0.50365 -0.60386,0.59397 -0.25633,0.0902 -0.59556,0.0894 -1.01751,-0.003 z m -2.34556,-10.71556 -0.048,11.97303 3.76727,0.82787 c 0.80031,0.17586 1.46314,0.19778 1.98796,0.0654 0.52537,-0.13248 0.94567,-0.4178 1.26061,-0.85603 0.31515,-0.43851 0.5359,-1.03314 0.66211,-1.78386 0.13749,-0.75971 0.20836,-1.6693 0.21257,-2.72859 0.003,-0.89024 -0.0436,-1.70664 -0.14154,-2.44907 -0.0979,-0.74228 -0.29128,-1.39732 -0.58009,-1.96501 -0.27742,-0.57627 -0.67243,-1.05285 -1.18477,-1.42969 -0.51177,-0.38768 -1.18494,-0.66801 -2.01888,-0.8411 z" />
      <path
         id="path1133"
         style="font-style:normal;font-variant:normal;font-weight:bold;font-stretch:condensed;font-size:13.2292px;line-height:1.25;font-family:'Helvetica Neue';-inkscape-font-specification:'Helvetica Neue Bold Condensed';white-space:pre;fill:#ffffff;stroke-width:1.26489"
         d="m 481.34833,-116.42768 2.39568,0.67221 0.0481,-11.87701 -2.44369,-0.57617 z" />
      <path
         id="path1135"
         style="font-style:normal;font-variant:normal;font-weight:bold;font-stretch:condensed;font-size:13.2292px;line-height:1.25;font-family:'Helvetica Neue';-inkscape-font-specification:'Helvetica Neue Bold Condensed';white-space:pre;fill:#ffffff;stroke-width:1.26489"
         d="m 491.9079,-125.42269 -6.44731,-1.9217 -0.096,11.92501 6.70069,1.68052 v -1.94586 l -4.29011,-1.10985 0.0165,-3.19716 3.87667,1.05245 9.3e-4,-1.92504 -3.86752,-1.08015 0.0142,-2.76431 4.09152,1.18793 z" />
    </g>
    <g
       id="g2015">
      <path
         id="path1435"
         style="fill:#f0e15e;fill-opacity:1;stroke-width:0.22153"
         d="m 422.39668,-154.91949 c -4.44636,0.0204 -8.44617,0.11683 -10.45177,0.29567 -15.51534,1.38341 -29.24357,4.22347 -42.53388,8.7996 -1.19072,0.46062 -1.36457,0.5057 -3.05695,1.11177 0.0472,0.0473 2.02504,-0.40094 4.39559,-0.99571 12.48726,-3.13305 27.15107,-5.20894 44.02114,-6.23261 3.4595,-0.20992 7.72597,-0.26513 12.1638,-0.18118 4.4378,-0.084 8.70376,-0.0287 12.16325,0.18118 16.87008,1.02367 31.53386,3.09956 44.02112,6.23261 2.37055,0.59477 4.34889,1.04297 4.39613,0.99571 -1.69238,-0.60607 -1.86624,-0.65115 -3.05696,-1.11177 -13.2903,-4.57613 -27.01854,-7.41619 -42.53387,-8.7996 -2.67412,-0.23845 -8.89362,-0.33007 -14.98967,-0.29094 -1.52403,-0.01 -3.05583,-0.0115 -4.53793,-0.005 z" />
      <path
         id="path1371"
         style="fill:#f0e15e;fill-opacity:1;stroke-width:0.22153"
         d="m 362.14069,-54.012868 c -0.0205,-3.36e-4 -0.0414,0.0028 -0.062,0.0095 -0.6934,0.222998 0.21715,3.402969 0.72891,5.424393 3.20011,12.639865 8.69091,23.308957 16.20282,33.675978 6.98541,9.6404354 18.87392,21.1826591 31.16202,30.254023 5.74301,4.239616 15.95778,10.396623 16.76212,10.396623 0.80431,0 11.01857,-6.157007 16.76155,-10.396623 12.2881,-9.0713639 24.17715,-20.6135876 31.16256,-30.254023 7.51191,-10.367021 13.0022,-21.036113 16.20228,-33.675978 0.51179,-2.021424 1.42231,-5.201395 0.72894,-5.424393 -0.6586,-0.211812 -1.28058,3.215124 -2.0434,5.288376 -3.77345,10.255798 -6.78001,17.506652 -11.9905,25.172037 C 472.37804,-15.3744 466.58633,-8.7424222 457.4312,-0.26937569 447.86258,8.488791 439.23421,14.163648 426.93461,21.317341 414.63497,14.163648 406.00661,8.488791 396.43794,-0.26942169 387.2828,-8.7424682 381.4911,-15.374446 376.11315,-23.543001 c -5.21049,-7.665385 -8.21759,-14.916239 -11.99101,-25.172037 -0.73897,-2.008462 -1.34549,-5.287432 -1.98145,-5.29783 z" />
    </g>
    <g
       id="g2011">
      <path
         sodipodi:nodetypes="ccsc"
         id="path1907"
         d="m 469.50406,-144.84311 c -9.00804,-1.95352 -18.41952,-3.519 -28.71935,-4.0649 3.72391,0.6606 9.03802,1.29901 13.46006,1.92427 5.13853,0.72657 10.20605,1.43539 15.25929,2.14063 z"
         style="fill:url(#linearGradient1961);stroke:none;stroke-width:0.0247428;stroke-linecap:butt;stroke-linejoin:miter;stroke-miterlimit:4;stroke-dasharray:none;stroke-opacity:1;fill-opacity:1" />
      <path
         sodipodi:nodetypes="cccsc"
         id="path1909"
         d="m 385.39421,-152.71883 c 3.79525,-1.12415 8.44348,-2.11544 13.28859,-2.90345 4.35497,-0.6989 9.1607,-1.14204 12.92391,-1.22057 -4.27506,0.53002 -8.53596,1.14504 -12.78691,1.81967 -4.4846,0.7117 -8.95814,1.48976 -13.42559,2.30435 z"
         style="fill:url(#linearGradient1951);stroke:none;stroke-width:0.0247428;stroke-linecap:butt;stroke-linejoin:miter;stroke-miterlimit:4;stroke-dasharray:none;stroke-opacity:1;fill-opacity:1" />
      <path
         sodipodi:nodetypes="cscsc"
         id="path1911"
         d="m 370.17926,-37.476891 c 1.29199,3.366856 2.82409,6.502828 4.54114,9.460966 3.69084,6.358559 8.2362,11.895458 13.08812,17.13758 -3.49735,-4.281962 -6.81178,-8.680056 -9.85689,-13.252464 -2.85039,-4.280053 -5.46481,-8.712841 -7.77237,-13.346082 z"
         style="fill:url(#linearGradient1971);stroke:none;stroke-width:0.0247428;stroke-linecap:butt;stroke-linejoin:miter;stroke-miterlimit:4;stroke-dasharray:none;stroke-opacity:1;fill-opacity:1" />
      <path
         sodipodi:nodetypes="cscsc"
         id="path1913"
         d="m 488.63557,-38.095461 c -2.34693,5.343417 -4.86336,10.222327 -7.57766,14.70896 -3.18133,5.258623 -6.63447,9.978359 -10.40508,14.2755013 4.0519,-3.3781853 7.74087,-8.9864103 10.88824,-14.0492913 2.85485,-4.592317 5.26412,-9.535697 7.0945,-14.93517 z"
         style="fill:url(#linearGradient1991);stroke:none;stroke-width:0.0247428;stroke-linecap:butt;stroke-linejoin:miter;stroke-miterlimit:4;stroke-dasharray:none;stroke-opacity:1;fill-opacity:1" />
      <path
         sodipodi:nodetypes="cscsc"
         id="path1915"
         d="m 501.05412,-90.671146 c 0.11554,-5.772971 -0.25367,-10.005114 -0.44741,-14.717694 -0.14011,-3.40787 -0.31554,-6.66265 -0.55236,-9.65148 0.80134,3.15367 1.13161,6.36669 1.23548,9.60914 0.15654,4.88724 0.32893,9.86345 -0.23571,14.760034 z"
         style="fill:url(#linearGradient2001);stroke:none;stroke-width:0.0247428;stroke-linecap:butt;stroke-linejoin:miter;stroke-miterlimit:4;stroke-dasharray:none;stroke-opacity:1;fill-opacity:1" />
      <path
         sodipodi:nodetypes="cscsc"
         id="path1917"
         d="m 363.39946,-34.622016 c -3.32227,-7.778698 -5.86751,-16.413028 -7.6239,-24.258042 -1.47447,-6.585791 -2.39301,-12.375476 -2.74862,-18.981639 0.81985,6.812726 2.08018,13.216433 3.58213,19.395773 1.99291,8.1992 3.03655,13.004097 6.79039,23.843908 z"
         style="fill:url(#linearGradient1981);stroke:none;stroke-width:0.0247428;stroke-linecap:butt;stroke-linejoin:miter;stroke-miterlimit:4;stroke-dasharray:none;stroke-opacity:1;fill-opacity:1" />
    </g>
  </g>
</svg>
