<?xml version="1.0" encoding="UTF-8"?>
<svg id="Calque_2" data-name="Calque 2" xmlns="http://www.w3.org/2000/svg" viewBox="0 0 1398.53 1471.53">
  <defs>
    <style>
      .cls-1 {
        fill: #4b193d;
      }

      .cls-1, .cls-2, .cls-3, .cls-4 {
        stroke-width: 0px;
      }

      .cls-2 {
        fill: #7c7e82;
      }

      .cls-3 {
        fill: #59104f;
      }

      .cls-4 {
        fill: #fff;
      }
    </style>
  </defs>
  <g id="svg833">
    <g>
      <path id="path2111" class="cls-4" d="M681.08,1471.53c-4.44,0-8.83-.99-12.85-2.88l-16.42-7.74c-103.48-48.76-198.74-112.59-283.13-189.72-82.89-75.77-153.93-163.1-211.16-259.57-57.5-96.93-100-201.34-126.31-310.32C4.18,589.44-5.35,474.43,2.85,359.44l2.3-32.13c.55-7.65,4.07-14.79,9.83-19.91l24.18-21.54c89.81-79.98,191.55-145.16,302.4-193.7C451.74,43.91,568.27,13.24,687.92,1.01l8.26-.85c1.03-.1,2.05-.16,3.09-.16s2.05.06,3.08.16l8.28.85c119.64,12.23,236.17,42.9,346.34,91.15,110.85,48.54,212.6,113.71,302.4,193.7l24.18,21.54c5.76,5.12,9.28,12.26,9.83,19.91l2.3,32.13c8.2,114.96-1.34,229.97-28.36,341.86-26.32,108.99-68.82,213.41-126.32,310.32-57.22,96.47-128.25,183.8-211.13,259.56-84.39,77.12-179.66,140.96-283.15,189.73l-16.41,7.74c-4,1.89-8.4,2.88-12.85,2.88h-36.39Z"/>
      <path id="path2115" class="cls-1" d="M680.71,1456.12l-16.75-7.9c-102.79-48.44-197.42-111.84-281.25-188.46-82.35-75.26-152.93-162.04-209.78-257.88-57.13-96.29-99.34-200.02-125.5-308.29-26.84-111.1-36.31-225.35-28.17-339.57l2.35-32.78,24.66-21.96c89.22-79.47,190.3-144.22,300.43-192.44,109.47-47.94,225.25-78.41,344.11-90.56l8.44-.87,8.45.87c118.86,12.15,234.64,42.62,344.11,90.56,110.13,48.22,211.21,112.97,300.43,192.44l24.66,21.96,2.35,32.78c8.15,114.2-1.33,228.45-28.16,339.57-26.16,108.28-68.37,212-125.5,308.29-56.86,95.84-127.44,182.61-209.79,257.88-83.83,76.63-178.46,140.04-281.25,188.46l-16.75,7.9h-37.11Z"/>
      <path id="path2119" class="cls-2" d="M682.22,1432.11c-4.17,0-8.27-.93-12.04-2.72l-15.38-7.33c-96.96-46.14-186.23-106.56-265.31-179.56-77.67-71.7-144.24-154.36-197.86-245.66-53.88-91.73-93.7-190.55-118.36-293.7-25.33-105.86-34.26-214.71-26.57-323.53l2.15-30.4c.51-7.24,3.81-13.99,9.21-18.85l22.66-20.39c84.15-75.7,179.49-137.38,283.36-183.32,103.25-45.67,212.44-74.69,324.56-86.28l7.73-.8c.96-.1,1.93-.16,2.9-.16s1.92.06,2.89.16l7.76.8c112.11,11.59,221.3,40.61,324.54,86.28,103.87,45.93,199.21,107.62,283.36,183.32l22.66,20.39c5.4,4.86,8.7,11.61,9.21,18.85l2.15,30.4c7.69,108.8-1.25,217.65-26.56,323.53-24.67,103.17-64.5,201.98-118.38,293.7-53.61,91.3-120.18,173.95-197.85,245.66-79.08,72.99-168.34,133.4-265.32,179.56l-15.38,7.33c-3.76,1.79-7.87,2.72-12.04,2.72h-34.1Z"/>
      <path id="path2123" class="cls-3" d="M682.22,1404.09l-15.38-7.32c-94.42-44.94-181.34-103.77-258.35-174.86-75.64-69.83-140.48-150.34-192.71-239.25-52.47-89.34-91.25-185.57-115.28-286.03-24.65-103.07-33.35-209.07-25.87-315.04l2.15-30.4,22.65-20.39c81.95-73.72,174.81-133.79,275.97-178.53,100.56-44.48,206.92-72.74,316.1-84.02l7.75-.81,7.76.81c109.19,11.28,215.53,39.55,316.09,84.02,101.17,44.74,194.02,104.81,275.97,178.53l22.66,20.39,2.14,30.4c7.49,105.95-1.21,211.95-25.87,315.04-24.03,100.46-62.8,196.7-115.28,286.03-52.22,88.92-117.06,169.41-192.7,239.25-77.01,71.1-163.93,129.92-258.35,174.86l-15.38,7.32h-34.1Z"/>
      <path id="path2127" class="cls-1" d="M368.82,1015.76c-32.76,17.8-64.71,35.95-95.63,54.28,24.15,33.27,50.22,65.07,78.1,95.26,14.3-8.11,28.77-16.15,43.38-24.14l-25.85-125.4Z"/>
      <path id="path2131" class="cls-1" d="M508.68,1107.05c-47.86,24.58-94.82,50.24-140.09,76.57,13.47,13.89,27.33,27.42,41.58,40.58,21.07,19.44,42.9,37.93,65.4,55.52,20.07-11.11,40.3-22.06,60.62-32.81l-27.51-139.86Z"/>
      <path id="path2135" class="cls-1" d="M837.44,265.3c101.64-16.93,211.31-29.43,327.47-36.79-45.09-28.93-92.44-54.43-141.8-76.25-27.82-12.31-56.1-23.32-84.75-33.12-36.82,2.73-72.68,6.09-107.56,10.11l6.63,136.06Z"/>
      <path id="path2139" class="cls-1" d="M1081.87,383.53c77.24-8.74,157.71-14.79,240.91-17.66l-1.04-14.69-22.66-20.38c-36.59-32.91-75.36-63.09-116.06-90.41-40.79,2.38-80.82,5.4-119.98,9.01l18.82,134.13Z"/>
      <path id="path2143" class="cls-1" d="M924.3,1103.15c-127.45,48.07-284.01,117.91-426.16,192.71,53.86,39.32,111.41,74.13,172.8,102.87,97.04-84.94,181.99-184.75,253.36-295.58"/>
      <path id="path2247" class="cls-1" d="M907.3,108.99c-65.18-20.07-132.18-33.71-200.27-40.75l-7.76-.8-7.75.8c-12.88,1.33-25.71,2.94-38.5,4.74-4.34.61-8.67,1.37-13,2.03-8.42,1.29-16.84,2.61-25.23,4.11-5.17.93-10.31,1.96-15.46,2.96-7.52,1.47-15.03,2.96-22.51,4.59-5.43,1.18-10.86,2.44-16.27,3.7-3.8.89-7.63,1.67-11.42,2.6l-.49.31c-59.18,14.59-117.12,34.16-173.22,58.97-51.5,22.78-100.85,49.55-147.71,80.07v34.57h45.2c26.68-17.15,54.27-32.87,82.57-47.37,4.79-2.46,9.55-4.97,14.39-7.35,10.26-5.05,20.6-9.94,31.06-14.63,0,0,.02,0,.04,0,14.55-6.52,29.28-12.55,44.08-18.32,3.63-1.42,7.28-2.77,10.92-4.14,12.45-4.67,24.97-9.12,37.58-13.28,3.62-1.19,7.21-2.47,10.84-3.62,2.4-.78,4.78-1.51,7.17-2.26,59.82-18.45,121.26-31.1,183.71-37.63l4-.42h0v-.11c64.09-6.71,131.53-8.58,208.04-8.77"/>
      <path id="path2251" class="cls-1" d="M1324.08,384.49c-67.8,4.61-132.3,10.47-194.02,17.67-329.01,38.33-579.56,114.11-835.84,235.08-26.04-133.41-33.45-278.28-18.04-434.58-63.2,36.4-122.37,79.25-176.73,128.14l-22.66,20.39-2.15,30.4c-7.49,105.97,1.22,211.97,25.88,315.04,2.77,11.58,5.75,23.11,8.92,34.58,24.25,87.97,59.93,172.41,106.35,251.44,3.35,5.7,6.75,11.36,10.21,17,.72,1.18,1.48,2.35,2.21,3.55,2.77,4.47,5.55,8.93,8.38,13.37.67,1.04,1.35,2.06,2.02,3.1,2.96,4.59,5.94,9.16,8.96,13.7.49.75,1.02,1.49,1.51,2.24,3.24,4.83,6.51,9.65,9.84,14.43.29.43.6.85.9,1.28.21.3.43.6.64.9,201.34-130.22,552.38-283.65,825.54-333.49-67.32,261.62-205.47,479.02-379.23,646.59-11.78,11.36-23.71,22.5-35.81,33.41l11.27,5.37h34.1l15.38-7.33c2.22-1.05,4.41-2.15,6.62-3.23,91.86-44.51,176.53-102.2,251.73-171.62,75.64-69.84,140.48-150.34,192.71-239.26,52.47-89.33,91.25-185.56,115.27-286.02.73-3.04,1.39-6.09,2.1-9.14,22.8-99.27,30.86-201.14,23.95-303"/>
      <path id="path2255" class="cls-4" d="M746.86,1361.15c176.64-178.04,302.07-397.33,363.52-636.16l9.8-38.14-38.73,7.08c-273.76,49.96-616.89,201.27-813.93,323.96-2.86-4.32-9.77-14.98-9.77-14.98-2.73-4.26-5.44-8.62-8.15-12.97l-2.16-3.49c-3.36-5.47-6.68-10.98-9.94-16.54-45.22-76.99-80.15-159.55-103.8-245.39-3.09-11.2-6-22.43-8.7-33.74-24.06-100.59-32.56-204.02-25.24-307.43l1.43-20.25,15.1-13.59c40.65-36.56,84.44-69.93,130.64-99.6-9.36,135.72-1.8,267.41,22.55,392.16l6.2,31.78,29.28-13.83c268.9-126.92,516.52-196.56,828.01-232.84,53.04-6.18,109.23-11.47,167.37-15.75,3.9,90.89-4.41,181.73-24.78,270.42l-2.03,8.92c-23.43,98.03-61.29,191.95-112.5,279.13-50.94,86.75-114.22,165.33-188.06,233.52-67.94,62.7-143.91,115.69-226.1,157.74"/>
      <g id="g3270">
        <path id="path2147" class="cls-4" d="M308.59,433.5c-3.12-47.68-2.91-95.14-1.38-142.86,15.28-10.47,24.91-16.37,40.57-24.79,5.55-2.99,12.43-1.71,16.53,3.07l.08.1s.06.06.08.1c4.59,5.36,7.17,12.14,7.36,19.21.6,24.03,1.54,47.94,2.86,71.94.55,10.12-1.3,20.2-5.52,29.41-.03.06-.06.12-.07.17-.03.06-.06.11-.08.16-4.08,8.92-11.05,16.23-19.79,20.7-14.63,7.5-24.76,13.21-40.64,22.79M345.91,372.32c-1.27-22.53-1.72-36.93-1.93-60.7-.03-3.94-4.28-6.4-7.71-4.47-1.65.93-3.35,1.91-5.5,3.14-.06,31.86.32,46.82,1.93,76.52,2.95-1.62,5.09-2.79,7.36-4,3.82-2.05,6.09-6.16,5.85-10.49"/>
        <path id="path2151" class="cls-4" d="M389.63,390.38l-6.03-143.71s48-19.99,71.08-28.55c.36,14.48.56,21.48,1.04,35.18-16.57,6.11-24.66,9.27-40.3,15.79.19,6.85.3,10.24.55,16.93,12.55-5.21,18.99-7.76,32.13-12.72.54,13.38.84,19.91,1.55,32.8-13.15,4.99-19.6,7.55-32.19,12.79.58,10.78.9,16.08,1.63,26.65,15.76-6.58,23.86-9.78,40.43-15.99.85,12.64,1.33,18.88,2.38,31.37-23.1,8.78-72.26,29.45-72.26,29.45"/>
        <path id="path2155" class="cls-4" d="M492.97,349.56c-3.67-47.45-5.59-94.93-7.14-142.47,22.93-7.77,36.63-12.09,57.52-18.06,7.94-2.27,16.48-.13,22.39,5.63.04.04.07.07.12.11.04.05.07.08.11.12,6.07,5.91,9.64,13.93,9.98,22.4.06,1.57.12,3.1.17,4.62.41,10.24-2.35,20.34-7.93,28.95l-.1.16s.07.06.12.1c6.04,5.2,9.67,12.67,10.03,20.64.82,17.68,1.43,29.48,2.68,49.63-14.49,4.21-21.66,6.38-35.84,10.83-.89-12.97-1.38-20.81-1.99-31.73-.27-4.94-5.13-8.32-9.86-6.84-2.52.79-5.07,1.59-8.4,2.65.93,16.81,1.45,25.04,2.65,41.56-13.99,4.57-20.9,6.92-34.51,11.72M540.67,251.36c-.25-5.67-.44-10.37-.66-16.01-.2-4.95-5.02-8.39-9.77-6.95-2.52.76-5.08,1.55-8.41,2.57.51,13.65.79,20.28,1.38,33.3,4.32-1.35,7.32-2.27,10.64-3.28,4.21-1.28,7.01-5.24,6.82-9.63"/>
        <path id="path2159" class="cls-4" d="M627.47,308.46c-7.43,1.98-15.38.35-21.41-4.43-.04-.03-.07-.06-.11-.09-.05-.03-.08-.06-.12-.09-6.1-4.81-9.81-12.03-10.18-19.8-1.05-22.67-2.03-45.34-2.96-68.02-.44-10.67,2.35-21.2,8-30.27.04-.06.06-.11.1-.16s.07-.12.11-.17c5.63-9.03,14.59-15.49,24.94-17.93,8.92-2.11,16.64-3.85,25.89-5.85,8.54-1.84,17.44.71,23.7,6.81.05.04.08.08.12.12.05.04.08.07.12.11,6.34,6.18,10.1,14.54,10.49,23.38.98,21.95,1.92,43.91,2.81,65.87.4,9.7-2.54,19.25-8.31,27.07-.04.06-.07.1-.11.15-.04.06-.07.1-.1.15-5.75,7.79-14.06,13.3-23.46,15.61-10.43,2.56-18.91,4.72-29.52,7.54M651.03,261.88c-.82-19.55-1.34-33.01-2.24-54.45-.21-5.18-5.08-8.9-10.13-7.73-.06,0-.11.03-.16.04-5.13,1.18-8.7,5.88-8.48,11.15.91,22.19,1.43,35.85,2.31,56.01.21,4.83,4.79,8.27,9.48,7.11.06,0,.12-.03.17-.04,5.51-1.36,9.29-6.43,9.05-12.1"/>
        <path id="path2163" class="cls-4" d="M738.75,282.4c-7.73,1.61-15.8-.28-21.98-5.19-.05-.04-.08-.06-.12-.1-.05-.03-.08-.06-.12-.09-6.22-4.93-9.98-12.32-10.3-20.26-.9-22-1.86-43.99-2.89-65.98-.49-10.28,2.29-20.45,7.94-29.06.04-.06.07-.1.1-.16.04-.06.07-.11.11-.16,5.6-8.53,14.49-14.36,24.54-16.1,8.95-1.54,16.46-1.99,25.36-3.34,8.85-1.36,17.84,1.54,24.2,7.81l.64-.56.12.12c6.51,6.45,9.83,15.44,10.49,24.42.4,5.48,1.41,10.46,1.89,17.57-15.03,2.25-22.58,3.45-37.71,6.01-.25-4.49-.43-7.81-.63-11.25-.32-5.45-5.31-9.43-10.69-8.51-.06,0-.11.02-.17.03-4.88.82-8.37,5.21-8.1,10.16,1.17,21.31,1.75,34.47,2.56,53.35.23,5.47,5.26,9.48,10.65,8.48.06,0,.12-.03.17-.04,4.99-.93,8.54-5.42,8.31-10.49-.16-3.32-.3-6.51-.51-10.97,15.22-2.71,22.83-4,38-6.4.35,5.99.59,10.44.82,14.85.49,9.24-2.45,18.33-8.24,25.54-.04.04-.07.08-.11.13l-.11.14c-5.82,7.23-14.02,12.16-23.14,13.89-11,2.08-19.87,3.85-31.08,6.18"/>
        <path id="path2167" class="cls-4" d="M328.57,596.36l-20.12-141.92s42.77-23.3,63.17-33.22c1.26,12.59,1.97,18.88,3.55,31.6-14.6,7.08-21.69,10.7-35.42,18.1.76,6.35,1.16,9.54,2.01,15.95,11.02-5.9,16.68-8.81,28.22-14.52,1.73,12.85,2.68,19.32,4.74,32.55-11.56,5.69-17.23,8.58-28.31,14.44,1.7,10.98,2.6,16.54,4.54,27.86,13.91-7.27,21.04-10.82,35.61-17.82,2.35,13.69,3.6,20.67,6.3,35.06-20.37,9.63-64.27,31.93-64.27,31.93"/>
        <path id="path2171" class="cls-4" d="M428.45,548.19c-6.51-37.26-12.67-74.51-17.28-112.06-9.21,4.08-13.75,6.14-22.68,10.33-1.58-12.72-2.28-19.01-3.56-31.59,25.62-12.08,52.02-23.16,78.51-33.17,1.18,12.52,1.82,18.77,3.25,31.46-9.8,3.8-14.65,5.74-24.22,9.66,4.43,37.62,10.35,74.98,16.59,112.34-12.42,5.13-18.55,7.74-30.61,13.05"/>
        <path id="path2175" class="cls-4" d="M512.35,514.2c-7.17-47.84-13.79-95.73-17.93-143.94,23.07-8.22,36.64-12.78,57.76-19.35,7.44-2.32,15.55-.82,21.7,3.98l.23.18c5.99,4.68,9.75,11.66,10.41,19.23,2.03,23.39,4.31,46.71,6.8,70.06,1.15,10.7-.67,21.51-5.3,31.22-.03.06-.06.12-.08.18-.03.06-.06.12-.08.17-4.52,9.5-12.7,16.77-22.68,20.12-17.76,5.97-30.37,10.5-50.83,18.14M556.14,451.74c-2.87-23.23-4.39-37.38-6.34-58.32-.45-4.87-5.31-8.04-9.94-6.51-2.49.83-5.01,1.68-8.31,2.79,2.81,29.42,4.49,44.32,8.74,76.76,3.4-1.19,5.96-2.07,8.52-2.96,4.91-1.69,7.97-6.6,7.33-11.75"/>
        <path id="path2179" class="cls-4" d="M610.89,479.92l-13.13-143.07s57.69-15.29,84.03-21.61c.59,12.02.9,18.04,1.6,30.32-18.73,4.65-28.02,7.07-46.4,12.1.42,6.19.63,9.32,1.1,15.62,14.64-4.05,22.03-6.02,36.91-9.86.82,12.53,1.26,18.89,2.27,32.04-14.77,3.91-22.1,5.92-36.62,10.04.95,11,1.47,16.62,2.6,28.2,18-5.2,27.11-7.72,45.54-12.6,1.2,13.85,1.86,20.99,3.35,35.93-25.59,6.88-81.27,22.88-81.27,22.88"/>
        <path id="path2183" class="cls-4" d="M726.36,448.13c-3.5-40.32-10.32-141.26-10.32-141.26,0,0,60.01-12.22,86.92-17.13.57,11.55.85,17.35,1.48,29.21-19.3,3.71-28.92,5.66-48.04,9.75.3,6.03.46,9.06.79,15.2,15.29-3.34,22.98-4.95,38.4-8.05.67,12.15,1.04,18.34,1.86,31.21-15.44,3.23-23.13,4.9-38.38,8.36,1.55,23.77,2.46,36.21,4.88,63.55-15.17,3.57-22.7,5.41-37.59,9.16"/>
        <path id="path2187" class="cls-4" d="M828.85,424.15l-8.92-137.75s60.06-9.55,86.84-13.2c.97,11.04,1.45,16.58,2.42,27.96-19.42,2.87-29.14,4.4-48.54,7.67.38,5.8.57,8.73.96,14.68,15.59-2.7,23.4-4,39.03-6.45.95,11.7,1.45,17.68,2.53,30.17-15.82,2.63-23.71,4-39.42,6.86.78,10.54,1.19,15.94,2.11,27.19,19.75-3.7,29.7-5.48,49.72-8.85,1.29,13.33,1.99,20.27,3.54,34.95-28.38,4.93-90.26,16.78-90.26,16.78"/>
        <path id="path2191" class="cls-4" d="M973.23,398.48c-9.63,1.5-19.43-1.35-26.76-7.77l-.14-.12-.14-.12c-7.26-6.38-11.85-15.26-12.83-24.87-3.2-31.55-5.83-63.16-9.35-94.68,15.23-2.16,22.82-3.18,37.92-5.06,4.24,29.39,7.51,59.43,11.18,88.91.57,4.61,4.82,7.85,9.42,7.18.67-.09,1.32-.18,1.97-.27,5.54-.8,9.38-5.9,8.68-11.45-3.61-28.7-5.49-58.44-10.2-86.98,15.02-1.74,37.8-3.96,37.8-3.96,0,0,9.38,61.47,14.15,91.61,1.51,9.54-.62,19.3-5.95,27.35l-.1.16-.1.16c-5.47,8.27-14.23,13.82-24.04,15.22-11.25,1.59-20.42,2.97-31.51,4.7"/>
      </g>
      <g id="g3285">
        <path id="path2195" class="cls-4" d="M442.51,1114.85c-5.54,3.08-12.35,2.88-17.73-.53-.03-.02-.06-.05-.1-.06-.04-.03-.07-.05-.11-.07-5.61-3.55-9.69-9.07-11.33-15.49-5.21-20.28-9.85-40.83-13.85-61.39-1.81-9.29-.92-18.89,2.4-27.75.02-.05.04-.11.06-.16.03-.05.05-.11.06-.16,3.34-8.9,9.75-16.3,18.09-20.9,6.82-3.76,12.76-6.97,20.08-10.88,5.68-3.02,12.61-2.52,17.81,1.3.04.03.06.05.1.07.04.03.07.05.1.08,5.42,3.99,9.03,9.94,10.06,16.57.95,6.19,1.81,11.43,3.13,19.25-11.27,5.92-16.86,8.9-27.93,14.9-.82-4.44-1.39-7.62-1.98-11-.73-4.2-5.4-6.44-9.13-4.4-.16.08-.32.17-.49.26-3.45,1.89-5.31,5.78-4.61,9.65,3.67,20.59,6.27,33.27,10.65,52.56.92,4.02,5.45,6.07,9.08,4.1.04-.03.08-.05.12-.07,3.56-1.94,5.41-5.99,4.55-9.95-.83-3.88-1.54-7.24-2.57-12.28,10.89-5.91,16.39-8.85,27.5-14.7,1.15,6.09,2.01,10.56,2.9,15.11,1.75,8.83,1.07,17.95-1.99,26.41-.02.05-.04.1-.06.16-.21.58-.4,1.12-.6,1.64-2.63,7.31-7.87,13.39-14.72,17.08-6.92,3.73-12.63,6.85-19.52,10.67"/>
        <path id="path2199" class="cls-4" d="M500.15,1083.98c-8.36-42.11-15.53-84.16-21.52-126.66,11.55-5.91,17.37-8.82,29.05-14.6,2.46,20.29,3.83,30.22,6.79,49.86,5.75-2.88,8.63-4.32,14.41-7.17-2.86-19.66-4.19-29.6-6.57-49.86,11.72-5.7,17.6-8.52,29.4-14.07,5.14,42.64,11.19,85.03,17.98,127.45-11.31,5.53-16.93,8.31-28.1,13.91-3.47-19.16-5.13-28.75-8.24-48.15-5.71,2.84-8.57,4.27-14.25,7.14,3.23,19.36,4.95,28.93,8.56,48.02-11.1,5.63-16.6,8.46-27.51,14.13"/>
        <path id="path2203" class="cls-4" d="M584.29,1041.83c-4.91-30.93-9.41-61.93-13.3-93.01-1.18-9.46.36-19.04,4.38-27.66l.07-.16.07-.16c4-8.58,10.96-15.44,19.6-19.34,7.27-3.28,13.52-6.06,21.16-9.41,6.06-2.66,13.11-1.74,18.31,2.39,5.39,4.28,8.81,10.53,9.56,17.35,3.49,32.2,7.39,64.36,11.44,96.5-11.42,5.22-17.14,7.86-28.56,13.2-2.14-15.5-3.2-23.25-5.23-38.79-5.79,2.68-8.7,4.02-14.49,6.73,2.11,15.54,3.21,23.28,5.44,38.77-11.41,5.39-17.11,8.11-28.45,13.6M618.07,953.51c-1.09-8.87-1.76-14.39-2.6-21.68-.45-3.84-4.52-6.15-8.04-4.55-.04.03-.08.05-.13.06-4.45,2.02-7.07,6.67-6.5,11.52.85,7.14,1.54,12.64,2.65,21.37,5.85-2.7,8.77-4.05,14.62-6.72"/>
        <path id="path2207" class="cls-4" d="M670.29,1001.62c-4.98-42.23-9.76-84.46-14.07-126.77,20.2-8.53,31.76-13.3,49.27-20.31,5.82-2.33,12.49-1.26,17.31,2.77l.19.16c5.27,4.42,8.58,10.72,9.19,17.54.14,1.48.27,2.92.39,4.36.83,9.08-.88,18.21-4.93,26.36l-.07.15.1.08c5.09,4.21,8.28,10.26,8.89,16.8,1.55,16.87,2.58,28.15,4.31,47.76-11.14,4.77-16.76,7.21-28.04,12.15-1.29-12.9-2.06-20.42-3.18-31.47-.37-3.59-4.14-5.82-7.46-4.39-2.31,1-4.56,1.97-7.63,3.31,1.65,15.49,2.48,23.24,4.14,38.78-11.33,5.01-17.02,7.56-28.41,12.72M705.48,909.85c-.62-6.2-1.09-10.89-1.66-16.8-.35-3.57-4.08-5.82-7.39-4.43-2.39,1-4.71,1.96-7.9,3.3,1.16,11.69,1.77,17.52,2.98,29.15,4.01-1.71,6.63-2.83,9.79-4.17,2.79-1.17,4.49-4.04,4.19-7.05"/>
        <path id="path2211" class="cls-4" d="M755.29,964.24l-10.88-125.21s44.44-16.59,63.98-23.6c.8,11.33,1.19,16.99,1.96,28.33-13.82,5.13-20.82,7.77-34.95,13.21.46,5.73.69,8.59,1.14,14.31,11.25-4.39,16.83-6.53,27.88-10.73.79,11.39,1.17,17.09,1.92,28.53-10.91,4.25-16.44,6.43-27.56,10.89.73,9.58,1.09,14.37,1.79,23.99,13.77-5.61,20.58-8.33,33.99-13.62.64,11.5.94,17.28,1.49,28.89-18.45,7.44-60.75,25.01-60.75,25.01"/>
        <path id="path2215" class="cls-4" d="M829.55,933.83c-1.57-34.94-6.65-123.7-6.65-123.7,0,0,34.27-11.75,44.72-15.21,5.66-1.88,11.9-.35,16.07,3.93l.08.08.08.08c4.32,4.44,6.82,10.34,6.96,16.52.75,31.44,1.14,62.79,1.11,94.27-9.52,3.53-14.39,5.37-24.28,9.15-.29-29.41-1.18-58.88-2.49-88.28-.15-3.25-3.41-5.44-6.48-4.37-2.13.75-4.22,1.49-7.09,2.5,1.69,31.61,2.95,63.31,3.57,94.96-10.08,3.91-15.2,5.93-25.6,10.06"/>
        <path id="path2219" class="cls-4" d="M920.11,899.52c1.26-31.37,1.65-62.9,1.34-94.3-7.38,2.36-11.11,3.58-18.69,6.08-.23-11.1-.38-16.6-.7-27.57,25.71-8.15,38.13-11.88,61.71-18.56-.22,10.78-.36,16.22-.71,27.19-6.87,2.04-10.37,3.1-17.47,5.28-.35,31.39-1.49,62.91-3.59,94.22-8.5,2.92-12.89,4.46-21.88,7.67"/>
        <path id="path2223" class="cls-4" d="M967.27,883.16l8.31-121.48s33.86-8.87,48.38-12.36c-1.06,10.68-1.64,16.09-2.89,27.04-9.91,2.49-15.06,3.85-25.72,6.76-.39,5.47-.6,8.22-1.05,13.75,8.36-2.34,12.42-3.45,20.27-5.5-1.26,11.07-1.94,16.67-3.43,27.99-7.46,2.03-11.33,3.11-19.33,5.43-.92,9.4-1.42,14.15-2.49,23.72,9.61-2.86,14.2-4.17,22.91-6.53-1.81,11.55-4.87,29.24-4.87,29.24l-40.09,11.93Z"/>
        <path id="path2227" class="cls-4" d="M562.43,1234.95c-10.28-46.24-20.6-92.49-29.69-138.98,20.64-10.62,32.69-16.69,51.17-25.78,6.37-3.13,13.96-2.45,19.66,1.76l.11.08.12.08c5.92,4.38,9.88,10.92,11,18.21.28,1.89.57,3.71.85,5.54,1.55,10.08.38,20.39-3.36,29.87l-.06.17.11.08c5.81,4.52,9.68,11.1,10.79,18.36,2.98,19.35,4.97,32.36,8.35,55.35-11.27,5.64-16.88,8.48-28,14.13-2.67-15.25-4.21-23.91-6.52-36.9-.65-3.67-4.65-5.67-7.97-4-2.36,1.19-4.64,2.34-7.76,3.92,3.34,17.41,5.03,26.19,8.42,44.03-11.01,5.64-16.47,8.46-27.21,14.06M588.91,1131.7c-1.28-7.28-2.23-12.65-3.44-19.56-.63-3.67-4.63-5.68-7.95-4.01-2.59,1.29-5.05,2.53-8.46,4.25,2.35,12.78,3.56,19.2,5.99,32.08,4.08-2.06,6.74-3.41,9.97-5.02,2.86-1.44,4.44-4.58,3.89-7.73"/>
        <path id="path2231" class="cls-4" d="M670.57,1180.3c-6.21,3.06-13.67,2.02-18.8-2.62-.04-.03-.07-.06-.11-.09-.03-.03-.06-.06-.1-.09-5.54-5.02-9.15-11.82-10.19-19.22-5.08-36.17-10.29-72.31-15.43-108.47,12.5-5.97,18.77-8.93,31.25-14.76,4.61,36.47,9.18,72.95,13.38,109.46,5.83-2.82,8.74-4.22,14.55-7.02-3.78-36.6-7.99-73.15-12.32-109.69,12.47-5.75,18.69-8.59,31.06-14.18,3.62,35.1,6.84,70.22,9.75,105.38.87,10.46-.81,20.96-4.85,30.65-.02.06-.05.12-.07.18-.02.05-.05.11-.07.17-3.95,9.47-11.22,17.18-20.46,21.68-5.94,2.89-11.29,5.52-17.58,8.61"/>
        <path id="path2235" class="cls-4" d="M754.77,1139.71c-5.93,2.8-12.99,1.44-17.45-3.39-.03-.03-.06-.06-.08-.09-.04-.04-.06-.06-.09-.1-4.92-5.33-7.86-12.17-8.37-19.4-1.73-24.43-3.63-48.81-5.69-73.2-.85-10.12.93-20.28,5.24-29.47.02-.06.05-.12.07-.17s.06-.11.08-.16c4.23-9.06,11.63-16.26,20.79-20.27,7.23-3.16,13.45-5.86,20.94-9.06,6.08-2.6,13.14-1.29,17.85,3.34.03.03.06.06.09.09.04.04.06.06.09.09,4.96,4.87,7.85,11.44,8.13,18.38.14,3.37.26,6.72.42,11.23-11.33,4.89-17.09,7.41-28.73,12.55-.25-4.4-.38-6.6-.64-10.97-5.86,2.57-8.81,3.88-14.75,6.51,2.13,30.6,3.09,46.1,4.43,77.94,5.59-2.58,8.37-3.86,13.88-6.39-.27-9.12-.43-13.64-.79-22.64-2.81,1.27-4.22,1.92-7.06,3.2-.61-13.48-.96-20.16-1.72-33.41,11.27-5.03,18.12-8.06,27.17-12.02,4.1-1.79,8.72,1.13,8.85,5.59.77,27.19.97,54.46.55,81.63-17.18,7.94-27.53,12.75-43.22,20.19"/>
        <path id="path2239" class="cls-4" d="M811.12,1112.7c.94-48.59.85-97.14-1.29-145.76,19.36-7.61,30.36-11.84,46.04-17.68,5.7-2.13,12.21-.17,15.93,4.76l.08.1.07.1c4,5.31,6.07,11.81,5.86,18.38-.08,2.66-.16,5.14-.26,7.66-.38,10.08-2.84,19.93-7.24,28.92l-.08.16c3.57,5.62,5.27,12.2,4.85,18.76-.47,7.24-.91,13.29-1.47,20.1-.84,10.35-3.54,20.45-7.96,29.78l-.08.16-.08.17c-4.26,8.96-11.65,16.04-20.8,19.91-10.35,4.4-19.35,8.28-33.56,14.47M851.74,1001.14c.08-4.54.13-8.05.16-12.42.02-2.5-2.53-4.29-4.86-3.39-2.65,1.03-4.99,1.94-8.48,3.31.05,8.79.05,13.2,0,22.09,3.73-1.48,6.13-2.44,9.03-3.57,2.47-.98,4.1-3.34,4.15-6.02M849.88,1057.96c.25-4.86.41-8.54.6-13.14.1-2.57-2.53-4.45-4.9-3.49-2.31.93-4.45,1.81-7.53,3.07-.22,9.06-.36,13.63-.7,22.82,3.5-1.46,5.76-2.4,8.48-3.52,2.35-.96,3.92-3.19,4.05-5.75"/>
        <path id="path2243" class="cls-4" d="M902.83,1073.45c-5.9,2.31-12.71-.03-15.02-5.17-.21-.48-.41-.92-.6-1.34-2.48-5.47-3.45-11.42-2.77-17.35.49-4.25.91-8.12,1.48-13.63,0-.05.04-.09.09-.11,10-3.85,14.89-5.71,24.03-9.13.11-.04.23.05.22.15-.62,4.37-.96,6.69-1.63,11.1,0,.1.11.18.22.15,4.37-1.66,6.61-2.49,10.82-4.05.05-.02.09-.06.09-.11,1.59-9.2,2.33-13.83,3.7-22.83,0-.1-.1-.17-.21-.14-4.94,1.8-8.6,3.13-12.55,4.6-6.13,2.27-13.11.17-16.15-4.85h0c-.21-.36-.41-.7-.6-1.02-3.23-5.31-4.69-11.33-4.25-17.41,1.5-20.72,2.09-33.55,2.77-55.97,0-.05.05-.1.1-.12,11.38-4.05,16.99-6.01,27.68-9.69.09-.03.2.04.19.12-1.35,21.34-2.23,32.28-4.54,54.41,0,.09.1.16.2.12,4.85-1.74,7.31-2.61,12-4.27.06-.02.1-.07.1-.11,2.77-22.32,3.86-33.3,5.6-54.79,0-.05.05-.1.1-.12,10.35-3.48,15.42-5.16,24.97-8.23.1-.03.21.04.2.13-5.09,38.45-11.5,76.46-19.27,114.56-1.36,6.62-3.74,13.08-7.06,19.21-.72,1.32-1.49,2.75-2.4,4.43-.04.05-.06.11-.09.16-4.69,8.67-12.83,15.61-22.89,19.52-1.46.57-2.95,1.15-4.53,1.77"/>
      </g>
      <g id="g3291">
        <path id="path2259" class="cls-1" d="M285.11,960.85c-12.86,0-22.02-10.15-23.88-26.49l-3.18-27.72c10.01.72,15.42,1.14,25.82,1.98.56.05,1.14.07,1.71.07,4.78,0,9.97-1.58,14.99-4.53,14.02-8.28,21.07-12.34,35.19-20.33,11.49-6.52,16.81-19.37,17.88-28.4.81-6.84-.53-13.01-3.66-16.94-2.24-2.81-5.29-4.44-9.1-4.87-26.58-2.96-39.9-4.31-66.56-6.78-19.93-1.86-31.31-21.49-29-49.98,1.88-23.03,18.63-55.43,42.42-67.62,26.12-13.92,52.71-27.33,79.05-39.89,5.27-2.53,10.49-3.81,15.51-3.81,14.75,0,25.27,10.99,26.78,27.99l1.92,21.66-18.11-2.75c-1.22-.17-2.42-.26-3.64-.26-4.49,0-9.1,1.15-13.7,3.4-26.65,13.08-39.62,19.72-66.1,33.83l-.58.58-.05,1.47c28.88,3.66,42.84,5.34,70.7,8.99,14.89,1.94,26.4,10.03,33.29,23.4,6.21,12.1,8.37,28.44,6.09,45.99-2.28,17.45-8.92,35.78-18.67,51.59-10.7,17.36-24.77,31.31-40.67,40.34-23.1,13.11-34.36,19.72-57.38,33.71-5.86,3.56-11.61,5.37-17.1,5.37"/>
        <path id="path2263" class="cls-1" d="M414.5,891.59c22.98-87.33,47.47-174,72.82-257.66l-1.66-2.79-8.71-10.9c24.09-9.96,36.49-14.85,61.1-24.14,38.67,62.67,76.97,125.71,113.87,187.34-27.82,10.9-55.69,22.28-82.92,33.82l7.39-19.29c-10.98-18.75-16.47-27.69-27.52-45.62l-.48-.76-.82.35c-24.94,10.51-37,15.83-61.47,27.07-9.03,30.15-17.35,59.64-25.52,89.2-18.34,8.82-28.06,13.81-46.08,23.39M510.91,694.4c-5.86,19.2-8.76,28.84-14.51,48.22l-.65,2.18,2.08-.93c13.97-6.18,20.98-9.22,35.03-15.12l1.14-.48-22.41-36.08-.68,2.21Z"/>
        <path id="path2267" class="cls-1" d="M929.13,703.65c3.22-6.43,4.83-9.64,8.07-16.04-14.81-16.58-22.27-24.89-37.29-41.54-15.27,26.17-30.28,52.43-45.09,78.87-22.35,6.88-33.49,10.49-55.7,18.04,23.14-43.48,46.93-86.53,71.53-129.22-27.49-30.13-55.91-61.03-83.64-90.93,33.04-9.23,68.33-19.14,101.8-26.68-3.36,6.49-6.23,12.14-9.57,18.67,12.23,13.52,18.32,20.26,30.4,33.73,15.7-25.54,41.21-66.43,41.21-66.43l56.53-11.23s-45.74,74.77-68.31,110.57c29.23,32.85,58.29,65.84,87.1,99.04-32.54,6.88-64.89,14.6-97.04,23.14"/>
        <path id="path2271" class="cls-1" d="M1102.21,662.63c3.99-6.95,5.99-10.42,10.01-17.33-30.49-58.64-73.48-116.23-104.84-174.41,30.43-4.7,60.87-10.78,91.43-14.53-4.14,6.73-6.33,11.98-10.45,18.76,20.43,32.83,43.66,69.24,65.31,103.39,22.63-43.94,63.21-135.75,63.21-135.75l52.9-4.23s-68.92,144.02-104.7,214.11c-25.2,3.56-37.77,5.56-62.86,9.99"/>
      </g>
      <path id="path2275" class="cls-1" d="M799.7,553.57l-3.04,1.69c-1.6-1.81-4.32-2.29-6.49-1.02-2.08,1.23-2.97,3.67-2.29,5.86l-81.45,45.04-.33-.53c-1.45-2.42-4.61-3.22-7.06-1.78l-5.22,3.09c-2.45,1.44-3.25,4.56-1.8,6.99l.09.15-40.34,22.31c-1.61-1.72-4.27-2.15-6.4-.91-2.03,1.2-2.92,3.56-2.33,5.73l-3.68,2.03c-11.91,6.55-17.29,20.17-13.86,32.57.38,1.38-.98,2.58-2.34,2.11-3.13-1.08-6.73-.77-9.75,1.21-4.63,3.04-6.26,9.15-3.73,14.06,2.93,5.68,10.02,7.65,15.47,4.44,2.93-1.73,4.76-4.59,5.26-7.69.22-1.39,1.94-1.97,2.98-.99,9.36,8.9,24.01,10.72,35.5,3.47l3.56-2.24c1.63,1.55,4.16,1.91,6.19.71,2.12-1.25,3-3.77,2.24-5.99l39.03-24.48.09.16c1.46,2.42,4.61,3.22,7.06,1.78l5.23-3.09c2.45-1.44,3.24-4.57,1.79-6.99l-.32-.53,78.83-49.43c1.62,1.64,4.21,2.03,6.3.82,2.16-1.28,3.03-3.88,2.2-6.14l2.94-1.84c1.18-.75,1.56-2.29.83-3.48l-21.7-36.15c-.71-1.19-2.25-1.61-3.48-.93"/>
      <path id="path2279" class="cls-3" d="M731.52,635.04c-34.07,9.63-84.3,44.45-97.22,74.81l-2.99,7.01c-.45,1.04-.51,2.21-.2,3.29l3.14,10.92c.76,2.64,3.53,4.16,6.18,3.41l2.23-.62c2.67,9.28,12.42,14.66,21.79,12.01,9.36-2.65,14.8-12.31,12.12-21.6l85.05-24.03c2.68,9.28,12.42,14.65,21.8,12.01,9.36-2.65,14.79-12.31,12.11-21.6-.07-.27-.16-.52-.24-.78,1.06-1.23,1.51-2.93,1.03-4.61l-18.24-63.38-46.57,13.16ZM662.71,739.77c-5.97,1.69-12.19-1.74-13.88-7.65-1.7-5.91,1.75-12.08,7.72-13.76,5.97-1.69,12.19,1.74,13.89,7.66,1.7,5.91-1.76,12.07-7.72,13.75M781.67,706.15c-5.97,1.69-12.19-1.74-13.88-7.65-1.7-5.91,1.75-12.08,7.72-13.76,5.97-1.69,12.18,1.74,13.88,7.65,1.7,5.92-1.76,12.08-7.72,13.76"/>
    </g>
  </g>
</svg>