<?xml version="1.0" encoding="UTF-8" standalone="no"?>
<svg xmlns:dc="http://purl.org/dc/elements/1.1/" xmlns:cc="http://creativecommons.org/ns#" xmlns:rdf="http://www.w3.org/1999/02/22-rdf-syntax-ns#" xmlns:svg="http://www.w3.org/2000/svg" xmlns="http://www.w3.org/2000/svg" xmlns:sodipodi="http://sodipodi.sourceforge.net/DTD/sodipodi-0.dtd" xmlns:inkscape="http://www.inkscape.org/namespaces/inkscape" version="1.1" width="517" height="600" id="svg6681" inkscape:version="0.91 r13725" sodipodi:docname="Logo Stade_Toulousain 2018.svg"><script xmlns="" src="moz-extension://19c806db-ab8a-4f47-820c-44a4e79783d7/js/elephant.js"/>
  <metadata id="metadata92">
    <rdf:RDF>
      <cc:Work rdf:about="">
        <dc:format>image/svg+xml</dc:format>
        <dc:type rdf:resource="http://purl.org/dc/dcmitype/StillImage"/>
        <dc:title/>
      </cc:Work>
    </rdf:RDF>
  </metadata>
  <sodipodi:namedview pagecolor="#ffffff" bordercolor="#666666" borderopacity="1" objecttolerance="10" gridtolerance="10" guidetolerance="10" inkscape:pageopacity="0" inkscape:pageshadow="2" inkscape:window-width="1280" inkscape:window-height="691" id="namedview90" showgrid="false" inkscape:zoom="0.79026806" inkscape:cx="-270.6933" inkscape:cy="246.50082" inkscape:window-x="0" inkscape:window-y="1" inkscape:window-maximized="1" inkscape:current-layer="svg6681"/>
  <defs id="defs6683"/>
  <g id="g4148">
    <g id="g4144">
      <path inkscape:connector-curvature="0" style="fill:#ffffff;fill-opacity:1;fill-rule:nonzero;stroke:none" id="path1922" d="M 482.56225,183.94305 C 466.83656,145.77792 451.89718,109.74031 451.89718,48.302712 l 0,-5.774704 -5.72241,-1.174051 -185.12634,-39.2071811 -0.61154,-0.1042166 -0.61156,-0.034785 -2.18412,-0.1042166 -0.87366,-0.069431 -0.91908,0.2084066 -185.213665,39.1203412 -5.678717,1.215723 0,5.774704 c 0,61.437619 -14.895724,97.518639 -30.665092,135.640339 -15.59465,37.77436 -31.7134809,76.89473 -31.7134809,141.0677 0,128.30258 90.8595359,182.66291 94.7472759,184.87728 0.436829,0.17367 156.601659,83.84172 156.601659,83.84172 l 1.39784,0.73985 1.65994,0.0694 2.22955,0.10414 2.00938,0.0694 1.74731,-0.95521 156.33958,-83.66803 c 4.10613,-2.34462 94.96567,-56.74838 94.96567,-184.96412 0,-64.25982 -16.11883,-103.33675 -31.71347,-141.0677"/>
      <path style="fill:#000000;stroke:none;fill-opacity:1" d="M 258.42663,5.1131641e-5 253.22843,1.0722121 68.102893,40.518916 l -5.765966,1.135553 0,5.810066 c 0,61.854375 -14.851568,98.109325 -30.57726,136.506215 -3.844036,9.33091 -7.713741,18.75031 -11.369315,28.60106 -0.06796,0.16081 -0.144332,0.31722 -0.209472,0.47958 -10.8893321,27.24328 -18.6959526,58.4216 -19.97416513,100.54334 -0.009187,0.27823 -0.0189958,0.55592 -0.0275616,0.83512 -0.0401902,1.42637 -0.0768892,2.85895 -0.10197985,4.3107 -0.03846859,2.03732 -0.06087096,4.09806 -0.06614875,6.18767 C 0.01029098,325.25153 0,325.56006 0,325.88461 c 0,3.76675 0.08640473,7.4646 0.23703309,11.10197 0.0105556,0.25548 0.0135331,0.51687 0.0248056,0.77173 1.5523e-4,0.004 -1.6934e-4,0.007 0,0.0113 0.0858981,1.93954 0.19302381,3.86214 0.31971895,5.76596 2.399e-4,0.004 -2.399e-4,0.007 0,0.0113 0.1267657,1.90369 0.27476955,3.78759 0.44099166,5.65572 3.246e-4,0.004 -3.246e-4,0.007 0,0.0113 0.06672,0.74943 0.1503508,1.4833 0.223252,2.22701 0.1092107,1.11388 0.2133993,2.23389 0.3362562,3.335 0.2044508,1.8324 0.4258021,3.64906 0.6669998,5.44624 0.1012094,0.75437 0.2204844,1.49258 0.3279876,2.24079 0.3573937,2.48715 0.7439212,4.94543 1.1686279,7.36456 0.057421,0.32695 0.1067524,0.66099 0.1653718,0.98672 l 0.00275,0.0141 c 0.3106698,1.72592 0.6378821,3.43528 0.9812065,5.12653 7.479e-4,0.004 0.00202,0.007 0.00275,0.0113 0.3435642,1.69198 0.7027669,3.3671 1.0776734,5.02455 8.184e-4,0.004 0.00192,0.007 0.00275,0.0113 0.3749629,1.65731 0.7636918,3.29687 1.1686279,4.91981 9.173e-4,0.004 0.00183,0.01 0.00275,0.0141 0.4049928,1.6228 0.825929,3.2292 1.2595825,4.81783 9.879e-4,0.004 0.00176,0.007 0.00275,0.0113 0.4336959,1.58848 0.8812945,3.16139 1.3422684,4.71585 l 0.00275,0.0113 c 0.46103,1.55434 0.93523,3.09064 1.422198,4.61113 0.0011,0.004 0.0016,0.007 0.0028,0.0113 0.48701,1.52035 0.987765,3.02248 1.499372,4.50914 0.513017,1.49109 1.037401,2.96358 1.573788,4.42095 0.0014,0.004 0.0014,0.008 0.0028,0.0113 0.534919,1.45289 1.083116,2.88839 1.639937,4.30793 0.0014,0.004 0.0014,0.008 0.0028,0.0113 26.234375,66.88229 76.019507,96.84688 79.067048,98.61124 l 156.383907,84.17704 1.74744,0.91781 5.32773,2.91882 5.32773,-2.91882 1.74742,-0.91781 156.38392,-84.17704 c 3.04754,-1.76436 52.83266,-31.72895 79.06703,-98.61124 0.001,-0.003 0.001,-0.007 0.003,-0.0113 0.55682,-1.41954 1.10501,-2.85504 1.63993,-4.30793 0.001,-0.003 0.001,-0.007 0.003,-0.0113 0.53638,-1.45737 1.06076,-2.92986 1.57378,-4.42095 0.51161,-1.48666 1.01236,-2.98879 1.49937,-4.50914 0.001,-0.004 0.001,-0.007 0.003,-0.0113 0.48697,-1.52049 0.96117,-3.05679 1.4222,-4.61113 0.001,-0.004 0.001,-0.007 0.003,-0.0113 0.46097,-1.55446 0.90858,-3.12737 1.34228,-4.71585 9.7e-4,-0.004 0.001,-0.007 0.003,-0.0113 0.43366,-1.58863 0.85459,-3.19503 1.25959,-4.81783 9.1e-4,-0.004 0.001,-0.01 0.003,-0.0141 0.40494,-1.62294 0.79366,-3.2625 1.16862,-4.91981 8.3e-4,-0.004 0.001,-0.007 0.003,-0.0113 0.37491,-1.65745 0.73411,-3.33257 1.07767,-5.02455 7.4e-4,-0.004 0.001,-0.007 0.003,-0.0113 0.34332,-1.69125 0.67054,-3.40061 0.98121,-5.12653 l 0.003,-0.0141 c 0.0586,-0.32573 0.10795,-0.65977 0.16537,-0.98672 0.42471,-2.41913 0.81123,-4.87741 1.16862,-7.36456 0.10753,-0.74821 0.22678,-1.48642 0.32799,-2.24079 0.24119,-1.79718 0.46255,-3.61384 0.667,-5.44624 0.12291,-1.10111 0.22705,-2.22112 0.33626,-3.335 0.0729,-0.74371 0.15652,-1.47758 0.22324,-2.22701 3.3e-4,-0.004 -3.2e-4,-0.007 0,-0.0113 0.16623,-1.86813 0.31423,-3.75203 0.441,-5.65572 2.4e-4,-0.004 -2.4e-4,-0.007 0,-0.0113 0.12672,-1.90382 0.23383,-3.82642 0.31972,-5.76596 1.7e-4,-0.004 -1.5e-4,-0.007 0,-0.0113 0.0113,-0.25486 0.0143,-0.51625 0.0248,-0.77173 0.15063,-3.63737 0.23704,-7.33522 0.23704,-11.10197 0,-0.32455 -0.01,-0.63308 -0.0113,-0.95639 -0.006,-2.08961 -0.0277,-4.15035 -0.0662,-6.18767 -0.0251,-1.45175 -0.0618,-2.88433 -0.10203,-4.3107 -0.008,-0.2792 -0.0183,-0.55689 -0.0275,-0.83512 -1.27822,-42.12174 -9.08484,-73.30006 -19.97417,-100.54334 -0.0652,-0.16236 -0.14152,-0.31877 -0.20948,-0.47958 -3.65557,-9.85075 -7.52528,-19.27015 -11.36931,-28.60106 -15.72569,-38.39689 -30.57726,-74.65184 -30.57726,-136.506215 l 0,-5.810066 -5.76596,-1.135553 L 263.62481,1.0722121 Z M 258.42676,14.668535 l 2.75054,0.600853 178.9682,38.090653 c 0.96103,61.111779 16.51091,99.202309 31.66872,136.026629 15.76938,38.44058 30.66546,74.69828 30.66546,136.50897 0,32.01157 -6.12191,59.22649 -15.13153,81.94176 l -0.003,0.003 c -2.1196,5.34374 -4.39715,10.43886 -6.79404,15.28864 l -0.003,0.003 c -7.79112,15.76352 -16.82422,28.93853 -25.65193,39.65894 l -0.003,0.003 c -4.07468,4.94813 -8.10616,9.37214 -11.95088,13.28764 -5.02431,5.11679 -9.72119,9.35307 -13.792,12.75843 -0.0817,0.0683 -0.17242,0.14736 -0.25357,0.21499 l -0.003,0.003 c -0.1907,0.15894 -0.36066,0.29129 -0.54848,0.44649 -3.33327,2.7546 -6.08833,4.82218 -8.31545,6.41919 -0.36204,0.2596 -0.8443,0.62766 -1.17137,0.85717 l -0.003,0.003 c -0.39471,0.27697 -0.58769,0.39504 -0.92884,0.62841 -1.77857,1.21675 -2.98888,1.9791 -3.07592,2.03408 0.21856,-0.1311 -137.03023,72.33952 -156.42524,82.77963 -19.39501,-10.44011 -156.64368,-82.91073 -156.42526,-82.77963 -0.087,-0.055 -1.29734,-0.81733 -3.075918,-2.03408 -0.34115,-0.23337 -0.534133,-0.35144 -0.928838,-0.62841 l -0.0028,-0.003 c -0.327067,-0.22951 -0.809347,-0.59757 -1.171384,-0.85717 -2.227113,-1.59701 -4.982172,-3.66459 -8.315448,-6.41919 -0.187813,-0.1552 -0.357778,-0.28755 -0.548484,-0.44649 l -0.0028,-0.003 c -0.08116,-0.0676 -0.171921,-0.14669 -0.25357,-0.21499 -4.070813,-3.40536 -8.767701,-7.64164 -13.792015,-12.75843 -3.844713,-3.9155 -7.876195,-8.33951 -11.950873,-13.28764 l -0.0028,-0.003 C 53.128355,452.07021 44.095245,438.8952 36.304128,423.13168 l -0.0028,-0.003 c -2.396892,-4.84978 -4.674432,-9.9449 -6.794028,-15.28864 l -0.0028,-0.003 C 20.494834,385.12213 14.37293,357.90721 14.37293,325.89564 c 0,-61.81069 14.896076,-98.06839 30.665458,-136.50897 C 60.196195,152.56235 75.746077,114.47182 76.7071,53.360041 L 255.67594,15.269388 Z" id="path1972" inkscape:connector-curvature="0" sodipodi:nodetypes="ccccscccccccsccccccccsccccccccccccccccccccccccccccccccccccccccccccccccccccccccccccscccccccsccccccccsccccccsccccccccccccccccccssccccccscccc"/>
    </g>
    <g transform="matrix(1.4111733,0,0,1.4111733,2.7586316,-0.6008)" id="g4554">
      <path sodipodi:nodetypes="cccscsscccccccccscscccssccccsscccccccsscccccccsssccscccccccscccscccccc" inkscape:connector-curvature="0" id="path4548" d="m 234.45312,65.361328 -5.0332,3.355469 c -9.44891,5.316082 -20.03818,8.86587 -29.46498,10.937494 -4.9782,1.072698 -9.49792,1.802558 -12.84375,2.267578 -3.26597,0.45392 -5.55948,0.657654 -5.58789,0.662109 -0.0482,-0.0056 -2.30407,-0.207998 -5.56446,-0.662109 -3.33932,-0.465105 -7.85746,-1.1948 -12.83789,-2.267578 -9.96085,-2.145556 -21.80004,-5.772656 -29.47851,-10.933594 -1.70217,-1.118598 -3.4037,-2.238199 -5.10544,-3.357457 l -2.30273,2.300781 -2,1.998047 c -4.11473,3.031219 -8.05255,6.467677 -12.36917,7.072271 -2.12692,0.199888 -4.254,0.40092 -6.38095,0.601563 l -0.20313,6.585937 c -0.59483,4.730841 -1.244,9.052069 -2.95708,12.544925 -1.9534,3.859866 -5.122581,7.413506 -10.507814,9.824226 0.04199,-0.61088 0.128086,-1.08306 0.123047,-1.75782 -0.02333,-3.12453 -0.544606,-7.221729 -3.335937,-10.712891 -2.883619,-3.632655 -7.563734,-5.287109 -12.785157,-5.287109 -4.698382,0 -9.009163,1.742875 -11.86914,5.023438 l -0.0098,0.01367 -0.01172,0.01172 c -3.643611,4.250884 -4.548471,9.616402 -4.824218,13.896492 -0.137874,2.14004 -0.08554,4.04033 0.0039,5.46093 0.08944,1.4206 0.2495,2.60734 0.236328,2.50196 l -0.03125,-0.4961 c 0,0.0258 0.01963,0.28863 0.04102,0.52344 -0.0045,1.16674 0.01386,11.61805 7.753906,19.32813 4.745736,4.74574 11.461738,7.08593 19.142578,7.08593 13.601742,0 23.684737,-9.35003 30.294917,-18.24609 5.82491,-7.83923 8.80612,-14.83969 9.74414,-17.13672 l 33.37926,0 0,230.74788 -10.22105,13.559 0.57817,21.31226 9.16797,-2.49219 0.0156,-0.004 c 5.29717,-1.48798 13.46123,-3.28907 22.04102,-3.28907 l 0.55664,0 c 8.54696,0 16.7476,1.80215 22.04102,3.28907 l 0.0137,0.004 9.10156,2.49219 0.7168,-21.31226 -10.29143,-13.559 0,-230.748 33.35002,0 c 0.94361,2.30756 3.92502,9.29906 9.75391,17.13879 6.61357,8.89511 16.69446,18.24414 30.2832,18.24414 7.68085,0 14.41906,-2.33312 19.17188,-7.08593 l 0.004,-0.004 0.004,-0.002 c 7.891,-7.92858 7.75781,-18.48544 7.75781,-19.50586 l 0,-0.18555 0,-0.0566 c 0.0858,-0.56711 0.1502,-0.99795 0.22266,-2.08985 0.0947,-1.42661 0.14945,-3.32902 0.0137,-5.4707 -0.27157,-4.28335 -1.17668,-9.649484 -4.82031,-13.900392 l -0.0195,-0.02344 -0.0215,-0.02344 c -2.86835,-3.242472 -7.15123,-5.001953 -11.84961,-5.001953 -5.19874,0 -9.8966,1.639072 -12.79297,5.292969 -2.76187,3.47748 -3.30449,7.545046 -3.3457,10.662106 -0.009,0.70957 0.0716,1.17803 0.10937,1.79102 -5.3791,-2.41083 -8.54131,-5.95796 -10.48828,-9.810548 -2.33485,-4.62013 -2.88879,-9.645066 -2.94336,-12.523438 -0.0455,-2.204443 -0.0911,-4.408886 -0.13672,-6.613328 l -6.47851,-0.597656 c -4.88695,-0.555862 -9.98181,-4.631106 -12.30859,-7.039063 l -0.0352,-0.03711 c -1.45493,-1.432135 -2.91062,-2.865106 -4.36518,-4.296689 z" style="color:#000000;font-style:normal;font-variant:normal;font-weight:normal;font-stretch:normal;font-size:medium;line-height:normal;font-family:sans-serif;text-indent:0;text-align:start;text-decoration:none;text-decoration-line:none;text-decoration-style:solid;text-decoration-color:#000000;letter-spacing:normal;word-spacing:normal;text-transform:none;direction:ltr;block-progression:tb;writing-mode:lr-tb;baseline-shift:baseline;text-anchor:start;white-space:normal;clip-rule:nonzero;display:inline;overflow:visible;visibility:visible;opacity:1;isolation:auto;mix-blend-mode:normal;color-interpolation:sRGB;color-interpolation-filters:linearRGB;solid-color:#000000;solid-opacity:1;fill:#000000;fill-opacity:1;fill-rule:nonzero;stroke:none;stroke-width:8;stroke-linecap:butt;stroke-linejoin:miter;stroke-miterlimit:4;stroke-dasharray:none;stroke-dashoffset:0;stroke-opacity:1;color-rendering:auto;image-rendering:auto;shape-rendering:auto;text-rendering:auto;enable-background:accumulate"/>
      <path inkscape:connector-curvature="0" style="fill:#ffffff;fill-opacity:1;fill-rule:nonzero;stroke:none" id="path1976" d="m 229.94367,282.44 c -3.93125,3.93124 -10.95797,6.87194 -19.81102,8.41968 l 0,-34.26687 c 9.62691,1.67155 17.05605,4.55034 20.86348,8.14109 2.29065,2.19902 3.25024,4.33366 3.25024,7.2434 0,4.20984 -1.42392,7.61486 -4.3027,10.4627 m -75.93193,-152.88536 -33.46205,0 c 4.76703,-6.06712 8.26491,-12.31997 10.36983,-16.71554 l 23.09222,0 0,16.71554 z m 0,76.52007 -1.45363,0 -8.91496,-0.0743 -12.69143,0 c -1.57993,-0.12382 -14.45586,-1.63937 -14.45586,-16.09646 0,-5.35516 3.59075,-9.8436 6.59336,-12.75334 9.8436,-9.25546 19.53243,-13.80581 30.92376,-14.36299 l 0,43.27469 z m 0,48.47508 0,33.95733 c -25.04236,-8.51255 -43.98665,-28.69502 -56.83286,-42.3151 -2.16683,-2.29065 -4.11698,-4.36461 -6.00521,-6.28381 15.19876,6.841 35.56697,12.38189 62.83807,14.30108 l 0,0.33927 z m 56.12091,-141.71069 23.12317,0 c 2.13711,4.39557 5.6028,10.64842 10.40079,16.71554 l -3.77648,0 -2.75497,0 c 0,0 -16.77746,-0.0248 -26.99251,-0.0248 l 0,-16.68459 z m 102.11961,147.62305 -1.23819,-1.98111 C 304.6374,248.3279 280.05935,214.64916 233.132,206.22948 l -0.65129,-0.099 c -0.30954,-0.0495 -0.99055,-0.0495 -0.99055,-0.0495 l -0.30954,0 -21.08017,0 0,-32.31673 c 36.3718,20.83253 62.68331,34.23592 73.54841,33.98828 20.27534,-0.49527 29.37603,-22.65885 29.99512,-28.5712 l 0,-0.40118 c 0.0248,-0.24763 0.0248,-0.55718 0.0248,-0.55718 0,-17.98469 -10.61747,-29.99512 -26.37342,-29.99512 -12.69144,0 -21.04921,7.5839 -25.04237,16.68459 -9.47214,-8.85305 -13.06289,-19.99675 -14.39394,-26.52819 l -0.52747,-2.69306 -0.46556,-2.35256 c 7.46009,8.11014 17.58228,14.95113 30.36658,14.95113 9.71978,0 17.67514,-3.00261 23.55654,-8.91496 8.60541,-8.57446 9.5031,-20.3682 9.56501,-23.3089 0.49527,-3.80743 1.60964,-17.45846 -6.09808,-26.34247 -4.05507,-4.70511 -9.75074,-7.21245 -16.52982,-7.21245 -7.70773,0 -13.62008,2.6002 -17.64419,7.58391 -1.17628,1.51554 -2.04301,3.06452 -2.75497,4.67416 -2.19902,-3.68361 -2.81688,-7.8625 -2.87879,-10.8032 l 0,-3.0026 0,-2.19903 0,-6.74812 -6.68622,-0.74292 -2.26093,-0.19811 -2.97165,-0.37145 c -2.41447,-0.22288 -5.60281,-2.16683 -8.54351,-5.2004 l -1.9811,-1.9811 -1.48582,-1.54773 -4.45748,-4.55035 -5.29326,3.55979 -1.76566,1.14409 -2.32036,1.67156 c -11.57707,7.73867 -33.70969,11.70088 -44.42002,12.75334 -10.71034,-1.05246 -32.812,-5.01467 -44.38907,-12.75334 l -2.38227,-1.67156 -1.73347,-1.14409 -5.29325,-3.55979 -4.45748,4.55035 -1.48583,1.54773 -1.9811,1.9811 c -2.9407,3.03357 -6.12904,4.98371 -8.5435,5.2004 l -2.97166,0.37145 -2.22874,0.19811 -6.71717,0.74292 0,6.74812 0,2.19903 -0.0248,3.0026 c 0,2.9407 -0.68101,7.11959 -2.9407,10.8032 -0.7132,-1.60964 -1.54774,-3.15738 -2.75497,-4.67416 -3.96221,-4.98371 -9.93647,-7.58391 -17.58228,-7.58391 -6.81004,0 -12.53666,2.50734 -16.59173,7.21245 -7.73868,8.91496 -6.5624,22.6279 -6.09808,26.37342 0,2.90975 0.99055,14.73445 9.56501,23.27795 5.44803,5.47898 12.72239,8.41968 21.51353,8.82209 -16.49887,13.43435 -35.93843,32.28577 -36.95994,47.48454 l 0,0.65129 -0.30954,1.48582 0.46556,1.45611 0.30954,0.58691 c 0.80483,2.50733 5.38612,14.51776 20.58489,26.65201 -12.87716,0.58938 -20.24439,11.1437 -21.6683,21.17302 -2.10492,14.45586 12.44379,24.79473 20.0277,29.1903 -0.52747,6.71718 1.70127,15.41545 9.78169,23.18509 10.77224,10.43174 25.69242,11.26751 31.57381,11.08179 11.79375,8.48159 32.96678,13.43434 45.34866,15.75595 l 0,8.45063 -0.34174,0.43337 -7.02672,9.47214 0,0.0248 -0.30954,0.30955 -1.26791,1.70374 -1.36201,1.76318 0,2.69306 0,0.86674 c 0,0 0,1.14408 0.0248,1.17628 0,0 0.0248,0.77263 0.33926,9.31737 l 0,4.36461 0,3.25025 0.30955,9.78169 9.41023,-2.63115 3.12643,-0.92865 4.17889,-1.20847 c 4.9218,-1.36201 12.41284,-2.97165 20.33725,-2.97165 l 0.55718,0 c 7.95536,0 15.41545,1.60964 20.33725,2.97165 l 0,-0.14858 c 1.32981,0.49528 2.75497,0.92864 4.33366,1.36201 l 3.15738,0.92864 9.41024,2.63115 0.30954,-9.78169 0,-3.25025 0,-4.36461 0.30955,-9.31737 0,-1.17628 0,-0.86673 0,-2.69306 -1.57745,-2.16683 -0.52747,-0.68101 -0.77263,-0.95836 0.30955,0.33927 c -1.08218,-1.57993 -2.87879,-4.02412 -6.09808,-8.26491 l -1.48583,-1.9811 0,-5.8814 c 21.29685,-3.09547 67.01696,-14.64158 100.32424,-58.3806 l 1.42392,-1.88947 3.21929,-4.2408 -2.84784,-4.48843 z"/>
      <path style="color:#000000;font-style:normal;font-variant:normal;font-weight:normal;font-stretch:normal;font-size:medium;line-height:normal;font-family:sans-serif;text-indent:0;text-align:start;text-decoration:none;text-decoration-line:none;text-decoration-style:solid;text-decoration-color:#000000;letter-spacing:normal;word-spacing:normal;text-transform:none;direction:ltr;block-progression:tb;writing-mode:lr-tb;baseline-shift:baseline;text-anchor:start;white-space:normal;clip-rule:nonzero;display:inline;overflow:visible;visibility:visible;opacity:1;isolation:auto;mix-blend-mode:normal;color-interpolation:sRGB;color-interpolation-filters:linearRGB;solid-color:#000000;solid-opacity:1;fill:#000000;fill-opacity:1;fill-rule:nonzero;stroke:none;stroke-width:8;stroke-linecap:butt;stroke-linejoin:miter;stroke-miterlimit:4;stroke-dasharray:none;stroke-dashoffset:0;stroke-opacity:1;color-rendering:auto;image-rendering:auto;shape-rendering:auto;text-rendering:auto;enable-background:accumulate" d="m 234.45312,65.361328 -5.0332,3.355469 c -9.44891,5.316082 -20.03818,8.86587 -29.46498,10.937494 -4.9782,1.072698 -9.49792,1.802558 -12.84375,2.267578 -3.26597,0.45392 -5.55948,0.657654 -5.58789,0.662109 -0.0482,-0.0056 -2.30407,-0.207998 -5.56446,-0.662109 -3.33932,-0.465105 -7.85746,-1.1948 -12.83789,-2.267578 -9.96085,-2.145556 -21.80004,-5.772656 -29.47851,-10.933594 -1.70217,-1.118598 -3.4037,-2.238199 -5.10544,-3.357457 l -2.30273,2.300781 -2,1.998047 c -4.11473,3.031219 -8.05255,6.467677 -12.36917,7.072271 -2.12692,0.199888 -4.254,0.40092 -6.38095,0.601563 l -0.20313,6.585937 c -0.59483,4.730841 -1.244,9.052069 -2.95708,12.544925 -1.9534,3.859866 -5.122581,7.413506 -10.507814,9.824226 0.04199,-0.61088 0.128086,-1.08306 0.123047,-1.75782 -0.02333,-3.12453 -0.544606,-7.221729 -3.335937,-10.712891 -2.883619,-3.632655 -7.563734,-5.287109 -12.785157,-5.287109 -4.698382,0 -9.009163,1.742875 -11.86914,5.023438 l -0.0098,0.01367 -0.01172,0.01172 c -3.643611,4.250884 -4.548471,9.616402 -4.824218,13.896492 -0.137874,2.14004 -0.08554,4.04033 0.0039,5.46093 0.08944,1.4206 0.2495,2.60734 0.236328,2.50196 l -0.03125,-0.4961 c 0,0.0258 0.01963,0.28863 0.04102,0.52344 -0.0045,1.16674 0.01386,11.61805 7.753906,19.32813 4.745736,4.74574 11.461738,7.08593 19.142578,7.08593 13.601742,0 23.684737,-9.35003 30.294917,-18.24609 5.82491,-7.83923 8.80612,-14.83969 9.74414,-17.13672 l 33.37926,0 0,230.74788 -10.22105,13.559 0.57817,21.31226 9.16797,-2.49219 0.0156,-0.004 c 5.29717,-1.48798 13.46123,-3.28907 22.04102,-3.28907 l 0.55664,0 c 8.54696,0 16.7476,1.80215 22.04102,3.28907 l 0.0137,0.004 9.10156,2.49219 0.7168,-21.31226 -10.29143,-13.559 0,-230.748 33.35002,0 c 0.94361,2.30756 3.92502,9.29906 9.75391,17.13879 6.61357,8.89511 16.69446,18.24414 30.2832,18.24414 7.68085,0 14.41906,-2.33312 19.17188,-7.08593 l 0.004,-0.004 0.004,-0.002 c 7.891,-7.92858 7.75781,-18.48544 7.75781,-19.50586 l 0,-0.18555 0,-0.0566 c 0.0858,-0.56711 0.1502,-0.99795 0.22266,-2.08985 0.0947,-1.42661 0.14945,-3.32902 0.0137,-5.4707 -0.27157,-4.28335 -1.17668,-9.649484 -4.82031,-13.900392 l -0.0195,-0.02344 -0.0215,-0.02344 c -2.86835,-3.242472 -7.15123,-5.001953 -11.84961,-5.001953 -5.19874,0 -9.8966,1.639072 -12.79297,5.292969 -2.76187,3.47748 -3.30449,7.545046 -3.3457,10.662106 -0.009,0.70957 0.0716,1.17803 0.10937,1.79102 -5.3791,-2.41083 -8.54131,-5.95796 -10.48828,-9.810548 -2.33485,-4.62013 -2.88879,-9.645066 -2.94336,-12.523438 -0.0455,-2.204443 -0.0911,-4.408886 -0.13672,-6.613328 l -6.47851,-0.597656 c -4.88695,-0.555862 -9.98181,-4.631106 -12.30859,-7.039063 l -0.0352,-0.03711 c -1.45493,-1.432135 -2.91062,-2.865106 -4.36518,-4.296689 z" id="path2002" inkscape:connector-curvature="0" sodipodi:nodetypes="cccscsscccccccccscscccssccccsscccccccsscccccccsssccscccccccscccscccccc"/>
      <path style="fill:#d30c14;fill-opacity:1;stroke:none" d="m 199.32668,323.331 7.27539,-0.65039 c 18.3871,-2.22874 64.81909,-12.19565 98.06446,-55.8418 l 1.39257,-1.85742 -1.26953,-2.01172 c -5.97426,-9.44119 -28.91196,-40.9539 -72.71289,-48.8164 l -0.27734,-0.0312 -0.33986,0 -25.29101,0 -49.31055,0 -25.85937,0 c -7.4037,-0.44163 -21.80273,-6.04956 -21.80273,-23.80274 0,-8.07918 4.89083,-14.39463 9.00781,-18.29492 l -0.10156,0 c 11.26751,-10.58652 24.29905,-17.36555 41.72656,-16.375 l 21.51465,1.76367 19.46922,2.38575 c 6.33094,3.66211 16.02947,9.2968 26.54297,15.18359 -0.0194,-0.004 -0.0372,-0.004 -0.0566,-0.008 1.09401,0.61342 2.22846,1.23414 3.33984,1.85156 1.09637,0.60856 2.16148,1.2014 3.26953,1.81055 1.00806,0.5544 2.00375,1.09849 3.01758,1.65039 1.97425,1.07478 3.94542,2.13461 5.91992,3.18555 0.51933,0.27623 1.03656,0.55834 1.55469,0.83203 2.60478,1.37702 5.1758,2.7063 7.71094,3.99219 1.23794,0.62714 2.46205,1.24062 3.67187,1.83789 1.02405,0.50621 2.02264,0.98748 3.02149,1.46875 0.82424,0.39662 1.64302,0.78833 2.44726,1.16601 0.90136,0.42378 1.78739,0.83495 2.66016,1.23242 0.72105,0.32808 1.41399,0.63279 2.11328,0.94141 5.40032,2.38502 10.15292,4.19484 13.7207,5.03711 0.11248,0.0268 0.21796,0.0493 0.32813,0.0742 0.48551,0.10877 0.94948,0.20021 1.38867,0.27148 0.24252,0.04 0.48123,0.0773 0.70899,0.10547 0.18623,0.0225 0.36877,0.0422 0.54492,0.0566 0.3443,0.0292 0.67239,0.0456 0.97656,0.043 0.0339,-4e-4 0.076,0.005 0.10937,0.004 0.93788,-0.0233 1.84394,-0.11487 2.72071,-0.26563 0.87482,-0.15042 1.72065,-0.36086 2.53515,-0.62305 0.40674,-0.13086 0.80547,-0.27379 1.19727,-0.42968 l 0.002,-0.002 c 0.39174,-0.15593 0.77743,-0.32288 1.1543,-0.50195 l 0.002,-0.002 c 0.37681,-0.17911 0.74542,-0.36801 1.10742,-0.56836 l 0.002,-0.002 c 0.36195,-0.20038 0.71723,-0.41112 1.06445,-0.63085 l 0.002,-0.002 c 0.34718,-0.21976 0.687,-0.44832 1.01954,-0.68554 l 0.002,-0.002 c 0.0819,-0.0585 0.15917,-0.12217 0.24023,-0.18164 0.88172,-0.64702 1.713,-1.34763 2.49024,-2.09179 0.0223,-0.0213 0.0462,-0.0411 0.0684,-0.0625 l 0.002,-0.002 c 0.57813,-0.55735 1.12792,-1.13722 1.64844,-1.73047 l 0.002,-0.002 c 0.52044,-0.59327 1.01125,-1.20045 1.47461,-1.81445 l 0.002,-0.002 c 0.9271,-1.22872 1.73972,-2.48435 2.44141,-3.70507 l 0.002,-0.002 c 0.35054,-0.60993 0.6737,-1.21166 0.96875,-1.79687 l 0.002,-0.002 c 0.29497,-0.58511 0.56078,-1.15396 0.80079,-1.69921 l 0.002,-0.002 c 0.2399,-0.54511 0.45123,-1.06652 0.63672,-1.55664 l 0.002,-0.002 c 0.18537,-0.48992 0.3431,-0.94933 0.47461,-1.36914 0.26371,-0.84178 0.42036,-1.5275 0.4707,-1.9961 l 0,-0.01 0.0293,-0.20508 0,-0.1543 c 0,-10.71033 -4.89147,-22.10351 -18.69726,-22.10351 -10.76388,0 -16.27473,7.06659 -18.63868,13.60547 -0.82333,1.31335 -1.16851,3.11089 -1.35156,5.63281 -0.002,0.015 -0.004,0.0319 -0.006,0.0469 0,0 -0.11441,1.13652 -0.23437,2.31641 -0.0246,0.14291 -0.042,0.27255 -0.0723,0.42188 l -2.32617,-1.46875 c -0.27801,-0.17715 -0.54448,-0.3606 -0.81641,-0.54102 -0.44189,-0.29763 -0.88563,-0.59407 -1.3125,-0.89844 -0.15502,-0.10972 -0.30993,-0.21932 -0.46289,-0.33008 -0.68825,-0.50086 -1.36087,-1.00809 -2.00976,-1.52539 -0.0789,-0.0632 -0.15411,-0.12795 -0.23243,-0.1914 -0.4794,-0.38643 -0.94044,-0.77912 -1.39843,-1.17383 -12.0275,-10.46688 -16.46094,-24.0807 -18.06641,-31.86719 l -0.55664,-2.72272 -127.31641,0 -0.86718,0.52546 c -9.43902,6.29783 -23.201744,16.53994 -34.757816,27.39453 l -0.0332,0 c -0.5471,0.51621 -1.061044,1.03812 -1.597657,1.55664 -0.456787,0.43962 -0.907293,0.87943 -1.355468,1.32031 -2.849693,2.81347 -5.530723,5.64209 -7.90625,8.43945 -6.066267,7.13092 -10.229471,14.03358 -10.625,19.76368 l -0.03125,0.64843 0.216796,0.61914 c 0.88207,2.72129 6.883372,18.26247 30.16211,31.26758 0.130794,0.0733 0.264594,0.14565 0.396484,0.21875 1.077568,0.59566 2.191756,1.18448 3.34375,1.76758 0.552915,0.28064 1.103343,0.56264 1.673828,0.83984 0.54251,0.26291 1.099593,0.52172 1.658204,0.78125 0.295569,0.13769 0.578773,0.27739 0.878906,0.41407 l 0.01758,-0.01 c 14.721103,6.68789 34.906103,12.15273 62.595703,13.9082 0.12382,0 49.4336,1.48633 49.4336,1.48633 13.99153,1.73347 24.64115,5.54055 30.42969,11.01953 3.80743,3.62171 5.69531,7.83211 5.69531,12.75391 0,6.28381 -2.22913,11.66996 -6.59375,15.97266 -8.14109,8.07918 -22.13153,10.52496 -29.77735,11.29882 0,0 -5.06461,1.66139 -6.95285,1.25899 -18.56042,1.09845 -23.65368,-0.2097 -35.27031,-1.8165 -1.9192,0 -5.94336,-1.11328 -5.94336,-1.11328 C 127.88367,290.14863 106.21485,267.1178 91.882812,251.82617 80.89389,240.1872 75.260214,234.67822 70.802734,234.52344 c -10.710332,-0.24763 -14.888241,9.06878 -15.662109,14.64062 -1.919192,13.03194 19.59416,23.2782 19.841797,23.3711 0.433366,0.21668 0.897302,0.4337 1.392578,0.65039 -0.309548,0.83577 -0.525391,1.51562 -0.525391,1.51562 -1.331052,3.83838 -1.394702,12.35069 6.777344,20.24414 10.679377,10.27697 27.334627,8.94702 28.015627,8.91602 0,0 0.30823,-0.0625 0.67969,-0.0625 l 0.58789,0.40234 c 10.43174,8.69828 34.48452,13.86869 44.32812,15.66406 l 7.81809,1.63004 z m 27.97215,-148.35639 c -0.006,-0.003 -0.0118,-0.007 -0.0176,-0.01 l -0.0312,0.002 c 0.0169,0.003 0.032,0.005 0.0488,0.008 z" id="path2032" inkscape:connector-curvature="0" sodipodi:nodetypes="cccccccccccscccccccccccccccccccccccccscccccccccccccccccccccccccccccccssccccccccccccccccccccccccccccccccccscccccccccccccccccccccc"/>
      <path sodipodi:nodetypes="ccccc" inkscape:connector-curvature="0" id="path4550" d="m 159.668,106.49997 0,70.74788 43.72,0 0,-70.748 z" style="color:#000000;font-style:normal;font-variant:normal;font-weight:normal;font-stretch:normal;font-size:medium;line-height:normal;font-family:sans-serif;text-indent:0;text-align:start;text-decoration:none;text-decoration-line:none;text-decoration-style:solid;text-decoration-color:#000000;letter-spacing:normal;word-spacing:normal;text-transform:none;direction:ltr;block-progression:tb;writing-mode:lr-tb;baseline-shift:baseline;text-anchor:start;white-space:normal;clip-rule:nonzero;display:inline;overflow:visible;visibility:visible;opacity:1;isolation:auto;mix-blend-mode:normal;color-interpolation:sRGB;color-interpolation-filters:linearRGB;solid-color:#000000;solid-opacity:1;fill:#000000;fill-opacity:1;fill-rule:nonzero;stroke:none;stroke-width:8;stroke-linecap:butt;stroke-linejoin:miter;stroke-miterlimit:4;stroke-dasharray:none;stroke-dashoffset:0;stroke-opacity:1;color-rendering:auto;image-rendering:auto;shape-rendering:auto;text-rendering:auto;enable-background:accumulate"/>
      <path style="color:#000000;font-style:normal;font-variant:normal;font-weight:normal;font-stretch:normal;font-size:medium;line-height:normal;font-family:sans-serif;text-indent:0;text-align:start;text-decoration:none;text-decoration-line:none;text-decoration-style:solid;text-decoration-color:#000000;letter-spacing:normal;word-spacing:normal;text-transform:none;direction:ltr;block-progression:tb;writing-mode:lr-tb;baseline-shift:baseline;text-anchor:start;white-space:normal;clip-rule:nonzero;display:inline;overflow:visible;visibility:visible;opacity:1;isolation:auto;mix-blend-mode:normal;color-interpolation:sRGB;color-interpolation-filters:linearRGB;solid-color:#000000;solid-opacity:1;fill:#000000;fill-opacity:1;fill-rule:nonzero;stroke:none;stroke-width:8;stroke-linecap:butt;stroke-linejoin:miter;stroke-miterlimit:4;stroke-dasharray:none;stroke-dashoffset:0;stroke-opacity:1;color-rendering:auto;image-rendering:auto;shape-rendering:auto;text-rendering:auto;enable-background:accumulate" d="m 159.668,286.49997 0,70.74788 43.72,0 0,-70.748 z" id="path4552" inkscape:connector-curvature="0" sodipodi:nodetypes="ccccc"/>
    </g>
  </g>
</svg>