<?xml version="1.0" encoding="UTF-8" standalone="no"?>
<!-- Created with Inkscape (http://www.inkscape.org/) -->

<svg
   xmlns:dc="http://purl.org/dc/elements/1.1/"
   xmlns:cc="http://creativecommons.org/ns#"
   xmlns:rdf="http://www.w3.org/1999/02/22-rdf-syntax-ns#"
   xmlns:svg="http://www.w3.org/2000/svg"
   xmlns="http://www.w3.org/2000/svg"
   xmlns:sodipodi="http://sodipodi.sourceforge.net/DTD/sodipodi-0.dtd"
   xmlns:inkscape="http://www.inkscape.org/namespaces/inkscape"
   id="svg2"
   version="1.1"
   inkscape:version="0.91 r13725"
   width="792.41315"
   height="1000"
   sodipodi:docname="Rugby Club Toulonnais.svg"
   inkscape:export-filename="G:\Multimedia\Image\Inkscape\images\L-Export-Full\Rct.png"
   inkscape:export-xdpi="72"
   inkscape:export-ydpi="72">
  <metadata
     id="metadata16">
    <rdf:RDF>
      <cc:Work
         rdf:about="">
        <dc:format>image/svg+xml</dc:format>
        <dc:type
           rdf:resource="http://purl.org/dc/dcmitype/StillImage" />
      </cc:Work>
    </rdf:RDF>
  </metadata>
  <defs
     id="defs14" />
  <sodipodi:namedview
     pagecolor="#ffffff"
     bordercolor="#666666"
     borderopacity="1"
     objecttolerance="10"
     gridtolerance="10"
     guidetolerance="10"
     inkscape:pageopacity="0"
     inkscape:pageshadow="2"
     inkscape:window-width="1280"
     inkscape:window-height="691"
     id="namedview12"
     showgrid="false"
     inkscape:zoom="0.71053183"
     inkscape:cx="333.95016"
     inkscape:cy="475.35097"
     inkscape:window-x="0"
     inkscape:window-y="1"
     inkscape:window-maximized="1"
     inkscape:current-layer="svg2" />
  <path
     inkscape:connector-curvature="0"
     id="path3033"
     d="M 396.21964,0 C 274.96105,60.612632 137.44221,70.254913 4.8773235,84.456088 -8.0576268,216.33724 5.6279326,350.34158 35.37882,479.13548 72.46907,636.52423 150.39161,784.39038 264.32717,899.7006 302.44112,939.13696 340.51457,968.74153 396.21964,1000 451.92471,968.74152 489.99816,939.13696 528.1121,899.7006 642.04766,784.39038 719.97021,636.52423 757.06046,479.13548 786.81134,350.34158 800.46572,216.36842 787.53077,84.487275 654.96588,70.286101 517.47823,60.612632 396.21964,0 z"
     style="fill:#cc051d;fill-opacity:1" />
  <path
     style="fill:#000000"
     d="m 396.21468,160.13156 c -105.92591,52.11343 -211.40213,57.37526 -321.500005,65.5 1.94908,89.05092 2.11065,127.42221 15.09375,198.375 17.265335,94.35531 62.377365,201.8854 122.718755,292.5 55.89299,78.1365 125.75373,163.15922 183.875,201 58.12127,-37.84078 127.57576,-122.8635 183.46875,-201 60.34139,-90.6146 105.48467,-198.14469 122.75,-292.5 12.9831,-70.95279 13.11342,-109.32408 15.0625,-198.375 -110.09787,-8.12474 -215.54284,-13.38657 -321.46875,-65.5 z"
     id="path3851"
     inkscape:connector-curvature="0" />
  <g
     id="g3901"
     transform="translate(-103.78398,0.0768148)">
    <path
       style="opacity:0.9875;fill:#149035;fill-opacity:0.84615383"
       d="m 635.5,327 c -0.86724,0 -1.1915,3.63684 -1.1875,13.25 7.1e-4,1.72845 0.003,3.35169 -0.0312,4.90625 -0.0205,0.93491 -0.0591,1.80357 -0.0937,2.6875 -0.0471,1.00004 -0.092,1.99887 -0.15625,2.96875 -0.0441,0.70609 -0.10025,1.41081 -0.15625,2.09375 -0.0342,0.42152 -0.0874,0.83398 -0.125,1.25 -0.61318,6.47692 -1.7921,12.14561 -3.90625,19.4375 -1.75914,6.06742 -3.51201,8.97207 -12.09375,20 -9.56508,12.29159 -24.28978,33.58134 -31.28125,45.1875 -1.78688,2.9663 -3.52436,4.95427 -3.84375,4.4375 -0.184,-0.29772 -0.17951,-1.88269 -0.0625,-4 0.16694,-1.66294 0.30421,-3.36565 0.4375,-5.125 0.005,-0.0725 0.0258,-0.14617 0.0312,-0.21875 1.16031,-10.0924 1.23268,-19.96497 0.46875,-28.1875 -0.11049,-1.63919 -0.25141,-3.11519 -0.4375,-4.1875 -0.0406,-0.23368 -0.0825,-0.45665 -0.125,-0.6875 -1.27632,-8.58066 -3.64092,-14.55739 -6.75,-15.59375 -1.73799,-0.57933 -1.45666,1.59381 0.8125,6.28125 1.09989,2.27209 2.50881,6.79844 3.125,10.0625 0.37137,1.96717 0.58329,4.8982 0.65625,8.375 0.0182,0.8692 0.0303,1.75403 0.0312,2.6875 -3.2e-4,0.24473 10e-4,0.47023 0,0.71875 -0.002,0.71077 -0.0194,1.41694 -0.0312,2.15625 -0.0281,1.77909 -0.0845,3.61439 -0.15625,5.5 -0.009,0.22378 -0.0211,0.43141 -0.0312,0.65625 -0.38126,8.43261 -1.24205,17.57389 -2.46875,24.34375 -1.64724,9.09071 -2.83791,12.31194 -8.8125,24 -3.79545,7.425 -9.10292,18.675 -11.78125,25 -4.91009,11.5954 -6.09793,13.77706 -7,12.875 C 550.25992,507.60367 549.57609,504.02951 549,499.9375 546.51812,482.30852 539.81417,464 535.84375,464 c -1.44948,0 -0.94397,2.91946 1.28125,7.28125 4.844,9.49503 8.78075,24.96128 9.6875,37.46875 0.0525,0.82778 0.0965,1.6295 0.125,2.4375 0.003,0.0615 -0.002,0.12621 0,0.1875 0.028,0.84675 0.062,1.71104 0.0625,2.53125 4.1e-4,0.64522 -0.0189,1.2757 -0.0625,1.9375 -0.30492,4.6326 -1.81117,10.20928 -6.34375,24.0625 C 537.06535,550.69034 533.1867,563.325 532,568 c -2.46162,9.6975 -3.59988,11.58497 -4.53125,7.40625 -2.07817,-9.32406 -4.84381,-15.40625 -7,-15.40625 -1.93304,0 -1.88951,0.29297 0.96875,7.4375 1.34044,3.35057 2.98984,9.89492 3.65625,14.5625 1.17017,8.19596 1.07184,9.11627 -2.40625,26.5 -5.61465,28.06237 -10.65424,73.06744 -12.3125,110 -0.6266,13.95564 -1.65512,20.56364 -3,19.21875 -0.30851,-0.30851 -2.07975,-8.21028 -3.9375,-17.5625 C 487.02186,637.5169 449.54694,543.1738 394,444.625 c -7.60115,-13.4856 -12.87909,-24.03906 -13.75,-27.5 -0.14389,-0.57179 -0.27646,-1.21139 -0.40625,-1.90625 -1.94689,-10.42287 -2.27671,-33.78449 -0.46875,-42.71875 1.91093,-9.44306 9.55941,-25.74778 13.1875,-28.125 2.69638,-1.76673 3.3226,-5.375 0.9375,-5.375 -0.1601,0 -0.36157,0.11532 -0.59375,0.25 -0.49972,0.11621 -1.07807,0.60795 -1.875,1.59375 -0.0444,0.0549 -0.0791,0.0984 -0.125,0.15625 -3.50033,3.76503 -9.01461,11.97015 -10.84375,16.75 -3.18803,8.33085 -4.63962,16.36893 -4.90625,27.78125 -0.0192,0.65722 -0.0207,1.32447 -0.0312,2 -0.007,0.66508 -0.0314,1.34231 -0.0312,2.03125 -0.004,1.3083 0.038,2.65119 0.0625,4.03125 0.006,0.31289 -0.007,0.58844 0,0.90625 0.19384,8.84418 -0.0521,15.35819 -0.5625,15.1875 -0.49215,-0.16458 -6.55585,-9.27655 -13.5,-20.25 -15.71744,-24.83738 -25.21704,-38.70471 -26.84375,-39.21875 -0.94767,-0.29947 -1.3503,0.0225 -1.15625,1 -0.0772,0.13615 -0.0937,0.34904 -0.0937,0.625 0,0.3047 0.78938,1.66621 1.90625,3.40625 0.0385,0.0691 0.054,0.11683 0.0937,0.1875 1.43877,2.55844 3.70873,6.10963 6.84375,10.8125 17.38729,26.08281 18.3481,27.90681 13.40625,25.40625 -4.17681,-2.11345 -12.22564,-3.59571 -19.46875,-4.15625 -0.25948,-0.0201 -0.52404,-0.0448 -0.78125,-0.0625 -0.0531,-0.004 -0.10328,0.004 -0.15625,0 -0.80437,-0.0607 -1.57726,-0.097 -2.34375,-0.125 -0.12583,-0.005 -0.25039,-0.0276 -0.375,-0.0312 -0.32157,-0.0107 -0.62356,0.006 -0.9375,0 C 325.42067,387.16515 321,387.78796 321,389.375 c 0,0.82479 2.92709,1.16225 9.75,1.15625 11.50382,-0.009 21.24315,2.6129 28.8125,7.71875 3.98132,2.68557 6.27917,5.62758 13,16.8125 12.27975,20.43619 28.76245,49.92505 28.21875,50.46875 -0.26404,0.26404 -3.12574,-0.85372 -6.375,-2.5 -6.3578,-3.22126 -13.89461,-4.68592 -21.6875,-4.40625 -5.67308,0.2036 -11.49934,1.3248 -17.0625,3.40625 -6.11259,2.28702 -11.78139,5.81566 -12.40625,7.71875 -0.28193,0.85864 0.0693,1.26242 1.0625,1.1875 0.036,0.0347 0.086,0.0625 0.125,0.0625 0.0234,0 0.22011,-0.0912 0.3125,-0.125 1.5941,-0.27512 4.37546,-1.43888 8.40625,-3.46875 9.84304,-4.95688 19.20046,-6.78074 27.125,-5.34375 11.226,2.03566 22.3017,9.06158 28.25,17.9375 3.80601,5.67925 28.46875,54.97915 28.46875,56.90625 0,1.38077 -0.0581,1.38441 -4.34375,-0.40625 -2.10419,-0.87919 -4.65582,-1.33673 -7.3125,-1.4375 -0.29987,-0.0114 -0.60385,-0.0293 -0.90625,-0.0312 -0.13931,-7.5e-4 -0.29292,-0.004 -0.4375,0 -0.2813,0.007 -0.5764,0.009 -0.875,0.0312 -4.95375,0.18679 -10.00457,1.56378 -13.1875,3.96875 -1.75315,1.32465 -2.12037,2.15801 -1.34375,2.9375 0.77786,0.78073 2.60448,0.37586 6.5,-1.4375 9.40659,-4.37873 15.32811,-2.85412 24.125,6.15625 3.70883,3.79884 5.96784,7.67125 10.375,17.84375 C 472.35187,617.06101 490.55251,672.80192 500,719 c 5.21721,25.51211 6.91692,38.69847 7.5625,59.53125 0.0178,0.57338 0.0151,1.16447 0.0312,1.75 0.0418,1.89756 0.11746,3.79807 0.15625,5.96875 0.13244,7.41196 0.14672,13.34324 0.0937,17.875 -0.17594,6.39583 -0.71871,7.85401 -1.78125,5.875 -0.44295,-0.825 -2.25255,-6.45 -4.03125,-12.5 -10.62675,-36.14551 -28.07626,-69.43313 -51.75,-98.78125 -9.6895,-12.01198 -11.00388,-13.56645 -25.03125,-27.75 -0.53143,-0.55142 -1.05645,-1.10409 -1.59375,-1.65625 -3.02852,-3.11226 -6.17657,-6.26941 -9.40625,-9.4375 -11.8025,-11.83861 -17.86022,-17.54179 -29.15625,-27.5 -2.42103,-2.1343 -5.13286,-4.55 -6.03125,-5.375 -9.21423,-8.4615 -33.11431,-26.17358 -41.0625,-30.4375 -8.89876,-4.77387 -11.16824,-6.39965 -19.3125,-13.71875 -10.73111,-9.64384 -23.78356,-23.08829 -32.1875,-33.1875 -1.95419,-2.3484 -4.37275,-5.18392 -5.90625,-6.9375 -1.35021,-1.71615 -2.62134,-3.3499 -3.78125,-4.9375 -0.0491,-0.0737 -0.10657,-0.17472 -0.15625,-0.25 C 273.08527,532.1205 267.91244,522.71521 259,505.625 c -6.91897,-13.26759 -9.48421,-17.87911 -11.25,-19.40625 -0.28137,-0.38434 -0.51036,-0.67321 -0.625,-0.71875 -0.72124,-0.28653 -1.34234,-0.2666 -1.875,0.0312 -0.008,0.004 -0.0234,-0.005 -0.0312,0 -1.62348,0.16922 -1.87168,1.20568 -2.53125,6.96875 -0.28424,2.48358 -0.32164,5.98008 -0.21875,9.9375 0.0388,1.49276 0.10017,3.00664 0.1875,4.625 0.0188,0.34003 0.0414,0.68649 0.0625,1.03125 0.52911,8.94285 1.7064,19.25039 3.3125,27.21875 2.92522,14.51299 9.08361,32.10683 16.53125,47.3125 10.19809,20.82118 28.04921,46.40932 45.625,65.375 2.80331,3.025 8.76051,9.43187 13.21875,14.25 10.45157,11.29526 35.75251,36.59258 48.78125,48.75 5.59948,5.225 12.30193,11.525 14.90625,14 2.60432,2.475 7.35773,6.75 10.53125,9.5 3.17352,2.75 7.58018,6.64234 9.8125,8.65625 2.23231,2.01392 7.6625,6.73369 12.0625,10.5 4.4,3.76631 9.125,7.83777 10.5,9.03125 2.07195,1.79843 16.78445,13.85604 36.59375,30 21.28732,17.34848 42.92458,35.59583 43.25,36.46875 0.66803,1.7919 3.55843,0.3292 4.25,-2.15625 0.41517,-1.49207 0.67559,-5.92653 0.75,-11.65625 0.005,-0.20124 -0.005,-0.45119 0,-0.65625 0.10173,-4.51522 0.0458,-9.99083 -0.1875,-16.0625 -0.0351,-1.14886 -0.0808,-2.26535 -0.125,-3.40625 -0.14483,-3.73519 -0.32118,-7.40483 -0.5625,-10.71875 -0.0598,-0.82071 -0.10849,-1.72413 -0.15625,-2.625 -0.2728,-6.77029 -0.3563,-14.75793 -0.21875,-23.53125 0.005,-0.31416 0.0258,-0.62136 0.0312,-0.9375 0.84058,-39.95065 5.81674,-100.85557 10.6875,-128.46875 0.0531,-0.29727 0.10308,-0.55262 0.15625,-0.84375 0.1954,-1.08158 0.36788,-2.09357 0.5625,-3.0625 0.0309,-0.15508 0.0628,-0.28462 0.0937,-0.4375 0.66718,-3.26683 1.32615,-5.84818 1.96875,-7.59375 3.83786,-10.42529 11.84002,-23.9546 18.65625,-32.03125 0.85938,-0.92931 1.69043,-1.84911 2.4375,-2.6875 0.0714,-0.0802 0.11744,-0.13982 0.1875,-0.21875 0.33764,-0.34102 0.6736,-0.69696 1,-1 1.08496,-1.00734 1.84628,-1.9959 2.25,-2.84375 0.2278,-0.30852 0.375,-0.55557 0.375,-0.625 0,-0.11279 -0.0115,-0.19449 -0.0312,-0.28125 -0.002,-0.0105 0.003,-0.0212 0,-0.0312 C 550.08304,576.50682 549.70918,576 548.8125,576 c -1.71029,0 -10.29606,9.44643 -15.3125,16.84375 -2.3605,3.48082 -4.53241,5.91001 -4.84375,5.40625 -1.07906,-1.74595 10.73689,-45.56661 16.3125,-60.46875 1.13279,-3.02765 3.53474,-7.68415 5.3125,-10.375 5.50911,-8.33865 20.01891,-21.85466 32.25,-30 11.07927,-7.37827 12.18383,-8.34742 10.84375,-9.6875 -1.98813,-1.98813 -22.46618,12.58063 -36.625,26.0625 -2.0625,1.96389 -3.75,3.04541 -3.75,2.40625 0,-0.63915 2.73962,-7.59249 6.09375,-15.4375 11.57667,-27.07687 30.72212,-62.66419 36.59375,-68.03125 1.5394,-1.40712 4.8375,-4.47368 7.3125,-6.78125 13.85246,-12.91538 38.14707,-24.64406 56.53125,-28 0.0102,-0.002 0.0211,0.002 0.0312,0 0.76865,-0.13998 1.53452,-0.23357 2.28125,-0.34375 1.37858,-0.18046 2.76863,-0.31739 4.15625,-0.4375 0.27508,-0.0238 0.48872,-0.0674 0.75,-0.0937 0.7846,-0.0434 1.56691,-0.0625 2.3125,-0.0625 3.71966,0 4.9375,-0.36932 4.9375,-1.5 0,-1.19977 -2.66497,-1.62876 -6.71875,-1.46875 -0.12996,0.005 -0.27346,-0.006 -0.40625,0 -2.58821,0.0331 -5.51626,0.39208 -8.65625,0.96875 -0.41432,0.0761 -0.82826,0.16522 -1.25,0.25 -4.88599,0.86713 -10.17582,2.14426 -14.96875,3.75 -9.92318,3.32448 -18.39822,7.6388 -28.65625,14.59375 -5.13105,3.47885 -9.34375,5.89055 -9.34375,5.375 0,-1.13938 22.16726,-30.5305 28.1875,-37.375 8.06999,-9.17488 32.78419,-33.47763 39.8125,-39.15625 7.05891,-5.70334 7.8745,-6.79093 5.96875,-7.96875 -1.05669,-0.65307 -5.88518,2.95619 -16.09375,12.03125 -3.09469,2.75107 -8.16404,7.17533 -11.28125,9.84375 -3.11722,2.66842 -7.50832,7.28092 -9.75,10.25 -0.50705,0.67159 -0.98723,1.26788 -1.4375,1.8125 -1.60678,1.50711 -3.03432,2.78741 -3.90625,3.5 -0.0198,0.005 -0.0432,0.0273 -0.0625,0.0312 -1.33223,0.27461 -1.35945,-2.0104 0.15625,-6.8125 0.24108,-0.7638 0.86733,-6.49016 1.375,-12.71875 C 638.03076,339.3764 637.307,327 635.5,327 z m 83.15625,201.03125 c -0.81633,0.0209 -1.89012,0.0978 -3.125,0.1875 -0.33699,0.0207 -0.50603,0.008 -0.875,0.0312 -23.85934,1.53185 -71.24681,25.28563 -96.25,48.25 -22.63049,20.78515 -37.00047,38.56259 -50.15625,62 -21.76578,38.77638 -38.69752,105.15695 -46.15625,180.96875 -0.0175,0.17813 -0.0451,0.35302 -0.0625,0.53125 -0.0429,0.43874 -0.0823,0.92915 -0.125,1.375 -0.77757,7.84323 -1.437,15.5348 -1.90625,22.9375 -0.013,0.20555 -0.0185,0.41989 -0.0312,0.625 -0.66151,9.24801 -1.17384,17.77884 -1.375,23.4375 -0.0555,0.68309 -0.11064,1.44454 -0.15625,1.875 -0.28071,2.64959 -0.31435,3.85279 0.125,4.375 0.0261,0.33111 0.0453,0.54594 0.0937,0.625 0.80219,1.30782 1.88261,0.82637 4.53125,-2 4.17013,-4.44995 6.29641,-9.60796 17.21875,-42 19.92354,-59.08663 28.36605,-80.80286 42.625,-109.75 16.06579,-32.61521 34.79193,-60.3526 50.40625,-74.78125 0.13822,-0.12772 0.26853,-0.24937 0.40625,-0.375 0.89951,-0.82054 1.81036,-1.58296 2.6875,-2.3125 5.55555,-4.62063 12.65592,-9.0312 14.5625,-9.0312 1.4847,0 1.98447,-1.20885 1.78125,14.375 -0.003,0.243 -0.0277,0.56109 -0.0312,0.8125 -0.31616,12.14919 -0.68122,29.83094 -0.9375,46.03125 -0.40897,20.30818 -0.56496,36.43505 -0.34375,36.65625 0.24253,0.24254 3.16166,-2.44119 6.5,-5.96875 38.93784,-41.14487 63.6161,-99.27846 67.96875,-160.1875 1.05231,-14.72557 -0.006,-32.9159 -2.125,-36.875 -0.71159,-1.32961 -1.29378,-1.79344 -3.9375,-1.8125 -0.24686,-0.0142 -0.54729,-8.1e-4 -0.84375,0 -0.1647,4.5e-4 -0.28689,-0.005 -0.46875,0 z"
       id="path3911"
       inkscape:connector-curvature="0" />
    <path
       style="fill:#149035;fill-opacity:1"
       d="m 531.375,329.46875 c -1.06799,0.01 -0.64084,8.40362 -0.59375,11.5 0.0866,8.31755 -0.42241,11.34132 -1.59375,20.375 -2.02317,15.71444 -4.14881,20.02239 -15.375,34.375 -9.2023,11.76507 -28.8815,40.43858 -33.21875,48.40625 -0.97968,1.79969 -2.05214,3.01037 -2.375,2.6875 -0.32287,-0.32286 -0.009,-6.68083 0.6875,-14.125 1.89683,-20.26073 0.21978,-35.94967 -4.625,-43.34375 -0.44187,-0.67438 -0.81003,-1.09458 -1.125,-1.40625 -0.34574,-0.5295 -0.62803,-0.80947 -0.78125,-0.65625 -0.0325,0.0325 -0.0584,0.10471 -0.0625,0.1875 -0.38819,0.25282 -0.12971,1.74767 0.96875,4.0625 0.91112,1.92005 2.1505,6.12538 2.75,9.3125 1.42999,7.6022 0.45414,33.79957 -1.71875,46.78125 -1.24905,7.46234 -2.32265,10.99584 -7.25,21.4375 -2.59505,4.70184 -5.4065,10.51991 -6.6875,13.96875 -0.004,0.0113 -0.0272,0.0202 -0.0312,0.0312 -0.0301,0.0634 -0.0639,0.12409 -0.0937,0.1875 -3.63935,7.67442 -7.03475,15.075 -8.40625,18.375 -1.28155,3.08358 -2.24918,5.30017 -3,6.8125 -0.0333,0.0607 -0.0611,0.15957 -0.0937,0.21875 -0.20253,0.39977 -0.39007,0.76548 -0.5625,1.0625 -0.0354,0.06 -0.0906,0.13006 -0.125,0.1875 -0.15383,0.25237 -0.30505,0.48488 -0.4375,0.65625 -0.51087,0.66099 -0.89698,0.75927 -1.21875,0.4375 -0.27133,-0.27133 -0.95779,-3.84549 -1.53125,-7.9375 -1.69271,-12.07854 -6.67082,-28.36891 -10.1875,-34.1875 -0.004,-0.008 0.004,-0.0233 0,-0.0312 -0.0526,-0.0868 -0.10429,-0.13672 -0.15625,-0.21875 -0.13205,-0.22086 -0.24994,-0.43888 -0.40625,-0.625 -0.28827,-0.39432 -0.58442,-0.75353 -0.84375,-0.96875 -1.95852,-1.62542 -1.86156,0.32088 0.21875,4.34375 5.31725,10.28242 9.368,29.13853 9.375,43.65625 0.004,7.63904 -0.58893,10.18126 -6.5625,28.4375 -3.60954,11.03139 -7.42809,23.61167 -8.46875,27.96875 -1.04065,4.35707 -2.08054,8.14305 -2.34375,8.40625 -0.89402,0.89402 -2.625,-0.83264 -2.625,-2.625 0,-2.34001 -3.76659,-13.26659 -5,-14.5 -1.81004,-1.81004 -2.02802,0.0996 -0.4375,3.90625 2.09502,5.01409 4.4375,17.4266 4.4375,23.53125 0,2.67552 -1.56881,12.64265 -3.46875,22.15625 -3.25423,16.29501 -8.6447,54.95074 -8.5625,61.375 0.0207,1.61287 -0.39423,6.5375 -0.9375,10.9375 -0.9966,8.07151 -2.16434,25.42604 -2.8125,42 -0.43952,11.23895 -1.67465,20.48018 -2.46875,18.5 -0.33084,-0.825 -1.54986,-6.9 -2.71875,-13.5 -14.50159,-81.88042 -54.85224,-184.90231 -112.3125,-286.65625 -10.84475,-19.20452 -11.77003,-21.2466 -13.1875,-29.375 -0.83803,-4.80561 -1.52325,-11.47829 -1.53125,-14.84375 -0.008,-3.36546 -0.59499,-4.48795 -0.5625,-7.59375 0.0352,-3.36355 0.54285,-6.78662 0.5625,-9.71875 0.0378,-12.78135 6.11251,-29.80686 13.53125,-37.90625 1.0682,-0.96296 1.43661,-2.03494 2.25,-3 0.37274,-0.70034 0.54733,-0.59541 0.125,-1.28125 -1.80778,-0.33751 -1.24885,0.2552 -3.96875,2.9375 -2.65466,3.43742 -5.23077,7.08562 -6.9375,10.4375 -6.61681,9.91373 -7.41945,31.00896 -7.4375,38.03125 -0.005,1.90711 -0.10447,5.12296 -0.15625,11.65625 -0.0341,4.29909 0.33272,7.11961 0.0625,8.1875 -0.14004,0.0662 -0.30122,0.125 -0.4375,0.125 -0.11624,0 -0.34803,-0.21478 -0.65625,-0.53125 -1.82088,-2.40099 -6.757,-9.87706 -12.25,-18.65625 -13.96921,-22.3263 -25.6262,-39.87425 -27.09375,-40.78125 -0.89192,-0.55123 -1.19682,-0.40748 -0.875,0.5625 -0.31896,0.32174 0.54219,1.9313 2.71875,5.15625 1.68556,2.79238 4.13036,6.57354 7.46875,11.625 11.41257,17.26881 15.36396,23.57277 14.3125,24.625 -0.38621,0.076 -0.88561,0.0745 -1.5,-0.0312 -0.72911,-0.23851 -1.64906,-0.66509 -2.8125,-1.25 -3.82341,-1.92218 -12.0193,-4.14118 -15.84375,-4.28125 -9.90044,-0.36258 -15.15792,0.0547 -15.625,1.21875 -0.25142,0.0376 -0.46403,0.12028 -0.59375,0.25 -0.27811,0.27811 0.0982,0.46407 0.84375,0.5 0.30403,0.27108 0.76977,0.38584 1.21875,0.25 5.34765,-1.61803 23.64173,1.22016 31.0625,4.8125 8.35476,4.04446 14.97043,13.55974 38.9375,56.15625 9.86515,17.53327 9.88278,17.95727 0.59375,12.96875 -8.1111,-4.35594 -12.82687,-5.34562 -24.90625,-5.15625 -5.76281,0.0903 -23.75564,7.15826 -25.53125,10.03125 -0.50055,0.80991 -0.21772,1.08351 0.78125,0.875 0.28291,0.0842 0.87179,-0.0986 2.03125,-0.65625 1.23892,-0.50342 2.81866,-1.25899 4.84375,-2.28125 5.81406,-2.93493 17.06945,-6.10745 21.34375,-6.03125 6.88677,0.12277 15.85834,2.58753 21.53125,5.9375 11.03303,6.51523 14.38086,11.26168 29.40625,41.5625 7.46445,15.05312 13.5625,28.10428 13.5625,29 0,2.09998 -0.86471,2.05735 -6.15625,-0.34375 -2.39756,-1.08792 -5.79563,-1.9879 -7.5625,-2 -3.54828,-0.0243 -13.89921,3.51488 -14.875,5.09375 -1.26333,2.04411 0.59983,2.05445 4.84375,0 5.14451,-2.49041 13.4931,-2.8242 17.625,-0.6875 1.53412,0.79332 5.24268,4.08453 8.21875,7.3125 4.61051,5.00074 6.39232,8.23195 12.09375,21.8125 27.18046,64.7426 43.09751,117.64293 52.5,174.4375 2.18211,13.18082 2.66127,19.65208 3.0625,43.25 0.24248,14.26108 0.15557,23.98553 -0.21875,26.8125 -0.001,0.0101 -0.0299,0.0214 -0.0312,0.0312 -0.10968,0.25993 -0.22138,0.40625 -0.34375,0.40625 -0.15435,0 -0.35662,-0.24025 -0.59375,-0.59375 -0.84384,-1.8048 -2.19853,-5.67412 -3.5,-10.15625 C 395.12079,790.7315 389.91958,776.82604 384,763.5 c -0.3017,-0.69477 -0.59997,-1.3726 -0.90625,-2.0625 -0.084,-0.18589 -0.1657,-0.37687 -0.25,-0.5625 -1.57484,-3.52596 -3.2331,-6.99279 -4.9375,-10.40625 -0.84144,-1.68518 -1.68687,-3.36918 -2.5625,-5.03125 -0.13611,-0.26235 -0.26975,-0.52 -0.40625,-0.78125 -0.23821,-0.44843 -0.47794,-0.89684 -0.71875,-1.34375 -3.96904,-7.50351 -8.08184,-14.55483 -12.21875,-20.78125 -20.72368,-31.19104 -52.14499,-64.63858 -91.125,-97 -13.24794,-10.99846 -30.90285,-23.89275 -37.5,-27.40625 -9.47153,-5.04432 -15.8991,-10.34601 -31.46875,-25.96875 -24.5107,-24.59428 -31.07477,-33.0346 -45.9375,-61.34375 -0.82541,-1.57216 -1.71254,-3.23647 -2.59375,-4.9375 -0.19266,-0.37359 -0.31297,-0.63833 -0.5,-1 -1.78382,-3.45064 -3.43143,-6.5224 -4.9375,-9.3125 -2.75249,-5.09918 -4.84465,-8.7881 -5.1875,-9 -5.40294,-3.3392 -5.85115,22.99768 -0.8125,48 7.35601,36.50124 29.0028,76.57043 60.8125,112.53125 38.75312,43.81037 85.00032,86.74545 153.6875,142.6875 8.21155,6.68787 22.3625,18.45505 31.4375,26.15625 9.075,7.70119 17.05245,14.04531 17.71875,14.09375 2.80482,0.20389 3.55161,-7.99807 2.65625,-28.90625 -1.26014,-29.42638 -0.37336,-71.76782 2.15625,-103 0.77957,-9.625 1.41125,-18.625 1.40625,-20 -0.0125,-3.28654 3.56576,-32.54487 5.6875,-46.5 0.9344,-6.14572 2.9058,-14.05559 4.46875,-17.90625 3.91899,-9.65529 11.47484,-21.82391 17.65625,-28.46875 2.88349,-3.09966 5.246,-5.94851 5.25,-6.34375 0.0302,-2.97399 -10.46851,8.24907 -16.40625,17.53125 -2.64226,4.13052 -4.83288,6.31153 -5.34375,5.625 -0.0455,-0.1593 -0.0591,-0.34516 -0.0937,-0.53125 -0.004,-0.0212 0.004,-0.041 0,-0.0625 0.0128,-0.27742 0.0656,-0.645 0.1875,-1.09375 0.26149,-0.9625 1.21178,-5.125 2.125,-9.25 2.47305,-11.17065 8.22069,-31.93299 12.625,-45.59375 2.67391,-8.29362 5.19727,-13.9369 8.03125,-18 6.25757,-8.97156 18.70362,-20.47381 31.4375,-29.0625 10.34905,-6.98021 13.03213,-9.34375 10.59375,-9.34375 -2.84728,0 -28.28074,19.18573 -35.75,26.96875 -1.82818,1.90497 -3.65671,3.12454 -4.0625,2.71875 -1.92085,-1.92084 20.70852,-50.63079 33.0625,-71.1875 4.7521,-7.90738 8.63559,-12.91825 13.84375,-17.84375 7.64438,-7.22949 21.53881,-17.00641 30.75,-21.625 11.09285,-5.56206 27.58528,-10.03125 37,-10.03125 5.01624,0 7.45856,-1.50423 4.375,-2.6875 -2.59882,-0.99726 -17.17082,1.38367 -26.0625,4.25 -4.10756,1.32412 -8.56249,3.12476 -13.0625,5.21875 -0.0428,0.0199 -0.0822,0.0425 -0.125,0.0625 -3.35799,1.36005 -5.97511,2.59679 -6.96875,3.46875 -5.16089,2.7481 -10.11635,5.78224 -14.3125,8.8125 -4.56851,3.29915 -8.46195,5.5204 -8.65625,4.9375 -0.51759,-1.55275 17.03602,-25.43143 28.3125,-38.5 8.15088,-9.44624 34.82059,-35.88851 41.40625,-41.0625 5.57714,-4.38165 7.31358,-6.5 5.34375,-6.5 -0.36673,0 -3.53834,2.53767 -7.3125,5.78125 -1.96667,1.60187 -4.21728,3.47703 -6.75,5.75 -3.02931,2.55782 -5.96875,4.98346 -7.6875,6.3125 -4.34733,3.36164 -7.35257,6.44123 -16.15625,16.5 -2.25346,2.11029 -4.0181,3.72797 -4.84375,4.34375 -0.005,0.004 -0.0263,-0.004 -0.0312,0 -0.0993,0.014 -0.15884,0.006 -0.21875,-0.0312 -0.47926,-0.2962 -0.0837,-4.50142 0.90625,-9.34375 1.85725,-9.08443 1.47777,-14.63613 1.5625,-16.53125 0.0879,-1.96477 -0.29592,-7.02888 0,-9.28125 0.29274,-2.22821 0.43338,-9.28789 -0.71875,-10 -0.17767,-0.1098 -0.34066,-0.15769 -0.5,-0.15625 z M 230.28125,353.125 c 0.0263,0 0.0753,0.0269 0.125,0.0625 -0.0407,-0.007 -0.0898,-0.0294 -0.125,-0.0312 0.006,-0.006 -0.0103,-0.0312 0,-0.0312 z m 319.4375,3.25 c -1.82742,1.75995 -3.68683,3.60013 -5.59375,5.5 -2.08057,2.07288 -4.05376,3.967 -5.875,5.71875 1.95424,-2.59004 7.86291,-8.25836 11.46875,-11.21875 z m -324.0625,33.4375 c 0.45731,0.0229 1.03125,0.0292 1.71875,0.0312 0.54022,10e-4 0.95837,-0.0188 1.375,-0.0312 -0.27831,0.0634 -0.7098,0.11678 -1.375,0.125 -0.80659,0.01 -1.38963,-0.043 -1.71875,-0.125 z m 20.1875,2.3125 c 0.085,-0.002 0.12081,8.9e-4 0.21875,0 0.81378,-0.007 1.71627,0.35649 2.15625,0.8125 -0.71979,-0.28377 -1.52867,-0.54903 -2.375,-0.8125 z m 320.5625,4.59375 c -0.40781,0.0796 -1.29375,0.125 -2.53125,0.125 -0.61875,0 -1.13887,-0.009 -1.5625,-0.0312 0.35303,0.005 0.65009,7.5e-4 1.0625,0 1.48015,-0.003 2.47049,-0.0315 3.03125,-0.0937 z M 538,401.125 c 0.1375,0 0.25626,0.043 0.34375,0.0937 -0.55751,0.18166 -1.10059,0.34452 -1.65625,0.53125 0.37593,-0.35859 0.9,-0.625 1.3125,-0.625 z m -0.25,1.625 c -0.32305,0.22218 -0.69086,0.375 -1,0.375 0.33173,-0.11694 0.66204,-0.26064 1,-0.375 z m -59.03125,11.03125 c 0.0749,2.11054 0.0749,4.57696 0,6.6875 0.0488,-2.12891 0.0488,-4.55859 0,-6.6875 z m -1.1875,19.53125 c 0.007,0.0252 0.024,0.0344 0.0312,0.0625 0.25152,0.9625 0.25152,2.5375 0,3.5 -0.0818,0.31281 -0.15053,0.41085 -0.21875,0.375 0.10263,-1.79863 0.15794,-3.10175 0.1875,-3.9375 z m -193.5,7.28125 c 0.0695,0.11874 0.11762,0.19311 0.1875,0.3125 0.11576,0.19777 0.19823,0.36701 0.3125,0.5625 -0.20197,-0.20197 -0.38032,-0.52564 -0.5,-0.875 z m 5.34375,6.6875 c 0.19404,0.25625 0.34211,0.4964 0.40625,0.71875 -0.13595,-0.24287 -0.27053,-0.47604 -0.40625,-0.71875 z m -1.40625,0.0937 c 0.24558,0.42775 0.45104,0.77357 0.6875,1.1875 -0.0406,-0.0307 -0.0875,-0.0562 -0.125,-0.0937 -0.24495,-0.24495 -0.44971,-0.66509 -0.5625,-1.09375 z m 4.96875,8.84375 c 0.24344,0.44745 0.49262,0.92224 0.71875,1.34375 -0.0406,-0.0307 -0.0875,-0.0562 -0.125,-0.0937 -0.275,-0.27499 -0.49512,-0.77261 -0.59375,-1.25 z m 146.09375,24.5 c 0.14921,0.21142 0.31045,0.4814 0.4375,0.8125 0.21458,0.55919 0.31719,1.12968 0.3125,1.5625 -0.23801,-0.77767 -0.49071,-1.56302 -0.75,-2.375 z m 18.25,9.9375 c -0.43878,1.03114 -0.88406,2.05071 -1.34375,3.09375 -0.0217,-0.043 -0.0292,-0.1147 -0.0312,-0.1875 -0.017,-0.5662 0.59894,-1.85382 1.375,-2.90625 z M 456.125,513 c -0.92813,0.87084 -1.80376,1.69449 -2.5625,2.46875 -0.21852,0.223 -0.4445,0.41741 -0.65625,0.625 0.64751,-1.16533 2.06333,-2.41694 3.21875,-3.09375 z m -12.1875,2.40625 c -0.0957,2.38781 -0.30877,4.53266 -0.75,6.8125 0.27505,-1.89247 0.51375,-3.81228 0.65625,-5.59375 0.0402,-0.50218 0.0544,-0.7568 0.0937,-1.21875 z m -116.1875,5.8125 c 0.49392,0.79763 1.04813,1.76784 1.625,2.90625 0.87368,1.72413 1.523,3.2746 1.875,4.34375 -1.13069,-2.33574 -2.31024,-4.80729 -3.5,-7.25 z M 614,529.125 c -7.685,0.0584 -23.29931,4.59062 -39.0625,11.4375 -0.70988,0.29976 -1.41757,0.59793 -2.125,0.90625 -0.2218,0.0992 -0.43456,0.21237 -0.65625,0.3125 -5.33072,2.34604 -10.58124,4.93751 -15.75,7.75 -0.97174,0.52876 -1.941,1.04922 -2.90625,1.59375 -9.6046,5.28466 -17.91868,10.77309 -28.125,18.4375 -30.07955,22.58818 -54.47774,53.97433 -70.1875,90.28125 -18.09616,41.82214 -30.85254,97.64532 -37.28125,163.3125 -2.15818,22.0451 -3.9588,50.88509 -3.28125,52.21875 0.29643,0.58348 0.77371,0.73666 1.375,0.5625 0.0212,-0.006 0.041,-0.0244 0.0625,-0.0312 0.0554,-0.009 0.12671,-0.01 0.1875,-0.0312 0.0195,-0.008 0.0428,-0.0226 0.0625,-0.0312 0.11742,-0.0485 0.23798,-0.12864 0.375,-0.21875 2.16713,-1.30796 5.35664,-5.84891 7.71875,-11.5 1.49432,-3.575 7.10128,-19.55 12.46875,-35.5 15.91347,-47.2885 24.88869,-71.42353 35.375,-94.15625 0.56344,-1.22146 1.14534,-2.43949 1.71875,-3.65625 0.51376,-1.08647 1.04584,-2.17647 1.5625,-3.25 0.56539,-1.17837 1.13944,-2.37666 1.71875,-3.5625 0.0974,-0.19839 0.18378,-0.39583 0.28125,-0.59375 0.1439,-0.29372 0.29264,-0.58053 0.4375,-0.875 0.29539,-0.60047 0.60875,-1.18403 0.90625,-1.78125 0.34897,-0.698 0.68118,-1.40188 1.03125,-2.09375 0.59809,-1.1833 1.20674,-2.3619 1.8125,-3.53125 0.85034,-1.64635 1.70666,-3.26608 2.5625,-4.875 0.12769,-0.23823 0.24703,-0.48119 0.375,-0.71875 15.64741,-29.0465 33.41069,-53.07164 48.78125,-65.75 5.25492,-4.3345 9.13545,-7.03152 11.78125,-8.0625 3.40174,-1.32555 4.71662,0.0683 4.125,4.125 -0.89335,6.12571 -2.21841,85.61452 -1.59375,92.125 0.003,0.0336 -0.003,0.0953 0,0.125 l -0.0625,1.3125 1.0625,-1.15625 c 4.79724,-2.72425 24.55625,-27.43714 34.125,-43.125 7.22693,-11.84849 18.00748,-34.33549 23,-48 5.69601,-15.58996 11.47758,-38.69451 14.03125,-56.09375 3.50149,-23.85711 2.67711,-51.39832 -1.625,-54.96875 -0.77682,-0.6447 -2.25195,-0.95291 -4.28125,-0.9375 z m -281.3125,14.59375 c 0.50581,0.41819 1.01887,0.84669 1.53125,1.3125 1.1177,1.01612 2.15638,2.0793 3.1875,3.375 -1.44821,-1.55663 -3.09107,-3.19866 -4.71875,-4.6875 z m 288.4375,3.59375 c 0.28334,4.59959 0.27059,9.65463 0.0312,15.03125 0.17349,-4.98359 0.16432,-10.23879 -0.0312,-15.03125 z m -190.53125,16.34375 c -0.2394,0.82752 -0.46803,1.56935 -0.6875,2.34375 0.0294,-0.664 0.31874,-1.59001 0.6875,-2.34375 z m -82.15625,2.75 c 0.14351,0.21199 0.29769,0.45752 0.4375,0.71875 0.37831,0.70684 0.59799,1.39207 0.6875,1.90625 -0.3738,-0.85592 -0.80791,-1.90644 -1.125,-2.625 z m 1.625,6.9375 c 0.10986,0.2591 0.23206,0.54819 0.34375,0.8125 -0.0224,-0.035 -0.0396,-0.0567 -0.0625,-0.0937 -0.1428,-0.23106 -0.22843,-0.4836 -0.28125,-0.71875 z m 164,5.96875 c -11.14974,9.87601 -21.43486,20.84395 -30.53125,32.625 8.97977,-11.87462 19.08965,-22.64561 30.53125,-32.625 z m -72.1875,1.375 c -0.33126,0.30386 -0.71762,0.6877 -1.09375,1.0625 0.0448,-0.0577 0.0745,-0.0954 0.125,-0.15625 0.33302,-0.40127 0.66768,-0.70983 0.96875,-0.90625 z m 0.8125,0.8125 c -0.18374,0.47161 -0.5867,0.96196 -1.0625,1.28125 0.40852,-0.47779 0.73888,-0.87723 1.0625,-1.28125 z m -87.78125,3.46875 c 0.19874,0.48402 0.39017,0.97181 0.59375,1.46875 -0.31091,-0.33242 -0.53822,-0.94564 -0.59375,-1.46875 z M 356.875,589.75 c 0.20155,0.49418 0.3564,0.86886 0.5625,1.375 0.0463,0.11368 0.10955,0.25995 0.15625,0.375 -0.0173,-0.0153 -0.0459,-0.0146 -0.0625,-0.0312 -0.36667,-0.36671 -0.65625,-1.15041 -0.65625,-1.71875 z m 2,5 c 0.22624,0.57076 0.42324,1.12456 0.65625,1.71875 -0.36667,-0.36666 -0.65625,-1.15041 -0.65625,-1.71875 z m 1.6875,0.84375 c 0.11814,0.20532 0.19319,0.39374 0.21875,0.5625 -0.0652,-0.17174 -0.15483,-0.39461 -0.21875,-0.5625 z m 62.96875,7.34375 c 0.20285,0.0395 0.34339,0.0513 0.53125,0.0937 -0.0686,0.0391 -0.14088,0.0937 -0.1875,0.0937 -0.11794,0 -0.23851,-0.0666 -0.34375,-0.1875 z m -58.21875,5.28125 c 0.36845,0.48086 0.55888,0.98018 0.46875,1.28125 -0.16298,-0.44179 -0.31211,-0.85711 -0.46875,-1.28125 z m 2.5625,10.46875 c 0.21597,0.5965 0.44109,1.18407 0.65625,1.78125 -0.36667,-0.36666 -0.65625,-1.15041 -0.65625,-1.71875 0,-0.0249 -0.002,-0.04 0,-0.0625 z m 1.4375,0.53125 c 0.40278,0.50465 0.60662,1.00665 0.46875,1.28125 -0.15512,-0.44068 -0.31516,-0.84833 -0.46875,-1.28125 z m 179.71875,15.90625 1.03125,0 -0.0937,4.8125 c -0.11755,-2.47541 -0.40244,-4.01432 -0.9375,-4.8125 z m -134.875,8.28125 c -0.0155,0.35763 -0.0337,0.74205 -0.0312,1.21875 0.002,0.43756 0.015,0.77314 0.0312,1.09375 -0.0958,-0.11731 -0.16446,-0.44091 -0.1875,-1 -0.0264,-0.64238 0.0516,-1.11576 0.1875,-1.3125 z m -1,8 c -0.0155,0.35763 -0.0337,0.74205 -0.0312,1.21875 0.002,0.43756 0.015,0.77314 0.0312,1.09375 -0.0958,-0.11731 -0.16446,-0.44091 -0.1875,-1 -0.0264,-0.64238 0.0516,-1.11576 0.1875,-1.3125 z m -0.96875,8.28125 c -0.0188,0.40494 -0.0312,0.86823 -0.0312,1.4375 0,0.5569 0.0134,1.00641 0.0312,1.40625 -0.0903,-0.22656 -0.15625,-0.71875 -0.15625,-1.40625 0,-0.72668 0.0564,-1.2266 0.15625,-1.4375 z m 137.34375,2.625 -0.0937,5.5625 c -0.24788,13.50938 -0.60581,29.32155 -0.90625,40.1875 l 0.0625,-3.96875 c 0.2233,-13.2243 0.60365,-30.25677 0.9375,-41.78125 z m -138.34375,6.59375 c -0.0229,0.45731 -0.0294,1.03125 -0.0312,1.71875 -10e-4,0.54024 0.0188,0.95836 0.0312,1.375 -0.0634,-0.27831 -0.11678,-0.7098 -0.125,-1.375 -0.0102,-0.825 0.0383,-1.40116 0.125,-1.71875 z m -0.96875,11.3125 c -0.0212,0.51777 -0.0312,1.15 -0.0312,1.90625 0,0.75625 0.0102,1.38848 0.0312,1.90625 -0.0797,-0.33245 -0.125,-0.98324 -0.125,-1.90625 0,-0.92535 0.0482,-1.57194 0.125,-1.90625 z m -1,12.21875 c -0.0115,0.50947 -0.0312,1.02633 -0.0312,1.6875 0,0.71014 0.0181,1.27799 0.0312,1.8125 -0.0345,-0.46465 -0.0625,-1.03364 -0.0625,-1.8125 0,-0.70743 0.0384,-1.23332 0.0625,-1.6875 z m 0.5,0.78125 c 0.0348,0.60105 0.0348,1.21145 0,1.8125 0.0154,-0.61095 0.0154,-1.20155 0,-1.8125 z m -1.46875,12.5625 c -0.0161,0.66327 -0.0312,1.42298 -0.0312,2.34375 0,0.87167 0.0168,1.57715 0.0312,2.21875 -0.0317,-0.56933 -0.0625,-1.2578 -0.0625,-2.21875 0,-0.98723 0.0276,-1.7673 0.0625,-2.34375 z m -1.0625,19.84375 0.0312,0 c 6.9e-4,1.12614 0.0147,2.05084 0.0312,2.84375 -0.0347,-0.70512 -0.0612,-1.5882 -0.0625,-2.84375 z m 141.03125,6.84375 -0.125,0.125 0,-0.0937 c 0.0352,-0.002 0.0855,-0.0231 0.125,-0.0312 z m -146.5625,7.3125 c 0.0758,0.23941 0.0986,0.52885 0.0625,0.84375 -0.0167,-0.27299 -0.0371,-0.55455 -0.0625,-0.84375 z m 0.34375,8.25 c 0.0333,0.50767 0.0842,1.13711 0.15625,1.84375 -0.16622,-0.83965 -0.21901,-1.4286 -0.15625,-1.84375 z m 1.625,13.875 c 0.58053,5.46171 0.89575,13.12874 1.03125,20.96875 -0.18253,-7.28711 -0.52706,-14.69526 -1.03125,-20.96875 z m 3.46875,32.84375 c 0.0587,1.65172 0.12333,3.47488 0.1875,4.90625 0.72549,16.18355 0.54831,25.1722 -0.59375,28.21875 0.40497,-2.46053 0.62656,-8.9076 0.5625,-17.5625 -0.0417,-5.63644 -0.10978,-10.37974 -0.15625,-15.5625 z m -6.03125,31.125 c 2.48014,1.83971 4.1222,2.89775 4.875,3.125 -0.11934,0.0665 -0.2434,0.0988 -0.375,0.0937 -0.26011,-0.01 -2.07638,-1.3378 -4.5,-3.21875 z"
       transform="translate(104.12366,-1.1327545)"
       id="path3903"
       inkscape:connector-curvature="0"
       sodipodi:nodetypes="cccssccscscsssccccsccccsssccccsscsscssssscsssssssscccccccscscssccsccsscsccsssssccssssssssssssssccscccccscccsssssccscssssssscssscsccccssssssssssssscccsssssccsccccsssccsccscsccccccccccccscccsccsccccccccccccccccccccsccccccccccccccccccccccsccscccscsssscccccsssccccscccccsssccccssssscscccccccccscccccccccccsccccccccccccccccccccsccccccscccccccccccccccccccscscccccccccsccscsccscscccccscscccccccccccccccccccscsccccc" />
  </g>
  <path
     inkscape:connector-curvature="0"
     id="path3942"
     d="m 295.76025,608.54105 -3.91367,-3.53578 -4.12231,2.10305 c -5.67367,2.89449 -7.85445,2.33546 -9.7173,-2.49097 -0.84454,-2.1881 -1.6366,-4.11438 -1.76013,-4.28062 -0.12352,-0.16623 -1.72965,0.61533 -3.56918,1.73682 -5.514,3.36167 -7.14759,2.78634 -9.72154,-3.42376 -1.24701,-3.00865 -2.78396,-5.47277 -3.41545,-5.47582 -0.63147,-0.003 -2.82652,-0.47166 -4.87787,-1.04134 -4.73363,-1.3146 -4.79475,-3.13816 -0.3277,-9.77618 3.2789,-4.87243 7.91549,-15.73458 10.6335,-24.91112 2.50132,-8.44493 12.23359,-14.98135 23.4898,-15.77627 9.97805,-0.70467 12.85513,0.25748 18.71374,6.25823 4.64822,4.76099 5.31307,5.99391 6.30553,11.693 2.07888,11.9378 1.21236,18.29436 -4.25524,31.21547 -1.42207,3.36066 -3.11485,9.51471 -3.76175,13.67567 -1.07425,6.90982 -1.37592,7.56538 -3.48147,7.56538 -1.2679,0 -4.06644,-1.59109 -6.21896,-3.53576 z m 164.66413,-28.92274 c -6.66456,-2.04672 -12.11445,-5.8659 -13.97976,-9.79677 -1.0141,-2.13705 -1.56567,-6.06851 -1.56567,-11.15976 0,-6.98113 0.32556,-8.37372 2.91045,-12.44967 3.16049,-4.98358 12.17551,-12.70777 14.83291,-12.70903 2.27522,-10e-4 13.2058,-5.26724 18.51567,-8.92053 7.27181,-5.00313 9.4923,-3.96285 9.4923,4.44705 0,4.29398 0.0236,4.32222 4.97297,5.96616 5.49227,1.82423 6.12117,3.34868 3.48473,8.44699 -1.64258,3.1764 -1.45017,3.44126 3.22878,4.4448 2.83235,0.60747 3.22807,1.08359 3.19719,3.84669 -0.0194,1.73436 -0.63651,4.23876 -1.3714,5.56532 -1.16243,2.09832 -1.09366,2.80959 0.52882,5.47027 3.34257,5.4814 2.63531,6.93391 -3.98924,8.19286 -3.22392,0.61268 -10.66322,3.1767 -16.53178,5.69783 -11.645,5.00267 -15.50175,5.48348 -23.72597,2.95779 z m -74.93601,-19.80192 c -7.20022,-3.58802 -13.5021,-9.48013 -17.24087,-16.11983 -1.77057,-3.14436 -6.51227,-9.10591 -10.53711,-13.24789 -9.50634,-9.78301 -9.54154,-11.10452 -0.35574,-13.35561 6.53153,-1.60063 6.96216,-1.8764 6.96216,-4.45849 0,-1.51377 0.29108,-4.20769 0.64684,-5.98648 l 0.64683,-3.23416 5.72134,0.598 c 6.46164,0.67537 6.90931,0.26104 6.90931,-6.39481 0,-4.36525 0.89688,-4.67949 8.39368,-2.94098 3.56177,0.82598 4.22054,0.64295 7.24542,-2.01292 3.74574,-3.28881 7.99789,-3.85661 8.84399,-1.18096 1.76573,5.58372 4.65619,10.7884 11.12882,20.03897 9.7197,13.89125 9.5162,13.41033 9.51193,22.47993 -0.007,14.69361 -5.06932,24.02324 -14.56555,26.84331 -8.029,2.38436 -17.28211,1.97627 -23.31105,-1.02808 z M 221.98156,539.22278 c -1.79257,-2.32486 -3.40307,-4.41993 -3.57891,-4.65569 -0.17583,-0.23577 -3.06525,1.46592 -6.42093,3.78151 -8.40133,5.79739 -10.51348,5.44151 -13.05226,-2.19922 l -1.93,-5.80853 -6.8494,0.68786 -6.8494,0.68785 0,-3.00306 c 0,-6.80761 14.71468,-35.39749 22.6723,-44.05114 6.10854,-6.64282 11.38906,-9.50709 19.21568,-10.423 10.3306,-1.20894 18.45261,3.73513 22.8406,13.90365 2.06775,4.79171 2.15621,6.01045 1.55984,21.49059 -0.34772,9.02594 -0.92526,20.10324 -1.28342,24.61621 -0.61144,7.70433 -0.79058,8.2054 -2.93343,8.2054 -1.25522,0 -3.89981,-0.95441 -5.87689,-2.12091 l -3.59467,-2.1209 -2.73282,2.6182 c -4.08102,3.90987 -7.28663,3.44883 -11.18629,-1.60882 z m 309.68726,-7.6486 c -2.31853,-2.65315 -9.03204,-8.06992 -14.91891,-12.03728 -5.88688,-3.96736 -11.94542,-8.36064 -13.46343,-9.76284 -3.78977,-3.50068 -6.68863,-13.31961 -6.68863,-22.65554 0,-11.94521 3.42854,-17.18443 14.73163,-22.51168 5.79314,-2.73037 6.82034,-2.90521 13.31086,-2.26565 11.11441,1.09519 18.52844,3.84783 25.55714,9.48873 5.57996,4.47822 21.22072,12.93883 23.91945,12.93883 0.57962,0 1.04856,1.23081 1.04208,2.73513 -0.009,2.1759 -1.09669,3.48815 -5.31799,6.4181 l -5.3062,3.68297 1.55421,5.96549 c 0.85482,3.28102 1.28097,6.23873 0.94703,6.57268 -0.33396,0.33396 -3.15082,0.86972 -6.25969,1.19057 -5.15173,0.53171 -5.60038,0.76861 -5.06422,2.67409 0.32357,1.14988 0.86565,3.98401 1.20463,6.29808 0.68997,4.7102 0.68398,4.71519 -6.87478,5.72754 -4.46902,0.59853 -4.88166,0.91507 -7.22757,5.54451 -3.26461,6.44242 -5.51312,6.44167 -11.14561,-0.004 z M 196.18581,467.1147 c -0.0246,-0.41027 -1.9996,-2.92724 -4.38907,-5.59327 l -4.34451,-4.84733 -4.73945,1.6149 c -8.6997,2.96428 -9.4595,2.56873 -10.92478,-5.68742 -0.74317,-4.18741 -0.32981,-4.1204 -9.17922,-1.48807 -5.05343,1.50317 -5.30269,1.27056 -7.06186,-6.59024 -1.14795,-5.12959 -1.32194,-5.32764 -6.3565,-7.23512 -6.64062,-2.516 -7.16569,-4.83206 -2.31319,-10.2032 4.8805,-5.40212 7.74362,-9.91481 14.84992,-23.40558 5.73049,-10.87889 6.51787,-11.89211 11.35907,-14.61709 13.62997,-7.67195 29.34462,-7.6694 37.35795,0.006 5.83387,5.5879 8.90122,11.78743 9.42009,19.03933 0.89697,12.53651 -1.67677,22.04458 -9.15259,33.81204 -1.88291,2.96383 -4.90446,10.00065 -6.71455,15.63736 -2.87832,8.96328 -3.57172,10.25203 -5.5289,10.27607 -1.23081,0.0151 -2.2579,-0.30818 -2.28241,-0.71845 z m 193.49316,-0.30128 c -2.18811,-0.53192 -8.45406,-3.154 -13.92432,-5.82686 -8.73851,-4.26975 -14.12519,-6.12239 -24.61621,-8.46625 -4.27922,-0.95604 -3.55156,-4.31947 2.14931,-9.93462 l 4.88445,-4.81101 -1.90067,-4.43406 c -1.04536,-2.43874 -1.90066,-5.65505 -1.90066,-7.14737 0,-2.42279 0.5322,-2.84969 4.97072,-3.98725 2.73389,-0.70068 5.21244,-1.66508 5.50789,-2.14311 0.29543,-0.47802 -0.40153,-2.70913 -1.54882,-4.95799 -3.23631,-6.3437 -2.49654,-7.98047 4.63572,-10.2567 l 6.10606,-1.94871 1.75952,-5.81131 c 2.16141,-7.13866 3.5147,-7.36594 10.58447,-1.77761 4.68242,3.70125 12.31316,7.70756 29.75725,15.62323 7.74092,3.51263 11.03776,7.32596 14.44199,16.70452 2.98023,8.21045 3.18768,18.90526 0.48221,24.86162 -1.8849,4.14982 -8.27176,10.34316 -13.54028,13.13001 -3.57463,1.89085 -21.75975,2.66366 -27.84863,1.18347 z m 206.40182,-8.33019 c -1.5925,-4.82528 -7.91515,-14.31608 -16.5379,-24.82463 -8.69406,-10.59547 -9.75151,-13.61148 -9.10578,-25.97091 1.00363,-19.20938 8.2498,-26.99831 26.11746,-28.0737 6.50299,-0.39139 8.97788,-0.0924 13.54558,1.63642 8.78939,3.32667 16.24757,9.26798 21.34276,17.00199 2.4732,3.75407 8.27886,10.4057 12.90148,14.78138 11.10408,10.51095 11.19444,11.93672 0.9453,14.91473 l -7.45946,2.16744 0,6.93722 0,6.93721 -3.23243,-0.0238 c -1.77784,-0.013 -4.8617,-0.4024 -6.85301,-0.86524 -3.59047,-0.8345 -3.62555,-0.81155 -4.21609,2.75887 -0.32752,1.98021 -0.60041,5.05496 -0.60643,6.8328 -0.0123,3.63582 -0.24951,3.70156 -8.03077,2.22588 l -5.30754,-1.00656 -4.06586,3.99035 c -5.13246,5.03713 -7.91011,5.20798 -9.43731,0.58048 z M 439.94072,387.32715 c -2.98954,-1.11114 -7.70544,-3.5274 -10.47979,-5.36945 -5.03669,-3.34418 -7.06817,-5.48769 -14.46492,-15.26267 -2.15886,-2.85299 -7.30067,-8.00002 -11.42622,-11.43783 -6.02656,-5.02191 -7.44476,-6.72426 -7.21484,-8.66035 0.24168,-2.03512 1.40729,-2.78253 7.49698,-4.80721 l 7.21081,-2.39742 0,-7.0221 0,-7.0221 6.96216,0.64706 6.96216,0.64706 0,-6.61606 0,-6.61605 6.82781,0.57242 6.82782,0.57242 3.81727,-3.90925 c 5.36863,-5.49797 7.63737,-5.21833 10.64738,1.31237 2.66317,5.77816 6.84525,11.50574 16.41451,22.48056 8.37399,9.60398 9.52291,12.43782 9.53545,23.51943 0.0236,20.82392 -7.62811,29.68249 -26.7189,30.93327 -5.38722,0.35296 -8.19174,-8.5e-4 -12.39768,-1.5641 z m -95.0415,-10.93398 c -3.2948,-1.55232 -12.33772,-4.18091 -20.09536,-5.8413 -15.78581,-3.3787 -18.25649,-4.69013 -23.63217,-12.54388 -9.34523,-13.65323 -8.41209,-27.89056 2.47252,-37.72415 7.47704,-6.75505 25.12727,-9.46547 36.80234,-5.65147 3.55567,1.16156 11.94756,2.622 18.64864,3.24541 14.06312,1.30832 14.50048,1.77159 9.2,9.74507 -1.6364,2.46162 -2.97718,4.85883 -2.97953,5.32715 -0.002,0.4683 1.33845,2.54677 2.97953,4.6188 4.16309,5.25633 3.87772,7.24385 -1.49189,10.39065 -2.46162,1.44261 -4.47568,2.87512 -4.47568,3.18337 0,0.30824 1.14262,1.91836 2.53915,3.57804 3.87148,4.60101 3.01746,7.52399 -3.23925,11.08674 -5.07077,2.88746 -5.18175,3.04959 -5.47027,7.99206 -0.2674,4.5807 -0.52324,5.06186 -2.78098,5.23035 -1.36756,0.10205 -5.18224,-1.08453 -8.47705,-2.63684 z M 191.81176,354.20202 c -9.24185,-5.01243 -15.83736,-11.65697 -19.76963,-19.9166 -3.76068,-7.89921 -10.27388,-16.98254 -16.51119,-23.02658 -2.3186,-2.24675 -4.0573,-4.86648 -4.0573,-6.11319 0,-1.975 0.79598,-2.30005 8.40439,-3.43199 l 8.4044,-1.25036 1.04425,-4.86918 c 0.57434,-2.67804 1.04425,-5.75632 1.04425,-6.84062 0,-2.95053 2.58377,-3.39297 8.64907,-1.48105 2.99752,0.94489 5.64802,1.51999 5.89,1.27802 0.24198,-0.24199 0.86047,-3.02373 1.37444,-6.18166 0.51397,-3.15792 1.17364,-5.98084 1.46594,-6.27314 0.46775,-0.46776 5.97635,0.60272 11.99701,2.33136 1.36915,0.39311 3.26588,-0.40459 5.85567,-2.46271 2.17685,-1.72993 5.01189,-3.04415 6.5669,-3.04415 2.34576,0 2.83063,0.50264 3.39696,3.52141 1.06719,5.68859 4.17903,12.09795 12.29416,25.32182 7.44773,12.13633 7.63848,12.60847 8.00909,19.82393 0.64295,12.51786 -3.34071,24.81367 -9.80023,30.249 -4.24785,3.57433 -11.89084,5.62928 -20.82008,5.59784 -6.56614,-0.0231 -8.28249,-0.43594 -13.4381,-3.23215 z m 405.35869,0.52838 c -7.27663,-2.14182 -12.35955,-7.11115 -14.43222,-14.10969 -5.00193,-16.88955 1.50231,-32.61426 17.98509,-43.48092 4.48092,-2.95414 11.03107,-8.53103 14.55588,-12.39308 8.30508,-9.09964 10.16983,-9.1023 12.72435,-0.0181 0.98028,3.48599 2.00076,6.5566 2.26772,6.82357 0.26696,0.26696 3.46645,0.72468 7.10996,1.01714 l 6.62459,0.53176 -0.57487,3.58521 c -0.31617,1.97187 -0.86648,5.03981 -1.22292,6.81764 l -0.64807,3.23244 6.23471,0 6.23472,0 -0.62986,6.77701 c -0.62835,6.76086 -0.62159,6.785 2.84096,10.14104 3.72625,3.61163 4.88894,8.9414 1.95056,8.9414 -3.04628,0 -13.13287,5.93414 -22.8473,13.44152 -5.47027,4.22746 -11.38617,8.30334 -13.14643,9.05752 -4.28607,1.83633 -18.24025,1.63312 -25.02687,-0.36446 z m -89.26936,-27.01689 c -4.16387,-1.05135 -7.70435,-3.68404 -14.3965,-10.7052 -6.33293,-6.64428 -7.88953,-9.31833 -10.29698,-17.68891 -2.02785,-7.05072 -5.20564,-13.54612 -11.10594,-22.70051 -2.39088,-3.70949 -4.34706,-7.62571 -4.34706,-8.7027 0,-1.79321 0.7074,-1.95818 8.3967,-1.95818 l 8.39669,0 2.24232,-6.96216 c 2.08104,-6.46142 2.44568,-6.96216 5.06995,-6.96216 1.55519,0 4.58224,0.89513 6.72677,1.98919 2.14452,1.09405 4.11787,1.98919 4.38522,1.98919 0.26736,0 1.26205,-2.46162 2.21045,-5.47027 1.56551,-4.96636 1.9884,-5.47027 4.59077,-5.47027 1.57653,0 4.99412,0.91532 7.59465,2.03403 l 4.72823,2.03403 4.40749,-2.51935 c 2.42413,-1.38564 5.35236,-2.52474 6.5072,-2.53132 1.83774,-0.0104 2.16518,0.71012 2.62453,5.77597 0.548,6.04353 3.99779,16.67512 10.06294,31.01203 2.66638,6.30287 3.58106,9.88261 3.59462,14.0682 0.0389,11.99641 -7.34065,26.90188 -15.39801,31.10146 -3.10694,1.61937 -6.04804,2.11526 -13.42702,2.26393 -5.19676,0.1047 -10.85191,-0.16395 -12.56702,-0.597 z"
     style="fill:#fefefe;stroke:url(#linearGradient3952);stroke-width:1.79999995;stroke-miterlimit:4;stroke-dasharray:none" />
  <g
     id="g4586">
    <g
       style="fill:#ffffff"
       transform="translate(731.18705,22)"
       id="g4533">
      <path
         style="color:#000000;font-style:normal;font-variant:normal;font-weight:normal;font-stretch:normal;font-size:medium;line-height:normal;font-family:sans-serif;text-indent:0;text-align:start;text-decoration:none;text-decoration-line:none;text-decoration-style:solid;text-decoration-color:#000000;letter-spacing:normal;word-spacing:normal;text-transform:none;direction:ltr;block-progression:tb;writing-mode:lr-tb;baseline-shift:baseline;text-anchor:start;white-space:normal;clip-rule:nonzero;display:inline;overflow:visible;visibility:visible;opacity:1;isolation:auto;mix-blend-mode:normal;color-interpolation:sRGB;color-interpolation-filters:linearRGB;solid-color:#000000;solid-opacity:1;fill:#ffffff;fill-opacity:1;fill-rule:nonzero;stroke:none;stroke-width:3;stroke-linecap:butt;stroke-linejoin:miter;stroke-miterlimit:4;stroke-dasharray:none;stroke-dashoffset:0;stroke-opacity:1;color-rendering:auto;image-rendering:auto;shape-rendering:auto;text-rendering:auto;enable-background:accumulate"
         d="m -406.63281,181.76367 0,52.95508 1.5,0 10,0 0,-20.85547 0.22265,0 c 1.85659,2e-5 3.157,0.22057 3.70118,0.44727 0.60425,0.25175 1.26841,0.76064 1.95898,1.6289 0.63292,0.79585 2.17469,3.28005 4.3457,7.14453 l 0.002,0 6.57617,11.63477 13.52734,0 -6.29883,-11.93945 -0.002,-0.006 c -2.04616,-3.91669 -3.66223,-6.65336 -4.98633,-8.33789 -0.76462,-0.97268 -1.67719,-1.87382 -2.66601,-2.73828 2.60533,-0.90953 4.9036,-2.19138 6.45703,-4.23438 2.08063,-2.73641 3.09175,-6.19732 3.0918,-10.19336 -5e-5,-3.16061 -0.6646,-6.04779 -2.01563,-8.57812 -1.34975,-2.52766 -3.24457,-4.41244 -5.61328,-5.45508 -2.41105,-1.06113 -5.81186,-1.47261 -10.41016,-1.47266 l -19.39062,0 z m 11.5,11.45117 5.13281,0 c 3.41687,4e-5 5.63106,0.10182 5.9375,0.15039 1.05766,0.21479 1.7241,0.6384 2.25586,1.36524 0.52736,0.72094 0.84568,1.7294 0.8457,3.18555 -2e-5,1.30788 -0.24924,2.28334 -0.66211,3.00195 -0.42825,0.74537 -0.93204,1.18161 -1.64453,1.46875 -0.18419,0.0742 -1.0192,0.25835 -2.22851,0.35547 -1.20932,0.0971 -2.83402,0.14844 -4.84766,0.14843 l -4.78906,0 z"
         id="path3643"
         inkscape:connector-curvature="0"
         sodipodi:nodetypes="ccccccccccccccccscccccccccccsccscc" />
      <path
         style="color:#000000;font-style:normal;font-variant:normal;font-weight:normal;font-stretch:normal;font-size:medium;line-height:normal;font-family:sans-serif;text-indent:0;text-align:start;text-decoration:none;text-decoration-line:none;text-decoration-style:solid;text-decoration-color:#000000;letter-spacing:normal;word-spacing:normal;text-transform:none;direction:ltr;block-progression:tb;writing-mode:lr-tb;baseline-shift:baseline;text-anchor:start;white-space:normal;clip-rule:nonzero;display:inline;overflow:visible;visibility:visible;opacity:1;isolation:auto;mix-blend-mode:normal;color-interpolation:sRGB;color-interpolation-filters:linearRGB;solid-color:#000000;solid-opacity:1;fill:#ffffff;fill-opacity:1;fill-rule:nonzero;stroke:none;stroke-width:3;stroke-linecap:butt;stroke-linejoin:miter;stroke-miterlimit:4;stroke-dasharray:none;stroke-dashoffset:0;stroke-opacity:1;color-rendering:auto;image-rendering:auto;shape-rendering:auto;text-rendering:auto;enable-background:accumulate"
         d="m -333.4043,165.80078 c -6.81246,5e-5 -12.5331,2.31117 -16.78906,6.8711 -4.28623,4.59242 -6.37109,11.01175 -6.37109,18.9746 0,7.55537 2.08931,13.73924 6.34375,18.25391 4.22341,4.48178 9.75949,6.77149 16.24804,6.77149 5.21486,0 9.68079,-1.30812 13.20704,-3.98438 3.54396,-2.68973 6.0189,-6.7756 7.4707,-12.05469 l 0.38281,-1.39062 -11.99023,-3.80078 -0.36328,1.58398 c -0.73415,3.19443 -1.91183,5.36613 -3.38282,6.66406 -1.53116,1.35102 -3.25177,1.9922 -5.41797,1.99219 -2.99943,1e-5 -5.21641,-1.01231 -7.0664,-3.19531 -1.72947,-2.04076 -2.80079,-5.86281 -2.80078,-11.53516 -1e-5,-5.32165 1.06437,-8.94 2.83789,-10.98437 1.87623,-2.16271 4.14629,-3.17771 7.21875,-3.17774 2.20434,3e-5 3.93019,0.58443 5.39453,1.75586 1.46775,1.17425 2.41556,2.72006 2.90039,4.8457 l 0.33594,1.47852 12.24804,-2.92578 -0.42773,-1.50586 c -1.10478,-3.88862 -2.79546,-6.9919 -5.14844,-9.20508 -3.8269,-3.62181 -8.87183,-5.43159 -14.83008,-5.43164 z"
         id="path3645"
         inkscape:connector-curvature="0"
         sodipodi:nodetypes="csssssccccssssscccccccc" />
      <path
         style="color:#000000;font-style:normal;font-variant:normal;font-weight:normal;font-stretch:normal;font-size:medium;line-height:normal;font-family:sans-serif;text-indent:0;text-align:start;text-decoration:none;text-decoration-line:none;text-decoration-style:solid;text-decoration-color:#000000;letter-spacing:normal;word-spacing:normal;text-transform:none;direction:ltr;block-progression:tb;writing-mode:lr-tb;baseline-shift:baseline;text-anchor:start;white-space:normal;clip-rule:nonzero;display:inline;overflow:visible;visibility:visible;opacity:1;isolation:auto;mix-blend-mode:normal;color-interpolation:sRGB;color-interpolation-filters:linearRGB;solid-color:#000000;solid-opacity:1;fill:#ffffff;fill-opacity:1;fill-rule:nonzero;stroke:none;stroke-width:3;stroke-linecap:butt;stroke-linejoin:miter;stroke-miterlimit:4;stroke-dasharray:none;stroke-dashoffset:0;stroke-opacity:1;color-rendering:auto;image-rendering:auto;shape-rendering:auto;text-rendering:auto;enable-background:accumulate"
         d="m -300.23242,182.82812 0,12.81488 12.5332,0 0,37.03473 1.5,0 10.36719,0 0,-37.03473 12.50391,0 0,-12.81488 z"
         id="path3647"
         inkscape:connector-curvature="0"
         sodipodi:nodetypes="cccccccccc" />
    </g>
    <g
       style="fill:#ffffff"
       transform="translate(731.33226,22)"
       id="g4525">
      <path
         inkscape:connector-curvature="0"
         id="path4501"
         style="font-style:normal;font-variant:normal;font-weight:bold;font-stretch:normal;font-size:92.55003357px;line-height:0%;font-family:'.Beirut PUA';-inkscape-font-specification:'.Beirut PUA Bold';text-align:end;letter-spacing:0px;word-spacing:0px;text-anchor:end;fill:#ffffff;fill-opacity:1;stroke:none;stroke-width:1px;stroke-linecap:butt;stroke-linejoin:miter;stroke-opacity:1"
         d="m -405.50921,55.207919 18.2765,-1.026367 2.51078,40.375011 c 0.34598,5.563777 1.54321,7.032387 3.59169,9.331717 2.07825,2.26747 5.28524,3.27946 9.62097,3.03598 4.36737,-0.24526 7.42661,-1.60915 9.17772,-4.09167 1.78089,-2.51438 2.49834,-4.09051 2.15235,-9.654291 l -2.51078,-40.375011 18.27651,-1.026366 2.51077,40.375011 c 0.59285,9.533607 -1.48176,16.772487 -6.22384,21.716617 -4.74209,4.94413 -12.27169,7.70589 -22.58882,8.28528 -10.28548,0.57761 -18.08915,-1.32307 -23.41101,-5.70203 -5.32185,-4.37897 -8.27921,-11.33526 -8.87208,-20.86887 z"
         sodipodi:nodetypes="ccscscsccsssssc" />
      <path
         inkscape:connector-curvature="0"
         id="path4503"
         style="font-style:normal;font-variant:normal;font-weight:bold;font-stretch:normal;font-size:92.55003357px;line-height:0%;font-family:'.Beirut PUA';-inkscape-font-specification:'.Beirut PUA Bold';text-align:end;letter-spacing:0px;word-spacing:0px;text-anchor:end;fill:#ffffff;fill-opacity:1;stroke:none;stroke-width:1px;stroke-linecap:butt;stroke-linejoin:miter;stroke-opacity:1"
         d="m -319.6476,51.566307 19.37053,0.982906 -3.06871,52.232157 32.49995,1.72584 -0.74292,15.12941 -51.87049,-2.70873 z"
         sodipodi:nodetypes="ccccccc" />
      <path
         style="font-style:normal;font-variant:normal;font-weight:bold;font-stretch:normal;font-size:92.55003357px;line-height:0%;font-family:'.Beirut PUA';-inkscape-font-specification:'.Beirut PUA Bold';text-align:end;letter-spacing:0px;word-spacing:0px;text-anchor:end;fill:#ffffff;fill-opacity:1;stroke:none;stroke-width:1px;stroke-linecap:butt;stroke-linejoin:miter;stroke-opacity:1"
         d="m -227.79883,61.701172 c -6.57506,0.07892 -12.35311,1.806442 -17.33594,5.183594 -7.21817,4.917976 -11.87205,12.743777 -13.96093,23.478515 -2.08312,10.705169 -0.70084,19.691219 4.14648,26.957029 4.87689,7.27156 12.62379,11.94 23.24024,14.00586 10.64602,2.07161 19.5787,0.64845 26.79687,-4.26953 7.21817,-4.91797 11.86805,-12.72842 13.95117,-23.43359 2.08888,-10.734742 0.70866,-19.736151 -4.13867,-27.001956 -4.84732,-7.265805 -12.59226,-11.934246 -23.23828,-14.00586 -3.31764,-0.645581 -6.47227,-0.949934 -9.46094,-0.914062 z m 3.2461,15.214844 c 1.07918,-0.01391 2.20278,0.09297 3.37109,0.320312 4.69977,0.91453 8.00236,3.347787 9.90625,7.300781 1.90389,3.952994 2.24477,9.063717 1.02539,15.330079 -1.2142,6.239812 -3.44414,10.834522 -6.69141,13.785152 -3.24727,2.95062 -7.22016,3.96921 -11.91992,3.05469 -4.67323,-0.90937 -7.96329,-3.34193 -9.86719,-7.29492 -1.90389,-3.953 -2.2474,-9.04925 -1.0332,-15.289063 1.21938,-6.266364 3.45196,-10.873592 6.69922,-13.824219 2.43545,-2.21297 5.27221,-3.341087 8.50977,-3.382812 z"
         id="path4515"
         inkscape:connector-curvature="0" />
      <path
         inkscape:connector-curvature="0"
         id="path4507"
         style="font-style:normal;font-variant:normal;font-weight:bold;font-stretch:normal;font-size:92.55003357px;line-height:0%;font-family:'.Beirut PUA';-inkscape-font-specification:'.Beirut PUA Bold';text-align:end;letter-spacing:0px;word-spacing:0px;text-anchor:end;fill:#ffffff;fill-opacity:1;stroke:none;stroke-width:1px;stroke-linecap:butt;stroke-linejoin:miter;stroke-opacity:1"
         d="m -161.00713,80.014953 17.80153,7.791272 3.92551,52.231235 18.5541,-42.392491 15.1106,6.613531 -27.05202,61.80856 -17.80153,-7.79126 -3.92551,-52.23124 -18.5541,42.39249 -15.1106,-6.61353 27.05202,-61.808567 z" />
      <path
         id="path4518"
         d="m -451.30735,67.330758 c 6.57506,0.07892 12.35311,1.806442 17.33594,5.183594 7.21817,4.917976 11.87205,12.743777 13.96093,23.478515 2.08312,10.705163 0.70084,19.691213 -4.14648,26.957023 -4.87689,7.27156 -12.62379,11.94 -23.24024,14.00586 -10.64602,2.07161 -19.5787,0.64845 -26.79687,-4.26953 -7.21817,-4.91797 -11.86805,-12.72842 -13.95117,-23.43359 -2.08888,-10.734736 -0.70866,-19.736145 4.13867,-27.00195 4.84732,-7.265805 12.59226,-11.934246 23.23828,-14.00586 3.31764,-0.645581 6.47227,-0.949934 9.46094,-0.914062 z m -3.2461,15.214844 c -1.07918,-0.01391 -2.20278,0.09297 -3.37109,0.320312 -4.69977,0.91453 -8.00236,3.347787 -9.90625,7.300781 -1.90389,3.952994 -2.24477,9.063719 -1.02539,15.330075 1.2142,6.23981 3.44414,10.83452 6.69141,13.78515 3.24727,2.95062 7.22016,3.96921 11.91992,3.05469 4.67323,-0.90937 7.96329,-3.34193 9.86719,-7.29492 1.90389,-3.953 2.2474,-9.04925 1.0332,-15.289056 -1.21938,-6.266365 -3.45196,-10.873593 -6.69922,-13.82422 -2.43545,-2.21297 -5.27221,-3.341087 -8.50977,-3.382812 z"
         style="font-style:normal;font-variant:normal;font-weight:bold;font-stretch:normal;font-size:92.55003357px;line-height:0%;font-family:'.Beirut PUA';-inkscape-font-specification:'.Beirut PUA Bold';text-align:end;letter-spacing:0px;word-spacing:0px;text-anchor:end;fill:#ffffff;fill-opacity:1;stroke:none;stroke-width:1px;stroke-linecap:butt;stroke-linejoin:miter;stroke-opacity:1"
         inkscape:connector-curvature="0" />
      <path
         sodipodi:nodetypes="ccccccccc"
         inkscape:connector-curvature="0"
         id="path4523"
         d="m -564.63596,107.91663 6.81867,15.25505 18.57155,-8.30107 20.52195,45.91267 17.7787,-7.94669 -20.52195,-45.91267 18.53667,-8.285489 -6.81867,-15.255049 z"
         style="color:#000000;font-style:normal;font-variant:normal;font-weight:normal;font-stretch:normal;font-size:medium;line-height:normal;font-family:sans-serif;text-indent:0;text-align:start;text-decoration:none;text-decoration-line:none;text-decoration-style:solid;text-decoration-color:#000000;letter-spacing:normal;word-spacing:normal;text-transform:none;direction:ltr;block-progression:tb;writing-mode:lr-tb;baseline-shift:baseline;text-anchor:start;white-space:normal;clip-rule:nonzero;display:inline;overflow:visible;visibility:visible;opacity:1;isolation:auto;mix-blend-mode:normal;color-interpolation:sRGB;color-interpolation-filters:linearRGB;solid-color:#000000;solid-opacity:1;fill:#ffffff;fill-opacity:1;fill-rule:nonzero;stroke:none;stroke-width:3;stroke-linecap:butt;stroke-linejoin:miter;stroke-miterlimit:4;stroke-dasharray:none;stroke-dashoffset:0;stroke-opacity:1;color-rendering:auto;image-rendering:auto;shape-rendering:auto;text-rendering:auto;enable-background:accumulate" />
    </g>
  </g>
</svg>
