<?xml version="1.0" encoding="utf-8"?>
<!-- Generator: Adobe Illustrator 16.0.1, SVG Export Plug-In . SVG Version: 6.00 Build 0)  -->
<svg version="1.2" baseProfile="tiny" id="Calque_1"
	 xmlns="http://www.w3.org/2000/svg" xmlns:xlink="http://www.w3.org/1999/xlink" x="0px" y="0px" width="409px" height="330.023px"
	 viewBox="0 0 409 330.023" xml:space="preserve">
<g>
	<g>
		<path fill-rule="evenodd" fill="#101010" d="M278.631,206.141c20.459-26.677,35.378-56.335,44.31-87.397
			c-34.119-16.692-72.225-25.796-111.836-26.298c-0.623-0.007-1.247-0.006-1.87-0.01v177.405
			C235.846,252.718,259.37,231.26,278.631,206.141z"/>
	</g>
	<path fill-rule="evenodd" fill="#F5A400" d="M303.307,149.342c-1.573-0.267-3.141-0.544-4.714-0.812
		c-5.084-0.504-9.628-1.172-14.646-2.359c-0.662-0.16,5.824-3.511,7.27-4.292c2.375-1.373,2.4-2.632,2.483-5.444
		c0-2.915,5.597-3.953,7.715-4.375c1.131-0.216-1.507-1.583-2.01-1.789c-1.893,0.169-3.789,0.344-5.681,0.514
		c-4.353,2.149-8.717,4.297-13.066,6.446c-0.668,0.303-1.342,0.606-2.005,0.905c-3.537-3.691-8.234-1.568-10.994-4.468
		c-0.484-0.508,0.215-0.786,0.641-0.231c1.169,1.583,3.553,0.874,5.476,0.874c0.684,0,0.474-2.221,0.539-2.971
		c0.093-0.689-5.289-0.021-6.502-1.496c-0.227-0.313-1.507-2.298-1.104-1.81c0.308-0.169,0.457-0.447,0.827,0.417
		c0.205,0.483,1.063,1.409,1.613,1.542c0.438,0.108,1.147,0.231,1.861,0.329c0.602,0.087,1.224,0.072,1.805,0.103
		c1.013,0.042,1.383-0.313,1.306-0.524c0.334-1.604,0.241-2.792,0.986-4.036c0.078-0.858-0.082-0.987-0.19-1.434
		c-0.133-0.555-0.165-0.582-1.022-1.101c-0.874-0.519-2.991-0.606-4.729-0.801c-1.085-0.129-2.483-0.633-3.042-0.957
		c-0.561-0.324-3.152-0.468-4.576-0.468c-2.133,0.072-1.855-1.563-1.634-3.398c-1.296,0.617-2.581,1.234-3.876,1.856
		c-4.112,2.318-6.816,5.053-11.571,4.57c0.751,0.771,1.501,1.537,2.247,2.302c-0.879,1.08-1.938,1.213-3.249,1.08
		c0.694,0.874,1.377,1.748,2.071,2.622c0.479,1.038-2.734,2-3.501,2.257c1.537,1.033,2.113,1.089,2.206,2.164
		c0.823,0.884-1.06,2.138-2.463,2.868c1.156,0.401,2.324,0.818,3.485,1.224c1.778,0.452-1.49,3.845-2.009,4.379
		c1.284,0.38,2.574,0.756,3.849,1.132c1.208,0.246-1.11,2.662-1.479,3.618c-0.257,0.658,4.847,3.398,4.847,3.398
		c0.145,0.231,0.287,0.453,0.422,0.683c0.134,0.155,0.277,0.304,0.411,0.453c1.038,1.131-2.92,1.038-3.567,0.935
		c-3.382,4.317-7.947,6.847-12.665,9.18c-0.823,0.402-1.759,0.658-2.571,1.069c-0.637,0.329-1.125,0.125-1.532,0.073
		c-2.287-0.288-2.385-1.419-2.338-1.614c0.159-0.771-0.323-0.37,0.523-1.892c0.386-0.699,0.524-1.234,1.682-3.444
		c0.077-0.124,0.176-0.236,0.257-0.354c4.456-5.639,12.526-11.891,7.896-20.038c-1.038-1.182-2.226-2.318-3.265-3.5
		c-0.986-0.617-1.942-1.244-2.832-1.583c-0.878-0.339-1.552-0.396-2.21-0.735c-1.753-0.041-5.29-1.115-7.767,0.499
		c-9.114,5.896-5.063,12.244-2.9,20.438c0.258-0.185,0.51-0.38,0.761-0.576c1.984-2.251,2.299-2.991,4.031-5.736
		c1.347-2.581,0.144-3.701-0.041-4.77c-0.89-0.853-1.779-1.712-2.663-2.56c0.726-1.753,1.356-1.995,2.78-3.063
		c0.525-0.55,4.869-0.108,6.241,0.745c1.331,0.761,1.912,0.746,2.55,1.409c1.388,1.547,2.416,3.12,2.323,4.868
		c-0.093,1.747-0.931,2.431-1.45,3.834c-0.879,1.418-1.901,2.396-3.1,3.819c-4.837,4.01-8.208,10.271-7.176,15.848
		c0.38,2.457,5.156,3.804,7.212,4.41c2.092,0.561,2.056,5.09,2.569,7.29c0.804,3.989-6.306,5.068-5.515,10.188
		c0.313,1.943,4.601,2.714,6.137,3.47c2.797,1.691,5.583,3.384,8.374,5.068c3.537,0.052,7.053,0.107,10.584,0.169
		c-0.308-0.821-0.616-1.634-0.93-2.451c-1.238-2.077-7.166-2.246-9.447-2.401c-2.247-1.53-4.494-3.074-6.739-4.604
		c0.929-1.255,1.86-2.51,2.801-3.759c0.627-0.787,3.717,1.28,4.544,1.769c1.567-0.354,3.126-0.71,4.688-1.063
		c0.895-3.151,5.059-2.704,4.117-8.04c0.154-0.021,0.319-0.051,0.479-0.071c3.172,1.305,5.202,3.007,8.836,2.405
		c0.324,0.216,0.644,0.432,0.972,0.647c0.36,0.329,0.746,0.432,0.473,0.915c-2.163,3.896-3.284,5.51-3.557,10.09
		c-0.123,2.088,3.804,1.049,5.768,1.049c6.302-0.04,12.61-0.087,18.912-0.127c1.742-0.176-2.206-3.337-3.26-3.619
		c-4.097-1.126-9.68-1.321-13.838-0.536c0.124-0.307,0.247-0.605,0.365-0.909c2.112-3.253,6.106-3.603,8.456-6.883
		c0.026-1.12,0.037-2.245,0.056-3.372c-1.017-4.276-12.989-6.981-16.752-8.873c-0.359-0.185-0.709-0.365-1.064-0.55
		c5.66-3.315,14.162-4.713,17.807-10.707l3.325-0.298c0.967-0.133,2.011,1.594,2.438,2.421c0.792-1.125,1.594-2.247,2.391-3.377
		c0.138-0.278,2.801,2.704,3.068,3.464c0.885-1.223,1.753-2.451,2.626-3.675c0.438,0.582,0.869,1.167,1.301,1.743
		c0.546-0.848,1.09-1.696,1.629-2.549c4.057-0.478,7.126-0.915,11.207-0.082C304.911,152.458,303.533,150.052,303.307,149.342"/>
	<path fill-rule="evenodd" fill="#12100B" d="M261.994,123.188c-0.263-0.052-0.304,0.067-0.418,0.411
		c0.108,0.057,0.217,0.118,0.324,0.175c0.864,0.139,1.671,0.36,2.581,0.319c0.17-0.01,0.18-0.072,0.221-0.309
		C264.79,123.343,262.39,123.26,261.994,123.188"/>
	<path fill-rule="evenodd" fill="#12100B" d="M265.756,145.61c-4.816-5.757-11.107-10.456-11.263-15.4
		c-0.158-0.21-0.112-0.113-0.102,0.18c0.98,7.946,7.185,10.831,11.519,16.547c0.19,0.256,0.817,0.997,0.998,1.264
		c1.151,1.835,1.777,2.251,3.289,5.942C269.55,151.146,267.977,148.263,265.756,145.61"/>
	<path fill-rule="evenodd" fill="#181613" d="M264.132,147.312c-4.816-5.762-11.113-10.45-11.268-15.405
		c-0.153-0.206-0.107-0.113-0.098,0.185c0.977,7.947,7.186,10.826,11.515,16.542c0.19,0.257,0.817,1.001,0.997,1.27
		c1.151,1.84,1.783,2.256,3.29,5.942C267.915,152.848,266.343,149.964,264.132,147.312"/>
	<path fill-rule="evenodd" fill="#13120D" d="M268.198,144.335c-4.821-5.762-11.108-10.455-11.264-15.405
		c-0.158-0.21-0.112-0.113-0.107,0.18c0.987,7.947,7.197,10.831,11.524,16.547c0.191,0.262,0.812,1.003,0.998,1.27
		c1.146,1.83,1.778,2.251,3.284,5.942C271.991,149.866,270.424,146.989,268.198,144.335"/>
	<g>
		<path fill="#241E49" d="M108.83,149.516v6.475c4.271,9.212,9.105,18.224,14.484,26.994h18.984v-33.468H108.83z"/>
		<rect x="142.298" y="116.048" fill="#241E49" width="33.468" height="33.468"/>
		<rect x="175.766" y="149.516" fill="#241E49" width="33.468" height="33.468"/>
		<path fill="#241E49" d="M96.499,116.048c-0.7,0.308-1.4,0.612-2.098,0.925c3.09,11.046,6.954,21.913,11.535,32.542h2.893v-33.468
			H96.499z"/>
		<path fill="#241E49" d="M142.298,100.442c-11.337,2.798-22.515,6.312-33.468,10.525v5.081h33.468V100.442z"/>
		<path fill="#241E49" d="M209.234,92.436c-11.207-0.059-22.382,0.582-33.468,1.901v21.711h33.468V92.436z"/>
		<path fill="#241E49" d="M209.234,216.452h-33.468v28.669c1.858,1.627,3.746,3.222,5.648,4.8h27.82V216.452z"/>
		<path fill="#241E49" d="M142.298,182.984v27.087c1.718,2.156,3.47,4.281,5.251,6.381h28.217v-33.468H142.298z"/>
	</g>
	<path fill="#4D1B25" d="M150.808,9.436c-3.971,0.666-7.935,1.388-11.888,2.189c1.265,7.246,2.531,14.48,3.796,21.726
		c0.335,1.971,0.055,3.606-0.84,4.905c-0.891,1.304-2.285,2.15-4.183,2.57c-1.915,0.425-3.522,0.235-4.827-0.599
		c-1.299-0.83-2.156-2.207-2.564-4.133c-1.495-7.189-2.996-14.379-4.497-21.563c-3.931,0.946-7.851,1.966-11.765,3.052
		c1.669,6.966,3.343,13.932,5.023,20.903c0.408,1.719,1.226,3.601,2.436,5.65c0.744,1.277,1.837,2.408,3.271,3.422
		c1.428,1.007,2.888,1.696,4.39,2.066c1.512,0.375,3.281,0.437,5.347,0.202c2.056-0.235,3.932-0.532,5.628-0.907
		c2.94-0.639,5.386-1.545,7.369-2.75c1.416-0.862,2.716-2.122,3.891-3.774c1.176-1.652,1.966-3.478,2.358-5.47
		c0.38-1.988,0.43-4.043,0.123-6.154C152.857,23.659,151.827,16.542,150.808,9.436 M184.623,5.449
		c0.398,6.663,0.795,13.333,1.193,20.001c-5.051-6.345-10.32-12.571-15.83-18.675c-3.734,0.403-7.459,0.885-11.188,1.417
		c1.483,11.978,2.968,23.95,4.452,35.921c3.416-0.493,6.848-0.924,10.27-1.311c-0.633-6.596-1.266-13.192-1.899-19.789
		c5.286,6.081,10.337,12.28,15.169,18.59c3.438-0.235,6.882-0.42,10.326-0.549c-0.387-12.072-0.768-24.146-1.154-36.217
		C192.183,4.984,188.392,5.186,184.623,5.449 M204.849,40.854c3.662-0.045,7.323-0.034,10.992,0.039
		c0.224-12.067,0.442-24.15,0.666-36.223c-4.021-0.084-8.047-0.101-12.066-0.045C204.574,16.698,204.709,28.782,204.849,40.854
		 M243.771,5.662c-6.328-0.61-11.384,0.711-15.045,3.802c-3.663,3.103-5.539,7.638-5.746,13.551
		c-0.145,4.233,0.572,7.795,2.111,10.684c1.546,2.901,3.595,5.068,6.137,6.546c2.56,1.483,5.802,2.379,9.794,2.783
		c3.914,0.392,7.251,0.033,10.062-1.12c2.811-1.153,5.09-2.957,6.859-5.42c1.764-2.48,2.951-5.795,3.521-9.995
		c0.79-5.761-0.285-10.527-3.349-14.228C255.064,8.568,250.243,6.3,243.771,5.662 M250.042,24.762
		c-0.432,4.032-1.395,6.742-2.866,8.142c-1.484,1.4-3.405,1.977-5.808,1.741c-2.329-0.229-4.115-1.182-5.364-2.889
		c-1.248-1.702-1.77-4.373-1.534-8.024c0.236-3.685,1.119-6.271,2.666-7.75c1.545-1.479,3.516-2.111,5.891-1.875
		c2.475,0.241,4.362,1.249,5.645,2.973C249.947,18.815,250.396,21.374,250.042,24.762 M295.896,15.354
		c-1.417,6.507-2.839,13.007-4.261,19.514c-3.137-7.648-6.524-15.27-10.164-22.829c-3.689-0.767-7.396-1.478-11.104-2.128
		c-1.814,11.921-3.628,23.843-5.437,35.77c3.398,0.588,6.792,1.243,10.19,1.949c1.176-6.513,2.353-13.024,3.527-19.531
		c3.434,7.47,6.607,14.984,9.542,22.532c3.382,0.851,6.748,1.753,10.113,2.722c2.895-11.675,5.784-23.35,8.679-35.02
		C303.299,17.275,299.604,16.284,295.896,15.354"/>
	<path fill="#4D1B25" d="M112.916,72.716c-0.98-0.717-2.195-1.058-3.651-1.008c0.834-0.75,1.423-1.652,1.759-2.705
		c0.325-1.059,0.358-2.1,0.084-3.146c-0.258-0.964-0.711-1.759-1.383-2.386c-0.667-0.633-1.422-1.059-2.239-1.294
		c-0.824-0.235-1.702-0.285-2.632-0.134c-0.919,0.156-2.279,0.537-4.083,1.165c-3.018,1.064-6.036,2.173-9.042,3.326
		c2.312,7.313,4.625,14.614,6.932,21.928c2.408-0.918,4.822-1.814,7.241-2.677c2.749-0.997,4.473-1.629,5.167-1.949
		c1.115-0.515,1.988-1.187,2.626-2.016c0.633-0.828,1.059-1.797,1.271-2.9c0.201-1.109,0.173-2.161-0.09-3.18
		C114.54,74.452,113.885,73.438,112.916,72.716 M97.394,68.489c0.874-0.32,1.737-0.634,2.604-0.947
		c2.134-0.761,3.438-1.175,3.903-1.276c0.789-0.174,1.427-0.106,1.926,0.191c0.504,0.302,0.852,0.795,1.042,1.478
		c0.196,0.728,0.141,1.378-0.179,1.96c-0.319,0.593-0.851,1.058-1.59,1.417c-0.409,0.196-1.49,0.593-3.226,1.215
		c-0.979,0.347-1.96,0.7-2.934,1.052L97.394,68.489z M110.155,79.099c-0.28,0.61-0.728,1.081-1.344,1.422
		c-0.392,0.241-1.383,0.616-2.957,1.176c-1.338,0.471-2.682,0.952-4.026,1.445c-0.587-1.966-1.187-3.931-1.78-5.891
		c1.193-0.437,2.374-0.874,3.579-1.288c2.01-0.716,3.354-1.053,4.014-1.041c0.661,0,1.227,0.19,1.669,0.548
		c0.448,0.358,0.761,0.868,0.94,1.534C110.469,77.794,110.441,78.495,110.155,79.099 M128.628,63.952
		c-1.708-1.085-3.735-1.304-6.064-0.655c-1.299,0.364-2.386,0.896-3.254,1.602c-0.666,0.521-1.237,1.192-1.696,2.016
		c-0.455,0.817-0.762,1.68-0.913,2.587c-0.212,1.22-0.106,2.631,0.302,4.233c0.627,2.492,1.792,4.233,3.483,5.258
		c1.674,1.025,3.634,1.215,5.879,0.577c2.229-0.616,3.836-1.814,4.872-3.606c1.024-1.786,1.288-3.953,0.75-6.518
		C131.45,66.87,130.336,65.033,128.628,63.952 M128.443,74.653c-0.588,1.131-1.489,1.865-2.715,2.206
		c-1.226,0.348-2.341,0.179-3.36-0.515c-1.025-0.684-1.752-1.91-2.19-3.684c-0.437-1.803-0.375-3.271,0.207-4.402
		c0.577-1.13,1.529-1.881,2.828-2.25c1.311-0.364,2.464-0.208,3.45,0.47c0.986,0.678,1.674,1.926,2.066,3.729
		C129.132,72.044,129.037,73.528,128.443,74.653 M145.158,68.718c-0.521-0.386-1.16-0.711-1.915-0.974
		c1.327-0.493,2.273-1.198,2.833-2.128c0.561-0.918,0.74-1.982,0.538-3.181c-0.156-0.952-0.526-1.735-1.114-2.374
		c-0.588-0.639-1.288-1.025-2.112-1.148c-0.822-0.123-2.088-0.005-3.784,0.376c-2.268,0.503-4.52,1.036-6.77,1.59
		c1.069,5.285,2.145,10.572,3.214,15.857c1.029-0.251,2.049-0.503,3.08-0.738c-0.431-2.212-0.862-4.424-1.288-6.63
		c0.207-0.056,0.425-0.101,0.638-0.157c0.717-0.162,1.254-0.224,1.613-0.179c0.353,0.045,0.706,0.191,1.064,0.448
		c0.353,0.257,1.053,0.913,2.072,1.977c0.963,0.991,1.909,1.988,2.861,2.99c1.226-0.263,2.464-0.515,3.69-0.756
		c-0.79-0.918-1.596-1.836-2.396-2.744C146.434,69.86,145.684,69.115,145.158,68.718 M142.492,65.459
		c-0.358,0.212-1.288,0.487-2.811,0.829c-0.772,0.179-1.557,0.353-2.335,0.538c-0.257-1.344-0.52-2.688-0.784-4.032
		c0.834-0.196,1.658-0.392,2.498-0.571c1.294-0.302,2.077-0.447,2.334-0.47c0.533-0.028,0.975,0.101,1.322,0.364
		c0.341,0.269,0.554,0.677,0.655,1.209c0.083,0.476,0.039,0.901-0.112,1.265C143.104,64.955,142.84,65.246,142.492,65.459
		 M160.512,57.16c-0.761-0.61-1.629-0.974-2.609-1.097c-0.729-0.089-1.758-0.022-3.091,0.207c-1.977,0.342-3.941,0.711-5.913,1.086
		c0.851,5.336,1.686,10.667,2.542,16.003c1.937-0.375,3.886-0.733,5.834-1.069c1.143-0.196,2.039-0.459,2.7-0.807
		c0.873-0.448,1.551-0.997,2.015-1.624c0.622-0.84,1.059-1.871,1.306-3.102c0.196-1.008,0.218-2.173,0.056-3.495
		c-0.186-1.517-0.516-2.755-0.992-3.735C161.884,58.554,161.268,57.759,160.512,57.16 M160.12,66.624
		c-0.118,0.75-0.32,1.31-0.617,1.68c-0.291,0.37-0.683,0.667-1.17,0.885c-0.381,0.162-0.997,0.325-1.87,0.471
		c-0.778,0.134-1.557,0.28-2.33,0.414c-0.532-3.539-1.064-7.078-1.596-10.617c0.481-0.089,0.964-0.167,1.445-0.251
		c1.305-0.241,2.19-0.342,2.654-0.313c0.627,0.039,1.154,0.207,1.596,0.509c0.437,0.313,0.807,0.784,1.115,1.411
		c0.308,0.627,0.543,1.568,0.699,2.811C160.215,64.871,160.237,65.868,160.12,66.624 M169.779,67.631l-0.476-4.39
		c2.637-0.342,5.269-0.655,7.906-0.93c-0.083-0.907-0.156-1.814-0.235-2.732c-2.654,0.291-5.308,0.593-7.962,0.941
		c-0.123-1.193-0.246-2.386-0.38-3.573c2.877-0.381,5.756-0.711,8.629-1.008c-0.073-0.913-0.151-1.826-0.224-2.744
		c-3.987,0.415-7.968,0.896-11.944,1.456c0.622,5.376,1.249,10.751,1.865,16.127c3.903-0.561,7.817-1.031,11.737-1.429
		c-0.079-0.913-0.151-1.819-0.23-2.727C175.563,66.92,172.674,67.262,169.779,67.631 M184.752,52.501
		c-1.747,5.572-3.41,11.148-4.983,16.743c1.103-0.106,2.206-0.213,3.314-0.302c0.336-1.266,0.677-2.531,1.025-3.797
		c2.077-0.167,4.16-0.325,6.243-0.459c0.521,1.209,1.031,2.408,1.545,3.606c1.131-0.067,2.274-0.123,3.399-0.179
		c-2.279-5.314-4.636-10.599-7.094-15.863C187.047,52.328,185.9,52.412,184.752,52.501 M184.892,62.34
		c0.589-2.066,1.17-4.121,1.77-6.182c0.857,1.955,1.702,3.903,2.531,5.862C187.764,62.116,186.331,62.222,184.892,62.34
		 M206.014,51.544c0.033,2.996,0.056,5.997,0.083,8.987c0.018,1.288-0.027,2.206-0.111,2.76c-0.084,0.555-0.364,1.031-0.812,1.417
		c-0.448,0.392-1.119,0.588-2.021,0.604c-0.874,0.023-1.574-0.162-2.088-0.548c-0.521-0.386-0.846-0.913-1.003-1.579
		c-0.09-0.403-0.151-1.31-0.185-2.705c-0.078-2.929-0.156-5.874-0.229-8.797c-1.092,0.034-2.172,0.073-3.27,0.112
		c0.101,2.89,0.202,5.779,0.302,8.668c0.062,1.813,0.213,3.186,0.448,4.104c0.163,0.622,0.481,1.21,0.947,1.77
		c0.459,0.554,1.081,0.996,1.854,1.337c0.767,0.331,1.892,0.471,3.377,0.443c1.226-0.028,2.217-0.207,2.978-0.538
		c0.751-0.342,1.362-0.79,1.815-1.349c0.453-0.549,0.772-1.238,0.94-2.039c0.162-0.806,0.252-2.184,0.252-4.138
		c-0.012-2.845-0.012-5.689-0.012-8.534C208.191,51.522,207.105,51.527,206.014,51.544 M221.831,51.746
		c-1.113,1.697-2.212,3.405-3.297,5.118c-1.024-1.769-2.066-3.533-3.119-5.292c-1.271-0.022-2.554-0.039-3.819-0.05
		c1.658,2.604,3.276,5.213,4.872,7.845c-1.854,2.789-3.674,5.588-5.448,8.405c1.242,0.011,2.503,0.021,3.757,0.039
		c1.17-1.848,2.357-3.707,3.573-5.543c1.119,1.904,2.217,3.819,3.303,5.734c1.254,0.045,2.515,0.112,3.779,0.168
		c-1.651-2.873-3.337-5.734-5.067-8.579c1.72-2.576,3.467-5.135,5.259-7.682C224.352,51.852,223.097,51.796,221.831,51.746
		 M253.065,53.314c0.118-0.997-0.017-1.932-0.403-2.794c-0.386-0.863-0.918-1.585-1.578-2.162c-0.667-0.571-1.45-0.991-2.347-1.254
		c-0.896-0.263-2.263-0.493-4.121-0.694c-3.125-0.342-6.255-0.627-9.385-0.873c-0.499,7.727-1.002,15.449-1.506,23.17
		c2.514,0.19,5.018,0.42,7.525,0.683c2.845,0.269,4.636,0.437,5.387,0.442c1.192,0.006,2.234-0.229,3.103-0.723
		c0.867-0.486,1.601-1.192,2.184-2.116c0.587-0.93,0.936-1.91,1.059-2.963c0.15-1.327-0.079-2.536-0.706-3.623
		c-0.633-1.085-1.618-1.926-2.973-2.508c1.035-0.33,1.892-0.907,2.563-1.736C252.545,55.346,252.954,54.394,253.065,53.314
		 M247.488,65.078c-0.47,0.437-1.047,0.672-1.725,0.728c-0.447,0.045-1.478-0.033-3.102-0.201c-1.395-0.151-2.782-0.292-4.172-0.415
		c0.163-2.061,0.314-4.132,0.471-6.193c1.237,0.118,2.469,0.235,3.707,0.37c2.082,0.213,3.421,0.487,4.025,0.772
		c0.605,0.303,1.042,0.706,1.316,1.232c0.28,0.521,0.386,1.13,0.313,1.825C248.233,64.014,247.965,64.642,247.488,65.078
		 M247.606,55.111c-0.493,0.403-1.143,0.611-1.943,0.616c-0.441,0-1.567-0.101-3.365-0.285c-1.02-0.106-2.021-0.201-3.035-0.297
		l0.415-5.353c0.901,0.089,1.797,0.168,2.693,0.263c2.206,0.229,3.539,0.403,3.998,0.51c0.772,0.184,1.332,0.526,1.685,1.019
		c0.354,0.493,0.488,1.098,0.415,1.814C248.396,54.137,248.11,54.713,247.606,55.111 M255.294,71.159
		c3.897,0.583,7.795,1.244,11.687,1.972c0.135-0.896,0.274-1.797,0.42-2.699c-2.878-0.543-5.756-1.042-8.646-1.501
		c0.196-1.455,0.387-2.922,0.576-4.378c2.627,0.415,5.253,0.868,7.867,1.355c0.129-0.901,0.275-1.803,0.41-2.699
		c-2.627-0.487-5.275-0.941-7.912-1.367l0.47-3.566c2.867,0.454,5.729,0.958,8.59,1.495c0.135-0.907,0.279-1.803,0.42-2.71
		c-3.954-0.75-7.918-1.416-11.888-2.004C256.628,60.419,255.961,65.789,255.294,71.159 M275.564,62.29
		c0.98-0.728,2.167-0.93,3.566-0.622c0.919,0.202,1.647,0.61,2.174,1.199c0.532,0.599,0.828,1.31,0.901,2.139
		c1.086,0.05,2.173,0.095,3.264,0.162c-0.021-1.534-0.498-2.855-1.444-3.942c-0.946-1.092-2.407-1.87-4.385-2.301
		c-1.528-0.342-2.85-0.347-3.964-0.033c-1.461,0.408-2.643,1.192-3.545,2.351c-0.906,1.159-1.489,2.57-1.764,4.239
		c-0.241,1.534-0.168,3.018,0.219,4.44c0.392,1.428,1.12,2.609,2.195,3.555c1.069,0.952,2.391,1.596,3.992,1.955
		c1.254,0.28,2.536,0.319,3.857,0.106c1.328-0.201,2.369-0.549,3.153-1.036c0.431-2.111,0.856-4.217,1.288-6.322
		c-2.264-0.554-4.52-1.086-6.793-1.59c-0.168,0.896-0.33,1.792-0.492,2.688c1.191,0.263,2.39,0.538,3.583,0.817
		c-0.128,0.678-0.263,1.344-0.392,2.021c-0.549,0.263-1.16,0.454-1.87,0.565c-0.706,0.112-1.378,0.101-2.033-0.045
		c-1.304-0.291-2.29-0.985-2.939-2.111c-0.644-1.114-0.812-2.626-0.492-4.524C273.952,64.25,274.584,63.006,275.564,62.29
		 M292.772,62.553c-1.064-0.286-2.129-0.566-3.197-0.835c-1.104,5.23-2.213,10.466-3.321,15.695
		c3.567,0.913,7.117,1.888,10.662,2.929c0.212-0.885,0.431-1.758,0.644-2.643c-2.542-0.75-5.101-1.467-7.66-2.145
		C290.862,71.215,291.82,66.881,292.772,62.553 M305.488,68.93c2.806,0.885,5.594,1.792,8.388,2.755
		c0.247-0.874,0.499-1.747,0.745-2.626c-3.863-1.327-7.739-2.57-11.625-3.747c-1.305,5.225-2.608,10.449-3.908,15.679
		c3.818,1.153,7.627,2.379,11.418,3.684c0.246-0.873,0.498-1.747,0.744-2.621c-2.805-0.958-5.622-1.881-8.443-2.766
		c0.369-1.422,0.738-2.833,1.104-4.255c2.563,0.806,5.122,1.635,7.682,2.508c0.241-0.873,0.487-1.741,0.733-2.615
		c-2.576-0.879-5.146-1.719-7.738-2.525L305.488,68.93z M327.539,78.719c0.403-1.422,0.264-2.744-0.442-3.976
		c-0.705-1.221-2.038-2.206-3.986-2.94c-1.198-0.442-2.263-0.638-3.226-0.587c-0.946,0.056-1.753,0.347-2.396,0.874
		c-0.655,0.526-1.087,1.187-1.322,1.971c-0.352,1.226-0.179,2.431,0.505,3.617c0.487,0.84,1.495,1.77,3.007,2.789
		c1.17,0.795,1.92,1.327,2.234,1.59c0.47,0.387,0.761,0.75,0.89,1.087c0.123,0.335,0.135,0.683,0.022,1.041
		c-0.185,0.571-0.593,0.963-1.215,1.198c-0.628,0.235-1.423,0.168-2.396-0.202c-0.918-0.336-1.579-0.851-1.982-1.523
		c-0.397-0.672-0.526-1.551-0.409-2.637c-1.019-0.258-2.037-0.509-3.062-0.761c-0.291,1.797-0.067,3.331,0.672,4.597
		c0.751,1.266,2.061,2.24,3.937,2.945c1.294,0.476,2.424,0.706,3.41,0.661c0.979-0.034,1.831-0.342,2.56-0.918
		c0.717-0.583,1.231-1.311,1.517-2.184c0.309-0.969,0.381-1.859,0.196-2.676c-0.185-0.818-0.576-1.557-1.17-2.206
		c-0.6-0.661-1.58-1.456-2.968-2.375c-1.389-0.918-2.234-1.607-2.525-2.083c-0.23-0.369-0.285-0.738-0.179-1.097
		c0.116-0.409,0.38-0.661,0.783-0.784c0.627-0.185,1.384-0.106,2.29,0.229c0.879,0.331,1.479,0.745,1.809,1.26
		c0.33,0.51,0.442,1.188,0.318,2.027C325.45,78.002,326.497,78.36,327.539,78.719"/>
	<path fill="#4D1B25" d="M404.326,152.667c-18.231-16.957-38.79-31.446-61.104-43.068c5.513-21.137,8.562-42.795,9.062-64.381
		l0.007-0.275l-0.243-0.131c-2.91-1.573-5.536-2.949-8.03-4.206l-0.646-0.326l-0.006,0.724c-0.179,21.6-2.992,43.29-8.363,64.478
		c-38.371-18.429-79.942-28.051-123.573-28.604c-44.283-0.568-87.738,8.442-129.014,26.702c-5.062-20.586-7.717-41.637-7.892-62.577
		l-0.006-0.723l-0.646,0.326c-2.484,1.252-5.111,2.627-8.03,4.206l-0.242,0.131l0.006,0.275c0.483,20.839,3.341,41.758,8.494,62.184
		c-24.785,11.822-48.133,26.868-69.401,44.725L4.5,152.294l0.046,0.256c0.532,2.984,1.133,6.045,1.785,9.099l0.157,0.738
		l1.986-1.694c20.774-17.73,43.653-32.684,68.011-44.452c10.136,35.359,26.871,68.407,49.743,98.234
		c20.608,26.872,45.601,50.123,74.291,69.115c-24.845,14.859-51.811,26.237-80.159,33.82l-0.604,0.161l0.346,0.521
		c1.766,2.664,3.345,4.979,4.829,7.079l0.182,0.259l0.305-0.085c29.602-8.192,57.704-20.429,83.528-36.37
		c25.824,15.941,53.926,28.178,83.528,36.37l0.306,0.085l0.182-0.259c1.483-2.101,3.063-4.416,4.829-7.079l0.345-0.521l-0.604-0.161
		c-28.348-7.583-55.314-18.961-80.158-33.82c28.688-18.991,53.682-42.243,74.29-69.115c22.39-29.197,38.91-61.5,49.107-96.017
		c21.518,11.396,41.308,25.553,58.831,42.085l3.062,2.891l0.153-0.807c0.644-3.398,1.183-6.525,1.647-9.561l0.036-0.236
		L404.326,152.667z M208.945,278.352c-29.311-18.842-54.737-42.174-75.578-69.352c-22.495-29.333-38.856-61.833-48.635-96.606
		c40.459-18.109,83.081-27.047,126.584-26.521c42.901,0.544,83.708,10.11,121.294,28.436c-9.844,34.061-26.021,65.918-48.087,94.691
		C263.684,236.178,238.257,259.509,208.945,278.352z"/>
</g>
</svg>
