<?xml version="1.0" encoding="UTF-8" standalone="no"?>
<svg
   version="1.1"
   id="svg833"
   xml:space="preserve"
   width="800"
   height="740.75513"
   viewBox="0 0 800 740.75513"
   sodipodi:docname="Logo_SC_Albi_-_Ancien.svg"
   inkscape:version="1.2 (dc2aeda, 2022-05-15)"
   xmlns:inkscape="http://www.inkscape.org/namespaces/inkscape"
   xmlns:sodipodi="http://sodipodi.sourceforge.net/DTD/sodipodi-0.dtd"
   xmlns="http://www.w3.org/2000/svg"
   xmlns:svg="http://www.w3.org/2000/svg"
   xmlns:rdf="http://www.w3.org/1999/02/22-rdf-syntax-ns#"
   xmlns:cc="http://creativecommons.org/ns#"
   xmlns:dc="http://purl.org/dc/elements/1.1/"><metadata
     id="metadata839"><rdf:RDF><cc:Work
         rdf:about=""><dc:format>image/svg+xml</dc:format><dc:type
           rdf:resource="http://purl.org/dc/dcmitype/StillImage" /><dc:title /></cc:Work></rdf:RDF></metadata><defs
     id="defs837" /><sodipodi:namedview
     pagecolor="#ffffff"
     bordercolor="#666666"
     borderopacity="1"
     objecttolerance="10"
     gridtolerance="10"
     guidetolerance="10"
     inkscape:pageopacity="0"
     inkscape:pageshadow="2"
     inkscape:window-width="1920"
     inkscape:window-height="1080"
     id="namedview835"
     showgrid="false"
     inkscape:zoom="0.70710678"
     inkscape:cx="401.63665"
     inkscape:cy="482.24682"
     inkscape:window-x="0"
     inkscape:window-y="0"
     inkscape:window-maximized="0"
     inkscape:current-layer="g841"
     inkscape:showpageshadow="2"
     inkscape:pagecheckerboard="0"
     inkscape:deskcolor="#d1d1d1" /><g
     id="g841"
     inkscape:groupmode="layer"
     inkscape:label="Logo"
     transform="matrix(1.3333333,0,0,-1.3333333,606.41926,870.01571)"><g
       id="g11796"
       transform="matrix(1.1404685,0,0,1.1404685,63.887082,-91.657321)"
       style="stroke-width:0.876833"><g
         id="g11660"
         style="stroke-width:0.876833"><g
           id="g11647"
           style="stroke-width:0.876833"><path
             style="color:#000000;fill:#ffffff;stroke-width:0.876833"
             d="m -191.76172,165.37305 -10.33594,8.64453 c -9.07129,7.58666 -17.87487,15.51847 -26.3457,23.79687 -19.08688,18.6319 -36.51251,38.90688 -52.10156,60.62696 l -0.002,0.002 c -52.71615,73.48134 -84.05929,163.41358 -84.86329,260.52734 l -0.0937,11.17383 10.43164,4.00977 c 6.49115,2.49505 13.05452,4.8269 19.67188,7.02539 -3.74217,8.36887 -5.86719,17.61225 -5.86719,27.31054 0,0.60705 -0.0102,1.52211 0.0684,2.76758 l 0.68555,10.85742 1.76367,0.58594 c -0.13262,1.67465 -0.42578,3.29886 -0.42578,5.00977 0,35.59597 29.22212,64.80078 64.85156,64.80078 14.51198,0 27.9529,-4.89903 38.80664,-13.03125 12.06082,8.18696 26.6129,13.03125 42.21289,13.03125 13.15607,0 25.54512,-3.47925 36.35547,-9.45703 l 2.25391,6.33789 h 67.123044 l 38.376954,-107.91211 c 6.960375,-2.29383 13.89461,-4.69004 20.748046,-7.32813 l 10.421875,-4.01172 -0.08984,-11.16601 C -18.901648,421.47375 -50.509678,331.20773 -103.5918,257.56836 l -0.002,-0.002 c -15.58477,-21.61259 -32.99453,-41.80256 -52.08398,-60.36524 l -0.0117,-0.0117 -0.0117,-0.01 c -8.27476,-8.01488 -16.83097,-15.75061 -25.7168,-23.16992 z"
             id="path10417"
             sodipodi:nodetypes="cccccccccscccsscscccccccccccccc" /><path
             style="fill:#1d1d1a;fill-opacity:1;fill-rule:nonzero;stroke:none;stroke-width:0.0619654"
             d="m -61.74052,528.62997 -37.21179,104.63835 h -44.36213 l -5.89879,-16.5911 c -10.84355,12.08874 -26.57319,19.71046 -44.09147,19.71046 -16.89428,0 -32.1052,-7.08109 -42.87949,-18.42922 -8.93547,11.2294 -22.69413,18.42922 -38.13968,18.42922 -26.92589,0 -48.72612,-21.80016 -48.72612,-48.67651 0,-5.5822 0.96125,-10.90998 2.66445,-15.90066 l -4.72072,-1.56816 c -0.0362,-0.57384 -0.0362,-1.14556 -0.0362,-1.75261 0,-14.23074 5.83603,-27.07847 15.24421,-36.33689 -13.38914,-3.77659 -26.54004,-8.11075 -39.38783,-13.04915 0.77599,-93.73121 30.9903,-180.3785 81.84188,-251.26081 15.04203,-20.95792 31.85079,-40.5163 50.26375,-58.49034 8.16022,-7.9752 16.65683,-15.63013 25.42692,-22.96488 8.56304,7.1498 16.82573,14.61732 24.83401,22.37409 18.41296,17.90485 35.20759,37.38061 50.24679,58.23662 51.20578,71.03638 81.67357,158.00451 82.43256,252.10532 -9.02168,3.47271 -18.20873,6.62528 -27.50037,9.52627"
             id="path853" /><g
             id="g11501"
             style="stroke-width:0.876833"><path
               style="fill:#fcc912;fill-opacity:1;fill-rule:nonzero;stroke:none;stroke-width:0.0619654"
               d="m -116.67271,320.90304 v 188.06665 c 17.316876,-3.08615 34.34401,-7.13339 50.918152,-12.17426 C -68.75519,433.01117 -86.89749,373.20702 -116.67271,320.90304"
               id="path884" /><path
               style="fill:#fcc912;fill-opacity:1;fill-rule:nonzero;stroke:none;stroke-width:0.0619654"
               d="m -166.91951,251.4368 c -7.90651,-8.75088 -16.20171,-17.14869 -24.834,-25.15668 -8.886,8.2294 -17.34939,16.82848 -25.42692,25.8303 v 262.94604 c 7.84008,0.4226 15.67946,0.70952 23.60506,0.70952 8.95242,0 17.82216,-0.33921 26.6389,-0.87772 V 251.4368 Z"
               id="path878" /><path
               style="fill:#fcc912;fill-opacity:1;fill-rule:nonzero;stroke:none;stroke-width:0.0619654"
               d="m -267.42511,321.93269 c -29.59275,52.35346 -47.53096,112.17386 -50.34643,175.94257 16.40305,4.83875 33.23096,8.70085 50.34643,11.59971 z"
               id="path874" /></g></g><g
           id="g11496"
           style="stroke-width:0.876833"><path
             d="m -285.14762,591.09836 c 0.74259,5.05995 5.19287,9.15666 11.85341,9.15666 6.18924,0 10.52058,-4.19919 11.87037,-10.15027 3.47271,0.72577 16.70983,3.45574 19.55852,4.19848 -2.96742,13.72545 -15.22435,25.35837 -31.91722,25.35837 -19.05316,0 -32.54109,-15.08937 -32.54109,-33.28397 0,-2.59498 0.25144,-5.5624 0.37017,-7.16589 3.69333,-1.36393 41.3085,-15.72964 43.41728,-16.47238 -1.01269,-6.17228 -4.95747,-10.15028 -11.26261,-10.15028 -6.07038,0 -10.77436,3.84514 -12.74809,9.78068 -2.71364,-0.62402 -17.19816,-3.71016 -19.54241,-4.19919 3.10311,-12.61311 14.34954,-24.98807 31.2771,-24.98807 19.18821,0 33.14828,13.86043 33.14828,32.17093 0,3.45645 -0.35335,7.65493 -0.73991,9.39128 -1.92363,0.77595 -39.67377,15.24131 -42.7438,16.35365"
             style="fill:#fcc912;fill-opacity:1;fill-rule:nonzero;stroke:none;stroke-width:0.0619654"
             id="path857" /><path
             d="m -176.41043,563.02628 c -4.07975,-5.0762 -10.37147,-9.15666 -17.55433,-9.15666 -12.37495,0 -22.28848,10.52341 -22.28848,22.50968 0,12.62936 10.18349,22.64466 22.28848,22.64466 9.51001,0 14.09859,-5.44651 17.19816,-8.41463 1.62045,1.60137 13.50778,13.97986 14.45193,14.97347 -5.79985,5.9518 -16.06956,14.09506 -31.65009,14.09506 -23.63827,0 -43.53318,-18.5642 -43.53318,-43.28231 0,-24.98806 20.2843,-43.17983 43.53318,-43.17983 15.21093,0 26.21984,9.03793 31.92005,15.20739 -1.21411,1.24803 -13.10144,13.3721 -14.36572,14.60317"
             style="fill:#fcc912;fill-opacity:1;fill-rule:nonzero;stroke:none;stroke-width:0.0619654"
             id="path859" /><path
             d="m -102.86387,535.18952 h 22.76268 c -0.75899,1.98723 -30.56955,81.15132 -31.05858,82.53432 h -21.53162 c -0.45582,-1.63741 -29.04944,-80.78171 -29.67346,-82.53432 h 22.52594 c 0.35335,1.11234 4.45006,12.74526 4.80341,13.8576 h 27.09755 c 0.48833,-1.36392 4.45007,-12.12125 5.07408,-13.8576 m -25.12375,34.1419 c 0.38939,1.09608 5.56523,16.20454 6.05356,17.68648 0.48903,-1.36322 6.05426,-16.69287 6.45708,-17.68648 z"
             style="fill:#fcc912;fill-opacity:1;fill-rule:nonzero;stroke:none;stroke-width:0.0619654"
             id="path861" /></g></g><g
         id="g11758"
         transform="translate(-0.6796675)"
         style="stroke-width:0.876833"><g
           id="path10254"
           transform="translate(0,-9)"
           style="fill:#ffffff;stroke-width:0.876833"><path
             style="color:#000000;fill:#ffffff;stroke-width:0.876833;stroke-linecap:square"
             d="m -443.14258,221.0293 29.40039,46.14453 -40.39258,19.55859 13.50196,4.80664 c 26.43299,9.41046 53.10055,18.06913 80.20703,23.84766 l -2.10742,12.64062 c -1.25029,7.50171 -0.92664,14.72764 3.11328,20.65625 4.03992,5.92862 10.91323,9.52082 20.2793,11.95508 50.45818,13.11416 100.80962,17.50391 148.05664,17.50391 47.247,0 97.598455,-4.38975 148.056636,-17.50391 9.366067,-2.43426 16.237422,-6.02646 20.277344,-11.95508 4.039922,-5.92861 4.363571,-13.15454 3.113281,-20.65625 l -2.107422,-12.64062 c 27.1069465,-5.77853 53.773604,-14.43704 80.207032,-23.84766 l 13.501953,-4.80664 -40.392578,-19.55859 29.40039,-46.14453 -17.40625,7.05468 c -28.371545,11.5002 -57.255534,22.18335 -95.484375,28.65039 -2.619961,0.44322 -4.857883,0.89473 -7.042968,1.74805 -2.185086,0.85332 -4.504092,2.32166 -6.001954,4.61914 -2.995722,4.59496 -2.085547,9.21405 -1.064453,14.86914 1.139172,6.30905 1.108792,12.33918 0.892578,17.99805 C -106.72512,305.95227 -147.6394,309.5 -191.08398,309.5 c -43.4446,0 -84.36082,-3.54773 -125.95118,-13.53125 -0.21621,-5.65887 -0.24659,-11.689 0.89258,-17.99805 1.02114,-5.65535 1.92989,-10.27458 -1.0664,-14.86914 -1.49815,-2.29728 -3.8149,-3.76589 -6,-4.61914 -2.18511,-0.85325 -4.42499,-1.30484 -7.04493,-1.74805 -38.22881,-6.46704 -67.11081,-17.15016 -95.48242,-28.65039 z"
             id="path10260"
             sodipodi:nodetypes="ccccccssssscccccccsssscscsssscc" /></g><path
           id="path4314"
           style="fill:#1d1d1a;fill-opacity:1;stroke:none;stroke-width:0.131525;stroke-linecap:square;stroke-dasharray:none"
           d="m -191.08486,363.14327 c -46.87502,0 -96.7145,-4.35988 -146.54737,-17.31152 -17.31229,-4.4995 -21.23629,-12.29767 -18.98291,-25.81788 l 3.03809,-18.22265 c -28.59087,-5.62496 -56.8531,-14.86935 -85.04298,-24.90528 l 33.56104,-16.24951 -22.93066,-35.99121 c 28.48775,11.5473 57.92238,22.43951 96.73535,29.00537 9.84031,1.66466 11.14364,3.52624 9.20654,14.2544 -1.58067,8.75418 -1.23977,17.02652 -0.854,23.86377 43.69666,10.96208 86.50409,14.73046 131.8169,14.73046 45.3128,0 88.12024,-3.76838 131.816895,-14.73046 0.385769,-6.83725 0.726664,-15.10959 -0.854004,-23.86377 -1.937098,-10.72816 -0.635232,-12.58974 9.205078,-14.2544 38.812971,-6.56586 68.249067,-17.45807 96.736819,-29.00537 l -22.930665,35.99121 33.561036,16.24951 c -28.189872,10.03593 -56.45210926,19.28032 -85.042971,24.90528 l 3.038086,18.22265 c 2.253378,13.52021 -1.670618,21.31838 -18.98291,25.81788 -49.83287,12.95164 -99.672354,17.31152 -146.547364,17.31152 z"
           sodipodi:nodetypes="sscccccsscscsscccccss" /><g
           id="g11692"
           style="fill:#fcc912;fill-opacity:1;stroke-width:0.876833"><path
             id="path10199"
             style="fill:#fcc912;fill-opacity:1;stroke:none;stroke-width:0.131525;stroke-linecap:square;stroke-dasharray:none"
             d="M -29.04835,297.08321 C -7.12251,292.21651 18.1094,284.5006 43.23876,276.43038 L 14.99218,263.06661 31.69726,236.03438 c -26.84745,9.33567 -54.09303,17.79368 -83.67628,23.08301 -5.25075,0.93881 -5.04341,2.57966 -3.5288,4.18652 l 24.48486,-3.27539 -20.44629,6.60791 c 0.37697,0.29155 1.03263,0.95107 1.43008,1.22838 l 23.11777,-2.82359 -18.22558,5.67187 c 0.42573,0.25529 0.84842,0.51779 1.27294,0.7793 l 23.17823,-2.65576 -18.26514,6.1289 c 0.35727,0.30604 0.70445,0.62373 1.04297,0.95215 l 22.2334,-2.52539 -19.16748,6.08057 c 0.14708,0.20303 0.28853,0.41052 0.43066,0.61816 l 21.01465,-1.83838 -18.48193,6.37207 c 0.12362,0.27627 0.24709,0.55271 0.36328,0.83496 l 20.70117,-2.04345 -19.28906,6.34423 c 0.0704,0.27827 0.13969,0.5579 0.20361,0.84083 l 21.36328,-2.17383 -20.68359,6.34277 c 0.0799,0.7587 0.14534,1.52627 0.18164,2.31299 z"
             sodipodi:nodetypes="ccccscccccccccccccccccccccc" /><path
             id="path4474"
             style="fill:#fcc912;fill-opacity:1;stroke:none;stroke-width:0.131525;stroke-linecap:square;stroke-dasharray:none"
             d="m -353.12149,297.08321 c -21.92584,-4.8667 -47.15775,-12.58261 -72.28711,-20.65283 l 28.24658,-13.36377 -16.70508,-27.03223 c 26.84745,9.33567 54.09303,17.79368 83.67628,23.08301 5.25075,0.93881 5.04341,2.57966 3.5288,4.18652 l -24.48486,-3.27539 20.44629,6.60791 c -0.37697,0.29155 -1.03263,0.95107 -1.43008,1.22838 l -23.11777,-2.82359 18.22558,5.67187 c -0.42573,0.25529 -0.84842,0.51779 -1.27294,0.7793 l -23.17823,-2.65576 18.26514,6.1289 c -0.35727,0.30604 -0.70445,0.62373 -1.04297,0.95215 l -22.2334,-2.52539 19.16748,6.08057 c -0.14708,0.20303 -0.28853,0.41052 -0.43066,0.61816 l -21.01465,-1.83838 18.48193,6.37207 c -0.12362,0.27627 -0.24709,0.55271 -0.36328,0.83496 l -20.70117,-2.04345 19.28906,6.34423 c -0.0704,0.27827 -0.13969,0.5579 -0.20361,0.84083 l -21.36328,-2.17383 20.68359,6.34277 c -0.0799,0.7587 -0.14534,1.52627 -0.18164,2.31299 z"
             sodipodi:nodetypes="ccccscccccccccccccccccccccc" /><path
             style="fill:#fcc912;fill-opacity:1;stroke:none;stroke-width:0.131525;stroke-linecap:square;stroke-dasharray:none"
             d="m -328.36826,291.00891 c -0.66377,-7.57262 -0.0564,-15.21657 1.21489,-20.04576 l -13.81942,8.65613 c -4.60784,2.88623 -2.98198,6.60977 1.21489,7.89681 z"
             id="path4476"
             sodipodi:nodetypes="ccssc" /><path
             id="path4532"
             style="fill:#fcc912;fill-opacity:1;stroke:none;stroke-width:0.131525;stroke-linecap:square;stroke-dasharray:none"
             d="m -191.08486,357.22091 c -56.22162,0 -99.19683,-3.46863 -144.03809,-15.76612 -10.27821,-2.81875 -19.7364,-6.13102 -16.78418,-21.13623 2.32631,-11.82397 4.10745,-20.51344 5.92236,-30.37207 6.71122,4.38027 14.82052,5.71452 22.28906,7.27148 48.29493,10.06809 89.51418,14.74805 132.61085,14.74805 43.09666,0 84.31592,-4.67996 132.61084,-14.74805 7.468542,-1.55696 15.57784,-2.89121 22.289063,-7.27148 1.814908,9.85863 3.596046,18.5481 5.922363,30.37207 2.952217,15.00521 -6.50597,18.31748 -16.78418,21.13623 -44.841265,12.29749 -87.816476,15.76612 -144.038086,15.76612 z"
             sodipodi:nodetypes="ssscssscsss" /><path
             style="fill:#fcc912;fill-opacity:1;stroke:none;stroke-width:0.131525;stroke-linecap:square;stroke-dasharray:none"
             d="m -53.80158,291.00891 c 0.66377,-7.57262 0.0564,-15.21657 -1.21489,-20.04576 l 13.81942,8.65613 c 4.60784,2.88623 2.98198,6.60977 -1.21489,7.89681 z"
             id="path10201"
             sodipodi:nodetypes="ccssc" /></g><g
           id="g11675"
           style="stroke-width:0.876833"><path
             id="path8302"
             style="fill:#1d1d1a;fill-opacity:1;stroke:none;stroke-width:0.0657625;stroke-linecap:square;stroke-dasharray:none"
             d="m -383.1962,280.07051 c -2.65777,0.0714 -2.72021,-3.83203 -2.72021,-3.83203 0,0 -2.80226,4.33773 -5.40234,1.11914 2.10525,0.55668 3.11016,0.21862 3.73388,-2.10791 l 1.88965,-6.93457 -6.84961,-1.86621 c -2.33374,-0.59626 -3.12169,0.11126 -3.66797,2.21924 -1.56303,-3.94406 3.53467,-4.02539 3.53467,-4.02539 0,0 -4.33773,-2.80226 -1.11914,-5.40235 -0.55668,2.10526 -0.21715,3.10871 2.10937,3.73243 l 6.93311,1.88964 1.86621,-6.8496 c 0.59626,-2.33373 -0.11126,-3.12169 -2.21924,-3.66797 3.94406,-1.56302 4.02539,3.53466 4.02539,3.53466 0,0 2.80372,-4.33771 5.40381,-1.11914 -2.10526,-0.55668 -3.11017,-0.21716 -3.73388,2.10938 l -1.88965,6.9331 6.84961,1.86768 c 2.33372,0.59626 3.12169,-0.11126 3.66797,-2.21924 1.56301,3.94406 -3.53467,4.02539 -3.53467,4.02539 0,0 4.33771,2.80226 1.11914,5.40235 0.55668,-2.10526 0.21716,-3.10871 -2.10938,-3.73243 l -6.93457,-1.88964 -1.86621,6.84814 c -0.59626,2.33374 0.11126,3.12169 2.21924,3.66797 -0.49301,0.19538 -0.92549,0.28717 -1.30518,0.29736 z" /><path
             id="path10205"
             style="fill:#1d1d1a;fill-opacity:1;stroke:none;stroke-width:0.0657625;stroke-linecap:square;stroke-dasharray:none"
             d="m 1.02636,280.07051 c 2.65777,0.0714 2.72021,-3.83203 2.72021,-3.83203 0,0 2.80226,4.33773 5.40234,1.11914 -2.10525,0.55668 -3.11016,0.21862 -3.73388,-2.10791 l -1.88965,-6.93457 6.84961,-1.86621 c 2.33374,-0.59626 3.12169,0.11126 3.66797,2.21924 1.56303,-3.94406 -3.53467,-4.02539 -3.53467,-4.02539 0,0 4.33773,-2.80226 1.11914,-5.40235 0.55668,2.10526 0.21715,3.10871 -2.10937,3.73243 l -6.93311,1.88964 -1.86621,-6.8496 c -0.59626,-2.33373 0.11126,-3.12169 2.21924,-3.66797 -3.94406,-1.56302 -4.02539,3.53466 -4.02539,3.53466 0,0 -2.80372,-4.33771 -5.40381,-1.11914 2.10526,-0.55668 3.11017,-0.21716 3.73388,2.10938 l 1.88965,6.9331 -6.84961,1.86768 c -2.33372,0.59626 -3.12169,-0.11126 -3.66797,-2.21924 -1.56301,3.94406 3.53467,4.02539 3.53467,4.02539 0,0 -4.33771,2.80226 -1.11914,5.40235 -0.55668,-2.10526 -0.21716,-3.10871 2.10938,-3.73243 l 6.93457,-1.88964 1.86621,6.84814 c 0.59626,2.33374 -0.11126,3.12169 -2.21924,3.66797 0.49301,0.19538 0.92549,0.28717 1.30518,0.29736 z" /><g
             id="g10158"
             style="fill:#1d1d1a;fill-opacity:1;stroke:none;stroke-width:0.876833"
             transform="translate(0,-9)"><rect
               style="fill:#1d1d1a;fill-opacity:1;stroke:none;stroke-width:3.3845;stroke-linecap:square"
               id="rect557"
               width="6.3903527"
               height="26.390053"
               x="-199.54445"
               y="-357.43134"
               transform="scale(1,-1)" /><path
               id="rect663"
               style="fill:#1d1d1a;fill-opacity:1;stroke:none;stroke-width:0.131525;stroke-linecap:square;stroke-dasharray:none"
               d="m -214.42553,-382.42999 -21.48071,-8e-4 -0.0945,25.89081 21.47927,6.2e-4 0.0951,-5.64815 -15.1244,1.7e-4 4e-5,-4.2327 11.53233,0.071 -0.0388,-5.92434 -11.49381,-0.0722 -9e-5,-3.96706 15.1244,-1.7e-4 z"
               transform="matrix(0.99255094,0.12183031,0.12183031,-0.99255094,0,0)"
               sodipodi:nodetypes="ccccccccccccc" /><path
               id="rect731"
               style="fill:#1d1d1a;fill-opacity:1;stroke:none;stroke-width:0.131525;stroke-linecap:square;stroke-dasharray:none"
               d="m -220.28248,-375.67216 -2.3e-4,25.89464 6.24499,-9.1e-4 5.2e-4,-8.27647 8.66871,-0.0697 c 2.38282,-0.0224 7.60174,-2.96692 7.69625,-8.76566 0.085,-5.21414 -4.27946,-8.70921 -8.78555,-8.7784 -4.50609,-0.0692 -9.15641,-0.004 -13.82469,-0.004 z m 16.63871,8.83852 c 0.002,1.19499 -0.58532,3.28736 -2.72593,3.25381 l -7.68803,-4.2e-4 0.0207,-6.35112 7.74255,-4.2e-4 c 1.62634,0.0965 2.62641,1.61139 2.65072,3.09815 z"
               transform="matrix(0.99573372,0.09227333,0.09227333,-0.99573372,0,0)"
               sodipodi:nodetypes="cccccsccccccccc" /><path
               id="rect1575"
               style="fill:#1d1d1a;fill-opacity:1;stroke:none;stroke-width:0.131525;stroke-linecap:square;stroke-dasharray:none"
               d="m -234.37956,-397.31702 -6.56124,-1.7e-4 3.3e-4,26.0901 6.56124,1.6e-4 c 8.50396,0.0743 18.26559,-1.49664 18.40055,-13.24866 0.12516,-10.89888 -8.54762,-12.8632 -18.40088,-12.84143 z m 6.11667,6.28645 c 3.36332,0.65041 5.97594,2.50432 5.95956,6.90374 -0.0242,6.49504 -5.76708,6.81435 -12.0763,6.8693 l 6.2e-4,-13.95879 c 2.05141,-0.161 4.20442,-0.18395 6.11612,0.18575 z"
               transform="matrix(0.98255012,0.18599803,0.18599803,-0.98255012,0,0)"
               sodipodi:nodetypes="ccccscssccs" /><path
               id="rect2475"
               style="fill:#1d1d1a;fill-opacity:1;stroke:none;stroke-width:0.131525;stroke-linecap:square;stroke-dasharray:none"
               d="m -196.53094,-362.46158 -6.1296,6e-5 7e-4,16.65676 c 1.2e-4,2.83803 -2.11545,4.06474 -4.03959,4.12773 -1.9108,0.0625 -4.27098,-1.38281 -4.27109,-3.82798 l -7.4e-4,-16.65529 -6.12809,-10e-4 -7.7e-4,16.65671 c -1.6e-4,3.36505 2.64463,9.50858 10.56112,9.22446 5.48052,-0.1967 10.00701,-3.57139 10.00729,-9.52437 z"
               transform="matrix(0.99964837,0.02651676,0.02651676,-0.99964837,0,0)"
               sodipodi:nodetypes="ccsssccsssc" /><path
               d="m -181.7339,348.66867 c 0.23898,1.62766 1.67113,2.94547 3.81458,2.94547 1.99177,0 3.38565,-1.35078 3.82003,-3.26509 1.11756,0.23347 5.37743,1.11162 6.29417,1.35054 -0.95494,4.41512 -4.89937,8.15715 -10.27135,8.15715 -6.13155,0 -10.47213,-4.85387 -10.47213,-10.70661 0,-0.83474 0.081,-1.78928 0.11908,-2.30508 1.18856,-0.43875 13.29359,-5.05983 13.97222,-5.29876 -0.32588,-1.98545 -1.59536,-3.26508 -3.62445,-3.26508 -1.95352,0 -3.46731,1.23689 -4.10248,3.1462 -0.87329,-0.20074 -5.53458,-1.19347 -6.289,-1.35078 0.99862,-4.05731 4.61786,-8.03801 10.06538,-8.03801 6.175,0 10.66751,4.45854 10.66751,10.34856 0,1.11185 -0.11376,2.46239 -0.2381,3.02093 -0.61905,0.24961 -12.76752,4.90275 -13.7555,5.26056"
               style="fill:#1d1d1a;fill-opacity:1;fill-rule:nonzero;stroke:none;stroke-width:0.131525;stroke-dasharray:none"
               id="path3305" /><path
               id="rect3327"
               style="fill:#1d1d1a;fill-opacity:1;stroke:none;stroke-width:3.3845;stroke-linecap:square"
               inkscape:transform-center-x="-0.31026431"
               inkscape:transform-center-y="-1.1391676"
               d="m -176.85744,-345.01395 4.2e-4,6.04324 3.51993,-7.6e-4 -6.5e-4,19.78562 6.58345,-10e-6 3.4e-4,-26.05492 z"
               transform="matrix(0.99793034,-0.06430419,-0.06430419,-0.99793034,0,0)"
               sodipodi:nodetypes="ccccccc" /><path
               style="fill:#1d1d1a;fill-opacity:1;stroke:none;stroke-width:0.131525;stroke-linecap:square;stroke-dasharray:none"
               d="m -94.568782,322.26739 6.657718,-0.6443 16.10738,23.19462 -21.583896,3.65101 -1.503352,-9.7718 5.261748,-0.6443 0.859055,4.18792 7.19463,-0.96644 z"
               id="path3353"
               sodipodi:nodetypes="ccccccccc" /><path
               id="rect3456"
               style="fill:#1d1d1a;fill-opacity:1;stroke:none;stroke-width:0.131525;stroke-linecap:square;stroke-dasharray:none"
               d="m -142.11829,-339.29885 c -4.61461,0.46584 -8.1928,4.34083 -8.1928,9.08229 l -7.5e-4,8.79267 c 0,5.05755 4.07187,9.13038 9.12943,9.13038 l 0.4842,-6.4e-4 c 5.05756,0 9.12875,-4.07139 9.12875,-9.12894 l -7.1e-4,-8.79253 c 0,-5.05756 -4.07173,-9.12892 -9.12928,-9.12892 l -0.4829,-9.7e-4 c -0.31609,0 -0.62829,0.0156 -0.93594,0.0467 z m 0.76959,5.55326 c 0.1174,-0.0118 0.23663,-0.0191 0.35726,-0.019 1.93019,7.3e-4 3.48446,1.5591 3.48519,3.49253 l 0.003,9.02486 c 7.3e-4,1.93342 -1.5517,3.48985 -3.48188,3.48912 -1.93019,-7.3e-4 -3.48577,-1.5575 -3.4865,-3.49092 l -0.003,-9.02632 c -6.9e-4,-1.81259 1.36499,-3.29281 3.12607,-3.47023 z"
               transform="matrix(0.99517436,-0.09812235,-0.09887392,-0.99509997,0,0)" /><path
               id="ellipse3484"
               style="fill:#1d1d1a;fill-opacity:1;stroke:none;stroke-width:0.131525;stroke-linecap:square;stroke-dasharray:none"
               d="m -130.48867,-354.26778 c -5.70159,2.4e-4 -10.32335,4.20751 -10.32275,9.39697 0.001,4.76429 3.91995,8.77366 9.11865,9.32959 l -4.65528,5.10205 4.30225,3.92432 8.16797,-9.27393 c 2.86625,-3.25413 3.66432,-7.22158 3.71338,-9.08203 0.1368,-5.18818 -4.62205,-9.39746 -10.32422,-9.39697 z m -0.0542,5.08887 c 2.6104,-6.4e-4 4.72772,1.99543 4.72705,4.45752 -1.8e-4,2.46151 -2.11725,4.45669 -4.72705,4.45605 -2.60921,-1.4e-4 -4.72394,-1.99509 -4.72412,-4.45605 -6.7e-4,-2.46154 2.1143,-4.45738 4.72412,-4.45752 z"
               transform="scale(1,-1)" /></g></g></g></g></g></svg>
