<?xml version="1.0" encoding="UTF-8" standalone="no"?>
<svg
   xmlns:dc="http://purl.org/dc/elements/1.1/"
   xmlns:cc="http://creativecommons.org/ns#"
   xmlns:rdf="http://www.w3.org/1999/02/22-rdf-syntax-ns#"
   xmlns:svg="http://www.w3.org/2000/svg"
   xmlns="http://www.w3.org/2000/svg"
   xmlns:sodipodi="http://sodipodi.sourceforge.net/DTD/sodipodi-0.dtd"
   xmlns:inkscape="http://www.inkscape.org/namespaces/inkscape"
   version="1.1"
   width="375"
   height="500"
   id="svg39431"
   inkscape:version="0.91 r13725"
   sodipodi:docname="Stade_Aurillacois_Logo.svg">
  <metadata
     id="metadata16">
    <rdf:RDF>
      <cc:Work
         rdf:about="">
        <dc:format>image/svg+xml</dc:format>
        <dc:type
           rdf:resource="http://purl.org/dc/dcmitype/StillImage" />
        <dc:title></dc:title>
      </cc:Work>
    </rdf:RDF>
  </metadata>
  <sodipodi:namedview
     pagecolor="#ffffff"
     bordercolor="#666666"
     borderopacity="1"
     objecttolerance="10"
     gridtolerance="10"
     guidetolerance="10"
     inkscape:pageopacity="0"
     inkscape:pageshadow="2"
     inkscape:window-width="1440"
     inkscape:window-height="790"
     id="namedview14"
     showgrid="false"
     inkscape:zoom="0.55252255"
     inkscape:cx="31.274835"
     inkscape:cy="131.11343"
     inkscape:window-x="0"
     inkscape:window-y="1"
     inkscape:window-maximized="1"
     inkscape:current-layer="svg39431" />
  <defs
     id="defs39433" />
  <g
     id="g5394"
     transform="matrix(0.99789762,0,0,1,0,191.32986)">
    <path
       inkscape:connector-curvature="0"
       id="path4856"
       d="m 331.35672,143.12157 c -9.184,-3.12645 -18.42909,-6.226 -28.03188,-9.03008 -11.57829,-3.38095 -23.49434,-6.45834 -35.82524,-9.05613 -12.33091,-2.59779 -25.07963,-4.71703 -38.32036,-6.18783 -6.62035,-0.73541 -13.3612,-1.30748 -20.23847,-1.69666 -6.87727,-0.3892 -13.89176,-0.59449 -21.04561,-0.59449 -7.15383,0 -14.16398,0.20529 -21.04125,0.59449 -6.87727,0.38918 -13.61813,0.96125 -20.2385,1.69666 -13.2407,1.4708 -25.98942,3.59004 -38.32033,6.18783 -12.330934,2.59779 -24.246954,5.67518 -35.825254,9.05613 -9.67012,2.82374 -18.98573,5.94522 -28.23147,9.09517 11.33811,24.24427 25.07241,47.70382 42.55115,69.52423 24.455554,30.53024 58.537954,66.92796 101.105654,94.18014 42.56771,-27.25218 76.42446,-63.6499 100.88001,-94.18014 17.49441,-21.83994 31.23777,-45.32189 42.58155,-69.58932 z"
       style="fill:#be082e;fill-opacity:1;fill-rule:evenodd;stroke:none;stroke-width:0.2;stroke-linecap:butt;stroke-linejoin:miter;stroke-miterlimit:4;stroke-dasharray:none;stroke-opacity:1" />
    <path
       inkscape:connector-curvature="0"
       id="path4850"
       d="m 187.89516,-188.88683 c -27.24243,13.95498 -54.53667,26.61283 -83.00209,35.13096 -30.638534,9.16842 -66.972534,18.34157 -96.7837141,21.37538 -5.39998,29.82086 -6.63526,66.580195 -5.67147,101.756544 1.30119,47.49165 11.0266801,97.116761 29.3206401,144.685226 3.77591,9.81818 7.98649,19.51728 12.47983,29.12538 9.24574,-3.14995 18.56135,-6.27143 28.23147,-9.09517 11.5783,-3.38095 23.49432,-6.45834 35.825254,-9.05613 12.33091,-2.59779 25.07963,-4.71703 38.32033,-6.18783 6.62037,-0.73541 13.36123,-1.30748 20.2385,-1.69666 6.87727,-0.3892 13.88742,-0.59449 21.04125,-0.59449 7.15385,0 14.16834,0.20529 21.04561,0.59449 6.87727,0.38918 13.61812,0.96125 20.23847,1.69666 13.24073,1.4708 25.98945,3.59004 38.32036,6.18783 12.3309,2.59779 24.24695,5.67518 35.82524,9.05613 9.60279,2.80408 18.84788,5.90363 28.03188,9.03008 4.48141,-9.587 8.68206,-19.26426 12.44943,-29.06029 18.29396,-47.568465 28.02379,-97.193576 29.32498,-144.685226 0.96379,-35.176349 -0.2758,-71.935684 -5.67578,-101.756544 -29.81119,-3.03381 -65.91955,-12.20696 -96.55808,-21.37538 -28.46542,-8.51813 -55.75968,-21.17598 -83.00211,-35.13096 z"
       style="fill:#254c91;fill-opacity:1;fill-rule:evenodd;stroke:none;stroke-width:0.2;stroke-linecap:butt;stroke-linejoin:miter;stroke-miterlimit:4;stroke-dasharray:none;stroke-opacity:1" />
    <g
       transform="matrix(2.2217208,0,0,2.2217208,-1138.6978,-240.01245)"
       id="g5385">
      <g
         id="g4845"
         style="fill:#ffffff">
        <path
           sodipodi:nodetypes="ccccccscccc"
           inkscape:connector-curvature="0"
           id="path3422"
           d="m 643.40758,41.732251 c -9.06933,9.183284 -38.33399,35.875337 -53.13831,73.784879 -3.65026,1.38556 -9.10237,4.21048 -13.14269,6.21756 0,0 5.32432,-0.94447 11.36469,-2.11017 -5.33631,12.48891 -8.56215,23.61892 -12.04062,39.61733 0,0 7.89062,-17.06944 20.59494,-41.76983 5.8838,-1.19396 15.30381,-3.1818 25.01015,-4.84729 10.00215,-1.71626 20.30835,-2.6856 27.36245,-2.90047 -14.31891,-4.27275 -36.35154,-0.78046 -49.54484,2.869 12.27839,-23.757373 28.61556,-47.268453 45.86783,-69.267858 z"
           style="fill:#ffffff;fill-opacity:1;fill-rule:nonzero;stroke:none" />
        <path
           sodipodi:nodetypes="ccc"
           inkscape:connector-curvature="0"
           id="path3420"
           d="m 659.14614,54.711753 c 0,0 -15.85082,47.012887 2.47119,99.919177 0,0 -5.16153,-79.237405 -2.47119,-99.919177 z"
           style="fill:#ffffff;fill-opacity:1;fill-rule:nonzero;stroke:none" />
        <path
           sodipodi:nodetypes="cscsccccsc"
           inkscape:connector-curvature="0"
           id="path3424"
           d="m 606.05942,28.447353 c -12.75038,3.805467 -39.48239,19.516078 -48.04227,35.237979 -5.19467,9.541042 -5.68381,18.664767 2.10143,23.945596 13.60976,8.634853 0.82763,29.543852 -7.37814,42.759462 -6.28075,10.11532 -15.24416,19.74627 -25.31996,29.17637 l 1.14443,1.7984 c 1.04226,-1.85826 25.30052,-12.89216 38.21773,-44.8782 6.67828,-14.93488 9.12268,-23.979343 -2.90377,-31.635371 -12.69145,-10.670557 6.65399,-28.297201 18.18831,-38.558116 7.14229,-6.353765 15.615,-12.077334 23.99224,-17.84612 z"
           style="fill:#ffffff;fill-rule:evenodd;stroke:none;stroke-width:0.2;stroke-linecap:butt;stroke-linejoin:miter;stroke-miterlimit:4;stroke-dasharray:none;stroke-opacity:1" />
      </g>
      <g
         id="g5381">
        <ellipse
           style="fill:#ffffff;fill-opacity:1;stroke:none;stroke-width:0.2;stroke-linecap:round;stroke-linejoin:round;stroke-miterlimit:4;stroke-dasharray:none;stroke-opacity:0.86934671"
           id="ellipse4228"
           transform="matrix(0.95110478,-0.30886842,0.30886842,0.95110478,0,0)"
           ry="10.621427"
           rx="22.360279"
           cy="265.92282"
           cx="557.90631" />
        <ellipse
           cx="557.90631"
           cy="265.92282"
           rx="20.095882"
           ry="8.5015078"
           transform="matrix(0.95110478,-0.30886842,0.30886842,0.95110478,0,0)"
           id="path4226"
           style="fill:#be082e;fill-opacity:1;stroke:none;stroke-width:0.2;stroke-linecap:round;stroke-linejoin:round;stroke-miterlimit:4;stroke-dasharray:none;stroke-opacity:0.86934671" />
      </g>
    </g>
    <path
       sodipodi:nodetypes="ccccccc"
       inkscape:connector-curvature="0"
       id="path4250"
       d="M 337.12568,131.64787 C 293.19417,116.3668 245.128,103.22501 187.89725,103.22501 c -57.23075,0 -105.296924,13.14179 -149.228434,28.42286 l 18.05008,33.41517 c 39.04035,-13.61418 81.681834,-24.28432 131.177794,-24.28432 49.49597,0 92.13745,10.67014 131.1778,24.28432 z"
       style="fill:#ffffff;fill-rule:evenodd;stroke:none;stroke-width:0.2;stroke-linecap:butt;stroke-linejoin:miter;stroke-miterlimit:4;stroke-dasharray:none;stroke-opacity:1" />
    <path
       inkscape:connector-curvature="0"
       id="path4232"
       d="m 187.89516,-191.32986 c -27.24243,13.95499 -54.53667,26.61283 -83.00209,35.13096 -30.638534,9.16842 -68.165834,19.626 -97.9770241,22.65982 -5.39998,29.82086 -7.66367004,67.738785 -6.69989004,102.915134 C 1.5173759,16.867704 11.242846,66.492815 29.536806,114.06128 c 13.30369,34.59259 29.34009,66.89744 54.00257,98.64961 23.995364,30.89325 61.017544,69.73444 104.355784,95.95925 43.33824,-26.22481 80.35609,-65.066 104.35145,-95.95925 24.66248,-31.75217 40.69888,-64.05702 54.00257,-98.64961 18.29396,-47.568465 28.02376,-97.193576 29.32498,-144.685226 0.96378,-35.176349 -1.30424,-73.094274 -6.70422,-102.915134 -29.81118,-3.03382 -67.33414,-13.4914 -97.97267,-22.65982 -28.46542,-8.51813 -55.75968,-21.17597 -83.00211,-35.13096 z m 0,5.77561 c 27.24243,13.95498 54.53669,26.61283 83.00211,35.13096 30.63853,9.16842 63.6356,18.34157 93.44678,21.37538 5.39998,29.820855 6.63959,63.247615 5.67581,98.423964 -1.3012,47.49165 -11.03102,97.116761 -29.32498,144.685226 -13.30369,34.59259 -30.62534,68.18166 -55.03098,98.64961 -24.45555,30.53024 -55.20103,62.48452 -97.76874,89.7367 -42.5677,-27.25218 -73.31752,-59.20646 -97.773064,-89.7367 -24.40565,-30.46795 -41.7273,-64.05702 -55.03098,-98.64961 C 16.797156,66.492815 7.0716559,16.867704 5.7704659,-30.623946 c -0.96379,-35.176349 0.27149,-68.603109 5.6714701,-98.423964 29.81118,-3.03381 62.8126,-12.20696 93.451134,-21.37538 28.46542,-8.51813 55.75966,-21.17598 83.00209,-35.13096 z"
       style="fill:#ffffff;fill-rule:evenodd;stroke:none;stroke-width:0.2;stroke-linecap:butt;stroke-linejoin:miter;stroke-miterlimit:4;stroke-dasharray:none;stroke-opacity:1" />
    <g
       transform="matrix(2.2217208,0,0,2.2217208,-1138.6978,-240.01245)"
       id="g5336">
      <g
         id="g4827">
        <g
           transform="matrix(0.05815103,0,0,0.05815103,549.48214,187.71201)"
           id="g4463">
          <path
             inkscape:connector-curvature="0"
             style="fill:#ffffff;fill-opacity:1"
             d="m 301.13809,343.53901 c -10.59123,-0.61444 -20.4688,-3.21973 -29.6757,-7.82694 -11.53537,-5.77247 -21.57246,-14.63667 -28.796,-25.43111 -1.89717,-2.835 -3.32803,-5.30932 -4.86514,-8.41294 -4.53003,-9.14676 -7.05038,-18.7164 -7.65663,-29.07164 -0.18176,-3.10458 -0.0911,-7.91092 0.21188,-11.22939 2.05336,-22.49284 14.35692,-43.02498 33.28611,-55.54788 10.92175,-7.22542 22.88769,-11.29064 36.20618,-12.30034 2.21795,-0.16815 8.80767,-0.14364 10.97985,0.0409 6.3231,0.53701 11.8903,1.63595 17.41436,3.43757 9.82783,3.20524 18.41713,8.10362 26.42182,15.06802 1.5987,1.39094 5.33078,5.12917 6.80023,6.81146 14.1564,16.20665 20.63389,37.13486 18.10533,58.49686 -1.70343,14.39112 -7.56151,27.94754 -16.90832,39.1283 -8.8747,10.61602 -20.58032,18.632 -33.60293,23.01127 -6.06225,2.03863 -11.83839,3.1927 -18.77118,3.75042 -1.44018,0.11586 -7.581,0.16654 -9.14986,0.0753 z"
             id="path4456" />
          <g
             id="g4458"
             style="fill:#be082e;fill-opacity:1">
            <path
               inkscape:connector-curvature="0"
               id="path4454"
               d="m 268.03501,287.10342 c 3.74033,-6.40489 6.87938,-11.79655 6.97565,-11.98143 0.43536,-0.83606 2.90932,-5.02898 2.96727,-5.02898 0.0356,0 0.17219,0.0904 0.30347,0.20088 0.57156,0.48092 2.2255,1.61264 3.23651,2.21457 3.9938,2.37784 8.03049,3.74169 12.84094,4.3386 1.16387,0.14437 5.56777,0.14486 6.73765,0 6.67474,-0.82247 12.39717,-3.33165 17.34635,-7.60602 0.8983,-0.77583 3.19927,-3.09623 3.19927,-3.22634 0,-0.0359 -1.36569,-1.30291 -3.03485,-2.81512 l -3.03487,-2.74944 -1.31132,1.31278 c -0.72125,0.72204 -1.6295,1.56446 -2.01838,1.87205 -3.28024,2.59473 -6.88566,4.15874 -11.18779,4.85326 -1.31373,0.21207 -5.34074,0.21207 -6.65446,0 -5.04271,-0.81407 -9.22831,-2.86376 -12.73568,-6.23663 l -0.84426,-0.81185 -3.71914,0.0215 -3.71914,0.0215 -9.65071,16.5114 c -5.30786,9.08124 -9.65585,16.55957 -9.66218,16.61861 -0.0134,0.12502 7.03294,4.2794 7.11198,4.19301 0.0292,-0.0321 3.11339,-5.29848 6.85369,-11.70334 z"
               style="fill:#be082e;fill-opacity:1" />
            <path
               inkscape:connector-curvature="0"
               id="path4452"
               d="m 351.7535,290.55544 -75.69438,0 0,8.31804 75.69438,0 z"
               style="fill:#be082e;fill-opacity:1" />
            <path
               inkscape:connector-curvature="0"
               id="path4612"
               d="m 343.97611,279.87707 c 2.20868,-1.28323 3.32403,-1.97628 3.31774,-2.06146 -0.005,-0.0707 -6.89261,-11.94241 -15.30524,-26.38179 l -15.29574,-26.25335 -3.61837,0 -3.61835,0 -8.35965,14.35677 c -4.59782,7.89626 -8.40287,14.43666 -8.45568,14.53421 -0.0914,0.16881 0.0731,0.27587 3.40095,2.21474 1.92334,1.12061 3.54312,2.04858 3.59949,2.06219 0.0594,0.0143 2.89302,-4.76648 6.74186,-11.37492 3.65165,-6.2699 6.6604,-11.39875 6.68616,-11.39747 0.0258,0 6.14541,10.46148 13.59924,23.24491 l 13.5524,23.24272 0.21399,-0.12641 c 0.11767,-0.0695 1.71123,-0.9963 3.5412,-2.05948 z"
               style="fill:#be082e;fill-opacity:1" />
          </g>
        </g>
        <g
           style="fill:#ffffff"
           id="g4594">
          <path
             style="color:#000000;font-style:normal;font-variant:normal;font-weight:normal;font-stretch:normal;font-size:medium;line-height:normal;font-family:sans-serif;text-indent:0;text-align:start;text-decoration:none;text-decoration-line:none;text-decoration-style:solid;text-decoration-color:#000000;letter-spacing:normal;word-spacing:normal;text-transform:none;direction:ltr;block-progression:tb;writing-mode:lr-tb;baseline-shift:baseline;text-anchor:start;white-space:normal;clip-rule:nonzero;display:inline;overflow:visible;visibility:visible;opacity:1;isolation:auto;mix-blend-mode:normal;color-interpolation:sRGB;color-interpolation-filters:linearRGB;solid-color:#000000;solid-opacity:1;fill:#ffffff;fill-opacity:1;fill-rule:nonzero;stroke:none;stroke-width:0.29999998;stroke-linecap:butt;stroke-linejoin:miter;stroke-miterlimit:4;stroke-dasharray:none;stroke-dashoffset:0;stroke-opacity:1;color-rendering:auto;image-rendering:auto;shape-rendering:auto;text-rendering:auto;enable-background:accumulate"
             d="m 608.50443,200.13125 c -0.17456,-0.006 -0.35009,-0.001 -0.49024,0.0215 -0.52718,0.0859 -1.02996,0.33635 -1.3789,0.69336 -0.34188,0.34977 -0.59484,0.83584 -0.70703,1.34766 -0.0551,0.25145 -0.0708,0.78477 -0.0352,1.05078 0.049,0.36502 0.17273,0.73381 0.34766,1.01953 0.43402,0.70894 1.14341,1.11519 1.99218,1.14649 0.5063,0.0187 0.919,-0.0993 1.34961,-0.38477 0.12888,-0.0855 0.23694,-0.2147 0.35352,-0.33594 -3e-5,0.0139 8e-5,0.0229 0,0.0371 -10e-4,0.20519 -0.009,0.4425 -0.0176,0.52734 -0.0425,0.41444 -0.1858,0.7042 -0.42578,0.9004 -0.23998,0.1962 -0.5897,0.30517 -1.0625,0.30468 -0.37751,-3.3e-4 -0.67282,-0.0653 -0.88477,-0.17968 -0.21195,-0.11442 -0.34478,-0.27313 -0.41406,-0.49414 l -0.0645,-0.20313 -0.52344,0 c -0.16034,0 -0.26408,1.8e-4 -0.33398,0.004 -0.035,0.002 -0.061,0.004 -0.0898,0.01 -0.0144,0.003 -0.0281,0.005 -0.0547,0.0195 -0.007,0.004 -0.0152,0.007 -0.0234,0.0137 -0.008,0.006 -0.025,0.0249 -0.0254,0.0254 -3.9e-4,4.6e-4 -0.0252,0.0425 -0.0254,0.043 -1.9e-4,4.9e-4 -0.01,0.0542 -0.01,0.0547 1.1e-4,0.0537 0.008,0.0795 0.0195,0.12305 0.0111,0.0435 0.0264,0.0947 0.043,0.14648 0.0331,0.10356 0.0722,0.21095 0.10938,0.28711 0.29621,0.60645 0.89853,0.97652 1.72656,1.09375 0.30182,0.0427 0.99074,0.0325 1.27148,-0.0254 1.03423,-0.21351 1.68148,-0.83439 1.84766,-1.78906 l 0,-0.002 c 0.0163,-0.0976 0.0267,-0.187 0.0312,-0.53907 0.005,-0.35207 0.006,-0.97859 0.006,-2.18164 l 0,-2.65234 c -0.36523,0 -0.73047,0 -1.0957,0 l -0.008,0.54883 0,0.0645 c -0.25436,-0.28566 -0.55107,-0.53295 -0.95312,-0.63672 -0.1297,-0.0335 -0.29745,-0.052 -0.47071,-0.0586 -0.001,-6e-5 -0.002,5e-5 -0.004,0 z m -0.0781,0.97265 c 0.47084,-0.0161 0.78284,0.0898 1.0586,0.34766 0.32612,0.30501 0.46859,0.68617 0.46875,1.31445 7e-5,0.29601 -0.0213,0.45321 -0.0899,0.66993 -0.15442,0.48828 -0.52348,0.83939 -1.01172,0.96484 -0.1538,0.0395 -0.57684,0.0494 -0.70312,0.0215 -0.2713,-0.0599 -0.46914,-0.16685 -0.66211,-0.35351 -0.18511,-0.17904 -0.30449,-0.37258 -0.38477,-0.62696 -0.0704,-0.22301 -0.0865,-0.33199 -0.084,-0.66796 9.9e-4,-0.257 0.008,-0.32937 0.0371,-0.46485 0.0774,-0.35775 0.19236,-0.58498 0.39453,-0.79492 0.27973,-0.29048 0.52507,-0.39477 0.97656,-0.41016 z"
             id="path4546"
             inkscape:connector-curvature="0"
             sodipodi:nodetypes="cccccccccccsccccscscccccccccccccsccccccccccccccccccscc" />
          <path
             style="color:#000000;font-style:normal;font-variant:normal;font-weight:normal;font-stretch:normal;font-size:medium;line-height:normal;font-family:sans-serif;text-indent:0;text-align:start;text-decoration:none;text-decoration-line:none;text-decoration-style:solid;text-decoration-color:#000000;letter-spacing:normal;word-spacing:normal;text-transform:none;direction:ltr;block-progression:tb;writing-mode:lr-tb;baseline-shift:baseline;text-anchor:start;white-space:normal;clip-rule:nonzero;display:inline;overflow:visible;visibility:visible;opacity:1;isolation:auto;mix-blend-mode:normal;color-interpolation:sRGB;color-interpolation-filters:linearRGB;solid-color:#000000;solid-opacity:1;fill:#ffffff;fill-opacity:1;fill-rule:nonzero;stroke:none;stroke-width:0.29999998;stroke-linecap:butt;stroke-linejoin:miter;stroke-miterlimit:4;stroke-dasharray:none;stroke-dashoffset:0;stroke-opacity:1;color-rendering:auto;image-rendering:auto;shape-rendering:auto;text-rendering:auto;enable-background:accumulate"
             d="m 593.90281,200.13515 c -0.20097,-7e-5 -0.39283,0.007 -0.52344,0.0352 -0.34795,0.0744 -0.60693,0.17979 -0.88281,0.35938 -0.56835,0.36998 -0.95782,0.9998 -1.0957,1.74804 -0.0607,0.33004 -0.0608,0.9365 0,1.26367 0.10411,0.56034 0.34291,1.04335 0.70312,1.40235 0.39604,0.39472 0.9259,0.63947 1.52148,0.71094 0.23988,0.0288 0.67707,0.013 0.93555,-0.0312 1.10816,-0.32723 1.813,-0.96803 1.79099,-1.78739 l -1.11323,0 -0.0723,0.22508 c -0.0529,0.16537 -0.0961,0.23599 -0.21484,0.34961 -0.11906,0.11394 -0.28509,0.20052 -0.50391,0.25 -0.11851,0.0268 -0.1942,0.0318 -0.43359,0.0332 -0.38371,0.002 -0.5331,-0.029 -0.80664,-0.16797 -0.14307,-0.0727 -0.36266,-0.2824 -0.45704,-0.44336 -0.1307,-0.22295 -0.22497,-0.54649 -0.24609,-0.86523 l 3.84764,-0.002 2e-5,-0.35156 c -3.5e-4,-0.44299 -0.0561,-0.83739 -0.17188,-1.18164 -0.26985,-0.80287 -0.89355,-1.34283 -1.74414,-1.51172 -0.0976,-0.0194 -0.24453,-0.0213 -0.38476,-0.0254 l 0,-0.01 -0.14844,0 z m -0.0898,0.9668 c 0.17646,-0.006 0.41923,0.0144 0.52149,0.041 0.42623,0.11086 0.67781,0.36826 0.80859,0.83593 0.007,0.0246 0.03,0.1327 0.0469,0.22852 0.003,0.0172 0.005,0.0304 0.008,0.0469 l -2.63281,0.006 c 0.027,-0.11598 0.0866,-0.31844 0.14062,-0.42578 0.0803,-0.15948 0.1683,-0.27791 0.30664,-0.4082 0.18229,-0.17167 0.38444,-0.26965 0.65235,-0.3125 0.038,-0.006 0.0899,-0.01 0.14843,-0.0117 z"
             id="path4558"
             inkscape:connector-curvature="0"
             sodipodi:nodetypes="ccsccscccccccccccccccccccccccccccccc" />
          <path
             style="color:#000000;font-style:normal;font-variant:normal;font-weight:normal;font-stretch:normal;font-size:medium;line-height:normal;font-family:sans-serif;text-indent:0;text-align:start;text-decoration:none;text-decoration-line:none;text-decoration-style:solid;text-decoration-color:#000000;letter-spacing:normal;word-spacing:normal;text-transform:none;direction:ltr;block-progression:tb;writing-mode:lr-tb;baseline-shift:baseline;text-anchor:start;white-space:normal;clip-rule:nonzero;display:inline;overflow:visible;visibility:visible;opacity:1;isolation:auto;mix-blend-mode:normal;color-interpolation:sRGB;color-interpolation-filters:linearRGB;solid-color:#000000;solid-opacity:1;fill:#ffffff;fill-opacity:1;fill-rule:nonzero;stroke:none;stroke-width:0.29999998;stroke-linecap:butt;stroke-linejoin:miter;stroke-miterlimit:4;stroke-dasharray:none;stroke-dashoffset:0;stroke-opacity:1;color-rendering:auto;image-rendering:auto;shape-rendering:auto;text-rendering:auto;enable-background:accumulate"
             d="m 583.43945,200.21667 1.93555,5.37109 1.28516,0 1.93554,-5.37109 -1.17382,0.006 -1.4043,3.93945 -1.4043,-3.93945 z"
             id="path4570"
             inkscape:connector-curvature="0"
             sodipodi:nodetypes="cccccccc" />
          <path
             style="color:#000000;font-style:normal;font-variant:normal;font-weight:normal;font-stretch:normal;font-size:medium;line-height:normal;font-family:sans-serif;text-indent:0;text-align:start;text-decoration:none;text-decoration-line:none;text-decoration-style:solid;text-decoration-color:#000000;letter-spacing:normal;word-spacing:normal;text-transform:none;direction:ltr;block-progression:tb;writing-mode:lr-tb;baseline-shift:baseline;text-anchor:start;white-space:normal;clip-rule:nonzero;display:inline;overflow:visible;visibility:visible;opacity:1;isolation:auto;mix-blend-mode:normal;color-interpolation:sRGB;color-interpolation-filters:linearRGB;solid-color:#000000;solid-opacity:1;fill:#ffffff;fill-opacity:1;fill-rule:nonzero;stroke:none;stroke-width:0.29999998;stroke-linecap:butt;stroke-linejoin:miter;stroke-miterlimit:4;stroke-dasharray:none;stroke-dashoffset:0;stroke-opacity:1;color-rendering:auto;image-rendering:auto;shape-rendering:auto;text-rendering:auto;enable-background:accumulate"
             d="m 602.61078,200.1718 c -0.15409,2.7e-4 -0.41964,0.046 -0.58203,0.0937 -0.35834,0.10549 -0.63038,0.37174 -0.87305,0.67188 l -0.002,-0.082 -0.006,-0.59766 -0.54687,0 -0.54883,0 0,2.8125 0.12305,0.0234 -0.12305,-0.0215 0,2.56055 0.54883,0 0.55078,0 0,-1.56445 c 1.5e-4,-0.41544 7.1e-4,-0.78939 0.004,-1.07422 0.003,-0.28483 0.0103,-0.49281 0.0137,-0.53125 0.0363,-0.41066 0.1379,-0.65404 0.33398,-0.84766 0.0636,-0.0628 0.17659,-0.14801 0.21289,-0.16797 0.18933,-0.10412 0.49663,-0.1859 0.82813,-0.21094 l 0.28906,-0.0234 0,-0.51367 0,-0.52735 -0.22266,0 z"
             id="path4574"
             inkscape:connector-curvature="0" />
          <path
             style="color:#000000;font-style:normal;font-variant:normal;font-weight:normal;font-stretch:normal;font-size:medium;line-height:normal;font-family:sans-serif;text-indent:0;text-align:start;text-decoration:none;text-decoration-line:none;text-decoration-style:solid;text-decoration-color:#000000;letter-spacing:normal;word-spacing:normal;text-transform:none;direction:ltr;block-progression:tb;writing-mode:lr-tb;baseline-shift:baseline;text-anchor:start;white-space:normal;clip-rule:nonzero;display:inline;overflow:visible;visibility:visible;opacity:1;isolation:auto;mix-blend-mode:normal;color-interpolation:sRGB;color-interpolation-filters:linearRGB;solid-color:#000000;solid-opacity:1;fill:#ffffff;fill-opacity:1;fill-rule:nonzero;stroke:none;stroke-width:0.29999998;stroke-linecap:butt;stroke-linejoin:miter;stroke-miterlimit:4;stroke-dasharray:none;stroke-dashoffset:0;stroke-opacity:1;color-rendering:auto;image-rendering:auto;shape-rendering:auto;text-rendering:auto;enable-background:accumulate"
             d="m 617.81609,200.17172 c -0.12616,1.1e-4 -0.27478,0.008 -0.35937,0.0195 -0.48716,0.0687 -0.86283,0.34726 -1.15235,0.67774 l 0,-0.0703 -0.008,-0.54101 -0.54688,0 -0.54882,0 0,2.6875 0,0.15234 0,2.53516 0.54882,0 0.55079,0 0,-1.67773 c 0,-0.47466 7.2e-4,-0.87457 0.004,-1.16797 0.003,-0.29341 0.0107,-0.49626 0.0137,-0.52539 0.0315,-0.30637 0.13033,-0.52621 0.32032,-0.72266 0.26169,-0.27053 0.68048,-0.40999 1.12695,-0.36133 0.4173,0.0455 0.60546,0.1629 0.73828,0.4375 l 0,0.002 c 0.0763,0.15646 0.0935,0.14815 0.10938,0.39063 0.0159,0.24248 0.016,0.71269 0.0195,1.70898 l 0.006,1.91602 0.55859,0 0.55859,0 -0.008,-1.9082 c -0.003,-0.94893 -0.003,-1.41536 -0.0156,-1.69532 -0.0128,-0.27995 -0.0421,-0.38489 -0.0899,-0.55468 -0.11735,-0.41747 -0.33759,-0.75109 -0.65039,-0.97266 -0.31279,-0.22157 -0.71127,-0.3306 -1.17578,-0.33008 z"
             id="path4578"
             inkscape:connector-curvature="0" />
          <path
             id="path4587"
             d="m 577.32873,205.6327 c 0.12616,-1.1e-4 0.27478,-0.008 0.35937,-0.0195 0.48716,-0.0687 0.86283,-0.34726 1.15235,-0.67774 l 0,0.0703 0.008,0.54101 0.54688,0 0.54882,0 0,-2.6875 0,-0.15234 0,-2.53516 -0.54882,0 -0.55079,0 0,1.67773 c 0,0.47466 -7.2e-4,0.87457 -0.004,1.16797 -0.003,0.29341 -0.0107,0.49626 -0.0137,0.52539 -0.0315,0.30637 -0.13033,0.52621 -0.32032,0.72266 -0.26169,0.27053 -0.68048,0.40999 -1.12695,0.36133 -0.4173,-0.0455 -0.60546,-0.1629 -0.73828,-0.4375 l 0,-0.002 c -0.0763,-0.15646 -0.0935,-0.14815 -0.10938,-0.39063 -0.0159,-0.24248 -0.016,-0.71269 -0.0195,-1.70898 l -0.006,-1.91602 -0.55859,0 -0.55859,0 0.008,1.9082 c 0.003,0.94893 0.003,1.41536 0.0156,1.69532 0.0128,0.27995 0.0421,0.38489 0.0899,0.55468 0.11735,0.41747 0.33759,0.75109 0.65039,0.97266 0.31279,0.22157 0.71127,0.3306 1.17578,0.33008 z"
             style="color:#000000;font-style:normal;font-variant:normal;font-weight:normal;font-stretch:normal;font-size:medium;line-height:normal;font-family:sans-serif;text-indent:0;text-align:start;text-decoration:none;text-decoration-line:none;text-decoration-style:solid;text-decoration-color:#000000;letter-spacing:normal;word-spacing:normal;text-transform:none;direction:ltr;block-progression:tb;writing-mode:lr-tb;baseline-shift:baseline;text-anchor:start;white-space:normal;clip-rule:nonzero;display:inline;overflow:visible;visibility:visible;opacity:1;isolation:auto;mix-blend-mode:normal;color-interpolation:sRGB;color-interpolation-filters:linearRGB;solid-color:#000000;solid-opacity:1;fill:#ffffff;fill-opacity:1;fill-rule:nonzero;stroke:none;stroke-width:0.29999998;stroke-linecap:butt;stroke-linejoin:miter;stroke-miterlimit:4;stroke-dasharray:none;stroke-dashoffset:0;stroke-opacity:1;color-rendering:auto;image-rendering:auto;shape-rendering:auto;text-rendering:auto;enable-background:accumulate"
             inkscape:connector-curvature="0" />
          <path
             sodipodi:nodetypes="ccsccscccccccccccccccccccccccccccccc"
             inkscape:connector-curvature="0"
             id="path4592"
             d="m 625.90281,200.13515 c -0.20097,-7e-5 -0.39283,0.007 -0.52344,0.0352 -0.34795,0.0744 -0.60693,0.17979 -0.88281,0.35938 -0.56835,0.36998 -0.95782,0.9998 -1.0957,1.74804 -0.0607,0.33004 -0.0608,0.9365 0,1.26367 0.10411,0.56034 0.34291,1.04335 0.70312,1.40235 0.39604,0.39472 0.9259,0.63947 1.52148,0.71094 0.23988,0.0288 0.67707,0.013 0.93555,-0.0312 1.10816,-0.32723 1.813,-0.96803 1.79099,-1.78739 l -1.11323,0 -0.0723,0.22508 c -0.0529,0.16537 -0.0961,0.23599 -0.21484,0.34961 -0.11906,0.11394 -0.28509,0.20052 -0.50391,0.25 -0.11851,0.0268 -0.1942,0.0318 -0.43359,0.0332 -0.38371,0.002 -0.5331,-0.029 -0.80664,-0.16797 -0.14307,-0.0727 -0.36266,-0.2824 -0.45704,-0.44336 -0.1307,-0.22295 -0.22497,-0.54649 -0.24609,-0.86523 l 3.84764,-0.002 2e-5,-0.35156 c -3.5e-4,-0.44299 -0.0561,-0.83739 -0.17188,-1.18164 -0.26985,-0.80287 -0.89355,-1.34283 -1.74414,-1.51172 -0.0976,-0.0194 -0.24453,-0.0213 -0.38476,-0.0254 l 0,-0.01 -0.14844,0 z m -0.0898,0.9668 c 0.17646,-0.006 0.41923,0.0144 0.52149,0.041 0.42623,0.11086 0.67781,0.36826 0.80859,0.83593 0.007,0.0246 0.03,0.1327 0.0469,0.22852 0.003,0.0172 0.005,0.0304 0.008,0.0469 l -2.63281,0.006 c 0.027,-0.11598 0.0866,-0.31844 0.14062,-0.42578 0.0803,-0.15948 0.1683,-0.27791 0.30664,-0.4082 0.18229,-0.17167 0.38444,-0.26965 0.65235,-0.3125 0.038,-0.006 0.0899,-0.01 0.14843,-0.0117 z"
             style="color:#000000;font-style:normal;font-variant:normal;font-weight:normal;font-stretch:normal;font-size:medium;line-height:normal;font-family:sans-serif;text-indent:0;text-align:start;text-decoration:none;text-decoration-line:none;text-decoration-style:solid;text-decoration-color:#000000;letter-spacing:normal;word-spacing:normal;text-transform:none;direction:ltr;block-progression:tb;writing-mode:lr-tb;baseline-shift:baseline;text-anchor:start;white-space:normal;clip-rule:nonzero;display:inline;overflow:visible;visibility:visible;opacity:1;isolation:auto;mix-blend-mode:normal;color-interpolation:sRGB;color-interpolation-filters:linearRGB;solid-color:#000000;solid-opacity:1;fill:#ffffff;fill-opacity:1;fill-rule:nonzero;stroke:none;stroke-width:0.29999998;stroke-linecap:butt;stroke-linejoin:miter;stroke-miterlimit:4;stroke-dasharray:none;stroke-dashoffset:0;stroke-opacity:1;color-rendering:auto;image-rendering:auto;shape-rendering:auto;text-rendering:auto;enable-background:accumulate" />
        </g>
      </g>
      <g
         id="g4819"
         transform="matrix(0.1224158,0,0,0.1224158,534.86345,211.36929)"
         style="fill:#ffffff">
        <path
           d="m 288.70055,-173.42372 c -0.32595,-3.63562 -1.54827,-6.55664 -3.79858,-8.47474 -2.07481,-1.8993 -5.02091,-2.93984 -8.65026,-2.93984 -13.15089,0 -15.06272,11.41458 -15.06272,22.33395 0,10.90058 1.91183,22.1459 15.06272,22.1459 7.43421,0 12.62436,-6.06771 13.32641,-13.16342 l 32.70798,0 c -3.29086,24.40249 -22.50319,38.07365 -46.7239,38.07365 -26.99756,0 -48.62946,-18.6858 -48.62946,-47.05613 0,-28.38912 21.6319,-47.2567 48.62946,-47.2567 23.52493,0 43.60229,11.60262 45.6771,36.33733 l -32.53875,0 z"
           style="fill:#ffffff;fill-opacity:1;fill-rule:nonzero;stroke:none"
           id="path842"
           inkscape:connector-curvature="0" />
        <path
           d="m 391.14838,-158.01123 c -4.13708,2.06854 -8.81323,3.28459 -13.49565,4.31886 -7.60971,1.73632 -11.59008,3.63561 -11.59008,9.70333 0,4.14961 4.50064,8.29922 10.73133,8.29922 7.78522,0 13.83413,-4.66988 14.3544,-14.02845 l 0,-8.29296 z m 32.88977,20.24661 c 0,6.75096 0.33848,14.36067 4.13707,20.07109 l -34.94576,0 c -0.86503,-2.42583 -1.3853,-6.06144 -1.20979,-8.46847 l -0.35102,0 c -7.25869,8.29296 -17.82077,10.71879 -28.89059,10.71879 -17.30677,0 -31.67372,-8.31176 -31.67372,-27.16681 0,-28.37659 33.22826,-27.34859 50.71054,-30.62691 4.66362,-0.87129 9.3335,-2.25659 9.3335,-7.96701 0,-6.05517 -5.71042,-8.31176 -11.24533,-8.31176 -10.54328,0 -12.61808,5.37193 -12.80613,9.18306 l -31.84296,0 c 1.04054,-25.26125 24.92276,-29.4234 46.2099,-29.4234 42.91277,0 42.57429,17.82078 42.57429,35.13382 l 0,36.8576 z"
           style="fill:#ffffff;fill-opacity:1;fill-rule:nonzero;stroke:none"
           id="path844"
           inkscape:connector-curvature="0" />
        <path
           d="m 442.20242,-207.51073 33.05901,0 0,11.42711 0.34476,0 c 6.4062,-8.99501 15.56419,-13.67743 29.24161,-13.67743 16.10327,0 30.8087,9.8663 30.8087,30.45139 l 0,61.61738 -34.2688,0 0,-47.07492 c 0,-10.38031 -1.22231,-17.65153 -11.24532,-17.65153 -5.88594,0 -13.67743,2.93356 -13.67743,17.30677 l 0,47.41968 -34.26253,0 0,-89.81845 z"
           style="fill:#ffffff;fill-opacity:1;fill-rule:nonzero;stroke:none"
           id="path846"
           inkscape:connector-curvature="0" />
        <path
           d="m 595.52753,-207.51073 18.34731,0 0,21.11163 -18.34731,0 0,31.32269 c 0,8.30549 1.89929,11.94738 10.54328,11.94738 2.60134,0 5.20268,-0.17552 7.80403,-0.52027 l 0,25.95702 c -6.92647,0 -14.70543,1.04054 -21.98919,1.04054 -14.52992,0 -30.62065,-2.24405 -30.62065,-26.82832 l 0,-42.91904 -15.23823,0 0,-21.11163 15.23823,0 0,-27.34232 34.26253,0 0,27.34232 z"
           style="fill:#ffffff;fill-opacity:1;fill-rule:nonzero;stroke:none"
           id="path848"
           inkscape:connector-curvature="0" />
        <path
           d="m 679.46068,-158.01123 c -4.16215,2.06854 -8.83203,3.28459 -13.50192,4.31886 -7.61598,1.73632 -11.59008,3.63561 -11.59008,9.70333 0,4.14961 4.49437,8.29922 10.72506,8.29922 7.78522,0 13.84667,-4.66988 14.36694,-14.02845 l 0,-8.29296 z m 32.87723,20.24661 c 0,6.75096 0.35102,14.36067 4.14334,20.07109 l -34.9395,0 c -0.86502,-2.42583 -1.39783,-6.06144 -1.21605,-8.46847 l -0.35102,0 c -7.27123,8.29296 -17.82077,10.71879 -28.90313,10.71879 -17.29423,0 -31.67371,-8.31176 -31.67371,-27.16681 0,-28.37659 33.22825,-27.34859 50.72307,-30.62691 4.66362,-0.87129 9.33977,-2.25659 9.33977,-7.96701 0,-6.05517 -5.71669,-8.31176 -11.25787,-8.31176 -10.53701,0 -12.63062,5.37193 -12.80613,9.18306 l -31.83669,0 c 1.028,-25.26125 24.91649,-29.4234 46.20363,-29.4234 42.92531,0 42.57429,17.82078 42.57429,35.13382 l 0,36.8576 z"
           style="fill:#ffffff;fill-opacity:1;fill-rule:nonzero;stroke:none"
           id="path850"
           inkscape:connector-curvature="0" />
        <path
           d="m 731.18606,-117.69228 34.28132,0 0,-123.55444 -34.28132,0 0,123.55444 z"
           style="fill:#ffffff;fill-opacity:1;fill-rule:nonzero;stroke:none"
           id="path852"
           inkscape:connector-curvature="0" />
      </g>
      <g
         id="g5314"
         transform="translate(680.33833,-18.440348)"
         style="fill:#254c91;fill-opacity:1">
        <path
           sodipodi:nodetypes="ccsccccccsssccc"
           inkscape:connector-curvature="0"
           id="path5145"
           d="m -135.25736,190.73365 c 0.55131,0.66694 1.27737,0.79794 1.62439,0.48959 0.37546,-0.45241 -0.3709,-0.9498 -1.42521,-0.9498 -1.39068,0 -1.95951,-0.19334 -2.67556,-0.90939 -0.96273,-1.03867 -0.93093,-1.98662 -0.20422,-2.97747 0.8547,-1.01575 3.37488,-1.79288 4.55315,-1.40403 0.69168,0.22828 1.368,1.05642 1.61156,1.73172 l -2.28316,0.79608 c -0.53209,-0.63408 -1.12526,-0.91572 -1.54072,-0.49088 -0.40737,0.49085 0.1818,0.82097 1.71416,0.96044 1.9772,0.17995 2.58817,0.48358 2.96652,1.47427 0.63837,1.67155 -0.15257,3.0748 -2.4203,3.75016 -1.68985,0.50326 -2.7323,0.42075 -3.33898,-0.0993 -0.58669,-0.61998 -0.91654,-1.19371 -1.00871,-1.42258 z"
           style="fill:#254c91;fill-opacity:1" />
        <path
           id="path5133"
           d="m -43.447266,182.20703 c -1.712969,0.10834 -2.350142,1.04366 -2.722656,3.64258 -0.40523,2.82714 0.174941,3.81896 2.644531,4.5332 1.05919,0.30631 2.378017,0.20216 2.966797,-0.23437 0.66562,-0.49351 1.209168,-1.53239 1.523438,-2.90821 0.3691,-1.61583 0.339237,-2.39776 -0.126953,-3.32226 -0.53598,-1.06289 -1.648752,-1.60929 -3.482422,-1.70899 -0.290978,-0.0158 -0.558025,-0.0174 -0.802735,-0.002 z m 1.263672,1.7168 c 0.29559,0 0.445891,0.12666 0.525391,0.44336 0.13387,0.53335 -0.353566,3.07763 -0.728516,3.80273 -0.28346,0.54815 -0.630802,0.65839 -0.919922,0.29492 -0.21836,-0.27452 -0.0249,-1.93603 0.398438,-3.4375 0.26818,-0.95113 0.367119,-1.10351 0.724609,-1.10351 z"
           style="fill:#254c91;fill-opacity:1"
           inkscape:connector-curvature="0" />
        <path
           id="path5129"
           d="m -50.72097,188.86702 c -1.16777,-0.18044 -2.27859,-0.89871 -2.60757,-1.68607 -0.52882,-1.26564 -0.12228,-4.33091 0.73974,-5.57753 0.54286,-0.78506 1.23728,-1.09585 2.38984,-1.06961 1.48404,0.0338 2.67161,0.48004 3.38808,1.27309 0.55602,0.61545 0.63908,0.82264 0.63908,1.59425 0,1.08806 -0.14329,1.1619 -1.62037,0.83513 l -1.11331,-0.24628 -0.0559,-0.69428 c -0.0671,-0.83365 -0.22904,-1.0321 -0.71609,-0.87752 -0.41059,0.13032 -0.60402,0.70605 -0.91405,2.72058 -0.14409,0.9363 -0.14706,1.42002 -0.0106,1.71958 0.29419,0.64568 0.70205,0.50326 1.07931,-0.37684 0.31982,-0.74612 0.38125,-0.79365 1.02561,-0.79365 1.10429,0 1.79626,0.31457 1.79626,0.81656 0,0.60917 -0.41204,1.49862 -0.9032,1.94973 -0.49894,0.45826 -1.75039,0.62403 -3.11688,0.41286 z"
           style="fill:#254c91;fill-opacity:1"
           inkscape:connector-curvature="0" />
        <path
           sodipodi:nodetypes="cccscccccsccc"
           inkscape:connector-curvature="0"
           id="path5127"
           d="m -118.06361,181.353 1.38588,7.37165 c 0.45326,-0.008 2.42687,-0.17126 3.48632,-0.43164 2.43472,-0.60285 2.97437,-1.45157 2.66602,-4.20117 -0.24692,-2.20178 -1.00522,-3.27039 -2.55981,-3.32339 -1.5546,-0.053 -3.49256,0.31698 -4.97841,0.58455 z m 4.54213,3.13528 c 0.18027,1.24665 0.21833,1.75872 0.0292,1.98667 -0.28313,0.29924 -0.42507,0.27113 -0.95157,0.33919 l -0.66476,-4.13695 c 0,0 0.26522,-0.10218 0.80141,-0.1022 0.53618,-1e-5 0.60195,0.66764 0.78575,1.91329 z"
           style="fill:#254c91;fill-opacity:1" />
        <path
           sodipodi:nodetypes="sccccsccsscs"
           inkscape:connector-curvature="0"
           id="path5111"
           d="m -92.59664,181.01415 -0.06194,-2.77277 2.886798,-0.0457 0.0064,2.87936 c 0.003,2.64187 0.125718,3.14193 0.695991,3.11346 0.559016,0.0295 0.636704,-0.0813 0.626117,-3.02627 l -0.01078,-2.99823 2.673186,-0.0455 c 0.01173,0.53176 0.196903,5.81788 -0.158957,6.50605 -0.52972,1.02437 -1.08718,1.23971 -3.20928,1.23971 -1.85681,0 -1.93484,-0.0157 -2.588849,-0.61307 -0.654008,-0.59736 -0.79229,-1.26423 -0.858698,-4.23704 z"
           style="fill:#254c91;fill-opacity:1" />
        <path
           sodipodi:nodetypes="cccccsccccccccccc"
           inkscape:connector-curvature="0"
           id="path5109"
           d="m -80.560547,177.94514 -4.188453,0 0,7.871 2.687,0 0,-2.804 0.842923,0 c 0.41888,0 0.463777,0.52175 0.48993,1.36721 l 0.0768,1.43677 2.822266,0 c -0.0734,-0.22238 -0.210267,-0.3664 -0.298747,-1.99013 -0.06023,-0.74709 -0.351408,-1.34513 -0.569435,-1.78921 0.363833,-0.68767 0.786388,-1.03437 0.790367,-1.93896 -0.05785,-1.50409 -1.316955,-2.16238 -2.652651,-2.15268 z m -1.501453,1.78869 c 0.339353,-0.002 1.307626,-0.0307 1.321766,0.73531 -0.02534,0.79571 -0.98066,0.73027 -1.321766,0.735 z"
           style="fill:#254c91;fill-opacity:1" />
        <path
           id="rect5234"
           d="m -125.42969,182.85156 -6.53125,1.47071 0.4668,2.07031 1.87305,-0.42188 1.25195,5.55078 2.79102,-0.6289 -1.25,-5.55078 1.86328,-0.41992 -0.46485,-2.07032 z"
           style="fill:#254c91;fill-opacity:1;stroke:none;stroke-width:1;stroke-linecap:round;stroke-linejoin:round;stroke-miterlimit:4;stroke-dasharray:none;stroke-opacity:1"
           inkscape:connector-curvature="0" />
        <path
           sodipodi:nodetypes="ccccccccccccc"
           inkscape:connector-curvature="0"
           id="path5244"
           d="m -124.13118,182.61656 -0.9775,8.11679 2.56224,-0.55235 0.1472,-1.53223 2.2434,-0.48361 0.7635,1.33591 2.56223,-0.55235 -4.23479,-6.99315 z m 2.132,2.44749 0.93175,1.59733 -1.12264,0.24201 z"
           style="fill:#254c91;fill-opacity:1" />
        <path
           style="fill:#254c91;fill-opacity:1"
           d="m -98.541881,178.72859 -2.008199,7.92495 2.611858,-0.21991 0.34208,-1.50079 2.286839,-0.19255 0.586265,1.42263 2.611849,-0.21991 -3.305031,-7.47759 z m 1.801257,2.70019 0.719675,1.70344 -1.144391,0.0964 z"
           id="path5253"
           inkscape:connector-curvature="0"
           sodipodi:nodetypes="ccccccccccccc" />
        <path
           sodipodi:nodetypes="ccccccccccccc"
           inkscape:connector-curvature="0"
           id="rect5255"
           d="m -109.91196,180.03746 0.79835,7.51828 5.66584,-0.60164 -0.18582,-1.74993 -3.20001,0.3398 -0.14189,-1.33623 3.2,-0.3398 -0.14292,-1.34596 -3.20001,0.3398 -0.14189,-1.33623 3.20001,-0.3398 -0.18582,-1.74993 z"
           style="fill:#254c91;fill-opacity:1;stroke:none;stroke-width:0.01;stroke-linecap:round;stroke-linejoin:round;stroke-miterlimit:4;stroke-dasharray:none;stroke-opacity:1" />
        <rect
           y="177.92058"
           x="-77.108711"
           height="7.9478631"
           width="2.7456231"
           id="rect5274"
           style="fill:#254c91;fill-opacity:1;stroke:none;stroke-width:0.01;stroke-linecap:round;stroke-linejoin:round;stroke-miterlimit:4;stroke-dasharray:none;stroke-opacity:1" />
        <g
           transform="matrix(0.9979266,0.06436225,-0.06436225,0.9979266,11.63175,4.9741374)"
           id="g5290"
           style="fill:#254c91;fill-opacity:1">
          <rect
             y="178.12288"
             x="-73.38044"
             height="7.9478631"
             width="2.7456231"
             id="rect5276"
             style="fill:#254c91;fill-opacity:1;stroke:none;stroke-width:0.01;stroke-linecap:round;stroke-linejoin:round;stroke-miterlimit:4;stroke-dasharray:none;stroke-opacity:1" />
          <rect
             style="fill:#254c91;fill-opacity:1;stroke:none;stroke-width:0.01;stroke-linecap:round;stroke-linejoin:round;stroke-miterlimit:4;stroke-dasharray:none;stroke-opacity:1"
             id="rect5278"
             width="1.7629784"
             height="5.7224617"
             x="184.30777"
             y="67.657982"
             transform="matrix(0,1,-1,0,0,0)" />
        </g>
        <g
           id="g5294"
           transform="matrix(0.99611935,0.08801276,-0.08801276,0.99611935,22.198121,7.4381894)"
           style="fill:#254c91;fill-opacity:1">
          <rect
             style="fill:#254c91;fill-opacity:1;stroke:none;stroke-width:0.01;stroke-linecap:round;stroke-linejoin:round;stroke-miterlimit:4;stroke-dasharray:none;stroke-opacity:1"
             id="rect5296"
             width="2.7456231"
             height="7.9478631"
             x="-73.38044"
             y="178.12288" />
          <rect
             transform="matrix(0,1,-1,0,0,0)"
             y="67.657982"
             x="184.30777"
             height="5.7224617"
             width="1.7629784"
             id="rect5298"
             style="fill:#254c91;fill-opacity:1;stroke:none;stroke-width:0.01;stroke-linecap:round;stroke-linejoin:round;stroke-miterlimit:4;stroke-dasharray:none;stroke-opacity:1" />
        </g>
        <path
           sodipodi:nodetypes="ccccccccccccc"
           inkscape:connector-curvature="0"
           id="path5302"
           d="m -58.341623,179.43829 -3.612607,7.33395 2.600477,0.32814 0.646751,-1.39682 2.276876,0.2873 0.277548,1.51346 2.600468,0.32814 -1.677472,-8.00147 z m 1.200246,3.01578 0.349634,1.81587 -1.139414,-0.14373 z"
           style="fill:#254c91;fill-opacity:1" />
        <rect
           transform="matrix(0.96650709,0.25663993,-0.25663993,0.96650709,0,0)"
           style="fill:#254c91;fill-opacity:1;stroke:none;stroke-width:0.01;stroke-linecap:round;stroke-linejoin:round;stroke-miterlimit:4;stroke-dasharray:none;stroke-opacity:1"
           id="rect5304"
           width="2.7456231"
           height="7.9478631"
           x="10.871015"
           y="186.94164" />
        <path
           style="fill:#254c91;fill-opacity:1"
           d="m -33.183651,190.06535 c 0.09847,0.85968 0.635667,1.36539 1.094695,1.29614 0.56142,-0.17451 0.206993,-0.99842 -0.676789,-1.57331 -1.165747,-0.7583 -1.537149,-1.23054 -1.746938,-2.22122 -0.240654,-1.39563 0.302897,-2.17291 1.452353,-2.60724 1.270322,-0.38541 3.80663,0.33735 4.582292,1.30578 0.45533,0.56852 0.570695,1.63149 0.406636,2.33037 l -2.347957,-0.57763 c -0.10028,-0.82166 -0.443937,-1.38118 -1.023854,-1.2516 -0.609129,0.18933 -0.29526,0.78732 0.913202,1.73979 1.559279,1.22896 1.905866,1.81663 1.682822,2.85338 -0.376338,1.74928 -1.804507,2.49428 -4.073704,1.82387 -1.690944,-0.49957 -2.519794,-1.13716 -2.744777,-1.9039 -0.153737,-0.83961 -0.117395,-1.5004 -0.06986,-1.74251 z"
           id="path5312"
           inkscape:connector-curvature="0"
           sodipodi:nodetypes="ccsccccccsssccc" />
      </g>
    </g>
  </g>
</svg>
