<?xml version="1.0" encoding="UTF-8" standalone="no"?>
<!-- Created with Inkscape (http://www.inkscape.org/) -->

<svg
   width="149.58777mm"
   height="185.20833mm"
   viewBox="0 0 149.58777 185.20833"
   version="1.1"
   id="svg5"
   xml:space="preserve"
   inkscape:version="1.2 (dc2aeda, 2022-05-15)"
   sodipodi:docname="Logo US Carcassonne - 2023.svg"
   xmlns:inkscape="http://www.inkscape.org/namespaces/inkscape"
   xmlns:sodipodi="http://sodipodi.sourceforge.net/DTD/sodipodi-0.dtd"
   xmlns="http://www.w3.org/2000/svg"
   xmlns:svg="http://www.w3.org/2000/svg"><sodipodi:namedview
     id="namedview7"
     pagecolor="#ffffff"
     bordercolor="#000000"
     borderopacity="0.25"
     inkscape:showpageshadow="2"
     inkscape:pageopacity="0.0"
     inkscape:pagecheckerboard="0"
     inkscape:deskcolor="#d1d1d1"
     inkscape:document-units="mm"
     showgrid="false"
     inkscape:zoom="3.719096"
     inkscape:cx="211.34168"
     inkscape:cy="319.43246"
     inkscape:window-width="1920"
     inkscape:window-height="888"
     inkscape:window-x="0"
     inkscape:window-y="25"
     inkscape:window-maximized="0"
     inkscape:current-layer="layer1" /><defs
     id="defs2" /><g
     inkscape:label="Calque 1"
     inkscape:groupmode="layer"
     id="layer1"
     transform="translate(247.06742,189.11345)"><g
       id="g4936"
       transform="matrix(0.97140893,0,0,0.97140893,-7.0639218,-5.4069559)"
       style="stroke-width:1.02943;stroke:none"><path
         id="path4293"
         style="fill:#fae314;fill-opacity:1;stroke:none;stroke-width:0.0514716;stroke-dasharray:none"
         d="m -170.07216,-189.11261 c -19.28076,-0.0615 -45.8896,3.25338 -69.56836,5.06068 -3.69833,13.86359 -6.62504,31.36916 -7.27036,48.31281 -0.74938,19.67567 1.11194,39.632658 7.31635,58.462581 5.01766,15.228189 13.89528,32.406584 25.01501,44.87633 10.54347,13.023862 26.60107,25.4920315 44.50736,33.9462486 17.90632,-8.4542255 33.9644,-20.9223736 44.50788,-33.9462486 11.11974,-12.469759 19.99684,-29.648125 25.0145,-44.87633 6.204419,-18.829941 8.065724,-38.786891 7.316344,-58.462581 -0.645319,-16.94367 -3.572031,-34.4492 -7.270354,-48.31281 -23.67878,-1.8073 -50.28759,-5.12213 -69.56837,-5.06068 z" /><path
         id="path323"
         style="fill:#000000;stroke:none;stroke-width:0.0514716;stroke-dasharray:none"
         d="m -170.07216,-184.55009 c -21.6954,0.0392 -43.07262,3.10232 -66.04713,4.809 -7.22539,29.2854 -9.90899,61.70908 -2.66082,91.859513 0.737,3.210738 1.71259,6.565098 2.70733,9.699667 4.84981,15.282491 12.5866,29.387991 22.75055,41.757141 10.54348,13.023875 25.34376,25.28325 43.25007,33.7374752 17.90632,-8.4542252 32.7066,-20.7136002 43.25008,-33.7374752 10.16395,-12.36915 17.90126,-26.47465 22.75106,-41.757141 0.99474,-3.134569 1.97033,-6.488929 2.70733,-9.699667 7.248174,-30.150433 4.564058,-62.574113 -2.66134,-91.859513 -22.9745,-1.70668 -44.35172,-4.76984 -66.04713,-4.809 z" /><path
         id="path327"
         style="fill:#fae314;fill-opacity:1;stroke:none;stroke-width:0.0514716;stroke-dasharray:none"
         d="m -170.07216,-179.10857 c -6.6749,0.0505 -12.12189,0.24599 -19.78173,0.87127 l -1.15394,7.99951 -21.06073,2.26136 v -8.34161 l -20.06544,1.76992 c -3.67564,14.48715 -5.94473,30.05027 -6.49986,43.51931 -0.20825,5.05261 -0.19031,9.65554 0,14.17536 0.99048,23.524005 6.97748,44.608297 17.8077,62.73467 11.60773,19.014853 26.94761,33.439866 46.54082,43.770455 1.11637,0.5881931 4.14649,2.0625364 4.21318,2.0629233 0.0667,-3.869e-4 3.09733,-1.4747302 4.2137,-2.0629233 19.59321,-10.330589 34.93309,-24.755602 46.54083,-43.770455 10.83022,-18.126373 16.8167,-39.210665 17.80718,-62.73467 0.19031,-4.51982 0.20877,-9.12275 5.2e-4,-14.17536 -0.55513,-13.46904 -2.82423,-29.03216 -6.49986,-43.51931 l -20.06545,-1.76992 v 8.34161 l -21.06124,-2.26136 -1.15342,-7.99951 c -7.65984,-0.62528 -13.10735,-0.82077 -19.78226,-0.87127 z" /></g><g
       id="g4355"
       transform="matrix(0.97140893,0,0,0.97140893,-7.0639218,-5.4069559)"
       style="stroke-width:1.02943;stroke:none"><path
         d="m -224.45311,-149.62338 -0.0494,16.89325 c -0.0984,1.37077 -0.3509,2.62308 -1.19176,3.854 -0.339,0.52686 -0.72768,0.96617 -1.16604,1.3184 -0.43763,0.35163 -0.90316,0.58256 -1.39685,0.69317 -0.49329,0.11053 -0.95715,0.088 -1.39195,-0.0675 -0.42043,-0.15879 -0.79771,-0.42483 -1.13204,-0.79841 -0.33473,-0.37403 -0.59755,-0.8236 -0.78843,-1.34912 -0.19132,-0.54614 -0.28871,-1.16409 -0.29191,-1.85441 l -0.0781,-16.87844 2.30424,-0.55739 0.0416,16.39827 c 2.7e-4,0.75235 0.1318,1.27549 0.39439,1.57084 0.26235,0.29508 0.59035,0.39792 0.98437,0.30868 0.39427,-0.0893 0.72367,-0.34125 0.98836,-0.75636 0.26517,-0.41585 0.39977,-1.00071 0.40347,-1.75567 l 0.0461,-16.45722 z"
         style="font-weight:bold;font-size:66.6667px;font-family:'DIN Condensed';-inkscape-font-specification:'DIN Condensed,  Bold';text-align:center;text-anchor:middle;white-space:pre;fill:#000000;stroke:none;stroke-width:0.0514709"
         id="path5466"
         class="UnoptimicedTransforms"
         sodipodi:nodetypes="cccsscscccccsssccc" /><path
         d="m -214.9668,-145.32659 -2.42234,0.48642 c 0.0669,-1.04256 0.067,-1.76664 -0.28316,-2.42186 -0.24222,-0.4902 -0.55811,-0.69086 -1.14869,-0.60065 -0.31934,0.0488 -0.5782,0.17017 -0.77611,0.36432 -0.19825,0.19448 -0.35831,0.42431 -0.48,0.68944 -0.12171,0.28587 -0.20489,0.6069 -0.24948,0.96294 -0.0446,0.33558 -0.0661,0.68793 -0.0645,1.05693 0.002,0.43037 0.0112,0.7876 0.0279,1.07173 0.0321,0.28136 0.0947,0.52659 0.18773,0.73563 0.23081,0.44098 0.73581,0.58999 1.19741,0.74821 l 1.66562,0.62274 c 0.50741,0.16871 0.91631,0.40459 1.2278,0.70753 0.31047,0.28201 0.55406,0.6356 0.73125,1.06081 0.16224,0.44713 0.20207,1.09767 0.26194,1.70277 0.0597,0.5846 0.0905,1.26396 0.0922,2.03817 0.002,0.89272 -0.0616,1.73962 -0.19108,2.54153 -0.12957,0.78256 -0.3399,1.47487 -0.63143,2.0776 -0.30684,0.62739 -0.7106,1.15946 -1.21238,1.59651 -0.50397,0.43896 -1.12292,0.74644 -1.85886,0.9219 -0.55899,0.13327 -1.08333,0.1269 -1.5726,-0.0201 -0.49152,-0.14771 -0.91642,-0.41401 -1.27395,-0.79943 -0.3588,-0.38679 -0.6492,-0.86247 -0.87064,-1.42702 -0.20646,-0.58991 -0.3119,-1.25478 -0.31597,-1.9939 l -0.006,-1.31346 2.47809,-0.51587 -0.0316,1.02948 c 0.003,0.56904 0.0385,0.95347 0.28517,1.36611 0.26118,0.38793 0.61657,0.62173 1.20662,0.48929 0.39162,-0.0879 0.69168,-0.2256 0.90093,-0.41307 0.22374,-0.21052 0.39465,-0.46915 0.51299,-0.776 0.11824,-0.3066 0.18414,-0.65165 0.1978,-1.03539 0.0285,-0.40704 0.042,-0.85103 0.0405,-1.33207 -0.002,-0.56146 -0.0182,-1.01978 -0.0492,-1.37494 -0.0335,-0.92035 -0.45934,-1.2364 -1.19928,-1.51148 l -1.66824,-0.5924 c -1.01834,-0.3591 -1.71231,-0.95872 -2.07561,-1.79876 -0.34916,-0.86677 -0.52803,-1.99431 -0.5356,-3.3813 -0.005,-0.8288 0.0776,-1.63037 0.24636,-2.40376 0.16857,-0.77265 0.42359,-1.4538 0.76453,-2.04281 0.32447,-0.58522 0.73399,-1.06754 1.22758,-1.44686 0.50681,-0.40044 1.13945,-0.75446 1.8252,-0.84949 0.57577,-0.0798 1.18533,-0.0268 1.6515,0.1921 0.47899,0.21627 0.88925,0.53202 1.23151,0.94691 0.68102,0.8656 0.89667,2.04191 0.8995,3.28355 z"
         style="font-weight:bold;font-size:66.6667px;font-family:'DIN Condensed';-inkscape-font-specification:'DIN Condensed,  Bold';text-align:center;text-anchor:middle;white-space:pre;fill:#000000;stroke:none;stroke-width:0.0514709"
         id="path5468"
         sodipodi:nodetypes="ccccscccccccccccccsscsccccccscsccccccccccscccc" /><path
         d="m -201.7876,-138.30961 -0.0376,1.43505 c -7.7e-4,0.67388 -0.10006,1.32963 -0.29806,1.96742 -0.18302,0.61616 -0.44215,1.18091 -0.77758,1.69424 -0.33588,0.51402 -0.73301,0.94381 -1.19152,1.28923 -0.44382,0.32339 -0.92608,0.51801 -1.44681,0.58361 -0.44465,0.056 -0.8971,0.0305 -1.35731,-0.0768 -0.46061,-0.10733 -0.87484,-0.34458 -1.24249,-0.71174 -0.36776,-0.3673 -0.67337,-0.85599 -0.91667,-1.46589 -0.22771,-0.63232 -0.33869,-1.45383 -0.33297,-2.46374 l 0.0681,-12.02452 c 0.004,-0.7103 0.0995,-1.37894 0.28617,-2.00583 0.1865,-0.62618 0.4486,-1.17864 0.78613,-1.65746 0.33709,-0.4782 0.73407,-0.86118 1.19081,-1.14911 0.47139,-0.3092 0.98706,-0.49189 1.54698,-0.54832 1.08752,-0.10962 1.96811,0.27266 2.6436,1.14634 0.33013,0.42746 0.58491,0.95292 0.76443,1.57662 0.19465,0.60224 0.29157,1.27533 0.29072,2.01962 l -0.001,1.20834 -2.41593,0.3206 0.003,-0.88777 c 0.002,-0.60535 -0.0189,-1.1872 -0.27476,-1.60362 -0.25585,-0.41645 -0.60322,-0.60179 -1.04241,-0.55598 -0.57617,0.0601 -0.96419,0.34277 -1.16367,0.84835 -0.18438,0.48426 -0.27818,1.09089 -0.28129,1.82 l -0.0474,10.99472 c -0.003,0.6368 0.0947,1.15919 0.29225,1.56682 0.21289,0.40579 0.58749,0.57588 1.12328,0.5103 0.15296,-0.0187 0.31362,-0.0692 0.48194,-0.15127 0.18359,-0.10456 0.35193,-0.24825 0.50504,-0.43104 0.13778,-0.18083 0.25277,-0.42031 0.345,-0.71837 0.0922,-0.29789 0.13879,-0.66178 0.13988,-1.09162 l 0.003,-1.07363 z"
         style="font-weight:bold;font-size:66.6667px;font-family:'DIN Condensed';-inkscape-font-specification:'DIN Condensed,  Bold';text-align:center;text-anchor:middle;white-space:pre;fill:#000000;stroke:none;stroke-width:0.0514709"
         id="path5470"
         sodipodi:nodetypes="cccscscccsccscccccccccsccccccccccc" /><path
         d="m -195.37412,-140.4886 -1.15047,-7.37737 -1.08224,7.6041 z m -5.74838,8.27117 3.64947,-22.14665 1.98433,-0.17507 3.62953,21.37329 -2.41451,0.25234 -0.66019,-4.595 -3.08754,0.36725 -0.66704,4.66951 z"
         style="font-weight:bold;font-size:66.6667px;font-family:'DIN Condensed';-inkscape-font-specification:'DIN Condensed,  Bold';text-align:center;text-anchor:middle;white-space:pre;fill:#000000;stroke:none;stroke-width:0.0514709"
         id="path5472"
         sodipodi:nodetypes="ccccccccccccc" /><path
         d="m -188.54629,-152.22781 -0.002,6.77994 1.34508,-0.0837 c 0.41744,-0.026 0.74988,-0.11786 0.99734,-0.27565 0.2475,-0.17813 0.44092,-0.41394 0.58027,-0.70745 0.1239,-0.29254 0.20921,-0.64376 0.25592,-1.05365 0.0467,-0.43031 0.0702,-0.9203 0.0707,-1.46998 4.2e-4,-0.54976 -0.0224,-1.02688 -0.0685,-1.43135 -0.0461,-0.42487 -0.13861,-0.78579 -0.27767,-1.08274 -0.29359,-0.55224 -0.85049,-0.80289 -1.67066,-0.7519 z m -2.36777,18.92881 v -21.7174 l 3.80852,-0.23669 c 2.78656,-0.17318 4.17745,1.87097 4.17276,6.12867 -0.001,1.28244 -0.15723,2.38076 -0.46739,3.29512 -0.29463,0.91321 -0.82087,1.66779 -1.57869,2.26386 l 2.53849,9.73824 -2.5003,0.15585 -2.19461,-9.11956 -1.41412,0.088 -0.003,9.25666 z"
         style="font-weight:bold;font-size:66.6667px;font-family:'DIN Condensed';-inkscape-font-specification:'DIN Condensed,  Bold';text-align:center;text-anchor:middle;white-space:pre;fill:#000000;stroke:none;stroke-width:0.0514709"
         id="path5474" /><path
         d="m -173.74485,-140.43559 0.002,1.33264 c 7.7e-4,0.66671 -0.097,1.30806 -0.29349,1.92443 -0.18158,0.59612 -0.43945,1.13606 -0.77391,1.61993 -0.33507,0.48474 -0.73193,0.88219 -1.19093,1.19221 -0.44466,0.28946 -0.92878,0.44906 -1.45256,0.47838 -0.44771,0.0251 -0.90406,-0.0313 -1.36904,-0.16927 -0.46591,-0.13826 -0.88593,-0.40251 -1.25975,-0.79298 -0.37437,-0.39102 -0.68657,-0.89891 -0.93634,-1.52359 -0.23429,-0.64647 -0.35092,-1.47367 -0.34978,-2.48085 l 0.0136,-12.03886 c 8.1e-4,-0.71388 0.0952,-1.37786 0.28296,-1.99162 0.18755,-0.61303 0.45255,-1.14484 0.79471,-1.59537 0.34155,-0.44973 0.74431,-0.79782 1.20797,-1.04446 0.47804,-0.26642 1.00106,-0.40128 1.5688,-0.40505 1.10067,-0.007 1.99127,0.45864 2.67458,1.39601 0.33344,0.45786 0.59102,1.00627 0.77298,1.64544 0.19695,0.61863 0.29581,1.29869 0.29667,2.04067 l 0.001,1.20389 -2.32206,0.0485 -4.6e-4,-1.02875 c -2.8e-4,-0.60486 -0.13015,-1.1268 -0.3898,-1.56631 -0.25987,-0.4399 -0.61178,-0.65699 -1.05622,-0.65097 -0.5837,0.008 -0.97632,0.25621 -1.17689,0.74535 -0.18536,0.46918 -0.27827,1.06917 -0.27857,1.79984 l -0.005,11.12105 c -2.6e-4,0.63364 0.10031,1.16056 0.30161,1.5804 0.21665,0.41882 0.5955,0.61486 1.13568,0.5884 0.15411,-0.008 0.31579,-0.0461 0.48504,-0.11546 0.18449,-0.0905 0.35344,-0.22081 0.5069,-0.39101 0.138,-0.16933 0.25289,-0.39845 0.34471,-0.68731 0.0918,-0.28871 0.13753,-0.64625 0.13733,-1.07266 l -4.8e-4,-1.06558 z"
         style="font-weight:bold;font-size:66.6667px;font-family:'DIN Condensed';-inkscape-font-specification:'DIN Condensed,  Bold';text-align:center;text-anchor:middle;white-space:pre;fill:#000000;stroke:none;stroke-width:0.0514709"
         id="path5476" /><path
         d="m -167.31315,-141.8334 -1.08894,-7.4969 -1.06695,7.4969 z m -5.76667,7.75468 3.67216,-21.81802 h 1.9631 l 3.67217,21.81802 h -2.35572 l -0.69287,-4.68843 h -3.21025 l -0.69286,4.68843 z"
         style="font-weight:bold;font-size:66.6667px;font-family:'DIN Condensed';-inkscape-font-specification:'DIN Condensed,  Bold';text-align:center;text-anchor:middle;white-space:pre;fill:#000000;stroke:none;stroke-width:0.0514709"
         id="path5478"
         sodipodi:nodetypes="ccccccccccccc" /><path
         d="m -155.0631,-149.05794 -2.4812,-0.16883 0.002,-0.70388 c 0.002,-0.71495 -0.12809,-1.33622 -0.39015,-1.86375 -0.24691,-0.5479 -0.54877,-0.80496 -1.15496,-0.84172 -0.3268,-0.0198 -0.59159,0.0464 -0.79422,0.19863 -0.20268,0.15229 -0.36643,0.34807 -0.49121,0.5873 -0.12476,0.25973 -0.21052,0.56281 -0.25726,0.90914 -0.0467,0.32565 -0.07,0.67301 -0.0699,1.042 7e-5,0.43021 0.008,0.78892 0.0234,1.07625 0.0312,0.28804 0.0934,0.54699 0.18672,0.77686 0.0932,0.22973 0.22528,0.43082 0.39605,0.6033 0.18617,0.17319 0.43423,0.34959 0.74403,0.52915 l 1.80595,1.04073 c 0.52279,0.29086 0.94465,0.62664 1.2659,1.00731 0.32089,0.35995 0.57215,0.77643 0.75396,1.2494 0.16621,0.49178 0.27842,1.05074 0.33673,1.67678 0.0583,0.6052 0.0857,1.29848 0.0821,2.07959 -0.004,0.9 -0.0765,1.7358 -0.2169,2.50788 -0.14023,0.7514 -0.36352,1.38929 -0.66992,1.91415 -0.32165,0.54405 -0.74183,0.96501 -1.26087,1.26311 -0.51942,0.2983 -1.15352,0.43348 -1.90306,0.40533 -0.56688,-0.0213 -1.09614,-0.17073 -1.5878,-0.44865 -0.49245,-0.27838 -0.91644,-0.65454 -1.2718,-1.12871 -0.35594,-0.47495 -0.64297,-1.01812 -0.86089,-1.62965 -0.20279,-0.63197 -0.30512,-1.31097 -0.30677,-2.03696 l -0.003,-1.2936 2.37138,0.10708 2.5e-4,1.10907 c 1.3e-4,0.56323 0.12368,1.08097 0.37036,1.55313 0.26172,0.45211 0.69232,0.6903 1.29142,0.71504 0.39893,0.0165 0.70564,-0.0409 0.9204,-0.17191 0.23005,-0.15037 0.40661,-0.36292 0.52973,-0.63772 0.12313,-0.27485 0.19285,-0.6021 0.20915,-0.98188 0.0317,-0.39938 0.0481,-0.83979 0.0494,-1.32136 0.001,-0.56233 -0.0127,-1.02536 -0.0424,-1.38886 -0.0298,-0.36377 -0.0905,-0.65873 -0.1821,-0.88481 -0.10706,-0.22696 -0.25274,-0.41557 -0.43707,-0.5658 -0.16904,-0.14959 -0.39981,-0.3124 -0.69244,-0.48848 l -1.69215,-0.9958 c -1.02458,-0.60043 -1.7179,-1.35885 -2.07795,-2.27535 -0.34531,-0.93831 -0.51977,-2.09491 -0.52276,-3.47048 -0.002,-0.82276 0.0828,-1.60035 0.25389,-2.33235 0.17121,-0.73262 0.42907,-1.35716 0.77347,-1.87319 0.32875,-0.51706 0.74381,-0.91488 1.24489,-1.19327 0.51638,-0.29788 1.12602,-0.42406 1.8283,-0.37876 0.59209,0.0382 1.12858,0.21718 1.60952,0.53662 0.49564,0.31989 0.92046,0.72732 1.27464,1.22207 0.70641,1.02798 1.05581,2.17418 1.05,3.4392 z"
         style="font-weight:bold;font-size:66.6667px;font-family:'DIN Condensed';-inkscape-font-specification:'DIN Condensed,  Bold';text-align:center;text-anchor:middle;white-space:pre;fill:#000000;stroke:none;stroke-width:0.0514709"
         id="path5480"
         sodipodi:nodetypes="ccccssccccccccccccccssssccccscccsccccccccccccscccc" /><path
         d="m -146.00611,-148.33766 -2.28367,-0.29144 -0.002,-0.69132 c -0.002,-0.70051 -0.13126,-1.31757 -0.38845,-1.85225 -0.24242,-0.55314 -0.65851,-0.8712 -1.25007,-0.95404 -0.31964,-0.0448 -0.57889,-6.7e-4 -0.77745,0.13254 -0.19892,0.13345 -0.35982,0.31275 -0.48256,0.53795 -0.12292,0.24569 -0.20751,0.53735 -0.2537,0.87494 -0.0462,0.31767 -0.0694,0.6589 -0.0694,1.02366 -4e-5,0.42584 0.008,0.78192 0.023,1.06809 0.0309,0.28819 0.0926,0.54979 0.18512,0.78468 0.0925,0.23481 0.22354,0.44374 0.39291,0.6267 0.18456,0.18462 0.43028,0.37634 0.73685,0.57504 l 1.78093,1.14828 c 0.51356,0.3208 0.92797,0.67977 1.24414,1.07719 0.31552,0.37661 0.56358,0.8055 0.74452,1.28696 0.16601,0.49971 0.28015,1.06419 0.34251,1.6939 0.0623,0.60994 0.0953,1.30808 0.0989,2.09496 0.004,0.90924 -0.0592,1.75335 -0.19019,2.53266 -0.13143,0.76082 -0.34623,1.40503 -0.64487,1.93256 -0.31465,0.54859 -0.72927,0.96905 -1.24479,1.26095 -0.51785,0.29321 -1.15353,0.41468 -1.90853,0.36318 -0.57295,-0.0391 -1.10947,-0.21086 -1.60894,-0.51598 -0.50112,-0.30614 -0.93295,-0.71259 -1.29479,-1.21931 -0.36253,-0.5077 -0.65434,-1.08399 -0.87501,-1.72843 -0.20487,-0.66442 -0.30651,-1.37255 -0.30484,-2.12346 l 0.003,-1.18699 2.40282,0.22195 -1.9e-4,0.99066 c -1.1e-4,0.57865 0.12445,1.11666 0.37351,1.6132 0.26431,0.4766 0.69859,0.73891 1.30099,0.78719 0.40011,0.0321 0.70692,-0.0153 0.92105,-0.14175 0.22897,-0.1455 0.40397,-0.35656 0.52522,-0.63308 0.12108,-0.27614 0.18865,-0.60753 0.20285,-0.99424 0.0294,-0.40544 0.0434,-0.85267 0.0421,-1.34165 -0.001,-0.56995 -0.0179,-1.03919 -0.0492,-1.408 -0.0313,-0.36867 -0.0927,-0.66918 -0.18422,-0.9017 -0.10676,-0.23414 -0.25146,-0.43168 -0.43421,-0.59266 -0.16773,-0.15959 -0.39666,-0.33588 -0.68708,-0.52903 l -1.68468,-1.09777 c -1.02453,-0.6651 -1.71875,-1.47132 -2.07776,-2.41611 -0.34368,-0.96452 -0.51419,-2.13414 -0.51129,-3.50574 0.002,-0.81734 0.0896,-1.5811 0.26318,-2.29078 0.17319,-0.70788 0.43143,-1.30035 0.77415,-1.7775 0.32609,-0.47778 0.73588,-0.83056 1.22862,-1.05881 0.50597,-0.24503 1.10128,-0.31513 1.78491,-0.21149 0.57454,0.0871 1.09432,0.30495 1.56015,0.65302 0.47933,0.34924 0.89048,0.77658 1.23412,1.28218 0.68555,1.04795 1.03019,2.18367 1.0358,3.4119 z"
         style="font-weight:bold;font-size:66.6667px;font-family:'DIN Condensed';-inkscape-font-specification:'DIN Condensed,  Bold';text-align:center;text-anchor:middle;white-space:pre;fill:#000000;stroke:none;stroke-width:0.0514709"
         id="path5482" /><path
         d="m -144.56076,-149.21543 c -0.008,-0.86575 0.0983,-1.62293 0.31896,-2.27211 0.22095,-0.64999 0.51903,-1.18485 0.89459,-1.60464 0.36128,-0.40136 0.76996,-0.69945 1.22635,-0.89403 0.47282,-0.19412 0.94784,-0.27697 1.42505,-0.24813 0.47841,0.0289 0.95128,0.1696 1.41855,0.42245 0.48397,0.25443 0.92326,0.60891 1.31756,1.06363 0.37961,0.47513 0.69037,1.05937 0.93193,1.75264 0.24185,0.69409 0.36686,1.4833 0.37483,2.36698 l 0.1045,11.5872 c 0.008,0.92423 -0.1025,1.70215 -0.3323,2.3332 -0.22952,0.63027 -0.53027,1.13907 -0.90191,1.52644 -0.38632,0.40526 -0.81959,0.69192 -1.29948,0.86028 -0.4632,0.16976 -0.93403,0.22629 -1.41243,0.16999 -0.47722,-0.0562 -0.95428,-0.22369 -1.43118,-0.50217 -0.46046,-0.27602 -0.87517,-0.65722 -1.24441,-1.14341 -0.38354,-0.46682 -0.69163,-1.03506 -0.92462,-1.70483 -0.23273,-0.669 -0.35316,-1.45594 -0.36149,-2.36142 z m 2.42916,11.59369 c 0.007,0.74904 0.16487,1.32216 0.47442,1.71985 0.32521,0.37971 0.70319,0.59339 1.13428,0.64064 0.43205,0.0474 0.80158,-0.0851 1.10823,-0.39781 0.3225,-0.33198 0.48052,-0.8758 0.47367,-1.63106 l -0.10451,-11.51605 c -0.007,-0.75572 -0.17499,-1.31875 -0.50397,-1.68862 -0.31313,-0.38857 -0.68591,-0.59745 -1.11796,-0.62705 -0.43108,-0.0295 -0.80583,0.12738 -1.12455,0.47023 -0.30306,0.32309 -0.45098,0.8592 -0.44413,1.60868 z"
         style="font-weight:bold;font-size:66.6667px;font-family:'DIN Condensed';-inkscape-font-specification:'DIN Condensed,  Bold';text-align:center;text-anchor:middle;white-space:pre;fill:#000000;stroke:none;stroke-width:0.0514709"
         id="path5484" /><path
         d="m -134.8389,-131.51317 v -21.81802 l 2.2302,0.3683 3.51371,13.64729 0.0454,0.007 -0.0216,-13.07025 2.30468,0.3806 0.0503,21.71741 -2.18238,-0.33114 -3.56789,-13.67016 -0.0456,-0.007 0.009,13.1305 z"
         style="font-weight:bold;font-size:66.6667px;font-family:'DIN Condensed';-inkscape-font-specification:'DIN Condensed,  Bold';text-align:center;text-anchor:middle;white-space:pre;fill:#000000;stroke:none;stroke-width:0.0514709"
         id="path5486" /><path
         d="m -124.85903,-129.92856 -0.0251,-21.69226 2.20171,0.44181 3.50644,13.77685 0.0453,0.009 -0.0366,-13.08088 2.30525,0.46258 0.0755,21.79286 -2.18345,-0.46262 -3.56162,-13.83927 -0.0451,-0.009 0.0238,13.08938 z"
         style="font-weight:bold;font-size:66.6667px;font-family:'DIN Condensed';-inkscape-font-specification:'DIN Condensed,  Bold';text-align:center;text-anchor:middle;white-space:pre;fill:#000000;stroke:none;stroke-width:0.0514709"
         id="path5488" /><path
         d="m -114.88962,-127.84091 v -21.69226 l 6.82516,1.68521 0.003,2.92564 -4.54222,-1.1277 0.002,6.36473 3.96078,0.99507 0.003,2.934 -3.96274,-1.00098 0.002,6.38477 4.55431,1.16393 0.004,3.12826 z"
         style="font-weight:bold;font-size:66.6667px;font-family:'DIN Condensed';-inkscape-font-specification:'DIN Condensed,  Bold';text-align:center;text-anchor:middle;white-space:pre;fill:#000000;stroke:none;stroke-width:0.0514709"
         id="path5490" /></g><path
       id="path329"
       style="fill:#000000;stroke:none;stroke-width:0.05;stroke-dasharray:none"
       d="m -170.58132,-129.51494 c -0.16676,-0.004 -0.33586,0.0688 -0.40763,0.19026 -0.13431,0.22736 -0.0852,0.59994 0.0899,0.6797 l 0.0803,0.0361 v 2.6997 2.6992 l -0.14407,1.83177 -0.14408,1.83125 -4.51639,8.74617 -4.51691,8.74616 h -0.22188 -0.22188 l -0.25099,-0.55118 c -0.28479,-0.62455 -0.85122,-2.02473 -0.99595,-2.46226 -0.053,-0.16038 -0.18666,-0.68547 -0.29668,-1.16663 -0.21804,-0.95364 -0.20837,-0.87246 -0.32227,-2.76597 l -0.0632,-1.04865 0.0788,-0.10341 c 0.34712,-0.45509 0.16239,-0.90468 -0.37298,-0.9076 -0.31533,-0.002 -0.51805,0.19325 -0.51805,0.49798 0,0.1893 0.0671,0.32827 0.22489,0.46333 l 0.13654,0.11697 -0.0558,1.33931 -0.0558,1.3388 -2.90702,5.9295 -2.90652,5.929501 -0.9849,0.923159 c -0.5417,0.50784 -0.98491,0.936832 -0.98491,0.953278 0,0.01645 0.27327,0.174581 0.60741,0.351392 l 0.60741,0.321274 0.0336,17.928052 c -2.05313,-0.367144 -4.32281,-0.859922 -6.08662,-1.053174 l -0.0808,5.57861 -4.10476,-0.955788 -0.15211,-5.920967 -7.1945,-2.290075 -0.0688,6.277378 -4.88586,-1.468821 -0.0598,-6.186017 -7.6222,-2.226825 -0.0322,6.00279 -4.26641,-1.602852 0.12148,-6.179993 -4.95765,-1.362901 c 0.49815,4.127383 2.631,8.996721 4.55506,13.111965 3.77006,8.063573 8.00178,14.912481 12.59039,22.043362 7.04645,10.950435 16.90925,20.356798 28.18922,27.410633 3.22103,2.001432 7.32984,4.171118 11.39215,5.895365 7.595,-2.322584 15.82546,-9.207633 23.24864,-16.008946 3.59471,-3.293554 6.4794,-6.37951 9.03681,-9.068441 6.12754,-6.442684 11.14706,-12.865457 15.01902,-18.796995 l 0.49146,-0.752483 -0.0201,-1.929647 c -0.0109,-1.061384 -0.0325,-2.124253 -0.0487,-2.361861 -0.0165,-0.237607 -0.0223,-0.45737 -0.0146,-0.488436 0.008,-0.03107 0.0976,-0.09691 0.19879,-0.146078 0.58395,-0.283718 0.68808,-0.454944 0.36847,-0.604395 -0.0838,-0.0392 -0.27058,-0.127869 -0.41515,-0.196781 -0.14458,-0.06891 -0.29487,-0.124995 -0.33383,-0.124995 -0.22217,0 -0.34938,-0.201594 -0.43622,-0.296676 l -3.56112,-6.815511 c -0.8839,-1.691447 -1.08248,-2.08367 -1.3398,-2.93212 -0.10328,-0.340434 -0.12006,-0.458004 -0.19729,-1.360894 -0.0711,-0.8312 -0.0866,-1.224266 -0.0974,-2.473804 -0.0117,-1.342366 -0.008,-1.49109 0.0401,-1.544119 0.0305,-0.03373 0.0485,-0.09775 0.0426,-0.150597 -0.01,-0.08486 -0.0221,-0.09287 -0.16314,-0.101905 -0.084,-0.0054 -0.18264,0.0062 -0.21887,0.02561 -0.0843,0.04517 -0.0848,0.167578 -9.7e-4,0.243465 0.0599,0.05384 0.0648,0.09978 0.0648,0.561225 0,0.276425 -0.0299,1.396676 -0.0662,2.489365 l -0.0658,1.986372 -4.50787,8.32399 c -1.17091,2.032097 -2.16244,3.453397 -2.88995,4.141915 -0.17519,0.166778 -0.38571,0.349791 -0.37599,0.652085 0.007,0.23387 0.0859,0.41888 0.30822,0.491949 0.33162,0.109 0.7513,0.05735 1.15006,0.06425 -0.007,3.225489 -0.01,6.452553 -0.20732,9.614605 l -1.85084,-0.450284 V -60.1867 l -3.6339,-1.146042 v 4.635372 l -2.45673,-0.728889 v -4.858757 l -3.9341,-1.178169 v 4.711673 l -2.40905,-0.818243 v -5.016882 l -3.81361,-1.275555 V -88.67912 l 0.29417,-0.17419 c 0.55685,-0.32962 0.80605,-0.656508 0.8067,-1.058195 1.9e-4,-0.110746 -0.0288,-0.351328 -0.0642,-0.534619 -0.0356,-0.183289 -0.0648,-0.360434 -0.0648,-0.393559 -1.2e-4,-0.07334 -0.18041,-0.334754 -1.54361,-2.240379 -1.75751,-2.456802 -2.69822,-3.899015 -3.55058,-5.443072 -0.27198,-0.492718 -0.87002,-1.646966 -2.61787,-5.054536 -2.29119,-4.46687 -3.09557,-6.00623 -5.00384,-9.57445 -1.54971,-2.89777 -2.06168,-4.05347 -2.52751,-5.70561 -0.0824,-0.29225 -0.17032,-0.5985 -0.19577,-0.6802 -0.0988,-0.31752 -0.16664,-0.83569 -0.375,-2.86434 -0.0881,-0.85789 -0.10361,-1.15846 -0.13051,-2.55965 -0.0175,-0.8732 -0.0211,-2.0618 -0.01,-2.64097 0.0206,-1.02871 0.0228,-1.05471 0.0938,-1.13952 0.19079,-0.22766 0.0973,-0.64071 -0.16766,-0.74143 -0.0513,-0.0195 -0.10657,-0.0297 -0.16214,-0.0311 z m 3.54956,35.403817 c 0.79516,6.6e-5 1.57555,0.01295 1.96429,0.03865 3.03511,0.200706 5.44489,0.73686 7.28989,1.621927 0.94092,0.451374 1.69319,0.994647 2.09078,1.509985 0.1361,0.176348 0.13675,0.179715 0.0768,0.245975 -0.12222,0.13506 -0.14745,0.129407 -0.37699,-0.08434 -1.36599,-1.271942 -4.3034,-2.11242 -8.43745,-2.413565 -3.53594,-0.257576 -8.45802,0.05783 -14.71582,0.942736 -0.8165,0.115464 -1.41546,0.18639 -1.43217,0.169672 -0.0158,-0.01579 -0.0333,-0.07816 -0.0382,-0.138549 -0.0109,-0.129401 -0.0949,-0.09802 0.86543,-0.324787 3.42498,-0.808746 6.9821,-1.318728 10.65975,-1.52906 0.4483,-0.02564 1.25848,-0.03872 2.05364,-0.03865 z m 0.36294,6.414406 0.0728,0.150094 0.0202,2.50409 -0.01,2.623231 c -0.7372,-0.184709 -1.36448,-0.162824 -2.12626,0.003 l 5e-4,-2.610344 c 8e-4,-2.950842 -0.0159,-2.755831 0.26154,-2.993364 0.52488,-0.322763 1.48028,-0.297525 1.78122,0.323282 z m -10.34266,0.798552 0.0206,4.688712 c -0.81381,-0.05274 -1.43551,0.221625 -2.12242,0.677686 3.4e-4,-1.721657 6.8e-4,-3.443314 9.8e-4,-5.16497 0.14382,-0.320187 0.39563,-0.630278 0.68023,-0.803183 0.48939,-0.23833 1.43922,-0.295258 1.42054,0.601755 z m 16.86601,0.05535 c 0.35121,-0.02214 0.59661,0.228592 0.73592,0.687224 0.0647,0.211586 0.0669,0.29923 0.0718,2.908527 0.003,1.479634 -0.002,2.689983 -0.0111,2.68966 -0.4832,-0.197398 -0.86881,-0.436313 -1.3122,-0.702786 v -2.621389 c 0,-2.462098 0.004,-2.627553 0.0583,-2.727811 0.15526,-0.183746 0.28865,-0.222794 0.45728,-0.233425 z m -13.84236,8.664837 c 0.0359,0.0695 0.0522,0.120401 0.0603,0.576791 l 0.0149,4.490792 c -0.67297,-0.0054 -1.33227,-0.069 -2.13094,0.459818 l 0.005,-4.426852 c 1.5e-4,-0.128496 -0.0421,-0.649037 0.0771,-0.891726 0.10542,-0.214664 0.32632,-0.458282 0.5788,-0.568253 0.62245,-0.18197 1.03275,-0.134284 1.39497,0.35943 z m 10.39118,0.238956 c 0.0182,0.07117 0.0305,1.146537 0.0296,2.638959 -9.7e-4,2.307048 -0.006,2.519323 -0.0542,2.517478 -0.66296,-0.209134 -1.09966,-0.389984 -1.88346,-0.217868 v -2.492378 c 0,-2.802543 -0.006,-2.727794 0.22389,-2.935132 0.51856,-0.342172 1.50358,-0.129767 1.68415,0.488941 z m 33.23823,9.603055 c 1.11941,0.0037 2.49404,0.10977 3.23232,0.251497 0.1782,0.03421 0.73505,0.198462 1.2379,0.364444 0.73079,0.241221 0.91479,0.313095 0.91563,0.358421 9.8e-4,0.07197 0.0285,0.07377 -0.60841,-0.03916 -0.83521,-0.148085 -1.20132,-0.191683 -2.35534,-0.278604 -2.39173,-0.180132 -2.24059,-0.180006 -3.80809,9.71e-4 -1.60595,0.185452 -2.30771,0.325699 -3.2293,0.646563 -0.90167,0.313925 -1.50351,0.663454 -1.99541,1.15809 -0.13867,0.139446 -0.25514,0.253326 -0.25902,0.253002 -0.004,-2.72e-4 -0.026,-0.01244 -0.0492,-0.02711 -0.0616,-0.03908 0.20662,-0.382247 0.47388,-0.606403 0.69901,-0.586307 2.00303,-1.273682 3.13994,-1.655059 1.30388,-0.346262 2.15797,-0.430415 3.30506,-0.426653 z m -3.05812,5.446084 c 0.0643,0.08657 0.0673,0.130611 0.0703,1.348344 l 0.003,1.258989 c -0.53722,0.008 -0.78337,0.172653 -1.22235,0.39205 -0.0164,0.0062 -0.0286,-0.56006 -0.0286,-1.321739 0,-1.248557 0.004,-1.340114 0.0618,-1.452756 0.14388,-0.279165 0.41424,-0.442717 0.66714,-0.439241 0.21265,0.0029 0.32849,0.126314 0.44883,0.214353 z"
       sodipodi:nodetypes="sscccccccccccsscccsscccccccsccccccccccccccccssccsscccccssssccsscscsscscccccscccccccccccccccsscssssscscccsssssccsssccssssscscccscscscccccssccccccsccsssscccsssscccssssscsccsccccscscccc" /><g
       id="g2383"
       style="fill:#fae314;fill-opacity:1;stroke-width:1.02943;stroke:none"
       transform="matrix(0.97140893,0,0,0.97140893,-7.0639218,-5.4069559)"><path
         d="m -176.18848,-37.331945 c -0.52583,-0.514571 -0.72384,-1.168987 -0.72855,-1.750661 0,-0.769092 0.37806,-1.35675 0.93855,-1.834117 0.56999,-0.477367 1.3424,-0.760515 2.26387,-0.760515 0.83598,0 1.48379,0.243367 1.99678,0.641173 0.52249,0.388966 0.8193,1.141798 0.8193,1.778287 -0.14862,1.142128 -0.71929,1.230974 -1.61932,1.913204 1.10967,0.497485 2.0243,1.488248 2.04155,2.615688 0,0.679639 -0.2376,1.422472 -0.85508,1.961721 -0.61749,0.539248 -1.54886,0.986727 -2.43841,0.986727 -0.95947,0 -1.85113,-0.140811 -2.49712,-0.635859 -0.64599,-0.495047 -1.01344,-1.038242 -1.01344,-1.789653 0,-0.388966 0.0446,-0.661372 0.21386,-1.042558 0.21811,-0.491303 1.42066,-1.124539 1.84671,-1.397318 -0.28674,-0.12511 -0.73866,-0.461005 -0.9687,-0.686119 z m 1.17902,4.25734 c 0.70712,0.825355 1.77312,0.786737 2.30125,0.180171 0.642,-0.737344 0.29835,-2.06914 -0.4248,-2.545299 -0.37086,-0.244194 -1.06567,-0.724752 -1.51767,-0.891564 -1.10404,0.825537 -0.84847,2.685132 -0.35878,3.256692 z m 0.8956,-5.093838 c 0.3427,0.179919 0.61081,0.345766 0.97739,0.502652 0.54822,-0.384254 0.9279,-2.087769 0.10089,-2.997621 -0.30047,-0.330567 -0.57898,-0.393356 -0.95969,-0.383046 -0.64284,0.01741 -1.15424,0.556849 -1.1273,1.33081 0.0254,0.729931 0.53438,1.262461 1.00871,1.547205 z"
         style="font-weight:bold;font-size:66.6667px;font-family:Goudy-Serial;-inkscape-font-specification:'Goudy-Serial Bold';text-align:center;text-anchor:middle;white-space:pre;fill:#fae314;fill-opacity:1;stroke:none;stroke-width:0.0205887;stroke-dasharray:none"
         id="path557"
         sodipodi:nodetypes="sccsccccssssscsssscsccsssc" /><path
         d="m -165.16247,-36.140726 c -0.3335,0.189304 -1.06002,0.612147 -1.39291,0.636091 -1.01948,0.07333 -1.96949,-0.314149 -2.47954,-0.89214 -0.51006,-0.57799 -0.71479,-1.246353 -0.71479,-2.130852 0,-0.937043 0.49178,-1.692651 1.09807,-2.279399 0.61591,-0.595505 1.46051,-0.850603 2.23094,-0.874393 1.14069,-0.03522 1.95173,0.357934 2.5965,1.023498 0.64479,0.665565 0.98604,1.789573 0.97346,2.780943 -0.0148,1.164643 -0.17818,1.964486 -0.77339,2.984571 -1.28635,2.204572 -3.55155,2.992567 -5.49599,3.154739 l -0.11333,-0.614297 c 1.30988,-0.355353 2.27219,-0.79482 3.00737,-1.62832 0.58339,-0.661397 0.94453,-1.412486 1.06361,-2.160441 z m -2.23439,-4.45487 c -0.31106,0.380746 -0.31719,1.010886 -0.30753,1.652764 0.009,0.625336 0.22184,1.178774 0.38707,1.49616 0.54498,0.817502 1.2423,1.095482 2.28637,0.644488 0.11809,-1.310908 0.0996,-2.543727 -0.39145,-3.485681 -0.30556,-0.466385 -0.6263,-0.742763 -1.13775,-0.759804 -0.3453,-0.01151 -0.54725,0.09776 -0.83671,0.452073 z"
         style="font-weight:bold;font-size:66.6667px;font-family:Goudy-Serial;-inkscape-font-specification:'Goudy-Serial Bold';text-align:center;text-anchor:middle;white-space:pre;fill:#fae314;fill-opacity:1;stroke:none;stroke-width:0.0205887;stroke-dasharray:none"
         id="path559"
         sodipodi:nodetypes="cssscssssccscsscccss" /><path
         style="fill:#fae314;fill-opacity:1;stroke:none;stroke-width:0.0205887;stroke-dasharray:none"
         d="m -183.87204,-40.926246 c 1.01985,-0.147502 2.01756,-0.280397 3.43,-0.787767 v 7.479826 c 0,1.111805 0.0532,1.211575 0.22385,1.403169 0.22111,0.248269 0.82176,0.234202 1.39456,0.263998 v 0.587 h -5.35841 v -0.587 c 1.21378,-0.03636 1.676,-0.06659 1.676,-1.138 v -5.44052 c 0,-1.235175 -0.23786,-1.087855 -1.366,-1.264927 z"
         id="path622"
         sodipodi:nodetypes="ccssccccsscc" /><path
         d="m -157.5248,-36.140726 c -0.3335,0.189304 -1.06002,0.612147 -1.39291,0.636091 -1.01948,0.07333 -1.96949,-0.314149 -2.47954,-0.89214 -0.51006,-0.57799 -0.71479,-1.246353 -0.71479,-2.130852 0,-0.937043 0.49178,-1.692651 1.09807,-2.279399 0.61591,-0.595505 1.46051,-0.850603 2.23094,-0.874393 1.14069,-0.03522 1.95173,0.357934 2.5965,1.023498 0.64479,0.665565 0.98604,1.789573 0.97346,2.780943 -0.0148,1.164643 -0.17818,1.964486 -0.77339,2.984571 -1.28635,2.204572 -3.55155,2.992567 -5.49599,3.154739 l -0.11333,-0.614297 c 1.30988,-0.355353 2.27219,-0.79482 3.00737,-1.62832 0.58339,-0.661397 0.94453,-1.412486 1.06361,-2.160441 z m -2.23439,-4.45487 c -0.31106,0.380746 -0.31719,1.010886 -0.30753,1.652764 0.009,0.625336 0.22184,1.178774 0.38707,1.49616 0.54498,0.817502 1.2423,1.095482 2.28637,0.644488 0.11809,-1.310908 0.0996,-2.543727 -0.39145,-3.485681 -0.30556,-0.466385 -0.6263,-0.742763 -1.13775,-0.759804 -0.3453,-0.01151 -0.54725,0.09776 -0.83671,0.452073 z"
         style="font-weight:bold;font-size:66.6667px;font-family:Goudy-Serial;-inkscape-font-specification:'Goudy-Serial Bold';text-align:center;text-anchor:middle;white-space:pre;fill:#fae314;fill-opacity:1;stroke:none;stroke-width:0.0205887;stroke-dasharray:none"
         id="path2332"
         sodipodi:nodetypes="cssscssssccscsscccss" /></g><g
       id="g4704"
       style="fill:#000000;stroke-width:1.02943;stroke:none"
       transform="matrix(0.97140893,0,0,0.97140893,-7.0639218,-5.4069559)"><path
         id="path399"
         style="fill:#000000;stroke:none;stroke-width:0.0205887;stroke-dasharray:none"
         d="m -170.38893,-177.09887 a 0.80289114,0.83631861 0 0 0 -0.80254,0.83664 0.80289114,0.83631861 0 0 0 0.28061,0.63459 l -0.20671,0.20722 c -0.50333,0.5042 -1.25912,0.95113 -2.12235,1.12448 a 0.80289114,0.83631861 0 0 0 -0.78342,-0.65216 0.80289114,0.83631861 0 0 0 -0.80305,0.83613 0.80289114,0.83631861 0 0 0 0.80305,0.83664 0.80289114,0.83631861 0 0 0 0.51987,-0.19999 c 0.0255,0.0394 0.0799,0.12139 0.13332,0.18862 0.3981,0.50055 0.92304,1.45753 1.17874,2.14871 0.12102,0.32716 0.34882,1.16552 0.34882,1.28416 0,0.0579 -0.0134,0.0574 -0.30851,-0.006 -0.73513,-0.1584 -1.61417,-0.50524 -2.31045,-0.91157 -0.3462,-0.20203 -0.89244,-0.57581 -1.04335,-0.70952 a 0.80289114,0.83631861 0 0 0 0.15916,-0.49919 0.80289114,0.83631861 0 0 0 -0.80305,-0.83612 0.80289114,0.83631861 0 0 0 -0.80253,0.83612 0.80289114,0.83631861 0 0 0 0.62632,0.81597 c -0.0245,0.10304 -0.0875,0.31886 -0.13901,0.47284 -0.1199,0.35869 -0.28735,0.70093 -0.49817,1.01854 -0.13564,0.20439 -0.50772,0.60307 -0.62528,0.71986 l -0.0925,0.0915 a 0.80289114,0.83631861 0 0 0 -0.632,-0.32039 0.80289114,0.83631861 0 0 0 -0.80254,0.83612 0.80289114,0.83631861 0 0 0 0.80254,0.83665 0.80289114,0.83631861 0 0 0 0.63665,-0.32815 l 0.23203,0.23875 c 0.29269,0.29043 0.55926,0.66069 0.74621,1.03611 0.15445,0.31018 0.31955,0.75414 0.3576,1.03146 a 0.80289114,0.83631861 0 0 0 -0.61857,0.8139 0.80289114,0.83631861 0 0 0 0.80305,0.83613 0.80289114,0.83631861 0 0 0 0.80305,-0.83613 0.80289114,0.83631861 0 0 0 -0.16226,-0.50384 c 0.0531,-0.0391 0.22939,-0.16007 0.36742,-0.26148 0.61904,-0.45479 1.45752,-0.88169 2.23035,-1.13482 0.5139,-0.16835 1.02635,-0.29191 1.06195,-0.25631 0.0357,0.0357 -0.0882,0.54868 -0.25786,1.0666 -0.17549,0.53578 -0.51624,1.27365 -0.79582,1.72392 -0.17125,0.27579 -0.50186,0.73202 -0.6165,0.8599 a 0.80289114,0.83631861 0 0 0 -0.50488,-0.18655 0.80289114,0.83631861 0 0 0 -0.80305,0.83664 0.80289114,0.83631861 0 0 0 0.80305,0.83612 0.80289114,0.83631861 0 0 0 0.78807,-0.68006 c 0.28703,0.074 0.80948,0.25336 1.0759,0.38602 0.37642,0.18744 0.74583,0.45417 1.0387,0.74931 l 0.20722,0.20774 a 0.80289114,0.83631861 0 0 0 -0.27182,0.62632 0.80289114,0.83631861 0 0 0 0.80254,0.83612 0.80289114,0.83631861 0 0 0 0.0139,-0.002 v -1.67069 -0.91519 l -0.18035,-0.1571 c -0.31707,-0.27804 -0.69445,-0.52876 -1.07797,-0.71675 l -0.37414,-0.18345 0.0796,-0.10491 c 0.43741,-0.57495 0.88753,-1.69154 1.09761,-2.72335 0.13826,-0.67905 0.29551,-2.00512 0.24391,-2.05672 -0.0289,-0.0289 -0.92822,0.0572 -1.47536,0.14108 -1.31506,0.20179 -2.48412,0.62087 -3.25458,1.16685 l -0.15503,0.10956 -0.20309,-0.40566 c -0.18195,-0.36352 -0.43695,-0.74091 -0.74104,-1.09606 l -0.1049,-0.12247 0.18862,-0.22273 c 0.25481,-0.30036 0.54543,-0.7491 0.70331,-1.07125 l 0.1478,-0.31161 0.25631,0.154 c 0.98892,0.66323 2.59232,1.12198 4.31085,1.23403 l 0.34572,0.0227 -0.0222,-0.28009 c -0.15198,-1.91375 -0.56931,-3.36962 -1.25884,-4.39146 l -0.16433,-0.24392 0.11007,-0.0377 c 0.33147,-0.11425 0.89015,-0.45923 1.28571,-0.79323 l 0.24184,-0.20412 5.2e-4,-0.93328 v -1.67173 a 0.80289114,0.83631861 0 0 0 -0.0139,-5.2e-4 z" /><path
         style="fill:#000000;stroke:none;stroke-width:0.0205887;stroke-dasharray:none"
         d="m -168.77448,-159.93455 v -3.21468 h 0.71195 c 0.67535,0 0.71513,-0.004 0.77382,-0.0684 0.0347,-0.0384 0.0619,-0.11813 0.0619,-0.18179 0,-0.0637 -0.0272,-0.14342 -0.0619,-0.18179 -0.0587,-0.0649 -0.0985,-0.0684 -0.77382,-0.0684 h -0.71151 v -13.56359 l 0.18052,-0.17458 c 0.14266,0.0763 0.89574,0.86572 1.10153,1.15952 0.72784,1.03912 1.01832,2.29912 0.88523,3.83984 -0.0732,0.84785 -0.22323,1.66672 -0.63844,3.48553 -0.51611,2.26083 -0.73137,3.55593 -0.76782,4.61958 l -0.01,0.28351 c 0.0683,0.007 0.13667,0.0135 0.205,0.0202 l 0.0223,-0.4937 c 0.0994,-2.20242 0.96029,-4.05154 2.37313,-5.09708 1.3126,-0.97137 2.74825,-1.16854 4.00252,-0.54972 0.62146,0.30661 1.1059,0.77224 1.40842,1.35372 0.21872,0.4204 0.29026,0.71973 0.29026,1.21442 0,0.45051 -0.0626,0.75143 -0.23738,1.14171 l -0.0856,0.19112 -0.24103,-0.2251 c -0.93692,-0.87499 -2.1457,-1.19254 -3.31281,-0.87031 -1.31347,0.36264 -2.43314,1.47108 -2.93833,2.90889 -0.0745,0.21211 -0.15404,0.34316 -0.1314,0.39591 0.0247,0.0576 0.16397,0.0267 0.38354,0.0267 0.31862,0 0.37036,0.009 0.49712,0.0829 0.32495,0.19044 0.37127,0.63099 0.0936,0.89058 -0.1466,0.13707 -0.24892,0.16056 -0.69944,0.16056 -0.3287,0 -0.41961,0.01 -0.434,0.0474 -0.0345,0.09 0.0566,0.93749 0.14189,1.31987 0.047,0.21084 0.14239,0.5448 0.21189,0.74213 0.0695,0.19733 0.11811,0.35879 0.108,0.35879 -0.0101,0 -0.0981,-0.0615 -0.19554,-0.13667 -0.45527,-0.35124 -0.86642,-1.11886 -1.06123,-1.98133 l -0.0753,-0.33355 -0.12611,-0.0106 c -0.0694,-0.006 -0.13976,0.003 -0.15645,0.0197 -0.0364,0.0364 0.0483,0.81133 0.1412,1.29169 0.12152,0.62834 0.084,0.80079 -0.26946,1.24024 -0.24538,0.30502 -0.31116,0.43026 -0.40284,0.76692 -0.0391,0.14352 -0.0748,0.26519 -0.0795,0.27039 -0.0569,-0.24536 -0.11479,-0.44202 -0.18391,-0.68053 z"
         id="path397"
         sodipodi:nodetypes="ccscssscccscscccsssssscssssscssccssscccsscscc" /></g></g></svg>
