<svg width="200" height="200" viewBox="0 0 200 200" xmlns="http://www.w3.org/2000/svg">
  <defs>
    <clipPath id="t3-hex"><polygon points="100,10 175,50 175,150 100,190 25,150 25,50"/></clipPath>
    <clipPath id="t3-safe"><polygon points="100,36 150,64 150,136 100,164 50,136 50,64"/></clipPath>
  </defs>
  <g clip-path="url(#t3-hex)">
    <rect width="200" height="200" fill="#003DA5"/>
    <rect x="0" y="60" width="200" height="80" fill="#E63B2E"/>
    <rect x="0" y="90" width="200" height="20" fill="#FFFFFF"/>
  </g>
  <g clip-path="url(#t3-safe)">
    <rect x="58" y="66" width="84" height="5" fill="#FFFFFF" opacity="0.6"/>
    <rect x="58" y="129" width="84" height="5" fill="#FFFFFF" opacity="0.6"/>
  </g>
  <polygon points="100,10 175,50 175,150 100,190 25,150 25,50" fill="none" stroke="#000000" stroke-width="8"/>
  <polygon points="100,22 163.5,54 163.5,146 100,178 36.5,146 36.5,54" fill="none" stroke="#FFFFFF" stroke-width="4"/>
  <polygon points="100,30 156,58 156,142 100,170 44,142 44,58" fill="none" stroke="#003DA5" stroke-width="2"/>
  <text x="50%" y="112" text-anchor="middle" dominant-baseline="middle" fill="#FFFFFF" stroke="#000000" stroke-width="7" paint-order="stroke" font-family="Arial Black, Arial, sans-serif" font-weight="900" font-size="40" textLength="88" lengthAdjust="spacingAndGlyphs">CASG</text>
  <text x="50%" y="112" text-anchor="middle" dominant-baseline="middle" fill="#FFFFFF" stroke="#003DA5" stroke-width="2" paint-order="stroke" font-family="Arial Black, Arial, sans-serif" font-weight="900" font-size="40" textLength="88" lengthAdjust="spacingAndGlyphs">CASG</text>
</svg>