<?xml version="1.0" encoding="UTF-8" standalone="no"?>
<!-- Generator: Adobe Illustrator 22.1.0, SVG Export Plug-In . SVG Version: 6.00 Build 0)  -->

<svg
   xmlns:dc="http://purl.org/dc/elements/1.1/"
   xmlns:cc="http://creativecommons.org/ns#"
   xmlns:rdf="http://www.w3.org/1999/02/22-rdf-syntax-ns#"
   xmlns:svg="http://www.w3.org/2000/svg"
   xmlns="http://www.w3.org/2000/svg"
   xmlns:sodipodi="http://sodipodi.sourceforge.net/DTD/sodipodi-0.dtd"
   xmlns:inkscape="http://www.inkscape.org/namespaces/inkscape"
   version="1.1"
   id="svg2"
   x="0px"
   y="0px"
   viewBox="0 0 790 1000"
   enable-background="new 0 0 1000 1010.748"
   xml:space="preserve"
   inkscape:version="0.91 r13725"
   sodipodi:docname="Logo_USA_Perpignan_2017.svg"
   width="790"
   height="1000"><metadata
     id="metadata31"><rdf:RDF><cc:Work
         rdf:about=""><dc:format>image/svg+xml</dc:format><dc:type
           rdf:resource="http://purl.org/dc/dcmitype/StillImage" /><dc:title></dc:title></cc:Work></rdf:RDF></metadata><defs
     id="defs29" /><sodipodi:namedview
     pagecolor="#ffffff"
     bordercolor="#666666"
     borderopacity="1"
     objecttolerance="10"
     gridtolerance="10"
     guidetolerance="10"
     inkscape:pageopacity="0"
     inkscape:pageshadow="2"
     inkscape:window-width="1440"
     inkscape:window-height="788"
     id="namedview27"
     showgrid="false"
     inkscape:zoom="0.55362774"
     inkscape:cx="341.29604"
     inkscape:cy="517.0183"
     inkscape:window-x="0"
     inkscape:window-y="1"
     inkscape:window-maximized="1"
     inkscape:current-layer="svg2" /><g
     id="g4323"
     transform="matrix(1.0001236,0,0,0.99990183,-0.04883412,0.04882332)"><g
       id="g4318"><path
         inkscape:connector-curvature="0"
         style="color:#000000;font-style:normal;font-variant:normal;font-weight:normal;font-stretch:normal;font-size:medium;line-height:normal;font-family:sans-serif;text-indent:0;text-align:start;text-decoration:none;text-decoration-line:none;text-decoration-style:solid;text-decoration-color:#000000;letter-spacing:normal;word-spacing:normal;text-transform:none;direction:ltr;block-progression:tb;writing-mode:lr-tb;baseline-shift:baseline;text-anchor:start;white-space:normal;clip-rule:nonzero;display:inline;overflow:visible;visibility:visible;opacity:1;isolation:auto;mix-blend-mode:normal;color-interpolation:sRGB;color-interpolation-filters:linearRGB;solid-color:#000000;solid-opacity:1;fill:#f6e434;fill-opacity:1;fill-rule:nonzero;stroke:none;stroke-width:14.3293581;stroke-linecap:butt;stroke-linejoin:miter;stroke-miterlimit:10;stroke-dasharray:none;stroke-dashoffset:0;stroke-opacity:1;color-rendering:auto;image-rendering:auto;shape-rendering:auto;text-rendering:auto;enable-background:accumulate"
         d="m 0.04882812,-0.04882812 0,7.16796872 0.11328126,616.7617194 0.0234375,0.29687 C 9.5591489,736.81157 106.58954,829.63578 200.08398,894.77734 c 93.49445,65.14157 184.62305,102.79883 184.62305,102.79883 l -1.00976,-0.51367 c 5.21565,3.2011 10.75729,3.4375 14.52734,2.51953 2.46801,-0.60093 4.11419,-1.53104 5.20508,-2.23437 l 6.13672,-2.84375 4.51757,-2.11524 -0.041,0.0176 C 605.4963,904.23361 699.6831,809.17259 745.84766,735.57617 c 23.08227,-36.79821 34.13871,-68.19684 39.39453,-90.52344 5.25581,-22.32659 4.6914,-36.15039 4.6914,-36.15039 l 0.008,0.32813 0,-609.16406375 L 0.04882812,-0.04882812 Z"
         id="path4310" /><path
         inkscape:connector-curvature="0"
         style="color:#000000;font-style:normal;font-variant:normal;font-weight:normal;font-stretch:normal;font-size:medium;line-height:normal;font-family:sans-serif;text-indent:0;text-align:start;text-decoration:none;text-decoration-line:none;text-decoration-style:solid;text-decoration-color:#000000;letter-spacing:normal;word-spacing:normal;text-transform:none;direction:ltr;block-progression:tb;writing-mode:lr-tb;baseline-shift:baseline;text-anchor:start;white-space:normal;clip-rule:nonzero;display:inline;overflow:visible;visibility:visible;opacity:1;isolation:auto;mix-blend-mode:normal;color-interpolation:sRGB;color-interpolation-filters:linearRGB;solid-color:#000000;solid-opacity:1;fill:#325384;fill-opacity:1;fill-rule:nonzero;stroke:none;stroke-width:14.3293581;stroke-linecap:butt;stroke-linejoin:miter;stroke-miterlimit:10;stroke-dasharray:none;stroke-dashoffset:0;stroke-opacity:1;color-rendering:auto;image-rendering:auto;shape-rendering:auto;text-rendering:auto;enable-background:accumulate"
         d="m 14.380859,14.285156 761.230471,0.107422 0,595.001952 0.008,0.16602 c 0,0 0.59193,11.32527 -4.32422,32.20898 -4.91615,20.88371 -15.35758,50.75648 -37.58594,86.19336 -44.45672,70.87376 -136.13723,164.14609 -325.66015,251.42969 l -0.0195,0.008 -4.51563,2.11523 -7.14258,3.31055 -0.6875,0.55469 c 0,0 -0.0595,0.0869 -0.84961,0.2793 -0.79012,0.19238 -1.61968,0.42979 -3.64062,-0.81055 l -0.48438,-0.29688 -0.52539,-0.21679 c 0,0 -89.8717,-37.19066 -181.9082,-101.31641 C 116.29067,818.92986 23.321939,728.1318 14.490234,623.16406 L 14.380859,14.285156 Z"
         id="path26" /><path
         id="path28"
         d="m 782.78537,207.78889 -775.5623972,0 0,-20.71915 775.5623972,0 0,20.71915 z"
         inkscape:connector-curvature="0"
         style="fill:#f6e434" /></g><g
       transform="translate(-6.0541904,0)"
       id="g4298"><path
         inkscape:connector-curvature="0"
         style="fill:#f6e533"
         d="m 604.68164,45.833045 0,107.742185 32.20313,0 0,-40.5664 21,0 c 14.55844,0 25.68882,-0.51247 33.37304,-1.54297 5.64326,-0.83202 11.21814,-2.53638 16.68555,-5.11133 5.47541,-2.56179 9.99199,-6.11125 13.54102,-10.628907 3.56101,-4.505819 5.34179,-10.079742 5.34179,-16.707031 0,-8.587085 -3.08521,-15.59185 -9.24805,-20.998047 -6.17082,-5.444314 -13.8159,-8.967964 -22.96289,-10.578125 -5.94701,-1.076507 -18.69626,-1.609375 -38.28515,-1.609375 l -51.64844,0 z m 32.20313,18.208985 15.57812,0 c 5.80846,0 10.64206,0.06053 14.50781,0.183593 3.86576,0.123063 6.76227,0.308874 8.69532,0.556641 2.6138,0.320061 4.99996,0.882767 7.16015,1.685547 2.16019,0.80278 4.09412,1.846054 5.80469,3.126953 0.85295,0.637492 1.60046,1.318933 2.24023,2.044922 0.63978,0.725989 1.17305,1.496841 1.59961,2.310547 0.42656,0.813706 0.74569,1.66967 0.95899,2.570312 0.2133,0.900643 0.32031,1.845233 0.32031,2.832032 0,1.601616 -0.30429,3.100456 -0.91211,4.501953 -0.60782,1.401497 -1.51949,2.706095 -2.73047,3.916015 -1.22564,1.209264 -2.67957,2.258432 -4.36133,3.146485 -1.68175,0.888053 -3.59044,1.613868 -5.72265,2.175781 -2.15153,0.568485 -5.35134,0.992955 -9.59961,1.275391 -4.24827,0.282435 -9.54648,0.423828 -15.89649,0.423828 l -17.64257,0 0,-30.75 z"
         id="path4274" /><path
         inkscape:connector-curvature="0"
         style="fill:#f6e533"
         d="m 471.39453,45.833044 -61.35742,107.742186 34.52539,0 13.10156,-24.48633 64.01367,0 13.83399,24.48633 34.66992,0 -64.29687,-107.742186 -34.49024,0 z m 17.41016,25.066407 22.26562,39.966789 -43.6582,0 21.39258,-39.966789 z"
         id="path4270" /><path
         inkscape:connector-curvature="0"
         style="fill:#f6e533"
         d="m 355.39529,94.060033 c -7.49371,-2.686668 -19.04535,-5.270812 -34.66291,-7.744544 -15.60957,-2.50265 -25.45197,-4.915919 -29.49524,-7.217463 -3.17734,-1.821781 -4.77067,-4.002399 -4.77067,-6.566826 0,-2.80628 1.68659,-5.035531 5.07974,-6.715355 5.26092,-2.609118 12.5508,-3.913019 21.82435,-3.913019 9.02043,0 15.77876,1.223722 20.27498,3.669851 4.49889,2.429043 7.43909,6.431442 8.80994,11.999311 l 32.20897,-0.775506 c -0.51157,-9.982995 -5.81112,-17.96282 -15.87868,-23.951302 -10.08753,-5.976653 -25.0976,-8.968266 -45.06484,-8.968266 -12.20575,0 -22.64766,1.25001 -31.28041,3.746088 -8.63542,2.506592 -15.24054,6.151471 -19.83136,10.91886 -4.60813,4.797621 -6.89288,9.938305 -6.89288,15.424681 0,8.529252 4.87724,15.773003 14.63705,21.70365 6.93684,4.199559 18.99206,7.761627 36.20561,10.661237 13.36612,2.23056 21.94292,3.7934 25.69044,4.68589 5.49938,1.3039 9.3375,2.8536 11.5543,4.63069 2.19949,1.77709 3.30256,3.95377 3.30256,6.49059 0,3.96691 -2.63645,7.40148 -7.89337,10.36286 -5.26092,2.95744 -13.07436,4.41907 -23.43766,4.41907 -9.79978,0 -17.57991,-1.64827 -23.34175,-4.95535 -5.76849,-3.32153 -9.59861,-8.5253 -11.47703,-15.60213 l -31.3297,2.14645 c 2.0969,12.07817 8.55548,21.25543 19.36108,27.58303 10.80693,6.28686 26.29127,9.43883 46.45434,9.43883 13.84971,0 25.42533,-1.30916 34.71087,-3.94719 9.28421,-2.60255 16.46218,-6.63124 21.53259,-12.01509 5.08241,-5.39173 7.62294,-11.19357 7.62294,-17.36213 0,-6.81919 -2.12222,-12.54742 -6.34801,-17.19388 -4.22312,-4.62938 -10.08486,-8.2874 -17.56525,-10.953037"
         id="path4268" /><path
         inkscape:connector-curvature="0"
         style="fill:#f6e533"
         d="m 170.16142,104.52608 c 0,8.53319 -0.4716,14.64391 -1.41614,18.30194 -0.93788,3.69482 -3.73154,6.79159 -8.35299,9.32447 -4.64943,2.53288 -11.521,3.79078 -20.64268,3.79078 -8.9698,0 -16.04253,-1.33151 -21.22885,-4.02606 -5.18098,-2.66433 -8.4529,-6.20668 -9.82908,-10.61129 -0.798,-2.7445 -1.19766,-8.7619 -1.19766,-18.02591 l 0,-58.427143 -32.200975,0 0,57.530713 c 0,12.0716 1.043124,21.1976 3.154685,27.37141 1.453447,4.17459 4.458925,8.15201 9.013768,11.97434 4.568166,3.79078 10.78295,6.86914 18.660342,9.24429 7.84941,2.3883 19.39838,3.58179 34.61095,3.58179 12.60409,0 22.82884,-1.09623 30.66759,-3.28079 7.81211,-2.19244 14.06819,-5.11439 18.74027,-8.7895 4.66142,-3.67905 7.87739,-8.17699 9.61726,-13.54375 1.74121,-5.33785 2.60449,-14.48488 2.60449,-27.43714 l 0,-56.650048 -32.19965,0 -10e-4,59.671898 z"
         id="path32" /></g><g
       transform="translate(1.1013513,0)"
       id="g4257"><path
         style="fill:#d32240"
         inkscape:connector-curvature="0"
         d="M 729.72604,569.46488 397.87923,896.87559 c -2.1875,2.15827 -5.7645,2.15827 -7.95199,0 L 58.083087,569.46488 c -2.187497,-2.15828 -2.187497,-5.68749 0,-7.84576 L 389.92724,234.20841 c 2.18749,-2.15827 5.76449,-2.15827 7.95199,0 l 331.84681,327.41071 c 2.18617,2.15827 2.18617,5.68748 0,7.84576"
         id="path36" /><g
         id="g4250"><path
           id="path40"
           d="m 354.25797,299.30398 40.11034,-40.42226 40.54197,41.32921 0,529.99388 -40.96961,39.82289 -39.81592,-39.74271 0.13322,-530.98101 z"
           inkscape:connector-curvature="0"
           style="fill:#f6e533" /><path
           id="path44"
           d="m 88.325837,560.96231 69.881343,-68.43249 c 0,0 3.82213,-2.05312 3.82213,2.98241 l 10e-4,138.42124 c 0,0 -1.08842,5.19589 -6.05358,2.04392 L 87.336001,568.78966 c 0,-10e-4 -3.902059,-3.77632 0.989836,-7.82735"
           inkscape:connector-curvature="0"
           style="fill:#f6e533" /><path
           id="path48"
           d="m 701.68331,560.40604 -69.88135,-68.43248 c 0,0 -3.82213,-2.05049 -3.82213,2.98504 l -10e-4,138.42123 c 0,0 1.08842,5.19458 6.05359,2.04392 l 68.64105,-67.18773 c 0,-0.001 3.90206,-3.77763 -0.98983,-7.82998"
           inkscape:connector-curvature="0"
           style="fill:#f6e533" /><path
           id="path52"
           d="m 500.05574,362.25219 54.40101,52.16657 c 0,0 7.00079,5.34836 7.12735,11.61024 l 0,278.87324 -61.52836,58.92662 0,-401.57667 z"
           inkscape:connector-curvature="0"
           style="fill:#f6e533" /><path
           id="path56"
           d="m 286.63233,362.25219 -54.40101,52.16657 c 0,0 -7.00212,5.34836 -7.12735,11.61024 l 0,278.87324 61.52836,58.92662 0,-401.57667 z"
           inkscape:connector-curvature="0"
           style="fill:#f6e533" /></g></g></g></svg>