<?xml version="1.0" encoding="UTF-8" standalone="no"?>
<svg
   viewBox="0 0 575.83298 700.00025"
   version="1.1"
   id="svg861"
   sodipodi:docname="logo_pr.svg"
   width="575.83295"
   height="700.00024"
   inkscape:version="1.1.1 (c3084ef, 2021-09-22)"
   xmlns:inkscape="http://www.inkscape.org/namespaces/inkscape"
   xmlns:sodipodi="http://sodipodi.sourceforge.net/DTD/sodipodi-0.dtd"
   xmlns="http://www.w3.org/2000/svg"
   xmlns:svg="http://www.w3.org/2000/svg">
  <sodipodi:namedview
     id="namedview863"
     pagecolor="#ffffff"
     bordercolor="#666666"
     borderopacity="1.0"
     inkscape:pageshadow="2"
     inkscape:pageopacity="0.0"
     inkscape:pagecheckerboard="0"
     showgrid="false"
     inkscape:zoom="0.54656195"
     inkscape:cx="238.76525"
     inkscape:cy="558.03373"
     inkscape:window-width="1440"
     inkscape:window-height="900"
     inkscape:window-x="0"
     inkscape:window-y="0"
     inkscape:window-maximized="0"
     inkscape:current-layer="svg861" />
  <defs
     id="defs826">
    <style
       id="style824">.cls-1{fill:#fff;}</style>
  </defs>
  <g
     id="g2689"
     transform="matrix(0.9019535,0,0,0.92635298,367.61173,605.52215)"
     style="fill:#000000">
    <g
       id="g2665"
       style="fill:#000000">
      <path
         d="m -407.57282,-83.246146 v 79.663637 h 17.65042 v -24.884668 h 17.89319 c 20.36032,0 28.87714,-3.753955 28.87714,-26.931685 0,-21.595052 -6.48932,-27.847284 -28.87714,-27.847284 z m 46.75065,27.847284 c 0,9.895007 -1.35823,11.301106 -11.20704,11.477685 h -17.89319 v -23.877509 l 18.40499,-0.0065 c 9.71757,0 10.69524,2.347857 10.69524,12.406364"
         style="fill:#000000;fill-opacity:1;fill-rule:nonzero;stroke:none;stroke-width:6.55073"
         id="path162" />
      <path
         d="m -308.65304,-28.994954 h 21.25924 c 5.62976,0.08502 8.3659,3.256916 8.3659,9.639947 v 15.77446 h 17.6373 v -15.77446 c 0,-8.704728 -1.67318,-15.16624 -9.01549,-17.736456 9.6454,-3.734336 9.6454,-12.838004 9.6454,-21.686612 0,-17.625277 -6.46308,-24.041009 -24.75652,-24.466109 h -40.79282 v 79.663637 h 17.65699 z m 0,-38.80831 h 19.12019 c 9.86849,0 11.12174,1.268759 11.12174,11.386126 0,10.195846 -1.81754,11.981264 -12.15189,11.981264 h -18.09004 z"
         style="fill:#000000;fill-opacity:1;fill-rule:nonzero;stroke:none;stroke-width:6.55073"
         id="path164" />
      <path
         d="m -210.12236,-2.9690578 c 23.2605,0 34.32974,-4.5845341 34.32974,-30.7183402 v -20.685993 c 0,-19.986214 -5.14421,-29.508442 -34.32974,-29.508442 -25.08459,0 -33.98198,4.479894 -33.98198,29.508442 v 20.685993 c 0,26.4542657 10.0194,30.7183402 33.98198,30.7183402 M -226.4736,-54.340691 c 0.2887,-11.150686 1.0039,-14.087142 16.35124,-14.087142 7.71632,0 11.80413,0.41202 14.10065,2.766417 1.90284,1.935837 2.70334,5.402033 2.56555,11.288025 v 20.685993 c 0,13.485463 -3.34637,15.27742 -16.6662,15.27742 -14.29093,0 -16.35124,-0.941759 -16.35124,-15.27742 z"
         style="fill:#000000;fill-opacity:1;fill-rule:nonzero;stroke:none;stroke-width:6.55073"
         id="path166" />
      <path
         d="m -116.08564,-3.581855 25.780109,-79.663637 h -18.313129 l -19.67136,61.71136 -19.6648,-61.71136 h -18.0966 l 25.57014,79.663637 z"
         style="fill:#000000;fill-opacity:1;fill-rule:nonzero;stroke:none;stroke-width:6.55073"
         id="path172" />
      <path
         d="m -22.817935,-19.020159 h -38.338813 v -17.553337 h 36.075098 v -14.930801 h -36.075098 v -16.297659 h 38.023862 v -15.44092 h -55.667721 v 79.6636369 h 55.982672 z"
         style="fill:#000000;fill-opacity:1;fill-rule:nonzero;stroke:none;stroke-width:6.55073"
         id="path174" />
      <path
         d="M 53.843944,-22.90426 22.840882,-83.248762 H -3.9037703 V -3.5785851 H 13.772896 L 12.611512,-64.119286 43.50959,-3.5785851 H 70.372349 V -83.248762 H 52.689121 Z"
         style="fill:#000000;fill-opacity:1;fill-rule:nonzero;stroke:none;stroke-width:6.55073"
         id="path176" />
      <path
         d="m 137.86979,-28.347495 c 0,9.489528 -3.79255,9.940787 -15.81977,9.940787 -14.86178,0 -15.95099,-2.347857 -16.05597,-16.925498 v -16.990898 c 0,-14.289881 1.80441,-16.101459 16.05597,-16.101459 13.45763,0 14.99958,0.830579 14.99958,8.11613 v 5.617852 h 17.66354 v -5.696332 c -1.10233,-23.49165 -13.66759,-23.49165 -32.66312,-23.49165 -21.8629,0 -33.719517,5.048874 -33.719517,31.555459 v 17.625277 c 0.321513,21.549272 4.82926,31.810519 29.723567,31.810519 1.28606,0 2.64429,-0.02616 4.05501,-0.08502 l 3.07078,-0.1307999 c 17.13206,-0.6605391 30.67498,-1.1837384 30.35347,-24.4268681 v -6.448432 h -17.66354 z"
         style="fill:#000000;fill-opacity:1;fill-rule:nonzero;stroke:none;stroke-width:6.55073"
         id="path182" />
      <path
         d="m 189.72594,-36.574804 h 36.08822 v -14.930801 h -36.08822 v -16.297659 h 38.03042 v -15.44092 h -55.66772 v 79.663637 h 55.97611 v -15.44092 h -38.33881 z"
         style="fill:#000000;fill-opacity:1;fill-rule:nonzero;stroke:none;stroke-width:6.55073"
         id="path188" />
    </g>
    <g
       id="g2672"
       transform="translate(113.48991)"
       style="fill:#000000">
      <path
         d="m -342.02546,46.159358 c 0,-17.612197 -6.46307,-24.027928 -24.74996,-24.466108 h -40.79937 v 79.67018 h 17.65698 V 75.94902 h 21.25268 c 5.6232,0.09156 8.37247,3.237295 8.37247,9.646487 v 15.767923 h 17.64386 V 85.595507 c 0,-8.711269 -1.66662,-15.17932 -9.00237,-17.762617 9.62571,-3.721255 9.62571,-12.824923 9.62571,-21.673532 m -29.79575,14.361822 h -18.0966 V 37.14071 h 19.1202 c 9.86848,0 11.12173,1.281838 11.12173,11.379585 0,10.189307 -1.81097,12.000885 -12.14533,12.000885"
         style="fill:#000000;fill-opacity:1;fill-rule:nonzero;stroke:none;stroke-width:6.55073"
         id="path194" />
      <path
         d="m -273.3791,77.732475 c 0,6.814671 -2.09312,8.809369 -15.91819,8.809369 -14.3828,0 -15.76071,-2.419797 -15.76071,-8.809369 V 21.691288 h -17.64386 v 56.041187 c 0,22.471415 14.47466,24.256825 33.40457,24.256825 19.02833,0 33.58173,-1.78541 33.58173,-24.256825 V 21.691288 h -17.66354 z"
         style="fill:#000000;fill-opacity:1;fill-rule:nonzero;stroke:none;stroke-width:6.55073"
         id="path196" />
      <path
         d="m -205.26882,71.753615 h 19.43515 v 1.340698 c 0,13.452763 -3.26107,13.452763 -16.96803,13.452763 -16.01005,0 -17.51263,-1.386478 -17.69635,-16.304199 V 52.62414 c 0.18372,-14.074062 1.29918,-16.101459 17.69635,-16.101459 h 0.69552 c 12.88677,0 16.27251,0.385859 16.27251,9.744587 v 1.432258 h 17.51262 l 0.0328,-1.393018 c 0.19028,-8.972868 -1.61413,-15.26434 -5.51822,-19.221035 -5.46572,-5.565533 -14.23844,-6.010252 -25.13708,-6.010252 h -3.85816 c -23.94946,0 -35.34677,4.721874 -35.34677,31.535839 v 17.631817 c 0,27.317544 10.41965,31.745123 35.34677,31.745123 28.13569,0 34.60532,-5.408577 34.60532,-28.893687 v -15.33628 h -37.07244 z"
         style="fill:#000000;fill-opacity:1;fill-rule:nonzero;stroke:none;stroke-width:6.55073"
         id="path198" />
      <path
         d="m -94.073798,60.024794 c 6.443388,-3.093416 7.880355,-8.894388 7.880355,-16.932038 0,-17.991516 -8.497135,-21.398852 -24.146297,-21.398852 h -39.76922 v 79.670176 h 41.1012 c 15.616358,0 24.658097,-3.740875 24.658097,-22.83765 0,-8.024569 -1.286052,-15.682899 -9.724135,-18.501636 m -38.378182,-22.88997 h 19.42859 c 6.96174,0 9.15984,0.34008 9.15984,7.39019 0,7.76951 -1.45665,9.332568 -8.73991,9.332568 h -19.84852 z m 18.82493,48.788337 h -18.82493 V 67.879324 h 21.28549 c 7.70976,0 9.17297,1.491118 9.17297,9.430668 0,8.188069 -2.99204,8.613169 -11.63353,8.613169"
         style="fill:#000000;fill-opacity:1;fill-rule:nonzero;stroke:none;stroke-width:6.55073"
         id="path200" />
      <path
         d="M -37.238787,53.252633 -54.849839,21.690634 h -20.19628 l 28.923068,49.141496 v 30.53522 h 17.656982 V 70.83213 L 1.0869025,21.690634 H -19.325907 Z"
         style="fill:#000000;fill-opacity:1;fill-rule:nonzero;stroke:none;stroke-width:6.55073"
         id="path206" />
    </g>
  </g>
  <g
     transform="matrix(10.195718,0,0,-10.162306,-4680.9378,8209.4458)"
     id="g5081"
     style="fill:#000000">
    <path
       d="m 480.723,770.5024 c -1.21,-1.359 -0.912,-3.952 0.659,-5.798 1.576,-1.843 3.828,-2.249 5.038,-0.897 1.206,1.359 0.911,3.951 -0.667,5.796 -1.57,1.85 -3.826,2.249 -5.03,0.899"
       style="fill:#000000;fill-opacity:1;fill-rule:nonzero;stroke:none"
       id="path212" />
    <path
       d="m 515.3107,795.9098 c 0,0 -3.216,0.385 -7.136,-1.03 -3.44,-1.249 -5.558,-3.193 -6.022,-3.647 0.721,1.631 1.228,3.294 1.539,4.714 0.14,0.245 1.503,2.38 1.882,5.675 0.41,3.562 0.065,5.95 0.065,5.95 -0.07,0.315 -0.26,0.35 -0.423,0.078 0,0 -1.335,-2.235 -1.935,-5.773 -0.518,-3.055 -0.192,-5.272 -0.095,-5.817 -0.588,-2.37 -1.702,-5.154 -3.961,-7.737 0.011,0.069 0.531,3.52 -0.504,8.029 -1.056,4.558 -3.07,7.487 -3.07,7.487 -0.178,0.26 -0.366,0.211 -0.418,-0.109 0,0 -0.543,-3.396 0.509,-7.95 1.053,-4.545 3.197,-7.733 3.214,-7.757 -1.183,-1.293 -2.659,-2.529 -4.515,-3.628 -0.066,0.475 -0.627,4.131 -2.823,8.042 -2.357,4.192 -5.24,6.405 -5.24,6.405 -0.244,0.186 -0.413,0.076 -0.374,-0.246 0,0 0.424,-3.665 2.777,-7.855 2.189,-3.882 4.977,-6.188 5.377,-6.508 -1.055,-0.606 -2.224,-1.17 -3.53,-1.677 -0.948,-0.367 -1.859,-0.773 -2.737,-1.209 l 0.033,0.018 c 0,0 -1.333,4.119 -4.516,7.921 -3.185,3.79 -6.363,5.184 -6.363,5.184 -0.277,0.121 -0.421,-0.029 -0.321,-0.335 0,0 1.299,-3.987 4.481,-7.786 3.122,-3.723 6.242,-5.128 6.349,-5.176 -2.332,-1.192 -4.419,-2.604 -6.275,-4.125 l 0.03,0.032 c 0,0 -2.102,4.052 -6.027,7.296 -3.917,3.234 -7.466,3.987 -7.466,3.987 -0.292,0.064 -0.411,-0.117 -0.263,-0.4 0,0 2.015,-3.868 5.936,-7.106 3.653,-3.017 7.078,-3.918 7.525,-4.027 -1.847,-1.54 -3.464,-3.179 -4.857,-4.808 l 0.064,0.078 c 0,0 -2.953,2.987 -7.827,4.592 -4.873,1.609 -8.968,0.999 -8.968,0.999 -0.294,-0.043 -0.357,-0.259 -0.138,-0.479 0,0 2.878,-2.897 7.748,-4.502 4.879,-1.606 8.844,-1.014 8.844,-1.014 l 0.24,0.28 c -4.991,-5.845 -7.154,-11.485 -7.154,-11.485 h 3.026 c 1.656,0 2.237,1.464 2.288,1.61 1.086,3.103 4.172,10.058 11.314,15.259 0.135,-0.307 1.886,-4.186 5.436,-7.615 3.691,-3.568 7.182,-4.628 7.182,-4.628 0.287,-0.087 0.417,0.081 0.288,0.375 0,0 -1.753,4.028 -5.449,7.6 -3.492,3.373 -6.681,4.467 -7.019,4.577 1.582,1.111 3.35,2.136 5.337,3.014 0.32,0.141 0.49,0.224 0.49,0.224 0,0 2.876,-3.029 7.193,-4.811 4.316,-1.78 7.699,-1.407 7.699,-1.407 0.297,0.033 0.367,0.245 0.155,0.474 0,0 -2.693,2.899 -7.014,4.686 -4.318,1.771 -7.439,1.344 -7.439,1.344 l -0.054,-0.027 c 2.377,1.181 4.26,2.604 5.764,4.139 l -0.041,-0.046 c 0,0 3.45,-1.831 7.8,-1.993 4.342,-0.15 7.275,1.312 7.275,1.312 0.272,0.135 0.275,0.364 0.007,0.508 0,0 -3.137,1.692 -7.481,1.845 -4.013,0.139 -6.82,-1.087 -7.223,-1.276 1.486,1.596 2.571,3.301 3.377,4.979 l -0.008,-0.022 c 0,0 3.553,-0.34 7.475,1.075 3.917,1.414 6.118,3.747 6.118,3.747 0.213,0.226 0.146,0.44 -0.151,0.476"
       style="fill:#000000;fill-opacity:1;fill-rule:nonzero;stroke:none"
       id="path214" />
  </g>
</svg>
