<svg width="200" height="200" viewBox="0 0 200 200" xmlns="http://www.w3.org/2000/svg">
  <defs>
    <clipPath id="t2-hex"><polygon points="100,10 175,50 175,150 100,190 25,150 25,50"/></clipPath>
    <clipPath id="t2-safe"><polygon points="100,36 150,64 150,136 100,164 50,136 50,64"/></clipPath>
  </defs>
  <g clip-path="url(#t2-hex)">
    <rect width="200" height="200" fill="#1A1A1A"/>
    <rect x="0" y="0" width="100" height="200" fill="#B8860B"/>
  </g>
  <g clip-path="url(#t2-safe)">
    <rect x="96" y="64" width="8" height="72" fill="#FFFFFF" opacity="0.8"/>
  </g>
  <polygon points="100,10 175,50 175,150 100,190 25,150 25,50" fill="none" stroke="#000000" stroke-width="8"/>
  <polygon points="100,22 163.5,54 163.5,146 100,178 36.5,146 36.5,54" fill="none" stroke="#B8860B" stroke-width="4"/>
  <polygon points="100,30 156,58 156,142 100,170 44,142 44,58" fill="none" stroke="#FFFFFF" stroke-width="2"/>
  <text x="50%" y="112" text-anchor="middle" dominant-baseline="middle" fill="#FFFFFF" stroke="#000000" stroke-width="7" paint-order="stroke" font-family="Arial Black, Arial, sans-serif" font-weight="900" font-size="44" textLength="84" lengthAdjust="spacingAndGlyphs">SCG</text>
  <text x="50%" y="112" text-anchor="middle" dominant-baseline="middle" fill="#FFFFFF" stroke="#B8860B" stroke-width="2" paint-order="stroke" font-family="Arial Black, Arial, sans-serif" font-weight="900" font-size="44" textLength="84" lengthAdjust="spacingAndGlyphs">SCG</text>
</svg>