<?xml version="1.0" encoding="UTF-8" standalone="no"?>
<svg
   xmlns:dc="http://purl.org/dc/elements/1.1/"
   xmlns:cc="http://creativecommons.org/ns#"
   xmlns:rdf="http://www.w3.org/1999/02/22-rdf-syntax-ns#"
   xmlns:svg="http://www.w3.org/2000/svg"
   xmlns="http://www.w3.org/2000/svg"
   viewBox="0 0 600 470.79226"
   height="470.79227"
   width="600"
   xml:space="preserve"
   id="svg833"
   version="1.1"><metadata
     id="metadata839"><rdf:RDF><cc:Work
         rdf:about=""><dc:format>image/svg+xml</dc:format><dc:type
           rdf:resource="http://purl.org/dc/dcmitype/StillImage" /><dc:title></dc:title></cc:Work></rdf:RDF></metadata><defs
     id="defs837" /><g
     transform="matrix(1.3333333,0,0,-1.3333333,-16.720959,785.43264)"
     id="g841"><g
       id="g2189"><path
         id="path935"
         style="fill:#db0d28;fill-opacity:1;fill-rule:nonzero;stroke:none;stroke-width:8.5171"
         d="m 461.58583,326.0307 c 2.42737,14.83679 -8.8152,36.07843 -8.8152,36.07843 -34.37501,25.2532 -49.73134,49.38214 -49.73134,49.38214 5.24653,32.91859 -12.54568,55.00342 -12.54568,55.00342 -2.39331,21.73564 -11.44698,41.70823 -11.44698,41.70823 -2.82768,27.9446 -21.23313,40.00481 -21.23313,40.00481 5.14433,14.3428 -5.38281,35.58444 -5.38281,35.58444 -28.9411,-21.6675 -33.59995,-7.31619 -54.67125,-16.50613 -16.61686,-2.32517 -26.32635,-15.16896 -26.32635,-15.16896 l -0.51955,-0.27254 c -0.19589,4.74402 -0.36623,7.40987 -0.36623,7.40987 -64.01451,32.07539 -128.54857,29.78429 -128.54857,29.78429 0,0 -64.542571,2.2911 -128.557083,-29.78429 0,0 -7.2395332,-112.90266 19.325297,-181.5164 11.745079,-30.34642 22.962097,-49.60358 36.904587,-64.78105 -1.473458,-3.70494 -5.374289,-11.08926 -5.374289,-11.08926 10.757096,-16.80424 -0.689885,-46.80146 -0.689885,-46.80146 l 8.857783,-3.6879 c 13.976558,-8.1168 29.2903,-5.39984 29.2903,-5.39984 l 0.42586,0.9965 c 3.90934,-0.32365 12.23907,0.30661 12.23907,0.30661 l 0.87726,2.06966 c 6.16638,-0.41734 12.40941,0.28958 12.40941,0.28958 l 2.24,5.2806 5.54463,0.34068 c 0.82616,1.47346 2.79361,6.84775 3.14281,7.79315 1.10722,-0.68137 2.22296,-1.37125 3.36425,-2.06966 27.36544,16.83831 47.15918,28.43008 63.17132,42.90915 0.91133,-5.39133 -0.18738,-13.67846 -0.18738,-13.67846 15.72257,-9.44547 7.53764,-28.97517 7.53764,-28.97517 l 9.59877,0.82616 c 7.46949,-4.07969 19.99814,-2.1889 19.99814,-2.1889 l 0.20441,0.48548 c 1.8397,0 8.30417,0.39178 8.30417,0.39178 l 0.51955,1.21795 6.21748,0.37475 1.23498,2.92136 3.57718,0.22145 c 12.66493,27.77426 -6.05566,38.76983 -14.4961,34.50276 l -4.64182,6.00456 -0.17886,24.59738 7.23102,-0.009 c 10.01611,-2.83619 25.04878,-4.04562 25.04878,-4.04562 24.18005,-13.85732 44.55295,-40.60952 41.55493,-59.4238 16.81275,-10.23755 17.2386,-19.75966 16.1399,-25.36391 l 4.20745,-0.33217 c 10.16941,-9.17292 28.19159,-4.19041 32.61197,-3.21946 l 0.27254,1.07315 c 5.40836,0.4003 12.0517,2.16334 12.0517,2.16334 l 0.52806,2.09521 c 3.90935,0.51954 9.01109,1.81414 9.01109,1.81414 l 1.19239,4.67589 5.20395,1.14129 c 10.83375,30.82338 -14.57276,56.36616 -28.84741,36.15508 l -2.40183,-1.48197 -11.48104,7.39284 c -13.89139,12.59679 -17.35785,44.7829 -17.35785,44.7829 9.85428,4.90585 17.11085,11.93246 17.11085,11.93246 l 0.23848,-11.09778 17.37488,24.54628 c 33.04634,-2.77658 43.10503,-22.74066 43.10503,-22.74066 l 6.14083,2.30814 c 6.1238,-0.95392 3.25353,-6.20045 3.25353,-6.20045 -12.92895,-3.986 -12.47755,-22.37442 -12.47755,-22.37442 l 3.4835,-1.96745 0.36623,-6.65185 c 4.40334,-2.44441 7.64836,-3.10023 7.64836,-3.10023 1.71193,-3.02357 4.25003,-6.84774 4.25003,-6.84774 8.06569,0.0426 13.87435,2.83619 13.87435,2.83619 l 3.34722,-1.97597 c 22.87693,12.7501 16.04622,29.34992 16.04622,29.34992" /><path
         id="path939"
         style="fill:#000000;fill-opacity:1;fill-rule:nonzero;stroke:none;stroke-width:8.5171"
         d="m 276.79971,466.88733 c -0.55361,0.38327 -1.67787,1.14981 -2.5381,1.76304 0,0 -1.77155,2.24851 -2.68288,3.986 0.80912,0.11072 1.57566,0.25551 2.26555,0.45141 0.88578,-0.39179 1.87376,-0.88578 2.68288,-1.38829 0.22145,-1.09019 0.30662,-2.85323 0.27255,-4.81216 m 179.2253,-141.19646 c 2.80213,15.40743 -7.50356,33.21669 -7.50356,33.21669 -33.86398,24.12042 -51.31552,51.7584 -51.31552,51.7584 5.34022,29.50323 -8.99406,49.95279 -11.66842,53.4448 -2.42738,17.95404 -6.79665,32.0328 -11.7025,42.93469 -1.47346,13.27816 -7.14584,28.20863 -22.55327,39.63858 2.28258,4.76105 5.16987,12.72454 -1.73749,29.43509 -24.75921,-17.80074 -34.89455,-5.1784 -50.53195,-13.72105 -3.49201,-0.3492 -11.42143,-1.89079 -18.39693,-8.78113 -5.91087,-5.39132 -10.67192,-10.06721 -14.52165,-14.09579 -0.45141,-0.38327 -0.88578,-0.74951 -1.32867,-1.11574 -0.25551,10.22051 -0.63878,16.35283 -0.63878,16.35283 -60.81209,30.87448 -122.12668,28.66855 -122.12668,28.66855 0,0 -61.314589,2.20593 -122.126671,-28.66855 0,0 -6.881816,-108.70373 18.34583,-174.75383 25.236162,-66.05862 47.87461,-77.56522 103.780841,-112.40867 55.89772,34.84345 78.53617,46.35005 103.77233,112.40867 9.80318,25.67053 14.76013,57.78851 17.15344,87.46208 1.78007,-1.43087 4.66737,-3.08319 8.04865,-4.00303 0,0 1.10723,-3.97749 3.14281,-6.73703 -1.92486,-0.20441 -3.92638,-0.36623 -5.979,-0.47696 -2.83619,-27.18657 -7.94645,-55.36965 -16.90644,-78.51061 -12.86082,-33.2252 -25.09137,-53.15521 -40.95873,-68.99701 0.77506,-3.81566 1.31164,-9.1644 0.67286,-15.9866 12.57975,-9.68394 7.68242,-26.29228 7.68242,-26.29228 l 4.35224,1.13277 c 5.40835,-3.72197 15.70552,-2.42737 15.70552,-2.42737 l 0.41734,0.9965 c 3.32167,-0.61323 8.09125,-0.1022 8.09125,-0.1022 l 0.63878,1.49901 c 1.993,-0.20441 6.08972,0.11072 6.08972,0.11072 0.27255,0.27255 1.20943,2.97247 1.20943,2.97247 1.58418,-0.0681 3.60273,0.17885 3.60273,0.17885 3.50053,6.95847 3.84122,17.27268 -1.48197,22.50218 -5.32319,5.22098 -10.47603,-0.84319 -10.47603,-0.84319 l -9.01109,11.62584 -0.2981,32.18611 c 3.26205,-0.19589 9.33474,-0.18738 12.04318,-0.17034 10.75709,-2.73399 21.57381,-4.32669 32.07539,-4.67589 -0.0766,-0.7495 -0.16183,-1.49901 -0.27255,-2.24851 9.63284,-4.67589 42.20223,-32.49273 41.52086,-59.30456 16.67648,-10.39938 16.02918,-22.84286 16.02918,-22.84286 l 1.43939,-0.11072 -0.009,-0.42585 c 0,0 5.95345,-8.04015 25.21061,-3.38981 l 0.45141,1.81414 c 0,0 6.09824,-0.14479 11.86431,1.45643 0,0 0.52806,2.11224 0.62175,2.52106 0,0 5.74904,0.41733 8.91741,1.40532 0,0 0.8006,2.92136 1.0476,4.78661 0,0 3.49201,0.47696 5.3317,1.03908 0,0 4.47148,13.26964 -1.86524,25.10841 -6.33672,11.83877 -15.83329,8.83223 -18.89944,1.68639 0,0 -2.39331,-0.0426 -5.11026,-3.74753 l -0.11924,-0.12775 c 0,0 -10.68896,6.05565 -15.90994,9.99055 -4.93992,3.71346 -15.10082,20.13442 -19.57229,52.05651 11.09777,5.34022 20.54324,12.76713 27.97015,22.09335 v -8.19345 l 10.18645,14.46204 c 37.27934,-3.33019 47.29544,-21.80378 47.29544,-21.80378 9.00258,4.76106 19.00165,-5.83421 10.34828,-16.20803 l -1.20943,0.42585 c -8.1679,-2.6403 -8.21048,-14.11283 -8.21048,-14.11283 0.86874,-0.5451 3.21094,-1.72897 3.21094,-1.72897 -0.28958,-2.10373 0.0852,-6.16638 0.0852,-6.16638 3.09171,-1.60122 6.1749,-2.11224 6.1749,-2.11224 0.68137,-1.89932 3.25353,-5.71498 3.25353,-5.71498 6.62631,0.26403 11.29368,3.33871 11.29368,3.33871 0.34068,-0.35772 2.98098,-1.79711 2.98098,-1.79711 16.71055,10.8082 10.38234,22.09335 10.38234,22.09335" /></g><path
       d="m 73.371369,309.0919 c -1.975967,-4.32669 -3.721972,-7.47801 -3.721972,-7.47801 1.541595,-1.75453 8.695957,-15.85032 0.860227,-43.47127 l 4.684404,-2.26555 c 7.401359,-6.71999 23.166508,-4.90585 23.166508,-4.90585 l 0.706919,1.67787 c 6.157865,-1.14981 11.949485,-0.34069 11.949485,-0.34069 l 1.13278,2.76806 c 6.3793,-1.05612 12.1539,-0.38327 12.1539,-0.38327 0.77505,1.1924 1.993,5.42539 1.993,5.42539 2.12076,-0.0341 5.77459,0.20441 5.77459,0.20441 0.87726,1.77156 1.56715,3.61125 2.07817,5.4765 -26.38597,16.17397 -45.31096,27.74019 -60.778011,43.29241"
       style="fill:#000000;fill-opacity:1;fill-rule:nonzero;stroke:none;stroke-width:8.5171"
       id="path943" /><g
       id="g2207"><path
         id="path947"
         style="fill:#ffffff;fill-opacity:1;fill-rule:nonzero;stroke:none;stroke-width:8.5171"
         d="m 345.9083,249.0174 c 0,0 4.3352,-3.02357 15.02416,-1.21795 3.32167,19.17199 -12.59679,39.75782 -15.02416,1.21795" /><path
         id="path951"
         style="fill:#ffffff;fill-opacity:1;fill-rule:nonzero;stroke:none;stroke-width:8.5171"
         d="m 366.87314,250.44912 c 0,0 4.23299,0.11072 6.3793,0.61323 2.9384,14.63238 -6.24303,29.63951 -11.19998,19.78522 6.31969,-9.27512 4.82068,-20.39845 4.82068,-20.39845" /><path
         id="path955"
         style="fill:#ffffff;fill-opacity:1;fill-rule:nonzero;stroke:none;stroke-width:8.5171"
         d="m 379.25444,254.50922 3.5346,0.48548 c 2.79361,14.04469 -5.68091,27.82536 -10.23755,21.25867 0,0 7.30767,-6.43892 6.70295,-21.74415" /><path
         id="path959"
         style="fill:#ffffff;fill-opacity:1;fill-rule:nonzero;stroke:none;stroke-width:8.5171"
         d="m 388.86599,260.76333 0.30661,0.0511 c 3.05764,13.72956 -5.56166,27.2973 -9.965,21.58233 9.87132,-5.6298 9.65839,-21.63343 9.65839,-21.63343" /><path
         id="path963"
         style="fill:#ffffff;fill-opacity:1;fill-rule:nonzero;stroke:none;stroke-width:8.5171"
         d="m 79.620364,259.38356 c 0,0 5.229499,-3.66235 14.887888,-3.09171 6.490028,18.09884 -7.478012,39.32344 -14.887888,3.09171" /><path
         id="path967"
         style="fill:#ffffff;fill-opacity:1;fill-rule:nonzero;stroke:none;stroke-width:8.5171"
         d="m 100.81091,257.93224 c 0,0 4.01155,-0.5025 6.41337,-0.30661 4.88881,12.37534 -1.95893,29.73319 -8.338239,20.56879 0,0 4.675889,-7.91238 1.924869,-20.26218" /><path
         id="path971"
         style="fill:#ffffff;fill-opacity:1;fill-rule:nonzero;stroke:none;stroke-width:8.5171"
         d="m 111.65147,279.76412 c 0,0 -0.009,-0.009 -0.009,-0.009 0,0 4.50555,-7.85277 2.01855,-19.35937 0,0 3.77308,-0.54509 6.81368,-0.37475 1.76304,4.08821 2.06966,9.03664 1.43939,13.30371 -3.56866,2.20592 -6.98402,4.34372 -10.2631,6.43892" /><path
         id="path975"
         style="fill:#ffffff;fill-opacity:1;fill-rule:nonzero;stroke:none;stroke-width:8.5171"
         d="m 127.60314,269.81785 c -0.009,-1.30311 -0.0852,-2.69992 -0.25551,-4.18189 h 1.00502 c 0.40882,1.00502 0.74098,2.0441 0.98798,3.10874 -0.57916,0.36624 -1.15833,0.71544 -1.73749,1.07315" /><path
         id="path979"
         style="fill:#ffffff;fill-opacity:1;fill-rule:nonzero;stroke:none;stroke-width:8.5171"
         d="m 76.173494,301.27235 c 4.096725,-9.23253 2.427373,-26.58186 2.427373,-26.58186 1.899313,4.87178 8.695958,14.30021 16.804236,7.88683 1.047603,1.21795 3.313151,3.3387 6.319687,3.69642 -8.900368,6.02159 -16.719065,11.93246 -23.80529,18.44804 -1.064638,-2.24852 -1.746006,-3.44943 -1.746006,-3.44943" /><path
         id="path983"
         style="fill:#ffffff;fill-opacity:1;fill-rule:nonzero;stroke:none;stroke-width:8.5171"
         d="m 344.566,476.47418 c 0,0 -8.93443,12.67344 -20.41548,12.88637 0,0 9.4625,45.15765 -14.72606,56.70684 0,0 -19.39344,-2.5892 -30.71266,-18.60986 0,0 7.95497,18.01366 33.00376,23.4135 25.30429,-12.68196 19.64894,-49.87613 18.0818,-57.99292 3.10874,-1.06464 10.32272,-4.70996 14.76864,-16.40393 m -28.53228,-0.67285 c -7.03512,12.74158 -14.58127,17.55374 -14.58127,17.55374 3.35574,-0.8943 5.93642,-2.24 7.92942,-3.79863 1.83969,4.0371 9.93945,24.69107 -7.26508,42.16815 0,0 -17.85184,-1.82265 -23.9586,-18.7802 0,0 -6.58372,1.80563 -5.26357,9.07071 0,0 0.35772,-5.47649 4.44593,-5.98752 0,0 4.15634,15.45002 25.78977,21.17351 23.10689,-20.33032 12.21352,-47.09104 10.04166,-51.77544 3.10874,-4.76958 2.86174,-9.62432 2.86174,-9.62432 m -25.90049,37.11751 -5.58722,-0.80912 c 1.03057,-1.21795 2.26555,-3.15985 2.23148,-5.43391 0,0 -2.35924,3.88379 -6.24303,4.84623 8.82371,15.21153 24.25669,12.92043 24.25669,12.92043 l -6.23451,-2.38478 c 0,0 0.11072,-3.43239 -8.42341,-9.13885 m 58.72539,28.30232 c 0.90281,-2.87878 0.61323,-5.39132 0.61323,-5.39132 -5.88531,10.03314 -12.94599,13.7977 -12.94599,13.7977 -4.64182,6.79664 -11.57473,7.17139 -11.57473,7.17139 7.28212,0.5451 11.83876,-3.10022 13.50811,-5.26356 6.81368,7.31618 7.95497,15.44149 7.95497,15.44149 0,0 -10.87633,-7.28211 -25.82384,-7.12881 -14.94751,0.15331 -16.85534,-1.50752 -19.85335,-3.21946 0,0 -2.24852,-1.53308 -5.10175,-3.86676 3.1854,1.12425 8.87482,2.70843 17.3834,3.5857 0,0 -14.40241,-2.57217 -26.12194,-12.21352 0,0 3.14281,6.64333 9.70949,11.93245 -3.21946,-0.75802 -7.83573,-2.55513 -12.03466,-6.77961 0,0 -23.63495,-19.7256 -28.25973,-31.72619 0,0 0.43437,-1.18388 1.78007,-2.58068 0.41734,0.15331 0.82616,0.28958 1.21795,0.41734 -0.74951,1.11574 -1.53308,2.60623 -1.53308,2.60623 6.14083,12.13686 21.15647,23.4135 21.15647,23.4135 -12.58827,-12.38386 -17.01716,-23.09837 -17.01716,-23.09837 0.62175,-0.80912 1.70342,-1.77156 2.36775,-2.33368 3.61125,-0.35772 5.21247,-2.52958 5.21247,-2.52958 -4.57368,1.84821 -8.66189,-0.62175 -8.66189,-0.62175 l -14.96454,-17.20454 c 1.76304,-1.06464 6.04714,-2.76806 6.04714,-2.76806 l 11.9069,2.60624 c 3.9349,6.30265 3.94342,9.53063 3.94342,9.53063 0.21292,-7.08623 -1.11574,-12.39238 -1.11574,-12.39238 -4.41186,-2.79361 -9.83725,-3.86676 -12.24759,-4.233 0.67285,-1.61825 2.32517,-5.50204 3.37277,-7.69094 0,0 5.23802,-4.36075 16.56576,-1.47345 0,0 7.86128,3.04912 12.86082,8.89185 -7.52912,-4.70144 -17.11937,-6.63482 -17.11937,-6.63482 12.5031,4.57368 17.33229,8.83223 19.00164,10.73154 -0.0681,0.57065 -0.1533,1.12426 -0.25551,1.66083 -7.6739,-6.20044 -20.01518,-8.68744 -20.01518,-8.68744 13.80622,5.05064 18.26066,9.71801 19.4275,11.25109 -0.13627,0.49399 -0.28106,0.97947 -0.42585,1.43939 -7.65687,-6.29414 -20.17701,-8.8152 -20.17701,-8.8152 13.45702,4.91437 18.02218,9.47102 19.33381,11.12333 -1.51604,3.70494 -3.19391,5.97049 -3.19391,5.97049 2.72547,-2.33368 4.43741,-4.72699 5.49353,-6.68592 2.00152,0.68988 6.6263,3.21946 12.63086,12.38386 0,0 -2.23148,-12.06021 -11.08926,-16.21656 0.0767,-0.28958 0.1022,-0.46844 0.1022,-0.46844 0,0 20.28773,-15.45853 19.38492,-35.95919 0,0 -0.72396,3.45795 -2.41886,8.00608 -2.07817,-4.85475 -15.33929,-19.71709 -15.33929,-19.71709 -11.28516,-1.81414 -15.42447,3.40684 -15.42447,3.40684 2.07817,-7.45246 12.61382,-9.46249 18.05625,-9.46249 0,0 9.70949,14.71754 30.80635,23.22612 0,0 -5.39133,-2.89581 -12.23056,-8.38082 5.5276,2.52958 12.06021,4.02007 19.26568,2.89581 -0.52806,4.44593 -2.40182,11.89839 -8.83223,17.42599 0,0 12.6053,-6.40486 13.97656,-18.65245 1.20942,-0.39179 2.43589,-0.86874 3.67087,-1.42236 -1.05612,5.09323 -4.52258,17.6815 -14.14691,27.08438 0,0 12.90341,-8.32121 18.18401,-22.88545 2.64882,6.79665 5.16136,19.83633 -5.63832,34.13653 8.60227,24.46111 -8.63634,46.48633 -8.63634,46.48633 0.62175,-0.63878 1.23498,-1.28608 1.81415,-1.9419 17.2897,-5.08471 23.91601,-26.10491 23.91601,-26.10491 -8.07421,14.33428 -17.91146,20.3729 -20.41549,21.74416 12.8012,-17.76667 10.88485,-37.9522 10.4079,-41.589 4.32668,-1.01353 9.87983,-2.60623 14.53017,-4.87178 -1.38829,2.91285 -4.29262,7.77611 -10.03315,13.38037 0,0 7.31619,-3.37278 12.12835,-9.19847 -1.14129,4.56516 -3.23649,10.52713 -7.01809,17.84332 0,0 7.20547,-7.34174 11.22554,-17.17899 0.95391,11.79618 -0.22996,33.93212 -19.29123,47.79796" /><path
         id="path987"
         style="fill:#ffffff;fill-opacity:1;fill-rule:nonzero;stroke:none;stroke-width:8.5171"
         d="m 383.85368,439.05345 c -2.87027,-9.18995 -9.62433,-24.13745 -25.36392,-40.1496 0.58768,-3.26205 0.53657,-6.86478 -0.30662,-10.90189 0.6984,26.63297 -40.5499,30.55084 -42.15112,56.98791 10.19497,-16.62538 33.25075,-24.3589 40.57546,-40.16664 10.91892,11.78767 20.50917,28.71966 24.02673,50.70229 -0.81764,8.50007 -2.06965,16.16545 -3.61976,23.07282 -0.38327,-8.11679 -2.17186,-18.74613 -7.02661,-31.64954 -0.25551,-7.85276 -2.33369,-16.28469 -6.07269,-23.7627 2.94691,18.30324 3.80714,33.36147 -1.75452,47.30396 3.69642,-3.25353 6.03862,-8.17641 7.12881,-13.91694 2.47847,8.38935 3.52608,16.24211 2.67437,23.59237 -0.79209,-3.24502 -1.48198,-5.14433 -1.48198,-5.14433 0,0 -7.38432,8.09976 -18.86537,11.2085 8.50858,-19.88742 -6.28562,-37.96922 -6.28562,-37.96922 -4.07117,2.43589 -8.72151,4.30113 -13.72956,4.9314 5.06767,-8.03163 18.14142,-15.6374 18.14142,-15.6374 -14.53017,4.30114 -21.9145,11.22554 -25.35541,15.66295 -8.52561,-1.07316 -17.70704,-6.14935 -26.59038,-18.0818 -21.4205,0.71543 -26.01122,11.06371 -26.99068,15.40743 -1.09019,-0.0767 -2.19741,-0.13627 -3.32167,-0.18738 -2.94692,-25.32985 -7.94645,-51.13666 -16.25062,-72.61678 -0.25552,-0.63878 -0.50251,-1.25201 -0.74951,-1.88228 2.9895,-9.11329 6.26007,-15.18598 6.26007,-15.18598 -2.99802,3.90083 -5.5787,7.66538 -7.80166,11.29367 -3.95194,-9.76911 -7.86129,-18.3288 -11.8558,-25.93457 14.76864,-5.22949 29.99722,-8.22751 44.68069,-8.71299 -1.07315,32.02429 -34.00877,60.91429 -5.85976,83.99563 0,0 -16.94903,-25.36392 10.41641,-50.36161 0,0 -5.14433,23.25168 4.62479,40.11554 0,0 -5.33171,-35.82292 14.3002,-63.97193 0,0 -16.11435,9.30067 -26.79479,22.68955 l 0.11072,-0.27255 c 10.94448,-27.12695 7.13733,-35.6696 7.13733,-35.6696 l 16.04622,7.48653 -13.1504,-11.76212 c 10.50158,-7.81869 18.21807,-15.17747 23.88194,-21.85487 -2.27406,6.12379 -6.13231,14.98157 -12.1028,24.15449 0,0 12.19649,-11.16592 19.75116,-27.66354 0,0 8.70447,-14.32576 9.76911,-22.14445 0,0 -2.61475,3.72197 -5.80015,7.77611 4.90585,-10.95299 3.67087,-17.60484 3.67087,-17.60484 9.02813,-5.43391 13.09078,-13.16744 13.50812,-14.00211 1.47346,9.47101 4.49703,15.40743 8.90889,17.35784 2.50402,1.11574 5.28911,0.81764 7.82721,-0.77505 0.84319,1.26904 1.78007,2.28258 2.81064,3.04912 l -12.28165,8.37231 c -16.26766,17.74963 -20.2196,43.97377 -20.73914,60.1733 -1.0476,33.02079 -6.46448,71.45845 -27.9446,77.84628 7.65687,0.27254 13.95953,-4.29262 18.88241,-11.81322 15.45853,-13.97656 32.18611,-20.50917 26.76072,-46.21378 0.49399,18.50766 -10.70599,23.76271 -20.76468,33.91509 5.50204,-14.99009 7.80166,-34.7668 6.82219,-52.81453 15.07527,7.69946 27.28027,19.93853 34.52832,37.28786 v -11.1063 c 20.76468,29.47768 20.18552,53.41073 17.76667,65.54759" /><path
         id="path991"
         style="fill:#ffffff;fill-opacity:1;fill-rule:nonzero;stroke:none;stroke-width:8.5171"
         d="m 251.82417,488.59912 c -2.18038,0.76654 -3.85824,2.02707 -4.90585,2.97247 0.96243,-3.33019 2.50403,-7.83574 4.36076,-10.08425 0,0 1.41383,-0.38327 3.10874,-0.63878 -1.26905,2.41885 -2.89582,5.98752 -2.56365,7.75056" /><path
         id="path995"
         style="fill:#ffffff;fill-opacity:1;fill-rule:nonzero;stroke:none;stroke-width:8.5171"
         d="m 294.2555,452.68081 c 0,0 -2.65733,1.70342 -4.84623,9.45398 0,0 6.19194,-3.96897 9.35178,-4.02007 0,0 -3.20243,-3.05764 -4.50555,-5.43391" /><path
         id="path999"
         style="fill:#ffffff;fill-opacity:1;fill-rule:nonzero;stroke:none;stroke-width:8.5171"
         d="m 277.05011,474.40452 c 0,0 5.96197,-6.47299 14.98158,-8.68744 0,0 -7.02661,9.00257 -7.82721,12.46903 0,0 -3.17688,-2.49551 -7.15437,-3.78159" /><path
         id="path1003"
         style="fill:#ffffff;fill-opacity:1;fill-rule:nonzero;stroke:none;stroke-width:8.5171"
         d="m 279.65379,455.37903 c 0,0 -3.26205,2.51254 -5.44243,9.11329 0,0 5.86828,-4.13931 8.55117,-4.31817 0,0 -2.81916,-2.83619 -3.10874,-4.79512" /><path
         id="path1007"
         style="fill:#ffffff;fill-opacity:1;fill-rule:nonzero;stroke:none;stroke-width:8.5171"
         d="m 260.62233,474.52887 c 0,0 4.51407,-5.71497 10.61231,-7.5717 0,0 -2.89582,3.6879 -3.46646,5.85125 0,0 -4.54813,0.57916 -7.14585,1.72045" /></g><path
       d="m 27.65925,549.05263 c 1.013535,0.51954 2.018552,1.01354 3.032087,1.51604 -1.993001,-0.95391 -3.032087,-1.51604 -3.032087,-1.51604"
       style="fill:#ffffff;fill-opacity:1;fill-rule:nonzero;stroke:none;stroke-width:8.5171"
       id="path1051" /><g
       id="g2185"><path
         id="path1011"
         style="fill:#ffffff;fill-opacity:1;fill-rule:nonzero;stroke:none;stroke-width:8.5171"
         d="m 92.250369,517.15354 c -0.170342,6.67741 -0.340684,17.49412 -0.511026,24.18004 -11.106296,-1.02205 -22.144455,-2.38478 -33.063376,-4.0882 0.229962,-6.39634 0.459924,-16.91496 0.689885,-23.30278 9.309189,1.15832 20.355866,2.30813 32.884517,3.21094" /><path
         id="path1015"
         style="fill:#ffffff;fill-opacity:1;fill-rule:nonzero;stroke:none;stroke-width:8.5171"
         d="m 141.96723,518.93021 c 5.73201,0 11.3107,-0.0681 16.71906,-0.20441 0.0596,6.83923 0.11924,17.81777 0.18738,24.64848 -11.2085,0.34069 -22.43404,0.34069 -33.64254,0 0.0596,-6.83071 0.12776,-17.80073 0.18738,-24.63996 5.35725,0.12775 10.87633,0.19589 16.54872,0.19589" /><path
         id="path1019"
         style="fill:#ffffff;fill-opacity:1;fill-rule:nonzero;stroke:none;stroke-width:8.5171"
         d="m 224.73213,513.93323 c 0.22996,6.38782 0.45993,16.91495 0.68989,23.3113 -10.91892,1.70342 -21.94857,3.06615 -33.05486,4.0882 -0.17886,-6.68592 -0.3492,-17.50263 -0.51954,-24.18856 12.52865,-0.90281 23.57532,-2.05262 32.88451,-3.21094" /><path
         id="path1023"
         style="fill:#ffffff;fill-opacity:1;fill-rule:nonzero;stroke:none;stroke-width:8.5171"
         d="m 59.421213,376.41786 c -0.06814,-6.43041 -0.136273,-17.00013 -0.195893,-23.43054 10.987057,-1.60121 21.812289,-2.86174 32.93562,-3.82418 0.0511,6.78813 0.102205,17.70705 0.153308,24.49518 -13.354811,0.80912 -24.418522,1.83118 -32.893035,2.75954" /><path
         id="path1027"
         style="fill:#ffffff;fill-opacity:1;fill-rule:nonzero;stroke:none;stroke-width:8.5171"
         d="m 144.03518,372.12694 c -6.45596,0 -12.64789,0.0681 -18.59283,0.1959 -0.017,-6.98402 -0.0341,-18.09032 -0.0511,-25.06582 5.54463,-0.16183 11.1063,-0.23848 16.65945,-0.23848 5.55314,0 11.11481,0.0767 16.66796,0.23848 -0.0256,6.94995 -0.0426,18.03921 -0.0596,24.98916 -4.67589,-0.0766 -9.54767,-0.11924 -14.62386,-0.11924" /><path
         id="path1031"
         style="fill:#ffffff;fill-opacity:1;fill-rule:nonzero;stroke:none;stroke-width:8.5171"
         d="m 191.7897,373.51097 c 0.0511,-6.73702 0.1022,-17.60484 0.15331,-24.34186 11.03816,0.95391 22.03373,2.22296 32.93562,3.81566 -0.0681,6.46447 -0.12776,17.05974 -0.1959,23.5157 -7.98904,-1.00501 -18.95054,-2.12927 -32.89303,-2.9895" /><path
         id="path1035"
         style="fill:#ffffff;fill-opacity:1;fill-rule:nonzero;stroke:none;stroke-width:8.5171"
         d="m 125.27797,308.28022 c -0.017,-6.48151 -0.0341,-12.95451 -0.0511,-19.43602 5.2295,-3.30463 10.82523,-6.78813 16.82127,-10.56972 6.00455,3.78159 11.59177,7.26509 16.82979,10.56972 -0.017,6.48151 -0.0341,12.95451 -0.0511,19.43602 -11.17443,-0.42586 -22.37441,-0.42586 -33.54885,0" /><path
         id="path1039"
         style="fill:#ffffff;fill-opacity:1;fill-rule:nonzero;stroke:none;stroke-width:8.5171"
         d="m 91.026462,569.27989 c 0.238479,-9.31771 0.476958,-18.63541 0.715437,-27.9446 11.106291,1.02205 22.289251,1.70342 33.489231,2.0441 -0.0852,10.00759 -0.17886,20.01518 -0.27255,30.02277 -12.24759,-0.74098 -23.60939,-2.23148 -33.932118,-4.12227" /><path
         id="path1043"
         style="fill:#ffffff;fill-opacity:1;fill-rule:nonzero;stroke:none;stroke-width:8.5171"
         d="m 159.14281,573.40387 c -0.0937,-10.00759 -0.17886,-20.01518 -0.27255,-30.02277 11.19999,-0.34069 22.38294,-1.02206 33.48923,-2.05263 0.23848,9.31771 0.47696,18.63542 0.71544,27.95312 -10.31421,1.8908 -21.68453,3.38129 -33.93212,4.12228" /><path
         id="path1047"
         style="fill:#ffffff;fill-opacity:1;fill-rule:nonzero;stroke:none;stroke-width:8.5171"
         d="m 253.41176,550.56612 c -4.48851,2.14631 -13.84029,6.2771 -27.13548,10.48455 -0.28106,-7.93794 -0.57064,-15.87587 -0.85171,-23.80529 10.68896,-1.66935 21.25868,-3.67087 31.67509,-5.99604 -0.22996,11.06371 -0.65582,17.80074 -0.65582,17.80074 -1.01353,0.51954 -2.01855,1.02205 -3.03208,1.51604" /><path
         id="path1055"
         style="fill:#ffffff;fill-opacity:1;fill-rule:nonzero;stroke:none;stroke-width:8.5171"
         d="m 27.65925,549.05263 c 0,0 -0.425855,-6.74554 -0.655817,-17.80925 10.416412,2.32517 20.986131,4.32668 31.675089,5.99604 -0.281064,7.93793 -0.570645,15.87587 -0.851709,23.8138 -13.295191,-4.20744 -22.646965,-8.33824 -27.135476,-10.48455 -1.013535,-0.5025 -2.018552,-0.9965 -3.032087,-1.51604" /><path
         id="path1059"
         style="fill:#ffffff;fill-opacity:1;fill-rule:nonzero;stroke:none;stroke-width:8.5171"
         d="m 125.38699,347.25531 c -11.10629,0.31514 -22.18704,0.95392 -33.233716,1.90783 -0.09369,-12.37534 -0.187376,-24.75068 -0.281064,-37.11751 0.570646,-0.47696 1.141291,-0.9454 1.720454,-1.40532 10.518616,-1.16684 21.088336,-1.95893 31.683606,-2.35924 0.0426,12.98858 0.0767,25.98567 0.11072,38.97424" /><path
         id="path1063"
         style="fill:#ffffff;fill-opacity:1;fill-rule:nonzero;stroke:none;stroke-width:8.5171"
         d="m 158.71525,347.25531 c 0.0341,-12.98857 0.0681,-25.98566 0.11072,-38.97424 10.59527,0.40031 21.16499,1.1924 31.68361,2.35924 0.57916,0.45992 1.14981,0.92836 1.72045,1.40532 -0.0937,12.36683 -0.18737,24.74217 -0.28958,37.11751 -11.03816,-0.95391 -22.1189,-1.59269 -33.2252,-1.90783" /></g><g
       id="g2170"><path
         id="path1107"
         style="fill:#ffffff;fill-opacity:1;fill-rule:nonzero;stroke:none;stroke-width:8.5171"
         d="m 61.59137,399.59544 c 0,-2.58068 -2.027069,-4.08821 -5.025088,-3.67939 -0.945398,0.12776 -1.882279,0.26403 -2.827677,0.39179 v 8.5682 c 0.945398,-0.11072 1.882279,-0.21293 2.827677,-0.31513 2.998019,-0.33217 5.025088,-2.3422 5.025088,-4.92289 v -0.0426 m -5.025088,7.81018 c -2.163343,0.22144 -4.326686,0.4514 -6.490029,0.68988 v -14.05321 c 2.163343,-0.33217 4.326686,-0.65582 6.490029,-0.97095 5.238016,-0.76654 8.857782,1.993 8.857782,6.13231 v 0.0426 c 0,4.13931 -3.619766,7.63132 -8.857782,8.15938" /><path
         id="path1111"
         style="fill:#ffffff;fill-opacity:1;fill-rule:nonzero;stroke:none;stroke-width:8.5171"
         d="m 78.900669,400.20015 c 0,-1.27756 -1.030569,-2.0441 -2.819159,-1.88228 -1.23498,0.11924 -2.478476,0.23848 -3.721972,0.36624 v 4.2841 c 1.217945,-0.11072 2.43589,-0.22144 3.653835,-0.32365 1.788591,-0.15331 2.887296,-0.97095 2.887296,-2.40182 v -0.0426 m 3.721972,-0.13627 v 0.0426 c 0,1.43938 -0.493991,2.66585 -1.430872,3.58569 -1.098706,1.08167 -2.742506,1.74601 -4.871781,1.90783 -2.546612,0.20441 -5.084707,0.41734 -7.63132,0.63879 v -14.78569 c 1.226462,-0.14479 2.444408,-0.2981 3.67087,-0.43437 v 4.76958 c 0.945398,-0.10221 1.890796,-0.20441 2.844711,-0.2981 0.0085,0 0.02555,0 0.04259,0 1.192394,-1.72897 2.384788,-3.45794 3.585699,-5.19543 1.430872,-0.15331 2.861745,-0.2981 4.292617,-0.43437 -1.362736,1.94189 -2.716954,3.88379 -4.07969,5.81717 2.120757,0.50251 3.577181,1.92487 3.577181,4.38631" /><path
         id="path1115"
         style="fill:#ffffff;fill-opacity:1;fill-rule:nonzero;stroke:none;stroke-width:8.5171"
         d="m 99.145812,396.26014 c 0,-2.68288 -2.061138,-4.7355 -5.025088,-4.50554 -2.96395,0.22996 -5.067673,2.60623 -5.067673,5.24653 v 0.0426 c 0,2.63178 2.05262,4.65033 5.016571,4.47147 2.972467,-0.18737 5.07619,-2.52958 5.07619,-5.21246 z m -5.025088,8.39786 c -5.169879,0.28107 -8.917402,-3.01505 -8.917402,-7.35877 0,-0.009 0,-0.0256 0,-0.0426 0,-4.32668 3.704938,-8.219 8.8663,-8.64485 5.169878,-0.42586 8.925918,2.99802 8.925918,7.46949 v 0.0426 c 0,4.47148 -3.704937,8.24455 -8.874816,8.53413" /><path
         id="path1119"
         style="fill:#ffffff;fill-opacity:1;fill-rule:nonzero;stroke:none;stroke-width:8.5171"
         d="m 114.65886,396.74732 c -1.47346,2.2911 -2.9384,4.5822 -4.40334,6.8733 -1.32867,0.0511 -2.65734,0.10221 -3.97749,0.16182 v -15.75663 c 1.20091,-0.0766 2.41034,-0.14479 3.61125,-0.20441 v 10.25459 c 1.55863,-2.29962 3.11726,-4.59923 4.67589,-6.90737 0.0256,0 0.0596,0 0.0937,0 1.57566,2.1889 3.1428,4.40334 4.71847,6.61779 v -10.39938 c 1.22646,-0.0511 2.44441,-0.0937 3.67087,-0.12776 v 15.96956 c -1.32867,0.0341 -2.65734,0.0596 -3.97749,0.10221 -1.47346,-2.20593 -2.9384,-4.40334 -4.41185,-6.58372" /><path
         id="path1123"
         style="fill:#ffffff;fill-opacity:1;fill-rule:nonzero;stroke:none;stroke-width:8.5171"
         d="m 130.73743,393.56448 c 2.6403,-0.0426 5.27209,-0.0767 7.91239,-0.0852 v 3.14281 c -2.6403,0.009 -5.27209,0.0341 -7.91239,0.0767 v 3.25354 c 2.99802,-0.0426 5.99604,-0.0681 8.99406,-0.0767 v 3.13429 c -4.22448,0.017 -8.44044,0.0596 -12.66493,0.13628 v -16.00363 c 4.25855,-0.10221 8.52562,-0.17034 12.78417,-0.18738 v 3.14281 c -3.0406,0.017 -6.07269,0.0426 -9.1133,0.10221 v 3.36425" /><path
         id="path1127"
         style="fill:#ffffff;fill-opacity:1;fill-rule:nonzero;stroke:none;stroke-width:8.5171"
         d="m 160.58305,397.71401 c 0,-1.3457 -1.03057,-2.2911 -2.82768,-2.32517 -1.25201,-0.0341 -2.49551,-0.0511 -3.739,-0.0767 v 4.59923 c 1.21794,0.017 2.4444,0.0426 3.66235,0.0681 1.80562,0.0341 2.90433,-0.71544 2.90433,-2.22296 v -0.0426 m 3.73901,0.28107 v 0.0511 c 0,1.49901 -0.50251,2.7425 -1.43939,3.60273 -1.09871,1.02205 -2.75103,1.55011 -4.88882,1.51605 -2.55513,-0.0511 -5.11026,-0.0852 -7.6739,-0.11073 v -16.04621 c 1.23498,0.017 2.46144,0.0426 3.69642,0.0681 v 5.12729 c 0.9454,0.017 1.89931,0.0341 2.85323,0.0511 0.017,0 0.0341,0 0.0426,0 1.20091,-1.67787 2.40182,-3.34722 3.60273,-5.01657 1.43088,0.0426 2.87027,0.0937 4.30966,0.14479 -1.36274,1.84821 -2.73399,3.70494 -4.09673,5.56167 2.12928,0.81764 3.59422,2.48699 3.59422,5.05064" /><path
         id="path1131"
         style="fill:#ffffff;fill-opacity:1;fill-rule:nonzero;stroke:none;stroke-width:8.5171"
         d="m 178.30884,394.77135 c 0,-2.49551 -1.36274,-3.85824 -3.61977,-3.97748 -2.24852,-0.11072 -3.61125,1.16684 -3.61125,3.74752 v 8.96851 c -1.23498,-0.0426 -2.46144,-0.0852 -3.6879,-0.11924 -0.009,-3.03209 -0.009,-6.05566 0,-9.08775 0,-4.6844 2.75102,-6.96698 7.25656,-6.71999 4.50555,0.25552 7.35026,2.78509 7.35026,7.52912 v 8.84926 c -1.22646,-0.0596 -2.46144,-0.11924 -3.6879,-0.17034 v -9.01961" /><path
         id="path1135"
         style="fill:#ffffff;fill-opacity:1;fill-rule:nonzero;stroke:none;stroke-width:8.5171"
         d="m 193.69242,395.12226 c 1.23498,0.0937 2.46996,0.19589 3.70494,0.2981 v -2.19741 c -0.92837,-0.68989 -2.12928,-1.09871 -3.46646,-1.20943 -2.96395,-0.247 -5.06768,1.68638 -5.06768,4.53109 v 0.0426 c 0,2.64882 2.12928,4.97399 4.80365,5.14433 1.93338,0.12775 3.08319,-0.35772 4.37779,-1.25202 0.77505,0.91133 1.54159,1.82266 2.31665,2.73399 -1.74601,1.21795 -3.56015,1.84821 -6.5752,1.66084 -5.06768,-0.30662 -8.78113,-4.12228 -8.78113,-8.57672 v -0.0426 c 0.009,-4.62478 3.59421,-7.80166 8.80668,-7.34174 3.05764,0.27255 5.42539,1.5927 7.14584,3.08319 v 6.61779 c -2.41885,-0.19589 -4.84623,-0.38327 -7.26508,-0.56213 z" /><path
         id="path1139"
         style="fill:#ffffff;fill-opacity:1;fill-rule:nonzero;stroke:none;stroke-width:8.5171"
         d="m 215.03627,395.85388 c 0,-1.09871 -0.97947,-1.72046 -2.59772,-1.89932 -1.45642,-0.16182 -2.91285,-0.32364 -4.36927,-0.47695 v 3.31315 c 1.41384,0.13627 2.83619,0.28106 4.25003,0.42585 1.88228,0.1959 2.71696,-0.32365 2.71696,-1.32015 z m -6.96699,6.86478 c 1.20943,0.1022 2.41886,0.20441 3.62828,0.31513 1.55012,0.13628 2.41034,-0.33217 2.41034,-1.30311 v -0.0426 c 0,-1.10722 -1.02205,-1.67787 -2.64881,-1.83118 -1.13278,-0.11072 -2.25704,-0.21292 -3.38981,-0.32365 z m 7.49505,-3.5346 c 1.19239,0.71544 2.18889,1.74601 2.18889,3.40684 v 0.0426 c 0,1.01353 -0.38327,1.78859 -1.14129,2.3933 -0.95391,0.75802 -2.46144,1.09019 -4.36927,0.92837 -2.58068,-0.21293 -5.16988,-0.42586 -7.75056,-0.61323 v -15.14341 c 2.64882,0.27255 5.29763,0.57065 7.94645,0.87727 3.76456,0.4514 6.24304,2.12075 6.24304,4.79512 v 0.0426 c 0,1.97596 -1.1924,2.81916 -3.11726,3.27056" /><path
         id="path1143"
         style="fill:#ffffff;fill-opacity:1;fill-rule:nonzero;stroke:none;stroke-width:8.5171"
         d="m 227.53937,401.63358 c -1.32867,1.76304 -2.64882,3.54311 -3.97749,5.35726 -1.42235,-0.14479 -2.85323,-0.28107 -4.2841,-0.40883 2.13779,-2.76805 4.26707,-5.46797 6.40486,-8.10827 v -5.68942 c 1.22646,0.17885 2.44441,0.3492 3.66235,0.52806 v 5.68942 c 2.13779,3.13429 4.26707,6.226 6.39634,9.27512 -1.38828,-0.16183 -2.76805,-0.31514 -4.15634,-0.45993 -1.3457,-2.0441 -2.69992,-4.10524 -4.04562,-6.18341" /></g><g
       id="g2158"><path
         id="path1087"
         style="fill:#ffffff;fill-opacity:1;fill-rule:nonzero;stroke:none;stroke-width:8.5171"
         d="m 67.026131,436.42763 c -2.844711,0.0511 -5.680905,0.10221 -8.525616,0.16183 v 8.58523 c 2.844711,0.017 5.680905,0.0256 8.525616,0.0341 z m 2.606232,-7.2736 c 1.873761,1.49049 3.747523,3.00654 5.612768,4.5311 v 14.70902 c -1.746006,1.37977 -3.492011,2.75103 -5.246533,4.09673 -6.583717,-0.12776 -13.158917,-0.27255 -19.7256,-0.44289 v -17.40895 c -0.562128,-0.44289 -1.132774,-0.87726 -1.694903,-1.31163 0.562129,-0.45993 1.132775,-0.91985 1.694903,-1.38829 v -17.41747 c 2.742506,-0.24699 5.485011,-0.48547 8.227517,-0.71543 v 15.66294 c 0.809124,-0.0341 1.626766,-0.0681 2.43589,-0.0937 2.333685,-5.34873 4.658853,-10.78264 6.992538,-16.30172 2.938399,-0.21293 5.885315,-0.41734 8.823714,-0.60472 -2.37627,5.63832 -4.744024,11.2085 -7.120294,16.685" /><path
         id="path1091"
         style="fill:#ffffff;fill-opacity:1;fill-rule:nonzero;stroke:none;stroke-width:8.5171"
         d="m 88.966176,430.8106 c 0.579163,0.47696 1.158326,0.95392 1.737488,1.43088 -0.579162,0.51102 -1.158325,1.01353 -1.737488,1.52456 v 11.47253 c 3.134292,0.009 6.277102,0.017 9.411394,0.017 v -11.63435 c -0.579163,-0.49399 -1.158325,-0.98799 -1.737488,-1.48198 0.579163,-0.50251 1.158325,-1.00502 1.737488,-1.50752 v -11.64288 c -3.134292,0.11072 -6.277102,0.22145 -9.411394,0.3492 z m -2.980984,-18.89944 c 5.110259,-0.28106 10.229035,-0.51954 15.356328,-0.72395 1.77156,1.37977 3.54311,2.77657 5.32319,4.19041 v 15.11785 c 0.56213,0.49399 1.13277,0.98799 1.70342,1.48198 -0.57065,0.51102 -1.14129,1.03057 -1.70342,1.54159 v 15.10082 c -1.78008,1.46494 -3.55163,2.91285 -5.32319,4.36075 -5.127293,-0.0596 -10.246069,-0.12775 -15.356328,-0.20441 -1.754522,-1.45642 -3.509045,-2.90433 -5.25505,-4.3352 v -14.53017 c -0.579163,-0.47696 -1.158325,-0.95392 -1.737488,-1.43087 0.579163,-0.494 1.158325,-0.98799 1.737488,-1.48198 v -14.55572 c 1.746005,-1.49901 3.500528,-3.00654 5.25505,-4.5311" /><path
         id="path1095"
         style="fill:#ffffff;fill-opacity:1;fill-rule:nonzero;stroke:none;stroke-width:8.5171"
         d="m 142.25851,453.20632 c -2.76805,0 -5.52759,0 -8.29565,-0.009 -2.40182,-4.90585 -4.80364,-9.8117 -7.21398,-14.70051 -2.39331,4.89733 -4.78661,9.78614 -7.17992,14.64089 -2.75102,-0.017 -5.50204,-0.0341 -8.26158,-0.0596 v -19.6059 c -0.57917,-0.50251 -1.15833,-1.00502 -1.73749,-1.50753 0.57916,-0.51102 1.15832,-1.02205 1.73749,-1.53308 v -19.59784 c 2.75954,-0.0852 5.51056,-0.15331 8.26158,-0.21293 v 23.95008 c 2.39331,-4.88881 4.78661,-9.79466 7.17992,-14.70903 2.41034,4.86327 4.81216,9.75208 7.21398,14.64941 v -24.1119 c 2.76806,-0.017 5.5276,-0.0341 8.29565,-0.0341 v 19.87891 c 0.57065,0.51102 1.14129,1.02205 1.71194,1.53308 -0.57065,0.51102 -1.14129,1.03056 -1.71194,1.55011 z" /><path
         id="path1099"
         style="fill:#ffffff;fill-opacity:1;fill-rule:nonzero;stroke:none;stroke-width:8.5171"
         d="m 157.61569,427.87646 c 0.8943,4.26707 1.78859,8.52562 2.68289,12.77565 0.88578,-4.25003 1.78007,-8.49154 2.67437,-12.73306 -1.78859,-0.017 -3.56867,-0.0256 -5.35726,-0.0426 m 13.38888,2.04411 1.77156,2.10372 -2.52958,1.46494 c -1.37977,6.5241 -2.75954,13.07375 -4.13931,19.64043 -3.87528,0.0256 -7.75056,0.0426 -11.62584,0.0596 -1.37125,-6.55816 -2.75102,-13.12485 -4.12227,-19.70005 l -2.2911,-1.68638 1.61824,-1.53308 c -1.38828,-6.6263 -2.76805,-13.26112 -4.15634,-19.89594 2.81064,0.009 5.62129,0.0341 8.44044,0.0596 0.66434,3.18539 1.32867,6.37079 1.99301,9.54766 2.88729,0.0256 5.77459,0.0596 8.66189,0.11073 0.66433,-3.15133 1.32866,-6.29414 1.993,-9.42843 2.81064,0.0681 5.62128,0.14479 8.43192,0.23848 -1.3457,6.31117 -2.69992,12.65641 -4.04562,19.01868" /><path
         id="path1103"
         style="fill:#ffffff;fill-opacity:1;fill-rule:nonzero;stroke:none;stroke-width:8.5171"
         d="m 206.83941,432.51658 c -0.57916,0.47696 -1.14981,0.9454 -1.72897,1.42236 0,6.24303 0,12.48606 0,18.72909 -2.72547,0.0426 -5.45094,0.0852 -8.18493,0.12776 v -21.48012 c -3.00654,7.09474 -6.02159,14.30872 -9.03664,21.60788 -2.95544,0.0341 -5.90235,0.0681 -8.84927,0.0937 v -19.47861 c -0.57916,-0.51102 -1.15832,-1.03057 -1.73749,-1.54159 0.57917,-0.49399 1.15833,-0.98799 1.73749,-1.48198 v -19.4786 c 2.74251,0.1022 5.48501,0.21292 8.219,0.33216 v 21.76971 c 3.00654,-7.21398 6.01307,-14.33428 9.01961,-21.33533 2.95543,0.16182 5.90235,0.33216 8.85778,0.51102 -0.009,0.017 -0.017,0.0341 -0.0255,0.0511 0,6.226 0,12.452 0,18.66948 0.57065,0.50251 1.14981,0.98799 1.72897,1.48198" /><path
         id="path1151"
         style="fill:#ffffff;fill-opacity:1;fill-rule:nonzero;stroke:none;stroke-width:8.5171"
         d="m 208.75491,442.03955 1.70342,-1.30312 v -7.6228 c 1.77155,-1.36274 3.53459,-2.69992 5.29763,-4.02007 3.74753,0.13627 7.48653,0.27255 11.21702,0.42585 v -8.53413 c -2.75954,-0.17886 -5.5276,-0.3492 -8.29565,-0.51103 v 3.16836 c -2.73399,-0.13627 -5.4765,-0.26403 -8.219,-0.39178 v -6.42189 c 1.77155,-1.28609 3.53459,-2.55513 5.29763,-3.79863 4.73551,0.3492 9.4625,0.72395 14.18949,1.13277 1.746,1.47346 3.48349,2.92989 5.2295,4.36928 v 5.27208 l 1.96745,1.72045 -1.96745,1.58418 c 0,1.91635 0,3.8327 0,5.74905 -1.74601,1.25201 -3.49201,2.52106 -5.2295,3.81566 -3.75604,-0.0767 -7.51208,-0.15331 -11.26812,-0.22145 v 8.72151 c 2.76805,-0.009 5.53611,-0.017 8.29565,-0.0256 v -2.87878 c 2.73399,0.017 5.46798,0.0255 8.20197,0.0426 0,1.93339 0,3.86677 0,5.80867 -1.74601,1.32015 -3.49201,2.66585 -5.2295,4.02858 -4.72699,0.11924 -9.45398,0.22145 -14.18949,0.31514 -1.76304,-1.34571 -3.52608,-2.70844 -5.29763,-4.08821 v -4.78661 z" /><path
         id="path1067"
         style="fill:#ffffff;fill-opacity:1;fill-rule:nonzero;stroke:none;stroke-width:8.5171"
         d="m 105.85899,458.33702 20.30476,0.22996 v 7.81018 l -12.09428,-0.17886 v 11.72804 l 1.72897,1.55011 -1.72897,1.47346 V 500.42 c -2.73399,-0.12776 -5.47649,-0.27255 -8.21048,-0.44289 v -19.31678 l -1.6949,-1.58418 1.6949,-1.41384 z" /><path
         id="path1071"
         style="fill:#ffffff;fill-opacity:1;fill-rule:nonzero;stroke:none;stroke-width:8.5171"
         d="m 130.11398,458.58997 21.38644,0.009 v 7.82721 l -13.19299,0.0256 v 9.46249 l 11.21702,-0.017 v 7.85276 l -11.21702,0.0256 v 9.45398 c 0,0 8.68744,0.009 13.02264,-0.0511 v 7.83573 c -7.06919,0.10221 -14.1469,0.0852 -21.21609,-0.0511 v -19.66598 l -1.72045,-1.55863 1.72045,-1.48198 z" /><path
         id="path1075"
         style="fill:#ffffff;fill-opacity:1;fill-rule:nonzero;stroke:none;stroke-width:8.5171"
         d="m 155.45831,458.58316 8.15938,-0.0596 v 22.09335 l 8.95147,-22.19556 8.80668,-0.12775 c 0,0 -0.017,0.0341 -0.0256,0.0511 v 19.20606 l 1.72046,1.40532 -1.72046,1.57566 v 19.26568 c -2.70844,0.17886 -5.41687,0.33217 -8.12531,0.47696 V 478.3173 c 0,0 -5.98752,14.87085 -8.98554,22.35738 -2.92136,0.10221 -5.85125,0.19589 -8.78113,0.25551 v -19.64894 l -1.72045,-1.51605 1.72045,-1.53307 z" /><path
         id="path1079"
         style="fill:#ffffff;fill-opacity:1;fill-rule:nonzero;stroke:none;stroke-width:8.5171"
         d="m 185.29711,462.53083 5.21247,-4.41185 14.56424,-0.3492 5.34022,3.96896 v 6.37931 c -2.71696,0.13627 -5.43391,0.27255 -8.15087,0.39179 v -3.24502 l -8.78964,0.32365 v 11.4044 l 1.72045,1.36273 -1.72045,1.57567 v 11.40439 c 2.92988,-0.21293 5.85976,-0.4514 8.78964,-0.70692 v -3.02357 c 2.71696,-0.22144 5.43391,-0.4514 8.15087,-0.70692 v 6.08973 c -1.78008,1.58418 -3.56015,3.17688 -5.34022,4.76957 -4.84623,0.51955 -9.70098,0.97095 -14.56424,1.36274 -1.73749,-1.2946 -3.47498,-2.60623 -5.21247,-3.9349 v -14.82827 l -1.72045,-1.42235 1.72045,-1.55012 z" /><path
         id="path1083"
         style="fill:#ffffff;fill-opacity:1;fill-rule:nonzero;stroke:none;stroke-width:8.5171"
         d="m 214.3532,457.49382 21.23312,-0.76654 v 6.83072 l -13.09078,0.75802 v 8.5682 l 11.13185,-0.90281 v 6.89033 l -11.13185,1.13277 v 8.55969 c 0,0 8.61931,-1.04761 12.92044,-1.63529 v 6.83923 c -7.00957,1.09871 -14.02766,2.08669 -21.06278,2.9384 v -18.19252 l -1.71194,-1.2946 1.71194,-1.53308 z" /><path
         id="path1147"
         style="fill:#ffffff;fill-opacity:1;fill-rule:nonzero;stroke:none;stroke-width:8.5171"
         d="m 87.335152,486.65552 2.648818,-12.00911 -5.297636,-0.27255 z m -12.324242,-9.20699 1.848211,-1.19239 c -1.473458,-6.73703 -2.998019,-13.6955 -4.105242,-18.678 l 8.329723,0.23848 1.967449,9.02813 8.568201,0.33216 c 0.655817,-3.01505 1.311634,-6.0301 1.96745,-9.06219 l 8.346758,0.16182 -4.139311,19.0783 1.541595,1.68639 -2.171861,1.20091 -4.07969,18.82279 c -3.832694,-0.31513 -7.665388,-0.66434 -11.489565,-1.05612 0,0 -1.950416,-8.95999 -4.156345,-19.10385 z" /><path
         id="path1155"
         style="fill:#ffffff;fill-opacity:1;fill-rule:nonzero;stroke:none;stroke-width:8.5171"
         d="m 51.444099,474.97261 2.418856,-0.98798 c 1.609732,-6.00456 3.279083,-12.23055 4.488511,-16.88089 l 8.363791,0.28958 c 1.558629,6.20897 3.10874,12.48607 4.66737,18.82279 l 2.035586,1.2946 -1.490492,0.91133 c 1.541595,6.30265 3.083189,12.64789 4.624784,19.05275 l -8.346756,-0.97947 -5.672388,-22.94506 -5.66387,21.42902 -8.355274,-1.26905 c 0,0 2.188894,-8.00607 4.66737,-17.19602 z" /></g></g></svg>
