<?xml version="1.0" encoding="UTF-8" standalone="no"?>
<svg
   id="Groupe_179"
   data-name="Groupe 179"
   width="588.1687"
   height="750"
   viewBox="0 0 588.1687 750.00002"
   version="1.1"
   sodipodi:docname="Logo RC Vannes - 2022.svg"
   inkscape:version="1.2 (dc2aeda, 2022-05-15)"
   xmlns:inkscape="http://www.inkscape.org/namespaces/inkscape"
   xmlns:sodipodi="http://sodipodi.sourceforge.net/DTD/sodipodi-0.dtd"
   xmlns="http://www.w3.org/2000/svg"
   xmlns:svg="http://www.w3.org/2000/svg">
  <sodipodi:namedview
     id="namedview222"
     pagecolor="#ffffff"
     bordercolor="#666666"
     borderopacity="1.0"
     inkscape:showpageshadow="2"
     inkscape:pageopacity="0.0"
     inkscape:pagecheckerboard="0"
     inkscape:deskcolor="#d1d1d1"
     showgrid="false"
     inkscape:zoom="0.77926883"
     inkscape:cx="198.9044"
     inkscape:cy="458.12175"
     inkscape:window-width="1920"
     inkscape:window-height="1080"
     inkscape:window-x="0"
     inkscape:window-y="0"
     inkscape:window-maximized="0"
     inkscape:current-layer="Groupe_179" />
  <defs
     id="defs184" />
  <g
     id="g1107">
    <path
       id="Tracé_14"
       data-name="Tracé 14"
       d="M 279.17151,741.80771 A 538.49646,538.49646 0 0 1 23.700081,111.86874 L 29.643696,92.492554 49.782645,90.204262 A 539.59603,539.59603 0 0 0 277.62122,10.346843 L 294.08503,0 310.55379,10.346843 a 539.55641,539.55641 0 0 0 227.83858,79.857419 l 20.13399,2.288292 5.94362,19.371236 A 538.50637,538.50637 0 0 1 308.9936,741.80771 L 294.08008,750 Z"
       fill="#001438"
       style="stroke-width:0.201897" />
    <path
       id="Tracé_15"
       data-name="Tracé 15"
       d="M 281.3013,737.92951 A 534.08828,534.08828 0 0 1 27.925001,113.16643 L 33.031557,96.558977 50.292805,94.577772 A 543.89524,543.89524 0 0 0 279.96894,14.096273 l 14.11609,-8.8708449 14.11608,8.8708449 a 543.9101,543.9101 0 0 0 229.67614,80.506264 l 17.2563,1.981205 5.11151,16.602498 A 534.07837,534.07837 0 0 1 306.86875,737.93446 l -12.77877,7.02337 z"
       fill="#ffffff"
       style="stroke-width:0.201897" />
    <path
       id="Tracé_16"
       data-name="Tracé 16"
       d="M 285.55099,730.17309 A 525.23229,525.23229 0 0 1 36.379793,115.76676 l 3.407673,-11.08484 11.505848,-1.3076 A 552.70665,552.70665 0 0 0 284.6743,21.580275 l 9.41073,-5.908944 9.41072,5.908944 a 552.68189,552.68189 0 0 0 233.38099,81.808905 l 11.50585,1.3076 3.40272,11.06998 A 525.23725,525.23725 0 0 1 302.60916,730.17309 l -8.51918,4.68555 z"
       fill="#001438"
       style="stroke-width:0.201897" />
    <path
       id="Tracé_17"
       data-name="Tracé 17"
       d="M 53.289378,120.96742 A 507.53518,507.53518 0 0 0 294.08008,714.67511 507.53518,507.53518 0 0 0 534.87573,120.96742 573.93526,573.93526 0 0 1 294.08008,36.56809 573.92041,573.92041 0 0 1 53.289378,120.96742"
       fill="#ffffff"
       style="stroke-width:0.201897" />
  </g>
  <g
     id="g1145">
    <g
       id="g1101">
      <path
         id="Tracé_18"
         data-name="Tracé 18"
         d="m 252.32123,639.28036 h -6.325 V 616.4965 h -3.14516 l 3.46711,-6.49835 h 5.99314 z"
         fill="#001438"
         style="stroke-width:0.201897" />
      <path
         id="Tracé_19"
         data-name="Tracé 19"
         d="m 276.38791,628.25495 a 10.431044,10.431044 0 0 1 -5.70587,1.40666 9.182885,9.182885 0 0 1 -9.41072,-9.66333 10.148722,10.148722 0 0 1 10.62421,-10.436 c 7.484,0 11.39193,5.30468 11.39193,13.47219 0,10.17349 -5.2502,16.761 -13.72975,16.761 a 16.280552,16.280552 0 0 1 -5.54242,-0.85192 v -6.95898 l 3.39281,2.4765 c 0.41605,0.0446 1.0748,0.0842 1.32245,0.0842 a 7.0629957,7.0629957 0 0 0 7.68708,-6.28042 m 0.4953,-5.77026 c -0.12382,-5.0917 -1.94158,-7.61278 -5.00749,-7.61278 a 4.4577112,4.4577112 0 0 0 -4.21502,5.00254 4.0515641,4.0515641 0 0 0 4.33884,4.3636 7.6276391,7.6276391 0 0 0 4.87872,-1.75336"
         fill="#001438"
         style="stroke-width:0.201897" />
      <path
         id="Tracé_20"
         data-name="Tracé 20"
         d="m 292.45053,609.99319 h 16.12701 v 7.52363 l -3.26899,-2.0555 h -6.98374 v 4.70536 h 0.27736 c 8.84608,0 11.19876,5.04217 11.19876,9.70295 a 9.8020115,9.8020115 0 0 1 -10.62421,9.88126 20.411364,20.411364 0 0 1 -7.60782,-1.45618 v -5.60186 a 17.236483,17.236483 0 0 0 7.40475,1.75337 4.0367051,4.0367051 0 0 0 4.42304,-4.45771 c 0,-2.8678 -1.27788,-4.66574 -6.28042,-4.66574 h -4.67069 z"
         fill="#001438"
         style="stroke-width:0.201897" />
      <path
         id="Tracé_21"
         data-name="Tracé 21"
         d="m 318.38451,624.65907 c 0,-8.33592 5.2502,-15.14136 12.44692,-15.14136 7.27598,0 12.48655,6.80048 12.48655,15.14136 a 13.774327,13.774327 0 0 1 -12.48655,15.09183 13.506865,13.506865 0 0 1 -12.44692,-15.09183 m 18.52427,0.2526 c 0,-5.21552 -2.35764,-9.88126 -6.16155,-9.88126 -3.64046,0 -5.94361,4.1952 -5.94361,9.32157 0,5.22048 2.31305,9.90603 6.03772,9.90603 3.72466,0 6.07734,-4.23483 6.07734,-9.36615"
         fill="#001438"
         style="stroke-width:0.201897" />
    </g>
    <g
       id="g1095">
      <path
         id="Tracé_39"
         data-name="Tracé 39"
         d="m 332.89188,429.24786 a 196.20368,196.20368 0 0 1 -17.80113,13.84367 123.82531,123.82531 0 0 1 31.62499,8.29135 c 14.25972,-10.53011 18.32614,-33.32882 8.08827,-46.38497 a 105.67747,105.67747 0 0 1 -11.93676,14.73026 29.148478,29.148478 0 0 1 -4.95301,18.60352 30.35206,30.35206 0 0 0 -5.0075,-9.07887"
         fill="#001438"
         style="stroke-width:0.201897" />
      <path
         id="Tracé_40"
         data-name="Tracé 40"
         d="m 234.13872,404.99296 c -10.22301,13.0611 -6.1764,35.85486 8.08827,46.38496 a 123.93923,123.93923 0 0 1 31.62499,-8.29134 195.56474,195.56474 0 0 1 -17.79618,-13.84367 30.35206,30.35206 0 0 0 -5.00749,9.07887 29.163337,29.163337 0 0 1 -4.95301,-18.60351 105.49916,105.49916 0 0 1 -11.93676,-14.73026"
         fill="#001438"
         style="stroke-width:0.201897" />
      <path
         id="Tracé_41"
         data-name="Tracé 41"
         d="m 268.16592,486.88607 a 32.239158,32.239158 0 0 1 21.49112,13.86843 5.3195353,5.3195353 0 0 0 8.8857,0 32.249064,32.249064 0 0 1 21.49113,-13.86843 32.293641,32.293641 0 0 0 -51.863,0"
         fill="#001438"
         style="stroke-width:0.201897" />
      <path
         id="Tracé_42"
         data-name="Tracé 42"
         d="m 382.21398,442.2099 a 194.87132,194.87132 0 0 1 -152.78557,95.18204 80.496358,80.496358 0 0 1 -23.27916,-1.20853 c -14.36374,-3.91288 4.67564,-29.60911 4.67564,-29.60911 0,0 -25.69623,19.04929 -29.60911,4.67564 a 73.799885,73.799885 0 0 1 -1.35712,-20.55995 c 0.25756,-4.25959 0.63398,-8.51423 1.17386,-12.75401 A 235.47116,235.47116 0 0 1 162.008,445.52842 c -8.50432,28.43525 -12.97689,89.57523 3.39777,106.59378 18.0042,18.70753 148.78849,25.3099 225.1788,-77.33633 a 174.59369,174.59369 0 0 0 -8.38545,-32.57597"
         fill="#001438"
         style="stroke-width:0.201897" />
      <path
         id="Tracé_43"
         data-name="Tracé 43"
         d="m 360.708,338.65727 a 175.95081,175.95081 0 0 1 31.69928,-13.06605 177.18411,177.18411 0 0 0 -78.93616,9.54941 h 0.0396 v 0 0 0 c 0.0693,0.0396 0.14364,0.0743 0.21794,0.11392 a 194.85646,194.85646 0 0 1 94.98392,152.6667 80.501311,80.501311 0 0 1 -1.21349,23.27916 c -3.90793,14.36374 -29.60416,-4.67564 -29.60416,-4.67564 0,0 19.04929,25.69127 4.67565,29.60415 a 73.676059,73.676059 0 0 1 -20.55996,1.36208 c -4.25959,-0.26251 -8.51423,-0.63399 -12.754,-1.17387 a 235.02539,235.02539 0 0 1 -32.41252,19.02453 c 28.4402,8.50432 89.58018,12.97689 106.59378,-3.39777 17.77141,-17.10771 24.60657,-135.96019 -62.72495,-213.30148"
         fill="#001438"
         style="stroke-width:0.201897" />
      <path
         id="Tracé_44"
         data-name="Tracé 44"
         d="M 242.68762,519.25896 C 140.04634,442.85874 146.64871,312.09921 165.35624,294.08015 c 17.01359,-16.37465 78.15358,-11.88723 106.59378,-3.39776 a 235.32257,235.32257 0 0 0 -32.41252,19.02452 c -19.08891,-2.42698 -52.03635,-1.98121 -55.88979,2.6251 -3.85344,4.6063 -4.14072,19.92101 -4.14072,30.94146 a 194.74254,194.74254 0 0 0 95.75659,167.60004 174.59369,174.59369 0 0 1 -32.57596,8.38545"
         fill="#001438"
         style="stroke-width:0.201897" />
      <path
         id="Tracé_45"
         data-name="Tracé 45"
         d="M 423.28436,294.05539 C 408.45009,278.64161 317.09673,271.45975 242.65295,326.77994 a 178.6403,178.6403 0 0 0 -28.08853,-2.23381 q -8.74207,0 -17.27116,0.83211 a 177.05533,177.05533 0 0 1 31.1594,12.91746 217.43724,217.43724 0 0 0 -30.34215,33.08612 174.39061,174.39061 0 0 0 8.38545,32.58091 194.73759,194.73759 0 0 1 167.60498,-95.76649 c 11.02046,0 26.33022,0.29223 30.94147,4.14567 4.61126,3.85344 5.05208,36.80088 2.62015,55.88484 a 235.21361,235.21361 0 0 1 19.02452,32.41251 c 8.50432,-28.44019 12.97689,-89.57523 -3.39777,-106.59378"
         fill="#001438"
         style="stroke-width:0.201897" />
    </g>
    <g
       id="g1086">
      <g
         id="g1054">
        <path
           id="Tracé_26"
           data-name="Tracé 26"
           d="m 125.7569,128.6644 h 9.72772 c 8.08331,0 11.39193,4.13082 11.39193,9.41073 a 9.6137971,9.6137971 0 0 1 -3.7742,7.61278 l 6.32005,12.79363 h -7.00356 l -4.8391,-10.53011 h -3.73457 v 10.53011 h -6.28042 v -26.42432 z m 8.08827,5.30963 v 8.56871 h 3.7742 a 4.8143281,4.8143281 0 0 0 2.87274,-4.45771 c 0,-3.30366 -2.50622,-4.13081 -5.04712,-4.13081 z"
           fill="#001438"
           style="stroke-width:0.201897" />
        <path
           id="Tracé_27"
           data-name="Tracé 27"
           d="m 156.24764,143.54325 c 0,-1.74346 0.0793,-3.6999 0.24766,-5.82969 l 0.4953,-5.70092 -1.7286,-3.34824 h 8.24676 l -0.738,9.22251 c -0.16345,1.87224 -0.24765,3.61075 -0.24765,5.65634 0,6.79058 2.01092,9.35624 6.9788,9.35624 h 1.4859 V 128.6644 h 6.28042 v 29.80228 h -7.76137 c -9.90603,0 -13.25922,-4.45771 -13.25922,-14.92343"
           fill="#001438"
           style="stroke-width:0.201897" />
        <path
           id="Tracé_28"
           data-name="Tracé 28"
           d="m 201.84508,152.68156 v -5.82969 h -4.75489 v -5.62663 h 10.71336 v 17.23649 h -7.15215 a 13.868435,13.868435 0 0 1 -14.61138,-14.88381 15.166124,15.166124 0 0 1 15.22556,-15.39891 14.537091,14.537091 0 0 1 4.68059,0.69837 v 7.3057 l -3.28384,-2.34278 c -0.4953,-0.0446 -0.94603,-0.0446 -1.1491,-0.0446 a 8.7272078,8.7272078 0 0 0 -9.11355,9.48502 8.3210608,8.3210608 0 0 0 8.25172,9.41073 z"
           fill="#001438"
           style="stroke-width:0.201897" />
        <path
           id="Tracé_29"
           data-name="Tracé 29"
           d="m 217.63528,132.10179 -1.82271,-3.43739 h 10.22302 c 6.43892,0 9.68809,3.35319 9.68809,7.70194 a 8.0535982,8.0535982 0 0 1 -2.91237,5.87427 7.984256,7.984256 0 0 1 4.55677,7.31065 c 0,6.1764 -3.46711,8.91542 -10.89662,8.91542 h -8.83618 z m 6.28042,1.78309 v 6.96393 l 3.36805,-0.0446 a 5.0520726,5.0520726 0 0 0 2.05055,-4.00204 2.8529351,2.8529351 0 0 0 -3.24423,-2.91732 z m 0,12.05068 v 7.22149 h 2.50127 c 2.66968,0 4.6806,-1.04509 4.6806,-3.65532 0,-2.43689 -1.6444,-3.56617 -4.75985,-3.56617 z"
           fill="#001438"
           style="stroke-width:0.201897" />
        <path
           id="Tracé_30"
           data-name="Tracé 30"
           d="m 256.46194,146.89149 v 11.57024 h -6.27547 v -11.35231 l -10.01499,-18.44997 h 6.9788 l 6.20117,12.35777 4.55677,-9.74753 -0.9906,-2.61024 h 8.65786 z"
           fill="#001438"
           style="stroke-width:0.201897" />
        <path
           id="Tracé_31"
           data-name="Tracé 31"
           d="m 349.91538,133.84525 c -0.45072,-0.0446 -0.9906,-0.0446 -1.14909,-0.0446 a 8.7272078,8.7272078 0 0 0 -8.539,9.48502 c 0,5.48298 3.08078,10.09424 8.04865,10.09424 a 12.560839,12.560839 0 0 0 5.41364,-1.04509 v 5.52756 a 16.453907,16.453907 0 0 1 -5.66625,1.08966 14.066555,14.066555 0 0 1 -14.16066,-15.35433 14.859037,14.859037 0 0 1 14.69559,-15.40387 15.02744,15.02744 0 0 1 4.63602,0.82715 v 7.17692 z"
           fill="#001438"
           style="stroke-width:0.201897" />
        <path
           id="Tracé_32"
           data-name="Tracé 32"
           d="m 373.04596,152.89949 h 10.01499 v 5.56719 h -16.34494 v -26.40946 l -1.80785,-3.39282 h 8.12789 z"
           fill="#001438"
           style="stroke-width:0.201897" />
        <path
           id="Tracé_33"
           data-name="Tracé 33"
           d="m 391.34238,143.54325 c 0,-1.74346 0.0793,-3.6999 0.24765,-5.82969 l 0.4953,-5.70092 -1.7286,-3.34824 h 8.23191 l -0.738,9.22251 c -0.16345,1.87224 -0.24765,3.61075 -0.24765,5.65634 0,6.79058 2.01092,9.35624 6.97879,9.35624 h 1.4859 V 128.6644 h 6.28042 v 29.80228 h -7.75641 c -9.90603,0 -13.25922,-4.45771 -13.25922,-14.92343"
           fill="#001438"
           style="stroke-width:0.201897" />
        <path
           id="Tracé_34"
           data-name="Tracé 34"
           d="m 426.3255,132.10179 -1.85242,-3.43739 h 10.22301 c 6.43892,0 9.68314,3.35319 9.68314,7.70194 a 8.0535982,8.0535982 0 0 1 -2.91237,5.87427 7.984256,7.984256 0 0 1 4.55182,7.31065 c 0,6.1764 -3.46711,8.91542 -10.89663,8.91542 h -8.77674 z m 6.28042,1.78309 v 6.96393 l 3.3631,-0.0446 a 5.0520726,5.0520726 0 0 0 2.05055,-4.00204 2.8529351,2.8529351 0 0 0 -3.24423,-2.91732 z m 0,12.05068 v 7.22149 h 2.47651 c 2.66967,0 4.6806,-1.04509 4.6806,-3.65532 0,-2.43689 -1.6444,-3.56617 -4.7648,-3.56617 z"
           fill="#001438"
           style="stroke-width:0.201897" />
      </g>
      <g
         id="g1043">
        <path
           id="Tracé_35"
           data-name="Tracé 35"
           d="m 275.89262,96.024051 a 153.54338,153.54338 0 0 0 -13.63069,7.508769 117.85198,117.85198 0 0 0 13.63069,7.48895 153.20658,153.20658 0 0 0 13.61087,-7.50876 117.66376,117.66376 0 0 0 -13.61087,-7.488959 z"
           fill="#001438"
           style="stroke-width:0.201897" />
        <path
           id="Tracé_36"
           data-name="Tracé 36"
           d="m 301.46997,85.69702 a 85.191813,85.191813 0 0 0 -7.74651,-14.125991 89.803068,89.803068 0 0 0 -7.71184,14.111132 85.191813,85.191813 0 0 0 7.74651,14.125992 89.649524,89.649524 0 0 0 7.71184,-14.111133"
           fill="#001438"
           style="stroke-width:0.201897" />
        <path
           id="Tracé_37"
           data-name="Tracé 37"
           d="M 311.82177,111.02177 A 130.93288,130.93288 0 0 0 325.606,103.5031 136.13355,136.13355 0 0 0 311.83167,96.024051 v 0 a 132.21571,132.21571 0 0 0 -13.80404,7.493909 135.61843,135.61843 0 0 0 13.79414,7.50381 v 0"
           fill="#001438"
           style="stroke-width:0.201897" />
        <path
           id="Tracé_38"
           data-name="Tracé 38"
           d="m 294.39707,163.89518 c 1.43637,-3.20955 11.62472,-15.92889 14.26467,-20.66397 -11.3523,-22.55602 -13.04623,-29.91619 -14.57671,-37.2417 0,0 -0.83706,12.12498 -14.70055,36.46408 3.15012,5.59195 13.51678,17.71693 15.01259,21.44654"
           fill="#001438"
           style="stroke-width:0.201897" />
      </g>
      <g
         id="g1062">
        <path
           id="Tracé_22"
           data-name="Tracé 22"
           d="M 138.64959,249.61697 H 124.14717 L 98.188435,173.92008 h 16.884815 l 16.46877,50.83277 11.9219,-42.87328 -2.97181,-7.95949 H 162.008 Z"
           fill="#001438"
           style="stroke-width:0.201897" />
        <path
           id="Tracé_23"
           data-name="Tracé 23"
           d="m 178.69965,234.80746 -5.25019,14.80951 h -15.65152 l 24.52731,-66.96473 -3.39776,-8.73216 h 16.88482 l 30.64924,75.69689 h -16.98388 l -5.85446,-14.90857 a 37.682518,37.682518 0 0 1 -12.35282,2.10008 41.318029,41.318029 0 0 1 -12.56083,-1.98121 m 20.17361,-13.15024 -8.33592,-20.66397 -7.51867,20.555 a 28.811673,28.811673 0 0 0 8.23686,1.32741 24.601613,24.601613 0 0 0 7.61773,-1.21844"
           fill="#001438"
           style="stroke-width:0.201897" />
        <path
           id="Tracé_24"
           data-name="Tracé 24"
           d="m 426.70193,249.61697 h -43.23484 v -66.96473 l -4.63602,-8.73216 h 46.94465 v 14.03684 h -26.56301 v 16.13196 h 22.031 v 14.1458 h -22.031 v 17.24144 h 27.48922 z"
           fill="#001438"
           style="stroke-width:0.201897" />
        <path
           id="Tracé_25"
           data-name="Tracé 25"
           d="m 444.40896,229.17588 a 25.815101,25.815101 0 0 0 15.9586,6.96394 9.9060248,9.9060248 0 0 0 8.74702,-5.19571 l -31.80824,-33.81422 a 27.533796,27.533796 0 0 1 27.68734,-24.4233 30.515509,30.515509 0 0 1 21.41682,7.84557 l -6.89955,17.12752 -3.90792,-8.17742 a 14.517279,14.517279 0 0 0 -9.05906,-2.87275 12.095256,12.095256 0 0 0 -11.63463,6.07734 l 32.53139,34.47792 a 27.281192,27.281192 0 0 1 -27.27624,23.65064 33.972712,33.972712 0 0 1 -24.29453,-10.16854 z"
           fill="#001438"
           style="stroke-width:0.201897" />
        <path
           id="Tracé_46"
           data-name="Tracé 46"
           d="m 309.85542,249.62192 h 15.00763 V 204.8665 l 29.0098,44.75542 h 13.09576 v -75.69689 h -15.11164 v 46.06302 l -28.82653,-46.06302 h -17.83085 l 4.63602,8.84113 z"
           fill="#001438"
           style="stroke-width:0.201897" />
        <path
           id="Tracé_47"
           data-name="Tracé 47"
           d="m 236.2487,249.62192 h 15.0324 V 204.8665 l 28.99493,44.75542 h 13.09576 v -75.69689 h -15.12154 v 46.06302 l -28.82653,-46.06302 h -17.83085 l 4.63602,8.84113 z"
           fill="#001438"
           style="stroke-width:0.201897" />
      </g>
    </g>
  </g>
</svg>
